<svg width="64" height="64" viewBox="0 0 64 64" fill="none" xmlns="http://www.w3.org/2000/svg">
<path fill-rule="evenodd" clip-rule="evenodd" d="M11.4548 54.5873V35.5873H9.45477V56.5873H24.4548V35.5873H22.4548V54.5873H11.4548Z" fill="#0B0D0E"/>
<path fill-rule="evenodd" clip-rule="evenodd" d="M23.6959 56.5873H10.2136L9.00311 58.5873H24.9064L23.6959 56.5873ZM10.2136 54.5873C9.51387 54.5873 8.86498 54.953 8.50264 55.5517L7.29211 57.5517C6.48536 58.8846 7.44507 60.5873 9.00311 60.5873H24.9064C26.4645 60.5873 27.4242 58.8846 26.6174 57.5517L25.4069 55.5517C25.0446 54.953 24.3957 54.5873 23.6959 54.5873H10.2136Z" fill="#0B0D0E"/>
<path fill-rule="evenodd" clip-rule="evenodd" d="M22.4548 18.5873H11.4548L11.4548 35.2246L16.9548 49.8913L22.4548 35.2246V18.5873ZM11.4548 16.5873C10.3502 16.5873 9.45477 17.4827 9.45477 18.5873V35.2246C9.45477 35.4645 9.49791 35.7023 9.58211 35.9269L15.0821 50.5935C15.731 52.3239 18.1786 52.3239 18.8274 50.5935L24.3274 35.9269C24.4116 35.7023 24.4548 35.4645 24.4548 35.2246V18.5873C24.4548 17.4827 23.5593 16.5873 22.4548 16.5873H11.4548Z" fill="#0B0D0E"/>
<path fill-rule="evenodd" clip-rule="evenodd" d="M18.4548 14.5873H15.4548V16.5873H18.4548V14.5873ZM15.4548 12.5873C14.3502 12.5873 13.4548 13.4827 13.4548 14.5873V16.5873C13.4548 17.6919 14.3502 18.5873 15.4548 18.5873H18.4548C19.5593 18.5873 20.4548 17.6919 20.4548 16.5873V14.5873C20.4548 13.4827 19.5593 12.5873 18.4548 12.5873H15.4548Z" fill="#0B0D0E"/>
<path fill-rule="evenodd" clip-rule="evenodd" d="M7.95477 22.5873C7.95477 22.035 8.40249 21.5873 8.95477 21.5873H24.9548C25.5071 21.5873 25.9548 22.035 25.9548 22.5873C25.9548 23.1396 25.5071 23.5873 24.9548 23.5873H8.95477C8.40249 23.5873 7.95477 23.1396 7.95477 22.5873ZM7.95477 28.5873C7.95477 28.035 8.40249 27.5873 8.95477 27.5873H24.9548C25.5071 27.5873 25.9548 28.035 25.9548 28.5873C25.9548 29.1396 25.5071 29.5873 24.9548 29.5873H8.95477C8.40249 29.5873 7.95477 29.1396 7.95477 28.5873Z" fill="#0B0D0E"/>
<path fill-rule="evenodd" clip-rule="evenodd" d="M34.4548 54.5873V35.5873H32.4548V56.5873H47.4548V35.5873H45.4548V54.5873H34.4548Z" fill="#0B0D0E"/>
<path fill-rule="evenodd" clip-rule="evenodd" d="M46.6959 56.5873H33.2136L32.0031 58.5873H47.9064L46.6959 56.5873ZM33.2136 54.5873C32.5139 54.5873 31.865 54.953 31.5026 55.5517L30.2921 57.5517C29.4854 58.8846 30.4451 60.5873 32.0031 60.5873H47.9064C49.4645 60.5873 50.4242 58.8846 49.6174 57.5517L48.4069 55.5517C48.0446 54.953 47.3957 54.5873 46.6959 54.5873H33.2136Z" fill="#0B0D0E"/>
<path fill-rule="evenodd" clip-rule="evenodd" d="M45.4548 18.5873H34.4548L34.4548 35.2246L39.9548 49.8913L45.4548 35.2246V18.5873ZM34.4548 16.5873C33.3502 16.5873 32.4548 17.4827 32.4548 18.5873V35.2246C32.4548 35.4645 32.4979 35.7023 32.5821 35.9269L38.0821 50.5935C38.731 52.3239 41.1786 52.3239 41.8274 50.5935L47.3274 35.9269C47.4116 35.7023 47.4548 35.4645 47.4548 35.2246V18.5873C47.4548 17.4827 46.5593 16.5873 45.4548 16.5873H34.4548Z" fill="#0B0D0E"/>
<path fill-rule="evenodd" clip-rule="evenodd" d="M41.4548 14.5873H38.4548V16.5873H41.4548V14.5873ZM38.4548 12.5873C37.3502 12.5873 36.4548 13.4827 36.4548 14.5873V16.5873C36.4548 17.6919 37.3502 18.5873 38.4548 18.5873H41.4548C42.5593 18.5873 43.4548 17.6919 43.4548 16.5873V14.5873C43.4548 13.4827 42.5593 12.5873 41.4548 12.5873H38.4548Z" fill="#0B0D0E"/>
<path fill-rule="evenodd" clip-rule="evenodd" d="M30.9548 22.5873C30.9548 22.035 31.4025 21.5873 31.9548 21.5873H47.9548C48.5071 21.5873 48.9548 22.035 48.9548 22.5873C48.9548 23.1396 48.5071 23.5873 47.9548 23.5873H31.9548C31.4025 23.5873 30.9548 23.1396 30.9548 22.5873ZM30.9548 28.5873C30.9548 28.035 31.4025 27.5873 31.9548 27.5873H47.9548C48.5071 27.5873 48.9548 28.035 48.9548 28.5873C48.9548 29.1396 48.5071 29.5873 47.9548 29.5873H31.9548C31.4025 29.5873 30.9548 29.1396 30.9548 28.5873Z" fill="#0B0D0E"/>
<path fill-rule="evenodd" clip-rule="evenodd" d="M50.6328 12.7355C51.2598 12.6607 51.9942 12.2716 52.7161 11.5502C53.0372 11.2293 53.3505 10.6857 53.6058 9.89404C53.8558 9.11897 54.0099 8.23263 54.097 7.35965C54.1447 6.88219 54.1708 6.42384 54.1836 6.01C53.7698 6.02251 53.3115 6.04835 52.8341 6.09567C51.9611 6.18217 51.0747 6.33568 50.2996 6.58516C49.5078 6.83997 48.9641 7.15291 48.643 7.47381C47.9211 8.19524 47.5316 8.92945 47.4563 9.55647C47.3934 10.081 47.5115 10.8125 48.4442 11.746C49.3769 12.6795 50.1082 12.798 50.6328 12.7355ZM47.0295 13.1598C49.6279 15.7602 52.3047 14.7888 54.1297 12.9649C56.6495 10.4467 56.1545 4.0403 56.1545 4.0403C56.1545 4.0403 49.7492 3.54076 47.2294 6.05903C45.4044 7.88293 44.4311 10.5593 47.0295 13.1598Z" fill="#0B0D0E"/>
<path fill-rule="evenodd" clip-rule="evenodd" d="M51.4542 8.87999C51.8448 9.27037 51.8451 9.90354 51.4547 10.2942L47.1633 14.5887C46.7729 14.9794 46.1397 14.9796 45.7491 14.5892C45.3584 14.1988 45.3582 13.5657 45.7485 13.175L50.04 8.8805C50.4303 8.48984 51.0635 8.48961 51.4542 8.87999Z" fill="#0B0D0E"/>
</svg>
