<svg width="64" height="64" viewBox="0 0 64 64" fill="none" xmlns="http://www.w3.org/2000/svg">
<path fill-rule="evenodd" clip-rule="evenodd" d="M50.6277 14.7852C53.3027 16.8466 55.9763 15.7741 57.8504 13.9014C60.6807 11.0731 60.1247 3.87803 60.1247 3.87803C60.1247 3.87803 52.93 3.31699 50.0998 6.14528C48.2249 8.01882 47.1504 10.6933 49.2136 13.3709L48.3822 14.2023C47.9917 14.5928 47.9917 15.226 48.3822 15.6165C48.7728 16.007 49.4059 16.007 49.7964 15.6165L50.6277 14.7852ZM53.9517 13.8882C54.7293 13.7955 55.6024 13.3204 56.4367 12.4867C56.8354 12.0882 57.2031 11.4372 57.4963 10.528C57.7843 9.63542 57.9599 8.62142 58.0588 7.63048C58.1231 6.98558 58.153 6.37184 58.1638 5.83751C57.6295 5.84799 57.0157 5.87739 56.3708 5.9413C55.3798 6.03949 54.3656 6.21438 53.4728 6.50169C52.5634 6.79433 51.9122 7.16157 51.5135 7.55999C50.6792 8.3937 50.2034 9.26643 50.1101 10.0439C50.0489 10.5539 50.1299 11.1887 50.6443 11.9402L53.5849 8.99951C53.9754 8.60898 54.6086 8.60898 54.9991 8.9995C55.3896 9.39002 55.3896 10.0232 54.9991 10.4137L52.0584 13.3545C52.8084 13.8678 53.4423 13.949 53.9517 13.8882Z" fill="#0B0D0E"/>
<path d="M27 25C27 26.1046 26.1046 27 25 27C23.8954 27 23 26.1046 23 25C23 23.8954 23.8954 23 25 23C26.1046 23 27 23.8954 27 25Z" fill="#0B0D0E"/>
<path d="M32 27C33.1046 27 34 26.1046 34 25C34 23.8954 33.1046 23 32 23C30.8954 23 30 23.8954 30 25C30 26.1046 30.8954 27 32 27Z" fill="#0B0D0E"/>
<path d="M41 25C41 26.1046 40.1046 27 39 27C37.8954 27 37 26.1046 37 25C37 23.8954 37.8954 23 39 23C40.1046 23 41 23.8954 41 25Z" fill="#0B0D0E"/>
<path fill-rule="evenodd" clip-rule="evenodd" d="M36 8.99999C36.5523 8.99999 37 9.4477 37 9.99999V11H39C40.1046 11 41 11.8954 41 13V18H43.1327C44.128 18 44.9718 18.7318 45.1126 19.7171L46.8605 31.9523L51.2376 32.8277C52.3033 33.0408 53.0038 34.0661 52.8149 35.1364L50.1669 50.1417C50.5396 50.292 50.8831 50.4484 51.1973 50.6056C52.0068 51.0103 52.6201 51.4181 53.0376 51.7312C53.2464 51.8878 53.4065 52.021 53.518 52.1185C53.5737 52.1673 53.6174 52.2072 53.6489 52.2368L53.674 52.2605L53.6871 52.2731L53.6994 52.2852L53.7039 52.2896L53.7065 52.2922C53.7065 52.2922 53.602 52.398 53.4491 52.551L53.7072 52.2929C54.0977 52.6834 54.0977 53.3166 53.7072 53.7071C53.3177 54.0966 52.687 54.0976 52.2962 53.7103L52.2942 53.7083L52.293 53.7071L52.281 53.6958L52.2585 53.6751L52.247 53.6645L52.2273 53.6469L52.201 53.6237C52.125 53.5571 52.0038 53.4559 51.8376 53.3312C51.5051 53.0818 50.9934 52.7397 50.3029 52.3944C48.9252 51.7056 46.8273 51 44.0001 51C41.2094 51 39.6128 51.6839 38.0442 52.4079L37.8082 52.5172C36.2565 53.2365 34.6095 54 32.0001 54C29.3135 54 27.7654 53.1913 26.3365 52.4448L26.225 52.3866C24.844 51.666 23.5138 51 21.0001 51C18.4246 51 16.0589 51.7044 14.32 52.424C13.4543 52.7822 12.7542 53.1399 12.2737 53.406C12.0337 53.539 11.8491 53.6487 11.7269 53.7236C11.6658 53.7611 11.6204 53.7898 11.5914 53.8083L11.5604 53.8284L11.5544 53.8323C11.0949 54.1383 10.4743 54.0141 10.1681 53.5547C9.8617 53.0952 9.98588 52.4743 10.4454 52.1679L10.4465 52.1672L10.4481 52.1662C10.4695 52.1521 10.491 52.1381 10.5126 52.1242C10.5522 52.0989 10.6088 52.0631 10.6815 52.0186C10.8269 51.9294 11.0369 51.8048 11.3047 51.6564C11.8398 51.3601 12.6084 50.9678 13.5553 50.576C13.6631 50.5313 13.7734 50.4867 13.8861 50.4421L11.1851 35.1364C10.9962 34.0661 11.6967 33.0408 12.7624 32.8277L17.1026 31.9597L18.8858 19.7118C19.0289 18.7289 19.8717 18 20.8649 18H23V13C23 11.8954 23.8954 11 25 11H27V9.99999C27 9.4477 27.4477 8.99999 28 8.99999C28.5523 8.99999 29 9.4477 29 9.99999V11H35V9.99999C35 9.4477 35.4477 8.99999 36 8.99999ZM48.2465 49.5154L50.8453 34.7889L33 31.2198V51.9535C34.5971 51.7993 35.7183 51.2804 37.0028 50.686L37.206 50.592C38.8874 49.816 40.7908 49 44.0001 49C45.6158 49 47.0317 49.206 48.2465 49.5154ZM31 51.9526C29.4124 51.7946 28.3927 51.2622 27.2426 50.6616L27.1502 50.6134C25.6562 49.834 23.9864 49 21.0001 49C19.1032 49 17.3284 49.3347 15.8007 49.7829L13.1547 34.7889L31 31.2198V51.9526ZM32.2785 29.0393C32.1901 29.0137 32.0966 29 32 29C31.9034 29 31.8099 29.0137 31.7215 29.0393C31.6835 29.0446 31.6455 29.0511 31.6078 29.0586L19.1843 31.5433L20.8649 20L43.1327 20L44.7808 31.5363L32.3922 29.0586C32.3545 29.0511 32.3165 29.0446 32.2785 29.0393ZM39 18H25V13H39V18Z" fill="#0B0D0E"/>
</svg>
