<svg width="64" height="64" viewBox="0 0 64 64" fill="none" xmlns="http://www.w3.org/2000/svg">
<path fill-rule="evenodd" clip-rule="evenodd" d="M50.0998 6.14528C48.225 8.01874 47.1505 10.693 49.2134 13.3705L48.3816 14.2023C47.9911 14.5928 47.9911 15.226 48.3816 15.6165C48.7722 16.007 49.4053 16.007 49.7959 15.6165L50.6274 14.7849C53.3025 16.8467 55.9763 15.7742 57.8504 13.9014C60.6807 11.0731 60.1247 3.87803 60.1247 3.87803C60.1247 3.87803 52.9301 3.31699 50.0998 6.14528ZM53.9518 13.8882C54.7293 13.7955 55.6024 13.3204 56.4367 12.4867C56.8354 12.0882 57.2031 11.4372 57.4964 10.528C57.7843 9.63542 57.9599 8.62142 58.0588 7.63048C58.1232 6.98558 58.153 6.37184 58.1639 5.83751C57.6295 5.84799 57.0158 5.87739 56.3708 5.9413C55.3798 6.03949 54.3657 6.21438 53.4729 6.50169C52.5635 6.79433 51.9122 7.16157 51.5135 7.55999C50.6792 8.3937 50.2035 9.26643 50.1102 10.0439C50.049 10.5538 50.1299 11.1885 50.6441 11.9398L53.5843 8.99952C53.9748 8.60899 54.608 8.60899 54.9985 8.99951C55.389 9.39003 55.389 10.0232 54.9985 10.4137L52.0581 13.3542C52.8082 13.8678 53.4423 13.949 53.9518 13.8882Z" fill="#0B0D0E"/>
<path fill-rule="evenodd" clip-rule="evenodd" d="M38.2264 24.0257C38.315 24.0463 38.4022 24.0795 38.4856 24.1258L55.9713 33.8401C56.6062 34.1928 57 34.8621 57 35.5884V38.7028C57 40.0141 55.7592 40.9707 54.491 40.6369L37.1927 36.0848L36.1442 48.3172L42.4417 51.4174C42.7835 51.5857 43 51.9336 43 52.3146V55C43 55.5523 42.5523 56 42 56H24C23.4477 56 23 55.5523 23 55V52.3146C23 51.9336 23.2165 51.5857 23.5583 51.4174L29.8558 48.3172L28.8073 36.0848L11.509 40.6369C10.2408 40.9707 9 40.0141 9 38.7028L9 35.5884C9 34.8621 9.39379 34.1928 10.0287 33.8401L27.5144 24.1258C27.5978 24.0795 27.685 24.0463 27.7736 24.0257L27.3849 19.4906C27.1332 16.554 27.6975 13.605 29.0156 10.9688L29.4223 10.1554C30.8964 7.20722 35.1036 7.20722 36.5777 10.1554L36.9844 10.9688C38.3025 13.605 38.8668 16.554 38.6151 19.4906L38.2264 24.0257ZM30.9656 50H35.0344L41 52.9369V54H25V52.9369L30.9656 50ZM36.6224 19.3198L34.1641 48H31.8359L29.3776 19.3198C29.1574 16.7503 29.6511 14.1699 30.8045 11.8632L31.2111 11.0498C31.9482 9.57575 34.0518 9.57575 34.7889 11.0498L35.1955 11.8632C36.3489 14.1699 36.8426 16.7503 36.6224 19.3198ZM38.0428 26.1677L37.3661 34.0623L55 38.7028V35.5884L38.0428 26.1677ZM27.9572 26.1677L11 35.5884L11 38.7028L28.6339 34.0623L27.9572 26.1677Z" fill="#0B0D0E"/>
</svg>
