<svg width="64" height="64" viewBox="0 0 64 64" fill="none" xmlns="http://www.w3.org/2000/svg">
<path fill-rule="evenodd" clip-rule="evenodd" d="M30.393 10.102C31.0865 10.0345 31.7894 10 32.5 10C33.3013 10 34.0927 10.0439 34.872 10.1294C35.4209 10.1897 35.8171 10.6836 35.7568 11.2326C35.6966 11.7816 35.2027 12.1778 34.6537 12.1175C33.9468 12.0399 33.2282 12 32.5 12C31.8542 12 31.2159 12.0314 30.5867 12.0926C30.037 12.1461 29.5481 11.7439 29.4946 11.1942C29.4411 10.6445 29.8433 10.1555 30.393 10.102ZM27.5042 11.5877C27.6643 12.1163 27.3657 12.6746 26.8371 12.8347C25.6044 13.2082 24.4232 13.7005 23.3068 14.2985C22.82 14.5592 22.2139 14.376 21.9531 13.8891C21.6924 13.4023 21.8756 12.7962 22.3625 12.5355C23.5938 11.876 24.8969 11.3328 26.2572 10.9206C26.7858 10.7605 27.3441 11.0592 27.5042 11.5877ZM38.231 11.7862C38.4108 11.264 38.9798 10.9865 39.502 11.1663C41.0149 11.6871 42.4511 12.3719 43.7894 13.1991C44.2592 13.4895 44.4046 14.1058 44.1143 14.5755C43.8239 15.0453 43.2076 15.1908 42.7378 14.9004C41.524 14.15 40.2219 13.5293 38.851 13.0573C38.3288 12.8775 38.0512 12.3084 38.231 11.7862ZM20.2674 15.0179C20.618 15.4446 20.5563 16.0747 20.1296 16.4253C19.1425 17.2364 18.2364 18.1425 17.4253 19.1296C17.0747 19.5563 16.4446 19.618 16.0179 19.2674C15.5911 18.9168 15.5294 18.2866 15.88 17.8599C16.7737 16.7722 17.7722 15.7737 18.8599 14.88C19.2866 14.5294 19.9168 14.5911 20.2674 15.0179ZM46.1113 16.1382C46.4973 15.7432 47.1304 15.7359 47.5254 16.1218C48.6569 17.2276 49.667 18.4573 50.5336 19.7892C50.8348 20.2522 50.7037 20.8716 50.2408 21.1728C49.7779 21.474 49.1584 21.3429 48.8572 20.88C48.0711 19.6718 47.1546 18.5558 46.1276 17.5523C45.7326 17.1663 45.7253 16.5332 46.1113 16.1382ZM33.1944 20C32.657 20 32.1282 20.0341 31.6101 20.1002C31.0622 20.1701 30.5614 19.7827 30.4916 19.2348C30.4217 18.687 30.8091 18.1862 31.357 18.1163C31.9589 18.0395 32.5722 18 33.1944 18C33.986 18 34.7632 18.064 35.5208 18.1873C36.0659 18.276 36.4359 18.7898 36.3472 19.3349C36.2585 19.88 35.7447 20.25 35.1996 20.1613C34.5479 20.0553 33.878 20 33.1944 20ZM29.1022 19.5977C29.3097 20.1095 29.0631 20.6927 28.5513 20.9002C27.5623 21.3013 26.6385 21.8268 25.8001 22.457C25.3586 22.7888 24.7317 22.6999 24.3999 22.2584C24.0681 21.8169 24.157 21.19 24.5985 20.8582C25.574 20.125 26.6488 19.5136 27.7997 19.0468C28.3115 18.8393 28.8946 19.0859 29.1022 19.5977ZM38.5807 20.0878C38.8405 19.6004 39.4462 19.4159 39.9335 19.6756C41.3208 20.415 42.5691 21.3756 43.6298 22.5096C44.007 22.913 43.9859 23.5458 43.5825 23.9231C43.1792 24.3003 42.5464 24.2792 42.1691 23.8758C41.2581 22.9018 40.1853 22.0762 38.9928 21.4406C38.5055 21.1808 38.3209 20.5752 38.5807 20.0878ZM14.8891 20.9531C15.376 21.2139 15.5593 21.82 15.2985 22.3068C14.7005 23.4232 14.2082 24.6044 13.8347 25.8371C13.6746 26.3657 13.1163 26.6643 12.5877 26.5042C12.0592 26.344 11.7605 25.7857 11.9206 25.2572C12.3328 23.8969 12.876 22.5938 13.5355 21.3625C13.7962 20.8756 14.4023 20.6924 14.8891 20.9531ZM23.3727 23.2625C23.807 23.6038 23.8824 24.2324 23.5412 24.6667C22.8914 25.4937 22.3494 26.4057 21.9352 27.3825C21.7196 27.891 21.1326 28.1284 20.6242 27.9127C20.1157 27.6971 19.8783 27.1102 20.0939 26.6017C20.5783 25.4595 21.2113 24.3948 21.9686 23.431C22.3098 22.9968 22.9385 22.9213 23.3727 23.2625ZM51.3805 23.4377C51.8983 23.2457 52.4737 23.5099 52.6657 24.0278C52.9396 24.7666 53.174 25.5246 53.3665 26.2992C53.4996 26.8352 53.1731 27.3776 52.6371 27.5108C52.1011 27.644 51.5587 27.3174 51.4255 26.7815C51.2511 26.0795 51.0386 25.3925 50.7904 24.7229C50.5984 24.2051 50.8626 23.6297 51.3805 23.4377ZM44.8862 25.8872C45.3911 25.6633 45.9819 25.8912 46.2057 26.3961C46.5201 27.1053 46.7767 27.8453 46.9696 28.6103C47.1047 29.1458 46.78 29.6894 46.2445 29.8245C45.709 29.9595 45.1654 29.6349 45.0304 29.0994C44.8655 28.4458 44.6462 27.8132 44.3773 27.2066C44.1535 26.7017 44.3813 26.111 44.8862 25.8872ZM12.1942 28.4946C12.7439 28.5481 13.1461 29.037 13.0926 29.5867C13.0314 30.2159 13 30.8542 13 31.5C13 32.1458 13.0314 32.7841 13.0926 33.4133C13.1461 33.963 12.7439 34.4519 12.1942 34.5054C11.6445 34.5589 11.1555 34.1567 11.102 33.607C11.0345 32.9135 11 32.2106 11 31.5C11 30.7894 11.0345 30.0865 11.102 29.393C11.1555 28.8433 11.6445 28.4411 12.1942 28.4946ZM20.2454 29.2984C20.7928 29.3714 21.1774 29.8744 21.1044 30.4218C21.0356 30.9378 21 31.4646 21 32C21 32.5354 21.0356 33.0622 21.1044 33.5782C21.1774 34.1256 20.7928 34.6286 20.2454 34.7016C19.698 34.7746 19.195 34.3901 19.122 33.8426C19.0415 33.2392 19 32.6241 19 32C19 31.3759 19.0415 30.7608 19.122 30.1574C19.195 29.6099 19.698 29.2254 20.2454 29.2984ZM52.3426 31.0772C52.7588 30.7141 53.3905 30.7571 53.7535 31.1733L59.6701 37.9552C60.0332 38.3714 59.9901 39.0031 59.5739 39.3662C59.1578 39.7292 58.5261 39.6862 58.163 39.27L53.8203 34.2921C53.7768 34.6269 53.7257 34.9594 53.667 35.2894C53.5703 35.8331 53.051 36.1955 52.5073 36.0988C51.9636 36.0021 51.6012 35.4829 51.6979 34.9391C51.742 34.6912 51.7814 34.4417 51.816 34.1907L46.8755 38.5008C46.4593 38.8639 45.8276 38.8208 45.4645 38.4046C45.1015 37.9885 45.1445 37.3568 45.5607 36.9937L52.3426 31.0772ZM20.6242 36.0873C21.1326 35.8716 21.7196 36.109 21.9352 36.6175C22.3494 37.5943 22.8914 38.5063 23.5412 39.3333C23.8824 39.7676 23.807 40.3962 23.3727 40.7375C22.9385 41.0787 22.3098 41.0032 21.9686 40.569C21.2113 39.6052 20.5783 38.5405 20.0939 37.3983C19.8783 36.8898 20.1157 36.3029 20.6242 36.0873ZM12.5877 36.4958C13.1163 36.3357 13.6746 36.6343 13.8347 37.1629C14.2082 38.3956 14.7005 39.5768 15.2985 40.6932C15.5592 41.18 15.376 41.7861 14.8891 42.0469C14.4023 42.3076 13.7962 42.1244 13.5355 41.6375C12.876 40.4062 12.3328 39.1031 11.9206 37.7428C11.7605 37.2143 12.0592 36.656 12.5877 36.4958ZM52.0246 37.8463C52.5409 38.0425 52.8003 38.62 52.6041 39.1363C52.1274 40.3908 51.5367 41.5889 50.8449 42.718C50.5563 43.1889 49.9406 43.3367 49.4697 43.0482C48.9988 42.7596 48.851 42.1439 49.1395 41.673C49.767 40.649 50.3025 39.5627 50.7346 38.4258C50.9308 37.9095 51.5083 37.6501 52.0246 37.8463ZM24.3999 41.7416C24.7317 41.3001 25.3586 41.2112 25.8001 41.543C26.6385 42.1732 27.5623 42.6987 28.5513 43.0998C29.0631 43.3073 29.3097 43.8905 29.1022 44.4023C28.8946 44.9141 28.3115 45.1607 27.7997 44.9532C26.6488 44.4864 25.574 43.875 24.5985 43.1418C24.157 42.81 24.0681 42.1831 24.3999 41.7416ZM16.0179 43.7326C16.4446 43.382 17.0747 43.4437 17.4253 43.8704C18.2364 44.8575 19.1425 45.7636 20.1296 46.5747C20.5563 46.9253 20.618 47.5554 20.2674 47.9821C19.9168 48.4089 19.2866 48.4706 18.8599 48.12C17.7722 47.2263 16.7737 46.2278 15.88 45.1401C15.5294 44.7134 15.5911 44.0832 16.0179 43.7326ZM30.4916 44.7652C30.5614 44.2173 31.0622 43.8299 31.6101 43.8998C32.1282 43.9659 32.657 44 33.1944 44C33.7467 44 34.1944 44.4477 34.1944 45C34.1944 45.5523 33.7467 46 33.1944 46C32.5722 46 31.9589 45.9605 31.357 45.8837C30.8091 45.8138 30.4217 45.313 30.4916 44.7652ZM48.3835 44.4995C48.7932 44.8698 48.8251 45.5022 48.4548 45.9119C47.5622 46.8995 46.5791 47.8038 45.5186 48.6118C45.0793 48.9465 44.4519 48.8617 44.1172 48.4224C43.7824 47.9831 43.8672 47.3556 44.3065 47.0209C45.2688 46.2878 46.161 45.4671 46.971 44.5708C47.3414 44.1611 47.9737 44.1291 48.3835 44.4995ZM21.9531 49.1109C22.2139 48.624 22.82 48.4408 23.3068 48.7015C24.4232 49.2995 25.6044 49.7918 26.8371 50.1653C27.3657 50.3254 27.6643 50.8837 27.5042 51.4123C27.344 51.9408 26.7857 52.2395 26.2572 52.0794C24.8969 51.6672 23.5938 51.124 22.3625 50.4645C21.8756 50.2038 21.6924 49.5977 21.9531 49.1109ZM42.5798 49.3829C42.8276 49.8765 42.6284 50.4775 42.1348 50.7253C40.9537 51.3184 39.7102 51.8058 38.4168 52.1753C37.8857 52.327 37.3323 52.0195 37.1806 51.4885C37.0289 50.9574 37.3364 50.4039 37.8674 50.2523C39.0395 49.9174 40.1666 49.4756 41.2374 48.938C41.731 48.6901 42.332 48.8894 42.5798 49.3829ZM29.4946 51.8058C29.5481 51.2561 30.037 50.8539 30.5867 50.9074C31.2159 50.9686 31.8542 51 32.5 51C33.1109 51 33.7149 50.9719 34.311 50.9171C34.8609 50.8665 35.3478 51.2713 35.3984 51.8212C35.449 52.3712 35.0442 52.8581 34.4943 52.9087C33.8374 52.9691 33.1722 53 32.5 53C31.7894 53 31.0865 52.9655 30.393 52.898C29.8433 52.8445 29.4411 52.3555 29.4946 51.8058Z" fill="#0B0D0E"/>
</svg>
