<svg width="64" height="64" viewBox="0 0 64 64" fill="none" xmlns="http://www.w3.org/2000/svg">
<path fill-rule="evenodd" clip-rule="evenodd" d="M50.0998 6.14528C48.225 8.01881 47.1504 10.6932 49.2136 13.3708L48.3822 14.2022C47.9917 14.5927 47.9917 15.2259 48.3823 15.6164C48.7728 16.007 49.4059 16.0069 49.7965 15.6164L50.6277 14.7852C53.3027 16.8466 55.9764 15.7741 57.8504 13.9014C60.6807 11.0731 60.1247 3.87803 60.1247 3.87803C60.1247 3.87803 52.9301 3.31699 50.0998 6.14528ZM53.9518 13.8882C54.7293 13.7955 55.6024 13.3204 56.4367 12.4867C56.8354 12.0882 57.2031 11.4372 57.4964 10.528C57.7843 9.63542 57.9599 8.62142 58.0588 7.63048C58.1232 6.98558 58.153 6.37184 58.1639 5.83751C57.6295 5.84799 57.0158 5.87739 56.3708 5.9413C55.3798 6.03949 54.3657 6.21438 53.4729 6.50169C52.5635 6.79433 51.9122 7.16157 51.5135 7.55999C50.6792 8.3937 50.2035 9.26643 50.1102 10.0439C50.049 10.5539 50.13 11.1887 50.6443 11.9401L53.5849 8.99946C53.9754 8.60893 54.6086 8.60893 54.9991 8.99945C55.3897 9.38997 55.3897 10.0231 54.9991 10.4137L52.0584 13.3545C52.8084 13.8678 53.4424 13.949 53.9518 13.8882Z" fill="#0B0D0E"/>
<path fill-rule="evenodd" clip-rule="evenodd" d="M32 8C32.5523 8 33 8.44772 33 9V13H35C36.1046 13 37 13.8954 37 15V19H44C44.5523 19 45 19.4477 45 20C45 20.5523 44.5523 21 44 21V31H43.947L47.9657 33.7629C48.6818 34.2552 48.998 35.1534 48.7483 35.9857L46 45.1468V50.109C48.2015 50.3537 49.9353 50.9746 51.1973 51.6056C52.0068 52.0103 52.6201 52.4182 53.0376 52.7313C53.2464 52.8878 53.4065 53.021 53.518 53.1185C53.5737 53.1673 53.6174 53.2072 53.6489 53.2368C53.6647 53.2515 53.6774 53.2637 53.6871 53.2732L53.6994 53.2852L53.7039 53.2896L53.7065 53.2922C53.7065 53.2922 53.6853 53.3141 53.6475 53.3521C53.602 53.3979 53.5327 53.4673 53.4491 53.551L53.7072 53.2929C54.0977 53.6834 54.0977 54.3166 53.7072 54.7071C53.3177 55.0966 52.687 55.0976 52.2962 54.7103L52.2942 54.7084L52.293 54.7071L52.281 54.6958C52.2657 54.6815 52.239 54.6569 52.201 54.6237C52.125 54.5571 52.0038 54.4559 51.8376 54.3312C51.5051 54.0818 50.9934 53.7397 50.3029 53.3944C48.9252 52.7056 46.8273 52 44.0001 52C41.2094 52 39.6128 52.684 38.0442 53.408L37.8082 53.5172C36.2565 54.2365 34.6095 55 32.0001 55C29.3135 55 27.7654 54.1913 26.3365 53.4448L26.225 53.3866C24.844 52.666 23.5138 52 21.0001 52C18.4246 52 16.0589 52.7044 14.32 53.424C13.4543 53.7822 12.7542 54.1399 12.2737 54.406C12.0337 54.539 11.8491 54.6487 11.7269 54.7236C11.6658 54.7611 11.6204 54.7898 11.5914 54.8084L11.5604 54.8284L11.5544 54.8323C11.0949 55.1383 10.4743 55.0141 10.1681 54.5547C9.8617 54.0952 9.98588 53.4743 10.4454 53.1679L10.4465 53.1672L10.4481 53.1662C10.4695 53.1521 10.491 53.1381 10.5126 53.1243C10.5522 53.0989 10.6088 53.0632 10.6815 53.0186C10.8269 52.9295 11.0369 52.8048 11.3047 52.6565C11.8398 52.3601 12.6084 51.9678 13.5553 51.576C14.768 51.0741 16.2902 50.5661 18 50.2673V45.1468L15.2517 35.9857C15.002 35.1534 15.3183 34.2552 16.0343 33.7629L20.053 31H20V21C19.4477 21 19 20.5523 19 20C19 19.4477 19.4477 19 20 19H27V15C27 13.8954 27.8954 13 29 13H31V9C31 8.44772 31.4477 8 32 8ZM29 15H35V19H29V15ZM22 21V29.6615L30.8669 23.5654C31.5494 23.0962 32.4506 23.0962 33.1331 23.5654L42 29.6615V21H22ZM44 50V45.1468C44 44.9521 44.0284 44.7585 44.0843 44.5721L46.8327 35.411L33 25.901V52.9535C34.5971 52.7993 35.7183 52.2804 37.0028 51.686L37.206 51.592C38.8874 50.816 40.7908 50 44 50ZM31 52.9526V25.901L17.1673 35.411L19.9157 44.5721C19.9716 44.7585 20 44.9521 20 45.1468V50.0305C20.329 50.0106 20.6626 50 21.0001 50C23.9864 50 25.6562 50.834 27.1502 51.6134L27.2426 51.6616C28.3927 52.2622 29.4124 52.7947 31 52.9526Z" fill="#0B0D0E"/>
</svg>
