<svg width="64" height="64" viewBox="0 0 64 64" fill="none" xmlns="http://www.w3.org/2000/svg">
<path fill-rule="evenodd" clip-rule="evenodd" d="M49.6274 15.785C52.3024 17.8466 54.9762 16.7741 56.8503 14.9014C59.6805 12.0731 59.1246 4.87803 59.1246 4.87803C59.1246 4.87803 51.9299 4.31699 49.0996 7.14528C47.2248 9.01877 46.1503 11.6931 48.2133 14.3707L47.3817 15.2023C46.9912 15.5928 46.9912 16.226 47.3817 16.6165C47.7723 17.007 48.4054 17.007 48.7959 16.6165L49.6274 15.785ZM52.9516 14.8882C53.7292 14.7955 54.6022 14.3204 55.4365 13.4867C55.8352 13.0882 56.2029 12.4372 56.4962 11.528C56.7842 10.6354 56.9598 9.62142 57.0587 8.63048C57.123 7.98558 57.1529 7.37184 57.1637 6.83751C56.6294 6.84799 56.0156 6.87739 55.3707 6.9413C54.3797 7.03949 53.3655 7.21438 52.4727 7.50169C51.5633 7.79433 50.9121 8.16157 50.5134 8.55999C49.6791 9.3937 49.2033 10.2664 49.11 11.0439C49.0488 11.5538 49.1298 12.1886 49.644 12.94L52.5844 9.99952C52.9749 9.60899 53.6081 9.60899 53.9986 9.99951C54.3891 10.39 54.3891 11.0232 53.9986 11.4137L51.058 14.3544C51.8081 14.8678 52.4422 14.949 52.9516 14.8882Z" fill="#212121"/>
<path fill-rule="evenodd" clip-rule="evenodd" d="M37.0548 48.0767L37.3856 36.5H54C55.1046 36.5 56 35.6046 56 34.5V30.7601C56 29.8617 55.4009 29.0735 54.5353 28.833L47.9363 27H48V24C48 22.8954 47.1046 22 46 22H43C41.8954 22 41 22.8954 41 24V25.0732L37.738 24.1671L37.8851 19.0175C37.9605 16.3801 37.3824 13.7651 36.2025 11.4051L35.5776 10.1554C34.1035 7.20721 29.8963 7.20721 28.4222 10.1554L27.7973 11.4051C26.6174 13.765 26.0393 16.3801 26.1147 19.0175L26.2618 24.1672L23 25.0732V24C23 22.8954 22.1046 22 21 22H18C16.8954 22 16 22.8954 16 24V27H16.0637L9.46471 28.833C8.59908 29.0735 8 29.8617 8 30.7601V34.5C8 35.6046 8.89543 36.5 10 36.5H26.6142L26.9449 48.0768C26.8709 48.1076 26.8004 48.1474 26.7352 48.1956L22.406 51.3925C22.1507 51.581 22 51.8796 22 52.1969V55C22 55.5523 22.4477 56 23 56H41C41.5523 56 42 55.5523 42 55V52.1969C42 51.8796 41.8493 51.581 41.594 51.3925L37.2648 48.1956C37.1995 48.1473 37.1289 48.1075 37.0548 48.0767ZM35.0562 48L35.8859 18.9604C35.9519 16.6527 35.4461 14.3645 34.4136 12.2996L33.7887 11.0498C33.0517 9.57574 30.9481 9.57574 30.211 11.0498L29.5862 12.2996C28.5537 14.3645 28.0479 16.6527 28.1139 18.9604L28.9436 48H35.0562ZM43 25.6288L46 26.4621V24H43V25.6288ZM21 24V25.6288L18 26.4621V24H21ZM36.0308 50L36.0281 50H27.9717L27.9689 50H27.6584L24 52.7016V54H40V52.7016L36.3416 50H36.0308ZM26.557 34.5L26.3207 26.2266L10 30.7601L10 34.5H26.557ZM54 34.5H37.4428L37.6791 26.2265L54 30.7601V34.5Z" fill="#212121"/>
</svg>
