<svg width="64" height="64" viewBox="0 0 64 64" fill="none" xmlns="http://www.w3.org/2000/svg">
<path fill-rule="evenodd" clip-rule="evenodd" d="M47.7568 17.2632C50.5311 19.4224 53.3067 18.3128 55.2503 16.3705C58.1761 13.4468 57.6013 6.00895 57.6013 6.00895C57.6013 6.00895 50.1639 5.42898 47.2381 8.35271C45.2937 10.2957 44.1821 13.072 46.3427 15.8489L45.4865 16.7051C45.0959 17.0956 45.096 17.7288 45.4865 18.1193C45.877 18.5098 46.5102 18.5098 46.9007 18.1193L47.7568 17.2632ZM51.2281 16.424C52.0519 16.3257 52.9677 15.8241 53.8366 14.9558C54.2591 14.5335 54.6436 13.8495 54.9485 12.9041C55.2481 11.9753 55.4303 10.922 55.5329 9.89473C55.6024 9.19763 55.6331 8.53578 55.6431 7.9658C55.0731 7.97541 54.4113 8.00561 53.7141 8.07469C52.6868 8.17648 51.6333 8.35795 50.7043 8.6569C49.7587 8.96119 49.0744 9.34514 48.6518 9.76743C47.7829 10.6357 47.2807 11.5511 47.1818 12.3749C47.1153 12.9288 47.2081 13.614 47.7719 14.4197L50.8647 11.3268C51.2552 10.9363 51.8884 10.9363 52.2789 11.3268C52.6694 11.7173 52.6694 12.3505 52.2789 12.741L49.1859 15.834C49.9903 16.397 50.6746 16.49 51.2281 16.424Z" fill="#0B0D0E"/>
<path fill-rule="evenodd" clip-rule="evenodd" d="M24 49H42C42 51.7615 44.2386 54 47 54C49.7614 54 52 51.7615 52 49H53C54.1046 49 55 48.1046 55 47V42.51C55 41.961 54.7743 41.4361 54.3759 41.0585L49.6726 36.6002C49.5326 36.4674 49.4126 36.3152 49.3162 36.1481L45.1926 29.0006C44.89 28.476 44.3696 28.1221 43.783 28.0262C43.7911 27.5837 43.6507 27.1287 43.3274 26.7336L40.5479 23.3364C40.1262 22.821 39.558 22.5938 39 22.599V20C39 18.8955 38.1046 18 37 18H13C11.8954 18 11 18.8955 11 20V47C11 48.1046 11.8954 49 13 49H14C14 51.7615 16.2386 54 19 54C21.7614 54 24 51.7615 24 49ZM13 20H37V47H23.584C22.8124 45.2341 21.0503 44 19 44C16.9497 44 15.1876 45.2341 14.416 47H13V20ZM50 49C50 48.2317 49.7111 47.5308 49.2361 47C48.6868 46.3863 47.8885 46 47 46C46.1115 46 45.3132 46.3863 44.7639 47C44.2889 47.5308 44 48.2317 44 49C44 50.6569 45.3431 52 47 52C48.6569 52 50 50.6569 50 49ZM42.416 47C43.1876 45.2341 44.9497 44 47 44C49.0503 44 50.8124 45.2341 51.584 47H53V45C51.8954 45 51 44.1046 51 43C51 42.3385 51.3212 41.7519 51.8162 41.3878L49.2972 39H41V30H39V47H42.416ZM43 37V30H43.4603L47.4987 37H43ZM39 24.6029L41.7795 28H39V24.6029ZM16.7639 47C16.2889 47.5308 16 48.2317 16 49C16 50.6569 17.3431 52 19 52C20.6569 52 22 50.6569 22 49C22 48.2317 21.7111 47.5308 21.2361 47C20.6868 46.3863 19.8885 46 19 46C18.1115 46 17.3132 46.3863 16.7639 47Z" fill="#0B0D0E"/>
</svg>
