<svg width="64" height="64" viewBox="0 0 64 64" fill="none" xmlns="http://www.w3.org/2000/svg">
<path fill-rule="evenodd" clip-rule="evenodd" d="M53.2281 14.424C54.052 14.3257 54.9677 13.8241 55.8366 12.9558C56.2592 12.5335 56.6436 11.8495 56.9485 10.9041C57.2482 9.97529 57.4304 8.92199 57.5329 7.89473C57.6025 7.19763 57.6331 6.53578 57.6431 5.9658C57.0731 5.97541 56.4113 6.00561 55.7141 6.07469C54.6868 6.17648 53.6334 6.35795 52.7044 6.6569C51.7588 6.96119 51.0744 7.34514 50.6518 7.76743C49.783 8.6357 49.2807 9.55107 49.1818 10.3749C49.0953 11.0962 49.2788 12.0402 50.4208 13.183C51.5628 14.3259 52.5067 14.51 53.2281 14.424ZM49.0061 14.5967C52.0232 17.6159 55.1312 16.4881 57.2503 14.3705C60.1761 11.4468 59.6014 4.00895 59.6014 4.00895C59.6014 4.00895 52.1639 3.42898 49.2381 6.35271C47.1191 8.47027 45.9891 11.5776 49.0061 14.5967Z" fill="#0B0D0E"/>
<path fill-rule="evenodd" clip-rule="evenodd" d="M54.279 9.32677C54.6695 9.71729 54.6695 10.3505 54.279 10.741L48.9008 16.1193C48.5102 16.5098 47.8771 16.5098 47.4865 16.1193C47.096 15.7288 47.096 15.0956 47.4865 14.7051L52.8648 9.32679C53.2553 8.93626 53.8885 8.93625 54.279 9.32677Z" fill="#0B0D0E"/>
<path fill-rule="evenodd" clip-rule="evenodd" d="M40 19.8099V22H49.227C50.5928 22 51.7862 22.9225 52.1302 24.2442L54.871 34.7721C54.9566 35.1012 55 35.4398 55 35.7799V44C55 46.2091 53.2091 48 51 48H50.9951C50.9978 48.0803 50.9991 48.1608 50.9991 48.2417C50.9991 52.2412 47.7569 55.4835 43.7574 55.4835C39.7579 55.4835 36.5156 52.2412 36.5156 48.2417C36.5156 48.1608 36.517 48.0803 36.5196 48H25.501C25.5036 48.0803 25.505 48.1608 25.505 48.2417C25.505 52.2412 22.2627 55.4835 18.2632 55.4835C14.2637 55.4835 11.0215 52.2412 11.0215 48.2417C11.0215 48.1071 11.0252 47.9734 11.0324 47.8405C9.85032 47.438 9 46.3183 9 45V44C9 43.3822 9.18677 42.8079 9.50693 42.3307C9.19162 41.9772 9 41.511 9 41V13C9 11.8954 9.89543 11 11 11H31.4029C31.9444 11 32.4627 11.2195 32.8394 11.6084L39.4365 18.4183C39.7979 18.7914 40 19.2905 40 19.8099ZM13.5237 46C13.2342 46.611 13.0593 47.2869 13.027 48C13.0233 48.0801 13.0215 48.1607 13.0215 48.2417C13.0215 51.1367 15.3683 53.4835 18.2632 53.4835C21.1582 53.4835 23.505 51.1367 23.505 48.2417C23.505 48.1607 23.5031 48.0801 23.4995 48C23.4671 47.2869 23.2923 46.611 23.0028 46C22.1625 44.2265 20.3561 43 18.2632 43C16.1704 43 14.364 44.2265 13.5237 46ZM13.2665 43C12.4518 43.7768 11.818 44.7417 11.4346 45.8249C11.1721 45.6447 11 45.3424 11 45V44C11 43.4477 11.4477 43 12 43H13.2665ZM18.2632 41H38V19.8099L31.4029 13H11V41H18.2632ZM23.2599 43C24.1183 43.8185 24.7759 44.8456 25.1513 46H36.8693C37.1244 45.2155 37.5098 44.4898 38 43.8484V43H23.2599ZM40 44.5869C39.1337 45.4773 38.5813 46.6745 38.5211 48C38.5175 48.0801 38.5156 48.1607 38.5156 48.2417C38.5156 51.1367 40.8624 53.4835 43.7574 53.4835C46.6523 53.4835 48.9991 51.1367 48.9991 48.2417C48.9991 48.1607 48.9973 48.0801 48.9936 48C48.9613 47.2869 48.7864 46.611 48.4969 46C47.6566 44.2265 45.8502 43 43.7574 43C42.2838 43 40.9523 43.608 40 44.5869ZM50.6454 46C49.7015 43.0978 46.9744 41 43.7574 41C42.3816 41 41.0954 41.3836 40 42.0498V24H49.227C49.6823 24 50.0801 24.3075 50.1947 24.7481L50.5207 26H44V37H53V39C51.8954 39 51 39.8954 51 41C51 42.1046 51.8954 43 53 43V44C53 45.1046 52.1046 46 51 46H50.6454ZM52.8636 35L51.0413 28H46V35H52.8636ZM18.2637 51.3102C19.9584 51.3102 21.3322 49.9364 21.3322 48.2418C21.3322 46.5471 19.9584 45.1733 18.2637 45.1733C16.5691 45.1733 15.1953 46.5471 15.1953 48.2418C15.1953 49.9364 16.5691 51.3102 18.2637 51.3102ZM19.3322 48.2418C19.3322 48.8318 18.8538 49.3102 18.2637 49.3102C17.6737 49.3102 17.1953 48.8318 17.1953 48.2418C17.1953 47.6517 17.6737 47.1733 18.2637 47.1733C18.8538 47.1733 19.3322 47.6517 19.3322 48.2418ZM46.8263 48.2418C46.8263 49.9364 45.4525 51.3102 43.7579 51.3102C42.0632 51.3102 40.6895 49.9364 40.6895 48.2418C40.6895 46.5471 42.0632 45.1733 43.7579 45.1733C45.4525 45.1733 46.8263 46.5471 46.8263 48.2418ZM43.7579 49.3102C44.348 49.3102 44.8263 48.8318 44.8263 48.2418C44.8263 47.6517 44.348 47.1733 43.7579 47.1733C43.1678 47.1733 42.6895 47.6517 42.6895 48.2418C42.6895 48.8318 43.1678 49.3102 43.7579 49.3102Z" fill="#0B0D0E"/>
</svg>
