<svg width="64" height="64" viewBox="0 0 64 64" fill="none" xmlns="http://www.w3.org/2000/svg">
<path fill-rule="evenodd" clip-rule="evenodd" d="M54.1191 15.3366C54.4284 15.3223 54.8261 15.1568 55.2531 14.7301C55.3528 14.6305 55.5263 14.3626 55.669 13.8032C55.8055 13.2677 55.8732 12.6255 55.8907 11.9641C55.8985 11.6683 55.896 11.3808 55.8873 11.1126C55.6192 11.1038 55.3317 11.1011 55.0359 11.1087C54.3746 11.1257 53.7324 11.1929 53.1969 11.3291C52.6374 11.4714 52.3694 11.6448 52.2697 11.7444C51.8428 12.1711 51.677 12.5687 51.6625 12.8781C51.6504 13.1365 51.7255 13.6751 52.5238 14.4741C53.3222 15.2731 53.8606 15.3485 54.1191 15.3366ZM51.1092 15.8879C53.2972 18.0777 55.3406 17.4702 56.6668 16.1449C58.4977 14.3151 57.7398 9.26132 57.7398 9.26132C57.7398 9.26132 52.6871 8.49971 50.8561 10.3296C49.53 11.6549 48.9211 13.6981 51.1092 15.8879Z" fill="#212121"/>
<path fill-rule="evenodd" clip-rule="evenodd" d="M54.179 12.7665C54.5841 13.1419 54.6083 13.7746 54.233 14.1798L51.7326 16.8789C51.3573 17.2841 50.7246 17.3082 50.3195 16.9329C49.9143 16.5575 49.8902 15.9248 50.2655 15.5196L52.7659 12.8205C53.1412 12.4153 53.7739 12.3912 54.179 12.7665Z" fill="#212121"/>
<path fill-rule="evenodd" clip-rule="evenodd" d="M57.9991 8H49.9991C49.4468 8 48.9991 8.44771 48.9991 9V17C48.9991 17.5523 49.4468 18 49.9991 18H57.9991C58.5514 18 58.9991 17.5523 58.9991 17V9C58.9991 8.44772 58.5514 8 57.9991 8ZM49.9991 6C48.3423 6 46.9991 7.34315 46.9991 9V17C46.9991 18.6569 48.3423 20 49.9991 20H57.9991C59.656 20 60.9991 18.6569 60.9991 17V9C60.9991 7.34315 59.656 6 57.9991 6H49.9991Z" fill="#212121"/>
<path fill-rule="evenodd" clip-rule="evenodd" d="M47.9991 4C47.9991 3.44772 48.4468 3 48.9991 3H58.9991C59.5514 3 59.9991 3.44772 59.9991 4C59.9991 4.55228 59.5514 5 58.9991 5H48.9991C48.4468 5 47.9991 4.55228 47.9991 4Z" fill="#212121"/>
<path fill-rule="evenodd" clip-rule="evenodd" d="M55.9991 5H51.9991V6H55.9991V5ZM49.9991 3V8H57.9991V3H49.9991Z" fill="#212121"/>
<path fill-rule="evenodd" clip-rule="evenodd" d="M21.0225 30.9999C21.0225 30.4477 21.4703 29.9999 22.0225 29.9999H28.5225C29.0748 29.9999 29.5225 30.4477 29.5225 30.9999C29.5225 31.5522 29.0748 31.9999 28.5225 31.9999H22.0225C21.4703 31.9999 21.0225 31.5522 21.0225 30.9999ZM32.5225 38.9999C32.5225 38.4477 32.9703 37.9999 33.5225 37.9999H51.5225C52.0748 37.9999 52.5225 38.4477 52.5225 38.9999C52.5225 39.5522 52.0748 39.9999 51.5225 39.9999H33.5225C32.9703 39.9999 32.5225 39.5522 32.5225 38.9999Z" fill="#212121"/>
<path fill-rule="evenodd" clip-rule="evenodd" d="M37.5225 28.9999C37.5225 28.4477 37.9703 27.9999 38.5225 27.9999H46.5225C47.0748 27.9999 47.5225 28.4477 47.5225 28.9999C47.5225 29.5522 47.0748 29.9999 46.5225 29.9999H38.5225C37.9703 29.9999 37.5225 29.5522 37.5225 28.9999Z" fill="#212121"/>
<path fill-rule="evenodd" clip-rule="evenodd" d="M19.5225 21.9999C19.5225 21.4477 19.9703 20.9999 20.5225 20.9999H29.5225C30.0748 20.9999 30.5225 21.4477 30.5225 21.9999C30.5225 22.5522 30.0748 22.9999 29.5225 22.9999H20.5225C19.9703 22.9999 19.5225 22.5522 19.5225 21.9999Z" fill="#212121"/>
<path fill-rule="evenodd" clip-rule="evenodd" d="M37.4903 51.9999L27.9554 36.276C27.671 35.807 27.5206 35.2689 27.5206 34.7204V22.9999H22.5206V34.7204C22.5206 35.2689 22.3702 35.807 22.0858 36.276L12.5509 51.9999H37.4903ZM21.5206 20.9999C20.9683 20.9999 20.5206 21.4477 20.5206 21.9999V34.7204C20.5206 34.9033 20.4705 35.0826 20.3757 35.2389L9.91993 52.4814C9.5158 53.1479 9.9956 53.9999 10.775 53.9999H39.2662C40.0456 53.9999 40.5254 53.1479 40.1212 52.4814L29.6655 35.2389C29.5707 35.0826 29.5206 34.9033 29.5206 34.7204V21.9999C29.5206 21.4477 29.0729 20.9999 28.5206 20.9999H21.5206Z" fill="#212121"/>
<path fill-rule="evenodd" clip-rule="evenodd" d="M39.9772 53.7044C40.7937 53.8977 41.6454 54 42.521 54C48.5961 54 53.521 49.0751 53.521 43C53.521 38.336 50.6183 34.35 46.521 32.7498V27.9999L38.521 28.0002V32.7498C35.5537 33.9086 33.213 36.3187 32.1475 39.3314L33.6084 41.7405C34.065 38.48 36.2688 35.7765 39.2485 34.6128L40.521 34.1159V30.0002L44.521 30V34.1159L45.7934 34.6128C49.1492 35.9234 51.521 39.1871 51.521 43C51.521 47.9705 47.4915 52 42.521 52C41.4682 52 40.4576 51.8192 39.5186 51.487L40.1212 52.4814C40.3763 52.9021 40.2796 53.3968 39.9772 53.7044Z" fill="#212121"/>
<path d="M48.5225 42.9999C48.5225 43.5522 48.0748 43.9999 47.5225 43.9999C46.9703 43.9999 46.5225 43.5522 46.5225 42.9999C46.5225 42.4477 46.9703 41.9999 47.5225 41.9999C48.0748 41.9999 48.5225 42.4477 48.5225 42.9999Z" fill="#212121"/>
<path d="M45.5225 44.9999C45.5225 45.5522 45.0748 45.9999 44.5225 45.9999C43.9703 45.9999 43.5225 45.5522 43.5225 44.9999C43.5225 44.4477 43.9703 43.9999 44.5225 43.9999C45.0748 43.9999 45.5225 44.4477 45.5225 44.9999Z" fill="#212121"/>
<path d="M48.5225 46.9999C48.5225 47.5522 48.0748 47.9999 47.5225 47.9999C46.9703 47.9999 46.5225 47.5522 46.5225 46.9999C46.5225 46.4477 46.9703 45.9999 47.5225 45.9999C48.0748 45.9999 48.5225 46.4477 48.5225 46.9999Z" fill="#212121"/>
<path fill-rule="evenodd" clip-rule="evenodd" d="M31.7728 47.911C31.7367 47.7867 31.6849 47.7061 31.6487 47.6699C31.3931 47.4143 30.9787 47.4143 30.7231 47.6699C30.6541 47.7388 30.6044 47.8183 30.5728 47.9025C30.4761 48.1612 30.188 48.2924 29.9293 48.1956C29.6707 48.0989 29.5395 47.8107 29.6362 47.5521C29.7169 47.3366 29.8438 47.1349 30.0159 46.9627C30.6621 46.3166 31.7096 46.3166 32.3558 46.9627C32.7097 47.3167 32.8622 47.9124 32.7934 48.4061C32.7571 48.6665 32.6529 48.9501 32.4297 49.1703C32.1965 49.4002 31.8808 49.5139 31.521 49.504C31.5069 49.5036 31.4954 49.5027 31.4925 49.5024L31.4807 49.5014L31.465 49.4997L31.4321 49.4958L31.2677 49.4753L31.2419 49.4721L31.2395 49.4719C30.9721 49.4468 30.771 49.2138 30.7874 48.9437C30.8042 48.6681 31.0412 48.4582 31.3168 48.475C31.3311 48.4759 31.3453 48.4775 31.3453 48.4775L31.359 48.479L31.3905 48.4828L31.5527 48.5031L31.5655 48.5046C31.6763 48.5045 31.7135 48.4721 31.7275 48.4583C31.7522 48.4339 31.7877 48.3773 31.803 48.2681C31.818 48.1601 31.8079 48.0318 31.7728 47.911Z" fill="#212121"/>
<path fill-rule="evenodd" clip-rule="evenodd" d="M31.8151 49.9164C31.7861 50.0112 31.7396 50.0858 31.6945 50.131C31.4389 50.3866 31.0245 50.3866 30.7689 50.131C30.6999 50.062 30.6502 49.9825 30.6186 49.8983C30.5219 49.6396 30.2338 49.5084 29.9751 49.6052C29.7165 49.702 29.5853 49.9901 29.6821 50.2487C29.7627 50.4642 29.8896 50.666 30.0618 50.8381C30.7079 51.4842 31.7554 51.4842 32.4016 50.8381C32.742 50.4977 32.9086 49.9545 32.8174 49.4766C32.7694 49.2245 32.6442 48.9666 32.4077 48.7766C32.1697 48.5853 31.8661 48.5007 31.5315 48.5099L31.5074 48.5106L31.4834 48.5136L31.3651 48.5282L31.2819 48.5383L31.2547 48.5415L31.2515 48.5419C30.9833 48.5662 30.7814 48.7996 30.7979 49.0702C30.8146 49.3458 31.0516 49.5557 31.3273 49.5389C31.3518 49.5374 31.427 49.5282 31.4737 49.5224C31.4785 49.5218 31.483 49.5213 31.4871 49.5208L31.5803 49.5092C31.7136 49.509 31.7657 49.5435 31.7814 49.5561C31.7994 49.5706 31.8229 49.5996 31.8352 49.664C31.8481 49.7316 31.844 49.8218 31.8151 49.9164ZM31.2478 48.5423L31.2495 48.5421L31.2478 48.5423Z" fill="#212121"/>
<path fill-rule="evenodd" clip-rule="evenodd" d="M18.7736 43.2846C19.0858 43.1862 19.4258 43.3017 19.6135 43.5699L21.7491 46.6207V43.9999C21.7491 43.5857 22.0849 43.2499 22.4991 43.2499C22.9133 43.2499 23.2491 43.5857 23.2491 43.9999V48.9999C23.2491 49.3273 23.0368 49.6168 22.7246 49.7153C22.4124 49.8137 22.0724 49.6982 21.8847 49.43L19.7491 46.3792V48.9999C19.7491 49.4142 19.4133 49.7499 18.9991 49.7499C18.5849 49.7499 18.2491 49.4142 18.2491 48.9999V43.9999C18.2491 43.6726 18.4614 43.3831 18.7736 43.2846Z" fill="#212121"/>
<path fill-rule="evenodd" clip-rule="evenodd" d="M24.9991 43.2499C25.4133 43.2499 25.7491 43.5857 25.7491 43.9999V48.9999C25.7491 49.4142 25.4133 49.7499 24.9991 49.7499C24.5849 49.7499 24.2491 49.4142 24.2491 48.9999V43.9999C24.2491 43.5857 24.5849 43.2499 24.9991 43.2499Z" fill="#212121"/>
<path fill-rule="evenodd" clip-rule="evenodd" d="M27.9991 43.2499C28.4133 43.2499 28.7491 43.5857 28.7491 43.9999V48.9999C28.7491 49.4142 28.4133 49.7499 27.9991 49.7499C27.5849 49.7499 27.2491 49.4142 27.2491 48.9999V43.9999C27.2491 43.5857 27.5849 43.2499 27.9991 43.2499Z" fill="#212121"/>
<path fill-rule="evenodd" clip-rule="evenodd" d="M24.2491 46.4999C24.2491 46.0857 24.5849 45.7499 24.9991 45.7499H26.9991C27.4133 45.7499 27.7491 46.0857 27.7491 46.4999C27.7491 46.9142 27.4133 47.2499 26.9991 47.2499H24.9991C24.5849 47.2499 24.2491 46.9142 24.2491 46.4999Z" fill="#212121"/>
</svg>
