<svg width="64" height="64" viewBox="0 0 64 64" fill="none" xmlns="http://www.w3.org/2000/svg">
<path fill-rule="evenodd" clip-rule="evenodd" d="M12.857 38.3296C11.6642 39.5216 11.0517 41.2944 12.5327 43.2322L12.2664 43.5196C11.8911 43.9248 11.9152 44.5575 12.3204 44.9329C12.7255 45.3082 13.3581 45.2841 13.7335 44.8789L13.9747 44.6185C15.8294 45.9033 17.518 45.2938 18.6676 44.1449C20.4986 42.3151 19.7407 37.2613 19.7407 37.2613C19.7407 37.2613 14.688 36.4997 12.857 38.3296ZM16.12 43.3366C16.4293 43.3223 16.827 43.1568 17.254 42.7301C17.3537 42.6305 17.5272 42.3626 17.6699 41.8032C17.8064 41.2677 17.8741 40.6255 17.8916 39.9641C17.8994 39.6683 17.8969 39.3808 17.8882 39.1126C17.6201 39.1038 17.3326 39.1011 17.0368 39.1087C16.3755 39.1257 15.7333 39.1929 15.1978 39.3291C14.6383 39.4714 14.3703 39.6448 14.2706 39.7444C13.8437 40.1711 13.6779 40.5687 13.6634 40.8781C13.6556 41.0459 13.6844 41.3317 13.9241 41.7302L14.7668 40.8205C15.1421 40.4153 15.7748 40.3912 16.1799 40.7665C16.585 41.1419 16.6092 41.7746 16.2339 42.1798L15.3569 43.1264C15.7091 43.3195 15.9649 43.3437 16.12 43.3366Z" fill="#212121"/>
<path fill-rule="evenodd" clip-rule="evenodd" d="M26.9524 13C26.4191 13 25.9796 13.4186 25.9536 13.9513L25.6585 20H18C16.3431 20 15 21.3431 15 23V31H11C10.4477 31 10 31.4477 10 32C10 32.5523 10.4477 33 11 33H12V34C10.3431 34 9 35.3431 9 37V45C9 46.6569 10.3431 48 12 48H13V52H11C10.4477 52 10 52.4477 10 53C10 53.5523 10.4477 54 11 54H21C21.5523 54 22 53.5523 22 53C22 52.4477 21.5523 52 21 52H19V48H20C21.6569 48 23 46.6569 23 45V37C23 35.3431 21.6569 34 20 34V33H21C21.5523 33 22 32.5523 22 32C22 31.4477 21.5523 31 21 31H17V23C17 22.4477 17.4477 22 18 22H25.561L24.0512 52.9513C24.0233 53.522 24.4786 54 25.05 54H34.95C35.5214 54 35.9767 53.522 35.9488 52.9513L34.6829 27H44C44.5523 27 45 27.4477 45 28V31H44.2222C40.7858 31 38 33.7858 38 37.2222C38 37.6518 38.3482 38 38.7778 38H53.2222C53.6518 38 54 37.6518 54 37.2222C54 33.7858 51.2142 31 47.7778 31H47V28C47 26.3431 45.6569 25 44 25H34.5854L34.0464 13.9513C34.0204 13.4186 33.5809 13 33.0476 13H26.9524ZM27.9048 15L26.0999 52H33.9001L32.0952 15H27.9048ZM17 48H15V52H17V48ZM20 46C20.5523 46 21 45.5523 21 45V37C21 36.4477 20.5523 36 20 36H12C11.4477 36 11 36.4477 11 37V45C11 45.5523 11.4477 46 12 46H20ZM44.2222 33H47.7778C49.6847 33 51.2963 34.2641 51.8204 36H40.1796C40.7037 34.2641 42.3153 33 44.2222 33ZM14 33V34H18V33H14Z" fill="#212121"/>
<path d="M45.9117 40.2123L46.4906 39.3969L45.9316 39L45.3599 39.3783L45.3568 39.3803L45.3521 39.3835L45.3372 39.3935C45.325 39.4018 45.3082 39.4132 45.2872 39.4278C45.2451 39.4569 45.1859 39.4986 45.1121 39.5523C44.9646 39.6596 44.758 39.8156 44.512 40.0164C44.0213 40.4169 43.3661 41.0018 42.7085 41.7416C41.4134 43.1984 40 45.379 40 48.0123C40 49.4467 40.3317 50.9943 41.2822 52.2048C42.2646 53.4561 43.8024 54.2123 45.9117 54.2123C46.9705 54.2123 47.8952 54.023 48.6857 53.6612C49.1878 53.4313 49.4086 52.8379 49.1787 52.3357C48.9489 51.8335 48.3554 51.6128 47.8532 51.8426C47.3647 52.0663 46.7315 52.2123 45.9117 52.2123C44.3219 52.2123 43.4038 51.6684 42.8552 50.9697C42.2746 50.2302 42 49.1778 42 48.0123C42 46.0955 43.0425 44.3761 44.2032 43.0704C44.7735 42.429 45.3462 41.917 45.7765 41.5659L45.8374 41.5165L45.8922 41.4725C46.1404 41.6828 46.4511 41.9616 46.7864 42.2989C47.609 43.1263 48.5337 44.2601 49.0777 45.558C49.2912 46.0674 49.8772 46.3072 50.3866 46.0937C50.8959 45.8802 51.1358 45.2942 50.9223 44.7849C50.239 43.1549 49.1196 41.809 48.2048 40.8889C47.7426 40.4239 47.321 40.0561 47.0128 39.8028C46.8584 39.676 46.7319 39.5773 46.642 39.509C46.597 39.4749 46.5612 39.4483 46.5356 39.4295L46.505 39.4072L46.4957 39.4005L46.4915 39.3975C46.4915 39.3975 46.4906 39.3969 45.9117 40.2123Z" fill="#212121"/>
<path d="M44.3008 45.026C43.8866 45.026 43.5508 45.3618 43.5508 45.776V49.2744C43.5508 49.6886 43.8866 50.0244 44.3008 50.0244C44.715 50.0244 45.0508 49.6886 45.0508 49.2744V48.3519H46.8359V49.2744C46.8359 49.6886 47.1717 50.0244 47.5859 50.0244C48.0002 50.0244 48.3359 49.6886 48.3359 49.2744V45.776C48.3359 45.3618 48.0002 45.026 47.5859 45.026C47.1717 45.026 46.8359 45.3618 46.8359 45.776V46.8519H45.0508V45.776C45.0508 45.3618 44.715 45.026 44.3008 45.026Z" fill="#212121"/>
<path d="M52 50.788C52 51.0222 51.8206 51.212 51.5992 51.212L49.6072 51.2123C49.169 51.2123 48.959 50.6432 49.2813 50.3293L50.6439 49.0022C50.8438 48.785 50.8421 48.4376 50.6389 48.2227C50.434 48.006 50.1017 48.006 49.8968 48.2227C49.8415 48.2812 49.8017 48.3485 49.7764 48.42C49.6988 48.6393 49.4678 48.7505 49.2605 48.6685C49.0532 48.5864 48.9479 48.3422 49.0255 48.1229C49.0902 47.9401 49.1919 47.7691 49.3299 47.6232C49.8479 47.0753 50.6878 47.0753 51.2057 47.6232C51.7237 48.171 51.7237 49.0592 51.2057 49.607L51.1999 49.6132L50.4288 50.3643L51.5991 50.3641C51.8205 50.3641 52 50.5539 52 50.788Z" fill="#212121"/>
</svg>
