<svg width="64" height="64" viewBox="0 0 64 64" fill="none" xmlns="http://www.w3.org/2000/svg">
<path fill-rule="evenodd" clip-rule="evenodd" d="M13.7694 42.2645C15.6243 43.5497 17.3132 42.9403 18.4629 41.7913C20.2939 39.9614 19.5359 34.9077 19.5359 34.9077C19.5359 34.9077 14.4832 34.1461 12.6522 35.9759C11.4596 37.1678 10.8471 38.9404 12.3275 40.878L12.0607 41.166C11.6854 41.5711 11.7096 42.2039 12.1147 42.5792C12.5198 42.9546 13.1525 42.9304 13.5278 42.5253L13.7694 42.2645ZM15.9153 40.9829C16.2246 40.9687 16.6223 40.8032 17.0493 40.3765C17.1489 40.2769 17.3225 40.009 17.4651 39.4495C17.6017 38.914 17.6694 38.2719 17.6868 37.6105C17.6946 37.3147 17.6921 37.0271 17.6835 36.759C17.4154 36.7501 17.1278 36.7474 16.8321 36.755C16.1707 36.772 15.5286 36.8393 14.9931 36.9755C14.4336 37.1177 14.1655 37.2911 14.0659 37.3907C13.6389 37.8174 13.4732 38.215 13.4587 38.5244C13.4508 38.6921 13.4797 38.9777 13.719 39.3759L14.5611 38.4668C14.9364 38.0617 15.5691 38.0375 15.9742 38.4129C16.3793 38.7882 16.4035 39.421 16.0282 39.8261L15.1516 40.7724C15.5041 40.9658 15.7601 40.9901 15.9153 40.9829Z" fill="#212121"/>
<path fill-rule="evenodd" clip-rule="evenodd" d="M30.5455 54C30.5302 54 30.5151 53.9997 30.5 53.999C30.4849 53.9997 30.4698 54 30.4545 54H28.8609C28.0512 54 27.2782 53.504 27.0029 52.6787C26.2024 50.2788 25 44.9672 25 38C25 33.3184 25.6779 27.1797 26.4137 22H18C17.4477 22 17 22.4477 17 23V27H17.402C18.044 27 18.6469 27.3082 19.023 27.8285L22.1317 32.1302C22.3098 32.3767 22.4294 32.6605 22.4813 32.9601L23.9222 41.2715C24.0037 41.7415 23.9145 42.2251 23.6708 42.635L21.0634 47.0219C20.7029 47.6283 20.0496 48 19.3442 48H19V52H21C21.5523 52 22 52.4477 22 53C22 53.5523 21.5523 54 21 54H11C10.4477 54 10 53.5523 10 53C10 52.4477 10.4477 52 11 52H13V48H12.6448C11.9514 48 11.3074 47.6408 10.943 47.0507L8.33923 42.8332C8.09358 42.4353 7.99511 41.9639 8.06094 41.501L9.26624 33.0244C9.31505 32.6811 9.45229 32.3563 9.66447 32.0821L12.9958 27.7762C13.3746 27.2866 13.9587 27 14.5777 27H15V23C15 21.3431 16.3431 20 18 20H26.7073C27.0232 17.9157 27.3347 16.0643 27.5936 14.6337C27.767 13.6757 28.6011 13 29.5567 13H32.4433C33.3989 13 34.233 13.6757 34.4064 14.6337C34.8593 17.1365 35.4732 20.9272 35.9901 25H44C45.6569 25 47 26.3431 47 28V31H47.7778C51.2142 31 54 33.7858 54 37.2222C54 37.6518 53.6518 38 53.2222 38H38.7778C38.3482 38 38 37.6518 38 37.2222C38 33.7858 40.7858 31 44.2222 31H45V28C45 27.4477 44.5523 27 44 27H36.2329C36.676 30.8309 37 34.7636 37 38C37 44.9672 35.7976 50.2788 34.9971 52.6787C34.7218 53.504 33.9488 54 33.1391 54H30.5455ZM19.3442 46L21.9516 41.6132L20.5107 33.3017L17.402 29H14.5777L11.2463 33.3059L10.041 41.7825L12.6448 46H19.3442ZM15 48V52H17V48H15ZM27 38C27 30.8985 28.616 20.2182 29.5598 15H32.4402C33.384 20.2182 35 30.8985 35 38C35 44.7108 33.8467 49.7846 33.1151 52H30.5455L30.5288 52.0001L30.5143 52.0005L30.5 52.001L30.4763 52.0002L30.4545 52H28.8849C28.1533 49.7846 27 44.7108 27 38ZM47.7778 33H44.2222C42.3153 33 40.7037 34.2641 40.1796 36H51.8204C51.2963 34.2641 49.6847 33 47.7778 33Z" fill="#212121"/>
<path d="M45.9117 40.2123L46.4906 39.3969L45.9316 39L45.3599 39.3783L45.3568 39.3803L45.3521 39.3835L45.3372 39.3935L45.3202 39.405L45.2872 39.4278C45.2451 39.4569 45.1859 39.4986 45.1121 39.5523C44.9646 39.6596 44.758 39.8156 44.512 40.0164C44.0213 40.4169 43.3661 41.0018 42.7085 41.7416C41.4134 43.1984 40 45.379 40 48.0123C40 49.4467 40.3317 50.9943 41.2822 52.2048C42.2646 53.4561 43.8024 54.2123 45.9117 54.2123C46.9705 54.2123 47.8952 54.023 48.6857 53.6612C49.1878 53.4313 49.4086 52.8379 49.1787 52.3357C48.9489 51.8335 48.3554 51.6128 47.8532 51.8426C47.3647 52.0663 46.7315 52.2123 45.9117 52.2123C44.3219 52.2123 43.4038 51.6684 42.8552 50.9697C42.2746 50.2302 42 49.1778 42 48.0123C42 46.0955 43.0425 44.3761 44.2032 43.0704C44.7735 42.429 45.3462 41.917 45.7765 41.5659C45.8164 41.5334 45.855 41.5022 45.8922 41.4725C46.1404 41.6828 46.4511 41.9616 46.7864 42.2989C47.609 43.1263 48.5337 44.2601 49.0777 45.558C49.2912 46.0674 49.8772 46.3072 50.3866 46.0937C50.8959 45.8802 51.1358 45.2942 50.9223 44.7849C50.239 43.1549 49.1196 41.809 48.2048 40.8889C47.7426 40.4239 47.321 40.0561 47.0128 39.8028C46.8584 39.676 46.7319 39.5773 46.642 39.509C46.597 39.4749 46.5612 39.4483 46.5356 39.4295L46.505 39.4072L46.4957 39.4005L46.4915 39.3975C46.4915 39.3975 46.4906 39.3969 45.9117 40.2123Z" fill="#212121"/>
<path d="M44.3008 45.026C43.8866 45.026 43.5508 45.3618 43.5508 45.776V49.2744C43.5508 49.6886 43.8866 50.0244 44.3008 50.0244C44.715 50.0244 45.0508 49.6886 45.0508 49.2744V48.3519H46.8359V49.2744C46.8359 49.6886 47.1717 50.0244 47.5859 50.0244C48.0002 50.0244 48.3359 49.6886 48.3359 49.2744V45.776C48.3359 45.3618 48.0002 45.026 47.5859 45.026C47.1717 45.026 46.8359 45.3618 46.8359 45.776V46.8519H45.0508V45.776C45.0508 45.3618 44.715 45.026 44.3008 45.026Z" fill="#212121"/>
<path d="M52 50.788C52 51.0222 51.8206 51.212 51.5992 51.212L49.6072 51.2123C49.169 51.2123 48.959 50.6432 49.2813 50.3293L50.6439 49.0022C50.8438 48.785 50.8421 48.4376 50.6389 48.2227C50.434 48.006 50.1017 48.006 49.8968 48.2227C49.8415 48.2812 49.8017 48.3485 49.7764 48.42C49.6988 48.6393 49.4678 48.7505 49.2605 48.6685C49.0532 48.5864 48.9479 48.3422 49.0255 48.1229C49.0902 47.9401 49.1919 47.7691 49.3299 47.6232C49.8479 47.0753 50.6878 47.0753 51.2057 47.6232C51.7237 48.171 51.7237 49.0592 51.2057 49.607L51.1999 49.6132L50.4288 50.3643L51.5991 50.3641C51.8205 50.3641 52 50.5539 52 50.788Z" fill="#212121"/>
</svg>
