<svg width="64" height="64" viewBox="0 0 64 64" fill="none" xmlns="http://www.w3.org/2000/svg">
<path d="M34.5811 29.8355L34.3984 28.6295C34.0874 26.5766 32.2573 25.103 30.1853 25.237L20.9479 25.8347C19.6674 25.9176 18.5043 26.6098 17.8208 27.6958L11.711 37.4036C11.2495 38.1369 11.0386 39.0002 11.1099 39.8637L11.7225 47.2752C11.8214 48.4722 12.453 49.5614 13.4428 50.2419L17.8853 53.2962C18.5521 53.7546 19.3423 54 20.1515 54H31.7779C33.0764 54 34.2942 53.3696 35.0439 52.3093L39.03 46.6718C39.6504 45.7944 39.8917 44.7042 39.6994 43.6469L38.406 36.5328C38.2984 35.9414 38.0588 35.3809 37.7053 34.8947L35.3011 31.5889C34.9241 31.0706 34.6772 30.4692 34.5811 29.8355Z" stroke="black" stroke-width="2"/>
<path d="M28.6796 45.0597C27.586 46.1526 26.3151 46.9083 25.0204 47.0627C23.7768 47.2111 22.3522 46.8248 20.8427 45.314C19.3332 43.8033 18.9479 42.3783 19.0971 41.1347C19.2525 39.8399 20.0089 38.5695 21.1026 37.4765C21.7689 36.8106 22.7416 36.3 23.9041 35.9259C25.0584 35.5544 26.3341 35.3382 27.54 35.2187C28.7421 35.0996 29.8496 35.079 30.6576 35.0884C30.8046 35.0901 30.9415 35.0928 31.0668 35.0961C31.07 35.2215 31.0726 35.3583 31.0742 35.5053C31.0831 36.3135 31.0617 37.4211 30.9417 38.6232C30.8214 39.8291 30.6043 41.1048 30.2321 42.2589C29.8571 43.4213 29.346 44.3937 28.6796 45.0597Z" stroke="black" stroke-width="2"/>
<path d="M25.2588 40.9001L19.2237 46.9359" stroke="black" stroke-width="2" stroke-linecap="round"/>
<path fill-rule="evenodd" clip-rule="evenodd" d="M37.0511 10.4075C36.8144 10.0594 36.8881 9.57333 37.2157 9.32181C39.7936 7.34301 43.4135 7.5857 45.7347 10.0517C48.3098 12.7873 48.3098 17.2226 45.7347 19.9582C43.4135 22.4242 39.7936 22.6669 37.2157 20.6881C36.8881 20.4366 36.8144 19.9505 37.0511 19.6024C37.2879 19.2543 37.7454 19.176 38.0731 19.4275C40.0778 20.9663 42.8946 20.7761 44.6996 18.8585C46.7029 16.7302 46.7029 13.2796 44.6996 11.1514C42.8946 9.23383 40.0778 9.04359 38.0731 10.5824C37.7454 10.8339 37.2879 10.7556 37.0511 10.4075Z" fill="#0B0D0E"/>
<path fill-rule="evenodd" clip-rule="evenodd" d="M53.1639 10.4075C53.4006 10.0594 53.3269 9.57333 52.9993 9.32181C50.4214 7.34301 46.8015 7.5857 44.4803 10.0517C41.9052 12.7873 41.9052 17.2226 44.4803 19.9582C46.8015 22.4242 50.4214 22.6669 52.9993 20.6881C53.3269 20.4366 53.4006 19.9505 53.1639 19.6024C52.9271 19.2543 52.4696 19.176 52.1419 19.4275C50.1372 20.9663 47.3204 20.7761 45.5154 18.8585C43.5121 16.7302 43.5121 13.2796 45.5154 11.1514C47.3204 9.23383 50.1372 9.04359 52.1419 10.5824C52.4696 10.8339 52.9271 10.7556 53.1639 10.4075Z" fill="#0B0D0E"/>
<path d="M52.5547 15.2506L54.4676 11.3916C54.4941 11.338 54.5753 11.3639 54.5659 11.423L54.0827 14.4482C54.0776 14.48 54.1021 14.5087 54.1342 14.5087H55.6516C55.6908 14.5087 55.716 14.5503 55.6979 14.585L53.6838 18.448C53.6562 18.501 53.5756 18.4735 53.5861 18.4146L54.1281 15.3874C54.1338 15.3554 54.1092 15.326 54.0767 15.326H52.6014C52.5627 15.326 52.5375 15.2853 52.5547 15.2506Z" fill="#0B0D0E"/>
<path fill-rule="evenodd" clip-rule="evenodd" d="M52.274 15.1115L54.1869 11.2524C54.3729 10.8772 54.9413 11.0588 54.8752 11.4724L54.4403 14.1954H55.6516C55.926 14.1954 56.1025 14.4865 55.9757 14.7299L53.9616 18.5928C53.7681 18.9638 53.204 18.7713 53.2778 18.3594L53.7647 15.6392H52.6014C52.3302 15.6392 52.1536 15.3543 52.274 15.1115ZM54.0767 15.326C54.1092 15.326 54.1338 15.3554 54.1281 15.3874L53.5861 18.4146C53.5756 18.4735 53.6562 18.501 53.6838 18.448L55.6979 14.585C55.716 14.5503 55.6908 14.5087 55.6516 14.5087H54.1342C54.1021 14.5087 54.0776 14.48 54.0827 14.4482L54.5659 11.423C54.5753 11.3639 54.4941 11.338 54.4676 11.3916L52.5547 15.2506C52.5375 15.2853 52.5627 15.326 52.6014 15.326H54.0767Z" fill="#0B0D0E"/>
<path fill-rule="evenodd" clip-rule="evenodd" d="M34.8109 11.7987C35.3228 11.5814 35.9139 11.8202 36.1312 12.3321L36.318 12.7722C36.4687 13.1273 36.5517 13.5075 36.5627 13.8931L36.5717 14.2066C36.5871 14.746 36.4304 15.2763 36.1243 15.7206C36.0629 15.8098 36.0304 15.9156 36.0313 16.0239L36.0327 16.1989C36.0339 16.3499 36.0667 16.499 36.129 16.6365L36.2615 16.9292C36.4909 17.4357 36.2663 18.0323 35.7597 18.2617C35.2532 18.4911 34.6566 18.2665 34.4272 17.7599L34.2946 17.4673C34.1164 17.0736 34.0225 16.6471 34.0191 16.215L34.0177 16.0399C34.0135 15.5182 34.17 15.0079 34.466 14.5782C34.5295 14.4861 34.562 14.3761 34.5588 14.2642L34.5499 13.9507C34.546 13.8159 34.517 13.6831 34.4643 13.559L34.2775 13.1189C34.0603 12.607 34.2991 12.0159 34.8109 11.7987Z" fill="#0B0D0E"/>
<path fill-rule="evenodd" clip-rule="evenodd" d="M38.1697 11.7987C38.6816 11.5814 39.2727 11.8202 39.4899 12.3321L39.6767 12.7722C39.8275 13.1273 39.9105 13.5075 39.9215 13.8931L39.9305 14.2066C39.9459 14.746 39.7892 15.2763 39.4831 15.7206C39.4217 15.8098 39.3892 15.9156 39.3901 16.0239L39.3915 16.1989C39.3927 16.3499 39.4255 16.499 39.4878 16.6365L39.6203 16.9292C39.8497 17.4357 39.625 18.0323 39.1185 18.2617C38.612 18.4911 38.0154 18.2665 37.786 17.7599L37.6534 17.4673C37.4752 17.0736 37.3813 16.6471 37.3778 16.215L37.3764 16.0399C37.3723 15.5182 37.5288 15.0079 37.8248 14.5782C37.8883 14.4861 37.9208 14.3761 37.9176 14.2642L37.9086 13.9507C37.9048 13.8159 37.8758 13.6831 37.8231 13.559L37.6363 13.1189C37.419 12.607 37.6579 12.0159 38.1697 11.7987Z" fill="#0B0D0E"/>
</svg>
