<svg width="64" height="64" viewBox="0 0 64 64" fill="none" xmlns="http://www.w3.org/2000/svg">
<path fill-rule="evenodd" clip-rule="evenodd" d="M35.4873 31.7959H17.0319L17.715 53.9497L34.8042 53.9497L35.4873 31.7959ZM17.0319 29.7959C15.9032 29.7959 14.9981 30.7294 15.0329 31.8575L15.716 54.0114C15.7493 55.0914 16.6344 55.9497 17.715 55.9497H34.8042C35.8848 55.9497 36.7699 55.0914 36.8033 54.0114L37.4864 31.8575C37.5212 30.7294 36.616 29.7959 35.4873 29.7959H17.0319Z" fill="#0B0D0E"/>
<path fill-rule="evenodd" clip-rule="evenodd" d="M38.2598 27.4365L14.2598 27.4365V29.5391L38.2598 29.5391V27.4365ZM14.2598 25.4365C13.1552 25.4365 12.2598 26.332 12.2598 27.4365V29.5391C12.2598 30.6437 13.1552 31.5391 14.2598 31.5391H38.2598C39.3643 31.5391 40.2598 30.6437 40.2598 29.5391V27.4365C40.2598 26.332 39.3643 25.4365 38.2598 25.4365H14.2598Z" fill="#0B0D0E"/>
<path fill-rule="evenodd" clip-rule="evenodd" d="M32.8401 23.9492H19.6788L19.6788 25.18L32.8401 25.18V23.9492ZM19.6788 21.9492C18.5742 21.9492 17.6788 22.8446 17.6788 23.9492V25.18C17.6788 26.2846 18.5742 27.18 19.6788 27.18H32.8401C33.9447 27.18 34.8401 26.2846 34.8401 25.18V23.9492C34.8401 22.8446 33.9447 21.9492 32.8401 21.9492H19.6788Z" fill="#0B0D0E"/>
<path d="M26.6797 37.2838C27.7797 38.5538 28.2197 40.2438 27.8197 41.9038C27.6497 42.6238 27.8197 43.3638 28.2697 43.9438C28.7097 44.5038 29.3697 44.8238 30.0697 44.8238C30.2697 44.8238 30.4797 44.7938 30.6797 44.7438C30.6897 46.8638 28.9297 48.7038 26.6097 48.9138C26.4597 48.9238 26.3097 48.9338 26.1597 48.9338C25.8297 48.9338 25.5097 48.9038 25.1897 48.8338H25.1297L25.0597 48.8138H25.0497C23.3397 48.4238 22.0297 46.9138 21.8697 45.1338C21.8297 44.6438 21.8697 44.1538 22.0297 43.6738L22.0997 43.5038C22.2897 43.0338 22.8097 42.5738 23.4197 42.0438C23.7397 41.7638 24.0697 41.4738 24.3997 41.1438C25.4897 40.0438 26.2697 38.7138 26.6797 37.2838M25.3197 33.9338C25.1297 33.9338 24.9697 34.1138 24.9897 34.3238C24.9897 34.3538 24.9897 34.3838 24.9897 34.4138C25.1397 36.4438 24.3597 38.3538 22.9797 39.7338C22.0097 40.7138 20.7497 41.4738 20.2297 42.7638H20.2197C19.9297 43.5638 19.7997 44.4238 19.8797 45.3038C20.1197 47.9738 22.0897 50.2238 24.6897 50.7738H24.7697C25.2097 50.8838 25.6797 50.9238 26.1497 50.9238C26.3597 50.9238 26.5697 50.9238 26.7797 50.8938C30.3097 50.5638 32.9397 47.5838 32.6397 44.2338C32.5497 43.1838 32.1797 42.2238 31.6097 41.4138C31.5997 41.4038 31.5897 41.3838 31.5797 41.3738C31.5197 41.2838 31.4197 41.2438 31.3297 41.2438C31.1697 41.2438 30.9997 41.3638 30.9597 41.5638C30.8497 42.0438 30.6497 42.4538 30.2997 42.7238C30.2697 42.7438 30.2397 42.7638 30.1997 42.7838C30.1497 42.8138 30.0997 42.8238 30.0597 42.8238C29.8597 42.8238 29.6997 42.6038 29.7597 42.3738C30.3897 39.7138 29.4897 36.8338 27.1497 34.9938C26.6597 34.6038 26.1297 34.2838 25.5697 34.0238C25.5297 34.0038 25.4797 33.9838 25.4397 33.9638C25.3997 33.9438 25.3597 33.9338 25.3197 33.9338V33.9338Z" fill="#0B0D0E"/>
<path fill-rule="evenodd" clip-rule="evenodd" d="M37.0511 10.4075C36.8144 10.0594 36.8881 9.57333 37.2157 9.32181C39.7936 7.34301 43.4135 7.5857 45.7347 10.0517C48.3098 12.7873 48.3098 17.2226 45.7347 19.9582C43.4135 22.4242 39.7936 22.6669 37.2157 20.6881C36.8881 20.4366 36.8144 19.9505 37.0511 19.6024C37.2879 19.2543 37.7454 19.176 38.0731 19.4275C40.0778 20.9663 42.8946 20.7761 44.6996 18.8585C46.7029 16.7302 46.7029 13.2796 44.6996 11.1514C42.8946 9.23383 40.0778 9.04359 38.0731 10.5824C37.7454 10.8339 37.2879 10.7556 37.0511 10.4075Z" fill="#0B0D0E"/>
<path fill-rule="evenodd" clip-rule="evenodd" d="M53.1639 10.4075C53.4006 10.0594 53.3269 9.57333 52.9993 9.32181C50.4214 7.34301 46.8015 7.5857 44.4803 10.0517C41.9052 12.7873 41.9052 17.2226 44.4803 19.9582C46.8015 22.4242 50.4214 22.6669 52.9993 20.6881C53.3269 20.4366 53.4006 19.9505 53.1639 19.6024C52.9271 19.2543 52.4696 19.176 52.1419 19.4275C50.1372 20.9663 47.3204 20.7761 45.5154 18.8585C43.5121 16.7302 43.5121 13.2796 45.5154 11.1514C47.3204 9.23383 50.1372 9.04359 52.1419 10.5824C52.4696 10.8339 52.9271 10.7556 53.1639 10.4075Z" fill="#0B0D0E"/>
<path d="M52.5547 15.2506L54.4676 11.3916C54.4941 11.338 54.5753 11.3639 54.5659 11.423L54.0827 14.4482C54.0776 14.48 54.1021 14.5087 54.1342 14.5087H55.6516C55.6908 14.5087 55.716 14.5503 55.6979 14.585L53.6838 18.448C53.6562 18.501 53.5756 18.4735 53.5861 18.4146L54.1281 15.3874C54.1338 15.3554 54.1092 15.326 54.0767 15.326H52.6014C52.5627 15.326 52.5375 15.2853 52.5547 15.2506Z" fill="#0B0D0E"/>
<path fill-rule="evenodd" clip-rule="evenodd" d="M52.274 15.1115L54.1869 11.2524C54.3729 10.8772 54.9413 11.0588 54.8752 11.4724L54.4403 14.1954H55.6516C55.926 14.1954 56.1025 14.4865 55.9757 14.7299L53.9616 18.5928C53.7681 18.9638 53.204 18.7713 53.2778 18.3594L53.7647 15.6392H52.6014C52.3302 15.6392 52.1536 15.3543 52.274 15.1115ZM54.0767 15.326C54.1092 15.326 54.1338 15.3554 54.1281 15.3874L53.5861 18.4146C53.5756 18.4735 53.6562 18.501 53.6838 18.448L55.6979 14.585C55.716 14.5503 55.6908 14.5087 55.6516 14.5087H54.1342C54.1021 14.5087 54.0776 14.48 54.0827 14.4482L54.5659 11.423C54.5753 11.3639 54.4941 11.338 54.4676 11.3916L52.5547 15.2506C52.5375 15.2853 52.5627 15.326 52.6014 15.326H54.0767Z" fill="#0B0D0E"/>
<path fill-rule="evenodd" clip-rule="evenodd" d="M34.8109 11.7987C35.3228 11.5814 35.9139 11.8202 36.1312 12.3321L36.318 12.7722C36.4687 13.1273 36.5517 13.5075 36.5627 13.8931L36.5717 14.2066C36.5871 14.746 36.4304 15.2763 36.1243 15.7206C36.0629 15.8098 36.0304 15.9156 36.0313 16.0239L36.0327 16.1989C36.0339 16.3499 36.0667 16.499 36.129 16.6365L36.2615 16.9292C36.4909 17.4357 36.2663 18.0323 35.7597 18.2617C35.2532 18.4911 34.6566 18.2665 34.4272 17.7599L34.2946 17.4673C34.1164 17.0736 34.0225 16.6471 34.0191 16.215L34.0177 16.0399C34.0135 15.5182 34.17 15.0079 34.466 14.5782C34.5295 14.4861 34.562 14.3761 34.5588 14.2642L34.5499 13.9507C34.546 13.8159 34.517 13.6831 34.4643 13.559L34.2775 13.1189C34.0603 12.607 34.2991 12.0159 34.8109 11.7987Z" fill="#0B0D0E"/>
<path fill-rule="evenodd" clip-rule="evenodd" d="M38.1697 11.7987C38.6816 11.5814 39.2727 11.8202 39.4899 12.3321L39.6767 12.7722C39.8275 13.1273 39.9105 13.5075 39.9215 13.8931L39.9305 14.2066C39.9459 14.746 39.7892 15.2763 39.4831 15.7206C39.4217 15.8098 39.3892 15.9156 39.3901 16.0239L39.3915 16.1989C39.3927 16.3499 39.4255 16.499 39.4878 16.6365L39.6203 16.9292C39.8497 17.4357 39.625 18.0323 39.1185 18.2617C38.612 18.4911 38.0154 18.2665 37.786 17.7599L37.6534 17.4673C37.4752 17.0736 37.3813 16.6471 37.3778 16.215L37.3764 16.0399C37.3723 15.5182 37.5288 15.0079 37.8248 14.5782C37.8883 14.4861 37.9208 14.3761 37.9176 14.2642L37.9086 13.9507C37.9048 13.8159 37.8758 13.6831 37.8231 13.559L37.6363 13.1189C37.419 12.607 37.6579 12.0159 38.1697 11.7987Z" fill="#0B0D0E"/>
</svg>
