<svg width="64" height="64" viewBox="0 0 64 64" fill="none" xmlns="http://www.w3.org/2000/svg">
<path fill-rule="evenodd" clip-rule="evenodd" d="M34.5091 50.0413C36.0874 47.9609 36.8025 45.0463 36.8036 41.9029C36.8042 39.9772 36.1621 37.8427 35.0753 35.6419C33.9957 33.4555 32.5349 31.3192 31.0386 29.4231C29.5466 27.5324 28.0494 25.9182 26.9235 24.7758C26.7419 24.5915 26.5703 24.4199 26.4102 24.2616C26.2501 24.4197 26.0784 24.5913 25.8967 24.7754C24.77 25.917 23.2717 27.5302 21.7784 29.4197C20.2808 31.3148 18.8185 33.45 17.7374 35.6356C16.6491 37.8356 16.0055 39.9696 16.0049 41.8953C16.0038 45.0387 16.7169 47.9538 18.2938 50.0354C19.8019 52.0262 22.2774 53.494 26.4003 53.4955C30.5231 53.497 32.9997 52.031 34.5091 50.0413ZM26.3996 55.4954C35.7377 55.4988 38.8012 48.7018 38.8036 41.9036C38.8068 32.5173 26.4112 21.5045 26.4112 21.5045C26.4112 21.5045 14.0081 32.5082 14.0049 41.8946C14.0026 48.6928 17.0614 55.4921 26.3996 55.4954Z" fill="#0B0D0E"/>
<path fill-rule="evenodd" clip-rule="evenodd" d="M18.9275 45.7661L19.0281 45.5235C19.212 45.0801 19.5645 44.6442 20.1772 44.0925C20.4436 43.8526 20.7233 43.6214 21.0418 43.3581C21.0906 43.3178 21.1403 43.2767 21.191 43.2347C21.5562 42.9322 21.9667 42.5884 22.3602 42.2123C24.0474 40.5993 25.2325 38.5074 25.6361 36.187C28.1737 38.1439 29.0894 41.0742 28.4205 43.7431C28.19 44.6628 28.501 45.5843 29.1333 46.1753C29.8102 46.8079 30.8976 47.0762 31.9037 46.5467C32.0022 46.4949 32.1348 46.4197 32.2736 46.3195C32.3113 46.5049 32.3393 46.6935 32.3572 46.8849C32.6487 50.0006 30.0518 53.1181 26.069 53.4691C25.3024 53.5367 24.5589 53.4916 23.8576 53.3513L23.7951 53.3388L23.683 53.3237C20.9304 52.745 18.9224 50.4849 18.6816 47.9108C18.6122 47.1694 18.7015 46.447 18.9275 45.7661ZM17.1622 44.7681C16.7561 45.8063 16.5815 46.9347 16.6903 48.0971C17.0189 51.6095 19.74 54.5723 23.3483 55.2967L23.4654 55.3125C24.3526 55.4899 25.2873 55.5458 26.2446 55.4614C31.1328 55.0305 34.761 51.1073 34.3485 46.6986C34.2718 45.8788 34.0607 45.0999 33.7365 44.3778C33.714 44.3277 33.6909 44.2778 33.6673 44.2282C33.5406 43.9618 33.3982 43.7034 33.2415 43.454C33.1402 43.2928 33.0329 43.1353 32.9198 42.9818C32.9054 42.9622 32.8908 42.9426 32.8762 42.9232C32.804 42.827 32.7091 42.7738 32.6087 42.7567C32.3649 42.7151 32.0882 42.8854 32.0219 43.1669C32.0063 43.2332 31.9893 43.2985 31.9707 43.3626C31.9384 43.4742 31.9015 43.5823 31.8596 43.6864C31.8445 43.7239 31.8287 43.7609 31.8123 43.7973C31.722 43.9973 31.6114 44.181 31.4767 44.3445C31.469 44.3539 31.4612 44.3632 31.4534 44.3724C31.4222 44.4089 31.3898 44.4444 31.3562 44.4787C31.2798 44.5567 31.1967 44.6291 31.1065 44.6952C31.0696 44.7223 31.0238 44.7497 30.9723 44.7769C30.6203 44.9621 30.2659 44.6068 30.3605 44.2292C30.3956 44.0892 30.4273 43.9488 30.4556 43.808C30.4562 43.8049 30.4568 43.8017 30.4574 43.7986C30.5212 43.479 30.5675 43.1577 30.5964 42.8357L30.5967 42.8313C30.6323 42.4319 30.6411 42.0315 30.6233 41.6326C30.5038 38.9588 29.1889 36.3517 26.7447 34.5174C26.4306 34.2818 26.106 34.0649 25.7725 33.8668C25.7574 33.8578 25.7422 33.8488 25.7271 33.8399C25.606 33.7687 25.4838 33.7 25.3605 33.6338C25.2866 33.5941 25.2123 33.5553 25.1377 33.5173C24.9476 33.4207 24.7552 33.3297 24.5606 33.2444C24.5004 33.218 24.44 33.1921 24.3794 33.1668C24.0562 33.0318 23.7194 33.307 23.7512 33.647C23.7548 33.6852 23.7581 33.7233 23.7612 33.7614C23.7833 34.0386 23.7914 34.314 23.7861 34.5871C23.783 34.7467 23.7753 34.9054 23.7631 35.0633L23.7626 35.0687C23.7624 35.0718 23.7621 35.0749 23.7619 35.078C23.5902 37.2487 22.5696 39.2451 20.9781 40.7666C20.5964 41.1316 20.183 41.4732 19.7706 41.814C18.7262 42.6771 17.6874 43.5357 17.1807 44.7572L17.1622 44.7681Z" fill="#0B0D0E"/>
<path fill-rule="evenodd" clip-rule="evenodd" d="M37.0511 10.4075C36.8144 10.0594 36.8881 9.57333 37.2157 9.32181C39.7936 7.34301 43.4135 7.5857 45.7347 10.0517C48.3098 12.7873 48.3098 17.2226 45.7347 19.9582C43.4135 22.4242 39.7936 22.6669 37.2157 20.6881C36.8881 20.4366 36.8144 19.9505 37.0511 19.6024C37.2879 19.2543 37.7454 19.176 38.0731 19.4275C40.0778 20.9663 42.8946 20.7761 44.6996 18.8585C46.7029 16.7302 46.7029 13.2796 44.6996 11.1514C42.8946 9.23383 40.0778 9.04359 38.0731 10.5824C37.7454 10.8339 37.2879 10.7556 37.0511 10.4075Z" fill="#0B0D0E"/>
<path fill-rule="evenodd" clip-rule="evenodd" d="M53.1639 10.4075C53.4006 10.0594 53.3269 9.57333 52.9993 9.32181C50.4214 7.34301 46.8015 7.5857 44.4803 10.0517C41.9052 12.7873 41.9052 17.2226 44.4803 19.9582C46.8015 22.4242 50.4214 22.6669 52.9993 20.6881C53.3269 20.4366 53.4006 19.9505 53.1639 19.6024C52.9271 19.2543 52.4696 19.176 52.1419 19.4275C50.1372 20.9663 47.3204 20.7761 45.5154 18.8585C43.5121 16.7302 43.5121 13.2796 45.5154 11.1514C47.3204 9.23383 50.1372 9.04359 52.1419 10.5824C52.4696 10.8339 52.9271 10.7556 53.1639 10.4075Z" fill="#0B0D0E"/>
<path d="M52.5547 15.2506L54.4676 11.3916C54.4941 11.338 54.5753 11.3639 54.5659 11.423L54.0827 14.4482C54.0776 14.48 54.1021 14.5087 54.1342 14.5087H55.6516C55.6908 14.5087 55.716 14.5503 55.6979 14.585L53.6838 18.448C53.6562 18.501 53.5756 18.4735 53.5861 18.4146L54.1281 15.3874C54.1338 15.3554 54.1092 15.326 54.0767 15.326H52.6014C52.5627 15.326 52.5375 15.2853 52.5547 15.2506Z" fill="#0B0D0E"/>
<path fill-rule="evenodd" clip-rule="evenodd" d="M52.274 15.1115L54.1869 11.2524C54.3729 10.8772 54.9413 11.0588 54.8752 11.4724L54.4403 14.1954H55.6516C55.926 14.1954 56.1025 14.4865 55.9757 14.7299L53.9616 18.5928C53.7681 18.9638 53.204 18.7713 53.2778 18.3594L53.7647 15.6392H52.6014C52.3302 15.6392 52.1536 15.3543 52.274 15.1115ZM54.0767 15.326C54.1092 15.326 54.1338 15.3554 54.1281 15.3874L53.5861 18.4146C53.5756 18.4735 53.6562 18.501 53.6838 18.448L55.6979 14.585C55.716 14.5503 55.6908 14.5087 55.6516 14.5087H54.1342C54.1021 14.5087 54.0776 14.48 54.0827 14.4482L54.5659 11.423C54.5753 11.3639 54.4941 11.338 54.4676 11.3916L52.5547 15.2506C52.5375 15.2853 52.5627 15.326 52.6014 15.326H54.0767Z" fill="#0B0D0E"/>
<path fill-rule="evenodd" clip-rule="evenodd" d="M34.8109 11.7987C35.3228 11.5814 35.9139 11.8202 36.1312 12.3321L36.318 12.7722C36.4687 13.1273 36.5517 13.5075 36.5627 13.8931L36.5717 14.2066C36.5871 14.746 36.4304 15.2763 36.1243 15.7206C36.0629 15.8098 36.0304 15.9156 36.0313 16.0239L36.0327 16.1989C36.0339 16.3499 36.0667 16.499 36.129 16.6365L36.2615 16.9292C36.4909 17.4357 36.2663 18.0323 35.7597 18.2617C35.2532 18.4911 34.6566 18.2665 34.4272 17.7599L34.2946 17.4673C34.1164 17.0736 34.0225 16.6471 34.0191 16.215L34.0177 16.0399C34.0135 15.5182 34.17 15.0079 34.466 14.5782C34.5295 14.4861 34.562 14.3761 34.5588 14.2642L34.5499 13.9507C34.546 13.8159 34.517 13.6831 34.4643 13.559L34.2775 13.1189C34.0603 12.607 34.2991 12.0159 34.8109 11.7987Z" fill="#0B0D0E"/>
<path fill-rule="evenodd" clip-rule="evenodd" d="M38.1697 11.7987C38.6816 11.5814 39.2727 11.8202 39.4899 12.3321L39.6767 12.7722C39.8275 13.1273 39.9105 13.5075 39.9215 13.8931L39.9305 14.2066C39.9459 14.746 39.7892 15.2763 39.4831 15.7206C39.4217 15.8098 39.3892 15.9156 39.3901 16.0239L39.3915 16.1989C39.3927 16.3499 39.4255 16.499 39.4878 16.6365L39.6203 16.9292C39.8497 17.4357 39.625 18.0323 39.1185 18.2617C38.612 18.4911 38.0154 18.2665 37.786 17.7599L37.6534 17.4673C37.4752 17.0736 37.3813 16.6471 37.3778 16.215L37.3764 16.0399C37.3723 15.5182 37.5288 15.0079 37.8248 14.5782C37.8883 14.4861 37.9208 14.3761 37.9176 14.2642L37.9086 13.9507C37.9048 13.8159 37.8758 13.6831 37.8231 13.559L37.6363 13.1189C37.419 12.607 37.6579 12.0159 38.1697 11.7987Z" fill="#0B0D0E"/>
</svg>
