<svg width="64" height="64" viewBox="0 0 64 64" fill="none" xmlns="http://www.w3.org/2000/svg">
<path fill-rule="evenodd" clip-rule="evenodd" d="M33.4314 36.1561L33.3069 35.8426C33.052 35.2009 32.5815 34.6142 31.8514 33.9276C31.5327 33.6279 31.1982 33.3391 30.8253 33.0171C30.7682 32.9678 30.7102 32.9177 30.6512 32.8667C30.223 32.4964 29.7509 32.0832 29.3003 31.6333C27.233 29.5693 25.8464 26.8691 25.5027 23.9016C25.396 23.979 25.2905 24.0586 25.1862 24.1403C22.0136 26.6268 20.8105 30.4597 21.6579 33.9912C21.8795 34.9149 21.5878 35.8581 20.9478 36.4828C20.2543 37.1597 19.1024 37.4691 18.0326 36.8811C17.9204 36.8195 17.7728 36.7316 17.622 36.616C17.4993 36.522 17.3841 36.4236 17.276 36.3215C17.1541 36.7524 17.0708 37.1994 17.0295 37.66C16.6541 41.8493 19.9751 45.7826 24.7221 46.2195C25.6453 46.3045 26.5415 46.2479 27.3883 46.071L27.4533 46.0574L27.586 46.0388C30.9151 45.312 33.4428 42.4286 33.7486 39.0154C33.8374 38.0243 33.7211 37.0601 33.4314 36.1561ZM35.1873 35.1177C35.6634 36.3889 35.8682 37.7706 35.7406 39.1939C35.3553 43.4946 32.165 47.1225 27.9345 48.0095L27.7973 48.0288C26.757 48.2461 25.6612 48.3144 24.5387 48.2111C18.8077 47.6836 14.5538 42.8797 15.0375 37.4815C15.1434 36.2988 15.468 35.1857 15.9706 34.174C15.9881 34.1389 16.0057 34.1038 16.0237 34.0689C16.1273 33.8666 16.2382 33.6684 16.3558 33.4747C16.4686 33.2892 16.5876 33.1076 16.7125 32.9304C16.7295 32.9064 16.7465 32.8825 16.7636 32.8586C16.9323 32.6241 17.2063 32.5986 17.4277 32.714C17.5871 32.7971 17.7193 32.9533 17.7652 33.157C17.8066 33.3408 17.8567 33.5181 17.9165 33.6874C17.9314 33.7294 17.9468 33.771 17.9629 33.812C17.966 33.82 17.9692 33.8281 17.9724 33.8361C18.032 33.9852 18.1 34.1275 18.1772 34.2618C18.1846 34.2746 18.192 34.2874 18.1996 34.3C18.2945 34.4597 18.403 34.6078 18.5265 34.7426C18.6214 34.846 18.7251 34.9416 18.8385 35.0285C18.8817 35.0616 18.9354 35.0952 18.9959 35.1284C19.4085 35.3552 19.824 34.9202 19.7131 34.4578C19.6777 34.3103 19.6452 34.1624 19.6158 34.0141C19.6151 34.0108 19.6144 34.0074 19.6138 34.0041C19.5617 33.741 19.519 33.4768 19.4855 33.2121C19.4673 33.0681 19.4518 32.9239 19.4391 32.7797C19.4138 32.4934 19.3993 32.2066 19.3955 31.9201C19.3496 28.4251 20.8998 24.9587 23.9525 22.5662C24.4325 22.19 24.9336 21.853 25.4514 21.5547C25.4569 21.5515 25.4624 21.5484 25.4679 21.5452C25.4969 21.5286 25.5259 21.512 25.555 21.4956C25.6413 21.447 25.7281 21.3994 25.8153 21.3529C26.0451 21.2303 26.2778 21.1152 26.5132 21.0074C26.5838 20.9751 26.6546 20.9434 26.7256 20.9124C27.1045 20.7471 27.4994 21.084 27.4621 21.5004C27.4579 21.5472 27.454 21.5939 27.4505 21.6405C27.4284 21.9297 27.4182 22.2173 27.4195 22.5029C27.42 22.5973 27.4217 22.6914 27.4246 22.7854L27.4247 22.7901C27.5149 25.6262 28.7397 28.2474 30.7134 30.218C31.161 30.6649 31.6456 31.0831 32.1292 31.5005C33.3536 32.5574 34.5715 33.6086 35.1656 35.1043L35.1873 35.1177Z" fill="#0B0D0E"/>
<path fill-rule="evenodd" clip-rule="evenodd" d="M14 49.4028C14 48.74 14.5373 48.2028 15.2 48.2028H19.7471C20.4098 48.2028 20.9471 48.74 20.9471 49.4028V50.0917H29.8307V49.4028C29.8307 48.74 30.3679 48.2028 31.0307 48.2028H35.5778C36.2405 48.2028 36.7778 48.74 36.7778 49.4028V54.6694C36.7778 55.3322 36.2405 55.8694 35.5778 55.8694H15.2C14.5373 55.8694 14 55.3322 14 54.6694V49.4028ZM16 50.2028V53.8694H34.7778V50.2028H31.8307V50.8917C31.8307 51.5544 31.2934 52.0917 30.6307 52.0917H20.1471C19.4843 52.0917 18.9471 51.5544 18.9471 50.8917V50.2028H16Z" fill="#0B0D0E"/>
<path fill-rule="evenodd" clip-rule="evenodd" d="M37.0511 10.4075C36.8144 10.0594 36.8881 9.57333 37.2157 9.32181C39.7936 7.34301 43.4135 7.5857 45.7347 10.0517C48.3098 12.7873 48.3098 17.2226 45.7347 19.9582C43.4135 22.4242 39.7936 22.6669 37.2157 20.6881C36.8881 20.4366 36.8144 19.9505 37.0511 19.6024C37.2879 19.2543 37.7454 19.176 38.0731 19.4275C40.0778 20.9663 42.8946 20.7761 44.6996 18.8585C46.7029 16.7302 46.7029 13.2796 44.6996 11.1514C42.8946 9.23383 40.0778 9.04359 38.0731 10.5824C37.7454 10.8339 37.2879 10.7556 37.0511 10.4075Z" fill="#0B0D0E"/>
<path fill-rule="evenodd" clip-rule="evenodd" d="M53.1639 10.4075C53.4006 10.0594 53.3269 9.57333 52.9993 9.32181C50.4214 7.34301 46.8015 7.5857 44.4803 10.0517C41.9052 12.7873 41.9052 17.2226 44.4803 19.9582C46.8015 22.4242 50.4214 22.6669 52.9993 20.6881C53.3269 20.4366 53.4006 19.9505 53.1639 19.6024C52.9271 19.2543 52.4696 19.176 52.1419 19.4275C50.1372 20.9663 47.3204 20.7761 45.5154 18.8585C43.5121 16.7302 43.5121 13.2796 45.5154 11.1514C47.3204 9.23383 50.1372 9.04359 52.1419 10.5824C52.4696 10.8339 52.9271 10.7556 53.1639 10.4075Z" fill="#0B0D0E"/>
<path d="M52.5547 15.2506L54.4676 11.3916C54.4941 11.338 54.5753 11.3639 54.5659 11.423L54.0827 14.4482C54.0776 14.48 54.1021 14.5087 54.1342 14.5087H55.6516C55.6908 14.5087 55.716 14.5503 55.6979 14.585L53.6838 18.448C53.6562 18.501 53.5756 18.4735 53.5861 18.4146L54.1281 15.3874C54.1338 15.3554 54.1092 15.326 54.0767 15.326H52.6014C52.5627 15.326 52.5375 15.2853 52.5547 15.2506Z" fill="#0B0D0E"/>
<path fill-rule="evenodd" clip-rule="evenodd" d="M52.274 15.1115L54.1869 11.2524C54.3729 10.8772 54.9413 11.0588 54.8752 11.4724L54.4403 14.1954H55.6516C55.926 14.1954 56.1025 14.4865 55.9757 14.7299L53.9616 18.5928C53.7681 18.9638 53.204 18.7713 53.2778 18.3594L53.7647 15.6392H52.6014C52.3302 15.6392 52.1536 15.3543 52.274 15.1115ZM54.0767 15.326C54.1092 15.326 54.1338 15.3554 54.1281 15.3874L53.5861 18.4146C53.5756 18.4735 53.6562 18.501 53.6838 18.448L55.6979 14.585C55.716 14.5503 55.6908 14.5087 55.6516 14.5087H54.1342C54.1021 14.5087 54.0776 14.48 54.0827 14.4482L54.5659 11.423C54.5753 11.3639 54.4941 11.338 54.4676 11.3916L52.5547 15.2506C52.5375 15.2853 52.5627 15.326 52.6014 15.326H54.0767Z" fill="#0B0D0E"/>
<path fill-rule="evenodd" clip-rule="evenodd" d="M34.8109 11.7987C35.3228 11.5814 35.9139 11.8202 36.1312 12.3321L36.318 12.7722C36.4687 13.1273 36.5517 13.5075 36.5627 13.8931L36.5717 14.2066C36.5871 14.746 36.4304 15.2763 36.1243 15.7206C36.0629 15.8098 36.0304 15.9156 36.0313 16.0239L36.0327 16.1989C36.0339 16.3499 36.0667 16.499 36.129 16.6365L36.2615 16.9292C36.4909 17.4357 36.2663 18.0323 35.7597 18.2617C35.2532 18.4911 34.6566 18.2665 34.4272 17.7599L34.2946 17.4673C34.1164 17.0736 34.0225 16.6471 34.0191 16.215L34.0177 16.0399C34.0135 15.5182 34.17 15.0079 34.466 14.5782C34.5295 14.4861 34.562 14.3761 34.5588 14.2642L34.5499 13.9507C34.546 13.8159 34.517 13.6831 34.4643 13.559L34.2775 13.1189C34.0603 12.607 34.2991 12.0159 34.8109 11.7987Z" fill="#0B0D0E"/>
<path fill-rule="evenodd" clip-rule="evenodd" d="M38.1697 11.7987C38.6816 11.5814 39.2727 11.8202 39.4899 12.3321L39.6767 12.7722C39.8275 13.1273 39.9105 13.5075 39.9215 13.8931L39.9305 14.2066C39.9459 14.746 39.7892 15.2763 39.4831 15.7206C39.4217 15.8098 39.3892 15.9156 39.3901 16.0239L39.3915 16.1989C39.3927 16.3499 39.4255 16.499 39.4878 16.6365L39.6203 16.9292C39.8497 17.4357 39.625 18.0323 39.1185 18.2617C38.612 18.4911 38.0154 18.2665 37.786 17.7599L37.6534 17.4673C37.4752 17.0736 37.3813 16.6471 37.3778 16.215L37.3764 16.0399C37.3723 15.5182 37.5288 15.0079 37.8248 14.5782C37.8883 14.4861 37.9208 14.3761 37.9176 14.2642L37.9086 13.9507C37.9048 13.8159 37.8758 13.6831 37.8231 13.559L37.6363 13.1189C37.419 12.607 37.6579 12.0159 38.1697 11.7987Z" fill="#0B0D0E"/>
</svg>
