<svg xmlns="http://www.w3.org/2000/svg" fill="none" viewBox="0 0 154 20" height="20" width="154">
<g clip-path="url(#clip0_340_89240)">
<mask height="20" width="154" y="0" x="0" maskUnits="userSpaceOnUse" style="mask-type:luminance" id="mask0_340_89240">
<path fill="white" d="M153.111 0H0V20H153.111V0Z"></path>
</mask>
<g mask="url(#mask0_340_89240)">
<path fill="white" d="M19.8033 8.03283C19.6626 7.32752 19.4444 6.6399 19.1527 5.98248C18.2288 3.88325 16.6114 2.16542 14.5716 1.1169C12.5317 0.0683915 10.1935 -0.247066 7.94869 0.223408C5.70392 0.693882 3.6891 1.92169 2.24194 3.70103C0.794775 5.48038 0.00323802 7.7031 8.31102e-08 9.99664C-0.000180004 11.3935 0.292308 12.775 0.858616 14.052C1.42492 15.3289 2.25249 16.4731 3.28798 17.4107C4.32347 18.3483 5.54391 19.0585 6.87065 19.4957C8.19739 19.9328 9.60101 20.0871 10.991 19.9487C12.3811 19.8103 13.7267 19.3821 14.9411 18.6919C16.1556 18.0017 17.212 17.0647 18.0422 15.9412C18.8724 14.8178 19.4581 13.5329 19.7614 12.1694C20.0647 10.8058 20.079 9.39378 19.8033 8.02436M13.9155 1.791C14.2964 1.97301 14.6635 2.18256 15.0139 2.41796C15.1035 2.47485 15.19 2.53416 15.2766 2.59952C15.3188 2.62674 15.3592 2.65666 15.3976 2.68909L15.5186 2.77865L15.5398 2.79378L15.8382 3.0413L16.1069 3.2743C16.6962 3.81352 17.2136 4.42636 17.6465 5.0977H15.0254C14.8648 4.30041 14.6352 3.5186 14.3391 2.7611L14.2786 2.60618L14.1957 2.40889C14.157 2.31629 14.1152 2.22733 14.0747 2.13716C14.0736 2.1263 14.0736 2.11535 14.0747 2.10448L13.9228 1.80613V1.78797M14.6387 9.99482C14.6354 11.3451 14.5186 12.6928 14.2895 14.0235H10.4448V5.98308H14.2913C14.5194 7.30886 14.6362 8.65139 14.6405 9.99664M0.895062 10.4445V10.0148C0.88692 8.61734 1.20369 7.23713 1.82038 5.98308H4.80453C4.58697 7.30985 4.47788 8.65215 4.47833 9.99664C4.4733 11.3481 4.58854 12.6973 4.82268 14.0284H1.82038C1.26868 12.9112 0.953659 11.6921 0.895062 10.4475M6.14137 18.2483C6.1066 18.2331 6.07267 18.2162 6.0397 18.1974H5.99128L5.83031 18.1169L5.62152 18.0038C5.56521 17.9748 5.51047 17.9429 5.45752 17.9082H5.44299C5.41261 17.8952 5.38361 17.8792 5.35645 17.8604H5.33588C5.24933 17.8095 5.16582 17.7557 5.0823 17.7024C4.36584 17.2449 3.71945 16.6859 3.16328 16.043C3.1314 16.0111 3.10155 15.9782 3.07371 15.9444C3.00533 15.8669 2.94239 15.7894 2.87945 15.7114L2.69426 15.4693C2.57323 15.3113 2.46429 15.1467 2.35718 14.9797H2.37231L2.3602 14.9537H5.0581C5.18337 15.5177 5.33285 16.0605 5.5029 16.5774C5.6961 17.1776 5.93462 17.7623 6.21641 18.3263L6.16255 18.2997M9.55156 19.0998C8.98514 19.0727 8.42259 18.9917 7.87158 18.8577H7.82982L7.62709 18.8008C7.26398 18.6065 6.47725 17.1832 5.93258 14.9216H9.54975L9.55156 19.0998ZM9.55156 14.0265H5.7238C5.50507 12.8451 5.38724 11.6471 5.37158 10.4457V10.016C5.37339 8.67078 5.48919 7.32812 5.71774 6.00245H9.54975L9.55156 14.0265ZM2.33055 5.08742C2.48553 4.84431 2.65298 4.60939 2.83224 4.38359C2.8976 4.30008 2.96659 4.21656 3.03498 4.13607C3.05858 4.10642 3.08581 4.07919 3.11244 4.04953C3.13907 4.01988 3.18083 3.96904 3.21714 3.9285L3.38901 3.74028C3.46042 3.66282 3.53849 3.58536 3.61898 3.50729L3.70854 3.42377C3.7503 3.37899 3.79509 3.33723 3.83987 3.29548L3.92641 3.21801C4.01598 3.13752 4.10796 3.06006 4.19814 2.98502C4.24292 2.94629 4.29073 2.91058 4.33854 2.87488C4.5978 2.66234 4.87205 2.46879 5.15916 2.29572C5.30259 2.2001 5.45752 2.11416 5.59792 2.03307C5.73832 1.95198 5.89627 1.87512 6.04273 1.8031C6.18918 1.73109 6.40583 1.63607 6.59162 1.56103C7.00022 1.39312 7.42129 1.25735 7.851 1.15495C8.08783 1.09928 8.3299 1.05147 8.57722 1.01153C8.7503 0.981872 8.92641 0.96069 9.10554 0.946166L9.32341 0.924985H10.5943C10.8004 0.933466 11.0058 0.955298 11.2091 0.990344L11.5075 1.03815C11.8092 1.0901 12.1079 1.15777 12.4026 1.24089C12.7608 1.48841 13.5815 2.84038 14.0795 5.09347L2.33055 5.08742ZM14.7567 17.7526C14.6793 17.8004 14.6018 17.8482 14.5183 17.893C14.3367 18.0008 14.1552 18.0988 13.9664 18.1914C13.8586 18.2452 13.7485 18.2961 13.6383 18.3433C13.5282 18.3905 13.4175 18.4359 13.3073 18.4807C13.1699 18.5345 13.0295 18.5884 12.8837 18.6356C12.7378 18.6828 12.6029 18.7282 12.457 18.7669C12.3112 18.8056 12.1587 18.8444 12.0213 18.8771C11.8839 18.9097 11.7018 18.9454 11.5438 18.9727C11.3859 18.9999 11.1807 19.0296 10.9919 19.0501C10.81 19.0763 10.6267 19.0923 10.443 19.0979V14.9222H17.6543C16.9148 16.0745 15.9242 17.0446 14.7567 17.7599M19.0989 10.0009C19.1039 11.3976 18.7842 12.7764 18.1651 14.0284H15.1809C15.2318 13.7298 15.2766 13.4314 15.3153 13.1333C15.3365 12.9663 15.351 12.7992 15.3692 12.6322C15.3873 12.4652 15.3988 12.3786 15.4079 12.2503C15.4345 11.9756 15.4527 11.6954 15.4684 11.4206C15.4669 11.4057 15.4669 11.3907 15.4684 11.3758C15.492 11.0448 15.5162 10.7465 15.5162 10.4475V10.0178C15.5151 8.67307 15.4033 7.3307 15.1822 6.00426H18.1663C18.7794 7.24644 19.0981 8.61319 19.0977 9.99845L19.0989 10.0009Z"></path>
<path fill="white" d="M35.2975 14.6223C34.6915 15.1147 33.9263 15.3685 33.1461 15.3358C32.6577 15.3588 32.1703 15.2739 31.7184 15.0872C31.2666 14.9005 30.8614 14.6166 30.5317 14.2556C29.8327 13.3771 29.4874 12.2692 29.5634 11.1492V8.68971C29.4935 7.56673 29.838 6.45711 30.5317 5.57122C30.8563 5.20171 31.2597 4.90985 31.7122 4.71722C32.1648 4.52458 32.6548 4.43609 33.1461 4.45829C33.8962 4.41224 34.6378 4.63781 35.2352 5.09373C35.7458 5.52965 36.1216 6.10214 36.3184 6.74406C36.3228 6.74828 36.3287 6.75063 36.3348 6.75063C36.3409 6.75063 36.3467 6.74828 36.3511 6.74406L38.7954 5.44897C38.7997 5.44458 38.802 5.43872 38.802 5.43263C38.802 5.42654 38.7997 5.42069 38.7954 5.41629C38.341 4.32791 37.5804 3.39488 36.6059 2.7305C35.5574 2.10082 34.3483 1.78982 33.1261 1.83544C32.1809 1.82901 31.2445 2.01687 30.375 2.38737C29.557 2.73805 28.8328 3.27573 28.2605 3.9572C27.639 4.70851 27.1797 5.58029 26.9115 6.51772C26.5826 7.65068 26.4248 8.8264 26.4431 10.006C26.423 11.1702 26.5809 12.3306 26.9115 13.447C27.182 14.3597 27.6416 15.2051 28.2605 15.9283C28.8387 16.584 29.5619 17.0958 30.3725 17.4231C31.2556 17.7678 32.1971 17.938 33.1449 17.9242C34.3835 17.9689 35.6057 17.6308 36.6452 16.9559C37.6099 16.2678 38.3811 15.3428 38.8844 14.2701C38.888 14.2654 38.89 14.2597 38.89 14.2537C38.89 14.2478 38.888 14.2421 38.8844 14.2374L36.5454 12.8558C36.541 12.8516 36.5351 12.8492 36.5291 12.8492C36.523 12.8492 36.5171 12.8516 36.5127 12.8558C36.2726 13.5277 35.8612 14.1254 35.3193 14.5896"></path>
<path fill="white" d="M43.845 2.1123H40.9922V17.6691H43.845V2.1123Z"></path>
<path fill="white" d="M50.0744 6.04004H47.2246V17.6668H50.0744V6.04004Z"></path>
<path fill="white" d="M66.513 5.76858C65.6839 5.73674 64.8669 5.97549 64.1855 6.4488C63.6057 6.85436 63.1724 7.4364 62.9503 8.10821C62.8522 7.85473 62.7251 7.61347 62.5715 7.38925C62.3376 6.97483 62.0107 6.62037 61.6165 6.35379C61.158 6.05483 60.6355 5.86822 60.0914 5.80913C60.0838 5.80645 60.0755 5.80645 60.0678 5.80913C59.8823 5.78017 59.6946 5.76621 59.5068 5.76737C59.2142 5.76706 58.9226 5.80222 58.6384 5.87207C58.5488 5.89022 58.4568 5.91685 58.3758 5.94045L58.1282 6.03304C57.3658 6.33907 56.727 6.89036 56.3127 7.59986V6.0397H53.4629V17.6785H56.3127V9.97943C56.3044 9.69721 56.3693 9.41766 56.5009 9.16788C56.624 8.94156 56.794 8.74411 56.9996 8.58872C57.2073 8.43094 57.4404 8.30978 57.6889 8.23045C57.9449 8.1505 58.2116 8.10969 58.4798 8.10942C59.7273 8.10942 60.35 8.94094 60.348 10.604V17.6664H63.2009V9.98064C63.1949 9.69942 63.2572 9.42095 63.3824 9.16909C63.4986 8.94233 63.664 8.74444 63.8666 8.58993C64.0728 8.43157 64.305 8.31034 64.5528 8.23166C64.8177 8.15038 65.0934 8.10957 65.3704 8.11063C66.6179 8.11063 67.2406 8.94215 67.2386 10.6052V17.6664H70.0914V10.3165C70.1677 9.12264 69.8419 7.93764 69.1661 6.9505C68.8528 6.5556 68.4496 6.24127 67.9903 6.03368C67.5309 5.8261 67.0285 5.73127 66.5251 5.75708"></path>
<path fill="white" d="M88.8013 2.85547H86.2438V6.02782H84.2383V8.32025H85.9449V14.7116C85.9193 15.1089 85.974 15.5074 86.1058 15.8831C86.2375 16.2589 86.4436 16.6043 86.7117 16.8987C87.0142 17.1704 87.3684 17.3783 87.7532 17.5101C88.1379 17.6418 88.5452 17.6947 88.9508 17.6654H91.0187V15.3712H89.3654C89.219 15.3712 89.0786 15.3131 88.9751 15.2095C88.8716 15.106 88.8134 14.9657 88.8134 14.8193V8.33477H91.2009V6.03932H88.8134L88.8013 2.85547Z"></path>
<path fill="white" d="M103.632 12.5667V11.6384C103.637 10.8735 103.528 10.1121 103.309 9.37922C103.109 8.70218 102.78 8.06998 102.341 7.51708C101.895 6.97283 101.331 6.53805 100.691 6.2462C99.9477 5.91928 99.142 5.75938 98.3305 5.7778C97.5515 5.76599 96.7785 5.9143 96.0592 6.21352C95.409 6.48931 94.8297 6.90869 94.3647 7.44023C93.8872 7.99728 93.5269 8.64479 93.305 9.34412C93.0509 10.1508 92.9271 10.9929 92.9383 11.8387C92.9262 12.6961 93.0531 13.5497 93.3141 14.3665C93.5413 15.0721 93.9099 15.724 94.3974 16.2825C94.8703 16.8147 95.4566 17.2339 96.1131 17.5092C96.8434 17.8095 97.6274 17.9578 98.417 17.9449C99.402 17.9648 100.38 17.7702 101.282 17.3749C102.061 17.0316 102.733 16.4865 103.231 15.796L101.691 14.0772C101.354 14.5192 100.944 14.9015 100.481 15.2083C99.9513 15.5206 99.3428 15.673 98.7287 15.6471C98.3428 15.6761 97.9552 15.6233 97.5911 15.4922C97.2271 15.3612 96.8948 15.1547 96.616 14.8864C96.123 14.3299 95.8669 13.6028 95.9025 12.8602V12.5619L103.632 12.5667ZM95.9025 10.6271C95.8689 9.90942 96.1066 9.20538 96.5682 8.65482C96.7923 8.40431 97.0691 8.20648 97.3787 8.07549C97.6883 7.9445 98.023 7.88359 98.3589 7.89714C98.685 7.87761 99.0111 7.93616 99.31 8.06794C99.6089 8.19972 99.8721 8.40092 100.078 8.65482C100.494 9.21696 100.704 9.9048 100.674 10.6035V10.8032H95.8994L95.9025 10.6271Z"></path>
<path fill="white" d="M111.903 9.68897L110.545 14.8578H110.477L109.095 9.68897L106.713 2.11816H103.705L108.789 17.6659H112.128L117.205 2.11816H114.29L111.903 9.68897Z"></path>
<path fill="white" d="M134.556 12.566V11.6376C134.559 10.8729 134.451 10.1117 134.233 9.37851C134.03 8.70246 133.702 8.07072 133.265 7.51637C132.817 6.9677 132.25 6.52968 131.605 6.23641C130.861 5.90967 130.055 5.74979 129.242 5.768C128.463 5.75728 127.69 5.90554 126.971 6.20373C126.321 6.47988 125.742 6.8992 125.276 7.43043C124.799 7.98693 124.439 8.63467 124.22 9.33433C123.965 10.141 123.841 10.9831 123.852 11.8289C123.84 12.6863 123.967 13.5399 124.228 14.3567C124.462 15.0643 124.839 15.7163 125.335 16.2727C125.807 16.8048 126.392 17.224 127.048 17.4994C127.779 17.8004 128.564 17.9487 129.355 17.9352C130.333 17.9525 131.303 17.758 132.199 17.3651C132.978 17.0228 133.651 16.4775 134.148 15.7862L132.611 14.0674C132.272 14.5103 131.862 14.8928 131.396 15.1985C130.868 15.5109 130.26 15.6633 129.647 15.6373C129.26 15.6669 128.872 15.6145 128.507 15.4834C128.142 15.3523 127.808 15.1455 127.529 14.8766C127.04 14.3181 126.788 13.5916 126.824 12.8504V12.5521L134.556 12.566ZM126.829 10.6264C126.797 9.90989 127.033 9.20704 127.492 8.65592C127.716 8.40545 127.993 8.20745 128.303 8.07598C128.612 7.94451 128.947 7.88279 129.283 7.89521C129.61 7.8747 129.938 7.93277 130.238 8.06459C130.538 8.1964 130.802 8.39812 131.008 8.65289C131.424 9.21503 131.635 9.90287 131.605 10.6016V10.8013H126.83L126.829 10.6264Z"></path>
<path fill="white" d="M150.275 6.04004L149.121 10.8294L148.204 14.8164H148.118L147.022 10.8294L145.623 6.04004H143.038L141.68 10.8294L140.612 14.8164H140.523L139.61 10.8294L138.428 6.04004H135.686L138.893 17.6668H141.922L143.39 12.5427L144.24 9.37942H144.306L145.177 12.5427L146.67 17.6668H149.74L153.109 6.04004H150.275Z"></path>
<path fill="white" d="M82.5162 15.3712C82.3579 15.3712 82.2061 15.3083 82.0942 15.1964C81.9823 15.0845 81.9195 14.9327 81.9195 14.7745V9.90703C81.9551 9.33629 81.8636 8.76476 81.6515 8.23372C81.4393 7.70268 81.1119 7.22539 80.6928 6.83634C79.6687 6.05673 78.3957 5.67699 77.1119 5.7682C76.1298 5.72454 75.1534 5.9386 74.2797 6.38911C73.5838 6.78214 72.9947 7.33961 72.564 8.01281L73.8839 9.20502L74.2688 9.54815C74.4345 9.31113 74.6256 9.09298 74.8389 8.89758C74.9828 8.75544 75.1385 8.62568 75.3042 8.50966C75.7816 8.19292 76.3464 8.03415 76.9189 8.05578C77.2154 8.02801 77.5144 8.06109 77.7977 8.15298C78.0809 8.24486 78.3424 8.39363 78.5662 8.59015C78.7488 8.79757 78.8885 9.03917 78.9771 9.30095C79.0657 9.56273 79.1015 9.8395 79.0824 10.1152V10.9625H77.098C75.8145 10.884 74.5368 11.1895 73.4276 11.84C73.0004 12.1398 72.6571 12.5441 72.4303 13.0142C72.2036 13.4844 72.1011 14.0048 72.1325 14.5258C72.1115 14.9836 72.1855 15.4409 72.3499 15.8687C72.5142 16.2966 72.7654 16.6858 73.0875 17.0118C73.2199 17.1447 73.3671 17.2618 73.5262 17.361C73.9231 17.615 74.3681 17.7846 74.8334 17.8591C74.8842 17.8591 74.9381 17.8803 74.9944 17.8857C75.2563 17.934 75.5221 17.9579 75.7884 17.9571C76.0092 17.9578 76.2297 17.9418 76.448 17.9093H76.4898C77.0375 17.8529 77.5651 17.6722 78.0324 17.381L78.0863 17.3392C78.616 17.0376 79.079 16.6316 79.4473 16.1458C79.5533 16.5233 79.7524 16.8682 80.0265 17.1486C80.2251 17.3361 80.4599 17.4811 80.7165 17.5748C80.9731 17.6684 81.2461 17.7087 81.5188 17.6933H83.1032V15.3712H82.5162ZM79.0812 14.2044C79.0922 14.4512 79.0362 14.6965 78.919 14.914C78.8017 15.1315 78.6277 15.3131 78.4155 15.4396C77.9239 15.7333 77.3587 15.8802 76.7863 15.8632C76.326 15.8919 75.8687 15.7716 75.4822 15.5201C75.3265 15.3945 75.2036 15.233 75.1241 15.0495C75.0447 14.866 75.0109 14.6659 75.0259 14.4665V14.0937C75.0259 13.1508 75.768 12.6783 77.2523 12.6763H79.0818L79.0812 14.2044Z"></path>
<path fill="white" d="M48.6423 1.90625C48.2862 1.90642 47.9411 2.03008 47.6659 2.25614C47.3907 2.48221 47.2023 2.7967 47.133 3.14605C47.0636 3.49539 47.1175 3.85798 47.2855 4.17203C47.4535 4.48608 47.7252 4.73217 48.0543 4.86838C48.3834 5.00458 48.7495 5.02248 49.0903 4.91901C49.4312 4.81555 49.7255 4.59712 49.9234 4.30095C50.1212 4.00478 50.2102 3.64918 50.1752 3.29474C50.1403 2.9403 49.9835 2.60894 49.7317 2.35711C49.4426 2.06852 49.0508 1.90638 48.6423 1.90625Z"></path>
<path fill="white" d="M121.482 6.04004H118.629V17.6668H121.482V6.04004Z"></path>
<path fill="white" d="M120.064 1.90625C119.708 1.90642 119.363 2.03008 119.088 2.25614C118.813 2.48221 118.624 2.7967 118.555 3.14605C118.486 3.49539 118.539 3.85798 118.707 4.17203C118.875 4.48608 119.147 4.73217 119.476 4.86838C119.805 5.00458 120.171 5.02248 120.512 4.91901C120.853 4.81555 121.147 4.59712 121.345 4.30095C121.543 4.00478 121.632 3.64918 121.597 3.29474C121.562 2.9403 121.405 2.60894 121.154 2.35711C120.864 2.06852 120.473 1.90638 120.064 1.90625Z"></path>
</g>
</g>
<defs>
<clipPath id="clip0_340_89240">
<rect fill="white" height="20" width="153.111"></rect>
</clipPath>
</defs>
</svg>
