<svg width="64" height="64" viewBox="0 0 64 64" fill="none" xmlns="http://www.w3.org/2000/svg">
<path fill-rule="evenodd" clip-rule="evenodd" d="M31.7612 40.0145L29.2933 36.7251C29.1514 36.5359 29.0488 36.3203 28.9915 36.091L28.1498 32.7237L22.3934 30.2567L18.1897 36.9825L19.5543 39.0294C19.9413 39.6099 19.9519 40.3635 19.5812 40.9547L18.3232 42.9613L20.3136 45.7249L23.2066 44.2784C23.7057 44.0288 24.2933 44.0288 24.7924 44.2784L27.6825 45.7235L31.7612 40.0145ZM33.4607 38.9471C33.9246 39.5654 33.9345 40.4129 33.4851 41.0419L29.1971 47.0439C28.69 47.7537 27.7418 47.9892 26.9615 47.599L23.9995 46.118L21.0352 47.6002C20.2572 47.9892 19.3119 47.7564 18.8035 47.0505L16.6111 44.0063C16.1897 43.4212 16.1646 42.6392 16.5476 42.0283L17.8088 40.0167L16.4443 37.97C16.0578 37.3902 16.0467 36.6377 16.416 36.0467L20.8005 29.0318C21.2639 28.2903 22.1988 27.9974 23.0025 28.3418L29.0411 30.9298C29.5504 31.1481 29.9284 31.5919 30.0628 32.1295L30.9207 35.5615L33.4607 38.9471Z" fill="#0B0D0E"/>
<path fill-rule="evenodd" clip-rule="evenodd" d="M25.8944 34.4472C25.6475 34.9412 25.0468 35.1414 24.5528 34.8944L23.4473 34.3417L22.1182 36.9999L22.8948 38.5527C23.1419 39.0466 22.9417 39.6473 22.4478 39.8944C21.9538 40.1414 21.3531 39.9413 21.1061 39.4473L20.1058 37.4474C19.9649 37.1658 19.9649 36.8344 20.1057 36.5528L22.1056 32.5528C22.2242 32.3156 22.4322 32.1352 22.6838 32.0513C22.9354 31.9675 23.21 31.987 23.4473 32.1056L25.4472 33.1056C25.9412 33.3526 26.1414 33.9533 25.8944 34.4472Z" fill="#0B0D0E"/>
<path fill-rule="evenodd" clip-rule="evenodd" d="M17.6477 15L10.4282 52H39.5136L31.3916 15H17.6477ZM16.8239 13C16.3455 13 15.9341 13.3389 15.8425 13.8085L8.2327 52.8085C8.11222 53.426 8.58506 54 9.21419 54H40.7569C41.3956 54 41.8706 53.4094 41.7336 52.7856L33.1727 13.7856C33.072 13.3268 32.6656 13 32.1959 13H16.8239Z" fill="#0B0D0E"/>
<path fill-rule="evenodd" clip-rule="evenodd" d="M37.8584 35L41.6072 52H53.9998V35H37.8584ZM36.6139 33C35.9748 33 35.4997 33.5913 35.6374 34.2153L39.8272 53.2153C39.9282 53.6736 40.3344 54 40.8037 54H54.9998C55.5521 54 55.9998 53.5523 55.9998 53V34C55.9998 33.4477 55.5521 33 54.9998 33H36.6139Z" fill="#0B0D0E"/>
<path fill-rule="evenodd" clip-rule="evenodd" d="M49.0002 22V33H52.0002V22H49.0002ZM48.0002 20C47.4479 20 47.0002 20.4477 47.0002 21V34C47.0002 34.5523 47.4479 35 48.0002 35H53.0002C53.5525 35 54.0002 34.5523 54.0002 34V21C54.0002 20.4477 53.5525 20 53.0002 20H48.0002Z" fill="#0B0D0E"/>
<path fill-rule="evenodd" clip-rule="evenodd" d="M40.0002 27V33H43.0002V27H40.0002ZM39.0002 25C38.4479 25 38.0002 25.4477 38.0002 26V34C38.0002 34.5523 38.4479 35 39.0002 35H44.0002C44.5525 35 45.0002 34.5523 45.0002 34V26C45.0002 25.4477 44.5525 25 44.0002 25H39.0002Z" fill="#0B0D0E"/>
</svg>
