<svg width="64" height="64" viewBox="0 0 64 64" fill="none" xmlns="http://www.w3.org/2000/svg">
<path d="M32.3071 14.099L37.6195 9.48691C38.12 9.05243 38.12 8.348 37.6195 7.91352L32.3071 3.30146C31.8901 2.93939 31.2139 2.93939 30.7969 3.30146C30.3798 3.66352 30.3798 4.25055 30.7969 4.61261L34.3534 7.70029L16.0454 7.70029C9.61133 7.70029 4.39551 12.9161 4.39551 19.3502V20.6506C4.39551 26.3664 9.02912 31 14.745 31C15.2972 31 15.745 30.5523 15.745 30C15.745 29.4477 15.2972 29 14.745 29C10.1337 29 6.39551 25.2618 6.39551 20.6506L6.39551 19.3502C6.39551 14.0207 10.7159 9.70029 16.0454 9.70029L34.3532 9.70029L30.7969 12.7878C30.3798 13.1499 30.3798 13.7369 30.7969 14.099C31.2139 14.461 31.8901 14.461 32.3071 14.099Z" fill="#0B0D0E"/>
<path d="M52.4389 4.20072L52.4371 4.19746L52.0515 3.50697L52.0508 3.50581C51.8332 3.10984 51.2832 2.9571 50.7939 3.15424C50.3319 3.34042 50.153 3.81139 50.3831 4.23068L50.7675 4.91895C51.1874 5.6397 51.153 6.58735 50.6481 7.25273C49.9173 8.21989 49.7162 9.56446 50.1825 10.7053L50.4983 11.5166C50.6406 11.8553 51.0061 12.0684 51.3925 12.0684C51.4751 12.0684 51.5341 12.0553 51.6376 12.0324L51.6392 12.0321L51.6415 12.0316L51.6829 12.0224L51.7078 12.017C52.1773 11.8699 52.4523 11.4163 52.2857 10.9885L51.9702 10.1778C51.7067 9.50085 51.7733 8.68211 52.2432 8.10787C53.072 6.96835 53.1718 5.45585 52.4389 4.20072Z" fill="#0B0D0E"/>
<path d="M54.181 10.7074L54.1798 10.7044C53.7185 9.56281 53.9175 8.21746 54.6406 7.24956C55.1402 6.58374 55.1742 5.63558 54.7587 4.91435L54.3784 4.22563C54.1507 3.80607 54.3277 3.33468 54.7849 3.14838C55.2542 2.95712 55.812 3.12125 56.0675 3.50789L56.4454 4.19238L56.4482 4.19724C57.1719 5.42215 57.0736 6.96404 56.2202 8.10367C55.754 8.6784 55.6878 9.49864 55.9487 10.1767L56.261 10.9877C56.4258 11.4159 56.1537 11.8698 55.6891 12.017L55.6212 12.0321C55.5177 12.0553 55.4593 12.0684 55.3771 12.0684C54.9948 12.0684 54.6331 11.8552 54.4924 11.5163L54.181 10.7074Z" fill="#0B0D0E"/>
<path d="M58.1875 10.7082L58.1864 10.7053C57.7248 9.56119 57.8932 8.22073 58.6754 7.25948L58.6805 7.25294C59.179 6.58756 59.2131 5.63981 58.7985 4.91895L58.419 4.23068C58.192 3.81139 58.3686 3.34042 58.8246 3.15424C59.3075 2.9571 59.8505 3.10984 60.0653 3.50581L60.0659 3.50697L60.4466 4.19746L60.4495 4.20241C61.1714 5.42642 61.0732 6.9674 60.2219 8.10628C59.7568 8.68063 59.6907 9.50033 59.9511 10.1778L60.2626 10.9885C60.427 11.4163 60.1556 11.8699 59.692 12.017C59.6673 12.0224 59.645 12.0274 59.6243 12.0321L59.6228 12.0324C59.5206 12.0553 59.4623 12.0684 59.3808 12.0684C58.9994 12.0684 58.6386 11.8552 58.4982 11.5166L58.1875 10.7082Z" fill="#0B0D0E"/>
<path fill-rule="evenodd" clip-rule="evenodd" d="M46.9118 38.8787C47.6364 40.7874 47.9479 42.8618 47.7538 44.9988C47.1674 51.4559 42.3123 56.9029 35.8741 58.2346L35.6652 58.2636C34.0821 58.5899 32.4144 58.6925 30.7063 58.5374C21.9844 57.7453 15.5107 50.5327 16.2468 42.4277C16.4772 39.8902 17.3871 37.566 18.796 35.5947C18.8217 35.5586 18.8477 35.5227 18.8737 35.4869C19.3152 34.8811 20.231 35.2042 20.398 35.9349C20.585 36.7535 20.8871 37.4856 21.3522 38.0764C21.4158 38.1573 21.4825 38.2355 21.5523 38.3109L21.5655 38.325C21.7074 38.4767 21.8624 38.617 22.0313 38.7447C22.0564 38.7637 22.0839 38.7828 22.1133 38.8019C22.2806 38.9105 22.5124 39.0199 22.752 39.119C23.2042 39.306 23.6376 38.87 23.5015 38.4C23.4471 38.212 23.3972 38.0315 23.3623 37.888C23.3498 37.8362 23.3374 37.7844 23.3253 37.7325C23.2831 37.5516 23.2439 37.3703 23.2076 37.1887L23.2063 37.1818L23.193 37.1145C21.9825 30.9028 24.2702 24.3202 29.8141 20.0337C31.0339 19.0904 32.3431 18.3112 33.7111 17.6932C33.8185 17.6447 33.9262 17.5972 34.0343 17.5507C34.611 17.3025 35.2119 17.8083 35.1552 18.4335C35.1488 18.5037 35.1429 18.5738 35.1375 18.6438C34.734 23.8515 36.9384 28.7194 40.7315 32.112C41.2406 32.5673 41.7742 33.0037 42.3077 33.4399C43.9663 34.7961 45.6228 36.1506 46.533 38.0694C46.6561 38.329 46.7715 38.5921 46.8787 38.8586L46.9118 38.8787ZM45.2252 40.1067L45.0235 39.6056C44.9313 39.3765 44.832 39.1501 44.726 38.9266C44.2871 38.0012 43.5787 37.1873 42.6247 36.3253C42.1477 35.8942 41.6381 35.4759 41.0853 35.0239L41.0294 34.9782C40.5051 34.5494 39.9409 34.0882 39.3981 33.6027C35.609 30.2136 33.2061 25.4557 33.0941 20.2477C32.383 20.6511 31.6955 21.107 31.0374 21.6159C25.8873 25.598 23.9276 31.7492 25.3057 37.4153C25.3304 37.5171 25.3709 37.6654 25.4226 37.8438C25.9502 39.6662 24.2319 41.8952 21.9877 40.9672C21.6923 40.845 21.2136 40.6337 20.8252 40.3401C20.1818 39.8537 19.6916 39.269 19.3185 38.6375C18.7399 39.8642 18.3667 41.1982 18.2386 42.6086C17.8274 47.1368 20.0813 51.4443 23.8883 54.0567C23.2894 52.8665 23.0069 51.5222 23.1336 50.1272C23.1992 49.4048 23.3703 48.7155 23.6317 48.0712C23.6591 48.0035 23.6876 47.9363 23.717 47.8696C23.8504 47.5673 24.0039 47.2756 24.1758 46.9955C24.2668 46.8474 24.3629 46.7025 24.464 46.5611C24.4774 46.5422 24.491 46.5235 24.5046 46.5048C24.5383 46.4585 24.5773 46.4227 24.6196 46.3963C24.8665 46.2426 25.2257 46.4131 25.3001 46.7386C25.3047 46.7588 25.3094 46.7789 25.3143 46.7988C25.3464 46.9301 25.3844 47.0569 25.429 47.1784C25.4414 47.2122 25.4543 47.2455 25.4678 47.2784C25.5706 47.5301 25.7044 47.7567 25.8763 47.9498C25.8872 47.962 25.8982 47.9741 25.9094 47.986L25.9127 47.9896C25.9859 48.0674 26.0657 48.1394 26.1525 48.2051C26.1869 48.231 26.2295 48.2573 26.2775 48.2834C26.6053 48.4611 26.9353 48.1202 26.8472 47.7579C26.8176 47.6366 26.7907 47.515 26.7664 47.393L26.7648 47.3848C26.7022 47.0696 26.6569 46.7526 26.6288 46.435C26.6259 46.4026 26.6232 46.3701 26.6207 46.3376C26.5889 45.9276 26.5857 45.5169 26.6108 45.1081C26.7646 42.5985 27.9851 40.1635 30.2143 38.4399C30.462 38.2483 30.7167 38.0698 30.9776 37.9041L31.0343 37.8683C31.1849 37.7741 31.3375 37.684 31.492 37.5983C31.5606 37.5602 31.6296 37.5229 31.6989 37.4864C31.8798 37.3914 32.0629 37.3021 32.2481 37.2184C32.3042 37.1931 32.3604 37.1683 32.4168 37.144C32.7177 37.0145 33.0314 37.2785 33.0018 37.6048C32.9998 37.6264 32.9979 37.648 32.9961 37.6696C32.9949 37.6846 32.9937 37.6996 32.9925 37.7145C32.9741 37.9528 32.9661 38.1898 32.9682 38.425C32.9694 38.5655 32.9743 38.7053 32.9827 38.8444C32.9869 38.9147 32.9921 38.9848 32.9981 39.0547L32.9998 39.0739C33.1811 41.1193 34.1249 42.9984 35.5841 44.4357C35.9395 44.7858 36.3244 45.1135 36.7084 45.4405C37.6809 46.2686 38.6484 47.0925 39.1202 48.2645L39.1375 48.275C39.5156 49.2711 39.6782 50.3537 39.5769 51.469C39.4422 52.9521 38.8761 54.3331 37.9979 55.4738C42.2847 53.6087 45.3356 49.5128 45.762 44.8179C45.9104 43.1845 45.7133 41.5946 45.2252 40.1067ZM37.265 49.0115L37.358 49.2426C37.5666 49.8908 37.6494 50.58 37.5851 51.2881C37.3611 53.755 35.505 55.8664 33.0319 56.4055L32.9285 56.4198L32.8643 56.433C32.2292 56.5639 31.5558 56.6061 30.8608 56.5429C27.2689 56.2167 24.8534 53.303 25.1254 50.3081C25.1363 50.1883 25.1511 50.0698 25.1699 49.9526C25.2269 49.9876 25.2793 50.0172 25.3242 50.0415C26.341 50.5929 27.4397 50.305 28.1056 49.6638C28.7207 49.0714 29.0059 48.1707 28.7905 47.2853C28.1867 44.8026 28.9772 42.104 31.1475 40.2574C31.557 42.4062 32.6442 44.3472 34.1806 45.8605C34.5502 46.2246 34.9353 46.5569 35.2756 46.8472L35.4148 46.9659C35.7115 47.2186 35.9698 47.4386 36.2159 47.667C36.7795 48.1899 37.0984 48.5978 37.265 49.0115Z" fill="#0B0D0E"/>
</svg>
