<svg width="64" height="64" viewBox="0 0 64 64" fill="none" xmlns="http://www.w3.org/2000/svg">
<path d="M37.6195 9.48691L32.3071 14.099C31.8901 14.461 31.2139 14.461 30.7969 14.099C30.3798 13.7369 30.3798 13.1499 30.7969 12.7878L34.3532 9.70029L16.0454 9.70029C10.7159 9.70029 6.39551 14.0207 6.39551 19.3502L6.39551 20.6506C6.39551 25.2618 10.1337 29 14.745 29C15.2972 29 15.745 29.4477 15.745 30C15.745 30.5523 15.2972 31 14.745 31C9.02912 31 4.39551 26.3664 4.39551 20.6506V19.3502C4.39551 12.9161 9.61133 7.70029 16.0454 7.70029L34.3534 7.70029L30.7969 4.61261C30.3798 4.25055 30.3798 3.66352 30.7969 3.30146C31.2139 2.93939 31.8901 2.93939 32.3071 3.30146L37.6195 7.91352C38.12 8.348 38.12 9.05243 37.6195 9.48691Z" fill="#0B0D0E"/>
<path d="M52.4386 4.20071L52.4368 4.19744L52.0511 3.50695L52.0505 3.5058C51.8329 3.10982 51.2829 2.95708 50.7936 3.15422C50.3316 3.3404 50.1527 3.81137 50.3828 4.23066L50.7672 4.91893C51.1871 5.63969 51.1527 6.58733 50.6478 7.25271C49.917 8.21987 49.7159 9.56444 50.1822 10.7053L50.498 11.5166C50.6403 11.8553 51.0058 12.0684 51.3922 12.0684C51.4748 12.0684 51.5338 12.0553 51.6373 12.0324L51.6389 12.0321L51.6409 12.0316C51.6612 12.0271 51.6833 12.0222 51.7075 12.017C52.177 11.8698 52.452 11.4163 52.2854 10.9884L51.9699 10.1778C51.7064 9.50083 51.773 8.68209 52.2429 8.10785C53.0717 6.96833 53.1715 5.45583 52.4386 4.20071Z" fill="#0B0D0E"/>
<path d="M58.1872 10.7082L58.1861 10.7053C57.7245 9.56117 57.8929 8.22071 58.6751 7.25946L58.6802 7.25292C59.1787 6.58754 59.2128 5.63979 58.7982 4.91893L58.4187 4.23066C58.1917 3.81137 58.3683 3.3404 58.8243 3.15422C59.3072 2.95708 59.8502 3.10982 60.065 3.5058L60.0656 3.50695L60.4463 4.19744L60.4492 4.2024C61.1711 5.4264 61.0729 6.96738 60.2216 8.10627C59.7565 8.68061 59.6904 9.50031 59.9508 10.1778L60.2623 10.9884C60.4267 11.4163 60.1553 11.8698 59.6917 12.017L59.6584 12.0244L59.6225 12.0324C59.5203 12.0553 59.462 12.0684 59.3805 12.0684C58.9991 12.0684 58.6383 11.8552 58.4979 11.5166L58.1872 10.7082Z" fill="#0B0D0E"/>
<path d="M54.1807 10.7074L54.1795 10.7044C53.7182 9.56279 53.9172 8.21744 54.6403 7.24954C55.1399 6.58372 55.1739 5.63556 54.7584 4.91433L54.3781 4.22561C54.1504 3.80605 54.3274 3.33466 54.7846 3.14836C55.2539 2.9571 55.8117 3.12124 56.0672 3.50787L56.4451 4.19236L56.4479 4.19722C57.1716 5.42214 57.0733 6.96402 56.2199 8.10366C55.7537 8.67838 55.6875 9.49862 55.9484 10.1767L56.2607 10.9877C56.4255 11.4158 56.1534 11.8698 55.6888 12.017L55.6209 12.032C55.5174 12.0553 55.459 12.0684 55.3768 12.0684C54.9945 12.0684 54.6328 11.8551 54.4921 11.5163L54.1807 10.7074Z" fill="#0B0D0E"/>
<path d="M32.9997 32.0444C32.9997 31.4921 33.4474 31.0444 33.9997 31.0444C34.552 31.0444 34.9997 31.4921 34.9997 32.0444V43.0649C34.9997 44.1001 35.8496 44.9556 36.9181 44.9556C37.9867 44.9556 38.8365 44.1001 38.8365 43.0649C38.8365 42.4265 38.5159 41.8586 38.0151 41.5136C37.5602 41.2003 37.4455 40.5777 37.7587 40.1228C38.072 39.668 38.6947 39.5532 39.1495 39.8665C40.1647 40.5657 40.8365 41.7358 40.8365 43.0649C40.8365 45.2227 39.0732 46.9556 36.9181 46.9556C34.7631 46.9556 32.9997 45.2227 32.9997 43.0649V32.0444Z" fill="#0B0D0E"/>
<path d="M30.9999 34.0317C30.9999 33.4795 30.5522 33.0317 29.9999 33.0317C29.4476 33.0317 28.9999 33.4795 28.9999 34.0317V41.0536C28.9999 42.1098 28.1422 42.9683 27.0815 42.9683C26.0208 42.9683 25.1631 42.1098 25.1631 41.0536C25.1631 40.4033 25.487 39.828 25.9878 39.4802C26.4414 39.1652 26.5537 38.5421 26.2387 38.0884C25.9237 37.6348 25.3006 37.5224 24.8469 37.8375C23.8316 38.5426 23.1631 39.7198 23.1631 41.0536C23.1631 43.2168 24.9186 44.9683 27.0815 44.9683C29.2444 44.9683 30.9999 43.2168 30.9999 41.0536V34.0317Z" fill="#0B0D0E"/>
<path fill-rule="evenodd" clip-rule="evenodd" d="M31.9377 54.9268C40.8089 54.9268 48.0005 47.7353 48.0005 38.8641C48.0005 29.9929 40.8089 22.8014 31.9377 22.8014C23.0665 22.8014 15.875 29.9929 15.875 38.8641C15.875 47.7353 23.0665 54.9268 31.9377 54.9268ZM31.9377 52.9268C39.7044 52.9268 46.0005 46.6307 46.0005 38.8641C46.0005 31.0975 39.7044 24.8014 31.9377 24.8014C24.1711 24.8014 17.875 31.0975 17.875 38.8641C17.875 46.6307 24.1711 52.9268 31.9377 52.9268Z" fill="#0B0D0E"/>
</svg>
