<svg width="64" height="64" viewBox="0 0 64 64" fill="none" xmlns="http://www.w3.org/2000/svg">
<path d="M45.642 11.7849C45.642 11.0334 45.7662 10.3109 45.9952 9.6369L46.401 9.87121C46.8793 10.1473 47.4909 9.98347 47.767 9.50518C48.0432 9.02689 47.8793 8.4153 47.401 8.13916L46.9176 7.86004C47.9451 6.44924 49.5124 5.45669 51.3158 5.18581V5.52625C51.3158 6.07854 51.7635 6.52625 52.3158 6.52625C52.8681 6.52625 53.3158 6.07854 53.3158 5.52625V5.18594C55.1133 5.45615 56.676 6.44329 57.7036 7.84689L57.1974 8.13916C56.7191 8.4153 56.5552 9.02689 56.8314 9.50518C57.1075 9.98347 57.7191 10.1473 58.1974 9.87121L58.6303 9.62129C58.8627 10.2998 58.9888 11.0276 58.9888 11.7849C58.9888 12.3371 59.4365 12.7849 59.9888 12.7849C60.5411 12.7849 60.9888 12.3371 60.9888 11.7849C60.9888 6.99467 57.1056 3.11145 52.3154 3.11145C47.5252 3.11145 43.642 6.99467 43.642 11.7849C43.642 12.3371 44.0897 12.7849 44.642 12.7849C45.1943 12.7849 45.642 12.3371 45.642 11.7849Z" fill="#0B0D0E"/>
<path d="M51.5394 8.37084C51.2404 7.9065 50.6216 7.77246 50.1572 8.07146C49.6929 8.37046 49.5588 8.98928 49.8578 9.45362L51.7074 12.326C52.0064 12.7903 52.6252 12.9244 53.0896 12.6254C53.5539 12.3264 53.6879 11.7075 53.3889 11.2432L51.5394 8.37084Z" fill="#0B0D0E"/>
<path fill-rule="evenodd" clip-rule="evenodd" d="M57.7081 41.9108C57.9164 42.3274 58.0248 42.7867 58.0248 43.2524V46.0164C58.0248 47.6732 56.6817 49.0164 55.0248 49.0164H51.0249C51.0249 51.7778 48.7863 54.0164 46.0249 54.0164C43.2635 54.0164 41.0249 51.7778 41.0249 49.0164H23.0249C23.0249 51.7778 20.7863 54.0164 18.0249 54.0164C15.2635 54.0164 13.0249 51.7778 13.0249 49.0164H9.02484C7.36799 49.0164 6.02484 47.6732 6.02484 46.0164V43.1312C6.02484 42.9022 6.05106 42.674 6.10298 42.451L8.05089 42.9045C8.03358 42.9788 8.02484 43.0549 8.02484 43.1312V46.0164C8.02484 46.5686 8.47256 47.0164 9.02484 47.0164H13.4409C14.2125 45.2505 15.9746 44.0164 18.0249 44.0164C20.0752 44.0164 21.8373 45.2505 22.6089 47.0164H41.4409C42.2125 45.2505 43.9746 44.0164 46.0249 44.0164C48.0752 44.0164 49.8373 45.2505 50.6089 47.0164H55.0248C55.5771 47.0164 56.0248 46.5686 56.0248 46.0164V43.2524C56.0248 43.0972 55.9887 42.9441 55.9193 42.8052L53.2216 37.4098C53.0963 37.1591 52.8714 36.9725 52.6019 36.8955L46.288 35.0915C46.1946 35.0649 46.1061 35.0248 46.0249 34.973V35.0164H20.2175C19.963 35.0164 19.7109 34.9678 19.4747 34.8733L15.187 33.1583L10.7762 33.9052C10.3788 33.9725 10.0606 34.2719 9.96925 34.6645L8.05089 42.9045L6.10298 42.451L8.02134 34.211C8.29553 33.0332 9.25001 32.1352 10.4423 31.9333L14.8823 31.1814L18.8516 25.6768C19.6035 24.6341 20.8106 24.0164 22.0961 24.0164H37.0709C37.8948 24.0164 38.6825 24.3552 39.249 24.9534L47.1006 33.2437L53.1514 34.9725C53.9599 35.2035 54.6344 35.7633 55.0105 36.5154L57.7081 41.9108ZM37.7969 26.3287L44.1307 33.0164H32.7457L30.4123 26.0164H37.0709C37.3455 26.0164 37.6081 26.1293 37.7969 26.3287ZM28.3041 26.0164L30.6375 33.0164H20.2175L16.9635 31.7148L20.4738 26.8466C20.8498 26.3253 21.4533 26.0164 22.0961 26.0164H28.3041ZM48.261 47.0164C47.7117 46.4026 46.9134 46.0164 46.0249 46.0164C45.1364 46.0164 44.3381 46.4026 43.7888 47.0164C43.3138 47.5471 43.0249 48.248 43.0249 49.0164C43.0249 50.6732 44.368 52.0164 46.0249 52.0164C47.6818 52.0164 49.0249 50.6732 49.0249 49.0164C49.0249 48.248 48.736 47.5471 48.261 47.0164ZM18.0249 46.0164C17.1364 46.0164 16.3381 46.4026 15.7888 47.0164C15.3138 47.5471 15.0249 48.248 15.0249 49.0164C15.0249 50.6732 16.368 52.0164 18.0249 52.0164C19.6818 52.0164 21.0249 50.6732 21.0249 49.0164C21.0249 48.248 20.736 47.5471 20.261 47.0164C19.7117 46.4026 18.9134 46.0164 18.0249 46.0164Z" fill="#0B0D0E"/>
</svg>
