<svg width="64" height="64" viewBox="0 0 64 64" fill="none" xmlns="http://www.w3.org/2000/svg">
<path d="M45.642 11.7849C45.642 11.0334 45.7662 10.3109 45.9952 9.6369L46.401 9.87121C46.8793 10.1473 47.4909 9.98347 47.767 9.50518C48.0432 9.02689 47.8793 8.4153 47.401 8.13916L46.9176 7.86004C47.9451 6.44924 49.5124 5.45669 51.3158 5.18581V5.52625C51.3158 6.07854 51.7635 6.52625 52.3158 6.52625C52.8681 6.52625 53.3158 6.07854 53.3158 5.52625V5.18594C55.1133 5.45615 56.676 6.44329 57.7036 7.84689L57.1974 8.13916C56.7191 8.4153 56.5552 9.02689 56.8314 9.50518C57.1075 9.98347 57.7191 10.1473 58.1974 9.87121L58.6303 9.62129C58.8627 10.2998 58.9888 11.0276 58.9888 11.7849C58.9888 12.3371 59.4365 12.7849 59.9888 12.7849C60.5411 12.7849 60.9888 12.3371 60.9888 11.7849C60.9888 6.99467 57.1056 3.11145 52.3154 3.11145C47.5252 3.11145 43.642 6.99467 43.642 11.7849C43.642 12.3371 44.0897 12.7849 44.642 12.7849C45.1943 12.7849 45.642 12.3371 45.642 11.7849Z" fill="#0B0D0E"/>
<path d="M51.5394 8.37084C51.2404 7.9065 50.6216 7.77246 50.1572 8.07146C49.6929 8.37046 49.5588 8.98928 49.8578 9.45362L51.7074 12.326C52.0064 12.7903 52.6252 12.9244 53.0896 12.6254C53.5539 12.3264 53.6879 11.7075 53.3889 11.2432L51.5394 8.37084Z" fill="#0B0D0E"/>
<path fill-rule="evenodd" clip-rule="evenodd" d="M43.3274 26.7336C43.6507 27.1286 43.7911 27.5837 43.783 28.0262C44.3696 28.122 44.89 28.476 45.1926 29.0006L49.3162 36.148C49.4126 36.3151 49.5326 36.4674 49.6726 36.6001L54.3759 41.0584C54.7743 41.4361 55 41.9609 55 42.5099V47C55 48.1046 54.1046 49 53 49H52C52 51.7614 49.7614 54 47 54C44.2386 54 42 51.7614 42 49H24C24 51.7614 21.7614 54 19 54C16.2386 54 14 51.7614 14 49H13C11.8954 49 11 48.1046 11 47V20C11 18.8954 11.8954 18 13 18H37C38.1046 18 39 18.8954 39 20V22.599C39.558 22.5938 40.1262 22.821 40.5479 23.3364L43.3274 26.7336ZM13 20H37V47H23.584C22.8124 45.2341 21.0503 44 19 44C16.9497 44 15.1876 45.2341 14.416 47H13V20ZM39 28H41.7795L39 24.6028V28ZM44.7639 47C44.2889 47.5308 44 48.2316 44 49C44 50.6569 45.3431 52 47 52C48.6569 52 50 50.6569 50 49C50 48.2316 49.7111 47.5308 49.2361 47C48.6868 46.3862 47.8885 46 47 46C46.1115 46 45.3132 46.3862 44.7639 47ZM51.584 47C50.8124 45.2341 49.0503 44 47 44C44.9497 44 43.1876 45.2341 42.416 47H39V30H41V39H49.2972L51.8162 41.3878C51.3212 41.7519 51 42.3384 51 43C51 44.1046 51.8954 45 53 45V47H51.584ZM43 37V30H43.4603L47.4987 37H43ZM16.7639 47C16.2889 47.5308 16 48.2316 16 49C16 50.6569 17.3431 52 19 52C20.6569 52 22 50.6569 22 49C22 48.2316 21.7111 47.5308 21.2361 47C20.6868 46.3863 19.8885 46 19 46C18.1115 46 17.3132 46.3863 16.7639 47Z" fill="#0B0D0E"/>
</svg>
