<svg width="64" height="64" viewBox="0 0 64 64" fill="none" xmlns="http://www.w3.org/2000/svg">
<path fill-rule="evenodd" clip-rule="evenodd" d="M22.9 48H41.1C41.0344 48.3231 41 48.6575 41 49C41 51.7614 43.2386 54 46 54C48.7614 54 51 51.7614 51 49C51 48.6575 50.9656 48.3231 50.9 48H51C53.2091 48 55 46.2091 55 44V35.7799C55 35.4398 54.9566 35.1012 54.871 34.7721L52.1302 24.2442C51.7862 22.9225 50.5928 22 49.227 22H40V13C40 11.8954 39.1046 11 38 11H11C9.89543 11 9 11.8954 9 13V41C9 41.511 9.19162 41.9772 9.50693 42.3307C9.18677 42.8079 9 43.3822 9 44V45C9 46.6569 10.3431 48 12 48H13.1C13.0344 48.3231 13 48.6575 13 49C13 51.7614 15.2386 54 18 54C20.7614 54 23 51.7614 23 49C23 48.6575 22.9656 48.3231 22.9 48ZM38 13H11V41H38V13ZM12 43H38V46H22.0004C21.0882 44.7856 19.6358 44 18 44C16.3642 44 14.9118 44.7856 13.9996 46H12C11.4477 46 11 45.5523 11 45V44C11 43.4477 11.4477 43 12 43ZM48.8293 48C48.4178 46.8358 47.3082 46.0015 46.0034 46H45.9966C44.6918 46.0015 43.5822 46.8358 43.1707 48C43.0602 48.3128 43 48.6494 43 49C43 50.6569 44.3431 52 46 52C47.6569 52 49 50.6569 49 49C49 48.6494 48.9398 48.3128 48.8293 48ZM41.9996 46C42.9118 44.7856 44.3642 44 46 44C47.6358 44 49.0882 44.7856 50.0004 46H51C52.1046 46 53 45.1046 53 44V43C51.8954 43 51 42.1046 51 41C51 39.8954 51.8954 39 53 39V37H44V26H50.5207L50.1947 24.7481C50.0801 24.3075 49.6823 24 49.227 24H40V46H41.9996ZM46 35H52.8636L51.0413 28H46V35ZM20.8293 48C20.4175 46.8348 19.3062 46 18 46C16.6938 46 15.5825 46.8348 15.1707 48C15.0602 48.3128 15 48.6494 15 49C15 50.6569 16.3431 52 18 52C19.6569 52 21 50.6569 21 49C21 48.6494 20.9398 48.3128 20.8293 48Z" fill="#0B0D0E"/>
<path d="M45.642 11.7849C45.642 11.0334 45.7662 10.3109 45.9952 9.6369L46.401 9.87121C46.8793 10.1473 47.4909 9.98347 47.767 9.50518C48.0432 9.02689 47.8793 8.4153 47.401 8.13916L46.9176 7.86004C47.9451 6.44924 49.5124 5.45669 51.3158 5.18581V5.52625C51.3158 6.07854 51.7635 6.52625 52.3158 6.52625C52.8681 6.52625 53.3158 6.07854 53.3158 5.52625V5.18594C55.1133 5.45615 56.676 6.44329 57.7036 7.84689L57.1974 8.13916C56.7191 8.4153 56.5552 9.02689 56.8314 9.50518C57.1075 9.98347 57.7191 10.1473 58.1974 9.87121L58.6303 9.62129C58.8627 10.2998 58.9888 11.0276 58.9888 11.7849C58.9888 12.3371 59.4365 12.7849 59.9888 12.7849C60.5411 12.7849 60.9888 12.3371 60.9888 11.7849C60.9888 6.99467 57.1056 3.11145 52.3154 3.11145C47.5252 3.11145 43.642 6.99467 43.642 11.7849C43.642 12.3371 44.0897 12.7849 44.642 12.7849C45.1943 12.7849 45.642 12.3371 45.642 11.7849Z" fill="#0B0D0E"/>
<path d="M51.5394 8.37084C51.2404 7.9065 50.6216 7.77246 50.1572 8.07146C49.6929 8.37046 49.5588 8.98928 49.8578 9.45362L51.7074 12.326C52.0064 12.7903 52.6252 12.9244 53.0896 12.6254C53.5539 12.3264 53.6879 11.7075 53.3889 11.2432L51.5394 8.37084Z" fill="#0B0D0E"/>
</svg>
