<svg width="64" height="64" viewBox="0 0 64 64" fill="none" xmlns="http://www.w3.org/2000/svg">
<path fill-rule="evenodd" clip-rule="evenodd" d="M48.9627 17.1103C49.4496 17.3711 50.0556 17.1878 50.3164 16.7009C50.5771 16.2141 50.3938 15.608 49.907 15.3473L32.4709 6.00909C32.1747 5.85046 31.8186 5.85118 31.5231 6.01102L30.2844 6.68091L18.7236 12.8902L14.0942 15.3453C13.6063 15.6041 13.4205 16.2094 13.6792 16.6973C13.938 17.1852 14.5433 17.371 15.0312 17.1122L18.0139 15.5305V55.1827C18.0139 55.7349 18.4616 56.1827 19.0139 56.1827H44.9835C45.5358 56.1827 45.9835 55.7349 45.9835 55.1827V15.5148L48.9627 17.1103ZM20.0139 14.4698L23.7493 12.4888L23.7564 12.485L31.2335 8.44137L31.9987 8.03036L43.9835 14.4674V54.1827H20.0139V14.4698Z" fill="#0B0D0E"/>
<path fill-rule="evenodd" clip-rule="evenodd" d="M49.1799 4.42654C49.4966 3.97409 50.1201 3.86405 50.5726 4.18077L60.5726 11.1808C61.025 11.4975 61.1351 12.121 60.8183 12.5735C60.5016 13.0259 59.8781 13.1359 59.4256 12.8192L49.4256 5.81923C48.9732 5.50252 48.8632 4.87899 49.1799 4.42654Z" fill="#0B0D0E"/>
<path fill-rule="evenodd" clip-rule="evenodd" d="M49.1799 12.5735C48.8632 12.121 48.9732 11.4975 49.4256 11.1808L59.4256 4.18077C59.8781 3.86406 60.5016 3.97409 60.8183 4.42654C61.1351 4.87899 61.025 5.50252 60.5726 5.81923L50.5726 12.8192C50.1201 13.1359 49.4966 13.0259 49.1799 12.5735Z" fill="#0B0D0E"/>
<path fill-rule="evenodd" clip-rule="evenodd" d="M54.9991 2C55.5514 2 55.9991 2.44772 55.9991 3V14.0897C55.9991 14.642 55.5514 15.0897 54.9991 15.0897C54.4468 15.0897 53.9991 14.642 53.9991 14.0897V3C53.9991 2.44772 54.4468 2 54.9991 2Z" fill="#0B0D0E"/>
<path fill-rule="evenodd" clip-rule="evenodd" d="M29.9992 40.2981L29.1434 40.8951C27.8432 41.802 26.9992 43.3026 26.9992 45C26.9992 47.7614 29.2378 50 31.9992 50C34.7606 50 36.9992 47.7614 36.9992 45C36.9992 43.3026 36.1553 41.802 34.855 40.8951L33.9992 40.2981V24C33.9992 22.8954 33.1038 22 31.9992 22C30.8947 22 29.9992 22.8954 29.9992 24V40.2981ZM27.9992 24C27.9992 21.7909 29.7901 20 31.9992 20C34.2084 20 35.9992 21.7909 35.9992 24V39.2547C37.8127 40.5196 38.9992 42.6213 38.9992 45C38.9992 48.866 35.8652 52 31.9992 52C28.1332 52 24.9992 48.866 24.9992 45C24.9992 42.6213 26.1857 40.5196 27.9992 39.2547V24Z" fill="#0B0D0E"/>
<path fill-rule="evenodd" clip-rule="evenodd" d="M31.9992 47C33.1038 47 33.9992 46.1046 33.9992 45C33.9992 43.8954 33.1038 43 31.9992 43C30.8947 43 29.9992 43.8954 29.9992 45C29.9992 46.1046 30.8947 47 31.9992 47ZM31.9992 49C34.2084 49 35.9992 47.2091 35.9992 45C35.9992 42.7909 34.2084 41 31.9992 41C29.7901 41 27.9992 42.7909 27.9992 45C27.9992 47.2091 29.7901 49 31.9992 49Z" fill="#0B0D0E"/>
<path fill-rule="evenodd" clip-rule="evenodd" d="M31.9992 32C32.5515 32 32.9992 32.4477 32.9992 33V41.5C32.9992 42.0523 32.5515 42.5 31.9992 42.5C31.4469 42.5 30.9992 42.0523 30.9992 41.5V33C30.9992 32.4477 31.4469 32 31.9992 32Z" fill="#0B0D0E"/>
</svg>
