<svg width="64" height="64" viewBox="0 0 64 64" fill="none" xmlns="http://www.w3.org/2000/svg">
<path d="M55 9C55 8.44772 54.5523 8 54 8C53.4477 8 53 8.44772 53 9V12.5793L49.5735 10.1808C49.121 9.86405 48.4975 9.97409 48.1808 10.4265C47.8641 10.879 47.9741 11.5025 48.4265 11.8192L52.2562 14.5L48.4265 17.1808C47.9741 17.4975 47.8641 18.121 48.1808 18.5735C48.4975 19.0259 49.121 19.1359 49.5735 18.8192L53 16.4207V20.0897C53 20.642 53.4477 21.0897 54 21.0897C54.5523 21.0897 55 20.642 55 20.0897V16.4207L58.4265 18.8192C58.879 19.1359 59.5025 19.0259 59.8192 18.5735C60.1359 18.121 60.0259 17.4975 59.5735 17.1808L55.7438 14.5L59.5735 11.8192C60.0259 11.5025 60.1359 10.879 59.8192 10.4265C59.5025 9.97409 58.879 9.86405 58.4265 10.1808L55 12.5793V9Z" fill="#0B0D0E"/>
<path fill-rule="evenodd" clip-rule="evenodd" d="M32 35C32 34.4477 31.5523 34 31 34C30.4477 34 30 34.4477 30 35V41.126C28.2748 41.5701 27 43.1362 27 45C27 47.2091 28.7909 49 31 49C33.2091 49 35 47.2091 35 45C35 43.1362 33.7252 41.5701 32 41.126V35ZM33 45C33 46.1046 32.1046 47 31 47C29.8954 47 29 46.1046 29 45C29 43.8954 29.8954 43 31 43C32.1046 43 33 43.8954 33 45Z" fill="#0B0D0E"/>
<path fill-rule="evenodd" clip-rule="evenodd" d="M27 27C27 24.7909 28.7909 23 31 23C33.2091 23 35 24.7909 35 27V39.2547C36.8135 40.5196 38 42.6213 38 45C38 48.866 34.866 52 31 52C27.134 52 24 48.866 24 45C24 42.6213 25.1865 40.5196 27 39.2547V27ZM29 40.2981L28.1442 40.8951C26.844 41.802 26 43.3026 26 45C26 47.7614 28.2386 50 31 50C33.7614 50 36 47.7614 36 45C36 43.3026 35.156 41.802 33.8558 40.8951L33 40.2981V27C33 25.8954 32.1046 25 31 25C29.8954 25 29 25.8954 29 27V40.2981Z" fill="#0B0D0E"/>
<path fill-rule="evenodd" clip-rule="evenodd" d="M29.9264 16.4982C30.5815 16.0813 31.4187 16.0813 32.0739 16.4982L53.537 30.1566C54.0029 30.4531 54.1403 31.0712 53.8438 31.5371C53.5473 32.0031 52.9292 32.1404 52.4632 31.8439L49.0002 29.6402V54.0969C49.0002 55.2015 48.1048 56.0969 47.0002 56.0969H15.0002C13.8957 56.0969 13.0002 55.2015 13.0002 54.0969V29.64L9.537 31.8439C9.07106 32.1404 8.45297 32.0031 8.15646 31.5371C7.85996 31.0712 7.99731 30.4531 8.46325 30.1566L15.4065 25.7381V18.4001C15.4065 17.8479 15.8542 17.4001 16.4065 17.4001H20.4065C20.9588 17.4001 21.4065 17.8479 21.4065 18.4001V21.92L29.9264 16.4982ZM15.0002 28.3673V54.0969H47.0002V28.3674L31.0001 18.1855L15.0002 28.3673ZM19.4065 23.1927L17.4065 24.4654V19.4001H19.4065V23.1927Z" fill="#0B0D0E"/>
</svg>
