<svg width="64" height="64" viewBox="0 0 64 64" fill="none" xmlns="http://www.w3.org/2000/svg">
<path d="M51.0072 18.0082C50.9785 18.0127 50.9499 18.0128 50.9213 18.0129C50.4722 18.0147 50.0963 17.675 50.0595 17.2219L49.9276 15.5213C49.8893 15.0373 50.2526 14.6046 50.7378 14.5565C51.2253 14.5062 51.6493 14.861 51.6855 15.3428L51.8175 17.0434C51.8558 17.5273 51.4924 17.9601 51.0072 18.0082Z" fill="#0B0D0E"/>
<path d="M48.4533 18.8895C48.1804 18.8906 47.9123 18.764 47.7456 18.5248L46.7774 17.1356C46.5017 16.7405 46.6056 16.19 47.0076 15.9067C47.4053 15.6235 47.956 15.7094 48.2317 16.1066L49.1977 17.4936C49.4734 17.8887 49.3695 18.4392 48.9674 18.7225C48.811 18.8353 48.6316 18.8888 48.4533 18.8895Z" fill="#0B0D0E"/>
<path d="M54.7133 25.7509C54.4354 25.3537 53.8869 25.2678 53.4892 25.551C53.0872 25.8342 52.9833 26.3848 53.259 26.7798L54.2272 28.1668C54.3939 28.406 54.662 28.5326 54.935 28.5316C55.1133 28.5309 55.2927 28.4774 55.4491 28.3645C55.8512 28.0813 55.955 27.5307 55.6793 27.1357L54.7133 25.7509Z" fill="#0B0D0E"/>
<path d="M56.0958 23.4794L57.6373 24.1798C58.0778 24.3784 58.2606 24.9014 58.0511 25.3467C57.8969 25.6708 57.5715 25.8635 57.2391 25.8648C57.1159 25.8653 56.9931 25.8394 56.8776 25.787L55.336 25.0866C54.8978 24.8859 54.7127 24.365 54.9222 23.9219C55.1318 23.4766 55.6685 23.2808 56.0958 23.4794Z" fill="#0B0D0E"/>
<path d="M57.8818 20.6751L56.1768 20.849C55.6915 20.8971 55.3282 21.3299 55.3665 21.8138C55.4033 22.2692 55.777 22.6066 56.2261 22.6049C56.2547 22.6048 56.2811 22.6047 56.312 22.6002L58.017 22.4263C58.5023 22.3782 58.8656 21.9454 58.8273 21.4615C58.7911 20.9797 58.4045 20.6225 57.8818 20.6751Z" fill="#0B0D0E"/>
<path d="M55.4073 20.1568C55.1344 20.1579 54.8663 20.0313 54.6996 19.7921C54.4261 19.397 54.53 18.8465 54.9277 18.5611L56.3396 17.5609C56.7372 17.2777 57.2857 17.3636 57.5636 17.7608C57.8393 18.1558 57.7354 18.7064 57.3333 18.9896L55.9215 19.9898C55.765 20.1026 55.5856 20.1561 55.4073 20.1568Z" fill="#0B0D0E"/>
<path d="M54.2776 17.9579L55.0166 16.397C55.2261 15.9539 55.041 15.4331 54.6028 15.2323C54.1667 15.0316 53.6388 15.2295 53.4292 15.6748L52.6902 17.2357C52.4807 17.6788 52.6658 18.1997 53.104 18.4004C53.2218 18.4528 53.3423 18.4787 53.4656 18.4782C53.8002 18.4747 54.1234 18.282 54.2776 17.9579Z" fill="#0B0D0E"/>
<path fill-rule="evenodd" clip-rule="evenodd" d="M44.703 50.7608C46.7778 50.7608 48.4597 49.0789 48.4597 47.0041C48.4597 44.9293 46.7778 43.2474 44.703 43.2474C42.6282 43.2474 40.9463 44.9293 40.9463 47.0041C40.9463 49.0789 42.6282 50.7608 44.703 50.7608ZM44.703 48.7608C45.6732 48.7608 46.4597 47.9743 46.4597 47.0041C46.4597 46.0339 45.6732 45.2474 44.703 45.2474C43.7328 45.2474 42.9463 46.0339 42.9463 47.0041C42.9463 47.9743 43.7328 48.7608 44.703 48.7608Z" fill="#0B0D0E"/>
<path fill-rule="evenodd" clip-rule="evenodd" d="M24.5571 47.0041C24.5571 49.0788 22.8752 50.7606 20.8005 50.7606C18.7258 50.7606 17.0439 49.0788 17.0439 47.0041C17.0439 44.9294 18.7258 43.2475 20.8005 43.2475C22.8752 43.2475 24.5571 44.9294 24.5571 47.0041ZM22.5571 47.0041C22.5571 47.9742 21.7706 48.7606 20.8005 48.7606C19.8304 48.7606 19.0439 47.9742 19.0439 47.0041C19.0439 46.034 19.8304 45.2475 20.8005 45.2475C21.7706 45.2475 22.5571 46.034 22.5571 47.0041Z" fill="#0B0D0E"/>
<path fill-rule="evenodd" clip-rule="evenodd" d="M50.8517 23.5377C50.8517 22.9714 50.3925 22.5122 49.8262 22.513C47.8153 22.5159 45.8158 22.5268 43.8157 22.5377C41.4746 22.5504 39.1327 22.5632 36.771 22.5632C36.3515 22.5632 35.9624 22.7823 35.7449 23.1411L34.205 25.6814H8.67118C7.90494 25.6814 7.33498 26.3898 7.49899 27.1383L8.77907 32.9802C8.83896 33.2535 8.99247 33.4973 9.21307 33.6695L16.4264 39.2977C13.7484 40.8218 11.9424 43.7016 11.9424 47.0033C11.9424 51.8964 15.909 55.8631 20.8022 55.8631C25.6953 55.8631 29.662 51.8964 29.662 47.0033C29.662 46.6817 29.6448 46.3642 29.6114 46.0514H35.8933C35.8599 46.3642 35.8428 46.6817 35.8428 47.0033C35.8428 51.8964 39.8094 55.8631 44.7026 55.8631C49.5957 55.8631 53.5624 51.8964 53.5624 47.0033C53.5624 45.2089 53.0289 43.5391 52.112 42.1438H54.2173C54.8801 42.1438 55.4173 41.6066 55.4173 40.9438V37.477C55.4173 37.2861 55.3718 37.098 55.2845 36.9283L50.8517 28.3076C50.646 27.9077 50.2341 27.6563 49.7845 27.6563H42.6917L43.5376 24.5632H49.8262C50.3926 24.5632 50.8517 24.1041 50.8517 23.5377ZM20.8022 38.1435C20.0289 38.1435 19.2788 38.2426 18.5638 38.4287L18.524 38.3976L20.6703 30.6893C20.8184 30.1572 20.5072 29.6058 19.9752 29.4577C19.4431 29.3095 18.8917 29.6207 18.7436 30.1528L16.8184 37.0669L10.6709 32.2702L9.66545 27.6814H34.6555C35.0751 27.6814 35.4642 27.4623 35.6817 27.1035L37.2216 24.5632H41.4642L38.5139 35.3518C38.4857 35.4549 38.4714 35.5614 38.4714 35.6683V39.5829L25.6483 39.5852C25.4251 39.439 25.1948 39.3027 24.9582 39.1768L27.2109 30.77C27.3538 30.2365 27.0373 29.6882 26.5038 29.5452C25.9703 29.4023 25.422 29.7189 25.2791 30.2523L23.0849 38.4404C22.3566 38.2467 21.5915 38.1435 20.8022 38.1435ZM29.1583 44.0514C28.8413 43.1541 28.3839 42.3231 27.8124 41.5848L37.6937 41.5831C37.1216 42.3218 36.6637 43.1534 36.3464 44.0514H29.1583ZM50.3104 40.1438H53.4173V37.6707L52.5186 35.9228H46.4695C45.6411 35.9228 44.9695 35.2512 44.9695 34.4228V29.6563H42.4554L40.4888 36.8131L40.7464 39.0737C41.9371 38.4784 43.2807 38.1435 44.7026 38.1435C46.8304 38.1435 48.783 38.8936 50.3104 40.1438ZM51.4901 33.9228H46.9695V29.6563H49.2963L51.4901 33.9228ZM51.5624 47.0033C51.5624 50.7919 48.4911 53.8631 44.7026 53.8631C40.914 53.8631 37.8428 50.7919 37.8428 47.0033C37.8428 43.2147 40.914 40.1435 44.7026 40.1435C48.4911 40.1435 51.5624 43.2147 51.5624 47.0033ZM20.8022 53.8631C24.5907 53.8631 27.662 50.7919 27.662 47.0033C27.662 43.2147 24.5907 40.1435 20.8022 40.1435C17.0136 40.1435 13.9424 43.2147 13.9424 47.0033C13.9424 50.7919 17.0136 53.8631 20.8022 53.8631Z" fill="#0B0D0E"/>
</svg>
