<svg width="64" height="64" viewBox="0 0 64 64" fill="none" xmlns="http://www.w3.org/2000/svg">
<path fill-rule="evenodd" clip-rule="evenodd" d="M54.5822 4.09706L51.1451 10.0342C50.3348 11.4338 51.3444 13.1863 52.9625 13.1863H53.4953L53.0393 15.3671C52.5335 17.7864 55.7863 19.0726 57.0718 16.9615L60.6948 11.0116C61.547 9.61218 60.5397 7.81943 58.9012 7.81943H58.2353L58.6488 5.60275C59.1022 3.17242 55.8208 1.95743 54.5822 4.09706ZM56.313 5.09909C56.4256 4.90458 56.724 5.01503 56.6827 5.23597L56.0484 8.63604C56.0014 8.88808 56.0529 9.13225 56.1731 9.33268C56.302 9.5476 56.5099 9.71224 56.7601 9.78238C56.8367 9.80386 56.9173 9.81648 57.0008 9.81897C57.011 9.81927 57.0212 9.81943 57.0315 9.81943H58.9012C58.9792 9.81943 59.0272 9.9048 58.9866 9.97144L55.3636 15.9213C55.2467 16.1132 54.951 15.9963 54.997 15.7764L55.7048 12.3909C55.7572 12.1404 55.7114 11.896 55.5963 11.6936C55.4801 11.489 55.2933 11.3272 55.0659 11.2452C55.0011 11.2219 54.933 11.205 54.8623 11.1954C54.8178 11.1894 54.7723 11.1863 54.726 11.1863H52.9625C52.8855 11.1863 52.8374 11.1029 52.876 11.0362L56.313 5.09909Z" fill="#0B0D0E"/>
<path fill-rule="evenodd" clip-rule="evenodd" d="M32 7.99998C32.5523 7.99998 33 8.44769 33 8.99998V13H35C36.1046 13 37 13.8954 37 15V19H44C44.5523 19 45 19.4477 45 20C45 20.5523 44.5523 21 44 21V31H43.947L47.9657 33.7629C48.6817 34.2551 48.998 35.1534 48.7483 35.9857L46 45.1467V50.109C48.2015 50.3537 49.9353 50.9746 51.1973 51.6056C52.0068 52.0103 52.6201 52.4181 53.0376 52.7312C53.2464 52.8878 53.4065 53.021 53.518 53.1185C53.5737 53.1673 53.6174 53.2072 53.6489 53.2368C53.6647 53.2515 53.6774 53.2637 53.6871 53.2731L53.6994 53.2852L53.7039 53.2896L53.7057 53.2914L53.7065 53.2921C53.7065 53.2921 53.602 53.398 53.4491 53.551L53.7072 53.2929C54.0977 53.6834 54.0977 54.3166 53.7072 54.7071C53.3177 55.0965 52.687 55.0976 52.2962 54.7103L52.2942 54.7083L52.293 54.7071L52.281 54.6958C52.2657 54.6814 52.239 54.6569 52.201 54.6236C52.125 54.5571 52.0038 54.4559 51.8376 54.3312C51.5051 54.0818 50.9934 53.7397 50.3029 53.3944C48.9252 52.7056 46.8273 52 44.0001 52C41.2094 52 39.6128 52.6839 38.0442 53.4079L37.8082 53.5172C36.2565 54.2365 34.6095 55 32.0001 55C29.3135 55 27.7654 54.1913 26.3365 53.4448L26.225 53.3866C24.844 52.666 23.5138 52 21.0001 52C18.4246 52 16.0589 52.7044 14.32 53.424C13.4543 53.7822 12.7542 54.1399 12.2737 54.406C12.0337 54.539 11.8491 54.6486 11.7269 54.7236C11.6658 54.761 11.6204 54.7898 11.5914 54.8083L11.5604 54.8284L11.5544 54.8323C11.0949 55.1383 10.4743 55.0141 10.1681 54.5547C9.8617 54.0951 9.98588 53.4743 10.4454 53.1679L10.4465 53.1672L10.4481 53.1662C10.4695 53.1521 10.491 53.1381 10.5126 53.1242C10.5522 53.0989 10.6088 53.0631 10.6815 53.0186C10.8269 52.9294 11.0369 52.8048 11.3047 52.6564C11.8398 52.3601 12.6084 51.9678 13.5553 51.576C14.768 51.0741 16.2902 50.566 18 50.2672V45.1467L15.2517 35.9857C15.002 35.1534 15.3183 34.2551 16.0343 33.7629L20.053 31H20V21C19.4477 21 19 20.5523 19 20C19 19.4477 19.4477 19 20 19H27V15C27 13.8954 27.8954 13 29 13H31V8.99998C31 8.44769 31.4477 7.99998 32 7.99998ZM29 15H35V19H29V15ZM22 21V29.6614L30.8669 23.5654C31.5494 23.0962 32.4506 23.0962 33.1331 23.5654L42 29.6614V21H22ZM44 50V45.1467C44 44.9521 44.0284 44.7585 44.0843 44.5721L46.8327 35.411L33 25.901V52.9535C34.5971 52.7993 35.7183 52.2804 37.0028 51.686L37.206 51.592C38.8874 50.816 40.7908 50 44 50ZM31 52.9526V25.901L17.1673 35.411L19.9157 44.5721C19.9716 44.7585 20 44.9521 20 45.1467V50.0305C20.329 50.0106 20.6626 50 21.0001 50C23.9864 50 25.6562 50.834 27.1502 51.6134L27.2426 51.6616C28.3927 52.2622 29.4124 52.7946 31 52.9526Z" fill="#0B0D0E"/>
</svg>
