<svg width="64" height="64" viewBox="0 0 64 64" fill="none" xmlns="http://www.w3.org/2000/svg">
<path fill-rule="evenodd" clip-rule="evenodd" d="M50.94 10.0474L54.3771 4.1103C55.6157 1.97067 58.8971 3.18566 58.4437 5.616L58.0302 7.83267H58.6961C60.3346 7.83267 61.3419 9.62543 60.4897 11.0249L56.8667 16.9747C55.5812 19.0858 52.3284 17.7996 52.8342 15.3803L53.2902 13.1995H52.7574C51.1393 13.1995 50.1297 11.4471 50.94 10.0474ZM56.4776 5.24922C56.5189 5.02827 56.2206 4.91782 56.1079 5.11233L52.6709 11.0494C52.6323 11.1161 52.6804 11.1995 52.7574 11.1995H54.5209C54.5672 11.1995 54.6127 11.2026 54.6572 11.2087C54.7279 11.2182 54.796 11.2351 54.8608 11.2585C55.0882 11.3405 55.275 11.5022 55.3913 11.7068C55.5063 11.9093 55.5521 12.1537 55.4997 12.4042L54.7919 15.7896C54.7459 16.0096 55.0416 16.1265 55.1585 15.9346L58.7815 9.98468C58.8221 9.91804 58.7741 9.83267 58.6961 9.83267H56.8264C56.8202 9.83267 56.814 9.83262 56.8078 9.83251C56.8038 9.83243 56.7997 9.83233 56.7957 9.83221C56.7122 9.82972 56.6316 9.8171 56.555 9.79563C56.3048 9.72549 56.0969 9.56085 55.968 9.34593C55.8478 9.14549 55.7963 8.90133 55.8433 8.64928L56.4776 5.24922Z" fill="#0B0D0E"/>
<path fill-rule="evenodd" clip-rule="evenodd" d="M44.703 50.7609C46.7778 50.7609 48.4597 49.0789 48.4597 47.0041C48.4597 44.9294 46.7778 43.2474 44.703 43.2474C42.6282 43.2474 40.9463 44.9294 40.9463 47.0041C40.9463 49.0789 42.6282 50.7609 44.703 50.7609ZM44.703 48.7609C45.6732 48.7609 46.4597 47.9744 46.4597 47.0041C46.4597 46.0339 45.6732 45.2474 44.703 45.2474C43.7328 45.2474 42.9463 46.0339 42.9463 47.0041C42.9463 47.9744 43.7328 48.7609 44.703 48.7609Z" fill="#0B0D0E"/>
<path fill-rule="evenodd" clip-rule="evenodd" d="M24.5571 47.0041C24.5571 49.0788 22.8752 50.7607 20.8005 50.7607C18.7258 50.7607 17.0439 49.0788 17.0439 47.0041C17.0439 44.9294 18.7258 43.2475 20.8005 43.2475C22.8752 43.2475 24.5571 44.9294 24.5571 47.0041ZM22.5571 47.0041C22.5571 47.9742 21.7706 48.7607 20.8005 48.7607C19.8304 48.7607 19.0439 47.9742 19.0439 47.0041C19.0439 46.034 19.8304 45.2475 20.8005 45.2475C21.7706 45.2475 22.5571 46.034 22.5571 47.0041Z" fill="#0B0D0E"/>
<path fill-rule="evenodd" clip-rule="evenodd" d="M50.8517 23.5377C50.8517 22.9714 50.3925 22.5122 49.8262 22.513C47.8153 22.516 45.8159 22.5268 43.8158 22.5377C41.4747 22.5505 39.1327 22.5632 36.771 22.5632C36.3515 22.5632 35.9624 22.7823 35.7449 23.1411L34.205 25.6815H8.67118C7.90494 25.6815 7.33498 26.3898 7.49899 27.1383L8.77907 32.9803C8.83896 33.2536 8.99247 33.4974 9.21307 33.6695L16.4264 39.2978C13.7484 40.8218 11.9424 43.7017 11.9424 47.0033C11.9424 51.8965 15.909 55.8631 20.8022 55.8631C25.6953 55.8631 29.662 51.8965 29.662 47.0033C29.662 46.6818 29.6448 46.3642 29.6114 46.0515H35.8933C35.8599 46.3642 35.8428 46.6818 35.8428 47.0033C35.8428 51.8965 39.8094 55.8631 44.7026 55.8631C49.5957 55.8631 53.5624 51.8965 53.5624 47.0033C53.5624 45.2089 53.0289 43.5391 52.112 42.1438H54.2173C54.8801 42.1438 55.4173 41.6066 55.4173 40.9439V37.477C55.4173 37.2862 55.3718 37.098 55.2845 36.9283L50.8517 28.3076C50.646 27.9077 50.2341 27.6564 49.7845 27.6564H42.6917L43.5376 24.5632H49.8262C50.3926 24.5632 50.8517 24.1041 50.8517 23.5377ZM20.8022 38.1435C20.0289 38.1435 19.2788 38.2426 18.5638 38.4287L18.524 38.3977L20.6703 30.6893C20.8184 30.1572 20.5072 29.6058 19.9752 29.4577C19.4431 29.3096 18.8917 29.6208 18.7436 30.1528L16.8184 37.0669L10.6709 32.2702L9.66545 27.6815H34.6555C35.0751 27.6815 35.4642 27.4623 35.6817 27.1035L37.2216 24.5632H41.4642L38.5139 35.3518C38.4857 35.455 38.4714 35.5614 38.4714 35.6684V39.583L25.6483 39.5852C25.4251 39.439 25.1948 39.3027 24.9582 39.1768L27.2109 30.77C27.3538 30.2366 27.0373 29.6882 26.5038 29.5453C25.9703 29.4023 25.422 29.7189 25.2791 30.2524L23.0849 38.4404C22.3566 38.2467 21.5915 38.1435 20.8022 38.1435ZM29.1583 44.0515C28.8413 43.1541 28.3839 42.3231 27.8124 41.5848L37.6937 41.5831C37.1216 42.3218 36.6637 43.1534 36.3464 44.0515H29.1583ZM50.3104 40.1438H53.4173V37.6707L52.5186 35.9228H46.4695C45.6411 35.9228 44.9695 35.2512 44.9695 34.4228V29.6564H42.4554L40.4888 36.8131L40.7464 39.0737C41.9371 38.4785 43.2807 38.1435 44.7026 38.1435C46.8304 38.1435 48.783 38.8936 50.3104 40.1438ZM51.4901 33.9228H46.9695V29.6564H49.2963L51.4901 33.9228ZM51.5624 47.0033C51.5624 50.7919 48.4911 53.8631 44.7026 53.8631C40.914 53.8631 37.8428 50.7919 37.8428 47.0033C37.8428 43.2148 40.914 40.1435 44.7026 40.1435C48.4911 40.1435 51.5624 43.2148 51.5624 47.0033ZM20.8022 53.8631C24.5907 53.8631 27.662 50.7919 27.662 47.0033C27.662 43.2148 24.5907 40.1435 20.8022 40.1435C17.0136 40.1435 13.9424 43.2148 13.9424 47.0033C13.9424 50.7919 17.0136 53.8631 20.8022 53.8631Z" fill="#0B0D0E"/>
</svg>
