<svg width="64" height="64" viewBox="0 0 64 64" fill="none" xmlns="http://www.w3.org/2000/svg">
<path fill-rule="evenodd" clip-rule="evenodd" d="M54.5822 4.09706L51.1451 10.0342C50.3348 11.4338 51.3444 13.1863 52.9625 13.1863H53.4953L53.0393 15.3671C52.5335 17.7864 55.7863 19.0726 57.0718 16.9615L60.6948 11.0116C61.547 9.61218 60.5397 7.81943 58.9012 7.81943H58.2353L58.6488 5.60275C59.1022 3.17242 55.8208 1.95743 54.5822 4.09706ZM56.313 5.09909C56.4256 4.90458 56.724 5.01503 56.6827 5.23597L56.0484 8.63604C56.0014 8.88808 56.0529 9.13225 56.1731 9.33268C56.302 9.5476 56.5099 9.71224 56.7601 9.78238C56.8367 9.80386 56.9173 9.81648 57.0008 9.81897C57.011 9.81927 57.0212 9.81943 57.0315 9.81943H58.9012C58.9792 9.81943 59.0272 9.9048 58.9866 9.97144L55.3636 15.9213C55.2467 16.1132 54.951 15.9963 54.997 15.7764L55.7048 12.3909C55.7572 12.1404 55.7114 11.896 55.5963 11.6936C55.4801 11.489 55.2933 11.3272 55.0659 11.2452C55.0011 11.2219 54.933 11.205 54.8623 11.1954C54.8178 11.1894 54.7723 11.1863 54.726 11.1863H52.9625C52.8855 11.1863 52.8374 11.1029 52.876 11.0362L56.313 5.09909Z" fill="#0B0D0E"/>
<path fill-rule="evenodd" clip-rule="evenodd" d="M13.4548 17V15C13.4548 13.8954 14.3502 13 15.4548 13H18.4548C19.5593 13 20.4548 13.8954 20.4548 15V17H22.4548C23.5593 17 24.4548 17.8954 24.4548 19V22H24.9548C25.5071 22 25.9548 22.4477 25.9548 23C25.9548 23.5523 25.5071 24 24.9548 24H24.4548V28H24.9548C25.5071 28 25.9548 28.4477 25.9548 29C25.9548 29.5523 25.5071 30 24.9548 30H24.4548V35.6373C24.4548 35.7592 24.4436 35.8806 24.4216 36H24.4548V55.1495C24.8452 55.3097 25.1815 55.592 25.4069 55.9644L26.6174 57.9644C27.4242 59.2973 26.4645 61 24.9064 61H9.00311C7.44507 61 6.48536 59.2973 7.29211 57.9644L8.50264 55.9644C8.72804 55.592 9.06433 55.3097 9.45477 55.1495V36H9.48793C9.46592 35.8806 9.45477 35.7592 9.45477 35.6373V30H8.95477C8.40249 30 7.95477 29.5523 7.95477 29C7.95477 28.4477 8.40249 28 8.95477 28H9.45477V24H8.95477C8.40249 24 7.95477 23.5523 7.95477 23C7.95477 22.4477 8.40249 22 8.95477 22H9.45477V19C9.45477 17.8954 10.3502 17 11.4548 17H13.4548ZM15.4548 15H18.4548V17H15.4548V15ZM22.4548 19V22H11.4548V19H22.4548ZM11.4548 28L11.4548 24H22.4548V28H11.4548ZM11.4548 30H22.4548V35.6373L16.9548 50.304L11.4548 35.6373V30ZM11.4548 55V41.3333L15.0821 51.0062C15.731 52.7366 18.1786 52.7366 18.8274 51.0062L22.4548 41.3333V55H11.4548ZM10.2136 57L9.00311 59H24.9064L23.6959 57H10.2136Z" fill="#0B0D0E"/>
<path fill-rule="evenodd" clip-rule="evenodd" d="M32.4879 36H32.4548V55.1495C32.0643 55.3097 31.728 55.592 31.5026 55.9644L30.2921 57.9644C29.4854 59.2973 30.4451 61 32.0031 61H47.9064C49.4645 61 50.4242 59.2973 49.6174 57.9644L48.4069 55.9644C48.1815 55.592 47.8452 55.3097 47.4548 55.1495V36H47.4216C47.4436 35.8806 47.4548 35.7592 47.4548 35.6373V30H47.9548C48.5071 30 48.9548 29.5523 48.9548 29C48.9548 28.4477 48.5071 28 47.9548 28H47.4548V24H47.9548C48.5071 24 48.9548 23.5523 48.9548 23C48.9548 22.4477 48.5071 22 47.9548 22H47.4548V19C47.4548 17.8954 46.5593 17 45.4548 17H43.4548V15C43.4548 13.8954 42.5593 13 41.4548 13H38.4548C37.3502 13 36.4548 13.8954 36.4548 15V17H34.4548C33.3502 17 32.4548 17.8954 32.4548 19V22H31.9548C31.4025 22 30.9548 22.4477 30.9548 23C30.9548 23.5523 31.4025 24 31.9548 24H32.4548V28H31.9548C31.4025 28 30.9548 28.4477 30.9548 29C30.9548 29.5523 31.4025 30 31.9548 30H32.4548V35.6373C32.4548 35.7592 32.4659 35.8806 32.4879 36ZM34.4548 41.3333V55H45.4548V41.3333L41.8274 51.0062C41.1786 52.7366 38.731 52.7366 38.0821 51.0062L34.4548 41.3333ZM34.4548 30V35.6373L39.9548 50.304L45.4548 35.6373V30H34.4548ZM45.4548 28V24H34.4548V28H45.4548ZM34.4548 22H45.4548V19H34.4548V22ZM41.4548 15V17H38.4548V15H41.4548ZM32.0031 59L33.2136 57H46.6959L47.9064 59H32.0031Z" fill="#0B0D0E"/>
</svg>
