<svg width="64" height="64" viewBox="0 0 64 64" fill="none" xmlns="http://www.w3.org/2000/svg">
<path fill-rule="evenodd" clip-rule="evenodd" d="M37.0548 48.0767L37.3856 36.5H54C55.1046 36.5 56 35.6046 56 34.5V30.7601C56 29.8617 55.4009 29.0735 54.5353 28.8331L47.9363 27H48V24C48 22.8954 47.1046 22 46 22H43C41.8954 22 41 22.8954 41 24V25.0733L37.738 24.1671L37.8851 19.0175C37.9605 16.3801 37.3824 13.7651 36.2025 11.4052L35.5776 10.1554C34.1035 7.20723 29.8963 7.20723 28.4222 10.1554L27.7973 11.4052C26.6174 13.7651 26.0393 16.3802 26.1147 19.0175L26.2618 24.1672L23 25.0733V24C23 22.8954 22.1046 22 21 22H18C16.8954 22 16 22.8954 16 24V27H16.0637L9.46471 28.8331C8.59908 29.0735 8 29.8617 8 30.7601L8 34.5C8 35.6046 8.89543 36.5 10 36.5H26.6142L26.9449 48.0768C26.8709 48.1076 26.8004 48.1474 26.7352 48.1956L22.406 51.3925C22.1507 51.5811 22 51.8796 22 52.197V55C22 55.5523 22.4477 56 23 56H41C41.5523 56 42 55.5523 42 55V52.197C42 51.8796 41.8493 51.5811 41.594 51.3925L37.2648 48.1956C37.1995 48.1473 37.1289 48.1075 37.0548 48.0767ZM35.0562 48L35.8859 18.9604C35.9519 16.6527 35.4461 14.3645 34.4136 12.2996L33.7887 11.0498C33.0517 9.57575 30.9481 9.57575 30.211 11.0498L29.5862 12.2996C28.5537 14.3645 28.0479 16.6527 28.1139 18.9604L28.9436 48H35.0562ZM43 25.6288L46 26.4621V24H43V25.6288ZM21 24V25.6288L18 26.4621V24H21ZM36.0308 50L36.0281 50H27.9717L27.9689 50H27.6584L24 52.7016V54H40V52.7016L36.3416 50H36.0308ZM26.557 34.5L26.3207 26.2266L10 30.7601L10 34.5H26.557ZM54 34.5H37.4428L37.6791 26.2265L54 30.7601L54 34.5Z" fill="#212121"/>
<path d="M48.356 10.9424L51.7931 5.00526L53.524 6.00729L50.0869 11.9444C50.0483 12.0111 50.0964 12.0945 50.1734 12.0945H51.9369C51.9833 12.0945 52.0287 12.0976 52.0732 12.1036C52.1439 12.1132 52.212 12.1301 52.2768 12.1534C52.5042 12.2354 52.6911 12.3972 52.8073 12.6018C52.9223 12.8042 52.9681 13.0486 52.9158 13.2992L52.2079 16.6846C52.1619 16.9045 52.4577 17.0214 52.5745 16.8295L56.1975 10.8796C56.2381 10.813 56.1902 10.7276 56.1121 10.7276H54.2424C54.2321 10.7276 54.2219 10.7275 54.2117 10.7272C54.1282 10.7247 54.0476 10.7121 53.971 10.6906C53.7208 10.6204 53.5129 10.4558 53.384 10.2409C53.2638 10.0405 53.2123 9.79628 53.2594 9.54424L53.8937 6.14417C53.9349 5.92323 53.6366 5.81278 53.524 6.00729L51.7931 5.00526C53.0318 2.86563 56.3131 4.08062 55.8597 6.51095L55.4462 8.72763H56.1121C57.7506 8.72763 58.7579 10.5204 57.9058 11.9198L54.2827 17.8697C52.9973 19.9808 49.7444 18.6946 50.2503 16.2753L50.7062 14.0945H50.1734C48.5553 14.0945 47.5457 12.342 48.356 10.9424Z" fill="#212121"/>
</svg>
