<svg width="64" height="64" viewBox="0 0 64 64" fill="none" xmlns="http://www.w3.org/2000/svg">
<path fill-rule="evenodd" clip-rule="evenodd" d="M54.5821 4.09706L51.1451 10.0342C50.3348 11.4338 51.3444 13.1863 52.9625 13.1863H53.4953L53.0393 15.3671C52.5335 17.7864 55.7863 19.0726 57.0718 16.9615L60.6948 11.0116C61.547 9.61218 60.5396 7.81943 58.9012 7.81943H58.2353L58.6488 5.60275C59.1022 3.17242 55.8208 1.95743 54.5821 4.09706ZM52.8759 11.0362L56.313 5.09909C56.4256 4.90458 56.7239 5.01503 56.6827 5.23597L56.0484 8.63604C56.0014 8.88808 56.0529 9.13225 56.1731 9.33268C56.302 9.5476 56.5099 9.71224 56.7601 9.78238C56.8367 9.80386 56.9173 9.81648 57.0007 9.81897C57.0077 9.81918 57.0146 9.81931 57.0216 9.81938C57.0249 9.81941 57.0282 9.81943 57.0315 9.81943H58.9012C58.9792 9.81943 59.0272 9.9048 58.9866 9.97144L55.3636 15.9213C55.2467 16.1132 54.951 15.9963 54.997 15.7764L55.7048 12.3909C55.7572 12.1404 55.7113 11.896 55.5963 11.6936C55.4801 11.489 55.2933 11.3272 55.0659 11.2452C55.0011 11.2219 54.933 11.205 54.8623 11.1954C54.8178 11.1894 54.7723 11.1863 54.726 11.1863H52.9625C52.8854 11.1863 52.8373 11.1029 52.8759 11.0362Z" fill="#0B0D0E"/>
<path d="M25 27C26.1046 27 27 26.1046 27 25C27 23.8954 26.1046 23 25 23C23.8954 23 23 23.8954 23 25C23 26.1046 23.8954 27 25 27Z" fill="#0B0D0E"/>
<path d="M34 25C34 26.1046 33.1046 27 32 27C30.8954 27 30 26.1046 30 25C30 23.8954 30.8954 23 32 23C33.1046 23 34 23.8954 34 25Z" fill="#0B0D0E"/>
<path d="M39 27C40.1046 27 41 26.1046 41 25C41 23.8954 40.1046 23 39 23C37.8954 23 37 23.8954 37 25C37 26.1046 37.8954 27 39 27Z" fill="#0B0D0E"/>
<path fill-rule="evenodd" clip-rule="evenodd" d="M37 10C37 9.44772 36.5523 9 36 9C35.4477 9 35 9.44772 35 10V11H29V10C29 9.44772 28.5523 9 28 9C27.4477 9 27 9.44772 27 10V11H24.9999C23.8954 11 22.9999 11.8954 22.9999 13V18H20.8649C19.8716 18 19.0289 18.7289 18.8858 19.7118L17.1026 31.9597L12.7624 32.8277C11.6966 33.0409 10.9962 34.0661 11.185 35.1364L13.886 50.4421C13.7734 50.4867 13.6631 50.5314 13.5553 50.576C12.6084 50.9678 11.8398 51.3601 11.3047 51.6565C11.0369 51.8048 10.8269 51.9295 10.6815 52.0186C10.6088 52.0632 10.5522 52.0989 10.5126 52.1243C10.491 52.1381 10.4695 52.1521 10.4481 52.1662L10.4465 52.1672L10.4454 52.1679C9.98588 52.4743 9.8617 53.0952 10.1681 53.5547C10.4743 54.0141 11.0949 54.1383 11.5544 53.8323L11.5604 53.8284L11.5914 53.8084C11.6204 53.7898 11.6658 53.7611 11.7269 53.7236C11.8491 53.6487 12.0337 53.539 12.2737 53.406C12.7542 53.1399 13.4543 52.7822 14.32 52.424C16.0589 51.7044 18.4246 51 21.0001 51C23.5138 51 24.844 51.666 26.225 52.3866L26.3365 52.4448C27.7654 53.1913 29.3135 54 32.0001 54C34.6095 54 36.2565 53.2365 37.8082 52.5172L38.0442 52.408C39.6128 51.684 41.2094 51 44.0001 51C46.8273 51 48.9252 51.7056 50.3029 52.3944C50.9934 52.7397 51.5051 53.0818 51.8376 53.3312C52.0038 53.4559 52.125 53.5571 52.201 53.6237C52.239 53.6569 52.2657 53.6815 52.281 53.6958L52.293 53.7071L52.2942 53.7084L52.2962 53.7103C52.687 54.0976 53.3177 54.0966 53.7072 53.7071C54.0977 53.3166 54.0977 52.6834 53.7072 52.2929L53.4491 52.551C53.602 52.398 53.7065 52.2922 53.7065 52.2922L53.7039 52.2896L53.6994 52.2852L53.6871 52.2732C53.6774 52.2637 53.6647 52.2515 53.6489 52.2368C53.6174 52.2072 53.5737 52.1673 53.518 52.1185C53.4065 52.021 53.2464 51.8878 53.0376 51.7313C52.6201 51.4182 52.0068 51.0103 51.1973 50.6056C50.8831 50.4484 50.5396 50.292 50.1669 50.1417L52.8148 35.1364C53.0037 34.0661 52.3033 33.0409 51.2375 32.8277L46.8604 31.9523L45.1125 19.7172C44.9718 18.7319 44.1279 18 43.1326 18H40.9999V13C40.9999 11.8954 40.1045 11 38.9999 11H37V10ZM50.8453 34.7889L48.2465 49.5154C47.0317 49.206 45.6158 49 44.0001 49C40.7908 49 38.8874 49.816 37.206 50.592L37.0028 50.686C35.7183 51.2804 34.5971 51.7993 33 51.9535L33 31.2198L50.8453 34.7889ZM27.2426 50.6616C28.3927 51.2622 29.4124 51.7947 31 51.9526L31 31.2198L13.1546 34.7889L15.8006 49.7829C17.3284 49.3347 19.1032 49 21.0001 49C23.9864 49 25.6562 49.834 27.1502 50.6134L27.2426 50.6616ZM32 29C32.0967 29 32.1901 29.0137 32.2785 29.0393C32.3165 29.0446 32.3544 29.0511 32.3922 29.0586L44.7807 31.5363L43.1326 20H20.8649L19.1843 31.5433L31.6077 29.0586C31.6455 29.0511 31.6835 29.0446 31.7216 29.0393C31.81 29.0137 31.9034 29 32 29ZM24.9999 18H38.9999V13H24.9999V18Z" fill="#0B0D0E"/>
</svg>
