<svg width="64" height="64" viewBox="0 0 64 64" fill="none" xmlns="http://www.w3.org/2000/svg">
<path fill-rule="evenodd" clip-rule="evenodd" d="M58.6487 5.60275C59.1021 3.17241 55.8207 1.95743 54.582 4.09706L51.145 10.0342C50.3347 11.4338 51.3443 13.1863 52.9624 13.1863H53.4952L53.0392 15.3671C52.5334 17.7863 55.7862 19.0726 57.0717 16.9615L60.6947 11.0116C61.5469 9.61217 60.5395 7.81943 58.9011 7.81943L58.2352 7.81943L58.6487 5.60275ZM55.3635 15.9213C55.2466 16.1132 54.9509 15.9963 54.9969 15.7764L55.7047 12.3909C55.7571 12.1404 55.7112 11.896 55.5962 11.6936C55.48 11.489 55.2932 11.3272 55.0658 11.2452C55.001 11.2219 54.9329 11.205 54.8622 11.1954C54.8177 11.1894 54.7722 11.1863 54.7259 11.1863H52.9624C52.8853 11.1863 52.8372 11.1029 52.8758 11.0362L56.3129 5.09909C56.4255 4.90458 56.7238 5.01503 56.6826 5.23597L56.0483 8.63604C56.0013 8.88808 56.0528 9.13225 56.173 9.33268C56.3019 9.5476 56.5098 9.71224 56.76 9.78238C56.8366 9.80386 56.9172 9.81647 57.0006 9.81897C57.0108 9.81927 57.0211 9.81943 57.0314 9.81943L58.9011 9.81943C58.9791 9.81943 59.0271 9.9048 58.9865 9.97143L55.3635 15.9213Z" fill="#0B0D0E"/>
<path fill-rule="evenodd" clip-rule="evenodd" d="M38.2262 24.0257C38.3148 24.0463 38.4021 24.0795 38.4855 24.1258L55.9712 33.8401C56.6061 34.1928 56.9999 34.862 56.9999 35.5884V38.7028C56.9999 40.0141 55.7591 40.9706 54.4909 40.6369L37.1926 36.0847L36.1441 48.3171L42.4416 51.4174C42.7834 51.5857 42.9999 51.9336 42.9999 52.3146V55C42.9999 55.5523 42.5522 56 41.9999 56H23.9999C23.4476 56 22.9999 55.5523 22.9999 55V52.3146C22.9999 51.9336 23.2164 51.5857 23.5582 51.4174L29.8556 48.3171L28.8071 36.0847L11.5089 40.6369C10.2407 40.9706 8.99988 40.0141 8.99988 38.7028L8.99988 35.5884C8.99988 34.862 9.39367 34.1928 10.0286 33.8401L27.5142 24.1258C27.5977 24.0795 27.6849 24.0463 27.7735 24.0257L27.3848 19.4906C27.1331 16.554 27.6974 13.6049 29.0155 10.9687L29.4222 10.1554C30.8963 7.2072 35.1035 7.2072 36.5776 10.1554L36.9843 10.9687C38.3024 13.6049 38.8667 16.554 38.615 19.4906L38.2262 24.0257ZM30.9655 50H35.0343L40.9999 52.9369V54H24.9999V52.9369L30.9655 50ZM36.6223 19.3198L34.164 48H31.8358L29.3775 19.3198C29.1572 16.7503 29.651 14.1698 30.8044 11.8632L31.211 11.0498C31.9481 9.57573 34.0517 9.57572 34.7887 11.0498L35.1954 11.8632C36.3487 14.1698 36.8425 16.7503 36.6223 19.3198ZM38.0426 26.1677L37.366 34.0623L54.9999 38.7028V35.5884L38.0426 26.1677ZM27.9571 26.1677L10.9999 35.5884L10.9999 38.7028L28.6338 34.0623L27.9571 26.1677Z" fill="#0B0D0E"/>
</svg>
