<svg width="64" height="64" viewBox="0 0 64 64" fill="none" xmlns="http://www.w3.org/2000/svg">
<path fill-rule="evenodd" clip-rule="evenodd" d="M52 49.0001C52 51.7615 49.7614 54.0001 47 54.0001C44.2386 54.0001 42 51.7615 42 49.0001C42 46.2387 44.2386 44.0001 47 44.0001C49.7614 44.0001 52 46.2387 52 49.0001ZM47 52.0001C48.6569 52.0001 50 50.657 50 49.0001C50 47.3432 48.6569 46.0001 47 46.0001C45.3431 46.0001 44 47.3432 44 49.0001C44 50.657 45.3431 52.0001 47 52.0001Z" fill="#0B0D0E"/>
<path fill-rule="evenodd" clip-rule="evenodd" d="M39 28.0001H41.7795L39 24.6029V28.0001ZM40.5479 23.3364C39.3577 21.8817 37 22.7233 37 24.6029V28.0001C37 29.1047 37.8954 30.0001 39 30.0001H41.7795C43.4668 30.0001 44.3959 28.0395 43.3274 26.7336L40.5479 23.3364Z" fill="#0B0D0E"/>
<path fill-rule="evenodd" clip-rule="evenodd" d="M53 41.0001V45.0001C51.8954 45.0001 51 44.1047 51 43.0001C51 41.8955 51.8954 41.0001 53 41.0001Z" fill="#0B0D0E"/>
<path fill-rule="evenodd" clip-rule="evenodd" d="M41 30.0001H43V37.0001H50V39.0001H41V30.0001Z" fill="#0B0D0E"/>
<path d="M13 20.0001H37V47.0001H21.2361C21.7111 47.5309 22 48.2317 22 49.0001H39V20.0001C39 18.8955 38.1046 18.0001 37 18.0001H13C11.8954 18.0001 11 18.8955 11 20.0001V47.0001C11 48.1047 11.8954 49.0001 13 49.0001H16C16 48.2317 16.2889 47.5309 16.7639 47.0001H13V20.0001Z" fill="#0B0D0E"/>
<path fill-rule="evenodd" clip-rule="evenodd" d="M24 49.0001C24 51.7615 21.7614 54.0001 19 54.0001C16.2386 54.0001 14 51.7615 14 49.0001C14 46.2387 16.2386 44.0001 19 44.0001C21.7614 44.0001 24 46.2387 24 49.0001ZM19 52.0001C20.6569 52.0001 22 50.657 22 49.0001C22 47.3432 20.6569 46.0001 19 46.0001C17.3431 46.0001 16 47.3432 16 49.0001C16 50.657 17.3431 52.0001 19 52.0001Z" fill="#0B0D0E"/>
<path d="M39 30.0001L43.4603 30.0001L47.5838 37.1476C47.7766 37.4818 48.0167 37.7863 48.2967 38.0517L53 42.51V47.0001H49.2361C49.7111 47.5309 50 48.2317 50 49.0001L53 49.0001C54.1046 49.0001 55 48.1047 55 47.0001V42.51C55 41.961 54.7743 41.4362 54.3759 41.0585L49.6726 36.6002C49.5326 36.4675 49.4126 36.3152 49.3162 36.1481L45.1926 29.0006C44.8354 28.3815 44.175 28.0001 43.4603 28.0001L39 28.0001C37.8954 28.0001 37 28.8955 37 30.0001V47.0001C37 48.1047 37.8954 49.0001 39 49.0001H44C44 48.2317 44.2889 47.5309 44.7639 47.0001H39V30.0001Z" fill="#0B0D0E"/>
<path fill-rule="evenodd" clip-rule="evenodd" d="M51.0725 10.0274L54.5096 4.09034L56.2404 5.09238L52.8034 11.0295C52.7648 11.0961 52.8129 11.1796 52.8899 11.1796H54.6534C54.6997 11.1796 54.7452 11.1827 54.7897 11.1887C54.8604 11.1983 54.9285 11.2152 54.9933 11.2385C55.2207 11.3205 55.4075 11.4823 55.5238 11.6869C55.6388 11.8893 55.6846 12.1337 55.6322 12.3842L54.9244 15.7697C54.8784 15.9896 55.1741 16.1065 55.291 15.9146L58.914 9.96472C58.9546 9.89808 58.9066 9.81271 58.8286 9.81271H56.9589C56.9486 9.81271 56.9384 9.81256 56.9282 9.81226C56.8447 9.80976 56.7641 9.79714 56.6875 9.77567C56.4373 9.70553 56.2294 9.54089 56.1005 9.32597C55.9803 9.12553 55.9288 8.88137 55.9758 8.62932L56.6101 5.22926C56.6514 5.00832 56.353 4.89787 56.2404 5.09238L54.5096 4.09034C55.7482 1.95071 59.0296 3.16571 58.5762 5.59604L58.1627 7.81271H58.8286C60.4671 7.81271 61.4744 9.60547 60.6222 11.0049L56.9992 16.9548C55.7137 19.0659 52.4609 17.7797 52.9667 15.3603L53.4227 13.1796H52.8899C51.2718 13.1796 50.2622 11.4271 51.0725 10.0274Z" fill="#0B0D0E"/>
</svg>
