<svg width="64" height="65" viewBox="0 0 64 65" fill="none" xmlns="http://www.w3.org/2000/svg">
<path fill-rule="evenodd" clip-rule="evenodd" d="M25 30.2086C23.8954 30.2086 23 31.104 23 32.2086V33.2086C23 34.3132 23.8954 35.2086 25 35.2086L25 41.2086C25 42.8655 26.3431 44.2086 28 44.2086L35 44.2086V47.2086C33.8954 47.2086 33 48.104 33 49.2086V50.2086C33 51.3132 33.8954 52.2086 35 52.2086H41C42.1046 52.2086 43 51.3132 43 50.2086V49.2086C43 48.104 42.1046 47.2086 41 47.2086V41.2086C41 39.5518 39.6568 38.2086 38 38.2086L31 38.2086V35.2086C32.1045 35.2086 33 34.3132 33 33.2086V32.2086C33 31.104 32.1046 30.2086 31 30.2086H25ZM29 35.2086H27V41.2086C27 41.7609 27.4477 42.2086 28 42.2086L36 42.2086C36.5523 42.2086 37 42.6563 37 43.2086V47.2086H39V41.2086C39 40.6563 38.5523 40.2086 38 40.2086L30 40.2086C29.448 40.2086 29.0004 39.7605 29 39.2086V35.2086ZM25 32.2086H31V33.2086H25V32.2086ZM35 49.2086H41V50.2086H35V49.2086Z" fill="#0B0D0E"/>
<path fill-rule="evenodd" clip-rule="evenodd" d="M50.5 42.2086C56.299 42.2086 61 37.5076 61 31.7086C61 25.9096 56.299 21.2086 50.5 21.2086C44.701 21.2086 40 25.9096 40 31.7086C40 37.5076 44.701 42.2086 50.5 42.2086ZM50.5 40.2086C55.1944 40.2086 59 36.403 59 31.7086C59 27.0142 55.1944 23.2086 50.5 23.2086C45.8056 23.2086 42 27.0142 42 31.7086C42 33.3612 42.4716 34.9036 43.2876 36.2086H48C49.1046 36.2086 50 35.3132 50 34.2086V28.6228L47.7071 30.9157C47.3166 31.3062 46.6834 31.3062 46.2929 30.9157C45.9024 30.5252 45.9024 29.892 46.2929 29.5015L50.1515 25.6429C50.6201 25.1743 51.3799 25.1743 51.8485 25.6429L55.7071 29.5015C56.0976 29.892 56.0976 30.5252 55.7071 30.9157C55.3166 31.3062 54.6834 31.3062 54.2929 30.9157L52 28.6228V34.2086C52 36.4178 50.2091 38.2086 48 38.2086H45.0225C46.5018 39.4565 48.4131 40.2086 50.5 40.2086Z" fill="#0B0D0E"/>
<path fill-rule="evenodd" clip-rule="evenodd" d="M5.91506 14.1198C5.96257 13.0508 6.84305 12.2086 7.91308 12.2086H16.0869C17.1569 12.2086 18.0374 13.0508 18.0849 14.1198L18.4534 22.4109L41.6107 28.0282L41.1393 29.9718L18.5595 24.4946L19.9556 55.2086H46C46.5523 55.2086 47 54.7609 47 54.2086V40.7086H49V54.2086C49 55.8655 47.6569 57.2086 46 57.2086H18.0444L18.0442 57.2041C17.9996 57.2071 17.9545 57.2086 17.9091 57.2086H6.09086C4.95144 57.2086 4.04224 56.2581 4.09283 55.1198L5.91506 14.1198ZM7.91308 14.2086H16.0869L17.9091 55.2086H6.09086L7.91308 14.2086Z" fill="#0B0D0E"/>
<path d="M53 2.20862C53.5523 2.20862 54 2.65633 54 3.20862V6.78446L57.4271 4.389C57.8798 4.0726 58.5033 4.18306 58.8197 4.63573C59.1361 5.08839 59.0256 5.71185 58.5729 6.02825L54.7455 8.70351L58.5729 11.3788C59.0256 11.6952 59.1361 12.3186 58.8197 12.7713C58.5033 13.224 57.8798 13.3344 57.4271 13.018L54 10.6226V14.2086C54 14.7609 53.5523 15.2086 53 15.2086C52.4477 15.2086 52 14.7609 52 14.2086V10.6226L48.5729 13.018C48.1202 13.3344 47.4968 13.224 47.1804 12.7713C46.864 12.3186 46.9744 11.6952 47.4271 11.3788L51.2545 8.70351L47.4271 6.02825C46.9744 5.71185 46.864 5.08839 47.1804 4.63573C47.4968 4.18306 48.1202 4.0726 48.5729 4.389L52 6.78446V3.20862C52 2.65633 52.4477 2.20862 53 2.20862Z" fill="#0B0D0E"/>
</svg>
