<svg width="65" height="65" viewBox="0 0 65 65" fill="none" xmlns="http://www.w3.org/2000/svg">
<path d="M53.8546 2.03845C54.4069 2.03845 54.8546 2.48617 54.8546 3.03845V6.6143L58.2817 4.21883C58.7344 3.90243 59.3579 4.01289 59.6743 4.46556C59.9907 4.91823 59.8802 5.54168 59.4275 5.85809L55.6001 8.53334L59.4275 11.2086C59.8802 11.525 59.9907 12.1485 59.6743 12.6011C59.3579 13.0538 58.7344 13.1643 58.2817 12.8479L54.8546 10.4524V14.0385C54.8546 14.5907 54.4069 15.0385 53.8546 15.0385C53.3023 15.0385 52.8546 14.5907 52.8546 14.0385V10.4524L49.4275 12.8479C48.9748 13.1643 48.3514 13.0538 48.035 12.6011C47.7186 12.1485 47.829 11.525 48.2817 11.2086L52.1091 8.53334L48.2817 5.85809C47.8291 5.54168 47.7186 4.91823 48.035 4.46556C48.3514 4.01289 48.9749 3.90243 49.4275 4.21883L52.8546 6.6143V3.03845C52.8546 2.48617 53.3023 2.03845 53.8546 2.03845Z" fill="#0B0D0E"/>
<path fill-rule="evenodd" clip-rule="evenodd" d="M23.6912 14.2086V11.2086C23.6912 10.104 24.5866 9.20862 25.6912 9.20862H39.6912C40.7957 9.20862 41.6912 10.104 41.6912 11.2086V14.2086H43.6912C45.348 14.2086 46.6912 15.5518 46.6912 17.2086V25.7086H44.6912V17.2086C44.6912 16.6563 44.2434 16.2086 43.6912 16.2086H21.6912C21.1389 16.2086 20.6912 16.6563 20.6912 17.2086V53.2086C20.6912 53.7609 21.1389 54.2086 21.6912 54.2086H43.6912C44.2434 54.2086 44.6912 53.7609 44.6912 53.2086V41.2086H46.6912V53.2086C46.6912 54.8655 45.348 56.2086 43.6912 56.2086H21.6912C20.0343 56.2086 18.6912 54.8655 18.6912 53.2086V17.2086C18.6912 15.5518 20.0343 14.2086 21.6912 14.2086H23.6912ZM25.6912 11.2086H39.6912L39.6912 14.2086H25.6912V11.2086Z" fill="#0B0D0E"/>
<path fill-rule="evenodd" clip-rule="evenodd" d="M24.6912 20.2086C24.1389 20.2086 23.6912 20.6563 23.6912 21.2086V27.2086C23.6912 27.7609 24.1389 28.2086 24.6912 28.2086H30.6912C31.2434 28.2086 31.6912 27.7609 31.6912 27.2086V21.2086C31.6912 20.6563 31.2434 20.2086 30.6912 20.2086H24.6912ZM25.6912 22.2086V26.2086H29.6912V22.2086H25.6912Z" fill="#0B0D0E"/>
<path fill-rule="evenodd" clip-rule="evenodd" d="M33.6912 21.2086C33.6912 20.6563 34.1389 20.2086 34.6912 20.2086H40.6912C41.2434 20.2086 41.6912 20.6563 41.6912 21.2086V27.2086C41.6912 27.7609 41.2434 28.2086 40.6912 28.2086H34.6912C34.1389 28.2086 33.6912 27.7609 33.6912 27.2086V21.2086ZM35.6912 26.2086V22.2086H39.6912V26.2086H35.6912Z" fill="#0B0D0E"/>
<path fill-rule="evenodd" clip-rule="evenodd" d="M25.6912 30.2086C24.5866 30.2086 23.6912 31.104 23.6912 32.2086V33.2086C23.6912 34.3132 24.5866 35.2086 25.6911 35.2086V41.2086C25.6911 42.8655 27.0343 44.2086 28.6911 44.2086L35.6912 44.2086L35.6912 47.2086C34.5866 47.2086 33.6912 48.104 33.6912 49.2086V50.2086C33.6912 51.3132 34.5866 52.2086 35.6912 52.2086H41.6912C42.7957 52.2086 43.6912 51.3132 43.6912 50.2086V49.2086C43.6912 48.104 42.7957 47.2086 41.6912 47.2086V41.2086C41.6912 39.5518 40.348 38.2086 38.6912 38.2086L31.6911 38.2086V35.2086C32.7957 35.2086 33.6912 34.3132 33.6912 33.2086V32.2086C33.6912 31.104 32.7957 30.2086 31.6912 30.2086H25.6912ZM29.6911 35.2086H27.6911L27.6911 41.2086C27.6911 41.7609 28.1389 42.2086 28.6911 42.2086L36.6912 42.2086C37.2434 42.2086 37.6912 42.6563 37.6912 43.2086L37.6912 47.2086H39.6912L39.6912 41.2086C39.6912 40.6563 39.2434 40.2086 38.6912 40.2086L30.6911 40.2086C30.1391 40.2086 29.6916 39.7605 29.6911 39.2086V35.2086ZM25.6912 32.2086H31.6912V33.2086H25.6912V32.2086ZM35.6912 49.2086H41.6912V50.2086H35.6912V49.2086Z" fill="#0B0D0E"/>
<path fill-rule="evenodd" clip-rule="evenodd" d="M51.1912 44.2086C56.9902 44.2086 61.6912 39.5076 61.6912 33.7086C61.6912 27.9096 56.9902 23.2086 51.1912 23.2086C45.3922 23.2086 40.6912 27.9096 40.6912 33.7086C40.6912 39.5076 45.3922 44.2086 51.1912 44.2086ZM51.1912 42.2086C55.8856 42.2086 59.6912 38.403 59.6912 33.7086C59.6912 29.0142 55.8856 25.2086 51.1912 25.2086C46.4967 25.2086 42.6912 29.0142 42.6912 33.7086C42.6912 35.3612 43.1628 36.9036 43.9787 38.2086H48.6912C49.7957 38.2086 50.6912 37.3132 50.6912 36.2086V30.6228L48.3983 32.9157C48.0077 33.3062 47.3746 33.3062 46.9841 32.9157C46.5935 32.5252 46.5935 31.892 46.9841 31.5015L50.8426 27.6429C51.3113 27.1743 52.0711 27.1743 52.5397 27.6429L56.3983 31.5015C56.7888 31.892 56.7888 32.5252 56.3983 32.9157C56.0077 33.3062 55.3746 33.3062 54.9841 32.9157L52.6912 30.6228V36.2086C52.6912 38.4178 50.9003 40.2086 48.6912 40.2086H45.7136C47.193 41.4565 49.1042 42.2086 51.1912 42.2086Z" fill="#0B0D0E"/>
<path fill-rule="evenodd" clip-rule="evenodd" d="M53.6912 2.20862C54.2435 2.20862 54.6912 2.65633 54.6912 3.20862V6.78445L58.1183 4.38899C58.571 4.07259 59.1944 4.18305 59.5108 4.63572C59.8272 5.08839 59.7168 5.71184 59.2641 6.02824L55.4367 8.70349L59.2641 11.3788C59.7168 11.6952 59.8272 12.3186 59.5108 12.7713C59.1944 13.224 58.571 13.3344 58.1183 13.018L54.6912 10.6225V14.2086C54.6912 14.7609 54.2435 15.2086 53.6912 15.2086C53.1389 15.2086 52.6912 14.7609 52.6912 14.2086V10.6225L49.2641 13.018C48.8114 13.3344 48.1879 13.224 47.8715 12.7713C47.5551 12.3186 47.6656 11.6952 48.1183 11.3788L51.9457 8.70349L48.1183 6.02824C47.6656 5.71184 47.5552 5.08839 47.8716 4.63572C48.188 4.18305 48.8114 4.07259 49.2641 4.38899L52.6912 6.78445V3.20862C52.6912 2.65633 53.1389 2.20862 53.6912 2.20862Z" fill="#0B0D0E"/>
</svg>
