<svg width="64" height="64" viewBox="0 0 64 64" fill="none" xmlns="http://www.w3.org/2000/svg">
<path fill-rule="evenodd" clip-rule="evenodd" d="M24 22.9985C23.4477 22.9985 23 23.4462 23 23.9985V29.9985C23 30.5508 23.4477 30.9985 24 30.9985H30C30.5523 30.9985 31 30.5508 31 29.9985V23.9985C31 23.4462 30.5523 22.9985 30 22.9985H24ZM25 24.9985V28.9985H29V24.9985H25Z" fill="#0B0D0E"/>
<path fill-rule="evenodd" clip-rule="evenodd" d="M23 33.9985C23 33.4463 23.4477 32.9985 24 32.9985H30C30.5523 32.9985 31 33.4463 31 33.9985V39.9985C31 40.5508 30.5523 40.9985 30 40.9985H24C23.4477 40.9985 23 40.5508 23 39.9985V33.9985ZM25 38.9985V34.9985H29V38.9985H25Z" fill="#0B0D0E"/>
<path fill-rule="evenodd" clip-rule="evenodd" d="M34 22.9985C33.4477 22.9985 33 23.4462 33 23.9985V29.9985C33 30.5508 33.4477 30.9985 34 30.9985H40C40.5523 30.9985 41 30.5508 41 29.9985V23.9985C41 23.4462 40.5523 22.9985 40 22.9985H34ZM35 24.9985V28.9985H39V24.9985H35Z" fill="#0B0D0E"/>
<path fill-rule="evenodd" clip-rule="evenodd" d="M33 33.9985C33 33.4463 33.4477 32.9985 34 32.9985H40C40.5523 32.9985 41 33.4463 41 33.9985V39.9985C41 40.5508 40.5523 40.9985 40 40.9985H34C33.4477 40.9985 33 40.5508 33 39.9985V33.9985ZM35 38.9985V34.9985H39V38.9985H35Z" fill="#0B0D0E"/>
<path fill-rule="evenodd" clip-rule="evenodd" d="M33 8.99854C33 8.44625 32.5523 7.99854 32 7.99854C31.4477 7.99854 31 8.44625 31 8.99854V11.9985H28C26.8954 11.9985 26 12.894 26 13.9985V16.9985H20C18.8954 16.9985 18 17.894 18 18.9985V53.9985C18 55.1031 18.8954 55.9985 20 55.9985H44C45.1046 55.9985 46 55.1031 46 53.9985V18.9985C46 17.894 45.1046 16.9985 44 16.9985H38V13.9985C38 12.894 37.1046 11.9985 36 11.9985H33V8.99854ZM37 46.9985V53.9985H27V46.9985H37ZM44 53.9985H39V46.9985C39 45.894 38.1046 44.9985 37 44.9985H27C25.8954 44.9985 25 45.894 25 46.9985V53.9985H20V18.9985H44V53.9985ZM36 16.9985V13.9985H28V16.9985H36Z" fill="#0B0D0E"/>
<path d="M47.6322 13.4866C47.6035 13.4911 47.5749 13.4912 47.5463 13.4913C47.0972 13.4931 46.7213 13.1535 46.6845 12.7003L46.5526 10.9997C46.5143 10.5158 46.8776 10.083 47.3628 10.0349C47.8503 9.98463 48.2743 10.3395 48.3105 10.8213L48.4425 12.5218C48.4808 13.0058 48.1174 13.4385 47.6322 13.4866Z" fill="#0B0D0E"/>
<path d="M44.3706 14.0032C44.5373 14.2424 44.8054 14.369 45.0783 14.3679C45.2566 14.3672 45.436 14.3137 45.5924 14.2009C45.9945 13.9176 46.0984 13.3671 45.8227 12.9721L44.8567 11.5851C44.581 11.1878 44.0303 11.1019 43.6326 11.3852C43.2306 11.6684 43.1267 12.219 43.4024 12.614L44.3706 14.0032Z" fill="#0B0D0E"/>
<path d="M50.1142 21.0294C50.5119 20.7462 51.0604 20.8321 51.3383 21.2293L52.3043 22.6141C52.58 23.0092 52.4762 23.5597 52.0741 23.8429C51.9177 23.9558 51.7383 24.0093 51.56 24.01C51.287 24.0111 51.0189 23.8845 50.8522 23.6452L49.884 22.2583C49.6083 21.8632 49.7122 21.3127 50.1142 21.0294Z" fill="#0B0D0E"/>
<path d="M54.2623 19.6582L52.7208 18.9579C52.2935 18.7593 51.7568 18.955 51.5472 19.4003C51.3377 19.8435 51.5228 20.3643 51.961 20.565L53.5026 21.2654C53.6181 21.3178 53.7409 21.3437 53.8641 21.3432C54.1965 21.3419 54.5219 21.1492 54.6761 20.8251C54.8856 20.3798 54.7028 19.8568 54.2623 19.6582Z" fill="#0B0D0E"/>
<path d="M52.8018 16.3274L54.5068 16.1536C55.0295 16.1009 55.4161 16.4581 55.4523 16.9399C55.4906 17.4239 55.1273 17.8566 54.642 17.9047L52.937 18.0786C52.9061 18.0831 52.8797 18.0832 52.8511 18.0833C52.402 18.0851 52.0283 17.7476 51.9915 17.2923C51.9532 16.8083 52.3165 16.3755 52.8018 16.3274Z" fill="#0B0D0E"/>
<path d="M51.3246 15.2705C51.4913 15.5097 51.7594 15.6363 52.0323 15.6352C52.2106 15.6345 52.39 15.581 52.5465 15.4682L53.9583 14.468C54.3604 14.1848 54.4643 13.6342 54.1886 13.2392C53.9107 12.842 53.3622 12.7561 52.9646 13.0393L51.5527 14.0395C51.155 14.3249 51.0511 14.8755 51.3246 15.2705Z" fill="#0B0D0E"/>
<path d="M51.6416 11.8755L50.9026 13.4363C50.7484 13.7604 50.4252 13.9531 50.0906 13.9566C49.9673 13.9571 49.8468 13.9312 49.729 13.8788C49.2908 13.6781 49.1057 13.1573 49.3152 12.7141L50.0542 11.1532C50.2638 10.7079 50.7917 10.51 51.2278 10.7108C51.666 10.9115 51.8511 11.4323 51.6416 11.8755Z" fill="#0B0D0E"/>
</svg>
