<svg width="64" height="65" viewBox="0 0 64 65" fill="none" xmlns="http://www.w3.org/2000/svg">
<path fill-rule="evenodd" clip-rule="evenodd" d="M32.0908 8.20862C32.6431 8.20862 33.0908 8.65633 33.0908 9.20862V12.2086H36.0908C37.1954 12.2086 38.0908 13.104 38.0908 14.2086V17.2086H44.0908C45.1954 17.2086 46.0908 18.104 46.0908 19.2086V29.3399C45.3617 29.7328 44.6898 30.2182 44.0908 30.7804V19.2086H20.0908V59.2086H44.0908V44.6369C44.6898 45.199 45.3617 45.6844 46.0908 46.0773V59.2086C46.0908 60.3132 45.1954 61.2086 44.0908 61.2086H20.0908C18.9863 61.2086 18.0908 60.3132 18.0908 59.2086V19.2086C18.0908 18.104 18.9863 17.2086 20.0908 17.2086H26.0908V14.2086C26.0908 13.104 26.9863 12.2086 28.0908 12.2086H31.0908V9.20862C31.0908 8.65633 31.5385 8.20862 32.0908 8.20862ZM36.0908 14.2086V17.2086H28.0908V14.2086H36.0908Z" fill="#0B0D0E"/>
<path fill-rule="evenodd" clip-rule="evenodd" d="M23.0908 24.2086C23.0908 23.6563 23.5385 23.2086 24.0908 23.2086H30.0908C30.6431 23.2086 31.0908 23.6563 31.0908 24.2086V30.2086C31.0908 30.7609 30.6431 31.2086 30.0908 31.2086H24.0908C23.5385 31.2086 23.0908 30.7609 23.0908 30.2086V24.2086ZM25.0908 29.2086V25.2086H29.0908V29.2086H25.0908Z" fill="#0B0D0E"/>
<path fill-rule="evenodd" clip-rule="evenodd" d="M34.0908 23.2086C33.5385 23.2086 33.0908 23.6563 33.0908 24.2086V30.2086C33.0908 30.7609 33.5385 31.2086 34.0908 31.2086H40.0908C40.6431 31.2086 41.0908 30.7609 41.0908 30.2086V24.2086C41.0908 23.6563 40.6431 23.2086 40.0908 23.2086H34.0908ZM35.0908 25.2086V29.2086H39.0908V25.2086H35.0908Z" fill="#0B0D0E"/>
<path fill-rule="evenodd" clip-rule="evenodd" d="M25.0908 33.2086C23.9862 33.2086 23.0908 34.104 23.0908 35.2086V36.2086C23.0908 37.3132 23.9862 38.2086 25.0908 38.2086V44.2086C25.0908 45.8655 26.4339 47.2086 28.0908 47.2086L35.0908 47.2086V50.2086C33.9862 50.2086 33.0908 51.104 33.0908 52.2086V53.2086C33.0908 54.3132 33.9862 55.2086 35.0908 55.2086H41.0908C42.1954 55.2086 43.0908 54.3132 43.0908 53.2086V52.2086C43.0908 51.104 42.1954 50.2086 41.0908 50.2086V44.2086C41.0908 42.5518 39.7476 41.2086 38.0908 41.2086L31.0908 41.2086V38.2086C32.1953 38.2086 33.0908 37.3132 33.0908 36.2086V35.2086C33.0908 34.104 32.1954 33.2086 31.0908 33.2086H25.0908ZM29.0908 38.2086H27.0908L27.0908 44.2086C27.0908 44.7609 27.5385 45.2086 28.0908 45.2086L36.0908 45.2086C36.6431 45.2086 37.0908 45.6563 37.0908 46.2086V50.2086H39.0908V44.2086C39.0908 43.6563 38.6431 43.2086 38.0908 43.2086L30.0908 43.2086C29.5388 43.2086 29.0912 42.7605 29.0908 42.2086V38.2086ZM25.0908 35.2086H31.0908V36.2086H25.0908V35.2086ZM35.0908 52.2086H41.0908V53.2086H35.0908V52.2086Z" fill="#0B0D0E"/>
<path d="M53.0908 2.20862C53.6431 2.20862 54.0908 2.65633 54.0908 3.20862V6.78446L57.518 4.389C57.9706 4.0726 58.5941 4.18306 58.9105 4.63573C59.2269 5.08839 59.1164 5.71185 58.6637 6.02825L54.8364 8.70351L58.6638 11.3788C59.1164 11.6952 59.2269 12.3186 58.9105 12.7713C58.5941 13.224 57.9706 13.3344 57.518 13.018L54.0908 10.6226V14.2086C54.0908 14.7609 53.6431 15.2086 53.0908 15.2086C52.5386 15.2086 52.0908 14.7609 52.0908 14.2086V10.6226L48.6637 13.018C48.2111 13.3344 47.5876 13.224 47.2712 12.7713C46.9548 12.3186 47.0653 11.6952 47.5179 11.3788L51.3453 8.70351L47.5179 6.02825C47.0653 5.71185 46.9548 5.08839 47.2712 4.63573C47.5876 4.18306 48.2111 4.0726 48.6637 4.389L52.0908 6.78446V3.20862C52.0908 2.65633 52.5386 2.20862 53.0908 2.20862Z" fill="#0B0D0E"/>
<path fill-rule="evenodd" clip-rule="evenodd" d="M50.5908 48.2086C56.3898 48.2086 61.0908 43.5076 61.0908 37.7086C61.0908 31.9096 56.3898 27.2086 50.5908 27.2086C44.7918 27.2086 40.0908 31.9096 40.0908 37.7086C40.0908 43.5076 44.7918 48.2086 50.5908 48.2086ZM50.5908 46.2086C55.2852 46.2086 59.0908 42.403 59.0908 37.7086C59.0908 33.0142 55.2852 29.2086 50.5908 29.2086C45.8964 29.2086 42.0908 33.0142 42.0908 37.7086C42.0908 39.3612 42.5624 40.9036 43.3784 42.2086H48.0908C49.1954 42.2086 50.0908 41.3132 50.0908 40.2086V34.6228L47.7979 36.9157C47.4074 37.3062 46.7742 37.3062 46.3837 36.9157C45.9932 36.5252 45.9932 35.892 46.3837 35.5015L50.2423 31.6429C50.7109 31.1743 51.4707 31.1743 51.9393 31.6429L55.7979 35.5015C56.1885 35.892 56.1885 36.5252 55.7979 36.9157C55.4074 37.3062 54.7742 37.3062 54.3837 36.9157L52.0908 34.6228V40.2086C52.0908 42.4178 50.3 44.2086 48.0908 44.2086H45.1133C46.5927 45.4565 48.5039 46.2086 50.5908 46.2086Z" fill="#0B0D0E"/>
</svg>
