<svg width="64" height="64" viewBox="0 0 64 64" fill="none" xmlns="http://www.w3.org/2000/svg">
<path fill-rule="evenodd" clip-rule="evenodd" d="M51.0923 10.0714L54.5085 4.1223C55.7397 1.97833 59.0253 3.18178 58.5804 5.61369L58.1747 7.83181L58.8406 7.82947C60.4791 7.82371 61.4927 9.61291 60.6455 11.0153L57.0434 16.9779C55.7653 19.0935 52.508 17.8187 53.0053 15.3976L53.4536 13.2153L52.9208 13.2172C51.3027 13.2229 50.287 11.4739 51.0923 10.0714ZM56.2429 5.11824L52.8267 11.0674C52.7883 11.1342 52.8367 11.2175 52.9138 11.2172L54.6773 11.211C54.7236 11.2108 54.7691 11.2138 54.8136 11.2196C54.8843 11.2289 54.9525 11.2456 55.0174 11.2687C55.2451 11.3499 55.4325 11.511 55.5494 11.7152C55.6651 11.9173 55.7118 12.1615 55.6603 12.4122L54.9644 15.8001C54.9192 16.0202 55.2153 16.1361 55.3315 15.9437L58.9336 9.98116C58.9739 9.91438 58.9257 9.82918 58.8476 9.82946L56.9779 9.83603C56.9676 9.83606 56.9574 9.83594 56.9472 9.83567C56.8637 9.83347 56.7831 9.82114 56.7064 9.79994C56.456 9.73067 56.2475 9.56677 56.1179 9.3523C55.9969 9.15229 55.9446 8.9083 55.9907 8.6561L56.6131 5.25382C56.6535 5.03274 56.3548 4.92334 56.2429 5.11824Z" fill="#0B0D0E"/>
<path d="M48.2897 16.7358L49.0348 15.1778C49.1903 14.8543 49.5142 14.6628 49.8488 14.6606C49.9721 14.6606 50.0925 14.687 50.2101 14.7399C50.6475 14.9423 50.8306 15.4638 50.6193 15.9061L49.8743 17.4641C49.663 17.9087 49.1342 18.1045 48.699 17.9021C48.2615 17.6996 48.0785 17.1781 48.2897 16.7358Z" fill="#0B0D0E"/>
<path d="M48.6292 7.38334C48.9056 7.78164 49.4537 7.86967 49.8525 7.58799C50.2557 7.30632 50.3617 6.75618 50.0875 6.36008L49.1247 4.96933C48.9589 4.72946 48.6913 4.60183 48.4184 4.60183C48.2401 4.60183 48.0605 4.65464 47.9036 4.76687C47.5004 5.04855 47.3944 5.59869 47.6686 5.99479L48.6292 7.38334Z" fill="#0B0D0E"/>
<path d="M45.6993 8.94309L47.2381 9.64947C47.6646 9.84972 48.2021 9.65607 48.4133 9.21156C48.6246 8.76924 48.4416 8.24771 48.0041 8.04526L46.4653 7.33888C46.3499 7.28606 46.2273 7.25966 46.104 7.25966C45.7716 7.25966 45.4455 7.45111 45.2901 7.77459C45.0788 8.2191 45.2595 8.74284 45.6993 8.94309Z" fill="#0B0D0E"/>
<path d="M47.1467 12.2795L45.4411 12.4467C44.9181 12.4973 44.533 12.1386 44.4986 11.6567C44.4622 11.1726 44.8272 10.7413 45.3126 10.6951L47.0183 10.5278C47.0492 10.5234 47.0756 10.5234 47.1043 10.5234C47.5533 10.5234 47.9257 10.8623 47.9607 11.3178C47.9972 11.802 47.6321 12.2333 47.1467 12.2795Z" fill="#0B0D0E"/>
<path d="M48.6199 13.3422C48.4541 13.1024 48.1865 12.9747 47.9136 12.9747C47.7353 12.9747 47.5557 13.0276 47.3988 13.1398L45.9831 14.1344C45.5799 14.4161 45.4739 14.9662 45.7481 15.3623C46.0244 15.7606 46.5725 15.8487 46.9713 15.567L48.387 14.5723C48.7859 14.2885 48.8919 13.7383 48.6199 13.3422Z" fill="#0B0D0E"/>
<path fill-rule="evenodd" clip-rule="evenodd" d="M22.9502 20.7074C22.3979 20.7074 21.9502 21.1551 21.9502 21.7074L21.9502 27.7074C21.9502 28.2597 22.3979 28.7074 22.9502 28.7074H28.9502C29.5025 28.7074 29.9502 28.2597 29.9502 27.7074L29.9502 21.7074C29.9502 21.1551 29.5025 20.7074 28.9502 20.7074L22.9502 20.7074ZM23.9502 22.7074V26.7074H27.9502V22.7074L23.9502 22.7074Z" fill="#0B0D0E"/>
<path fill-rule="evenodd" clip-rule="evenodd" d="M21.9502 31.7074C21.9502 31.1551 22.3979 30.7074 22.9502 30.7074H28.9502C29.5025 30.7074 29.9502 31.1551 29.9502 31.7074V37.7074C29.9502 38.2597 29.5025 38.7074 28.9502 38.7074H22.9502C22.3979 38.7074 21.9502 38.2597 21.9502 37.7074L21.9502 31.7074ZM23.9502 36.7074L23.9502 32.7074L27.9502 32.7074V36.7074H23.9502Z" fill="#0B0D0E"/>
<path fill-rule="evenodd" clip-rule="evenodd" d="M32.9502 20.7074C32.3979 20.7074 31.9502 21.1551 31.9502 21.7074L31.9502 27.7074C31.9502 28.2597 32.3979 28.7074 32.9502 28.7074L38.9502 28.7074C39.5025 28.7074 39.9502 28.2597 39.9502 27.7074L39.9502 21.7074C39.9502 21.1551 39.5025 20.7074 38.9502 20.7074L32.9502 20.7074ZM33.9502 22.7074L33.9502 26.7074L37.9502 26.7074L37.9502 22.7074L33.9502 22.7074Z" fill="#0B0D0E"/>
<path fill-rule="evenodd" clip-rule="evenodd" d="M47.762 49.7074C53.8379 49.7074 58.7634 44.7819 58.7634 38.7059C58.7634 32.63 53.8379 27.7045 47.762 27.7045C46.7901 27.7045 45.8477 27.8305 44.9502 28.0671V16.7074C44.9502 15.6028 44.0548 14.7074 42.9502 14.7074H39.9502V11.7074C39.9502 10.6028 39.0548 9.70741 37.9502 9.70741L23.9502 9.70741C22.8456 9.70741 21.9502 10.6028 21.9502 11.7074V14.7074H18.9502C17.8456 14.7074 16.9502 15.6028 16.9502 16.7074L16.9502 54.7074C16.9502 55.812 17.8456 56.7074 18.9502 56.7074H42.9502C44.0548 56.7074 44.9502 55.812 44.9502 54.7074V49.3448C45.8477 49.5814 46.7901 49.7074 47.762 49.7074ZM42.9502 16.7074L42.9502 28.8098C41.7541 29.3924 40.6795 30.1855 39.7743 31.1409C39.594 30.8791 39.2921 30.7074 38.9502 30.7074H32.9502C32.3979 30.7074 31.9502 31.1551 31.9502 31.7074V37.7074C31.9502 38.2597 32.3979 38.7074 32.9502 38.7074H36.7605L36.7605 38.7059C36.7605 43.0563 39.2856 46.817 42.9502 48.6021V54.7074H37.9502V44.7074C37.9502 43.6028 37.0548 42.7074 35.9502 42.7074H25.9502C24.8456 42.7074 23.9502 43.6028 23.9502 44.7074V54.7074H18.9502L18.9502 16.7074H42.9502ZM37.9502 32.7074V33.7247C37.4789 34.6511 37.1351 35.6527 36.9416 36.7074H33.9502L33.9502 32.7074L37.9502 32.7074ZM47.762 47.7074C52.7333 47.7074 56.7634 43.6773 56.7634 38.7059C56.7634 33.7346 52.7333 29.7045 47.762 29.7045C42.7906 29.7045 38.7605 33.7346 38.7605 38.7059C38.7605 40.505 39.2883 42.1809 40.1976 43.587C40.2681 43.5713 40.3415 43.5629 40.4167 43.5629H44.9229C46.0931 43.5629 47.0418 42.6143 47.0418 41.444V35.508L44.676 38.233C44.314 38.6501 43.7269 38.6501 43.3649 38.233C43.0028 37.816 43.0028 37.1398 43.3649 36.7228L47.3205 32.1665C47.7188 31.7077 48.3647 31.7077 48.763 32.1665L52.7186 36.7228C53.0807 37.1398 53.0807 37.816 52.7186 38.233C52.3566 38.6501 51.7695 38.6501 51.4075 38.233L49.0418 35.5081L49.0418 41.444C49.0418 43.7189 47.1977 45.563 44.9229 45.5629H41.9301C43.501 46.9003 45.5372 47.7074 47.762 47.7074ZM23.9502 11.7074H37.9502L37.9502 14.7074H23.9502V11.7074ZM35.9502 54.7074H25.9502L25.9502 44.7074H35.9502V54.7074Z" fill="#0B0D0E"/>
</svg>
