<svg width="64" height="64" viewBox="0 0 64 64" fill="none" xmlns="http://www.w3.org/2000/svg">
<path d="M46.5881 9.46148C46.6167 9.46148 46.6453 9.46148 46.6741 9.45708C47.1595 9.41087 47.5245 8.97956 47.4881 8.49544L47.3628 6.7944C47.3284 6.31248 46.9058 5.95599 46.4181 6.0044C45.9327 6.05061 45.5677 6.48192 45.6042 6.96605L45.7294 8.66708C45.7645 9.1204 46.1391 9.46148 46.5881 9.46148Z" fill="#212121"/>
<path d="M43.4101 9.96105C43.5759 10.2009 43.8435 10.3285 44.1164 10.3285C44.2947 10.3285 44.4743 10.2757 44.6312 10.1635C45.0344 9.88183 45.1404 9.33169 44.8662 8.93559L43.9056 7.54483C43.6315 7.14653 43.0812 7.05851 42.6824 7.34018C42.2792 7.62185 42.1732 8.17199 42.4473 8.56809L43.4101 9.96105Z" fill="#212121"/>
<path d="M49.1258 17.0096C49.5245 16.7279 50.0727 16.816 50.349 17.2143L51.3097 18.6028C51.5838 18.9989 51.4778 19.5491 51.0746 19.8307C50.9178 19.943 50.7382 19.9958 50.5599 19.9958C50.2869 19.9958 50.0193 19.8682 49.8535 19.6283L48.8907 18.2375C48.6165 17.8414 48.7226 17.2913 49.1258 17.0096Z" fill="#212121"/>
<path d="M53.2804 15.6544L51.7416 14.948C51.3151 14.7478 50.7776 14.9414 50.5663 15.3859C50.3551 15.8282 50.5381 16.3498 50.9756 16.5522L52.5144 17.2586C52.6298 17.3114 52.7524 17.3378 52.8757 17.3378C53.208 17.3378 53.5341 17.1464 53.6896 16.8229C53.9009 16.3784 53.7201 15.8547 53.2804 15.6544Z" fill="#212121"/>
<path d="M51.832 12.318L53.5377 12.1508C54.0606 12.1001 54.4458 12.4588 54.4801 12.9408C54.5166 13.4249 54.1515 13.8562 53.6661 13.9024L51.9604 14.0697C51.9295 14.0741 51.9031 14.0741 51.8745 14.0741C51.4254 14.0741 51.053 13.7352 51.018 13.2797C50.9815 12.7955 51.3466 12.3642 51.832 12.318Z" fill="#212121"/>
<path d="M50.3588 11.2554C50.5246 11.4952 50.7922 11.6229 51.0651 11.6229C51.2434 11.6229 51.423 11.5701 51.5799 11.4578L52.9956 10.4632C53.3988 10.1815 53.5048 9.63137 53.2307 9.23527C52.9543 8.83697 52.4062 8.74894 52.0074 9.03061L50.5917 10.0253C50.1929 10.3091 50.0868 10.8593 50.3588 11.2554Z" fill="#212121"/>
<path d="M50.6895 7.86185L49.9444 9.41985C49.7889 9.74333 49.465 9.93478 49.1304 9.93698C49.0071 9.93698 48.8867 9.91057 48.7691 9.85776C48.3317 9.65531 48.1486 9.13378 48.3599 8.69146L49.1049 7.13347C49.3162 6.68895 49.845 6.4931 50.2802 6.69555C50.7177 6.89801 50.9007 7.41954 50.6895 7.86185Z" fill="#212121"/>
<path fill-rule="evenodd" clip-rule="evenodd" d="M16 12C14.8954 12 14 12.8954 14 14V52C14 53.1046 14.8954 54 16 54H45C46.1046 54 47 53.1046 47 52V49C47 47.8954 46.1046 47 45 47H41.0004C41.6281 46.1643 42 45.1256 42 44V41.6632C42.4546 41.8792 42.9632 42 43.5 42C45.433 42 47 40.433 47 38.5C47 36.567 45.433 35 43.5 35C42.9632 35 42.4546 35.1208 42 35.3368V34H30V44C30 45.1256 30.3719 46.1643 30.9996 47H26.5818V21.7H30.0224C30.0076 21.7979 30 21.898 30 22V23C30 24.1046 30.8954 25 32 25V29C32 30.1046 32.8954 31 34 31H35V32C35 32.5523 35.4477 33 36 33C36.5523 33 37 32.5523 37 32V31H38C39.1046 31 40 30.1046 40 29V28H42C42 29.1046 42.8954 30 44 30H50C51.1046 30 52 29.1046 52 28V26C52 24.8954 51.1046 24 50 24H44C42.8954 24 42 24.8954 42 26H40V25C41.1046 25 42 24.1046 42 23V22C42 21.898 41.9924 21.7979 41.9776 21.7H45C46.1046 21.7 47 20.8046 47 19.7V17C47 14.2386 44.7614 12 42 12H16ZM38 29H34V25H38V29ZM24.5818 47V21.7C24.5818 20.5954 25.4773 19.7 26.5818 19.7H45V17C45 15.3431 43.6569 14 42 14L16 14V47H24.5818ZM40 23H32V22H40V23ZM40 36V44C40 45.6569 38.6569 47 37 47H35C33.3431 47 32 45.6569 32 44V36H40ZM43.5 37C42.6716 37 42 37.6716 42 38.5C42 39.3284 42.6716 40 43.5 40C44.3284 40 45 39.3284 45 38.5C45 37.6716 44.3284 37 43.5 37ZM16 49V52H45V49H16ZM44 28V26H50V28H44Z" fill="#212121"/>
</svg>
