<svg fill="none" height="64" viewBox="0 0 65 64" width="65" xmlns="http://www.w3.org/2000/svg"><g fill="#0B0D0E"><path d="m50.7507 6c.5523 0 1 .44772 1 1v3.5753l3.4265-2.39498c.4527-.3164 1.0761-.20594 1.3925.24673s.206 1.07612-.2467 1.39252l-3.8267 2.67483 3.828 2.6757c.4527.3164.5631.9398.2467 1.3925s-.9398.5631-1.3925.2467l-3.4278-2.3959v3.5866c0 .5523-.4477 1-1 1-.5522 0-1-.4477-1-1v-3.5866l-3.4277 2.3959c-.4527.3164-1.0761.206-1.3925-.2467s-.206-1.0761.2467-1.3925l3.828-2.6757-3.8267-2.67483c-.4527-.3164-.5631-.93985-.2467-1.39252s.9398-.56313 1.3925-.24673l3.4264 2.39498v-3.5753c0-.55228.4478-1 1-1z"/><g clip-rule="evenodd" fill-rule="evenodd"><path d="m30.4348 16.4982c-.6551-.4169-1.4923-.4169-2.1475 0l-8.52 5.4218v-3.5201c0-.5523-.4477-1-1-1h-4c-.5522 0-1 .4477-1 1v7.3383l-6.94309 4.4184c-.46594.2965-.60329.9146-.30678 1.3805.2965.466.91459.6033 1.38053.3068l3.46314-2.2038v24.4565c0 1.1046.8954 2 2 2h32c1.1046 0 2-.8954 2-2v-8.8466h-2v8.8466h-9v-.0028h-14v.0028h-9v-25.7292l16-10.1819 10.0266 6.3807 1.2447-1.5786zm-14.6675 7.9673 2-1.2727v-3.7929h-2z"/><path d="m19.4375 31.0211c0-1.1046.8954-2 2-2h6c1.1046 0 2 .8954 2 2v1c0 1.1046-.8954 2-2 2v3h7c1.6569 0 3 1.3432 3 3v6c1.1046 0 2 .8954 2 2v1c0 1.1046-.8954 2-2 2h-6c-1.1046 0-2-.8954-2-2v-1c0-1.1046.8954-2 2-2v-3h-7c-1.6569 0-3-1.3431-3-3v-6c-1.1046 0-2-.8954-2-2zm14 15h2v-6c0-.5523-.4477-1-1-1h-8c-.552 0-.9996-.4481-1-1v-4h-2v6c0 .5523.4477 1 1 1h8c.5523 0 1 .4477 1 1zm-2 2v1h6v-1zm-4-17h-6v1h6z"/><path d="m49.25 23c-5.2467 0-9.5 4.2533-9.5 9.5 0 1.6281.4096 3.1606 1.1313 4.5h5.8687c1.1046 0 2-.8954 2-2v-5.5858l-2.2929 2.2929c-.3905.3905-1.0237.3905-1.4142 0s-.3905-1.0237 0-1.4142l3.8586-3.8586c.4686-.4686 1.2284-.4686 1.697 0l3.8586 3.8586c.3905.3905.3905 1.0237 0 1.4142s-1.0237.3905-1.4142 0l-2.2929-2.2929v5.5858c0 2.2091-1.7909 4-4 4h-4.4282c1.733 1.8465 4.1959 3 6.9282 3 5.2467 0 9.5-4.2533 9.5-9.5s-4.2533-9.5-9.5-9.5zm-11.5 9.5c0-6.3513 5.1487-11.5 11.5-11.5s11.5 5.1487 11.5 11.5-5.1487 11.5-11.5 11.5-11.5-5.1487-11.5-11.5z"/></g></g></svg>