<svg width="64" height="64" viewBox="0 0 64 64" fill="none" xmlns="http://www.w3.org/2000/svg">
<path fill-rule="evenodd" clip-rule="evenodd" d="M17 19C17 19.5523 17.4477 20 18 20C18.5523 20 19 19.5523 19 19H20C20.5523 19 21 18.5523 21 18V15C21 14.4477 20.5523 14 20 14H16C15.4477 14 15 14.4477 15 15V18C15 18.5523 15.4477 19 16 19H17ZM17 17V16H19V17H17Z" fill="#212121"/>
<path fill-rule="evenodd" clip-rule="evenodd" d="M33 19C33 19.5523 32.5523 20 32 20C31.4477 20 31 19.5523 31 19H30C29.4477 19 29 18.5523 29 18V15C29 14.4477 29.4477 14 30 14H34C34.5523 14 35 14.4477 35 15V18C35 18.5523 34.5523 19 34 19H33ZM33 17H31V16H33V17Z" fill="#212121"/>
<path fill-rule="evenodd" clip-rule="evenodd" d="M17.1721 25.4387L13.3157 30.8376C12.3702 32.1613 13.3165 34.0001 14.9432 34.0001H15.1485L12.3754 38.2289C11.5033 39.559 12.4574 41.3257 14.0479 41.3257H14.2884L11.2199 45.8831C10.3254 47.2115 11.2773 49.0001 12.8789 49.0001H15V51C15 52.1046 15.8954 53 17 53H19C20.1046 53 21 52.1046 21 51V49.0001H23.1211C24.7227 49.0001 25.6746 47.2115 24.7801 45.8831L21.7116 41.3257H21.9521C23.5426 41.3257 24.4967 39.559 23.6246 38.2289L20.8515 34.0001H21.0568C22.6835 34.0001 23.6298 32.1613 22.6843 30.8376L18.8279 25.4387C18.7912 25.3846 18.7488 25.3335 18.7009 25.2866C18.5105 25.0991 18.2568 25.0002 18 25C17.7432 25.0002 17.4895 25.0991 17.2991 25.2866C17.2512 25.3335 17.2088 25.3846 17.1721 25.4387ZM19 49.0001V51H17V49.0001H19ZM19.0177 47.0001H23.1211L20.0526 42.4427C19.1581 41.1142 20.11 39.3257 21.7116 39.3257H21.9521L19.179 35.0968C18.3069 33.7667 19.261 32.0001 20.8515 32.0001H21.0568L18 27.7206L14.9432 32.0001H15.1485C16.739 32.0001 17.6931 33.7667 16.821 35.0968L14.0479 39.3257H14.2884C15.89 39.3257 16.8419 41.1142 15.9474 42.4427L12.8789 47.0001H16.9823L17 47H19L19.0177 47.0001Z" fill="#212121"/>
<path fill-rule="evenodd" clip-rule="evenodd" d="M39.4956 36.9888C40.8302 35.0223 40.0171 33.0805 38.6394 31.7037C36.4731 29.5389 30.9661 29.9683 30.9661 29.9683C30.9661 29.9683 30.5406 35.4755 32.7069 37.6404C34.108 39.0404 36.0929 39.8561 38.0923 38.4232C38.5692 38.9773 39.0143 39.5654 39.3568 40.1477C39.7871 40.8792 40 41.5086 40 42C40 42.164 40.0395 42.3187 40.1094 42.4553C40.275 42.7787 40.6117 43 41 43C41.4142 43 41.7696 42.7482 41.9214 42.3893C41.972 42.2696 42 42.1381 42 42C42 39.4634 42.8482 37.217 43.8406 35.46C45.9139 36.5408 47.9246 35.6366 49.3827 34.1795C51.8624 31.7015 51.3753 25.3977 51.3753 25.3977C51.3753 25.3977 45.0718 24.9061 42.5921 27.3841C40.8317 29.1432 39.8767 31.7082 42.2474 34.2189C41.5796 35.3589 40.9399 36.7246 40.515 38.2673C40.1936 37.8176 39.8446 37.3873 39.4956 36.9888ZM35.3753 35.7809L35.3767 35.782L35.3851 35.7888L35.4221 35.819C35.4554 35.8463 35.5057 35.8878 35.5704 35.9424C35.6999 36.0516 35.8869 36.2124 36.1123 36.4152C36.2857 36.5713 36.4808 36.7513 36.6891 36.951C36.2904 37.1753 35.9773 37.192 35.7466 37.1645C35.291 37.1101 34.7145 36.8191 34.1207 36.2257C33.8879 35.9931 33.6366 35.572 33.4244 34.9143C33.2176 34.2733 33.088 33.5324 33.0143 32.7939C32.9852 32.5029 32.9656 32.2201 32.9529 31.9537C33.2194 31.9662 33.5022 31.9856 33.7932 32.0145C34.5317 32.0876 35.2727 32.2168 35.9139 32.4231C36.5717 32.6348 36.993 32.8859 37.2257 33.1184C37.8196 33.7119 38.111 34.2882 38.1657 34.7437C38.1885 34.9344 38.1812 35.1814 38.0515 35.4866C37.8338 35.2783 37.6306 35.091 37.4502 34.9286C37.2068 34.7096 37.0032 34.5345 36.8593 34.4131C36.7873 34.3525 36.7301 34.3051 36.6902 34.2724L36.6436 34.2344L36.6306 34.2239L36.6267 34.2208L36.6255 34.2198C36.6253 34.2197 36.6247 34.2192 36.0282 34.9647L36.6247 34.2192C36.1934 33.8742 35.5641 33.9441 35.2191 34.3753C34.8742 34.8065 34.9442 35.4359 35.3753 35.7809ZM45.9376 33.922C45.663 33.9548 45.3278 33.9366 44.9325 33.7666C45.3143 33.2427 45.6739 32.809 45.9673 32.4779C46.1879 32.229 46.37 32.0392 46.4945 31.9139C46.5568 31.8513 46.6045 31.8049 46.6354 31.7753L46.6534 31.7582L46.6687 31.7438L46.6749 31.738C47.0821 31.3653 47.1107 30.7327 46.7382 30.3252C46.3655 29.9176 45.733 29.8893 45.3254 30.262L45.9764 30.974C45.3254 30.262 45.3257 30.2617 45.3254 30.262L45.3241 30.2631L45.3224 30.2647L45.3177 30.269L45.3028 30.2829L45.2776 30.3066L45.2525 30.3305C45.2102 30.371 45.1505 30.4291 45.076 30.504C44.9271 30.6538 44.7186 30.8714 44.4704 31.1515C44.1611 31.5006 43.7886 31.9485 43.3923 32.485C42.8635 31.7961 42.7974 31.2436 42.8471 30.8294C42.92 30.2219 43.2984 29.5057 44.0058 28.7988C44.3168 28.488 44.8467 28.1821 45.6232 27.9322C46.3832 27.6876 47.2531 27.5369 48.1108 27.4519C48.5668 27.4067 49.0051 27.3815 49.4028 27.3688C49.3898 27.7665 49.3643 28.2048 49.3188 28.6608C49.2332 29.5184 49.0818 30.3882 48.8367 31.148C48.5863 31.9243 48.28 32.454 47.969 32.7648C47.2616 33.4716 46.5451 33.8496 45.9376 33.922Z" fill="#212121"/>
<path fill-rule="evenodd" clip-rule="evenodd" d="M47 19H48C48.5523 19 49 18.5523 49 18V15C49 14.4477 48.5523 14 48 14H44C43.4477 14 43 14.4477 43 15V18C43 18.5523 43.4477 19 44 19H45C45 19.5523 45.4477 20 46 20C46.5523 20 47 19.5523 47 19ZM45 17V16H47V17H45Z" fill="#212121"/>
<path d="M32 21C32.5523 21 33 21.4477 33 22V23C33 23.5523 32.5523 24 32 24C31.4477 24 31 23.5523 31 23V22C31 21.4477 31.4477 21 32 21Z" fill="#212121"/>
<path d="M47 22C47 21.4477 46.5523 21 46 21C45.4477 21 45 21.4477 45 22V23C45 23.5523 45.4477 24 46 24C46.5523 24 47 23.5523 47 23V22Z" fill="#212121"/>
<path d="M32 25C32.5523 25 33 25.4477 33 26V27C33 27.5523 32.5523 28 32 28C31.4477 28 31 27.5523 31 27V26C31 25.4477 31.4477 25 32 25Z" fill="#212121"/>
<path d="M18 21C18.5523 21 19 21.4477 19 22V23C19 23.5523 18.5523 24 18 24C17.4477 24 17 23.5523 17 23V22C17 21.4477 17.4477 21 18 21Z" fill="#212121"/>
<path fill-rule="evenodd" clip-rule="evenodd" d="M36.9928 43.5C34.6857 43.5 32.4667 44.386 30.794 45.975L26.5835 49.975C24.5391 51.9171 21.827 53 19.0072 53H11.5C10.9477 53 10.5 52.5523 10.5 52C10.5 51.4477 10.9477 51 11.5 51H19.0072C21.3143 51 23.5333 50.114 25.206 48.525L29.4165 44.525C31.4609 42.5829 34.173 41.5 36.9928 41.5H52.5C53.0523 41.5 53.5 41.9477 53.5 42.5C53.5 43.0523 53.0523 43.5 52.5 43.5H36.9928Z" fill="#212121"/>
<path fill-rule="evenodd" clip-rule="evenodd" d="M11 15C11 14.4477 11.4477 14 12 14H52C52.5523 14 53 14.4477 53 15C53 15.5523 52.5523 16 52 16H12C11.4477 16 11 15.5523 11 15Z" fill="#212121"/>
<path fill-rule="evenodd" clip-rule="evenodd" d="M11 12C11 11.4477 11.4477 11 12 11H52C52.5523 11 53 11.4477 53 12C53 12.5523 52.5523 13 52 13H12C11.4477 13 11 12.5523 11 12Z" fill="#212121"/>
<path fill-rule="evenodd" clip-rule="evenodd" d="M12 11C12.5523 11 13 11.4477 13 12V15C13 15.5523 12.5523 16 12 16C11.4477 16 11 15.5523 11 15V12C11 11.4477 11.4477 11 12 11Z" fill="#212121"/>
<path fill-rule="evenodd" clip-rule="evenodd" d="M52 11C52.5523 11 53 11.4477 53 12V15C53 15.5523 52.5523 16 52 16C51.4477 16 51 15.5523 51 15V12C51 11.4477 51.4477 11 52 11Z" fill="#212121"/>
<path fill-rule="evenodd" clip-rule="evenodd" d="M47.006 48.9534C47.0063 48.9534 47.0057 48.9568 47.003 48.9635C47.0043 48.9568 47.0056 48.9534 47.006 48.9534ZM46.8439 48.8218C46.9219 48.9037 46.9634 48.9629 46.9848 49C46.9634 49.0371 46.9219 49.0963 46.8439 49.1782C46.6248 49.4084 46.2133 49.7068 45.5517 50.0008C44.2336 50.5866 42.2724 51 40 51C37.7276 51 35.7664 50.5866 34.4483 50.0008C33.7867 49.7068 33.3752 49.4084 33.1561 49.1782C33.0781 49.0963 33.0366 49.0371 33.0152 49C33.0366 48.9629 33.0781 48.9037 33.1561 48.8218C33.3752 48.5916 33.7867 48.2932 34.4483 47.9992C35.7664 47.4134 37.7276 47 40 47C42.2724 47 44.2336 47.4134 45.5517 47.9992C46.2133 48.2932 46.6248 48.5916 46.8439 48.8218ZM32.994 48.9534C32.9944 48.9534 32.9957 48.9568 32.997 48.9635C32.9944 48.9568 32.9937 48.9534 32.994 48.9534ZM32.994 49.0466C32.9937 49.0466 32.9944 49.0432 32.997 49.0365C32.9957 49.0432 32.9944 49.0466 32.994 49.0466ZM47.003 49.0365C47.0057 49.0432 47.0063 49.0466 47.006 49.0466C47.0056 49.0466 47.0043 49.0432 47.003 49.0365ZM48.6667 50.3174L48.1508 50.7596C48.0739 50.8255 47.99 50.8777 47.9018 50.9163C46.3742 52.1579 43.4084 53 40 53C35.0294 53 31 51.2091 31 49C31 46.7909 35.0294 45 40 45C43.4096 45 46.3763 45.8427 47.9035 47.085C47.991 47.1236 48.0744 47.1755 48.1508 47.241L48.6667 47.6832L50.3492 46.2411C50.7685 45.8817 51.3998 45.9302 51.7593 46.3496C52.1187 46.7689 52.0701 47.4002 51.6508 47.7596L50.2033 49.0003L51.6508 50.241C52.0701 50.6004 52.1187 51.2317 51.7593 51.6511C51.3999 52.0704 50.7686 52.1189 50.3492 51.7595L48.6667 50.3174ZM36 50C36.5523 50 37 49.5523 37 49C37 48.4477 36.5523 48 36 48C35.4477 48 35 48.4477 35 49C35 49.5523 35.4477 50 36 50Z" fill="#212121"/>
</svg>
