<svg width="64" height="64" viewBox="0 0 64 64" fill="none" xmlns="http://www.w3.org/2000/svg">
<path fill-rule="evenodd" clip-rule="evenodd" d="M48.9637 17.1103C49.4506 17.3711 50.0566 17.1878 50.3174 16.7009C50.5781 16.2141 50.3948 15.608 49.9079 15.3473L32.4719 6.00909C32.1757 5.85046 31.8196 5.85118 31.524 6.01102L30.2853 6.68091L18.7246 12.8902L14.0952 15.3453C13.6072 15.6041 13.4215 16.2094 13.6802 16.6973C13.939 17.1852 14.5443 17.371 15.0322 17.1122L18.0149 15.5305V55.1827C18.0149 55.7349 18.4626 56.1827 19.0149 56.1827H44.9845C45.5368 56.1827 45.9845 55.7349 45.9845 55.1827V15.5148L48.9637 17.1103ZM20.0149 14.4698L23.7502 12.4888L23.7574 12.485L31.2345 8.44137L31.9997 8.03036L43.9845 14.4674V54.1827H36.9079V45.1089C36.9079 44.5566 36.4602 44.1089 35.9079 44.1089H28.0915C27.5393 44.1089 27.0915 44.5566 27.0915 45.1089V54.1827H20.0149V14.4698ZM24.7997 21.9022V26.3022H29.1997V21.9022H24.7997ZM23.9997 20.1022C23.4475 20.1022 22.9997 20.5499 22.9997 21.1022V27.1022C22.9997 27.6545 23.4475 28.1022 23.9997 28.1022H29.9997C30.552 28.1022 30.9997 27.6545 30.9997 27.1022V21.1022C30.9997 20.5499 30.552 20.1022 29.9997 20.1022H23.9997ZM24.7997 31.9022V36.3022H29.1997V31.9022H24.7997ZM23.9997 30.1022C23.4475 30.1022 22.9997 30.5499 22.9997 31.1022V37.1022C22.9997 37.6545 23.4475 38.1022 23.9997 38.1022H29.9997C30.552 38.1022 30.9997 37.6545 30.9997 37.1022V31.1022C30.9997 30.5499 30.552 30.1022 29.9997 30.1022H23.9997ZM34.7997 26.3022V21.9022H39.1997V26.3022H34.7997ZM32.9997 21.1022C32.9997 20.5499 33.4475 20.1022 33.9997 20.1022H39.9997C40.552 20.1022 40.9997 20.5499 40.9997 21.1022V27.1022C40.9997 27.6545 40.552 28.1022 39.9997 28.1022H33.9997C33.4475 28.1022 32.9997 27.6545 32.9997 27.1022V21.1022ZM34.7997 31.9022V36.3022H39.1997V31.9022H34.7997ZM33.9997 30.1022C33.4475 30.1022 32.9997 30.5499 32.9997 31.1022V37.1022C32.9997 37.6545 33.4475 38.1022 33.9997 38.1022H39.9997C40.552 38.1022 40.9997 37.6545 40.9997 37.1022V31.1022C40.9997 30.5499 40.552 30.1022 39.9997 30.1022H33.9997ZM29.0915 46.1089V54.1826H34.9079V46.1089H29.0915Z" fill="#0B0D0E"/>
<path fill-rule="evenodd" clip-rule="evenodd" d="M49.1805 4.42654C49.4972 3.97409 50.1208 3.86405 50.5732 4.18077L60.5732 11.1808C61.0257 11.4975 61.1357 12.121 60.819 12.5735C60.5023 13.0259 59.8787 13.1359 59.4263 12.8192L49.4263 5.81923C48.9738 5.50252 48.8638 4.87899 49.1805 4.42654Z" fill="#0B0D0E"/>
<path fill-rule="evenodd" clip-rule="evenodd" d="M49.1805 12.5735C48.8638 12.121 48.9738 11.4975 49.4263 11.1808L59.4263 4.18077C59.8787 3.86406 60.5023 3.97409 60.819 4.42654C61.1357 4.87899 61.0257 5.50252 60.5732 5.81923L50.5732 12.8192C50.1208 13.1359 49.4972 13.0259 49.1805 12.5735Z" fill="#0B0D0E"/>
<path fill-rule="evenodd" clip-rule="evenodd" d="M54.9998 2C55.552 2 55.9998 2.44772 55.9998 3V14.0897C55.9998 14.642 55.552 15.0897 54.9998 15.0897C54.4475 15.0897 53.9998 14.642 53.9998 14.0897V3C53.9998 2.44772 54.4475 2 54.9998 2Z" fill="#0B0D0E"/>
</svg>
