<svg width="64" height="64" viewBox="0 0 64 64" fill="none" xmlns="http://www.w3.org/2000/svg">
<path fill-rule="evenodd" clip-rule="evenodd" d="M44.5879 11.4615C44.6165 11.4615 44.6451 11.4615 44.6738 11.4571C45.1592 11.4109 45.5243 10.9796 45.4878 10.4954L45.3625 8.7944C45.3282 8.31248 44.9056 7.95599 44.4179 8.0044C43.9325 8.05061 43.5674 8.48192 43.6039 8.96605L43.7292 10.6671C43.7642 11.1204 44.1388 11.4615 44.5879 11.4615ZM41.4099 11.9611C41.5756 12.2009 41.8432 12.3285 42.1162 12.3285C42.2945 12.3285 42.4741 12.2757 42.631 12.1635C43.0341 11.8818 43.1402 11.3317 42.866 10.9356L41.9054 9.54483C41.6313 9.14653 41.0809 9.05851 40.6821 9.34018C40.279 9.62185 40.1729 10.172 40.4471 10.5681L41.4099 11.9611ZM47.1255 19.0096C47.5243 18.7279 48.0724 18.816 48.3487 19.2143L49.3094 20.6028C49.5836 20.9989 49.4776 21.5491 49.0744 21.8307C48.9175 21.943 48.7379 21.9958 48.5596 21.9958C48.2867 21.9958 48.0191 21.8682 47.8533 21.6283L46.8905 20.2375C46.6163 19.8414 46.7223 19.2913 47.1255 19.0096ZM51.2802 17.6544L49.7414 16.948C49.3149 16.7478 48.7774 16.9414 48.5661 17.3859C48.3549 17.8282 48.5379 18.3498 48.9753 18.5522L50.5142 19.2586C50.6295 19.3114 50.7521 19.3378 50.8754 19.3378C51.2078 19.3378 51.5339 19.1464 51.6894 18.8229C51.9007 18.3784 51.7199 17.8547 51.2802 17.6544ZM49.8317 14.318L51.5374 14.1508C52.0604 14.1002 52.4455 14.4588 52.4798 14.9408C52.5163 15.4249 52.1513 15.8562 51.6659 15.9024L49.9602 16.0697C49.9292 16.0741 49.9028 16.0741 49.8742 16.0741C49.4252 16.0741 49.0527 15.7352 49.0177 15.2797C48.9813 14.7955 49.3463 14.3642 49.8317 14.318ZM48.3586 13.2554C48.5243 13.4952 48.7919 13.6229 49.0649 13.6229C49.2432 13.6229 49.4228 13.5701 49.5796 13.4578L50.9954 12.4632C51.3986 12.1815 51.5046 11.6314 51.2304 11.2353C50.9541 10.837 50.406 10.7489 50.0072 11.0306L48.5914 12.0253C48.1926 12.3091 48.0866 12.8593 48.3586 13.2554ZM48.6892 9.86185L47.9441 11.4198C47.7887 11.7433 47.4648 11.9348 47.1301 11.937C47.0069 11.937 46.8864 11.9106 46.7689 11.8578C46.3314 11.6553 46.1484 11.1338 46.3596 10.6915L47.1047 9.13347C47.316 8.68895 47.8447 8.4931 48.28 8.69555C48.7174 8.89801 48.9004 9.41954 48.6892 9.86185ZM38 10H26V16H23C21.8954 16 21 16.8954 21 18V43C21 44.1046 21.8954 45 23 45H24V52C24 53.1046 24.8954 54 26 54H38C39.1046 54 40 53.1046 40 52V45H41C42.1046 45 43 44.1046 43 43V18C43 16.8954 42.1046 16 41 16H38V10ZM38 52H36V45H38V52ZM26 52V45H32V52H26ZM41 18V43H23V18L26 18V19C25.4477 19 25 19.4477 25 20C25 20.5523 25.4477 21 26 21H38C38.5523 21 39 20.5523 39 20C39 19.4477 38.5523 19 38 19V18H41ZM36 19H28V12H36V19ZM26 23C24.8954 23 24 23.8954 24 25V27C24 28.1046 24.8954 29 26 29H38C39.1046 29 40 28.1046 40 27V25C40 23.8954 39.1046 23 38 23H26ZM26 25H38V27H26V25ZM25 32C25 31.4477 25.4477 31 26 31H28C28.5523 31 29 31.4477 29 32C29 32.5523 28.5523 33 28 33H26C25.4477 33 25 32.5523 25 32ZM25 36C25 35.4477 25.4477 35 26 35H28C28.5523 35 29 35.4477 29 36C29 36.5523 28.5523 37 28 37H26C25.4477 37 25 36.5523 25 36ZM25 40C25 39.4477 25.4477 39 26 39H28C28.5523 39 29 39.4477 29 40C29 40.5523 28.5523 41 28 41H26C25.4477 41 25 40.5523 25 40ZM30 32C30 31.4477 30.4477 31 31 31H33C33.5523 31 34 31.4477 34 32C34 32.5523 33.5523 33 33 33H31C30.4477 33 30 32.5523 30 32ZM30 36C30 35.4477 30.4477 35 31 35H33C33.5523 35 34 35.4477 34 36C34 36.5523 33.5523 37 33 37H31C30.4477 37 30 36.5523 30 36ZM30 40C30 39.4477 30.4477 39 31 39H33C33.5523 39 34 39.4477 34 40C34 40.5523 33.5523 41 33 41H31C30.4477 41 30 40.5523 30 40ZM35 32C35 31.4477 35.4477 31 36 31H38C38.5523 31 39 31.4477 39 32C39 32.5523 38.5523 33 38 33H36C35.4477 33 35 32.5523 35 32ZM35 36C35 35.4477 35.4477 35 36 35H38C38.5523 35 39 35.4477 39 36C39 36.5523 38.5523 37 38 37H36C35.4477 37 35 36.5523 35 36ZM35 40C35 39.4477 35.4477 39 36 39H38C38.5523 39 39 39.4477 39 40C39 40.5523 38.5523 41 38 41H36C35.4477 41 35 40.5523 35 40Z" fill="#212121"/>
</svg>
