<svg fill="none" height="64" viewBox="0 0 65 64" width="65" xmlns="http://www.w3.org/2000/svg"><g fill="#0B0D0E"><g clip-rule="evenodd" fill-rule="evenodd"><path d="m17.5542 20.0366c-1.1046 0-2 .8955-2 2v1c0 1.1046.8954 2 2 2v6c0 1.6569 1.3431 3 3 3h7v3c-1.1046 0-2 .8955-2 2v1c0 1.1046.8954 2 2 2h6c1.1046 0 2-.8954 2-2v-1c0-1.1045-.8954-2-2-2v-6c0-1.6568-1.3431-3-3-3h-7v-3c1.1046 0 2-.8954 2-2v-1c0-1.1045-.8954-2-2-2zm4 5h-2v4 .0014 1.9986c0 .5523.4477 1 1 1h8c.5523 0 1 .4477 1 1v4h2v-6c0-.5523-.4477-1-1-1h-8c-.552 0-.9996-.4481-1-1zm-4-3h6v1h-6zm10 17h2 2 2v1h-6z"/><path d="m25.0785 6.01102c.2955-.15984.6516-.16056.9478-.00193l17.4361 9.33821c.4868.2607.6701.8668.4094 1.3536-.2608.4869-.8668.6702-1.3537.4094l-2.9792-1.5955v5.9852h-2v-7.0328l-11.9848-6.43709-.6943.37291-7.5479 4.08198-.0072.0038-3.7354 1.981v39.7126h7.0781v-9.0735c0-.5523.4477-1 1-1h7.8164c.5523 0 1 .4477 1 1v9.0735h7.0751v-11.6824h2v12.6824c0 .5523-.4477 1-1 1h-9.0577l-.0174.0002h-7.8164l-.0174-.0002h-9.0607c-.5523 0-1-.4477-1-1v-39.6519l-2.98266 1.5817c-.48792.2588-1.09322.073-1.35197-.4149-.25876-.4879-.07299-1.0932.41493-1.352l4.5905-2.4344 11.6708-6.26846zm3.3853 48.17138h-5.8164v-8.0735h5.8164z"/><path d="m47.0542 22.5c-5.2467 0-9.5 4.2533-9.5 9.5 0 1.6281.4096 3.1606 1.1313 4.5h5.8687c1.1046 0 2-.8954 2-2v-5.5858l-2.2929 2.2929c-.3905.3905-1.0237.3905-1.4142 0s-.3905-1.0237 0-1.4142l3.8586-3.8586c.4686-.4686 1.2284-.4686 1.697 0l3.8586 3.8586c.3905.3905.3905 1.0237 0 1.4142s-1.0237.3905-1.4142 0l-2.2929-2.2929v5.5858c0 2.2091-1.7909 4-4 4h-4.4282c1.733 1.8465 4.1959 3 6.9282 3 5.2467 0 9.5-4.2533 9.5-9.5s-4.2533-9.5-9.5-9.5zm-11.5 9.5c0-6.3513 5.1487-11.5 11.5-11.5s11.5 5.1487 11.5 11.5-5.1487 11.5-11.5 11.5-11.5-5.1487-11.5-11.5z"/></g><path d="m52.5535 5.89062c.5522 0 1 .44772 1 1v3.57538l3.4264-2.39505c.4527-.31641 1.0761-.20594 1.3925.24672.3164.45267.206 1.07612-.2467 1.39253l-3.8267 2.6748 3.828 2.6757c.4527.3164.5631.9399.2467 1.3925-.3164.4527-.9398.5632-1.3925.2468l-3.4277-2.396v3.5866c0 .5523-.4478 1-1 1-.5523 0-1-.4477-1-1v-3.5866l-3.4278 2.396c-.4527.3164-1.0761.2059-1.3925-.2468-.3164-.4526-.206-1.0761.2467-1.3925l3.828-2.6757-3.8267-2.6748c-.4527-.31641-.5631-.93986-.2467-1.39253.3164-.45266.9398-.56313 1.3925-.24672l3.4265 2.39505v-3.57538c0-.55228.4477-1 1-1z"/></g></svg>