<svg width="64" height="64" viewBox="0 0 64 64" fill="none" xmlns="http://www.w3.org/2000/svg">
<path fill-rule="evenodd" clip-rule="evenodd" d="M50.6429 10.1084L54.0591 4.15928C55.2902 2.01531 58.5758 3.21876 58.131 5.65067L57.7252 7.86879L58.3912 7.86645C60.0296 7.86069 61.0432 9.6499 60.196 11.0523L56.5939 17.0149C55.3158 19.1305 52.0585 17.8557 52.5558 15.4346L53.0041 13.2523L52.4713 13.2541C50.8533 13.2598 49.8375 11.5109 50.6429 10.1084ZM55.7934 5.15522L52.3772 11.1044C52.3389 11.1712 52.3873 11.2544 52.4643 11.2542L54.2278 11.248C54.2741 11.2478 54.3196 11.2508 54.3641 11.2566C54.4349 11.2659 54.503 11.2826 54.5679 11.3057C54.7956 11.3869 54.983 11.548 55.0999 11.7522C55.2156 11.9542 55.2624 12.1985 55.2109 12.4492L54.5149 15.8371C54.4697 16.0572 54.7658 16.173 54.882 15.9807L58.4841 10.0181C58.5245 9.95136 58.4762 9.86616 58.3982 9.86644L56.5285 9.87301C56.5182 9.87304 56.5079 9.87293 56.4977 9.87266C56.4143 9.87046 56.3337 9.85812 56.257 9.83692C56.0065 9.76765 55.798 9.60375 55.6684 9.38928C55.5475 9.18927 55.4951 8.94529 55.5413 8.69308L56.1636 5.2908C56.2041 5.06972 55.9054 4.96032 55.7934 5.15522Z" fill="#0B0D0E"/>
<path d="M48.1798 7.42028C48.4561 7.81858 49.0042 7.9066 49.403 7.62493C49.8062 7.34326 49.9122 6.79312 49.638 6.39701L48.6752 5.00626C48.5094 4.7664 48.2418 4.63877 47.9689 4.63877C47.7906 4.63877 47.611 4.69158 47.4541 4.80381C47.0509 5.08548 46.9449 5.63562 47.2191 6.03172L48.1798 7.42028Z" fill="#0B0D0E"/>
<path d="M46.7886 9.6864L45.2498 8.98002C44.8101 8.77977 44.6293 8.25604 44.8406 7.81152C44.9961 7.48804 45.3222 7.29659 45.6545 7.29659C45.7778 7.29659 45.9004 7.323 46.0158 7.37581L47.5546 8.08219C47.9921 8.28464 48.1751 8.80618 47.9639 9.24849C47.7526 9.693 47.2151 9.88665 46.7886 9.6864Z" fill="#0B0D0E"/>
<path d="M44.9916 12.4837L46.6973 12.3164C47.1827 12.2702 47.5477 11.8389 47.5112 11.3548C47.4763 10.8993 47.1038 10.5604 46.6548 10.5604C46.6262 10.5604 46.5997 10.5604 46.5688 10.5648L44.8631 10.732C44.3777 10.7782 44.0127 11.2095 44.0491 11.6937C44.0835 12.1756 44.4686 12.5343 44.9916 12.4837Z" fill="#0B0D0E"/>
<path d="M47.4641 13.0117C47.7371 13.0117 48.0047 13.1393 48.1704 13.3792C48.4424 13.7753 48.3364 14.3254 47.9375 14.6093L46.5218 15.6039C46.123 15.8856 45.5749 15.7976 45.2986 15.3993C45.0244 15.0032 45.1304 14.453 45.5336 14.1714L46.9493 13.1767C47.1062 13.0645 47.2858 13.0117 47.4641 13.0117Z" fill="#0B0D0E"/>
<path d="M48.5853 15.2147L47.8403 16.7727C47.629 17.215 47.8121 17.7365 48.2495 17.939C48.6847 18.1414 49.2135 17.9456 49.4248 17.5011L50.1698 15.9431C50.3811 15.5008 50.198 14.9792 49.7606 14.7768C49.643 14.724 49.5226 14.6976 49.3993 14.6976C49.0647 14.6998 48.7408 14.8912 48.5853 15.2147Z" fill="#0B0D0E"/>
<path fill-rule="evenodd" clip-rule="evenodd" d="M29.9995 38.9985C29.9995 38.4463 30.4472 37.9985 30.9995 37.9985H36.9995C37.5518 37.9985 37.9995 38.4463 37.9995 38.9985V44.9985C37.9995 45.5508 37.5518 45.9985 36.9995 45.9985H30.9995C30.4472 45.9985 29.9995 45.5508 29.9995 44.9985V38.9985ZM31.9995 43.9985V39.9985H35.9995V43.9985H31.9995Z" fill="#0B0D0E"/>
<path fill-rule="evenodd" clip-rule="evenodd" d="M40.9995 37.9985C40.4472 37.9985 39.9995 38.4463 39.9995 38.9985V44.9985C39.9995 45.5508 40.4472 45.9985 40.9995 45.9985H46.9995C47.5518 45.9985 47.9995 45.5508 47.9995 44.9985V38.9985C47.9995 38.4463 47.5518 37.9985 46.9995 37.9985H40.9995ZM41.9995 39.9985V43.9985H45.9995V39.9985H41.9995Z" fill="#0B0D0E"/>
<path fill-rule="evenodd" clip-rule="evenodd" d="M52.7873 32.5526L42.2918 29.8284C42.7501 28.6178 43.001 27.3052 43.001 25.934C43.001 19.8581 38.0754 14.9326 31.9995 14.9326C29.017 14.9326 26.3117 16.1194 24.3301 18.0466L24.0403 11.4004H13.5582L10.1662 55.25C10.0764 56.4119 10.9949 57.4043 12.1603 57.4043H26.0461L26.0459 57.4004H52.4539C54.1368 57.4004 55.4905 56.0163 55.4532 54.3338L55.0329 35.3898C55.0031 34.0483 54.0861 32.8897 52.7873 32.5526ZM15.4094 13.4004L12.1603 55.4043H23.957L22.9446 32.184C21.7171 30.409 20.998 28.2555 20.998 25.934C20.998 23.9553 21.5205 22.0985 22.4349 20.4942L22.1256 13.4004H15.4094ZM25.9587 55.4004L25.0457 34.4595C26.9409 36.0072 29.3618 36.9355 31.9995 36.9355C35.9772 36.9355 39.4618 34.8245 41.3942 31.6617L52.2848 34.4885C52.7178 34.6008 53.0234 34.987 53.0334 35.4342L53.4537 54.3782C53.4661 54.939 53.0149 55.4004 52.4539 55.4004H25.9587ZM31.9995 34.9355C36.9709 34.9355 41.001 30.9054 41.001 25.934C41.001 20.9627 36.9709 16.9326 31.9995 16.9326C27.0281 16.9326 22.998 20.9627 22.998 25.934C22.998 27.7332 23.5259 29.409 24.4351 30.8152C24.5056 30.7994 24.579 30.7911 24.6543 30.7911H29.1604C30.3307 30.7911 31.2793 29.8424 31.2793 28.6722V22.7361L28.9136 25.4611C28.5515 25.8782 27.9645 25.8782 27.6024 25.4611C27.2404 25.0441 27.2404 24.3679 27.6024 23.9509L31.558 19.3946C31.9564 18.9358 32.6022 18.9358 33.0006 19.3946L36.9562 23.9509C37.3182 24.3679 37.3182 25.0441 36.9562 25.4611C36.5941 25.8782 36.0071 25.8782 35.645 25.4611L33.2793 22.7362V28.6722C33.2793 30.947 31.4352 32.7911 29.1604 32.7911H26.1676C27.7385 34.1284 29.7748 34.9355 31.9995 34.9355Z" fill="#0B0D0E"/>
</svg>
