<svg width="64" height="64" viewBox="0 0 64 64" fill="none" xmlns="http://www.w3.org/2000/svg">
<path d="M49.5878 12.4615C49.6165 12.4615 49.6451 12.4615 49.6738 12.4571C50.1592 12.4109 50.5243 11.9796 50.4878 11.4954L50.3625 9.7944C50.3282 9.31248 49.9055 8.95599 49.4179 9.0044C48.9325 9.05061 48.5674 9.48192 48.6039 9.96605L48.7292 11.6671C48.7642 12.1204 49.1388 12.4615 49.5878 12.4615Z" fill="#212121"/>
<path d="M46.4098 12.9611C46.5756 13.2009 46.8432 13.3285 47.1162 13.3285C47.2945 13.3285 47.4741 13.2757 47.6309 13.1635C48.0341 12.8818 48.1401 12.3317 47.866 11.9356L46.9053 10.5448C46.6312 10.1465 46.0809 10.0585 45.6821 10.3402C45.2789 10.6219 45.1729 11.172 45.4471 11.5681L46.4098 12.9611Z" fill="#212121"/>
<path d="M52.1255 20.0096C52.5243 19.7279 53.0724 19.816 53.3487 20.2143L54.3094 21.6028C54.5836 21.9989 54.4775 22.5491 54.0743 22.8307C53.9175 22.943 53.7379 22.9958 53.5596 22.9958C53.2866 22.9958 53.019 22.8682 52.8533 22.6283L51.8904 21.2375C51.6163 20.8414 51.7223 20.2913 52.1255 20.0096Z" fill="#212121"/>
<path d="M56.2802 18.6544L54.7413 17.948C54.3148 17.7478 53.7774 17.9414 53.5661 18.3859C53.3548 18.8282 53.5379 19.3498 53.9753 19.5522L55.5141 20.2586C55.6295 20.3114 55.7521 20.3378 55.8754 20.3378C56.2078 20.3378 56.5339 20.1464 56.6893 19.8229C56.9006 19.3784 56.7199 18.8547 56.2802 18.6544Z" fill="#212121"/>
<path d="M54.8317 15.318L56.5374 15.1508C57.0603 15.1002 57.4455 15.4588 57.4798 15.9408C57.5163 16.4249 57.1512 16.8562 56.6658 16.9024L54.9601 17.0697C54.9292 17.0741 54.9028 17.0741 54.8742 17.0741C54.4251 17.0741 54.0527 16.7352 54.0177 16.2797C53.9812 15.7955 54.3463 15.3642 54.8317 15.318Z" fill="#212121"/>
<path d="M53.3585 14.2554C53.5243 14.4952 53.7919 14.6229 54.0648 14.6229C54.2431 14.6229 54.4227 14.5701 54.5796 14.4578L55.9953 13.4632C56.3985 13.1815 56.5046 12.6314 56.2304 12.2353C55.9541 11.837 55.4059 11.7489 55.0071 12.0306L53.5914 13.0253C53.1926 13.3091 53.0865 13.8593 53.3585 14.2554Z" fill="#212121"/>
<path d="M53.6892 10.8619L52.9441 12.4198C52.7886 12.7433 52.4647 12.9348 52.1301 12.937C52.0068 12.937 51.8864 12.9106 51.7688 12.8578C51.3314 12.6553 51.1484 12.1338 51.3596 11.6915L52.1047 10.1335C52.316 9.68895 52.8447 9.4931 53.2799 9.69555C53.7174 9.89801 53.9004 10.4195 53.6892 10.8619Z" fill="#212121"/>
<path fill-rule="evenodd" clip-rule="evenodd" d="M22 36.1972L19.4648 40H13C11.8954 40 11 40.8954 11 42V46C11 47.1046 11.8954 48 13 48H21.8593C23.531 48 25.0922 47.1645 26.0195 45.7735L40.5352 24H48C49.1046 24 50 23.1046 50 22V18C50 16.8954 49.1046 16 48 16H38.1407C36.469 16 34.9078 16.8355 33.9805 18.2265L28.9303 25.8017C28.7181 24.7536 28.0375 23.8753 27.1165 23.3948C28.2475 22.6882 29 21.432 29 20C29 17.7909 27.2091 16 25 16C22.7909 16 21 17.7909 21 20C21 21.651 22.0002 23.0683 23.4277 23.6791C22.5619 24.3163 22 25.3425 22 26.5V36.1972ZM38.1407 18C37.1377 18 36.201 18.5013 35.6446 19.3359L28.8407 29.5418C28.8354 29.55 28.83 29.5581 28.8244 29.5661L23.8407 37.0417C23.8354 37.05 23.83 37.0581 23.8244 37.0661L21.1289 41.1094C20.758 41.6658 20.1335 42 19.4648 42H13V46H21.8593C22.8623 46 23.799 45.4987 24.3554 44.6641L38.8711 22.8906C39.242 22.3342 39.8665 22 40.5352 22H48V18H38.1407ZM24 33.1972L27 28.6972V26.5C27 25.6716 26.3284 25 25.5 25C24.6716 25 24 25.6716 24 26.5V33.1972ZM25 22C26.1046 22 27 21.1046 27 20C27 18.8954 26.1046 18 25 18C23.8954 18 23 18.8954 23 20C23 21.1046 23.8954 22 25 22Z" fill="#212121"/>
<path fill-rule="evenodd" clip-rule="evenodd" d="M36.356 35.9424L39.7931 30.0053C41.0318 27.8657 44.3131 29.0806 43.8598 31.511L43.4462 33.7277H44.1121C45.7506 33.7277 46.7579 35.5204 45.9058 36.9198L42.2828 42.8697C40.9973 44.9808 37.7444 43.6946 38.2503 41.2753L38.7062 39.0945H38.1734C36.5554 39.0945 35.5457 37.342 36.356 35.9424ZM41.524 31.0073L38.0869 36.9444C38.0483 37.0111 38.0964 37.0945 38.1734 37.0945H39.9369C39.9833 37.0945 40.0288 37.0976 40.0732 37.1036C40.1439 37.1132 40.212 37.1301 40.2768 37.1535C40.5043 37.2355 40.6911 37.3972 40.8073 37.6018C40.9223 37.8043 40.9681 38.0487 40.9158 38.2992L40.2079 41.6846C40.162 41.9045 40.4577 42.0215 40.5745 41.8295L44.1976 35.8797C44.2381 35.813 44.1902 35.7277 44.1121 35.7277H42.2424C42.2321 35.7277 42.2219 35.7275 42.2117 35.7272C42.1282 35.7247 42.0477 35.7121 41.9711 35.6906C41.7209 35.6205 41.5129 35.4558 41.3841 35.2409C41.2638 35.0405 41.2124 34.7963 41.2594 34.5443L41.8937 31.1442C41.9349 30.9233 41.6366 30.8128 41.524 31.0073Z" fill="#212121"/>
</svg>
