<svg width="64" height="64" viewBox="0 0 64 64" fill="none" xmlns="http://www.w3.org/2000/svg">
<path fill-rule="evenodd" clip-rule="evenodd" d="M51.1474 10.0573L54.5636 4.10819C55.7948 1.96422 59.0804 3.16768 58.6355 5.59959L58.2298 7.8177L58.8957 7.81536C60.5341 7.80961 61.5478 9.59881 60.7006 11.0012L57.0985 16.9638C55.8204 19.0794 52.5631 17.8046 53.0604 15.3835L53.5087 13.2012L52.9759 13.2031C51.3578 13.2087 50.3421 11.4598 51.1474 10.0573ZM56.298 5.10414L52.8818 11.0533C52.8434 11.1201 52.8918 11.2033 52.9689 11.2031L54.7324 11.1969C54.7787 11.1967 54.8242 11.1997 54.8687 11.2055C54.9394 11.2148 55.0076 11.2315 55.0725 11.2546C55.3002 11.3358 55.4876 11.4969 55.6045 11.7011C55.7202 11.9032 55.7669 12.1474 55.7154 12.3981L55.0195 15.786C54.9743 16.0061 55.2704 16.122 55.3866 15.9296L58.9887 9.96706C59.029 9.90028 58.9808 9.81508 58.9027 9.81535L57.033 9.82192C57.0227 9.82196 57.0125 9.82184 57.0023 9.82157C56.9188 9.81937 56.8382 9.80704 56.7615 9.78583C56.5111 9.71657 56.3026 9.55266 56.173 9.33819C56.052 9.13818 55.9997 8.8942 56.0458 8.64199L56.6682 5.23972C56.7086 5.01863 56.4099 4.90923 56.298 5.10414Z" fill="#0B0D0E"/>
<path fill-rule="evenodd" clip-rule="evenodd" d="M32.881 6.97249L43.2929 12.5487C43.4282 13.5114 43.7068 14.428 44.1063 15.2765L32.4089 8.99376L31.6436 9.40477L24.1666 13.4484L24.1594 13.4522L20.4241 15.4332V55.146H27.5007V46.0723C27.5007 45.52 27.9484 45.0723 28.5007 45.0723H36.3171C36.8694 45.0723 37.3171 45.52 37.3171 46.0723V55.146H44.3937V15.8379C44.9169 16.7817 45.595 17.6277 46.3937 18.3417V56.146C46.3937 56.6983 45.946 57.146 45.3937 57.146H19.4241C18.8718 57.146 18.4241 56.6983 18.4241 56.146V16.4938L15.4414 18.0756C14.9535 18.3344 14.3482 18.1486 14.0894 17.6607C13.8306 17.1728 14.0164 16.5675 14.5043 16.3087L19.1338 13.8536L30.6945 7.64433L31.9332 6.97442C32.2288 6.81458 32.5848 6.81386 32.881 6.97249ZM29.5007 47.0723V55.146H35.3171V47.0723H29.5007Z" fill="#0B0D0E"/>
<path fill-rule="evenodd" clip-rule="evenodd" d="M23.4089 22.0656C23.4089 21.5133 23.8566 21.0656 24.4089 21.0656H30.4089C30.9612 21.0656 31.4089 21.5133 31.4089 22.0656V28.0656C31.4089 28.6179 30.9612 29.0656 30.4089 29.0656H24.4089C23.8566 29.0656 23.4089 28.6179 23.4089 28.0656V22.0656ZM25.2089 27.2656V22.8656H29.6089V27.2656H25.2089Z" fill="#0B0D0E"/>
<path fill-rule="evenodd" clip-rule="evenodd" d="M24.4089 31.0656C23.8566 31.0656 23.4089 31.5133 23.4089 32.0656V38.0656C23.4089 38.6179 23.8566 39.0656 24.4089 39.0656H30.4089C30.9612 39.0656 31.4089 38.6179 31.4089 38.0656V32.0656C31.4089 31.5133 30.9612 31.0656 30.4089 31.0656H24.4089ZM25.2089 32.8656V37.2656H29.6089V32.8656H25.2089Z" fill="#0B0D0E"/>
<path fill-rule="evenodd" clip-rule="evenodd" d="M33.4089 22.0656C33.4089 21.5133 33.8566 21.0656 34.4089 21.0656H40.4089C40.9612 21.0656 41.4089 21.5133 41.4089 22.0656V28.0656C41.4089 28.6179 40.9612 29.0656 40.4089 29.0656H34.4089C33.8566 29.0656 33.4089 28.6179 33.4089 28.0656V22.0656ZM35.2089 27.2656V22.8656H39.6089V27.2656H35.2089Z" fill="#0B0D0E"/>
<path fill-rule="evenodd" clip-rule="evenodd" d="M34.4089 31.0656C33.8566 31.0656 33.4089 31.5133 33.4089 32.0656V38.0656C33.4089 38.6179 33.8566 39.0656 34.4089 39.0656H40.4089C40.9612 39.0656 41.4089 38.6179 41.4089 38.0656V32.0656C41.4089 31.5133 40.9612 31.0656 40.4089 31.0656H34.4089ZM35.2089 32.8656V37.2656H39.6089V32.8656H35.2089Z" fill="#0B0D0E"/>
<path d="M50.5725 7.57384C50.1737 7.85551 49.6256 7.76749 49.3493 7.36919L48.3886 5.98063C48.1144 5.58453 48.2205 5.03439 48.6237 4.75272C48.7805 4.64049 48.9601 4.58768 49.1384 4.58768C49.4114 4.58768 49.679 4.71531 49.8447 4.95517L50.8076 6.34593C51.0817 6.74203 50.9757 7.29217 50.5725 7.57384Z" fill="#0B0D0E"/>
<path d="M46.4193 8.92893L47.9581 9.63531C48.3846 9.83556 48.9221 9.64191 49.1334 9.1974C49.3446 8.75509 49.1616 8.23355 48.7242 8.0311L47.1853 7.32472C47.07 7.27191 46.9473 7.2455 46.8241 7.2455C46.4917 7.2455 46.1656 7.43695 46.0101 7.76043C45.7988 8.20495 45.9796 8.72868 46.4193 8.92893Z" fill="#0B0D0E"/>
<path d="M47.8668 12.2653L46.1611 12.4326C45.6382 12.4832 45.253 12.1245 45.2187 11.6426C45.1822 11.1584 45.5472 10.7271 46.0327 10.6809L47.7383 10.5137C47.7693 10.5093 47.7957 10.5093 47.8243 10.5093C48.2734 10.5093 48.6458 10.8482 48.6808 11.3037C48.7172 11.7878 48.3522 12.2191 47.8668 12.2653Z" fill="#0B0D0E"/>
<path d="M49.34 13.3281C49.1742 13.0882 48.9066 12.9606 48.6336 12.9606C48.4553 12.9606 48.2757 13.0134 48.1189 13.1256L46.7031 14.1203C46.3 14.402 46.1939 14.9521 46.4681 15.3482C46.7444 15.7465 47.2926 15.8345 47.6913 15.5528L49.1071 14.5582C49.5059 14.2743 49.6119 13.7242 49.34 13.3281Z" fill="#0B0D0E"/>
<path d="M49.0098 16.7216L49.7549 15.1636C49.9103 14.8401 50.2342 14.6487 50.5689 14.6465C50.6922 14.6465 50.8126 14.6729 50.9301 14.7257C51.3676 14.9281 51.5506 15.4497 51.3394 15.892L50.5943 17.45C50.383 17.8945 49.8543 18.0904 49.419 17.8879C48.9816 17.6855 48.7986 17.1639 49.0098 16.7216Z" fill="#0B0D0E"/>
</svg>
