<svg width="64" height="64" viewBox="0 0 64 64" fill="none" xmlns="http://www.w3.org/2000/svg">
<path fill-rule="evenodd" clip-rule="evenodd" d="M23.0002 22V8H21.0002V22H20.3829C19.3743 22 18.5235 22.7511 18.3984 23.7519L18.1174 26H16.0001C13.791 26 12.0001 27.7909 12.0001 30L12.0001 34C12.0001 35.1046 12.8956 36 14.0001 36C14.0001 38.7614 16.2387 41 19.0002 41H45.0002C47.7616 41 50.0002 38.7614 50.0002 36C51.1047 36 52.0001 35.1046 52.0001 34V30C52.0001 27.7909 50.2093 26 48.0001 26H45.8829L45.6019 23.7519C45.4768 22.7511 44.626 22 43.6174 22H43.0002V8H41.0002V22H40.3829C39.3743 22 38.5235 22.7511 38.3984 23.7519L38.1174 26H25.8829L25.6019 23.7519C25.4768 22.7511 24.626 22 23.6174 22H23.0002ZM23.8674 26L23.6174 24H20.3829L20.1329 26H23.8674ZM40.1329 26H43.8674L43.6174 24H40.3829L40.1329 26ZM16.0001 28C14.8956 28 14.0001 28.8954 14.0001 30L14.0001 34H50.0001V30C50.0001 28.8954 49.1047 28 48.0001 28H16.0001ZM48.0002 36H16.0002C16.0002 37.6569 17.3433 39 19.0002 39H45.0002C46.657 39 48.0002 37.6569 48.0002 36Z" fill="#212121"/>
<path d="M32.0002 45C32.5525 45 33.0002 45.4477 33.0002 46V50C33.0002 50.5523 32.5525 51 32.0002 51C31.4479 51 31.0002 50.5523 31.0002 50V46C31.0002 45.4477 31.4479 45 32.0002 45Z" fill="#212121"/>
<path d="M49.8662 43.5C49.59 43.0217 48.9785 42.8578 48.5002 43.134C48.0219 43.4101 47.858 44.0217 48.1341 44.5L49.6341 47.0981C49.9103 47.5764 50.5219 47.7402 51.0002 47.4641C51.4785 47.188 51.6423 46.5764 51.3662 46.0981L49.8662 43.5Z" fill="#212121"/>
<path d="M23.2789 44.5391C23.8093 44.693 24.1146 45.2477 23.9607 45.7781L22.9605 49.2262C22.8066 49.7567 22.2519 50.0619 21.7215 49.9081C21.1911 49.7542 20.8858 49.1995 21.0397 48.6691L22.0399 45.221C22.1937 44.6905 22.7485 44.3853 23.2789 44.5391Z" fill="#212121"/>
<path d="M40.0399 45.7781C39.886 45.2477 40.1913 44.693 40.7217 44.5391C41.2521 44.3853 41.8068 44.6905 41.9607 45.221L42.9609 48.6691C43.1148 49.1995 42.8095 49.7542 42.2791 49.9081C41.7487 50.0619 41.1939 49.7567 41.0401 49.2262L40.0399 45.7781Z" fill="#212121"/>
<path d="M15.0002 43.134C15.4785 43.4101 15.6423 44.0217 15.3662 44.5L13.8662 47.0981C13.59 47.5764 12.9785 47.7402 12.5002 47.4641C12.0219 47.188 11.858 46.5764 12.1341 46.0981L13.6341 43.5C13.9103 43.0217 14.5219 42.8578 15.0002 43.134Z" fill="#212121"/>
<path d="M52.6739 22.4571C52.6452 22.4615 52.6166 22.4615 52.588 22.4615C52.1389 22.4615 51.7643 22.1204 51.7293 21.6671L51.604 19.966C51.5675 19.4819 51.9326 19.0506 52.418 19.0044C52.9057 18.956 53.3283 19.3125 53.3626 19.7944L53.4879 21.4954C53.5244 21.9796 53.1593 22.4109 52.6739 22.4571Z" fill="#212121"/>
<path d="M49.41 22.9611C49.5757 23.2009 49.8433 23.3285 50.1163 23.3285C50.2946 23.3285 50.4742 23.2757 50.6311 23.1635C51.0342 22.8818 51.1403 22.3317 50.8661 21.9356L49.9055 20.5448C49.6313 20.1465 49.081 20.0585 48.6822 20.3402C48.2791 20.6219 48.173 21.172 48.4472 21.5681L49.41 22.9611Z" fill="#212121"/>
<path d="M55.1256 30.0096C55.5244 29.7279 56.0725 29.816 56.3488 30.2143L57.3095 31.6028C57.5837 31.9989 57.4776 32.5491 57.0745 32.8307C56.9176 32.943 56.738 32.9958 56.5597 32.9958C56.2868 32.9958 56.0191 32.8682 55.8534 32.6283L54.8906 31.2375C54.6164 30.8414 54.7224 30.2913 55.1256 30.0096Z" fill="#212121"/>
<path d="M59.2803 28.6544L57.7415 27.948C57.315 27.7478 56.7775 27.9414 56.5662 28.3859C56.3549 28.8283 56.538 29.3498 56.9754 29.5522L58.5143 30.2586C58.6296 30.3114 58.7522 30.3378 58.8755 30.3378C59.2079 30.3378 59.534 30.1464 59.6895 29.8229C59.9008 29.3784 59.72 28.8547 59.2803 28.6544Z" fill="#212121"/>
<path d="M57.8318 25.318L59.5375 25.1508C60.0604 25.1002 60.4456 25.4588 60.4799 25.9408C60.5164 26.4249 60.1514 26.8562 59.6659 26.9024L57.9603 27.0697C57.9293 27.0741 57.9029 27.0741 57.8743 27.0741C57.4253 27.0741 57.0528 26.7352 57.0178 26.2796C56.9814 25.7955 57.3464 25.3642 57.8318 25.318Z" fill="#212121"/>
<path d="M56.3586 24.2554C56.5244 24.4952 56.792 24.6229 57.065 24.6229C57.2433 24.6229 57.4229 24.5701 57.5797 24.4578L58.9955 23.4632C59.3986 23.1815 59.5047 22.6314 59.2305 22.2353C58.9542 21.837 58.406 21.7489 58.0073 22.0306L56.5915 23.0253C56.1927 23.3091 56.0867 23.8593 56.3586 24.2554Z" fill="#212121"/>
<path d="M56.6893 20.8619L55.9442 22.4198C55.7888 22.7433 55.4649 22.9348 55.1302 22.937C55.0069 22.937 54.8865 22.9106 54.769 22.8578C54.3315 22.6553 54.1485 22.1338 54.3597 21.6915L55.1048 20.1335C55.3161 19.689 55.8448 19.4931 56.2801 19.6956C56.7175 19.898 56.9005 20.4195 56.6893 20.8619Z" fill="#212121"/>
</svg>
