<svg width="64" height="64" viewBox="0 0 64 64" fill="none" xmlns="http://www.w3.org/2000/svg">
<path d="M50.6738 9.45708C50.6451 9.46148 50.6165 9.46148 50.5879 9.46148C50.1388 9.46148 49.7642 9.1204 49.7292 8.66708L49.6039 6.96605C49.5674 6.48192 49.9325 6.05061 50.4179 6.0044C50.9056 5.95599 51.3282 6.31248 51.3625 6.7944L51.4878 8.49544C51.5243 8.97956 51.1592 9.41087 50.6738 9.45708Z" fill="#212121"/>
<path d="M48.1162 10.3285C47.8432 10.3285 47.5756 10.2009 47.4099 9.96105L46.4471 8.56809C46.1729 8.17199 46.279 7.62185 46.6821 7.34018C47.0809 7.05851 47.6313 7.14653 47.9054 7.54483L48.866 8.93559C49.1402 9.33169 49.0341 9.88183 48.631 10.1635C48.4741 10.2757 48.2945 10.3285 48.1162 10.3285Z" fill="#212121"/>
<path d="M54.3487 17.2143C54.0724 16.816 53.5243 16.7279 53.1255 17.0096C52.7223 17.2913 52.6163 17.8414 52.8904 18.2375L53.8533 19.6283C54.019 19.8681 54.2866 19.9958 54.5596 19.9958C54.7379 19.9958 54.9175 19.943 55.0744 19.8307C55.4775 19.5491 55.5836 18.9989 55.3094 18.6028L54.3487 17.2143Z" fill="#212121"/>
<path d="M55.7414 14.948L57.2802 15.6544C57.7199 15.8547 57.9007 16.3784 57.6894 16.8229C57.5339 17.1464 57.2078 17.3378 56.8754 17.3378C56.7521 17.3378 56.6295 17.3114 56.5142 17.2586L54.9753 16.5522C54.5379 16.3498 54.3549 15.8282 54.5661 15.3859C54.7774 14.9414 55.3149 14.7478 55.7414 14.948Z" fill="#212121"/>
<path d="M57.5374 12.1508L55.8317 12.318C55.3463 12.3642 54.9813 12.7955 55.0177 13.2797C55.0527 13.7352 55.4252 14.0741 55.8742 14.0741C55.9028 14.0741 55.9292 14.0741 55.9602 14.0697L57.6659 13.9024C58.1513 13.8562 58.5163 13.4249 58.4798 12.9408C58.4455 12.4588 58.0604 12.1002 57.5374 12.1508Z" fill="#212121"/>
<path d="M55.0649 11.6229C54.7919 11.6229 54.5243 11.4952 54.3586 11.2554C54.0866 10.8593 54.1926 10.3091 54.5914 10.0253L56.0072 9.03061C56.406 8.74894 56.9541 8.83697 57.2304 9.23527C57.5046 9.63137 57.3986 10.1815 56.9954 10.4632L55.5796 11.4578C55.4228 11.5701 55.2432 11.6229 55.0649 11.6229Z" fill="#212121"/>
<path d="M53.9441 9.41985L54.6892 7.86185C54.9004 7.41954 54.7174 6.89801 54.28 6.69555C53.8447 6.4931 53.316 6.68895 53.1047 7.13347L52.3596 8.69146C52.1484 9.13378 52.3314 9.65531 52.7689 9.85776C52.8864 9.91057 53.0069 9.93698 53.1301 9.93698C53.4648 9.93478 53.7887 9.74333 53.9441 9.41985Z" fill="#212121"/>
<path fill-rule="evenodd" clip-rule="evenodd" d="M36 36.4999C36 38.9852 33.9853 40.9999 31.5 40.9999C29.0147 40.9999 27 38.9852 27 36.4999C27 34.0146 29.0147 31.9999 31.5 31.9999C33.9853 31.9999 36 34.0146 36 36.4999ZM34 36.4999C34 37.8806 32.8807 38.9999 31.5 38.9999C30.1193 38.9999 29 37.8806 29 36.4999C29 35.1192 30.1193 33.9999 31.5 33.9999C32.8807 33.9999 34 35.1192 34 36.4999Z" fill="#212121"/>
<path fill-rule="evenodd" clip-rule="evenodd" d="M33.6945 27.2546L26.6001 17.4999H34.6962C34.8002 17.5625 34.9076 17.6199 35.0183 17.6717C34.7208 18.1133 34.5949 18.6813 34.7591 19.2941L35.4798 21.9836C35.6171 22.496 35.9523 22.9328 36.4116 23.198L43.7601 27.4407C44.7167 27.993 45.9399 27.6652 46.4921 26.7086L46.9539 25.9089C47.4676 25.0191 47.2235 23.8847 46.3892 23.285L38.3243 17.4874C38.9815 17.0853 39.4957 16.4723 39.7729 15.7427L47.6663 22.2009C48.4616 22.8515 49.6205 22.7937 50.347 22.0672L51 21.4142C51.781 20.6332 51.781 19.3668 51 18.5858L45 12.5858C44.6249 12.2107 44.1162 12 43.5858 12H40.8014C40.2299 12 39.7544 12.218 39.4102 12.5548C38.7823 11.6172 37.7132 10.9999 36.5 10.9999C35.58 10.9999 34.743 11.3548 34.1183 11.9352L21.979 10.201C21.5133 10.0713 21.0228 10.0014 20.5161 9.99991C20.5043 9.9997 20.4926 9.99971 20.4808 9.99992C17.4521 10.0102 15 12.4687 15 15.4999C15 17.518 16.087 19.2823 17.7074 20.2392L22.5486 33.3105C22.1934 34.3074 22 35.381 22 36.4999C22 38.5552 22.6527 40.458 23.7621 42.0125L19.4854 47.9999H19C17.8954 47.9999 17 48.8953 17 49.9999V51.9999C17 53.1045 17.8954 53.9999 19 53.9999H45C46.1046 53.9999 47 53.1045 47 51.9999V49.9999C47 48.8953 46.1046 47.9999 45 47.9999H44.4599L39.2786 41.955C40.3633 40.4112 41 38.5299 41 36.4999C41 32.0085 37.8832 28.2451 33.6945 27.2546ZM20.4333 12.0005C18.5311 12.0361 17 13.5892 17 15.4999C17 16.7952 17.7037 17.9263 18.7497 18.5315C18.8867 18.5669 19.0153 18.6312 19.126 18.7199C19.5479 18.9001 20.0123 18.9999 20.5 18.9999C22.433 18.9999 24 17.4329 24 15.4999C24 13.9325 22.9698 12.6058 21.5495 12.16L20.4333 12.0005ZM25.2262 12.6852C25.7176 13.5086 26 14.4713 26 15.4999H33.1449C33.0506 15.183 33 14.8474 33 14.4999C33 14.2622 33.0237 14.03 33.0689 13.8056L25.2262 12.6852ZM45 49.9999V51.9999H19V49.9999H19.9864C19.9949 50 20.0034 50 20.0119 49.9999H45ZM37.9484 43.4762L41.8258 47.9999H21.9432L25.1259 43.5442C26.8114 45.0703 29.0471 45.9999 31.5 45.9999C33.989 45.9999 36.2545 45.0426 37.9484 43.4762ZM36.5 15.9999C36.1671 15.9999 35.8595 15.8914 35.6106 15.7079L35.5998 15.6997L35.5894 15.6919C35.2311 15.4178 35 14.9858 35 14.4999C35 14.1686 35.1074 13.8625 35.2892 13.6143C35.2941 13.6081 35.2989 13.6018 35.3036 13.5954C35.3061 13.5921 35.3085 13.5887 35.3109 13.5854C35.5852 13.2293 36.0158 12.9999 36.5 12.9999C37.3284 12.9999 38 13.6715 38 14.4999C38 15.3283 37.3284 15.9999 36.5 15.9999ZM20.1171 20.9868C20.2436 20.9955 20.3713 20.9999 20.5 20.9999C22.3519 20.9999 23.99 20.0846 24.9867 18.6818L31.044 27.0106C28.0642 27.1514 25.4437 28.6651 23.801 30.9332L20.1171 20.9868ZM39 36.4999C39 40.642 35.6421 43.9999 31.5 43.9999C27.3579 43.9999 24 40.642 24 36.4999C24 32.3577 27.3579 28.9999 31.5 28.9999C35.6421 28.9999 39 32.3577 39 36.4999ZM40.8014 14H43.5858L49.5858 20L48.9328 20.653L40.8014 14ZM36.691 18.7765L45.2218 24.9089L44.7601 25.7086L37.4116 21.466L36.691 18.7765Z" fill="#212121"/>
</svg>
