<svg width="64" height="64" viewBox="0 0 64 64" fill="none" xmlns="http://www.w3.org/2000/svg">
<path fill-rule="evenodd" clip-rule="evenodd" d="M52.6738 7.4566C52.6451 7.461 52.6165 7.461 52.5878 7.461C52.1388 7.461 51.7642 7.11991 51.7292 6.66659L51.6039 4.96556C51.5674 4.48144 51.9325 4.05013 52.4179 4.00391C52.9055 3.9555 53.3282 4.31199 53.3625 4.79392L53.4878 6.49495C53.5243 6.97907 53.1592 7.41038 52.6738 7.4566ZM11.0001 11.9995C11.0001 10.8949 11.8955 9.99951 13.0001 9.99951H22.0001C22.015 9.99951 22.0299 9.99967 22.0447 10H27.5859C28.1163 10 28.625 10.2107 29.0001 10.5858L29.3233 10.909C29.6801 10.3615 30.2978 9.99951 31.0001 9.99951H33.0001C33.7024 9.99951 34.3201 10.3615 34.6769 10.909L35.0001 10.5858C35.3752 10.2107 35.8839 10 36.4143 10H41.9554C41.9703 9.99967 41.9852 9.99951 42.0001 9.99951H51.0001C52.1047 9.99951 53.0001 10.8949 53.0001 11.9995L53.0001 13.9995C53.0001 14.7466 52.5905 15.398 51.9836 15.7414C51.9945 15.8259 52.0001 15.912 52.0001 15.9995L52.0001 16.9995C52.0001 18.1041 51.1047 18.9995 50.0001 18.9995H43.0001C41.8955 18.9995 41.0001 18.1041 41.0001 16.9995L41.0001 15.9995C41.0001 15.912 41.0057 15.8259 41.0166 15.7414C40.4097 15.398 40.0001 14.7466 40.0001 13.9995L40.0001 12H36.4143L35.0001 13.4142L35.0001 39.9995C35.0001 40.087 34.9945 40.1731 34.9836 40.2576C35.5905 40.601 36.0001 41.2524 36.0001 41.9995L36.0001 47.9995H41.0001C42.1047 47.9995 43.0001 48.8949 43.0001 49.9995L43.0001 51.9995C43.0001 53.1041 42.1047 53.9995 41.0001 53.9995H23.0001C21.8955 53.9995 21.0001 53.1041 21.0001 51.9995L21.0001 49.9995C21.0001 48.8949 21.8955 47.9995 23.0001 47.9995H28.0001L28.0001 41.9995C28.0001 41.2524 28.4097 40.601 29.0166 40.2576C29.0057 40.1731 29.0001 40.087 29.0001 39.9995L29.0001 13.4142L27.5859 12H24.0001L24.0001 13.9995C24.0001 14.7466 23.5905 15.398 22.9836 15.7414C22.9945 15.8259 23.0001 15.912 23.0001 15.9995L23.0001 16.9995C23.0001 18.1041 22.1047 18.9995 21.0001 18.9995H14.0001C12.8955 18.9995 12.0001 18.1041 12.0001 16.9995L12.0001 15.9995C12.0001 15.912 12.0057 15.8259 12.0166 15.7414C11.4097 15.398 11.0001 14.7466 11.0001 13.9995L11.0001 11.9995ZM20.0001 11.9995L20.0001 12H22.0001L22.0001 13.9995H21.0001H14.0001H13.0001L13.0001 11.9995H20.0001ZM42.0001 12L42.0001 13.9995H43.0001H50.0001H51.0001L51.0001 11.9995H44.0001L44.0001 12H42.0001ZM14.0001 15.9995L14.0001 16.9995H21.0001L21.0001 15.9995H14.0001ZM33.0001 39.9995H31.0001L31.0001 11.9995L33.0001 11.9995L33.0001 39.9995ZM31.0001 41.9995H33.0001H34.0001L34.0001 47.9995H30.0001L30.0001 41.9995H31.0001ZM30.0001 49.9995H23.0001L23.0001 51.9995H41.0001L41.0001 49.9995H34.0001H30.0001ZM50.0001 15.9995H43.0001L43.0001 16.9995H50.0001L50.0001 15.9995ZM49.4098 7.96056C49.5756 8.20042 49.8432 8.32806 50.1162 8.32806C50.2945 8.32806 50.4741 8.27524 50.6309 8.16301C51.0341 7.88134 51.1401 7.3312 50.866 6.9351L49.9054 5.54435C49.6312 5.14604 49.0809 5.05802 48.6821 5.33969C48.2789 5.62137 48.1729 6.17151 48.4471 6.56761L49.4098 7.96056ZM55.1255 15.0091C55.5243 14.7275 56.0724 14.8155 56.3487 15.2138L57.3094 16.6023C57.5836 16.9984 57.4775 17.5486 57.0743 17.8303C56.9175 17.9425 56.7379 17.9953 56.5596 17.9953C56.2866 17.9953 56.019 17.8677 55.8533 17.6278L54.8904 16.237C54.6163 15.8409 54.7223 15.2908 55.1255 15.0091ZM59.2802 13.6539L57.7413 12.9475C57.3148 12.7473 56.7774 12.9409 56.5661 13.3854C56.3548 13.8278 56.5379 14.3493 56.9753 14.5517L58.5141 15.2581C58.6295 15.3109 58.7521 15.3373 58.8754 15.3373C59.2078 15.3373 59.5339 15.1459 59.6894 14.8224C59.9006 14.3779 59.7199 13.8542 59.2802 13.6539ZM57.8317 10.3175L59.5374 10.1503C60.0603 10.0997 60.4455 10.4584 60.4798 10.9403C60.5163 11.4244 60.1512 11.8557 59.6658 11.9019L57.9601 12.0692C57.9292 12.0736 57.9028 12.0736 57.8742 12.0736C57.4251 12.0736 57.0527 11.7347 57.0177 11.2792C56.9812 10.795 57.3463 10.3637 57.8317 10.3175ZM56.3585 9.2549C56.5243 9.49476 56.7919 9.62239 57.0648 9.62239C57.2431 9.62239 57.4228 9.56958 57.5796 9.45735L58.9953 8.46269C59.3985 8.18102 59.5046 7.63088 59.2304 7.23478C58.9541 6.83648 58.4059 6.74845 58.0072 7.03013L56.5914 8.02478C56.1926 8.30865 56.0865 8.85879 56.3585 9.2549ZM56.6892 5.86136L55.9441 7.41936C55.7886 7.74284 55.4647 7.93429 55.1301 7.93649C55.0068 7.93649 54.8864 7.91009 54.7688 7.85727C54.3314 7.65482 54.1484 7.13329 54.3596 6.69097L55.1047 5.13298C55.316 4.68846 55.8447 4.49261 56.2799 4.69507C56.7174 4.89752 56.9004 5.41905 56.6892 5.86136Z" fill="#212121"/>
</svg>
