<svg width="64" height="64" viewBox="0 0 64 64" fill="none" xmlns="http://www.w3.org/2000/svg">
<path fill-rule="evenodd" clip-rule="evenodd" d="M32.0739 16.498C31.4187 16.0811 30.5815 16.0811 29.9264 16.498L21.4065 21.9197V18.3999C21.4065 17.8476 20.9588 17.3999 20.4065 17.3999H16.4065C15.8542 17.3999 15.4065 17.8476 15.4065 18.3999V25.7379L8.46325 30.1563C7.99731 30.4528 7.85996 31.0709 8.15646 31.5369C8.45297 32.0028 9.07106 32.1402 9.537 31.8437L13.0002 29.6398V54.0966C13.0002 55.2012 13.8957 56.0966 15.0002 56.0966H47.0002C48.1048 56.0966 49.0002 55.2012 49.0002 54.0966V29.6399L52.4632 31.8437C52.9292 32.1402 53.5473 32.0028 53.8438 31.5369C54.1403 31.0709 54.0029 30.4528 53.537 30.1563L32.0739 16.498ZM15.0002 54.0966V28.367L31.0001 18.1853L47.0002 28.3672V54.0966H38.0002V44.2321C38.0002 44.2321 38.0002 37 31.0002 37C24.0002 37 24.0002 44.2321 24.0002 44.2321V54.0966H15.0002ZM17.4065 24.4652L19.4065 23.1924V19.3999H17.4065V24.4652ZM35.9996 44.2154L36.0002 44.2414V54H26.0002V44.2414L26.0009 44.2154C26.0019 44.1853 26.0041 44.1321 26.0092 44.0593C26.0193 43.913 26.0404 43.6915 26.0841 43.4206C26.1731 42.8692 26.3472 42.1657 26.6755 41.4873C27.0007 40.8153 27.454 40.2137 28.0879 39.7771C28.7059 39.3514 29.6139 39 31.0002 39C32.3866 39 33.2946 39.3514 33.9126 39.7771C34.5465 40.2137 34.9998 40.8153 35.325 41.4873C35.6533 42.1657 35.8274 42.8692 35.9164 43.4206C35.9601 43.6915 35.9812 43.913 35.9913 44.0593C35.9964 44.1321 35.9986 44.1853 35.9996 44.2154Z" fill="#0B0D0E"/>
<path fill-rule="evenodd" clip-rule="evenodd" d="M47.181 7.42654C47.4977 6.97409 48.1213 6.86405 48.5737 7.18077L58.5737 14.1808C59.0262 14.4975 59.1362 15.121 58.8195 15.5735C58.5028 16.0259 57.8792 16.1359 57.4268 15.8192L47.4268 8.81923C46.9743 8.50252 46.8643 7.87899 47.181 7.42654Z" fill="#0B0D0E"/>
<path fill-rule="evenodd" clip-rule="evenodd" d="M47.181 15.5735C46.8643 15.121 46.9743 14.4975 47.4268 14.1808L57.4268 7.18077C57.8792 6.86406 58.5028 6.97409 58.8195 7.42654C59.1362 7.87899 59.0262 8.50252 58.5737 8.81923L48.5737 15.8192C48.1213 16.1359 47.4977 16.0259 47.181 15.5735Z" fill="#0B0D0E"/>
<path fill-rule="evenodd" clip-rule="evenodd" d="M53.0002 5C53.5525 5 54.0002 5.44772 54.0002 6V17.0897C54.0002 17.642 53.5525 18.0897 53.0002 18.0897C52.448 18.0897 52.0002 17.642 52.0002 17.0897V6C52.0002 5.44772 52.448 5 53.0002 5Z" fill="#0B0D0E"/>
</svg>
