<svg width="64" height="64" viewBox="0 0 64 64" fill="none" xmlns="http://www.w3.org/2000/svg">
<path fill-rule="evenodd" clip-rule="evenodd" d="M53.5331 4.12632L50.1169 10.0755C49.3115 11.478 50.3273 13.2269 51.9454 13.2212L52.4782 13.2193L52.0299 15.4017C51.5326 17.8228 54.7899 19.0975 56.0679 16.9819L59.67 11.0194C60.5173 9.61694 59.5036 7.82773 57.8652 7.83349L57.1993 7.83583L57.605 5.61771C58.0499 3.18581 54.7642 1.98235 53.5331 4.12632ZM55.2675 5.12226C55.3794 4.92736 55.6781 5.03676 55.6377 5.25785L55.0153 8.66012C54.9692 8.91233 55.0215 9.15631 55.1424 9.35632C55.2721 9.57079 55.4806 9.73469 55.731 9.80396C55.8077 9.82516 55.8883 9.8375 55.9718 9.8397C55.982 9.83997 55.9922 9.84009 56.0025 9.84005L57.8722 9.83348C57.9502 9.8332 57.9985 9.9184 57.9582 9.98519L54.3561 15.9478C54.2399 16.1401 53.9438 16.0242 53.989 15.8041L54.6849 12.4162C54.7364 12.1655 54.6897 11.9213 54.574 11.7192C54.457 11.5151 54.2697 11.354 54.042 11.2728C53.9771 11.2496 53.9089 11.233 53.8382 11.2236C53.7937 11.2178 53.7482 11.2148 53.7018 11.215L51.9383 11.2212C51.8613 11.2215 51.8129 11.1382 51.8513 11.0714L55.2675 5.12226Z" fill="#0B0D0E"/>
<path fill-rule="evenodd" clip-rule="evenodd" d="M16.2588 16.9859C15.7065 16.9859 15.2588 17.4336 15.2588 17.9859V58.0192C15.2588 58.5715 15.7065 59.0192 16.2588 59.0192H42.2284C42.7807 59.0192 43.2284 58.5715 43.2284 58.0192V17.9859C43.2284 17.4336 42.7807 16.9859 42.2284 16.9859H39.2491C39.2074 16.9174 39.157 16.8532 39.0983 16.7952L34.5226 12.2679C34.3353 12.0826 34.0826 11.9787 33.8192 11.9787H24.6678C24.4044 11.9787 24.1517 12.0826 23.9644 12.2679L19.3887 16.7952C19.33 16.8532 19.2796 16.9174 19.2379 16.9859H16.2588ZM41.2284 32.7714V29.1682H30.2437V32.7714H41.2284ZM28.2437 32.7714V29.1682H17.2588V32.7714H28.2437ZM17.2588 34.7714H41.2284V53.2937H36.243L36.2435 53.2707L36.2437 53.2435V43.2435C36.2437 42.139 35.3482 41.2435 34.2437 41.2435H24.2437C23.1391 41.2435 22.2437 42.139 22.2437 43.2435V53.2435C22.2437 53.2603 22.2439 53.277 22.2443 53.2937H17.2588V34.7714ZM17.2588 26.8486V23.2454H28.2437V26.8486H17.2588ZM30.2437 26.8486V23.2454H41.228V26.8486H30.2437ZM17.2588 21.2454H41.2284V18.9859H17.2588V21.2454ZM17.2588 55.2937V57.0192H41.2284V55.2937H17.2588ZM24.2437 43.2435V53.2435H34.2437V43.2435H24.2437ZM22.5245 16.506L25.0789 13.9787H33.4081L35.9625 16.506H22.5245Z" fill="#0B0D0E"/>
<path d="M47.6537 7.38732C47.93 7.78562 48.4782 7.87364 48.877 7.59197C49.2801 7.31029 49.3862 6.76015 49.112 6.36405L48.1492 4.9733C47.9834 4.73344 47.7158 4.6058 47.4429 4.6058C47.2646 4.6058 47.085 4.65862 46.9281 4.77085C46.5249 5.05252 46.4189 5.60266 46.6931 5.99876L47.6537 7.38732Z" fill="#0B0D0E"/>
<path d="M46.2626 9.65344L44.7237 8.94706C44.284 8.74681 44.1033 8.22307 44.3146 7.77856C44.47 7.45508 44.7961 7.26363 45.1285 7.26363C45.2518 7.26363 45.3744 7.29004 45.4898 7.34285L47.0286 8.04923C47.466 8.25168 47.6491 8.77321 47.4378 9.21553C47.2265 9.66004 46.6891 9.85369 46.2626 9.65344Z" fill="#0B0D0E"/>
<path d="M44.4655 12.4507L46.1712 12.2835C46.6566 12.2372 47.0217 11.8059 46.9852 11.3218C46.9502 10.8663 46.5778 10.5274 46.1287 10.5274C46.1001 10.5274 46.0737 10.5274 46.0428 10.5318L44.3371 10.6991C43.8517 10.7453 43.4866 11.1766 43.5231 11.6607C43.5574 12.1426 43.9426 12.5013 44.4655 12.4507Z" fill="#0B0D0E"/>
<path d="M46.9381 12.9787C47.211 12.9787 47.4786 13.1063 47.6444 13.3462C47.9164 13.7423 47.8103 14.2924 47.4115 14.5763L45.9958 15.571C45.597 15.8526 45.0489 15.7646 44.7725 15.3663C44.4984 14.9702 44.6044 14.4201 45.0076 14.1384L46.4233 13.1438C46.5802 13.0315 46.7598 12.9787 46.9381 12.9787Z" fill="#0B0D0E"/>
<path d="M48.0593 15.1817L47.3142 16.7397C47.103 17.182 47.286 17.7036 47.7235 17.906C48.1587 18.1085 48.6875 17.9126 48.8987 17.4681L49.6438 15.9101C49.8551 15.4678 49.672 14.9463 49.2346 14.7438C49.117 14.691 48.9966 14.6646 48.8733 14.6646C48.5387 14.6668 48.2148 14.8583 48.0593 15.1817Z" fill="#0B0D0E"/>
</svg>
