<svg width="64" height="64" viewBox="0 0 64 64" fill="none" xmlns="http://www.w3.org/2000/svg">
<path fill-rule="evenodd" clip-rule="evenodd" d="M51.1669 9.94204L54.5831 3.9929C55.8142 1.84893 59.0998 3.05238 58.655 5.48429L58.2493 7.70241L58.9152 7.70007C60.5536 7.69431 61.5672 9.48351 60.72 10.8859L57.1179 16.8485C55.8399 18.9641 52.5825 17.6893 53.0799 15.2682L53.5282 13.0859L52.9954 13.0878C51.3773 13.0935 50.3615 11.3445 51.1669 9.94204ZM56.3175 4.98884L52.9013 10.938C52.8629 11.0048 52.9113 11.0881 52.9883 11.0878L54.7518 11.0816C54.7982 11.0814 54.8437 11.0844 54.8881 11.0902C54.9589 11.0995 55.0271 11.1162 55.0919 11.1393C55.3196 11.2205 55.507 11.3816 55.624 11.5858C55.7397 11.7879 55.7864 12.0321 55.7349 12.2828L55.039 15.6707C54.9937 15.8908 55.2899 16.0067 55.4061 15.8143L59.0082 9.85176C59.0485 9.78498 59.0002 9.69978 58.9222 9.70006L57.0525 9.70663C57.0455 9.70665 57.0386 9.7066 57.0317 9.70649C57.0284 9.70643 57.0251 9.70636 57.0218 9.70628C56.9383 9.70408 56.8577 9.69174 56.781 9.67054C56.5306 9.60127 56.3221 9.43737 56.1924 9.2229C56.0715 9.02289 56.0192 8.7789 56.0653 8.5267L56.6876 5.12442C56.7281 4.90334 56.4294 4.79394 56.3175 4.98884Z" fill="#0B0D0E"/>
<path d="M49.9269 7.45844C49.5281 7.74012 48.98 7.6521 48.7037 7.25379L47.743 5.86524C47.4688 5.46914 47.5749 4.919 47.978 4.63732C48.1349 4.52509 48.3145 4.47228 48.4928 4.47228C48.7658 4.47228 49.0334 4.59991 49.1991 4.83978L50.162 6.23053C50.4361 6.62663 50.3301 7.17677 49.9269 7.45844Z" fill="#0B0D0E"/>
<path d="M47.3125 9.51992L45.7737 8.81354C45.334 8.61329 45.1532 8.08955 45.3645 7.64504C45.52 7.32156 45.8461 7.13011 46.1785 7.13011C46.3017 7.13011 46.4244 7.15651 46.5397 7.20933L48.0785 7.91571C48.516 8.11816 48.699 8.63969 48.4878 9.08201C48.2765 9.52652 47.739 9.72017 47.3125 9.51992Z" fill="#0B0D0E"/>
<path d="M47.2212 12.1499L45.5155 12.3172C44.9926 12.3678 44.6074 12.0091 44.5731 11.5272C44.5366 11.0431 44.9016 10.6117 45.3871 10.5655L47.0927 10.3983C47.1237 10.3939 47.1501 10.3939 47.1787 10.3939C47.6277 10.3939 48.0002 10.7328 48.0352 11.1883C48.0716 11.6724 47.7066 12.1037 47.2212 12.1499Z" fill="#0B0D0E"/>
<path d="M47.988 12.8452C48.261 12.8452 48.5286 12.9728 48.6944 13.2127C48.9663 13.6088 48.8603 14.1589 48.4615 14.4428L47.0457 15.4374C46.647 15.7191 46.0988 15.6311 45.8225 15.2328C45.5483 14.8367 45.6544 14.2866 46.0575 14.0049L47.4733 13.0102C47.6301 12.898 47.8097 12.8452 47.988 12.8452Z" fill="#0B0D0E"/>
<path d="M48.3642 16.6062L49.1093 15.0482C49.2647 14.7247 49.5886 14.5333 49.9233 14.5311C50.0465 14.5311 50.167 14.5575 50.2845 14.6103C50.722 14.8128 50.905 15.3343 50.6938 15.7766L49.9487 17.3346C49.7374 17.7791 49.2087 17.975 48.7734 17.7725C48.336 17.5701 48.153 17.0485 48.3642 16.6062Z" fill="#0B0D0E"/>
<path fill-rule="evenodd" clip-rule="evenodd" d="M29.9264 16.498C30.5815 16.0811 31.4187 16.0811 32.0739 16.498L41.7031 22.6257C43.3787 21.5938 45.3519 20.9985 47.4641 20.9985C53.54 20.9985 58.4656 25.9241 58.4656 32C58.4656 37.5546 54.349 42.1478 49.0002 42.8951V54.0966C49.0002 55.2012 48.1048 56.0966 47.0002 56.0966H15.0002C13.8957 56.0966 13.0002 55.2012 13.0002 54.0966V29.6398L9.537 31.8437C9.07106 32.1402 8.45297 32.0028 8.15646 31.5369C7.85996 31.0709 7.99731 30.4528 8.46325 30.1563L15.4065 25.7379V18.3999C15.4065 17.8476 15.8542 17.3999 16.4065 17.3999H20.4065C20.9588 17.3999 21.4065 17.8476 21.4065 18.3999V21.9197L29.9264 16.498ZM31.0001 18.1853L40.0035 23.9147C37.8262 25.9247 36.4626 28.8031 36.4626 32C36.4626 37.9205 41.1394 42.7488 47.0002 42.9918V54.0966H38.0002V44.2321C38.0002 44.2321 38.0002 37 31.0002 37C24.0002 37 24.0002 44.2321 24.0002 44.2321V54.0966H15.0002V28.367L31.0001 18.1853ZM19.4065 23.1924L17.4065 24.4652V19.3999H19.4065V23.1924ZM36.0002 44.2414L35.9996 44.2154C35.9986 44.1853 35.9964 44.1321 35.9913 44.0593C35.9812 43.913 35.9601 43.6915 35.9164 43.4206C35.8274 42.8692 35.6533 42.1657 35.325 41.4873C34.9998 40.8153 34.5465 40.2137 33.9126 39.7771C33.2946 39.3514 32.3866 39 31.0002 39C29.6139 39 28.7059 39.3514 28.0879 39.7771C27.454 40.2137 27.0007 40.8153 26.6755 41.4873C26.3472 42.1657 26.1731 42.8692 26.0841 43.4206C26.0404 43.6915 26.0193 43.913 26.0092 44.0593C26.0041 44.1321 26.0019 44.1853 26.0009 44.2154L26.0002 44.2414V54H36.0002V44.2414ZM47.4641 41.0014C52.4355 41.0014 56.4656 36.9714 56.4656 32C56.4656 27.0286 52.4355 22.9985 47.4641 22.9985C42.4927 22.9985 38.4626 27.0286 38.4626 32C38.4626 33.7991 38.9905 35.475 39.8997 36.8811C39.9702 36.8653 40.0436 36.857 40.1189 36.857H44.625C45.7953 36.857 46.7439 35.9084 46.7439 34.7381V28.8021L44.3782 31.5271C44.0161 31.9441 43.4291 31.9441 43.067 31.5271C42.705 31.11 42.705 30.4339 43.067 30.0168L47.0226 25.4605C47.421 25.0017 48.0668 25.0017 48.4652 25.4605L52.4208 30.0168C52.7828 30.4339 52.7828 31.11 52.4208 31.5271C52.0587 31.9441 51.4717 31.9441 51.1096 31.5271L48.7439 28.8022V34.7381C48.7439 37.0129 46.8998 38.857 44.625 38.857H41.6322C43.2031 40.1944 45.2394 41.0014 47.4641 41.0014Z" fill="#0B0D0E"/>
</svg>
