<svg width="64" height="64" viewBox="0 0 64 64" fill="none" xmlns="http://www.w3.org/2000/svg">
<path fill-rule="evenodd" clip-rule="evenodd" d="M43.783 28.0262C43.7911 27.5837 43.6507 27.1286 43.3274 26.7336L40.5479 23.3364C40.1262 22.821 39.558 22.5938 39 22.599V20C39 18.8954 38.1046 18 37 18H13C11.8954 18 11 18.8954 11 20V47C11 48.1046 11.8954 49 13 49H14C14 51.7614 16.2386 54 19 54C21.7614 54 24 51.7614 24 49H42C42 51.7614 44.2386 54 47 54C49.7614 54 52 51.7614 52 49H53C54.1046 49 55 48.1046 55 47V42.5099C55 41.9609 54.7743 41.4361 54.3759 41.0584L49.6726 36.6001C49.5326 36.4674 49.4126 36.3151 49.3162 36.148L45.1926 29.0006C44.89 28.476 44.3696 28.122 43.783 28.0262ZM37 20H13V47H14.416C15.1876 45.2341 16.9497 44 19 44C21.0503 44 22.8124 45.2341 23.584 47H37V20ZM41.7795 28H39V24.6028L41.7795 28ZM44 49C44 48.2316 44.2889 47.5308 44.7639 47C45.3132 46.3862 46.1115 46 47 46C47.8885 46 48.6868 46.3862 49.2361 47C49.7111 47.5308 50 48.2316 50 49C50 50.6569 48.6569 52 47 52C45.3431 52 44 50.6569 44 49ZM47 44C49.0503 44 50.8124 45.2341 51.584 47H53V45C51.8954 45 51 44.1046 51 43C51 42.3384 51.3212 41.7519 51.8162 41.3878L49.2972 39H41V30H39V47H42.416C43.1876 45.2341 44.9497 44 47 44ZM43 30V37H47.4987L43.4603 30H43ZM16 49C16 48.2316 16.2889 47.5308 16.7639 47C17.3132 46.3862 18.1115 46 19 46C19.8885 46 20.6868 46.3862 21.2361 47C21.7111 47.5308 22 48.2316 22 49C22 50.6569 20.6569 52 19 52C17.3431 52 16 50.6569 16 49Z" fill="#0B0D0E"/>
<path fill-rule="evenodd" clip-rule="evenodd" d="M49 3C49 2.44772 49.4477 2 50 2H58C58.5523 2 59 2.44772 59 3C59 3.55228 58.5523 4 58 4V6C59.1046 6 60 6.89543 60 8V18C60 19.1046 59.1046 20 58 20H50C48.8954 20 48 19.1046 48 18V8C48 6.89543 48.8954 6 50 6V4C49.4477 4 49 3.55228 49 3ZM50 9C50 8.44772 50.4477 8 51 8H57C57.5523 8 58 8.44772 58 9V10.0193H50V9ZM50 12.0193V14H58V12.0193H50ZM50 16H58V17C58 17.5523 57.5523 18 57 18H51C50.4477 18 50 17.5523 50 17V16ZM56 4H52V6H56V4Z" fill="#0B0D0E"/>
</svg>
