<svg width="64" height="64" viewBox="0 0 64 64" fill="none" xmlns="http://www.w3.org/2000/svg">
<path fill-rule="evenodd" clip-rule="evenodd" d="M17.6477 15L10.4282 52H39.5136L31.3916 15H17.6477ZM16.8239 13C16.3455 13 15.9341 13.3389 15.8425 13.8085L8.2327 52.8085C8.11222 53.426 8.58506 54 9.21419 54H40.7569C41.3956 54 41.8706 53.4094 41.7336 52.7856L33.1727 13.7856C33.072 13.3268 32.6656 13 32.1959 13H16.8239Z" fill="#0B0D0E"/>
<path fill-rule="evenodd" clip-rule="evenodd" d="M37.8584 35L41.6072 52H53.9998V35H37.8584ZM36.6139 33C35.9748 33 35.4997 33.5913 35.6374 34.2153L39.8272 53.2153C39.9282 53.6736 40.3344 54 40.8037 54H54.9998C55.5521 54 55.9998 53.5523 55.9998 53V34C55.9998 33.4477 55.5521 33 54.9998 33H36.6139Z" fill="#0B0D0E"/>
<path fill-rule="evenodd" clip-rule="evenodd" d="M49.0002 22V33H52.0002V22H49.0002ZM48.0002 20C47.4479 20 47.0002 20.4477 47.0002 21V34C47.0002 34.5523 47.4479 35 48.0002 35H53.0002C53.5525 35 54.0002 34.5523 54.0002 34V21C54.0002 20.4477 53.5525 20 53.0002 20H48.0002Z" fill="#0B0D0E"/>
<path fill-rule="evenodd" clip-rule="evenodd" d="M40.0002 27V33H43.0002V27H40.0002ZM39.0002 25C38.4479 25 38.0002 25.4477 38.0002 26V34C38.0002 34.5523 38.4479 35 39.0002 35H44.0002C44.5525 35 45.0002 34.5523 45.0002 34V26C45.0002 25.4477 44.5525 25 44.0002 25H39.0002Z" fill="#0B0D0E"/>
<path fill-rule="evenodd" clip-rule="evenodd" d="M31.7399 38.1865L31.6358 37.928C31.439 37.439 31.0676 36.9714 30.4446 36.3935C30.1728 36.1412 29.8875 35.8982 29.5636 35.6224C29.514 35.5801 29.4635 35.5371 29.412 35.4932C29.0405 35.1762 28.6244 34.8171 28.2259 34.4245C26.5 32.7245 25.3027 30.5248 24.9112 28.0946C22.3027 30.1576 21.3332 33.2839 22.0315 36.1551C22.2509 37.0573 21.9602 37.9741 21.3347 38.5764C20.6585 39.2277 19.5447 39.5193 18.5128 38.9598C18.4097 38.9039 18.2708 38.8225 18.1268 38.714C18.0799 38.9369 18.0456 39.1644 18.0245 39.3961C17.7172 42.7803 20.4437 46.0407 24.4547 46.4049C25.2317 46.4755 25.9852 46.4284 26.6964 46.2818L26.7606 46.2686L26.8745 46.2528C29.6567 45.6496 31.7459 43.2766 31.9981 40.4996C32.0708 39.6986 31.9765 38.919 31.7399 38.1865ZM27.2191 48.2242L27.1001 48.2407C26.1978 48.4266 25.2473 48.4851 24.2738 48.3967C19.3028 47.9453 15.6132 43.8346 16.0327 39.2152C16.1126 38.3355 16.3357 37.5008 16.679 36.729C16.7031 36.6748 16.7279 36.6208 16.7532 36.5671C16.8784 36.3018 17.018 36.0443 17.1709 35.7952C17.2702 35.6334 17.3752 35.4752 17.4856 35.3207C17.5003 35.3002 17.5151 35.2797 17.5299 35.2593C17.6115 35.1474 17.7214 35.0911 17.8361 35.0803C18.0751 35.0579 18.3343 35.2332 18.3987 35.5147C18.42 35.6081 18.444 35.6996 18.4708 35.7888C18.4919 35.859 18.5148 35.9277 18.5395 35.9949C18.553 36.0318 18.5671 36.0682 18.5818 36.1042C18.6697 36.3192 18.7782 36.5175 18.9113 36.6946C18.9215 36.7082 18.9318 36.7216 18.9423 36.735C18.9809 36.784 19.0214 36.8313 19.064 36.8769C19.145 36.9633 19.2333 37.0433 19.3296 37.1161C19.3671 37.1445 19.4137 37.1732 19.4661 37.2016C19.824 37.3957 20.1844 37.0234 20.0882 36.6278C20.0559 36.4953 20.0266 36.3624 20 36.2293C19.9994 36.2263 19.9988 36.2233 19.9982 36.2203C19.9352 35.9028 19.8882 35.5836 19.8572 35.2638C19.8546 35.2369 19.8521 35.21 19.8497 35.1831C19.8147 34.7875 19.804 34.3911 19.8175 33.9959C19.9144 31.1633 21.2534 28.3941 23.7653 26.4519C24.0957 26.1964 24.4376 25.9621 24.7891 25.7486C24.8025 25.7405 24.8158 25.7324 24.8292 25.7244C24.9388 25.6585 25.0493 25.5947 25.1606 25.5328C25.2355 25.4912 25.3109 25.4505 25.3866 25.4107C25.5841 25.3069 25.7841 25.2094 25.9863 25.118C26.0475 25.0903 26.109 25.0632 26.1706 25.0367C26.4992 24.8953 26.8417 25.1836 26.8094 25.5399C26.8057 25.5799 26.8024 25.6198 26.7993 25.6598C26.7791 25.92 26.7704 26.1788 26.7727 26.4356C26.7741 26.589 26.7794 26.7418 26.7885 26.8937M26.7885 26.8937C26.7894 26.9077 26.7903 26.9218 26.7912 26.9358C26.7915 26.9401 26.7917 26.9444 26.792 26.9486C26.9457 29.2581 27.9895 31.3843 29.6294 32.9997C30.0176 33.3821 30.438 33.74 30.8574 34.0972C31.9194 35.0015 32.9758 35.9011 33.4911 37.181L33.5099 37.1924C33.9229 38.2803 34.1005 39.4626 33.9899 40.6805C33.6556 44.3607 30.8885 47.4652 27.2191 48.2242" fill="#0B0D0E"/>
</svg>
