<svg width="64" height="64" viewBox="0 0 64 64" fill="none" xmlns="http://www.w3.org/2000/svg">
<path d="M52.6154 3.00006C53.1677 3.00006 53.6154 3.44778 53.6154 4.00006V9.55244C53.6154 11.3788 52.1333 12.8572 50.3077 12.8572C48.4821 12.8572 47 11.3788 47 9.55244C47 8.42627 47.5647 7.43246 48.4214 6.8375C48.875 6.52247 49.4981 6.63483 49.8131 7.08845C50.1282 7.54207 50.0158 8.16519 49.5622 8.48022C49.2201 8.71782 49 9.10978 49 9.55244C49 10.2718 49.5843 10.8572 50.3077 10.8572C51.0311 10.8572 51.6154 10.2718 51.6154 9.55244V4.00006C51.6154 3.44778 52.0631 3.00006 52.6154 3.00006Z" fill="#0B0D0E"/>
<path fill-rule="evenodd" clip-rule="evenodd" d="M23 21.0001C23 20.4478 23.4477 20.0001 24 20.0001H30C30.5523 20.0001 31 20.4478 31 21.0001V27.0001C31 27.5523 30.5523 28.0001 30 28.0001H24C23.4477 28.0001 23 27.5523 23 27.0001V21.0001ZM25 26.0001V22.0001H29V26.0001H25Z" fill="#0B0D0E"/>
<path fill-rule="evenodd" clip-rule="evenodd" d="M24 30.0001C23.4477 30.0001 23 30.4478 23 31.0001V37.0001C23 37.5523 23.4477 38.0001 24 38.0001H30C30.5523 38.0001 31 37.5523 31 37.0001V31.0001C31 30.4478 30.5523 30.0001 30 30.0001H24ZM25 32.0001V36.0001H29V32.0001H25Z" fill="#0B0D0E"/>
<path fill-rule="evenodd" clip-rule="evenodd" d="M33 21.0001C33 20.4478 33.4477 20.0001 34 20.0001H40C40.5523 20.0001 41 20.4478 41 21.0001V27.0001C41 27.5523 40.5523 28.0001 40 28.0001H34C33.4477 28.0001 33 27.5523 33 27.0001V21.0001ZM35 26.0001V22.0001H39V26.0001H35Z" fill="#0B0D0E"/>
<path fill-rule="evenodd" clip-rule="evenodd" d="M34 30.0001C33.4477 30.0001 33 30.4478 33 31.0001V37.0001C33 37.5523 33.4477 38.0001 34 38.0001H40C40.5523 38.0001 41 37.5523 41 37.0001V31.0001C41 30.4478 40.5523 30.0001 40 30.0001H34ZM35 32.0001V36.0001H39V32.0001H35Z" fill="#0B0D0E"/>
<path fill-rule="evenodd" clip-rule="evenodd" d="M23 11.0001V14.0001H20C18.8954 14.0001 18 14.8955 18 16.0001V54.0001C18 55.1046 18.8954 56.0001 20 56.0001H44C45.1046 56.0001 46 55.1046 46 54.0001V16.0001C46 14.8955 45.1046 14.0001 44 14.0001H41V11.0001C41 9.89549 40.1046 9.00006 39 9.00006H25C23.8954 9.00006 23 9.89549 23 11.0001ZM39 11.0001H25V14.0001H39L39 11.0001ZM39 54.0001H44V16.0001H20V54.0001H25V44.0001C25 42.8955 25.8954 42.0001 27 42.0001H37C38.1046 42.0001 39 42.8955 39 44.0001V54.0001ZM27 54.0001H37V44.0001H27V54.0001Z" fill="#0B0D0E"/>
<path d="M54.3846 4.00006C54.3846 3.44778 54.8323 3.00006 55.3846 3.00006C55.9369 3.00006 56.3846 3.44778 56.3846 4.00006V12.7143C56.3846 13.4154 56.961 14.0001 57.6923 14.0001C58.4236 14.0001 59 13.4154 59 12.7143C59 12.2818 58.7832 11.8957 58.441 11.66C57.9862 11.3467 57.8714 10.724 58.1847 10.2692C58.4979 9.81435 59.1206 9.69958 59.5754 10.0128C60.432 10.6028 61 11.591 61 12.7143C61 14.538 59.5101 16.0001 57.6923 16.0001C55.8746 16.0001 54.3846 14.538 54.3846 12.7143V4.00006Z" fill="#0B0D0E"/>
</svg>
