<svg width="64" height="64" viewBox="0 0 64 64" fill="none" xmlns="http://www.w3.org/2000/svg">
<path d="M52.6154 3C53.1677 3 53.6154 3.44772 53.6154 4V9.55238C53.6154 11.3787 52.1333 12.8571 50.3077 12.8571C48.4821 12.8571 47 11.3787 47 9.55238C47 8.42621 47.5647 7.43239 48.4214 6.83744C48.875 6.52241 49.4981 6.63477 49.8131 7.08839C50.1282 7.54201 50.0158 8.16513 49.5622 8.48016C49.2201 8.71776 49 9.10972 49 9.55238C49 10.2718 49.5843 10.8571 50.3077 10.8571C51.0311 10.8571 51.6154 10.2718 51.6154 9.55238V4C51.6154 3.44772 52.0631 3 52.6154 3Z" fill="#0B0D0E"/>
<path d="M55.3846 3C54.8323 3 54.3846 3.44772 54.3846 4V12.7143C54.3846 14.5379 55.8746 16 57.6923 16C59.5101 16 61 14.5379 61 12.7143C61 11.591 60.432 10.6027 59.5754 10.0128C59.1206 9.69952 58.4979 9.81429 58.1847 10.2691C57.8714 10.724 57.9862 11.3467 58.441 11.6599C58.7832 11.8956 59 12.2817 59 12.7143C59 13.4154 58.4236 14 57.6923 14C56.961 14 56.3846 13.4154 56.3846 12.7143V4C56.3846 3.44772 55.9369 3 55.3846 3Z" fill="#0B0D0E"/>
<path fill-rule="evenodd" clip-rule="evenodd" d="M24.4089 21.0656C23.8566 21.0656 23.4089 21.5133 23.4089 22.0656V28.0656C23.4089 28.6178 23.8566 29.0656 24.4089 29.0656H30.4089C30.9612 29.0656 31.4089 28.6178 31.4089 28.0656V22.0656C31.4089 21.5133 30.9612 21.0656 30.4089 21.0656H24.4089ZM25.2089 22.8656V27.2656H29.6089V22.8656H25.2089Z" fill="#0B0D0E"/>
<path fill-rule="evenodd" clip-rule="evenodd" d="M24.4089 31.0656C23.8566 31.0656 23.4089 31.5133 23.4089 32.0656V38.0656C23.4089 38.6178 23.8566 39.0656 24.4089 39.0656H30.4089C30.9612 39.0656 31.4089 38.6178 31.4089 38.0656V32.0656C31.4089 31.5133 30.9612 31.0656 30.4089 31.0656H24.4089ZM25.2089 32.8656V37.2656H29.6089V32.8656H25.2089Z" fill="#0B0D0E"/>
<path fill-rule="evenodd" clip-rule="evenodd" d="M34.4089 21.0656C33.8566 21.0656 33.4089 21.5133 33.4089 22.0656V28.0656C33.4089 28.6178 33.8566 29.0656 34.4089 29.0656H40.4089C40.9612 29.0656 41.4089 28.6178 41.4089 28.0656V22.0656C41.4089 21.5133 40.9612 21.0656 40.4089 21.0656H34.4089ZM35.2089 22.8656V27.2656H39.6089V22.8656H35.2089Z" fill="#0B0D0E"/>
<path fill-rule="evenodd" clip-rule="evenodd" d="M34.4089 31.0656C33.8566 31.0656 33.4089 31.5133 33.4089 32.0656V38.0656C33.4089 38.6178 33.8566 39.0656 34.4089 39.0656H40.4089C40.9612 39.0656 41.4089 38.6178 41.4089 38.0656V32.0656C41.4089 31.5133 40.9612 31.0656 40.4089 31.0656H34.4089ZM35.2089 32.8656V37.2656H39.6089V32.8656H35.2089Z" fill="#0B0D0E"/>
<path fill-rule="evenodd" clip-rule="evenodd" d="M50.7265 17.6643C50.4658 18.1512 49.8597 18.3345 49.3729 18.0737L46.3937 16.4782V56.146C46.3937 56.6983 45.946 57.146 45.3937 57.146H19.4241C18.8718 57.146 18.4241 56.6983 18.4241 56.146V16.4938L15.4414 18.0756C14.9535 18.3344 14.3482 18.1486 14.0894 17.6607C13.8306 17.1728 14.0164 16.5675 14.5043 16.3087L19.1338 13.8536L30.6945 7.64431L31.9332 6.9744C32.2288 6.81456 32.5848 6.81384 32.881 6.97247L50.3171 16.3106C50.804 16.5714 50.9873 17.1774 50.7265 17.6643ZM24.1594 13.4522L20.4241 15.4332V55.146H27.5007V46.0723C27.5007 45.52 27.9484 45.0723 28.5007 45.0723H36.3171C36.8694 45.0723 37.3171 45.52 37.3171 46.0723V55.146H44.3937V15.4308L32.4089 8.99374L31.6436 9.40475L24.1666 13.4484L24.1594 13.4522ZM29.5007 55.1459V47.0723H35.3171V55.1459H29.5007Z" fill="#0B0D0E"/>
</svg>
