<svg width="64" height="64" viewBox="0 0 64 64" fill="none" xmlns="http://www.w3.org/2000/svg">
<path d="M52.6154 4.99854C52.6154 4.44625 52.1677 3.99854 51.6154 3.99854C51.0631 3.99854 50.6154 4.44625 50.6154 4.99854V10.5509C50.6154 11.2703 50.0311 11.8557 49.3077 11.8557C48.5843 11.8557 48 11.2703 48 10.5509C48 10.1083 48.2201 9.7163 48.5622 9.4787C49.0158 9.16367 49.1282 8.54055 48.8131 8.08692C48.4981 7.6333 47.875 7.52095 47.4214 7.83598C46.5647 8.43093 46 9.42474 46 10.5509C46 12.3773 47.4821 13.8557 49.3077 13.8557C51.1333 13.8557 52.6154 12.3773 52.6154 10.5509V4.99854Z" fill="#0B0D0E"/>
<path d="M54.3846 3.99854C53.8323 3.99854 53.3846 4.44625 53.3846 4.99854V13.7128C53.3846 15.5365 54.8746 16.9985 56.6923 16.9985C58.5101 16.9985 60 15.5365 60 13.7128C60 12.5895 59.432 11.6013 58.5754 11.0113C58.1206 10.6981 57.4979 10.8128 57.1847 11.2677C56.8714 11.7225 56.9862 12.3452 57.441 12.6585C57.7832 12.8942 58 13.2803 58 13.7128C58 14.4139 57.4236 14.9985 56.6923 14.9985C55.961 14.9985 55.3846 14.4139 55.3846 13.7128V4.99854C55.3846 4.44625 54.9369 3.99854 54.3846 3.99854Z" fill="#0B0D0E"/>
<path fill-rule="evenodd" clip-rule="evenodd" d="M24 22.9985C23.4477 22.9985 23 23.4463 23 23.9985V29.9985C23 30.5508 23.4477 30.9985 24 30.9985H30C30.5523 30.9985 31 30.5508 31 29.9985V23.9985C31 23.4463 30.5523 22.9985 30 22.9985H24ZM25 24.9985V28.9985H29V24.9985H25Z" fill="#0B0D0E"/>
<path fill-rule="evenodd" clip-rule="evenodd" d="M23 33.9985C23 33.4463 23.4477 32.9985 24 32.9985H30C30.5523 32.9985 31 33.4463 31 33.9985V39.9985C31 40.5508 30.5523 40.9985 30 40.9985H24C23.4477 40.9985 23 40.5508 23 39.9985V33.9985ZM25 38.9985V34.9985H29V38.9985H25Z" fill="#0B0D0E"/>
<path fill-rule="evenodd" clip-rule="evenodd" d="M34 22.9985C33.4477 22.9985 33 23.4463 33 23.9985V29.9985C33 30.5508 33.4477 30.9985 34 30.9985H40C40.5523 30.9985 41 30.5508 41 29.9985V23.9985C41 23.4463 40.5523 22.9985 40 22.9985H34ZM35 24.9985V28.9985H39V24.9985H35Z" fill="#0B0D0E"/>
<path fill-rule="evenodd" clip-rule="evenodd" d="M33 33.9985C33 33.4463 33.4477 32.9985 34 32.9985H40C40.5523 32.9985 41 33.4463 41 33.9985V39.9985C41 40.5508 40.5523 40.9985 40 40.9985H34C33.4477 40.9985 33 40.5508 33 39.9985V33.9985ZM35 38.9985V34.9985H39V38.9985H35Z" fill="#0B0D0E"/>
<path fill-rule="evenodd" clip-rule="evenodd" d="M33 8.99854C33 8.44625 32.5523 7.99854 32 7.99854C31.4477 7.99854 31 8.44625 31 8.99854V11.9985H28C26.8954 11.9985 26 12.894 26 13.9985V16.9985H20C18.8954 16.9985 18 17.894 18 18.9985V53.9985C18 55.1031 18.8954 55.9985 20 55.9985H44C45.1046 55.9985 46 55.1031 46 53.9985V18.9985C46 17.894 45.1046 16.9985 44 16.9985H38V13.9985C38 12.894 37.1046 11.9985 36 11.9985H33V8.99854ZM37 46.9985V53.9985H27V46.9985H37ZM44 53.9985H39V46.9985C39 45.894 38.1046 44.9985 37 44.9985H27C25.8954 44.9985 25 45.894 25 46.9985V53.9985H20V18.9985H44V53.9985ZM36 16.9985V13.9985H28V16.9985H36Z" fill="#0B0D0E"/>
</svg>
