<svg width="64" height="64" viewBox="0 0 64 64" fill="none" xmlns="http://www.w3.org/2000/svg">
<path fill-rule="evenodd" clip-rule="evenodd" d="M47.213 15.3706C45.1501 12.6931 46.2246 10.0188 48.0994 8.1453C50.9297 5.317 58.1243 5.87804 58.1243 5.87804C58.1243 5.87804 58.6803 13.0731 55.85 15.9014C53.9759 17.7742 51.3021 18.8467 48.627 16.785L47.7959 17.6161C47.4054 18.0066 46.7723 18.0066 46.3817 17.6161C45.9912 17.2256 45.9912 16.5924 46.3817 16.2019L47.213 15.3706ZM54.4363 14.4867C53.602 15.3204 52.7289 15.7955 51.9514 15.8883C51.4419 15.949 50.8078 15.8678 50.0577 15.3543L52.9986 12.4133C53.3891 12.0228 53.3891 11.3896 52.9986 10.9991C52.6081 10.6086 51.9749 10.6086 51.5844 10.9991L48.6437 13.9399C48.1295 13.1886 48.0486 12.5538 48.1098 12.0439C48.2031 11.2664 48.6788 10.3937 49.5131 9.56001C49.9118 9.16159 50.5631 8.79435 51.4725 8.5017C52.3653 8.2144 53.3794 8.03951 54.3704 7.94131C55.0154 7.87741 55.6291 7.848 56.1635 7.83753C56.1526 8.37185 56.1228 8.98559 56.0584 9.63049C55.9595 10.6214 55.7839 11.6354 55.496 12.528C55.2027 13.4372 54.835 14.0882 54.4363 14.4867Z" fill="#0B0D0E"/>
<path fill-rule="evenodd" clip-rule="evenodd" d="M44 2C42.8954 2 42 2.89543 42 4V20C42 21.1046 42.8954 22 44 22H60C61.1046 22 62 21.1046 62 20V4C62 2.89543 61.1046 2 60 2H44ZM60 4H44V20H60V4Z" fill="#0B0D0E"/>
<path fill-rule="evenodd" clip-rule="evenodd" d="M33 9C33 8.44772 32.5523 8 32 8C31.4477 8 31 8.44772 31 9V12H28C26.8954 12 26 12.8954 26 14V17H20C18.8954 17 18 17.8954 18 19V54C18 55.1046 18.8954 56 20 56H44C45.1046 56 46 55.1046 46 54V23H44V54H39V47C39 45.8954 38.1046 45 37 45H27C25.8954 45 25 45.8954 25 47V54H20V19H41V17H38V14C38 12.8954 37.1046 12 36 12H33V9ZM37 47V54H27V47H37ZM36 17V14H28V17H36Z" fill="#0B0D0E"/>
<path fill-rule="evenodd" clip-rule="evenodd" d="M24 23C23.4477 23 23 23.4477 23 24V30C23 30.5523 23.4477 31 24 31H30C30.5523 31 31 30.5523 31 30V24C31 23.4477 30.5523 23 30 23H24ZM25 25V29H29V25H25Z" fill="#0B0D0E"/>
<path fill-rule="evenodd" clip-rule="evenodd" d="M23 34C23 33.4477 23.4477 33 24 33H30C30.5523 33 31 33.4477 31 34V40C31 40.5523 30.5523 41 30 41H24C23.4477 41 23 40.5523 23 40V34ZM25 39V35H29V39H25Z" fill="#0B0D0E"/>
<path fill-rule="evenodd" clip-rule="evenodd" d="M34 23C33.4477 23 33 23.4477 33 24V30C33 30.5523 33.4477 31 34 31H40C40.5523 31 41 30.5523 41 30V24C41 23.4477 40.5523 23 40 23H34ZM35 25V29H39V25H35Z" fill="#0B0D0E"/>
<path fill-rule="evenodd" clip-rule="evenodd" d="M33 34C33 33.4477 33.4477 33 34 33H40C40.5523 33 41 33.4477 41 34V40C41 40.5523 40.5523 41 40 41H34C33.4477 41 33 40.5523 33 40V34ZM35 39V35H39V39H35Z" fill="#0B0D0E"/>
</svg>
