<svg width="64" height="64" viewBox="0 0 64 64" fill="none" xmlns="http://www.w3.org/2000/svg">
<path d="M50.6154 5C51.1677 5 51.6154 5.44772 51.6154 6V11.5524C51.6154 13.3787 50.1333 14.8571 48.3077 14.8571C46.4821 14.8571 45 13.3787 45 11.5524C45 10.4262 45.5647 9.43239 46.4214 8.83744C46.875 8.52241 47.4981 8.63477 47.8131 9.08839C48.1282 9.54201 48.0158 10.1651 47.5622 10.4802C47.2201 10.7178 47 11.1097 47 11.5524C47 12.2718 47.5843 12.8571 48.3077 12.8571C49.0311 12.8571 49.6154 12.2718 49.6154 11.5524V6C49.6154 5.44772 50.0631 5 50.6154 5Z" fill="#0B0D0E"/>
<path fill-rule="evenodd" clip-rule="evenodd" d="M32.0739 16.498C31.4187 16.0811 30.5815 16.0811 29.9264 16.498L21.4065 21.9197V18.3999C21.4065 17.8476 20.9588 17.3999 20.4065 17.3999H16.4065C15.8542 17.3999 15.4065 17.8476 15.4065 18.3999V25.7379L8.46325 30.1563C7.99731 30.4528 7.85996 31.0709 8.15646 31.5369C8.45297 32.0028 9.07106 32.1402 9.537 31.8437L13.0001 29.6398V54.0966C13.0001 55.2012 13.8956 56.0966 15.0001 56.0966H47.0001C48.1047 56.0966 49.0001 55.2012 49.0001 54.0966V29.6398L52.4632 31.8437C52.9292 32.1402 53.5473 32.0028 53.8438 31.5369C54.1403 31.0709 54.0029 30.4528 53.537 30.1563L32.0739 16.498ZM15.0001 54.0966V28.3671L31.0001 18.1853L47.0001 28.3671V54.0966H38.0001V44.2321C38.0001 44.2321 38.0001 37 31.0001 37C24.0001 37 24.0001 44.2321 24.0001 44.2321V54.0966H15.0001ZM17.4065 24.4652L19.4065 23.1924V19.3999H17.4065V24.4652ZM35.9995 44.2154L36.0001 44.2414V54H26.0001V44.2414L26.0008 44.2154C26.0018 44.1853 26.004 44.1321 26.009 44.0593C26.0191 43.913 26.0403 43.6915 26.084 43.4206C26.1729 42.8692 26.3471 42.1656 26.6754 41.4873C27.0006 40.8153 27.4539 40.2137 28.0877 39.7771C28.7058 39.3514 29.6138 39 31.0001 39C32.3865 39 33.2945 39.3514 33.9125 39.7771C34.5463 40.2137 34.9996 40.8153 35.3249 41.4873C35.6532 42.1656 35.8273 42.8692 35.9163 43.4206C35.96 43.6915 35.9811 43.913 35.9912 44.0593C35.9963 44.1321 35.9985 44.1853 35.9995 44.2154Z" fill="#0B0D0E"/>
<path d="M52.3846 6C52.3846 5.44772 52.8323 5 53.3846 5C53.9369 5 54.3846 5.44772 54.3846 6V14.7143C54.3846 15.4154 54.961 16 55.6923 16C56.4236 16 57 15.4154 57 14.7143C57 14.2817 56.7832 13.8956 56.441 13.6599C55.9862 13.3467 55.8714 12.724 56.1847 12.2691C56.4979 11.8143 57.1206 11.6995 57.5754 12.0128C58.432 12.6027 59 13.591 59 14.7143C59 16.5379 57.5101 18 55.6923 18C53.8746 18 52.3846 16.5379 52.3846 14.7143V6Z" fill="#0B0D0E"/>
</svg>
