<svg width="64" height="64" viewBox="0 0 64 64" fill="none" xmlns="http://www.w3.org/2000/svg">
<path d="M51.6154 3.99854C52.1677 3.99854 52.6154 4.44625 52.6154 4.99854V10.5509C52.6154 12.3773 51.1333 13.8557 49.3077 13.8557C47.4821 13.8557 46 12.3773 46 10.5509C46 9.42474 46.5647 8.43093 47.4214 7.83598C47.875 7.52095 48.4981 7.6333 48.8131 8.08692C49.1282 8.54055 49.0158 9.16367 48.5622 9.4787C48.2201 9.7163 48 10.1083 48 10.5509C48 11.2703 48.5843 11.8557 49.3077 11.8557C50.0311 11.8557 50.6154 11.2703 50.6154 10.5509V4.99854C50.6154 4.44625 51.0631 3.99854 51.6154 3.99854Z" fill="#0B0D0E"/>
<path fill-rule="evenodd" clip-rule="evenodd" d="M31 37.9985C30.4477 37.9985 30 38.4463 30 38.9985V44.9985C30 45.5508 30.4477 45.9985 31 45.9985H37C37.5523 45.9985 38 45.5508 38 44.9985V38.9985C38 38.4463 37.5523 37.9985 37 37.9985H31ZM32 39.9985V43.9985H36V39.9985H32Z" fill="#0B0D0E"/>
<path fill-rule="evenodd" clip-rule="evenodd" d="M40 38.9985C40 38.4463 40.4477 37.9985 41 37.9985H47C47.5523 37.9985 48 38.4463 48 38.9985V44.9985C48 45.5508 47.5523 45.9985 47 45.9985H41C40.4477 45.9985 40 45.5508 40 44.9985V38.9985ZM42 43.9985V39.9985H46V43.9985H42Z" fill="#0B0D0E"/>
<path fill-rule="evenodd" clip-rule="evenodd" d="M11.9151 13.3101C11.9626 12.2411 12.843 11.3989 13.9131 11.3989H22.0869C23.1569 11.3989 24.0374 12.2411 24.0849 13.3101L24.6878 26.8754L52.5007 33.5397C53.3842 33.7514 54.014 34.532 54.0342 35.4403L54.4539 54.3546C54.4787 55.4762 53.5763 56.3989 52.4544 56.3989H23.9992L23.9991 56.3969C23.9693 56.3983 23.9393 56.3989 23.9091 56.3989H12.0909C10.9514 56.3989 10.0422 55.4484 10.0928 54.3101L11.9151 13.3101ZM13.9131 13.3989H22.0869L23.9091 54.3989H12.0909L13.9131 13.3989ZM25.9144 54.3989L24.8122 28.9618L52.0347 35.4846L52.4544 54.3989H25.9144Z" fill="#0B0D0E"/>
<path d="M53.3846 4.99854C53.3846 4.44625 53.8323 3.99854 54.3846 3.99854C54.9369 3.99854 55.3846 4.44625 55.3846 4.99854V13.7128C55.3846 14.4139 55.961 14.9985 56.6923 14.9985C57.4236 14.9985 58 14.4139 58 13.7128C58 13.2803 57.7832 12.8942 57.441 12.6585C56.9862 12.3452 56.8714 11.7225 57.1847 11.2677C57.4979 10.8128 58.1206 10.6981 58.5754 11.0113C59.432 11.6013 60 12.5895 60 13.7128C60 15.5365 58.5101 16.9985 56.6923 16.9985C54.8746 16.9985 53.3846 15.5365 53.3846 13.7128V4.99854Z" fill="#0B0D0E"/>
</svg>
