<svg width="64" height="64" viewBox="0 0 64 64" fill="none" xmlns="http://www.w3.org/2000/svg">
<path fill-rule="evenodd" clip-rule="evenodd" d="M48.6277 16.7852C51.3027 18.8466 53.9763 17.7741 55.8504 15.9014C58.6807 13.0731 58.1247 5.87804 58.1247 5.87804C58.1247 5.87804 50.93 5.317 48.0998 8.1453C46.2249 10.0188 45.1504 12.6933 47.2136 15.3709L46.3822 16.2023C45.9917 16.5928 45.9917 17.226 46.3822 17.6165C46.7728 18.007 47.4059 18.007 47.7964 17.6165L48.6277 16.7852ZM51.9517 15.8883C52.7293 15.7955 53.6024 15.3204 54.4367 14.4867C54.8354 14.0882 55.2031 13.4372 55.4963 12.528C55.7843 11.6354 55.9599 10.6214 56.0588 9.63049C56.1231 8.98559 56.153 8.37185 56.1638 7.83753C55.6295 7.848 55.0157 7.87741 54.3708 7.94131C53.3798 8.03951 52.3656 8.2144 51.4728 8.5017C50.5634 8.79435 49.9122 9.16159 49.5135 9.56001C48.6792 10.3937 48.2034 11.2664 48.1101 12.0439C48.0489 12.5539 48.1299 13.1887 48.6443 13.9402L51.5849 10.9995C51.9754 10.609 52.6086 10.609 52.9991 10.9995C53.3896 11.39 53.3896 12.0232 52.9991 12.4137L50.0584 15.3545C50.8084 15.8679 51.4423 15.949 51.9517 15.8883Z" fill="#0B0D0E"/>
<path fill-rule="evenodd" clip-rule="evenodd" d="M42 4C42 2.89543 42.8954 2 44 2H60C61.1046 2 62 2.89543 62 4V20C62 21.1046 61.1046 22 60 22H44C42.8954 22 42 21.1046 42 20V4ZM44 4H60V20H44V4Z" fill="#0B0D0E"/>
<path fill-rule="evenodd" clip-rule="evenodd" d="M20 14H23V11C23 9.89543 23.8954 9 25 9H39C40.1046 9 41 9.89543 41 11V16H20V54H25V44C25 42.8954 25.8954 42 27 42H37C38.1046 42 39 42.8954 39 44V54H44V23H46V54C46 55.1046 45.1046 56 44 56H20C18.8954 56 18 55.1046 18 54V16C18 14.8954 18.8954 14 20 14ZM37 54V44H27V54H37ZM39 14H25V11H39L39 14Z" fill="#0B0D0E"/>
<path fill-rule="evenodd" clip-rule="evenodd" d="M23 21C23 20.4477 23.4477 20 24 20H30C30.5523 20 31 20.4477 31 21V27C31 27.5523 30.5523 28 30 28H24C23.4477 28 23 27.5523 23 27V21ZM25 26V22H29V26H25Z" fill="#0B0D0E"/>
<path fill-rule="evenodd" clip-rule="evenodd" d="M24 30C23.4477 30 23 30.4477 23 31V37C23 37.5523 23.4477 38 24 38H30C30.5523 38 31 37.5523 31 37V31C31 30.4477 30.5523 30 30 30H24ZM25 32V36H29V32H25Z" fill="#0B0D0E"/>
<path fill-rule="evenodd" clip-rule="evenodd" d="M33 21C33 20.4477 33.4477 20 34 20H40C40.5523 20 41 20.4477 41 21V27C41 27.5523 40.5523 28 40 28H34C33.4477 28 33 27.5523 33 27V21ZM35 26V22H39V26H35Z" fill="#0B0D0E"/>
<path fill-rule="evenodd" clip-rule="evenodd" d="M34 30C33.4477 30 33 30.4477 33 31V37C33 37.5523 33.4477 38 34 38H40C40.5523 38 41 37.5523 41 37V31C41 30.4477 40.5523 30 40 30H34ZM35 32V36H39V32H35Z" fill="#0B0D0E"/>
</svg>
