<svg width="64" height="64" viewBox="0 0 64 64" fill="none" xmlns="http://www.w3.org/2000/svg">
<path fill-rule="evenodd" clip-rule="evenodd" d="M48.6274 16.7835C51.3025 18.8452 53.9763 17.7727 55.8504 15.8999C58.6807 13.0716 58.1247 5.87658 58.1247 5.87658C58.1247 5.87658 50.93 5.31554 48.0998 8.14383C46.225 10.0173 45.1505 12.6916 47.2133 15.3691L46.3821 16.2004C45.9916 16.5909 45.9916 17.2241 46.3821 17.6146C46.7726 18.0051 47.4058 18.0051 47.7963 17.6146L48.6274 16.7835ZM51.9517 15.8868C52.7293 15.7941 53.6024 15.3189 54.4367 14.4852C54.8354 14.0868 55.2031 13.4358 55.4963 12.5266C55.7843 11.634 55.9599 10.62 56.0588 9.62903C56.1231 8.98413 56.153 8.37039 56.1638 7.83606C55.6295 7.84654 55.0157 7.87594 54.3708 7.93985C53.3798 8.03804 52.3657 8.21293 51.4728 8.50024C50.5634 8.79288 49.9122 9.16012 49.5135 9.55854C48.6792 10.3923 48.2034 11.265 48.1101 12.0425C48.049 12.5523 48.1299 13.1871 48.644 13.9384L51.5847 10.9976C51.9753 10.6071 52.6084 10.6071 52.999 10.9976C53.3895 11.3882 53.3895 12.0213 52.999 12.4118L50.058 15.3528C50.8082 15.8664 51.4422 15.9476 51.9517 15.8868Z" fill="#0B0D0E"/>
<path fill-rule="evenodd" clip-rule="evenodd" d="M42.0004 3.99854C42.0004 2.89397 42.8958 1.99854 44.0004 1.99854H60.0004C61.1049 1.99854 62.0004 2.89397 62.0004 3.99854V19.9985C62.0004 21.1031 61.1049 21.9985 60.0004 21.9985H44.0004C42.8958 21.9985 42.0004 21.1031 42.0004 19.9985V3.99854ZM44.0004 3.99854H60.0004V19.9985H44.0004V3.99854Z" fill="#0B0D0E"/>
<path fill-rule="evenodd" clip-rule="evenodd" d="M30 38.9985C30 38.4463 30.4477 37.9985 31 37.9985H37C37.5523 37.9985 38 38.4463 38 38.9985V44.9985C38 45.5508 37.5523 45.9985 37 45.9985H31C30.4477 45.9985 30 45.5508 30 44.9985V38.9985ZM32 43.9985V39.9985H36V43.9985H32Z" fill="#0B0D0E"/>
<path fill-rule="evenodd" clip-rule="evenodd" d="M41 37.9985C40.4477 37.9985 40 38.4463 40 38.9985V44.9985C40 45.5508 40.4477 45.9985 41 45.9985H47C47.5523 45.9985 48 45.5508 48 44.9985V38.9985C48 38.4463 47.5523 37.9985 47 37.9985H41ZM42 39.9985V43.9985H46V39.9985H42Z" fill="#0B0D0E"/>
<path fill-rule="evenodd" clip-rule="evenodd" d="M13.9131 11.3989C12.843 11.3989 11.9626 12.2411 11.9151 13.3101L10.0928 54.3101C10.0422 55.4484 10.9514 56.3989 12.0909 56.3989H23.9091C23.9393 56.3989 23.9693 56.3983 23.9991 56.3969L23.9992 56.3989H52.4544C53.5763 56.3989 54.4787 55.4762 54.4539 54.3546L54.0342 35.4403C54.014 34.532 53.3842 33.7514 52.5007 33.5397L24.6878 26.8754L24.0849 13.3101C24.0374 12.2411 23.1569 11.3989 22.0869 11.3989H13.9131ZM22.0869 13.3989H13.9131L12.0909 54.3989H23.9091L22.0869 13.3989ZM24.8122 28.9618L25.9144 54.3989H52.4544L52.0347 35.4846L24.8122 28.9618Z" fill="#0B0D0E"/>
</svg>
