<svg width="64" height="64" viewBox="0 0 64 64" fill="none" xmlns="http://www.w3.org/2000/svg">
<path fill-rule="evenodd" clip-rule="evenodd" d="M48.6277 16.7852C51.3027 18.8466 53.9763 17.7741 55.8504 15.9014C58.6807 13.0731 58.1247 5.87804 58.1247 5.87804C58.1247 5.87804 50.93 5.317 48.0998 8.1453C46.2249 10.0188 45.1504 12.6933 47.2136 15.3709L46.3822 16.2023C45.9917 16.5928 45.9917 17.226 46.3822 17.6165C46.7728 18.007 47.4059 18.007 47.7964 17.6165L48.6277 16.7852ZM51.9517 15.8883C52.7293 15.7955 53.6024 15.3204 54.4367 14.4867C54.8354 14.0882 55.2031 13.4372 55.4963 12.528C55.7843 11.6354 55.9599 10.6214 56.0588 9.63049C56.1231 8.98559 56.153 8.37185 56.1638 7.83753C55.6295 7.848 55.0157 7.87741 54.3708 7.94131C53.3798 8.03951 52.3656 8.2144 51.4728 8.5017C50.5634 8.79435 49.9122 9.16159 49.5135 9.56001C48.6792 10.3937 48.2034 11.2664 48.1101 12.0439C48.0489 12.5539 48.1299 13.1887 48.6443 13.9402L51.5849 10.9995C51.9754 10.609 52.6086 10.609 52.9991 10.9995C53.3896 11.39 53.3896 12.0232 52.9991 12.4137L50.0584 15.3545C50.8084 15.8679 51.4423 15.949 51.9517 15.8883Z" fill="#0B0D0E"/>
<path fill-rule="evenodd" clip-rule="evenodd" d="M42 4C42 2.89543 42.8954 2 44 2H60C61.1046 2 62 2.89543 62 4V20C62 21.1046 61.1046 22 60 22H44C42.8954 22 42 21.1046 42 20V4ZM44 4H60V20H44V4Z" fill="#0B0D0E"/>
<path fill-rule="evenodd" clip-rule="evenodd" d="M29.9264 16.498C30.5815 16.0811 31.4187 16.0811 32.0739 16.498L53.537 30.1563C54.0029 30.4528 54.1403 31.0709 53.8438 31.5369C53.5473 32.0028 52.9292 32.1402 52.4632 31.8437L49.0001 29.6398V54.0966C49.0001 55.2012 48.1047 56.0966 47.0001 56.0966H15.0001C13.8956 56.0966 13.0001 55.2012 13.0001 54.0966V29.6398L9.537 31.8437C9.07106 32.1402 8.45297 32.0028 8.15646 31.5369C7.85996 31.0709 7.99731 30.4528 8.46325 30.1563L15.4064 25.738V18.3999C15.4064 17.8476 15.8541 17.3999 16.4064 17.3999H20.4064C20.9587 17.3999 21.4064 17.8476 21.4064 18.3999V21.9198L29.9264 16.498ZM15.0001 28.3671V54.0966H24.0001V44.2321C24.0001 44.2321 24.0001 37 31.0001 37C38.0001 37 38.0001 44.2321 38.0001 44.2321V54.0966H47.0001V28.3671L31.0001 18.1853L15.0001 28.3671ZM19.4064 23.1925L17.4064 24.4653V19.3999H19.4064V23.1925ZM36.0001 44.2414L35.9995 44.2154C35.9985 44.1853 35.9963 44.1321 35.9912 44.0593C35.9811 43.913 35.96 43.6915 35.9163 43.4206C35.8273 42.8692 35.6532 42.1656 35.3249 41.4873C34.9996 40.8153 34.5463 40.2137 33.9125 39.7771C33.2945 39.3514 32.3865 39 31.0001 39C29.6138 39 28.7058 39.3514 28.0877 39.7771C27.4539 40.2137 27.0006 40.8153 26.6754 41.4873C26.3471 42.1656 26.1729 42.8692 26.084 43.4206C26.0403 43.6915 26.0191 43.913 26.009 44.0593C26.004 44.1321 26.0018 44.1853 26.0008 44.2154L26.0001 44.2414V54H36.0001V44.2414Z" fill="#0B0D0E"/>
</svg>
