<svg width="64" height="64" viewBox="0 0 64 64" fill="none" xmlns="http://www.w3.org/2000/svg">
<path fill-rule="evenodd" clip-rule="evenodd" d="M47.2136 15.3714C45.1499 12.6936 46.2245 10.0189 48.0994 8.14528C50.9297 5.31699 58.1244 5.87803 58.1244 5.87803C58.1244 5.87803 58.6803 13.0731 55.8501 15.9014C53.9761 17.774 51.3027 18.8464 48.6279 16.7856L47.797 17.6165C47.4064 18.007 46.7733 18.007 46.3827 17.6165C45.9922 17.226 45.9922 16.5928 46.3827 16.2023L47.2136 15.3714ZM54.4363 14.4867C53.602 15.3204 52.729 15.7955 51.9514 15.8882C51.4421 15.949 50.8083 15.8679 50.0586 15.3548L52.9996 12.4137C53.3901 12.0232 53.3901 11.39 52.9996 10.9995C52.6091 10.609 51.9759 10.609 51.5854 10.9995L48.6443 13.9407C48.1296 13.189 48.0486 12.554 48.1098 12.0439C48.2031 11.2664 48.6789 10.3937 49.5132 9.55999C49.9119 9.16157 50.5631 8.79433 51.4725 8.50169C52.3653 8.21438 53.3795 8.03949 54.3705 7.9413C55.0154 7.87739 55.6292 7.84799 56.1635 7.83751C56.1527 8.37184 56.1228 8.98558 56.0585 9.63048C55.9596 10.6214 55.784 11.6354 55.496 12.528C55.2027 13.4372 54.835 14.0882 54.4363 14.4867Z" fill="#0B0D0E"/>
<path fill-rule="evenodd" clip-rule="evenodd" d="M23.4089 22.0656C23.4089 21.5133 23.8566 21.0656 24.4089 21.0656H30.4089C30.9612 21.0656 31.4089 21.5133 31.4089 22.0656V28.0656C31.4089 28.6178 30.9612 29.0656 30.4089 29.0656H24.4089C23.8566 29.0656 23.4089 28.6178 23.4089 28.0656V22.0656ZM25.2089 27.2656V22.8656H29.6089V27.2656H25.2089Z" fill="#0B0D0E"/>
<path fill-rule="evenodd" clip-rule="evenodd" d="M24.4089 31.0656C23.8566 31.0656 23.4089 31.5133 23.4089 32.0656V38.0656C23.4089 38.6178 23.8566 39.0656 24.4089 39.0656H30.4089C30.9612 39.0656 31.4089 38.6178 31.4089 38.0656V32.0656C31.4089 31.5133 30.9612 31.0656 30.4089 31.0656H24.4089ZM25.2089 32.8656V37.2656H29.6089V32.8656H25.2089Z" fill="#0B0D0E"/>
<path fill-rule="evenodd" clip-rule="evenodd" d="M33.4089 22.0656C33.4089 21.5133 33.8566 21.0656 34.4089 21.0656H40.4089C40.9612 21.0656 41.4089 21.5133 41.4089 22.0656V28.0656C41.4089 28.6178 40.9612 29.0656 40.4089 29.0656H34.4089C33.8566 29.0656 33.4089 28.6178 33.4089 28.0656V22.0656ZM35.2089 27.2656V22.8656H39.6089V27.2656H35.2089Z" fill="#0B0D0E"/>
<path fill-rule="evenodd" clip-rule="evenodd" d="M34.4089 31.0656C33.8566 31.0656 33.4089 31.5133 33.4089 32.0656V38.0656C33.4089 38.6178 33.8566 39.0656 34.4089 39.0656H40.4089C40.9612 39.0656 41.4089 38.6178 41.4089 38.0656V32.0656C41.4089 31.5133 40.9612 31.0656 40.4089 31.0656H34.4089ZM35.2089 32.8656V37.2656H39.6089V32.8656H35.2089Z" fill="#0B0D0E"/>
<path fill-rule="evenodd" clip-rule="evenodd" d="M42 4C42 2.89543 42.8954 2 44 2H60C61.1046 2 62 2.89543 62 4V20C62 21.1046 61.1046 22 60 22H46.3937V56.146C46.3937 56.6983 45.946 57.146 45.3937 57.146H19.4241C18.8718 57.146 18.4241 56.6983 18.4241 56.146V16.4938L15.4414 18.0756C14.9535 18.3344 14.3482 18.1486 14.0894 17.6607C13.8306 17.1728 14.0164 16.5675 14.5043 16.3087L19.1338 13.8536L30.6945 7.64431L31.9332 6.9744C32.2288 6.81456 32.5848 6.81384 32.881 6.97247L42 11.8563V4ZM44 4H60V20H44V4ZM42 14.1452L32.4089 8.99374L31.6436 9.40475L24.1666 13.4484L24.1594 13.4522L20.4241 15.4332V55.146H27.5007V46.0723C27.5007 45.52 27.9484 45.0723 28.5007 45.0723H36.3171C36.8694 45.0723 37.3171 45.52 37.3171 46.0723V55.146H44.3937V22H44C42.8954 22 42 21.1046 42 20V14.1452ZM29.5007 47.0723V55.1459H35.3171V47.0723H29.5007Z" fill="#0B0D0E"/>
</svg>
