<svg width="64" height="65" viewBox="0 0 64 65" fill="none" xmlns="http://www.w3.org/2000/svg">
<path d="M31.3086 56.3491C31.8609 56.3491 32.3086 55.9014 32.3086 55.3491C32.3086 54.7968 31.8609 54.3491 31.3086 54.3491V56.3491ZM28.0273 54.3491C27.4751 54.3491 27.0273 54.7968 27.0273 55.3491C27.0273 55.9014 27.4751 56.3491 28.0273 56.3491V54.3491ZM31.3086 54.3491H28.0273V56.3491H31.3086V54.3491Z" fill="#0B0D0E"/>
<path d="M26.8789 42.625C26.8789 43.1772 27.3266 43.625 27.8789 43.625C28.4312 43.625 28.8789 43.1772 28.8789 42.625H26.8789ZM29.8789 22.5156H38.3814V20.5156H29.8789V22.5156ZM54.3109 54.3492H27.8789V56.3492H54.3109V54.3492ZM39.3814 23.5156V36.4699H41.3814V23.5156H39.3814ZM28.8789 42.625V23.5156H26.8789V42.625H28.8789ZM39.3814 36.4699C39.3814 45.3501 45.5723 53.029 54.2504 54.9129L54.6747 52.9584C46.9162 51.2742 41.3814 44.409 41.3814 36.4699H39.3814ZM54.3109 56.3492C56.3652 56.3492 56.6822 53.3942 54.6747 52.9584L54.2504 54.9129C54.2088 54.9038 54.1298 54.8639 54.0745 54.7792C54.0285 54.7086 54.023 54.6445 54.0274 54.6038C54.0318 54.5632 54.0507 54.5018 54.1107 54.4425C54.1827 54.3714 54.2683 54.3492 54.3109 54.3492V56.3492ZM38.3814 22.5156C38.9337 22.5156 39.3814 22.9633 39.3814 23.5156H41.3814C41.3814 21.8588 40.0383 20.5156 38.3814 20.5156V22.5156ZM29.8789 20.5156C28.2221 20.5156 26.8789 21.8588 26.8789 23.5156H28.8789C28.8789 22.9633 29.3266 22.5156 29.8789 22.5156V20.5156Z" fill="#0B0D0E"/>
<path d="M20.2901 26.187C20.2901 28.2551 18.6135 29.9316 16.5454 29.9316C14.4773 29.9316 12.8008 28.2551 12.8008 26.187" stroke="#0B0D0E" stroke-width="2" stroke-linecap="round"/>
<path d="M27.8779 34.6877C27.8779 36.7559 26.2014 38.4324 24.1333 38.4324C22.0652 38.4324 20.3887 36.7559 20.3887 34.6877" stroke="#0B0D0E" stroke-width="2" stroke-linecap="round"/>
<path d="M12.7642 26.187C12.7642 28.2551 11.0876 29.9317 9.01953 29.9317" stroke="#0B0D0E" stroke-width="2" stroke-linecap="round"/>
<path d="M20.3521 34.6877C20.3521 36.7559 18.6755 38.4324 16.6074 38.4324" stroke="#0B0D0E" stroke-width="2" stroke-linecap="round"/>
<path d="M27.8779 26.187C27.8779 28.2551 26.2014 29.9316 24.1333 29.9316C22.0652 29.9316 20.3887 28.2551 20.3887 26.187" stroke="#0B0D0E" stroke-width="2" stroke-linecap="round"/>
<path d="M18.7162 47.7615C18.1639 47.7615 17.7162 48.2092 17.7162 48.7615C17.7162 49.3138 18.1639 49.7615 18.7162 49.7615L18.7162 47.7615ZM35.125 49.7614C35.6773 49.7614 36.125 49.3137 36.125 48.7614C36.125 48.2091 35.6773 47.7614 35.125 47.7614L35.125 49.7614ZM18.7162 49.7615L35.125 49.7614L35.125 47.7614L18.7162 47.7615L18.7162 49.7615Z" fill="#0B0D0E"/>
<path d="M33.2236 45.449L36.888 48.6304C36.9714 48.7028 36.9714 48.8202 36.888 48.8926L33.2236 52.0739" stroke="#0B0D0E" stroke-width="2" stroke-linecap="round"/>
</svg>
