<svg width="64" height="64" viewBox="0 0 64 64" fill="none" xmlns="http://www.w3.org/2000/svg">
<path fill-rule="evenodd" clip-rule="evenodd" d="M61.0027 12.0039C61.0016 15.0039 59.6427 18.0034 55.5006 18.002C51.3584 18.0005 50.0016 15 50.0027 12C50.0041 7.85788 55.5059 3.00195 55.5059 3.00195C55.5059 3.00195 61.0041 7.86176 61.0027 12.0039ZM59.0027 12.0032C59.0022 13.2456 58.7144 14.2597 58.2142 14.9157C57.7821 15.4824 57.0301 16.0025 55.5013 16.002C53.9724 16.0014 53.2209 15.4808 52.7892 14.9138C52.2893 14.2574 52.0023 13.2431 52.0027 12.0007C52.0029 11.3883 52.2134 10.6231 52.654 9.73706C53.0873 8.86558 53.6862 7.99058 54.3209 7.19167C54.7278 6.67933 55.1369 6.21393 55.5049 5.81831C55.8725 6.21419 56.2813 6.67988 56.6879 7.1925C57.322 7.99187 57.9202 8.86729 58.353 9.73907C58.7929 10.6254 59.0029 11.3907 59.0027 12.0032Z" fill="#0B0D0E"/>
<path fill-rule="evenodd" clip-rule="evenodd" d="M43.783 28.0262C43.7911 27.5837 43.6507 27.1287 43.3274 26.7336L40.5479 23.3364C40.1262 22.821 39.558 22.5939 39 22.599V20C39 18.8954 38.1046 18 37 18H13C11.8954 18 11 18.8954 11 20V47C11 48.1046 11.8954 49 13 49H14C14 51.7614 16.2386 54 19 54C21.7614 54 24 51.7614 24 49H42C42 51.7614 44.2386 54 47 54C49.7614 54 52 51.7614 52 49H53C54.1046 49 55 48.1046 55 47V42.5099C55 41.961 54.7743 41.4361 54.3759 41.0584L49.6726 36.6001C49.5326 36.4674 49.4126 36.3152 49.3162 36.1481L45.1926 29.0006C44.89 28.476 44.3696 28.122 43.783 28.0262ZM37 20H13V47H14.416C15.1876 45.2341 16.9497 44 19 44C21.0503 44 22.8124 45.2341 23.584 47H37V20ZM41.7795 28H39V24.6029L41.7795 28ZM44 49C44 48.2317 44.2889 47.5308 44.7639 47C45.3132 46.3863 46.1115 46 47 46C47.8885 46 48.6868 46.3863 49.2361 47C49.7111 47.5308 50 48.2317 50 49C50 50.6569 48.6569 52 47 52C45.3431 52 44 50.6569 44 49ZM47 44C49.0503 44 50.8124 45.2341 51.584 47H53V45C51.8954 45 51 44.1046 51 43C51 42.3384 51.3212 41.7519 51.8162 41.3878L49.2972 39H41V30H39V47H42.416C43.1876 45.2341 44.9497 44 47 44ZM43 30V37H47.4987L43.4603 30H43ZM16 49C16 48.2317 16.2889 47.5308 16.7639 47C17.3132 46.3863 18.1115 46 19 46C19.8885 46 20.6868 46.3863 21.2361 47C21.7111 47.5308 22 48.2317 22 49C22 50.6569 20.6569 52 19 52C17.3431 52 16 50.6569 16 49Z" fill="#0B0D0E"/>
</svg>
