<svg width="64" height="64" viewBox="0 0 64 64" fill="none" xmlns="http://www.w3.org/2000/svg">
<path fill-rule="evenodd" clip-rule="evenodd" d="M60.9851 12.0039C60.9841 15.0039 59.6251 18.0034 55.483 18.002C51.3409 18.0005 49.9841 15 49.9851 12C49.9866 7.85788 55.4883 3.00195 55.4883 3.00195C55.4883 3.00195 60.9866 7.86176 60.9851 12.0039ZM58.9851 12.0032C58.9847 13.2456 58.6969 14.2597 58.1966 14.9157C57.7645 15.4824 57.0125 16.0025 55.4837 16.002C53.9548 16.0014 53.2033 15.4808 52.7716 14.9138C52.2718 14.2574 51.9847 13.2431 51.9851 12.0007C51.9853 11.3883 52.1959 10.6231 52.6364 9.73706C53.0698 8.86558 53.6687 7.99058 54.3033 7.19167C54.7103 6.67933 55.1194 6.21393 55.4873 5.81831C55.8549 6.21419 56.2637 6.67988 56.6703 7.1925C57.3044 7.99187 57.9027 8.86729 58.3354 9.73907C58.7753 10.6254 58.9853 11.3907 58.9851 12.0032Z" fill="#0B0D0E"/>
<path fill-rule="evenodd" clip-rule="evenodd" d="M21.3322 48.2418C21.3322 49.9364 19.9584 51.3102 18.2637 51.3102C16.5691 51.3102 15.1953 49.9364 15.1953 48.2418C15.1953 46.5471 16.5691 45.1734 18.2637 45.1734C19.9584 45.1734 21.3322 46.5471 21.3322 48.2418ZM18.2637 49.3102C18.8538 49.3102 19.3322 48.8319 19.3322 48.2418C19.3322 47.6517 18.8538 47.1734 18.2637 47.1734C17.6737 47.1734 17.1953 47.6517 17.1953 48.2418C17.1953 48.8319 17.6737 49.3102 18.2637 49.3102Z" fill="#0B0D0E"/>
<path fill-rule="evenodd" clip-rule="evenodd" d="M43.7579 51.3102C45.4525 51.3102 46.8263 49.9364 46.8263 48.2418C46.8263 46.5471 45.4525 45.1734 43.7579 45.1734C42.0632 45.1734 40.6895 46.5471 40.6895 48.2418C40.6895 49.9364 42.0632 51.3102 43.7579 51.3102ZM44.8263 48.2418C44.8263 48.8319 44.348 49.3102 43.7579 49.3102C43.1678 49.3102 42.6895 48.8319 42.6895 48.2418C42.6895 47.6517 43.1678 47.1734 43.7579 47.1734C44.348 47.1734 44.8263 47.6517 44.8263 48.2418Z" fill="#0B0D0E"/>
<path fill-rule="evenodd" clip-rule="evenodd" d="M40 19.8099V22H49.227C50.5928 22 51.7862 22.9225 52.1302 24.2442L54.871 34.7722C54.9566 35.1012 55 35.4399 55 35.7799V44C55 46.2092 53.2091 48 51 48H50.9951C50.9978 48.0803 50.9991 48.1609 50.9991 48.2418C50.9991 52.2413 47.7569 55.4835 43.7574 55.4835C39.7579 55.4835 36.5156 52.2413 36.5156 48.2418C36.5156 48.1609 36.517 48.0803 36.5196 48H25.501C25.5036 48.0803 25.505 48.1609 25.505 48.2418C25.505 52.2413 22.2627 55.4835 18.2632 55.4835C14.2637 55.4835 11.0215 52.2413 11.0215 48.2418C11.0215 48.1071 11.0252 47.9734 11.0324 47.8406C9.85032 47.438 9 46.3183 9 45V44C9 43.3822 9.18677 42.808 9.50693 42.3307C9.19162 41.9772 9 41.511 9 41V13C9 11.8954 9.89543 11 11 11H31.4029C31.9444 11 32.4627 11.2195 32.8394 11.6084L39.4365 18.4183C39.7979 18.7914 40 19.2905 40 19.8099ZM13.5237 46C13.2342 46.611 13.0593 47.287 13.027 48C13.0233 48.0801 13.0215 48.1607 13.0215 48.2418C13.0215 51.1367 15.3683 53.4835 18.2632 53.4835C21.1582 53.4835 23.505 51.1367 23.505 48.2418C23.505 48.1607 23.5031 48.0801 23.4995 48C23.4671 47.287 23.2923 46.611 23.0028 46C22.1625 44.2266 20.3561 43 18.2632 43C16.1704 43 14.364 44.2266 13.5237 46ZM13.2665 43C12.4518 43.7769 11.818 44.7417 11.4346 45.8249C11.1721 45.6447 11 45.3425 11 45V44C11 43.4477 11.4477 43 12 43H13.2665ZM11 41H38V19.8099L31.4029 13H11V41ZM23.2599 43C24.1183 43.8185 24.7759 44.8456 25.1513 46H36.8693C37.1244 45.2155 37.5098 44.4898 38 43.8485V43H23.2599ZM40 44.5869C39.1337 45.4773 38.5813 46.6745 38.5211 48C38.5175 48.0801 38.5156 48.1607 38.5156 48.2418C38.5156 51.1367 40.8624 53.4835 43.7574 53.4835C46.6523 53.4835 48.9991 51.1367 48.9991 48.2418C48.9991 48.1607 48.9973 48.0801 48.9936 48C48.9613 47.287 48.7864 46.611 48.4969 46C47.6566 44.2266 45.8502 43 43.7574 43C42.2838 43 40.9523 43.608 40 44.5869ZM50.6454 46C49.7015 43.0978 46.9744 41 43.7574 41C42.3816 41 41.0954 41.3837 40 42.0498V24H49.227C49.6823 24 50.0801 24.3075 50.1947 24.7481L50.5207 26H44V37H53V39C51.8954 39 51 39.8954 51 41C51 42.1046 51.8954 43 53 43V44C53 45.1046 52.1046 46 51 46H50.6454ZM52.8636 35L51.0413 28H46V35H52.8636Z" fill="#0B0D0E"/>
</svg>
