<svg width="65" height="65" viewBox="0 0 65 65" fill="none" xmlns="http://www.w3.org/2000/svg">
<g clip-path="url(#clip0_242_60555)">
<mask id="path-1-inside-1_242_60555" fill="white">
<path d="M64.0019 61.1402C64.0019 63.1415 62.3795 64.7639 60.3782 64.7639H3.62561C1.62429 64.7639 0.00190733 63.1415 0.00190735 61.1402L0.00190791 4.38759C0.00190793 2.38628 1.62429 0.763891 3.62561 0.763891L60.3782 0.763885C62.3795 0.763885 64.0019 2.38627 64.0019 4.38758V61.1402Z"/>
</mask>
<path d="M64.0019 61.1402C64.0019 63.1415 62.3795 64.7639 60.3782 64.7639H3.62561C1.62429 64.7639 0.00190733 63.1415 0.00190735 61.1402L0.00190791 4.38759C0.00190793 2.38628 1.62429 0.763891 3.62561 0.763891L60.3782 0.763885C62.3795 0.763885 64.0019 2.38627 64.0019 4.38758V61.1402Z" fill="white"/>
<path d="M3.62561 64.7639V62.5828V64.7639ZM64.0019 61.1402H61.8209H64.0019ZM60.3782 64.7639V66.9449V64.7639ZM2.18294 61.1402L2.18294 4.38759H-2.17912L-2.17912 61.1402H2.18294ZM3.62561 2.94492L60.3782 2.94492V-1.41715L3.62561 -1.41714L3.62561 2.94492ZM61.8209 4.38758V61.1402H66.1829V4.38758H61.8209ZM60.3782 62.5828H3.62561V66.9449L60.3782 66.9449V62.5828ZM60.3782 2.94492C61.175 2.94492 61.8209 3.59082 61.8209 4.38758H66.1829C66.1829 1.18172 63.5841 -1.41715 60.3782 -1.41715V2.94492ZM2.18294 4.38759C2.18294 3.59083 2.82884 2.94492 3.62561 2.94492L3.62561 -1.41714C0.419742 -1.41714 -2.17912 1.18173 -2.17912 4.38759H2.18294ZM-2.17912 61.1402C-2.17912 64.346 0.419741 66.9449 3.62561 66.9449V62.5828C2.82884 62.5828 2.18294 61.9369 2.18294 61.1402H-2.17912ZM61.8209 61.1402C61.8209 61.9369 61.175 62.5828 60.3782 62.5828V66.9449C63.5841 66.9449 66.1829 64.346 66.1829 61.1402H61.8209Z" fill="black" mask="url(#path-1-inside-1_242_60555)"/>
<rect x="49.533" y="20.2583" width="23.5636" height="3.41818" rx="1.70909" transform="rotate(90 49.533 20.2583)" fill="black"/>
<rect x="43.2057" y="20.2583" width="16.2909" height="3.41818" rx="1.70909" transform="rotate(90 43.2057 20.2583)" fill="black"/>
<rect x="36.8784" y="20.2583" width="10.4727" height="3.41818" rx="1.70909" transform="rotate(90 36.8784 20.2583)" fill="black"/>
<rect x="30.5511" y="20.2583" width="20.6545" height="3.41818" rx="1.70909" transform="rotate(90 30.5511 20.2583)" fill="black"/>
<rect x="24.2239" y="20.2583" width="16.2909" height="3.41818" rx="1.70909" transform="rotate(90 24.2239 20.2583)" fill="black"/>
<rect x="17.8966" y="20.2583" width="25.0112" height="3.41818" rx="1.70909" transform="rotate(90 17.8966 20.2583)" fill="black"/>
</g>
<defs>
<clipPath id="clip0_242_60555">
<rect width="64" height="64" fill="white" transform="translate(0.0117188 0.764893)"/>
</clipPath>
</defs>
</svg>
