<svg width="64" height="64" viewBox="0 0 64 64" fill="none" xmlns="http://www.w3.org/2000/svg">
<path fill-rule="evenodd" clip-rule="evenodd" d="M28.023 8.78757C28.123 8.32788 28.5298 8 29.0002 8H35.0002C35.4706 8 35.8775 8.32788 35.9774 8.78757L38.1975 19H45C45.5523 19 46 19.4477 46 20C46 20.5523 45.5523 21 45 21H38.6323L40.6975 30.5H48C48.5523 30.5 49 30.9477 49 31.5C49 32.0523 48.5523 32.5 48 32.5H41.1323L45.9774 54.7876C46.0947 55.3273 45.7523 55.8599 45.2126 55.9772C44.673 56.0945 44.1404 55.7521 44.023 55.2124L41.9116 45.5H22.0888L19.9774 55.2124C19.8601 55.7521 19.3275 56.0945 18.7878 55.9772C18.2481 55.8599 17.9057 55.3273 18.023 54.7876L22.8682 32.5H16C15.4477 32.5 15 32.0523 15 31.5C15 30.9477 15.4477 30.5 16 30.5H23.3029L25.3682 21H19C18.4477 21 18 20.5523 18 20C18 19.4477 18.4477 19 19 19H25.8029L28.023 8.78757ZM24.4774 43.5H39.5244L32.0009 38.2416L24.4774 43.5ZM39.2346 33.1858L41.2012 42.2319L33.7465 37.0216L39.2346 33.1858ZM32.0009 35.8016L27.2771 32.5H36.7246L32.0009 35.8016ZM22.799 42.233L24.766 33.185L30.2553 37.0216L22.799 42.233ZM37.207 30.5L31.9996 26.0133L26.7923 30.5H37.207ZM38.2773 28.7822L36.78 21.8944L33.5316 24.6933L38.2773 28.7822ZM34.7541 21H29.2452L31.9996 23.3733L34.7541 21ZM27.2202 21.8953L25.7233 28.781L30.4676 24.6933L27.2202 21.8953ZM27.8497 19H36.1508L34.1942 10H29.8062L27.8497 19Z" fill="#0B0D0E"/>
<path d="M46.0348 5.62371C46.3549 4.80409 47.2788 4.39915 48.0984 4.71924C48.3212 4.80623 48.5117 4.93666 48.6657 5.09654C48.953 5.39486 49.4278 5.40374 49.7261 5.11638C50.0245 4.82902 50.0334 4.35423 49.746 4.05591C49.4447 3.7431 49.0728 3.48944 48.6441 3.32202C47.0528 2.70056 45.259 3.48676 44.6376 5.07804C44.0161 6.66932 44.8023 8.46311 46.3936 9.08457C47.5929 9.55296 48.9057 9.22127 49.7454 8.35131C50.0331 8.05329 50.0247 7.57849 49.7267 7.29082C49.4287 7.00314 48.9539 7.01152 48.6662 7.30953C48.232 7.75934 47.5553 7.92794 46.9393 7.68734C46.1196 7.36725 45.7147 6.44333 46.0348 5.62371Z" fill="#0B0D0E"/>
<path fill-rule="evenodd" clip-rule="evenodd" d="M50.5792 6.19429C50.5792 4.49404 51.9576 3.11571 53.6578 3.11571C55.3581 3.11571 56.7364 4.49404 56.7364 6.19429C56.7364 7.89454 55.3581 9.27286 53.6578 9.27286C51.9576 9.27286 50.5792 7.89454 50.5792 6.19429ZM53.6578 4.61571C52.786 4.61571 52.0792 5.32246 52.0792 6.19429C52.0792 7.06611 52.786 7.77286 53.6578 7.77286C54.5296 7.77286 55.2364 7.06611 55.2364 6.19429C55.2364 5.32246 54.5296 4.61571 53.6578 4.61571Z" fill="#0B0D0E"/>
<path d="M61.0363 9.79034C61.0363 10.0665 60.8125 10.2904 60.5364 10.2904L58.0516 10.2907C57.5051 10.2908 57.2431 9.61961 57.6451 9.24935L59.3447 7.68407C59.5941 7.42801 59.592 7.01828 59.3385 6.76477C59.0829 6.50918 58.6685 6.50918 58.4129 6.76477C58.3439 6.83377 58.2942 6.91319 58.2627 6.99746C58.1659 7.2561 57.8778 7.38731 57.6192 7.29054C57.3605 7.19377 57.2293 6.90566 57.3261 6.64703C57.4067 6.43151 57.5337 6.22978 57.7058 6.05767C58.3519 5.41155 59.3995 5.41154 60.0456 6.05767C60.6917 6.70379 60.6917 7.75136 60.0456 8.39748L60.0383 8.40475L59.0765 9.29057L60.5362 9.2904C60.8124 9.29037 61.0363 9.5142 61.0363 9.79034Z" fill="#0B0D0E"/>
</svg>
