<svg width="64" height="64" viewBox="0 0 64 64" fill="none" xmlns="http://www.w3.org/2000/svg">
<path fill-rule="evenodd" clip-rule="evenodd" d="M29.3809 34.48C29.3809 33.9277 29.8286 33.48 30.3809 33.48H42.6904C43.2427 33.48 43.6904 33.9277 43.6904 34.48C43.6904 35.0323 43.2427 35.48 42.6904 35.48H30.3809C29.8286 35.48 29.3809 35.0323 29.3809 34.48Z" fill="#0B0D0E"/>
<path fill-rule="evenodd" clip-rule="evenodd" d="M14.8249 42.9199C16.4962 43.1066 18.9357 43.3252 20.7682 43.2719C22.8243 43.2121 25.5008 42.6266 27.3762 42.1448C28.9023 41.7527 30.5115 41.6097 32.1122 41.8315L37.2139 42.5384L37.2139 27.2465C35.6686 26.957 32.2906 26.3712 29.7225 26.2504C28.0925 26.1737 26.9093 26.5338 25.6026 26.9727C25.525 26.9988 25.4469 27.0252 25.3682 27.0518C24.1138 27.4755 22.7044 27.9515 20.8264 28.0061C18.8422 28.0639 16.2822 27.8302 14.6029 27.6426L14.8249 25.655C16.4962 25.8416 18.9357 26.0603 20.7682 26.007C22.3409 25.9612 23.4982 25.5713 24.7655 25.1442C24.8319 25.1219 24.8986 25.0994 24.9657 25.0769C26.32 24.6219 27.7975 24.1576 29.8165 24.2526C32.5455 24.381 36.0586 24.995 37.5975 25.2836C38.546 25.4615 39.2139 26.2903 39.2139 27.2382L39.2139 42.5384C39.2139 43.7521 38.1416 44.686 36.9394 44.5194L31.8377 43.8126C30.5334 43.6318 29.1885 43.7441 27.8739 44.0819C25.9845 44.5672 23.1223 45.2043 20.8264 45.2711C18.8422 45.3288 16.2822 45.0951 14.6029 44.9075L14.8249 42.9199Z" fill="#0B0D0E"/>
<path fill-rule="evenodd" clip-rule="evenodd" d="M10.3574 24.9735C10.3574 23.3396 11.6819 22.0151 13.3158 22.0151C14.9496 22.0151 16.2741 23.3396 16.2741 24.9735L16.2741 55.0151C16.2741 55.5674 15.8264 56.0151 15.2741 56.0151C14.7218 56.0151 14.2741 55.5674 14.2741 55.0151L14.2741 24.9735C14.2741 24.4442 13.845 24.0151 13.3158 24.0151C12.7865 24.0151 12.3574 24.4442 12.3574 24.9735L12.3574 55.0151C12.3574 55.5674 11.9097 56.0151 11.3574 56.0151C10.8051 56.0151 10.3574 55.5674 10.3574 55.0151L10.3574 24.9735Z" fill="#0B0D0E"/>
<path fill-rule="evenodd" clip-rule="evenodd" d="M28.7279 35.358C28.2364 34.8732 28.2364 34.0872 28.7279 33.6025L32.8218 29.5648C33.215 29.177 33.8525 29.177 34.2457 29.5648C34.639 29.9526 34.639 30.5814 34.2457 30.9692L30.6859 34.4802L34.4993 38.2413C34.8925 38.6291 34.8925 39.2579 34.4993 39.6457C34.1061 40.0335 33.4686 40.0335 33.0753 39.6457L28.7279 35.358Z" fill="#0B0D0E"/>
<path fill-rule="evenodd" clip-rule="evenodd" d="M37.0511 10.4075C36.8144 10.0594 36.8881 9.57333 37.2157 9.32181C39.7936 7.34301 43.4135 7.5857 45.7347 10.0517C48.3098 12.7873 48.3098 17.2226 45.7347 19.9582C43.4135 22.4242 39.7936 22.6669 37.2157 20.6881C36.8881 20.4366 36.8144 19.9505 37.0511 19.6024C37.2879 19.2543 37.7454 19.176 38.0731 19.4275C40.0778 20.9663 42.8946 20.7761 44.6996 18.8585C46.7029 16.7302 46.7029 13.2796 44.6996 11.1514C42.8946 9.23383 40.0778 9.04359 38.0731 10.5824C37.7454 10.8339 37.2879 10.7556 37.0511 10.4075Z" fill="#0B0D0E"/>
<path fill-rule="evenodd" clip-rule="evenodd" d="M53.1639 10.4075C53.4006 10.0594 53.3269 9.57333 52.9993 9.32181C50.4214 7.34301 46.8015 7.5857 44.4803 10.0517C41.9052 12.7873 41.9052 17.2226 44.4803 19.9582C46.8015 22.4242 50.4214 22.6669 52.9993 20.6881C53.3269 20.4366 53.4006 19.9505 53.1639 19.6024C52.9271 19.2543 52.4696 19.176 52.1419 19.4275C50.1372 20.9663 47.3204 20.7761 45.5154 18.8585C43.5121 16.7302 43.5121 13.2796 45.5154 11.1514C47.3204 9.23383 50.1372 9.04359 52.1419 10.5824C52.4696 10.8339 52.9271 10.7556 53.1639 10.4075Z" fill="#0B0D0E"/>
<path d="M52.5547 15.2506L54.4676 11.3916C54.4941 11.338 54.5753 11.3639 54.5659 11.423L54.0827 14.4482C54.0776 14.48 54.1021 14.5087 54.1342 14.5087H55.6516C55.6908 14.5087 55.716 14.5503 55.6979 14.585L53.6838 18.448C53.6562 18.501 53.5756 18.4735 53.5861 18.4146L54.1281 15.3874C54.1338 15.3554 54.1092 15.326 54.0767 15.326H52.6014C52.5627 15.326 52.5375 15.2853 52.5547 15.2506Z" fill="#0B0D0E"/>
<path fill-rule="evenodd" clip-rule="evenodd" d="M52.274 15.1115L54.1869 11.2524C54.3729 10.8772 54.9413 11.0588 54.8752 11.4724L54.4403 14.1954H55.6516C55.926 14.1954 56.1025 14.4865 55.9757 14.7299L53.9616 18.5928C53.7681 18.9638 53.204 18.7713 53.2778 18.3594L53.7647 15.6392H52.6014C52.3302 15.6392 52.1536 15.3543 52.274 15.1115ZM54.0767 15.326C54.1092 15.326 54.1338 15.3554 54.1281 15.3874L53.5861 18.4146C53.5756 18.4735 53.6562 18.501 53.6838 18.448L55.6979 14.585C55.716 14.5503 55.6908 14.5087 55.6516 14.5087H54.1342C54.1021 14.5087 54.0776 14.48 54.0827 14.4482L54.5659 11.423C54.5753 11.3639 54.4941 11.338 54.4676 11.3916L52.5547 15.2506C52.5375 15.2853 52.5627 15.326 52.6014 15.326H54.0767Z" fill="#0B0D0E"/>
<path fill-rule="evenodd" clip-rule="evenodd" d="M34.8109 11.7987C35.3228 11.5814 35.9139 11.8202 36.1312 12.3321L36.318 12.7722C36.4687 13.1273 36.5517 13.5075 36.5627 13.8931L36.5717 14.2066C36.5871 14.746 36.4304 15.2763 36.1243 15.7206C36.0629 15.8098 36.0304 15.9156 36.0313 16.0239L36.0327 16.1989C36.0339 16.3499 36.0667 16.499 36.129 16.6365L36.2615 16.9292C36.4909 17.4357 36.2663 18.0323 35.7597 18.2617C35.2532 18.4911 34.6566 18.2665 34.4272 17.7599L34.2946 17.4673C34.1164 17.0736 34.0225 16.6471 34.0191 16.215L34.0177 16.0399C34.0135 15.5182 34.17 15.0079 34.466 14.5782C34.5295 14.4861 34.562 14.3761 34.5588 14.2642L34.5499 13.9507C34.546 13.8159 34.517 13.6831 34.4643 13.559L34.2775 13.1189C34.0603 12.607 34.2991 12.0159 34.8109 11.7987Z" fill="#0B0D0E"/>
<path fill-rule="evenodd" clip-rule="evenodd" d="M38.1697 11.7987C38.6816 11.5814 39.2727 11.8202 39.4899 12.3321L39.6767 12.7722C39.8275 13.1273 39.9105 13.5075 39.9215 13.8931L39.9305 14.2066C39.9459 14.746 39.7892 15.2763 39.4831 15.7206C39.4217 15.8098 39.3892 15.9156 39.3901 16.0239L39.3915 16.1989C39.3927 16.3499 39.4255 16.499 39.4878 16.6365L39.6203 16.9292C39.8497 17.4357 39.625 18.0323 39.1185 18.2617C38.612 18.4911 38.0154 18.2665 37.786 17.7599L37.6534 17.4673C37.4752 17.0736 37.3813 16.6471 37.3778 16.215L37.3764 16.0399C37.3723 15.5182 37.5288 15.0079 37.8248 14.5782C37.8883 14.4861 37.9208 14.3761 37.9176 14.2642L37.9086 13.9507C37.9048 13.8159 37.8758 13.6831 37.8231 13.559L37.6363 13.1189C37.419 12.607 37.6579 12.0159 38.1697 11.7987Z" fill="#0B0D0E"/>
</svg>
