<svg width="64" height="64" viewBox="0 0 64 64" fill="none" xmlns="http://www.w3.org/2000/svg">
<path fill-rule="evenodd" clip-rule="evenodd" d="M56 8H52V12H56V8ZM50 6V14H58V6H50Z" fill="#0B0D0E"/>
<path fill-rule="evenodd" clip-rule="evenodd" d="M52 2V5H50V2H52ZM55 2V5H53V2H55ZM56 5V2H58V5H56ZM49 6V8H46V6H49ZM62 8H59V6H62V8ZM49 9V11H46V9H49ZM62 11H59V9H62V11ZM46 14V12H49V14H46ZM62 14H59V12H62V14ZM50 18V15H52V18H50ZM53 18V15H55V18H53ZM56 18V15H58V18H56Z" fill="#0B0D0E"/>
<path fill-rule="evenodd" clip-rule="evenodd" d="M21.3322 48.2418C21.3322 49.9364 19.9584 51.3102 18.2637 51.3102C16.5691 51.3102 15.1953 49.9364 15.1953 48.2418C15.1953 46.5471 16.5691 45.1733 18.2637 45.1733C19.9584 45.1733 21.3322 46.5471 21.3322 48.2418ZM18.2637 49.3102C18.8538 49.3102 19.3322 48.8318 19.3322 48.2418C19.3322 47.6517 18.8538 47.1733 18.2637 47.1733C17.6737 47.1733 17.1953 47.6517 17.1953 48.2418C17.1953 48.8318 17.6737 49.3102 18.2637 49.3102Z" fill="#0B0D0E"/>
<path fill-rule="evenodd" clip-rule="evenodd" d="M43.7579 51.3102C45.4525 51.3102 46.8263 49.9364 46.8263 48.2418C46.8263 46.5471 45.4525 45.1733 43.7579 45.1733C42.0632 45.1733 40.6895 46.5471 40.6895 48.2418C40.6895 49.9364 42.0632 51.3102 43.7579 51.3102ZM44.8263 48.2418C44.8263 48.8318 44.348 49.3102 43.7579 49.3102C43.1678 49.3102 42.6895 48.8318 42.6895 48.2418C42.6895 47.6517 43.1678 47.1733 43.7579 47.1733C44.348 47.1733 44.8263 47.6517 44.8263 48.2418Z" fill="#0B0D0E"/>
<path fill-rule="evenodd" clip-rule="evenodd" d="M40 22V19.8099C40 19.2905 39.7979 18.7914 39.4365 18.4183L32.8394 11.6084C32.4627 11.2195 31.9444 11 31.4029 11H11C9.89543 11 9 11.8954 9 13V41C9 41.511 9.19162 41.9772 9.50693 42.3307C9.18677 42.8079 9 43.3822 9 44V45C9 46.3183 9.85032 47.438 11.0324 47.8405C11.0252 47.9734 11.0215 48.1071 11.0215 48.2417C11.0215 52.2412 14.2637 55.4835 18.2632 55.4835C22.2627 55.4835 25.505 52.2412 25.505 48.2417C25.505 48.1608 25.5036 48.0803 25.501 48H36.5196C36.517 48.0803 36.5156 48.1608 36.5156 48.2417C36.5156 52.2412 39.7579 55.4835 43.7574 55.4835C47.7569 55.4835 50.9991 52.2412 50.9991 48.2417C50.9991 48.1608 50.9978 48.0803 50.9951 48H51C53.2091 48 55 46.2091 55 44V35.7799C55 35.4398 54.9566 35.1012 54.871 34.7721L52.1302 24.2442C51.7862 22.9225 50.5928 22 49.227 22H40ZM13.027 48C13.0593 47.2869 13.2342 46.611 13.5237 46C14.364 44.2265 16.1704 43 18.2632 43C20.3561 43 22.1625 44.2265 23.0028 46C23.2923 46.611 23.4671 47.2869 23.4995 48C23.5031 48.0801 23.505 48.1607 23.505 48.2417C23.505 51.1367 21.1582 53.4835 18.2632 53.4835C15.3683 53.4835 13.0215 51.1367 13.0215 48.2417C13.0215 48.1607 13.0233 48.0801 13.027 48ZM11.4346 45.8249C11.818 44.7417 12.4518 43.7768 13.2665 43H12C11.4477 43 11 43.4477 11 44V45C11 45.3424 11.1721 45.6447 11.4346 45.8249ZM38 41H11V13H31.4029L38 19.8099V41ZM25.1513 46C24.7759 44.8456 24.1183 43.8185 23.2599 43H38V43.8484C37.5098 44.4898 37.1244 45.2155 36.8693 46H25.1513ZM38.5211 48C38.5813 46.6745 39.1337 45.4773 40 44.5869C40.9523 43.608 42.2838 43 43.7574 43C45.8502 43 47.6566 44.2265 48.4969 46C48.7864 46.611 48.9613 47.2869 48.9936 48C48.9973 48.0801 48.9991 48.1607 48.9991 48.2417C48.9991 51.1367 46.6523 53.4835 43.7574 53.4835C40.8624 53.4835 38.5156 51.1367 38.5156 48.2417C38.5156 48.1607 38.5175 48.0801 38.5211 48ZM43.7574 41C46.9744 41 49.7015 43.0978 50.6454 46H51C52.1046 46 53 45.1046 53 44V43C51.8954 43 51 42.1046 51 41C51 39.8954 51.8954 39 53 39V37H44V26H50.5207L50.1947 24.7481C50.0801 24.3075 49.6823 24 49.227 24H40V42.0498C41.0954 41.3836 42.3816 41 43.7574 41ZM51.0413 28L52.8636 35H46V28H51.0413Z" fill="#0B0D0E"/>
</svg>
