<svg width="64" height="64" viewBox="0 0 64 64" fill="none" xmlns="http://www.w3.org/2000/svg">
<path fill-rule="evenodd" clip-rule="evenodd" d="M52.8966 19H11.1034L9.37528 29L54.6248 29L52.8966 19ZM11.1034 17C10.1302 17 9.29832 17.7005 9.13261 18.6594L7.40449 28.6594C7.19322 29.882 8.13456 31 9.37528 31H54.6248C55.8655 31 56.8068 29.882 56.5955 28.6594L54.8674 18.6594C54.7017 17.7005 53.8698 17 52.8966 17H11.1034Z" fill="#0B0D0E"/>
<path fill-rule="evenodd" clip-rule="evenodd" d="M41 51H23L23 54H41V51ZM23 49C21.8954 49 21 49.8954 21 51V54C21 55.1046 21.8954 56 23 56H41C42.1046 56 43 55.1046 43 54V51C43 49.8954 42.1046 49 41 49H23Z" fill="#0B0D0E"/>
<path fill-rule="evenodd" clip-rule="evenodd" d="M44 47H20V49H44V47ZM20 45C18.8954 45 18 45.8954 18 47V49C18 50.1046 18.8954 51 20 51H44C45.1046 51 46 50.1046 46 49V47C46 45.8954 45.1046 45 44 45H20Z" fill="#0B0D0E"/>
<path fill-rule="evenodd" clip-rule="evenodd" d="M53 31H11L11 54H53V31ZM11 29C9.89545 29 9.00002 29.8954 9.00002 31V54C9.00002 55.1046 9.89545 56 11 56H53C54.1046 56 55 55.1046 55 54V31C55 29.8954 54.1046 29 53 29H11Z" fill="#0B0D0E"/>
<path fill-rule="evenodd" clip-rule="evenodd" d="M13 31H11L11 54H13V31ZM11 29C9.89545 29 9.00002 29.8954 9.00002 31V54C9.00002 55.1046 9.89545 56 11 56H13C14.1046 56 15 55.1046 15 54V31C15 29.8954 14.1046 29 13 29H11Z" fill="#0B0D0E"/>
<path fill-rule="evenodd" clip-rule="evenodd" d="M53 31H51L51 54H53V31ZM51 29C49.8955 29 49 29.8954 49 31V54C49 55.1046 49.8954 56 51 56H53C54.1046 56 55 55.1046 55 54V31C55 29.8954 54.1046 29 53 29H51Z" fill="#0B0D0E"/>
</svg>
