<svg width="64" height="64" viewBox="0 0 64 64" fill="none" xmlns="http://www.w3.org/2000/svg">
<path d="M51.1077 5.66235V2.66235H49.1077V5.66235H51.1077Z" fill="#0B0D0E"/>
<path d="M54.1077 5.66235V2.66235H52.1077V5.66235H54.1077Z" fill="#0B0D0E"/>
<path d="M55.1077 2.66235V5.66235H57.1077V2.66235H55.1077Z" fill="#0B0D0E"/>
<path d="M48.1077 8.66235V6.66235H45.1077V8.66235H48.1077Z" fill="#0B0D0E"/>
<path d="M58.1077 8.66235H61.1077V6.66235H58.1077V8.66235Z" fill="#0B0D0E"/>
<path d="M48.1077 11.6624V9.66235H45.1077V11.6624H48.1077Z" fill="#0B0D0E"/>
<path d="M58.1077 11.6624H61.1077V9.66235H58.1077V11.6624Z" fill="#0B0D0E"/>
<path d="M45.1077 12.6624V14.6624H48.1077V12.6624H45.1077Z" fill="#0B0D0E"/>
<path d="M58.1077 14.6624H61.1077V12.6624H58.1077V14.6624Z" fill="#0B0D0E"/>
<path d="M49.1077 15.6624V18.6624H51.1077V15.6624H49.1077Z" fill="#0B0D0E"/>
<path d="M52.1077 15.6624V18.6624H54.1077V15.6624H52.1077Z" fill="#0B0D0E"/>
<path d="M55.1077 15.6624V18.6624H57.1077V15.6624H55.1077Z" fill="#0B0D0E"/>
<path fill-rule="evenodd" clip-rule="evenodd" d="M49.1077 14.6624V6.66235H57.1077V14.6624H49.1077ZM51.1077 8.66235H55.1077V12.6624H51.1077V8.66235Z" fill="#0B0D0E"/>
<path fill-rule="evenodd" clip-rule="evenodd" d="M57.7081 41.9109C57.9164 42.3274 58.0248 42.7867 58.0248 43.2525V46.0164C58.0248 47.6732 56.6817 49.0164 55.0248 49.0164H51.0249C51.0249 51.7778 48.7863 54.0164 46.0249 54.0164C43.2635 54.0164 41.0249 51.7778 41.0249 49.0164H23.0249C23.0249 51.7778 20.7863 54.0164 18.0249 54.0164C15.2635 54.0164 13.0249 51.7778 13.0249 49.0164H9.02484C7.36799 49.0164 6.02484 47.6732 6.02484 46.0164V43.1313C6.02484 42.9023 6.05106 42.674 6.10298 42.451L8.05089 42.9045C8.03358 42.9789 8.02484 43.0549 8.02484 43.1313V46.0164C8.02484 46.5687 8.47256 47.0164 9.02484 47.0164H13.4409C14.2125 45.2505 15.9746 44.0164 18.0249 44.0164C20.0752 44.0164 21.8373 45.2505 22.6089 47.0164H41.4409C42.2125 45.2505 43.9746 44.0164 46.0249 44.0164C48.0752 44.0164 49.8373 45.2505 50.6089 47.0164H55.0248C55.5771 47.0164 56.0248 46.5687 56.0248 46.0164V43.2525C56.0248 43.0972 55.9887 42.9441 55.9193 42.8052L53.2216 37.4099C53.0963 37.1591 52.8714 36.9725 52.6019 36.8955L46.288 35.0916C46.1946 35.0649 46.1061 35.0249 46.0249 34.9731V35.0164H20.2175C19.963 35.0164 19.7109 34.9679 19.4747 34.8734L15.187 33.1583L10.7762 33.9053C10.3788 33.9726 10.0606 34.2719 9.96925 34.6645L8.05089 42.9045L6.10298 42.451L8.02134 34.211C8.29553 33.0333 9.25001 32.1353 10.4423 31.9334L14.8823 31.1814L18.8516 25.6768C19.6035 24.6342 20.8106 24.0164 22.0961 24.0164H37.0709C37.8948 24.0164 38.6825 24.3553 39.249 24.9535L47.1006 33.2437L53.1514 34.9725C53.9599 35.2035 54.6344 35.7633 55.0105 36.5154L57.7081 41.9109ZM37.7969 26.3288L44.1307 33.0164H32.7457L30.4123 26.0164H37.0709C37.3455 26.0164 37.6081 26.1293 37.7969 26.3288ZM28.3041 26.0164L30.6375 33.0164H20.2175L16.9635 31.7148L20.4738 26.8466C20.8498 26.3253 21.4533 26.0164 22.0961 26.0164H28.3041ZM48.261 47.0164C47.7117 46.4026 46.9134 46.0164 46.0249 46.0164C45.1364 46.0164 44.3381 46.4026 43.7888 47.0164C43.3138 47.5471 43.0249 48.248 43.0249 49.0164C43.0249 50.6732 44.368 52.0164 46.0249 52.0164C47.6818 52.0164 49.0249 50.6732 49.0249 49.0164C49.0249 48.248 48.736 47.5471 48.261 47.0164ZM18.0249 46.0164C17.1364 46.0164 16.3381 46.4026 15.7888 47.0164C15.3138 47.5471 15.0249 48.248 15.0249 49.0164C15.0249 50.6732 16.368 52.0164 18.0249 52.0164C19.6818 52.0164 21.0249 50.6732 21.0249 49.0164C21.0249 48.248 20.736 47.5471 20.261 47.0164C19.7117 46.4026 18.9134 46.0164 18.0249 46.0164Z" fill="#0B0D0E"/>
</svg>
