<svg width="64" height="64" viewBox="0 0 64 64" fill="none" xmlns="http://www.w3.org/2000/svg">
<path fill-rule="evenodd" clip-rule="evenodd" d="M39 28H41.7795L39 24.6028V28ZM40.5479 23.3363C39.3577 21.8816 37 22.7232 37 24.6028V28C37 29.1045 37.8954 30 39 30H41.7795C43.4668 30 44.3959 28.0394 43.3274 26.7335L40.5479 23.3363Z" fill="#0B0D0E"/>
<path fill-rule="evenodd" clip-rule="evenodd" d="M53 41V45C51.8954 45 51 44.1046 51 43C51 41.8954 51.8954 41 53 41Z" fill="#0B0D0E"/>
<path fill-rule="evenodd" clip-rule="evenodd" d="M41 30H43V37H50V39H41V30Z" fill="#0B0D0E"/>
<path d="M13 20H37V47H21.2361C21.7111 47.5308 22 48.2317 22 49H39V20C39 18.8954 38.1046 18 37 18H13C11.8954 18 11 18.8954 11 20V47C11 48.1046 11.8954 49 13 49H16C16 48.2317 16.2889 47.5308 16.7639 47H13V20Z" fill="#0B0D0E"/>
<path fill-rule="evenodd" clip-rule="evenodd" d="M24 49C24 51.7614 21.7614 54 19 54C16.2386 54 14 51.7614 14 49C14 46.2386 16.2386 44 19 44C21.7614 44 24 46.2386 24 49ZM19 52C20.6569 52 22 50.6569 22 49C22 47.3432 20.6569 46 19 46C17.3431 46 16 47.3432 16 49C16 50.6569 17.3431 52 19 52Z" fill="#0B0D0E"/>
<path d="M39 30L43.4603 30L47.5838 37.1475C47.7766 37.4817 48.0167 37.7862 48.2967 38.0516L53 42.5099V47H49.2361C49.7111 47.5308 50 48.2317 50 49H53C54.1046 49 55 48.1046 55 47V42.5099C55 41.9609 54.7743 41.4361 54.3759 41.0584L49.6726 36.6001C49.5326 36.4674 49.4126 36.3151 49.3162 36.1481L45.1926 29.0006C44.8354 28.3814 44.175 28 43.4603 28L39 28C37.8954 28 37 28.8954 37 30V47C37 48.1046 37.8954 49 39 49H44C44 48.2317 44.2889 47.5308 44.7639 47H39V30Z" fill="#0B0D0E"/>
<path fill-rule="evenodd" clip-rule="evenodd" d="M52 49C52 51.7614 49.7614 54 47 54C44.2386 54 42 51.7614 42 49C42 46.2386 44.2386 44 47 44C49.7614 44 52 46.2386 52 49ZM47 52C48.6569 52 50 50.6569 50 49C50 47.3432 48.6569 46 47 46C45.3431 46 44 47.3432 44 49C44 50.6569 45.3431 52 47 52Z" fill="#0B0D0E"/>
<path fill-rule="evenodd" clip-rule="evenodd" d="M54.0131 9.94794H50.0131V13.9479H54.0131V9.94794ZM48.0131 7.94794V15.9479H56.0131V7.94794H48.0131Z" fill="#0B0D0E"/>
<path fill-rule="evenodd" clip-rule="evenodd" d="M50.0131 3.94794V6.94794H48.0131V3.94794H50.0131ZM53.0131 3.94794V6.94794H51.0131V3.94794H53.0131ZM54.0131 6.94794V3.94794H56.0131V6.94794H54.0131ZM47.0131 7.94794V9.94794H44.0131V7.94794H47.0131ZM60.0131 9.94794H57.0131V7.94794H60.0131V9.94794ZM47.0131 10.9479V12.9479H44.0131V10.9479H47.0131ZM60.0131 12.9479H57.0131V10.9479H60.0131V12.9479ZM44.0131 15.9479V13.9479H47.0131V15.9479H44.0131ZM60.0131 15.9479H57.0131V13.9479H60.0131V15.9479ZM48.0131 19.9479V16.9479H50.0131V19.9479H48.0131ZM51.0131 19.9479V16.9479H53.0131V19.9479H51.0131ZM54.0131 19.9479V16.9479H56.0131V19.9479H54.0131Z" fill="#0B0D0E"/>
</svg>
