<svg width="64" height="64" viewBox="0 0 64 64" fill="none" xmlns="http://www.w3.org/2000/svg">
<path fill-rule="evenodd" clip-rule="evenodd" d="M28.0238 11.7875C28.1237 11.3278 28.5306 10.9999 29.001 10.9999H35.001C35.4714 10.9999 35.8782 11.3278 35.9782 11.7875L45.9782 57.7875C46.0955 58.3272 45.7531 58.8598 45.2134 58.9771C44.6737 59.0944 44.1411 58.752 44.0238 58.2124L34.195 12.9999H29.8069L19.9782 58.2124C19.8608 58.752 19.3282 59.0944 18.7885 58.9771C18.2489 58.8598 17.9065 58.3272 18.0238 57.7875L28.0238 11.7875Z" fill="#0B0D0E"/>
<path fill-rule="evenodd" clip-rule="evenodd" d="M18.001 22.9999C18.001 22.4477 18.4487 21.9999 19.001 21.9999H45.001C45.5533 21.9999 46.001 22.4477 46.001 22.9999C46.001 23.5522 45.5533 23.9999 45.001 23.9999H19.001C18.4487 23.9999 18.001 23.5522 18.001 22.9999Z" fill="#0B0D0E"/>
<path fill-rule="evenodd" clip-rule="evenodd" d="M15.001 34.4999C15.001 33.9477 15.4487 33.4999 16.001 33.4999H48.001C48.5533 33.4999 49.001 33.9477 49.001 34.4999C49.001 35.0522 48.5533 35.4999 48.001 35.4999H16.001C15.4487 35.4999 15.001 35.0522 15.001 34.4999Z" fill="#0B0D0E"/>
<path fill-rule="evenodd" clip-rule="evenodd" d="M25.7959 22.3472C26.1564 21.9288 26.7879 21.8819 27.2063 22.2424L32.0006 26.3732L36.7949 22.2424C37.2133 21.8819 37.8447 21.9288 38.2052 22.3472C38.5657 22.7656 38.5188 23.397 38.1004 23.7575L33.5326 27.6932L40.5533 33.7424C40.9717 34.1029 41.0187 34.7343 40.6582 35.1527C40.2977 35.5711 39.6662 35.618 39.2478 35.2575L32.0006 29.0132L24.7533 35.2575C24.3349 35.618 23.7035 35.5711 23.343 35.1527C22.9825 34.7343 23.0294 34.1029 23.4478 33.7424L30.4686 27.6932L25.9008 23.7575C25.4824 23.397 25.4354 22.7656 25.7959 22.3472Z" fill="#0B0D0E"/>
<path fill-rule="evenodd" clip-rule="evenodd" d="M23.2821 33.9271C23.5985 33.4744 24.222 33.3639 24.6746 33.6803L32.0018 38.8014L39.3289 33.6803C39.7816 33.3639 40.405 33.4744 40.7214 33.9271C41.0378 34.3797 40.9273 35.0032 40.4746 35.3196L33.7474 40.0214L43.2746 46.6803C43.7273 46.9967 43.8378 47.6201 43.5214 48.0728C43.205 48.5255 42.5816 48.636 42.1289 48.3196L32.0018 41.2415L21.8746 48.3196C21.422 48.636 20.7985 48.5255 20.4821 48.0728C20.1657 47.6201 20.2762 46.9967 20.7289 46.6803L30.2562 40.0214L23.5289 35.3196C23.0762 35.0032 22.9657 34.3797 23.2821 33.9271Z" fill="#0B0D0E"/>
<path fill-rule="evenodd" clip-rule="evenodd" d="M20.4014 47.4999C20.4014 46.9477 20.8491 46.4999 21.4014 46.4999H42.0014C42.5536 46.4999 43.0014 46.9477 43.0014 47.4999C43.0014 48.0522 42.5536 48.4999 42.0014 48.4999H21.4014C20.8491 48.4999 20.4014 48.0522 20.4014 47.4999Z" fill="#0B0D0E"/>
<path d="M39.5892 8.46136C39.6178 8.46136 39.6464 8.46136 39.6751 8.45696C40.1606 8.41075 40.5256 7.97944 40.4891 7.49532L40.3638 5.79428C40.3295 5.31236 39.9069 4.95587 39.4192 5.00428C38.9338 5.05049 38.5688 5.4818 38.6052 5.96593L38.7305 7.66696C38.7655 8.12027 39.1401 8.46136 39.5892 8.46136Z" fill="#0B0D0E"/>
<path d="M36.4116 8.96088C36.5774 9.20075 36.845 9.32838 37.118 9.32838C37.2963 9.32838 37.4759 9.27556 37.6327 9.16334C38.0359 8.88166 38.1419 8.33152 37.8678 7.93542L36.9071 6.54467C36.633 6.14637 36.0827 6.05834 35.6839 6.34002C35.2807 6.62169 35.1747 7.17183 35.4489 7.56793L36.4116 8.96088Z" fill="#0B0D0E"/>
<path d="M43.3511 16.2141C43.0748 15.8158 42.5267 15.7278 42.1279 16.0094C41.7247 16.2911 41.6187 16.8413 41.8929 17.2374L42.8557 18.6281C43.0215 18.868 43.2891 18.9956 43.562 18.9956C43.7403 18.9956 43.9199 18.9428 44.0768 18.8306C44.4799 18.5489 44.586 17.9988 44.3118 17.6027L43.3511 16.2141Z" fill="#0B0D0E"/>
<path d="M46.2813 14.6544L44.7425 13.948C44.316 13.7478 43.7785 13.9414 43.5672 14.3859C43.356 14.8283 43.539 15.3498 43.9765 15.5522L45.5153 16.2586C45.6307 16.3114 45.7533 16.3378 45.8765 16.3378C46.2089 16.3378 46.535 16.1464 46.6905 15.8229C46.9018 15.3784 46.721 14.8547 46.2813 14.6544Z" fill="#0B0D0E"/>
<path d="M46.5394 11.1507L44.8337 11.318C44.3483 11.3642 43.9832 11.7955 44.0197 12.2796C44.0547 12.7351 44.4271 13.074 44.8762 13.074C44.9048 13.074 44.9312 13.074 44.9621 13.0696L46.6678 12.9024C47.1532 12.8561 47.5183 12.4248 47.4818 11.9407C47.4475 11.4588 47.0623 11.1001 46.5394 11.1507Z" fill="#0B0D0E"/>
<path d="M43.3607 10.2553C43.5265 10.4951 43.794 10.6228 44.067 10.6228C44.2453 10.6228 44.4249 10.5699 44.5818 10.4577L45.9975 9.46306C46.4007 9.18139 46.5067 8.63125 46.2325 8.23515C45.9562 7.83685 45.4081 7.74882 45.0093 8.0305L43.5936 9.02515C43.1947 9.30902 43.0887 9.85916 43.3607 10.2553Z" fill="#0B0D0E"/>
<path d="M42.9458 8.41948L43.6909 6.86149C43.9021 6.41917 43.7191 5.89764 43.2816 5.69519C42.8464 5.49274 42.3176 5.68859 42.1063 6.1331L41.3613 7.6911C41.15 8.13341 41.3331 8.65494 41.7705 8.8574C41.8881 8.91021 42.0085 8.93662 42.1318 8.93662C42.4664 8.93442 42.7903 8.74297 42.9458 8.41948Z" fill="#0B0D0E"/>
</svg>
