<svg width="64" height="64" viewBox="0 0 64 64" fill="none" xmlns="http://www.w3.org/2000/svg">
<path fill-rule="evenodd" clip-rule="evenodd" d="M43.3274 26.7335C43.6507 27.1286 43.7911 27.5836 43.783 28.0262C44.3696 28.122 44.89 28.476 45.1926 29.0006L49.3162 36.148C49.4126 36.3151 49.5326 36.4674 49.6726 36.6001L54.3759 41.0584C54.7743 41.4361 55 41.9609 55 42.5099V47C55 48.1046 54.1046 49 53 49H52C52 51.7614 49.7614 54 47 54C44.2386 54 42 51.7614 42 49H24C24 51.7614 21.7614 54 19 54C16.2386 54 14 51.7614 14 49H13C11.8954 49 11 48.1046 11 47V20C11 18.8954 11.8954 18 13 18H37C38.1046 18 39 18.8954 39 20V22.5989C39.558 22.5938 40.1262 22.8209 40.5479 23.3363L43.3274 26.7335ZM13 20H37V47H23.584C22.8124 45.2341 21.0503 44 19 44C16.9497 44 15.1876 45.2341 14.416 47H13V20ZM44.7639 47C44.2889 47.5308 44 48.2316 44 49C44 50.6569 45.3431 52 47 52C48.6569 52 50 50.6569 50 49C50 48.2316 49.7111 47.5308 49.2361 47C48.6868 46.3862 47.8885 46 47 46C46.1115 46 45.3132 46.3862 44.7639 47ZM51.584 47C50.8124 45.2341 49.0503 44 47 44C44.9497 44 43.1876 45.2341 42.416 47H39V30H41V39H49.2972L51.8162 41.3878C51.3212 41.7519 51 42.3384 51 43C51 44.1046 51.8954 45 53 45V47H51.584ZM43.4603 30L47.4987 37H43V30H43.4603ZM16.7639 47C16.2889 47.5308 16 48.2316 16 49C16 50.6569 17.3431 52 19 52C20.6569 52 22 50.6569 22 49C22 48.2316 21.7111 47.5308 21.2361 47C20.6868 46.3863 19.8885 46 19 46C18.1115 46 17.3132 46.3863 16.7639 47ZM41.7795 28H39V24.6028L41.7795 28Z" fill="#0B0D0E"/>
<path d="M57 15V13H53V15H57Z" fill="#0B0D0E"/>
<path fill-rule="evenodd" clip-rule="evenodd" d="M58 4H46C44.8954 4 44 4.89543 44 6V16C44 17.1046 44.8954 18 46 18H58C59.1046 18 60 17.1046 60 16V6C60 4.89543 59.1046 4 58 4ZM58 6H55V9C55 9.55228 54.5523 10 54 10H50C49.4477 10 49 9.55228 49 9V6H46V16H58V6ZM51 6H53V8H51V6Z" fill="#0B0D0E"/>
</svg>
