<svg width="64" height="64" viewBox="0 0 64 64" fill="none" xmlns="http://www.w3.org/2000/svg">
<path fill-rule="evenodd" clip-rule="evenodd" d="M13 13H40V11H13C11.8954 11 11 11.8954 11 13V49C11 50.1046 11.8954 51 13 51H51C52.1046 51 53 50.1046 53 49V24H51V49H13V13Z" fill="#212121"/>
<path fill-rule="evenodd" clip-rule="evenodd" d="M15 51C15 49.8954 15.8954 49 17 49H23C24.1046 49 25 49.8954 25 51V54C25 55.1046 24.1046 56 23 56H17C15.8954 56 15 55.1046 15 54V51ZM23 51H17V54H23V51Z" fill="#212121"/>
<path fill-rule="evenodd" clip-rule="evenodd" d="M39 51C39 49.8954 39.8954 49 41 49H47C48.1046 49 49 49.8954 49 51V54C49 55.1046 48.1046 56 47 56H41C39.8954 56 39 55.1046 39 54V51ZM47 51H41V54H47V51Z" fill="#212121"/>
<path fill-rule="evenodd" clip-rule="evenodd" d="M23 42H17V45H23V42ZM17 40C15.8954 40 15 40.8954 15 42V45C15 46.1046 15.8954 47 17 47H23C24.1046 47 25 46.1046 25 45V42C25 40.8954 24.1046 40 23 40H17Z" fill="#212121"/>
<path fill-rule="evenodd" clip-rule="evenodd" d="M47 42H41V45H47V42ZM41 40C39.8954 40 39 40.8954 39 42V45C39 46.1046 39.8954 47 41 47H47C48.1046 47 49 46.1046 49 45V42C49 40.8954 48.1046 40 47 40H41Z" fill="#212121"/>
<path fill-rule="evenodd" clip-rule="evenodd" d="M13 18H40V16H13C11.8954 16 11 16.8954 11 18V36C11 37.1046 11.8954 38 13 38H51C52.1046 38 53 37.1046 53 36V24H51V36H13V18Z" fill="#212121"/>
<path fill-rule="evenodd" clip-rule="evenodd" d="M7 21C7 19.3431 8.34315 18 10 18H12C12.5523 18 13 18.4477 13 19C13 19.5523 12.5523 20 12 20H10C9.44772 20 9 20.4477 9 21V28C9 28.5523 8.55228 29 8 29C7.44772 29 7 28.5523 7 28V21Z" fill="#212121"/>
<path fill-rule="evenodd" clip-rule="evenodd" d="M57 24V28C57 28.5523 56.5523 29 56 29C55.4477 29 55 28.5523 55 28V24H57Z" fill="#212121"/>
<path d="M49 8V5H47V8H49Z" fill="#212121"/>
<path d="M52 8V5H50V8H52Z" fill="#212121"/>
<path d="M53 5V8H55V5H53Z" fill="#212121"/>
<path d="M46 11V9H43V11H46Z" fill="#212121"/>
<path d="M56 11H59V9H56V11Z" fill="#212121"/>
<path d="M46 14V12H43V14H46Z" fill="#212121"/>
<path d="M56 14H59V12H56V14Z" fill="#212121"/>
<path d="M43 15V17H46V15H43Z" fill="#212121"/>
<path d="M56 17H59V15H56V17Z" fill="#212121"/>
<path d="M47 18V21H49V18H47Z" fill="#212121"/>
<path d="M50 18V21H52V18H50Z" fill="#212121"/>
<path d="M53 18V21H55V18H53Z" fill="#212121"/>
<path fill-rule="evenodd" clip-rule="evenodd" d="M47 9H55V17H47V9ZM49 11H53V15H49V11Z" fill="#212121"/>
</svg>
