<svg width="64" height="64" viewBox="0 0 64 64" fill="none" xmlns="http://www.w3.org/2000/svg">
<path fill-rule="evenodd" clip-rule="evenodd" d="M15 40C15 38.8954 15.8954 38 17 38H23C24.1046 38 25 38.8954 25 40V43C25 44.1046 24.1046 45 23 45H17C15.8954 45 15 44.1046 15 43V40ZM17 40H23V43H17V40Z" fill="#0B0D0E"/>
<path fill-rule="evenodd" clip-rule="evenodd" d="M41 38C39.8954 38 39 38.8954 39 40V43C39 44.1046 39.8954 45 41 45H47C48.1046 45 49 44.1046 49 43V40C49 38.8954 48.1046 38 47 38H41ZM47 40H41V43H47V40Z" fill="#0B0D0E"/>
<path fill-rule="evenodd" clip-rule="evenodd" d="M46 11V10C46 9.6547 46.0438 9.31962 46.126 9H13C11.8954 9 11 9.89543 11 11V16L10 16C8.34315 16 7 17.3431 7 19V26C7 26.5523 7.44772 27 8 27C8.55228 27 9 26.5523 9 26V19C9 18.4477 9.44772 18 10 18H11V47C11 48.1046 11.8954 49 13 49H15V52C15 53.1046 15.8954 54 17 54H23C24.1046 54 25 53.1046 25 52V49H39V52C39 53.1046 39.8954 54 41 54H47C48.1046 54 49 53.1046 49 52V49H51C52.1046 49 53 48.1046 53 47V24H51V34L13 34V16H46V14H13V11H46ZM51 36H13L13 47H51V36ZM41 49H47V52H41V49ZM23 49H17V52H23V49Z" fill="#0B0D0E"/>
<path d="M55 24V26C55 26.5523 55.4477 27 56 27C56.5523 27 57 26.5523 57 26V24H55Z" fill="#0B0D0E"/>
<path fill-rule="evenodd" clip-rule="evenodd" d="M49 5C49 4.44772 49.4477 4 50 4H58C58.5523 4 59 4.44772 59 5C59 5.55228 58.5523 6 58 6V8C59.1046 8 60 8.89543 60 10V20C60 21.1046 59.1046 22 58 22H50C48.8954 22 48 21.1046 48 20V10C48 8.89543 48.8954 8 50 8V6C49.4477 6 49 5.55228 49 5ZM50 11C50 10.4477 50.4477 10 51 10H57C57.5523 10 58 10.4477 58 11V19C58 19.5523 57.5523 20 57 20H51C50.4477 20 50 19.5523 50 19V11ZM56 6H52V8H56V6Z" fill="#0B0D0E"/>
<path d="M50 13H58V17H50V13Z" fill="#0B0D0E"/>
</svg>
