<svg width="64" height="64" viewBox="0 0 64 64" fill="none" xmlns="http://www.w3.org/2000/svg">
<path fill-rule="evenodd" clip-rule="evenodd" d="M61.1729 7.05531C61.4606 7.05531 61.7393 7.21387 61.8831 7.45637C61.9641 7.57761 62 7.71754 62 7.84812C61.991 7.98801 61.9551 8.12794 61.8831 8.24918C61.8767 8.26243 61.8715 8.27451 61.8665 8.28584C61.8576 8.30637 61.8497 8.32441 61.8381 8.34245C61.7123 8.58961 61.5886 8.83677 61.465 9.08393C61.3414 9.33112 61.2178 9.57829 61.0919 9.82545C60.8855 10.2351 60.6813 10.6425 60.4771 11.0498C60.2722 11.4586 60.0673 11.8674 59.8602 12.2785C59.6663 12.6619 59.4748 13.0453 59.2833 13.4286C59.0927 13.8101 58.9021 14.1915 58.7093 14.5729C58.5474 14.9087 58.3766 15.2539 58.2058 15.5896C58.195 15.6176 58.1745 15.6355 58.1541 15.6534C58.1404 15.6654 58.1267 15.6773 58.1159 15.6922C58.0889 15.7202 58.0709 15.7482 58.0439 15.7762C57.999 15.8228 57.9451 15.8601 57.8821 15.8881L57.7742 15.944L57.7203 15.972C57.6948 15.9786 57.6648 15.9759 57.6367 15.977C57.6251 15.9775 57.6139 15.9786 57.6034 15.9814C57.5674 15.9814 57.5315 16 57.4955 16C57.4864 16 57.4772 15.9976 57.4681 15.9952C57.4592 15.9929 57.4504 15.9907 57.4415 15.9907C57.3876 15.9814 57.3337 15.972 57.2797 15.9534C57.2258 15.944 57.1808 15.9254 57.1359 15.9067C57.1179 15.8974 57.0999 15.8974 57.0819 15.8881C57.0549 15.8713 57.0377 15.8545 57.0204 15.8377C57.0089 15.8265 56.9974 15.8153 56.983 15.8041C56.9646 15.785 56.9419 15.7658 56.9208 15.7467C56.9111 15.7378 56.9017 15.729 56.8931 15.7202C56.872 15.6928 56.851 15.6655 56.8317 15.6363C56.8181 15.6157 56.8054 15.5941 56.7942 15.571C56.7762 15.5399 56.7623 15.5172 56.7496 15.4916C56.7433 15.4788 56.7373 15.4653 56.7313 15.4497L56.7043 15.3937C56.6953 15.3564 56.7043 15.3285 56.6953 15.2911C56.6923 15.2787 56.6884 15.2662 56.6843 15.2538C56.6763 15.229 56.6683 15.2041 56.6683 15.1792V14.4144V11.7375V10.9261H55.8502H53.8271C53.5394 10.9261 53.2607 10.7675 53.1169 10.525C53.0359 10.4037 53 10.2732 53 10.1239C53.009 9.98402 53.045 9.84412 53.1169 9.72285C53.1349 9.69489 53.1439 9.66691 53.1619 9.63892C53.2832 9.39173 53.4069 9.14457 53.5305 8.89741C53.6541 8.65025 53.7777 8.40308 53.8991 8.15589C54.1013 7.74574 54.3057 7.3379 54.5102 6.93006C54.7148 6.52177 54.9195 6.1135 55.1219 5.70286C55.3154 5.32014 55.5066 4.93739 55.6978 4.55463C55.8887 4.17255 56.0796 3.79047 56.2727 3.40839C56.3583 3.24024 56.4438 3.06974 56.5294 2.89924C56.6147 2.72929 56.7 2.55936 56.7852 2.39173C56.8751 2.21455 57.0909 2.08396 57.2797 2.02799C57.4236 1.99067 57.5764 1.99067 57.7203 2.02799C58.0709 2.12125 58.3227 2.4477 58.3227 2.80213V3.56696V6.24384V7.05531H59.1498H61.1729ZM50 11H12V14H50V11ZM12 17V16H50V17V34H32H12V17ZM52 11V16H53C54.6569 16 56 17.3431 56 19V26C56 26.5523 55.5523 27 55 27C54.4477 27 54 26.5523 54 26V19C54 18.4477 53.5523 18 53 18H52V34V47C52 48.1046 51.1046 49 50 49H48V52C48 53.1046 47.1046 54 46 54H40C38.8954 54 38 53.1046 38 52V49H24V52C24 53.1046 23.1046 54 22 54H16C14.8954 54 14 53.1046 14 52V49H12C10.8954 49 10 48.1046 10 47V34V18H9C8.44769 18 8 18.4477 8 19V26C8 26.5523 7.55231 27 7 27C6.44769 27 6 26.5523 6 26V19C6 17.3431 7.34314 16 9 16H10V11C10 9.89542 10.8954 9.00001 12 9.00001H50C51.1046 9.00001 52 9.89542 52 11ZM32 36H50V47H46H40H22H16H12V36H32ZM46 49H40V52H46V49ZM16 49H22V52H16V49ZM22 40H16V43H22V40ZM16 38C14.8954 38 14 38.8954 14 40V43C14 44.1046 14.8954 45 16 45H22C23.1046 45 24 44.1046 24 43V40C24 38.8954 23.1046 38 22 38H16ZM40 40H46V43H40V40ZM38 40C38 38.8954 38.8954 38 40 38H46C47.1046 38 48 38.8954 48 40V43C48 44.1046 47.1046 45 46 45H40C38.8954 45 38 44.1046 38 43V40Z" fill="#0B0D0E"/>
</svg>
