<svg width="64" height="64" viewBox="0 0 64 64" fill="none" xmlns="http://www.w3.org/2000/svg">
<path fill-rule="evenodd" clip-rule="evenodd" d="M50.627 14.7861C53.3022 16.8484 55.9762 15.7758 57.8504 13.9027C60.6807 11.0741 60.1247 3.8784 60.1247 3.8784C60.1247 3.8784 52.93 3.3173 50.0998 6.14587C48.225 8.01946 47.1505 10.6939 49.2131 13.3716L48.3816 14.2032C47.9911 14.5938 47.9911 15.2269 48.3816 15.6175C48.7722 16.008 49.4053 16.008 49.7958 15.6175L50.627 14.7861ZM53.9517 13.8897C54.7293 13.7969 55.6024 13.3217 56.4367 12.4879C56.8354 12.0895 57.2031 11.4384 57.4964 10.5291C57.7844 9.63638 57.96 8.62227 58.0589 7.63123C58.1232 6.98622 58.1531 6.37238 58.1639 5.83798C57.6296 5.84845 57.0158 5.87786 56.3708 5.94177C55.3798 6.03998 54.3656 6.21489 53.4728 6.50222C52.5634 6.7949 51.9121 7.16218 51.5134 7.56065C50.6791 8.39445 50.2033 9.26729 50.11 10.0449C50.0489 10.5548 50.1298 11.1895 50.6438 11.9408L53.5843 8.99994C53.9748 8.6094 54.6079 8.60939 54.9984 8.99993C55.389 9.39047 55.389 10.0237 54.9985 10.4142L52.0576 13.3554C52.8079 13.8692 53.4421 13.9505 53.9517 13.8897Z" fill="#0B0D0E"/>
<path fill-rule="evenodd" clip-rule="evenodd" d="M23 15C21.8954 15 21 15.8954 21 17V27C21 28.1045 21.8954 29 23 29H39C40.1046 29 41 28.1045 41 27V17C41 15.8954 40.1046 15 39 15H23ZM39 17H23V27H39V17Z" fill="#0B0D0E"/>
<path fill-rule="evenodd" clip-rule="evenodd" d="M45 45.6201V47H46C47.1046 47 48 47.8954 48 49V52C48 53.1045 47.1046 54 46 54H16C14.8954 54 14 53.1045 14 52V49C14 47.8954 14.8954 47 16 47H17V12C17 10.8954 17.8954 9.99998 19 9.99998H43C44.1046 9.99998 45 10.8954 45 12V41.9107C45.0184 42.0219 45.0325 42.1354 45.0443 42.2305L45.0461 42.245C45.0637 42.387 45.08 42.5178 45.1029 42.652C45.1489 42.9215 45.2133 43.1474 45.3143 43.3316C45.4073 43.5012 45.5381 43.6489 45.7564 43.7644C45.9858 43.8856 46.3674 44 47 44C48.2565 44 48.6225 43.6021 48.7675 43.3605C48.9793 43.0075 49 42.5368 49 42V28H48C46.8954 28 46 27.1045 46 26V23C46 21.8954 46.8954 21 48 21H49C49 20.4631 48.9793 19.9925 48.7675 19.6395C48.6225 19.3978 48.2565 19 47 19C46.4477 19 46 18.5523 46 18C46 17.4477 46.4477 17 47 17C48.7435 17 49.8775 17.6021 50.4825 18.6105C51.0022 19.4767 51.0008 20.4663 51 20.9503V42.0497C51.0008 42.5337 51.0022 43.5233 50.4825 44.3895C49.8775 45.3978 48.7435 46 47 46C46.2183 46 45.5542 45.8729 45 45.6201ZM19 12H43V41.9793L42.9998 42.0026L43 42.0185V47H19V12ZM49 26V23H48V26H49ZM45.4377 49C45.4057 49.0031 45.3733 49.0046 45.3405 49.0046H16.754C16.7213 49.0046 16.6889 49.0031 16.6569 49H16L16 52H46V49H45.4377Z" fill="#0B0D0E"/>
</svg>
