<svg width="64" height="64" viewBox="0 0 64 64" fill="none" xmlns="http://www.w3.org/2000/svg">
<path d="M27.7109 17.136C30.1175 13.1231 35.9605 13.2043 38.2545 17.2826L44.3191 28.064L46.1561 22.5528C46.3308 22.0289 46.8971 21.7457 47.4211 21.9204C47.945 22.095 48.2282 22.6613 48.0535 23.1853L45.5187 30.7897L45.5146 30.8035C45.512 30.8122 45.5092 30.8209 45.5063 30.8297C45.4627 30.9604 45.3948 31.0762 45.3091 31.1736C45.1245 31.3847 44.8571 31.51 44.5752 31.5153C44.429 31.5188 44.2841 31.4901 44.151 31.4321L36.5953 28.9148C36.0713 28.7402 35.7881 28.174 35.9626 27.65C36.1372 27.126 36.7035 26.8428 37.2275 27.0174L42.4062 28.7428L36.5114 18.2631C34.9698 15.5226 31.0433 15.4679 29.4261 18.1646L26.2964 23.3835C26.0123 23.8572 25.3981 24.0109 24.9244 23.7268C24.4508 23.4428 24.2971 22.8286 24.5811 22.3549L27.7109 17.136Z" fill="#0B0D0E"/>
<path d="M23.2219 38.477C23.3967 39.0009 23.9631 39.2839 24.487 39.109C25.0109 38.9342 25.2939 38.3678 25.119 37.8439L22.5674 30.1976C22.3926 29.6738 21.8262 29.3908 21.3023 29.5656C21.2836 29.5718 21.2652 29.5786 21.2471 29.5858L13.6567 32.1155C13.1328 32.2901 12.8496 32.8564 13.0242 33.3804C13.1988 33.9043 13.7652 34.1875 14.2891 34.0129L19.3043 32.3414L14.5173 40.039C11.9913 44.1007 14.9121 49.3566 19.6952 49.3565L23.2653 49.3564C23.8176 49.3564 24.2653 48.9087 24.2652 48.3564C24.2652 47.8041 23.8175 47.3564 23.2652 47.3564L19.6952 47.3565C16.481 47.3566 14.5182 43.8246 16.2156 41.0952L21.3438 32.8491L23.2219 38.477Z" fill="#0B0D0E"/>
<path d="M45.2289 49.3568C49.7616 49.3568 52.7097 44.5866 50.6826 40.5324L49.2737 37.7146C49.0267 37.2206 48.426 37.0204 47.9321 37.2674C47.4381 37.5144 47.2379 38.1151 47.4849 38.6091L48.8938 41.4269C50.256 44.1513 48.2749 47.3568 45.2289 47.3568H35.5011L38.8918 43.966C39.2824 43.5754 39.2824 42.9423 38.8918 42.5518C38.5013 42.1612 37.8682 42.1612 37.4776 42.5518L32.3926 47.6368L32.3802 47.649C32.3047 47.7245 32.2438 47.8091 32.1975 47.8992C32.1268 48.0363 32.0869 48.1919 32.0869 48.3568C32.0869 48.6472 32.2107 48.9087 32.4084 49.0914L37.4777 54.1606C37.8682 54.5512 38.5014 54.5512 38.8919 54.1606C39.2824 53.7701 39.2824 53.1369 38.8919 52.7464L35.5022 49.3568H45.2289Z" fill="#0B0D0E"/>
<path d="M53.4734 7.05579C54.0256 7.05579 54.4734 7.5035 54.4734 8.05579V9.55579H55.9734C56.5256 9.55579 56.9734 10.0035 56.9734 10.5558C56.9734 11.1081 56.5256 11.5558 55.9734 11.5558H54.4734V13.0558C54.4734 13.6081 54.0256 14.0558 53.4734 14.0558C52.9211 14.0558 52.4734 13.6081 52.4734 13.0558V11.5558H50.9734C50.4211 11.5558 49.9734 11.1081 49.9734 10.5558C49.9734 10.0035 50.4211 9.55579 50.9734 9.55579H52.4734V8.05579C52.4734 7.5035 52.9211 7.05579 53.4734 7.05579Z" fill="#0B0D0E"/>
<path fill-rule="evenodd" clip-rule="evenodd" d="M60.9734 10.5558C60.9734 14.6979 57.6155 18.0558 53.4734 18.0558C49.3312 18.0558 45.9734 14.6979 45.9734 10.5558C45.9734 6.41365 49.3312 3.05579 53.4734 3.05579C57.6155 3.05579 60.9734 6.41365 60.9734 10.5558ZM58.9734 10.5558C58.9734 13.5934 56.5109 16.0558 53.4734 16.0558C50.4358 16.0558 47.9734 13.5934 47.9734 10.5558C47.9734 7.51822 50.4358 5.05579 53.4734 5.05579C56.5109 5.05579 58.9734 7.51822 58.9734 10.5558Z" fill="#0B0D0E"/>
</svg>
