<svg width="64" height="64" viewBox="0 0 64 64" fill="none" xmlns="http://www.w3.org/2000/svg">
<path d="M54.5 8.01025C54.5 7.45797 54.0523 7.01025 53.5 7.01025C52.9477 7.01025 52.5 7.45797 52.5 8.01025V9.51025H51C50.4477 9.51025 50 9.95797 50 10.5103C50 11.0625 50.4477 11.5103 51 11.5103H52.5V13.0103C52.5 13.5625 52.9477 14.0103 53.5 14.0103C54.0523 14.0103 54.5 13.5625 54.5 13.0103V11.5103H56C56.5523 11.5103 57 11.0625 57 10.5103C57 9.95797 56.5523 9.51025 56 9.51025H54.5V8.01025Z" fill="#0B0D0E"/>
<path fill-rule="evenodd" clip-rule="evenodd" d="M61 10.5103C61 14.6524 57.6421 18.0103 53.5 18.0103C49.3579 18.0103 46 14.6524 46 10.5103C46 6.36812 49.3579 3.01025 53.5 3.01025C57.6421 3.01025 61 6.36812 61 10.5103ZM59 10.5103C59 13.5478 56.5376 16.0103 53.5 16.0103C50.4624 16.0103 48 13.5478 48 10.5103C48 7.47269 50.4624 5.01025 53.5 5.01025C56.5376 5.01025 59 7.47269 59 10.5103Z" fill="#0B0D0E"/>
<path fill-rule="evenodd" clip-rule="evenodd" d="M42.3161 22.0171C41.6871 22.0171 41.234 22.6208 41.4097 23.2248L42.7026 27.6681L25.6965 32.2299L22.824 26.1832L25.4501 25.8915C25.9547 25.8354 26.3364 25.4089 26.3364 24.9013C26.3364 24.3511 25.8903 23.905 25.3401 23.905H19.1782C18.4395 23.905 17.8406 24.5039 17.8406 25.2426C17.8406 26.0398 18.5335 26.66 19.3259 26.5719L20.8424 26.4034L24.0739 33.2055L21.6059 36.1806C19.8625 34.987 17.7531 34.2887 15.4807 34.2887C9.48526 34.2887 4.625 39.149 4.625 45.1444C4.625 51.1399 9.48526 56.0001 15.4807 56.0001C20.9962 56.0001 25.551 51.8868 26.2449 46.5604H30.4728L31.4168 48.4483H31.0562C30.5349 48.4483 30.1123 48.871 30.1123 49.3923C30.1123 49.9136 30.5349 50.3363 31.0562 50.3363H32.9251L32.936 50.3364C32.9456 50.3365 32.9552 50.3365 32.9648 50.3363H34.8321C35.3535 50.3363 35.7761 49.9136 35.7761 49.3923C35.7761 48.871 35.3535 48.4483 34.8321 48.4483H33.5276L32.158 45.7092L43.8305 31.5441L44.8176 34.9364C40.645 36.45 37.664 40.4491 37.664 45.1444C37.664 51.1399 42.5243 56.0001 48.5197 56.0001C54.5152 56.0001 59.3754 51.1399 59.3754 45.1444C59.3754 39.149 54.5152 34.2887 48.5197 34.2887C47.8781 34.2887 47.2494 34.3444 46.6384 34.4512L43.5697 23.905H46.1598C46.6811 23.905 47.1038 23.4824 47.1038 22.9611C47.1038 22.4397 46.6811 22.0171 46.1598 22.0171H42.3161ZM45.3465 36.7543L47.7387 44.9752C47.8841 45.4751 48.4076 45.7622 48.9074 45.6161C49.4062 45.4702 49.6927 44.9479 49.5475 44.4488L47.1698 36.2776C47.6101 36.2111 48.0609 36.1767 48.5197 36.1767C53.4725 36.1767 57.4875 40.1917 57.4875 45.1444C57.4875 50.0972 53.4725 54.1122 48.5197 54.1122C43.567 54.1122 39.552 50.0972 39.552 45.1444C39.552 41.3089 41.9599 38.0358 45.3465 36.7543ZM26.3263 44.6724H29.5215L24.9659 35.0831L23.0636 37.3762C24.9779 39.2451 26.2041 41.8158 26.3263 44.6724ZM21.8535 38.835C23.3545 40.351 24.3184 42.3998 24.4362 44.6724H17.0111L21.8535 38.835ZM20.3941 37.6413L14.2784 45.0137C13.7681 45.6289 14.2056 46.5604 15.0049 46.5604H24.3373C23.6584 50.8403 19.9516 54.1122 15.4807 54.1122C10.5279 54.1122 6.51295 50.0972 6.51295 45.1444C6.51295 40.1917 10.5279 36.1767 15.4807 36.1767C17.2947 36.1767 18.9829 36.7153 20.3941 37.6413ZM26.52 33.9633L43.0473 29.53L31.2279 43.8733L26.52 33.9633Z" fill="#0B0D0E"/>
</svg>
