<svg width="64" height="64" viewBox="0 0 64 64" fill="none" xmlns="http://www.w3.org/2000/svg">
<path fill-rule="evenodd" clip-rule="evenodd" d="M44 11H18.4615C17.5154 11 16.6569 11.47 16.0567 12.0796C15.4554 12.6902 15 13.5552 15 14.5C15 15.4448 15.4554 16.3097 16.0567 16.9203C16.4361 17.3057 16.9188 17.6353 17.4615 17.8256V27.4243C16.9188 27.6146 16.4361 27.9442 16.0567 28.3296C15.4554 28.9402 15 29.8052 15 30.75C15 31.6948 15.4554 32.5597 16.0567 33.1703C16.4361 33.5557 16.9188 33.8853 17.4615 34.0756V46.1743C16.9188 46.3646 16.4361 46.6942 16.0567 47.0796C15.4554 47.6903 15 48.5552 15 49.5C15 50.4448 15.4554 51.3097 16.0567 51.9203C16.6569 52.53 17.5154 53 18.4615 53H45.5385C46.4846 53 47.3431 52.53 47.9433 51.9203C48.5446 51.3097 49 50.4448 49 49.5C49 48.5552 48.5446 47.6903 47.9433 47.0796C47.5639 46.6942 47.0812 46.3646 46.5385 46.1743V34.0756C47.0812 33.8853 47.5639 33.5557 47.9433 33.1703C48.5446 32.5597 49 31.6948 49 30.75C49 29.8052 48.5446 28.9402 47.9433 28.3296C47.5639 27.9442 47.0812 27.6146 46.5385 27.4243V17.8256C46.6766 17.7772 46.8109 17.7197 46.9405 17.6546C46.4017 17.1636 45.9226 16.6081 45.5157 16.0002C44.9739 16.0123 44.5385 16.4553 44.5385 17V28.25C44.5385 28.8023 44.9862 29.25 45.5385 29.25C45.8231 29.25 46.1954 29.405 46.5182 29.7328C46.8401 30.0597 47 30.4448 47 30.75C47 31.0552 46.8401 31.4402 46.5182 31.7671C46.1954 32.095 45.8231 32.25 45.5385 32.25H18.4615C18.1769 32.25 17.8046 32.095 17.4818 31.7671C17.1599 31.4402 17 31.0552 17 30.75C17 30.4448 17.1599 30.0597 17.4818 29.7328C17.8046 29.405 18.1769 29.25 18.4615 29.25C19.0138 29.25 19.4615 28.8023 19.4615 28.25V17C19.4615 17 19.4615 17 18.4615 17H19.4615C19.4615 16.4477 19.0138 16 18.4615 16C18.1769 16 17.8046 15.845 17.4818 15.5171C17.1599 15.1902 17 14.8052 17 14.5C17 14.1948 17.1599 13.8097 17.4818 13.4828C17.8046 13.155 18.1769 13 18.4615 13H44.223M19.4615 47V34.25H44.5385V47C44.5385 47.5523 44.9862 48 45.5385 48C45.8231 48 46.1954 48.155 46.5182 48.4828C46.8401 48.8097 47 49.1948 47 49.5C47 49.8052 46.8401 50.1903 46.5182 50.5171C46.1954 50.845 45.8231 51 45.5385 51H18.4615C18.1769 51 17.8046 50.845 17.4818 50.5171C17.1599 50.1903 17 49.8052 17 49.5C17 49.1948 17.1599 48.8097 17.4818 48.4828C17.8046 48.155 18.1769 48 18.4615 48C19.0138 48 19.4615 47.5523 19.4615 47Z" fill="#0B0D0E"/>
<path fill-rule="evenodd" clip-rule="evenodd" d="M53.9517 13.8897C54.7293 13.7969 55.6024 13.3217 56.4367 12.4879C56.8354 12.0895 57.2032 11.4384 57.4964 10.5291C57.7844 9.63638 57.96 8.62227 58.0589 7.63123C58.1232 6.98622 58.1531 6.37238 58.1639 5.83798C57.6296 5.84845 57.0158 5.87786 56.3708 5.94177C55.3798 6.03998 54.3656 6.21489 53.4728 6.50222C52.5634 6.7949 51.9121 7.16218 51.5134 7.56065C50.6791 8.39445 50.2033 9.26729 50.11 10.0449C50.029 10.72 50.1972 11.6141 51.29 12.7078C52.3828 13.8015 53.2766 13.9702 53.9517 13.8897ZM49.8753 14.1216C52.7939 17.0425 55.8005 15.9513 57.8504 13.9027C60.6807 11.0741 60.1247 3.8784 60.1247 3.8784C60.1247 3.8784 52.93 3.3173 50.0998 6.14587C48.0499 8.19451 46.9568 11.2007 49.8753 14.1216Z" fill="#0B0D0E"/>
<path fill-rule="evenodd" clip-rule="evenodd" d="M54.9991 8.99998C55.3896 9.39052 55.3896 10.0237 54.9991 10.4143L49.7964 15.6175C49.4059 16.0081 48.7728 16.0081 48.3823 15.6175C47.9918 15.227 47.9917 14.5938 48.3822 14.2033L53.5849 9C53.9754 8.60945 54.6086 8.60944 54.9991 8.99998Z" fill="#0B0D0E"/>
</svg>
