<svg width="64" height="64" viewBox="0 0 64 64" fill="none" xmlns="http://www.w3.org/2000/svg">
<path fill-rule="evenodd" clip-rule="evenodd" d="M31 9C31 8.44771 31.4477 8 32 8C32.5523 8 33 8.44771 33 9V54C33 54.5523 32.5523 55 32 55C31.4477 55 31 54.5523 31 54V9ZM35 49H38V52C38 53.1046 38.8954 54 40 54H46C47.1046 54 48 53.1046 48 52V49H50C51.1046 49 52 48.1046 52 47V35V30C53.1046 30 54 29.1046 54 28V20C54 18.8954 53.1046 18 52 18V11C52 9.89543 51.1046 9 50 9H35V11H50V18H35V20H50V28V33H35V35H50V47H46H40H35V49ZM35 16H41V13H35V16ZM40 52V49H46V52H40ZM47 41C47 43.2091 45.2091 45 43 45C40.7909 45 39 43.2091 39 41C39 38.7909 40.7909 37 43 37C45.2091 37 47 38.7909 47 41ZM43 43C44.1046 43 45 42.1046 45 41C45 39.8954 44.1046 39 43 39C41.8954 39 41 39.8954 41 41C41 42.1046 41.8954 43 43 43ZM20.4602 16H29V18H20.4602C19.5058 18 18.6843 18.6744 18.4985 19.6105L16.9102 27.6105C16.6647 28.8473 17.611 30 18.872 30H29V32H18.872H15C13.3431 32 12 33.3431 12 35V46C12 46.5523 12.4477 47 13 47H17H21H29V49H23V52C23 53.1046 22.1046 54 21 54H17C15.8954 54 15 53.1046 15 52V49H13C11.3431 49 10 47.6569 10 46V35C10 32.2386 12.2386 30 15 30H13C11.8954 30 11 29.1046 11 28V27C11 26.4477 11.4477 26 12 26H15.1909L16.5368 19.2211C16.9085 17.3488 18.5513 16 20.4602 16ZM27 36H29V38H27C26.4477 38 26 37.5523 26 37C26 36.4477 26.4477 36 27 36ZM27 40H29V42H27C26.4477 42 26 41.5523 26 41C26 40.4477 26.4477 40 27 40ZM17 49H21V52H17V49ZM23 39C23 41.2091 21.2091 43 19 43C16.7909 43 15 41.2091 15 39C15 36.7909 16.7909 35 19 35C21.2091 35 23 36.7909 23 39ZM19 41C20.1046 41 21 40.1046 21 39C21 37.8954 20.1046 37 19 37C17.8954 37 17 37.8954 17 39C17 40.1046 17.8954 41 19 41Z" fill="#0B0D0E"/>
</svg>
