<svg width="64" height="64" viewBox="0 0 64 64" fill="none" xmlns="http://www.w3.org/2000/svg">
<path fill-rule="evenodd" clip-rule="evenodd" d="M45.6655 13H14C11.7909 13 10 14.7909 10 17V41C10 43.2091 11.7909 45 14 45H25.5L24.5 49H22C21.4477 49 21 49.4477 21 50C21 50.5523 21.4477 51 22 51H42C42.5523 51 43 50.5523 43 50C43 49.4477 42.5523 49 42 49H39.5L38.5 45H50C52.2091 45 54 43.2091 54 41V18.9871C53.3114 18.9514 52.6422 18.8423 52 18.6676V28H47V27.8726C47 26.009 45.701 24.4453 44 24C44.4905 23.464 45 22.7586 45 22C45 20.3921 43.5348 19 42 19C40.4652 19 39 20.3523 39 21.9603C39 22.7024 39.5174 23.464 40 24C38.2595 24.4535 37 25.9843 37 27.8726V28H33V15H46.7531C46.3148 14.3838 45.9483 13.7131 45.6655 13ZM45 43C45 41.6147 44.3212 41 43 41H41C39.6788 41 39 41.6147 39 43H45ZM47 43V42.8726C47 41.009 45.701 39.4453 44 39C44.4905 38.464 45 37.7586 45 37C45 35.3921 43.5348 34 42 34C40.4652 34 39 35.3523 39 36.9603C39 37.7024 39.5174 38.464 40 39C38.2595 39.4535 37 40.9843 37 42.8726V43H33V30H52V41C52 42.1046 51.1046 43 50 43H47ZM45 28H39C39 26.6147 39.6788 26 41 26H43C44.3212 26 45 26.6147 45 28ZM31 43H27V42.8726C27 41.009 25.7009 39.4453 24 39C24.4905 38.464 25 37.7586 25 37C25 35.3921 23.5348 34 22 34C20.4652 34 19 35.3523 19 36.9603C19 37.7024 19.5174 38.464 20 39C18.2595 39.4535 17 40.9843 17 42.8726V43H14C12.8954 43 12 42.1046 12 41V30H31V43ZM27 28H31V15H14C12.8954 15 12 15.8954 12 17V28H17V27.8726C17 25.9843 18.2595 24.4535 20 24C19.5174 23.464 19 22.7024 19 21.9603C19 20.3523 20.4652 19 22 19C23.5348 19 25 20.3921 25 22C25 22.7586 24.4905 23.464 24 24C25.7009 24.4453 27 26.009 27 27.8726V28ZM25 28C25 26.6147 24.3212 26 23 26H21C19.6788 26 19 26.6147 19 28H25ZM25 43H19C19 41.6147 19.6788 41 21 41H23C24.3212 41 25 41.6147 25 43ZM26.5616 49H37.4384L36.4384 45H27.5616L26.5616 49ZM22 38C21.5 38 21 37.5 21 37C21 36.5 21.5 36 22 36C22.5 36 23 36.5 23 37C23 37.5 22.5 38 22 38ZM41 37C41 37.5 41.5 38 42 38C42.5 38 43 37.5 43 37C43 36.5 42.5 36 42 36C41.5 36 41 36.5 41 37ZM42 23C41.5 23 41 22.5 41 22C41 21.5 41.5 21 42 21C42.5 21 43 21.5 43 22C43 22.5 42.5 23 42 23ZM21 22C21 22.5 21.5 23 22 23C22.5 23 23 22.5 23 22C23 21.5 22.5 21 22 21C21.5 21 21 21.5 21 22Z" fill="#0B0D0E"/>
<path fill-rule="evenodd" clip-rule="evenodd" d="M54.5 15C57.5376 15 60 12.5376 60 9.5C60 6.46243 57.5376 4 54.5 4C51.4624 4 49 6.46243 49 9.5C49 12.5376 51.4624 15 54.5 15ZM54.5 17C58.6421 17 62 13.6421 62 9.5C62 5.35786 58.6421 2 54.5 2C50.3579 2 47 5.35786 47 9.5C47 13.6421 50.3579 17 54.5 17Z" fill="#0B0D0E"/>
<path d="M55.5 7C55.5 6.44772 55.0523 6 54.5 6C53.9477 6 53.5 6.44772 53.5 7V8.5H52C51.4477 8.5 51 8.94772 51 9.5C51 10.0523 51.4477 10.5 52 10.5H53.5V12C53.5 12.5523 53.9477 13 54.5 13C55.0523 13 55.5 12.5523 55.5 12V10.5H57C57.5523 10.5 58 10.0523 58 9.5C58 8.94771 57.5523 8.5 57 8.5H55.5V7Z" fill="#0B0D0E"/>
</svg>
