<svg width="64" height="64" viewBox="0 0 64 64" fill="none" xmlns="http://www.w3.org/2000/svg">
<path d="M54.2062 6.11792C54.7585 6.11792 55.2062 6.56564 55.2062 7.11792V8.61792H56.7062C57.2585 8.61792 57.7062 9.06563 57.7062 9.61792C57.7062 10.1702 57.2585 10.6179 56.7062 10.6179H55.2062V12.1179C55.2062 12.6702 54.7585 13.1179 54.2062 13.1179C53.6539 13.1179 53.2062 12.6702 53.2062 12.1179V10.6179H51.7062C51.1539 10.6179 50.7062 10.1702 50.7062 9.61792C50.7062 9.06564 51.1539 8.61792 51.7062 8.61792H53.2062V7.11792C53.2062 6.56564 53.6539 6.11792 54.2062 6.11792Z" fill="#0B0D0E"/>
<path fill-rule="evenodd" clip-rule="evenodd" d="M61.7062 9.61792C61.7062 13.7601 58.3483 17.1179 54.2062 17.1179C50.064 17.1179 46.7062 13.7601 46.7062 9.61792C46.7062 5.47578 50.064 2.11792 54.2062 2.11792C58.3483 2.11792 61.7062 5.47578 61.7062 9.61792ZM59.7062 9.61792C59.7062 12.6555 57.2437 15.1179 54.2062 15.1179C51.1686 15.1179 48.7062 12.6555 48.7062 9.61792C48.7062 6.58035 51.1686 4.11792 54.2062 4.11792C57.2437 4.11792 59.7062 6.58035 59.7062 9.61792Z" fill="#0B0D0E"/>
<path fill-rule="evenodd" clip-rule="evenodd" d="M23 40C23 41.6569 21.6569 43 20 43C18.3431 43 17 41.6569 17 40C17 38.3431 18.3431 37 20 37C21.6569 37 23 38.3431 23 40ZM20 39C19.4477 39 19 39.4477 19 40C19 40.5523 19.4477 41 20 41C20.5523 41 21 40.5523 21 40C21 39.4477 20.5523 39 20 39Z" fill="#0B0D0E"/>
<path fill-rule="evenodd" clip-rule="evenodd" d="M44 43C45.6569 43 47 41.6569 47 40C47 38.3431 45.6569 37 44 37C42.3431 37 41 38.3431 41 40C41 41.6569 42.3431 43 44 43ZM43 40C43 39.4477 43.4477 39 44 39C44.5523 39 45 39.4477 45 40C45 40.5523 44.5523 41 44 41C43.4477 41 43 40.5523 43 40Z" fill="#0B0D0E"/>
<path fill-rule="evenodd" clip-rule="evenodd" d="M22.7656 16C21.7569 16 20.9061 16.7511 20.781 17.7519L19.281 29.7519C19.1318 30.9456 20.0626 32 21.2656 32H42.7344C43.9374 32 44.8682 30.9456 44.719 29.7519L43.219 17.7519C43.0939 16.7511 42.2431 16 41.2344 16H22.7656ZM41.2344 18H22.7656L21.2656 30H42.7344L41.2344 18Z" fill="#0B0D0E"/>
<path fill-rule="evenodd" clip-rule="evenodd" d="M41 9C41.5523 9 42 8.55228 42 8C42 7.44772 41.5523 7 41 7H23C22.4477 7 22 7.44772 22 8C22 8.55228 22.4477 9 23 9H26.6492L30.3992 12H19.7346C18.7393 12 17.8954 12.7319 17.7547 13.7172L15.0368 32.7422C15.0124 32.9133 15.0102 33.087 15.0304 33.2587L15.1176 34H15C13.8954 34 13 34.8954 13 36V44C13 45.1046 13.8954 46 15 46H16.5294L16.7922 48.2337C16.9107 49.2409 17.7643 50 18.7785 50H19.75L18.2425 56.0299C18.1086 56.5657 18.4343 57.1086 18.9701 57.2425C19.5059 57.3765 20.0489 57.0507 20.1828 56.5149L20.8116 54L21.0874 52.8639L21.3116 52L21.7695 50H42.25L42.75 52L43.25 54L43.7575 56.0299C43.8914 56.5657 44.4343 56.8914 44.9701 56.7575C45.5059 56.6235 45.8317 56.0806 45.6978 55.5448L44.3116 50H45.2215C46.2357 50 47.0893 49.2409 47.2078 48.2337L47.4706 46H49C50.1046 46 51 45.1046 51 44V36C51 34.8954 50.1046 34 49 34H48.8823L48.9696 33.2587C48.9898 33.087 48.9876 32.9133 48.9632 32.7422L46.2453 13.7172C46.1045 12.7319 45.2607 12 44.2654 12H33.6008L37.3508 9H41ZM15 36L15 44H49V36H15ZM46.8685 34H17.1314L17.0167 33.025L19.7346 14H44.2654L46.9833 33.025L46.8685 34ZM45.4568 46H18.5432L18.7785 48H45.2215L45.4568 46ZM29.8508 9L32 10.7194L34.1492 9H29.8508Z" fill="#0B0D0E"/>
<path d="M21.3116 52L21.0874 52.8639L20.8116 54H43.25L42.75 52H21.3116Z" fill="#0B0D0E"/>
<path fill-rule="evenodd" clip-rule="evenodd" d="M23 40C23 41.6569 21.6569 43 20 43C18.3431 43 17 41.6569 17 40C17 38.3431 18.3431 37 20 37C21.6569 37 23 38.3431 23 40ZM44 43C45.6569 43 47 41.6569 47 40C47 38.3431 45.6569 37 44 37C42.3431 37 41 38.3431 41 40C41 41.6569 42.3431 43 44 43ZM20 39C19.4477 39 19 39.4477 19 40C19 40.5523 19.4477 41 20 41C20.5523 41 21 40.5523 21 40C21 39.4477 20.5523 39 20 39ZM44 39C43.4477 39 43 39.4477 43 40C43 40.5523 43.4477 41 44 41C44.5523 41 45 40.5523 45 40C45 39.4477 44.5523 39 44 39ZM20.781 17.7519C20.9061 16.7511 21.7569 16 22.7656 16H41.2344C42.2431 16 43.0939 16.7511 43.219 17.7519L44.719 29.7519C44.8682 30.9456 43.9374 32 42.7344 32H21.2656C20.0626 32 19.1318 30.9456 19.281 29.7519L20.781 17.7519ZM41.2344 18L42.7344 30H21.2656L22.7656 18H41.2344Z" fill="#0B0D0E"/>
</svg>
