<svg width="64" height="64" viewBox="0 0 64 64" fill="none" xmlns="http://www.w3.org/2000/svg">
<path fill-rule="evenodd" clip-rule="evenodd" d="M16 40C14.8954 40 14 40.8954 14 42V45C14 46.1046 14.8954 47 16 47H22C23.1046 47 24 46.1046 24 45V42C24 40.8954 23.1046 40 22 40H16ZM22 42H16V45H22V42Z" fill="#212121"/>
<path fill-rule="evenodd" clip-rule="evenodd" d="M40 40C38.8954 40 38 40.8954 38 42V45C38 46.1046 38.8954 47 40 47H46C47.1046 47 48 46.1046 48 45V42C48 40.8954 47.1046 40 46 40H40ZM46 42H40V45H46V42Z" fill="#212121"/>
<path fill-rule="evenodd" clip-rule="evenodd" d="M42.375 11H12C10.8954 11 10 11.8954 10 13V18H9C7.34315 18 6 19.3431 6 21V28C6 28.5523 6.44772 29 7 29C7.55228 29 8 28.5523 8 28V21C8 20.4477 8.44772 20 9 20H10V49C10 50.1046 10.8954 51 12 51H14V54C14 55.1046 14.8954 56 16 56H22C23.1046 56 24 55.1046 24 54V51H38V54C38 55.1046 38.8954 56 40 56H46C47.1046 56 48 55.1046 48 54V51H50C51.1046 51 52 50.1046 52 49V21H50V36L12 36V18H42.375V16H12V13H42.375V11ZM50 38V49H12L12 38H50ZM16 54V51H22V54H16ZM40 54V51H46V54H40Z" fill="#212121"/>
<path d="M54 21V28C54 28.5523 54.4477 29 55 29C55.5523 29 56 28.5523 56 28V21H54Z" fill="#212121"/>
<path d="M47.4716 5.50511C47.8595 5.11198 47.8553 4.47883 47.4621 4.09092C47.069 3.70301 46.4359 3.70724 46.048 4.10036L44.2882 5.88378C43.9003 6.27691 43.9045 6.91006 44.2976 7.29797C44.6908 7.68587 45.3239 7.68165 45.7118 7.28852L47.4716 5.50511Z" fill="#212121"/>
<path fill-rule="evenodd" clip-rule="evenodd" d="M50.6334 8.36914C50.6334 8.36914 47.9929 10.794 47.9922 12.8624C47.9917 14.3605 48.6429 15.8588 50.6308 15.8596C52.6188 15.8603 53.271 14.3624 53.2715 12.8644C53.2722 10.7959 50.6334 8.36914 50.6334 8.36914ZM51.4866 14.0373C51.6427 13.8243 51.7713 13.4304 51.7715 12.8639C51.7717 12.3657 51.3999 11.5901 50.7598 10.7505C50.7174 10.6949 50.6749 10.6404 50.6326 10.5871C50.5903 10.6403 50.5477 10.6948 50.5053 10.7504C49.8647 11.5895 49.4924 12.3648 49.4922 12.8629C49.492 13.4295 49.6203 13.8235 49.7763 14.0367C49.8779 14.1755 50.0675 14.3594 50.6314 14.3596C51.1953 14.3598 51.3849 14.176 51.4866 14.0373Z" fill="#212121"/>
<path fill-rule="evenodd" clip-rule="evenodd" d="M49.0456 4.96235C49.2306 4.7901 49.4741 4.69434 49.7269 4.69434H55.3828C55.9351 4.69434 56.3828 5.14205 56.3828 5.69434V18C56.3828 18.5523 55.9351 19 55.3828 19H45.8809C45.3286 19 44.8809 18.5523 44.8809 18V9.27417C44.8809 8.99652 44.9963 8.73136 45.1995 8.54219L49.0456 4.96235ZM50.1203 6.69434L46.8809 9.70954V17H54.3828V6.69434H50.1203Z" fill="#212121"/>
</svg>
