<svg width="64" height="64" viewBox="0 0 64 64" fill="none" xmlns="http://www.w3.org/2000/svg">
<path d="M54.5663 8.06989C54.5663 7.5176 54.1186 7.06989 53.5663 7.06989C53.014 7.06989 52.5663 7.5176 52.5663 8.06989V9.56989H51.0663C50.514 9.56989 50.0663 10.0176 50.0663 10.5699C50.0663 11.1222 50.514 11.5699 51.0663 11.5699H52.5663V13.0699C52.5663 13.6222 53.014 14.0699 53.5663 14.0699C54.1186 14.0699 54.5663 13.6222 54.5663 13.0699V11.5699H56.0663C56.6186 11.5699 57.0663 11.1222 57.0663 10.5699C57.0663 10.0176 56.6186 9.56988 56.0663 9.56988H54.5663V8.06989Z" fill="#0B0D0E"/>
<path fill-rule="evenodd" clip-rule="evenodd" d="M53.5663 18.0699C57.7084 18.0699 61.0663 14.712 61.0663 10.5699C61.0663 6.42775 57.7084 3.06989 53.5663 3.06989C49.4242 3.06989 46.0663 6.42775 46.0663 10.5699C46.0663 14.712 49.4242 18.0699 53.5663 18.0699ZM53.5663 16.0699C56.6039 16.0699 59.0663 13.6075 59.0663 10.5699C59.0663 7.53232 56.6039 5.06989 53.5663 5.06989C50.5287 5.06989 48.0663 7.53232 48.0663 10.5699C48.0663 13.6075 50.5287 16.0699 53.5663 16.0699Z" fill="#0B0D0E"/>
<path fill-rule="evenodd" clip-rule="evenodd" d="M23.6194 38.4865L29.3232 28.634C30.5441 26.525 33.7785 27.7226 33.3316 30.1181L32.3222 35.5289H34.727C36.3532 35.5289 37.353 37.3082 36.5072 38.6972L30.5012 48.5604C29.2341 50.6413 26.0279 49.3735 26.5265 46.9888L27.6501 41.615H25.4232C23.8176 41.615 22.815 39.8759 23.6194 38.4865ZM31.3655 29.7513C31.4002 29.5652 31.1489 29.4722 31.0541 29.636L25.3503 39.4886C25.3178 39.5447 25.3583 39.615 25.4232 39.615H29.0747C29.6093 39.615 30.0087 40.1065 29.8993 40.6298L28.4842 47.3982C28.4454 47.5834 28.6945 47.6819 28.793 47.5203L34.799 37.657C34.8332 37.6008 34.7928 37.5289 34.727 37.5289H30.9287C30.4015 37.5289 30.0039 37.0502 30.1005 36.532L31.3655 29.7513Z" fill="#0B0D0E"/>
<path fill-rule="evenodd" clip-rule="evenodd" d="M20.3124 13.3253C20.3124 12.8601 20.6896 12.4829 21.1548 12.4829H38.7717C39.237 12.4829 39.6142 12.8601 39.6142 13.3253V17.1289H45.5093C45.9745 17.1289 46.3517 17.5061 46.3517 17.9713V22.8126C46.3517 23.2778 45.9745 23.655 45.5093 23.655H44.4707C44.472 23.6836 44.4726 23.7124 44.4726 23.7413V54.6853L47.8864 51.2715C48.2769 50.881 48.9101 50.881 49.3006 51.2715C49.6912 51.662 49.6912 52.2952 49.3006 52.6857L44.8868 57.0996C44.1057 57.8806 42.8394 57.8806 42.0583 57.0996L37.6445 52.6857C37.2539 52.2952 37.2539 51.662 37.6445 51.2715C38.035 50.881 38.6681 50.881 39.0587 51.2715L42.4726 54.6855V23.8989H17.453V28.4729C17.453 29.0252 17.0053 29.4729 16.453 29.4729C15.9007 29.4729 15.453 29.0252 15.453 28.4729V23.7413C15.453 23.7124 15.4537 23.6836 15.455 23.655H14.4126C13.9474 23.655 13.5702 23.2778 13.5702 22.8126V17.9713C13.5702 17.5061 13.9474 17.1289 14.4126 17.1289H20.3124V13.3253ZM22.3124 17.009V14.4829H37.6142V17.009H22.3124ZM15.5702 19.1289V21.655H44.3517V19.1289H15.5702Z" fill="#0B0D0E"/>
<path d="M20.8669 38.7606L17.453 35.3467V55.6611H34.9466C35.4989 55.6611 35.9466 56.1088 35.9466 56.6611C35.9466 57.2133 35.4989 57.6611 34.9466 57.6611H17.2954C16.2779 57.6611 15.453 56.8362 15.453 55.8186V35.3467L12.0391 38.7606C11.6486 39.1511 11.0154 39.1511 10.6249 38.7606C10.2344 38.3701 10.2344 37.7369 10.6249 37.3464L15.0388 32.9325C15.8199 32.1515 17.0862 32.1515 17.8672 32.9325L22.2811 37.3464C22.6716 37.7369 22.6716 38.3701 22.2811 38.7606C21.8906 39.1511 21.2574 39.1511 20.8669 38.7606Z" fill="#0B0D0E"/>
</svg>
