<svg width="64" height="64" viewBox="0 0 64 64" fill="none" xmlns="http://www.w3.org/2000/svg">
<path fill-rule="evenodd" clip-rule="evenodd" d="M51.1423 11.31C50.7822 11.436 50.3801 11.4814 50.0195 11.4968V12.5021C50.0195 12.9163 49.6837 13.2521 49.2695 13.2521C48.8553 13.2521 48.5195 12.9163 48.5195 12.5021V7.75207C48.5195 7.33785 48.8553 7.00207 49.2695 7.00207C49.3176 7.00207 49.3702 7.00162 49.4264 7.00114C49.8757 6.99733 50.5632 6.9915 51.1423 7.19418C51.4951 7.31767 51.8581 7.53176 52.1268 7.90262C52.3964 8.27459 52.5195 8.73305 52.5195 9.25207C52.5195 9.77109 52.3964 10.2296 52.1268 10.6015C51.8581 10.9724 51.4951 11.1865 51.1423 11.31ZM50.0195 9.99485V8.50927C50.258 8.52042 50.4673 8.54715 50.6468 8.60996C50.7939 8.66147 50.8685 8.72238 50.9122 8.78278C50.9552 8.84205 51.0195 8.97109 51.0195 9.25207C51.0195 9.53305 50.9552 9.66209 50.9122 9.72136C50.8685 9.78175 50.7939 9.84266 50.6468 9.89416C50.4673 9.95697 50.258 9.9837 50.0195 9.99485Z" fill="#212121"/>
<path d="M54.6387 10.1011C54.6387 9.22124 55.352 8.50793 56.2319 8.50793C56.5838 8.50793 56.907 8.62114 57.1701 8.81331C57.2204 8.85001 57.2684 8.88961 57.3141 8.93186C57.618 9.21331 58.0925 9.19512 58.3739 8.89123C58.6554 8.58733 58.6372 8.1128 58.3333 7.83134C58.2451 7.74968 58.1522 7.67308 58.0549 7.60201C57.5436 7.22856 56.9124 7.00793 56.2319 7.00793C54.5235 7.00793 53.1387 8.39281 53.1387 10.1011C53.1387 11.8095 54.5235 13.1943 56.2319 13.1943C57.8069 13.1943 59.106 12.0178 59.3001 10.4954C59.3864 9.8188 58.8256 9.35114 58.2751 9.35114H56.2319C55.8177 9.35114 55.4819 9.68693 55.4819 10.1011C55.4819 10.5154 55.8177 10.8511 56.2319 10.8511H57.6381C57.3698 11.3528 56.8404 11.6943 56.2319 11.6943C55.352 11.6943 54.6387 10.981 54.6387 10.1011Z" fill="#212121"/>
<path d="M44.5 7.76233C44.5 7.34812 44.1642 7.01233 43.75 7.01233C43.3358 7.01233 43 7.34812 43 7.76233V12.2197C43 12.7444 43.4253 13.1697 43.95 13.1697H46.6065C47.0207 13.1697 47.3565 12.8339 47.3565 12.4197C47.3565 12.0055 47.0207 11.6697 46.6065 11.6697H44.5V7.76233Z" fill="#212121"/>
<path fill-rule="evenodd" clip-rule="evenodd" d="M16 40C14.8954 40 14 40.8954 14 42V45C14 46.1046 14.8954 47 16 47H22C23.1046 47 24 46.1046 24 45V42C24 40.8954 23.1046 40 22 40H16ZM22 42H16V45H22V42Z" fill="#212121"/>
<path fill-rule="evenodd" clip-rule="evenodd" d="M40 40C38.8954 40 38 40.8954 38 42V45C38 46.1046 38.8954 47 40 47H46C47.1046 47 48 46.1046 48 45V42C48 40.8954 47.1046 40 46 40H40ZM46 42H40V45H46V42Z" fill="#212121"/>
<path fill-rule="evenodd" clip-rule="evenodd" d="M12 11H41V13H12V16H52V18H53C54.6569 18 56 19.3431 56 21V28C56 28.5523 55.5523 29 55 29C54.4477 29 54 28.5523 54 28V21C54 20.4477 53.5523 20 53 20H52V49C52 50.1046 51.1046 51 50 51H48V54C48 55.1046 47.1046 56 46 56H40C38.8954 56 38 55.1046 38 54V51H24V54C24 55.1046 23.1046 56 22 56H16C14.8954 56 14 55.1046 14 54V51H12C10.8954 51 10 50.1046 10 49V20H9C8.44772 20 8 20.4477 8 21V28C8 28.5523 7.55228 29 7 29C6.44772 29 6 28.5523 6 28V21C6 19.3431 7.34315 18 9 18H10V13C10 11.8954 10.8954 11 12 11ZM50 49V38H12L12 49H50ZM16 51V54H22V51H16ZM40 51V54H46V51H40ZM50 36L12 36V18H50V36Z" fill="#212121"/>
</svg>
