<svg width="64" height="64" viewBox="0 0 64 64" fill="none" xmlns="http://www.w3.org/2000/svg">
<path fill-rule="evenodd" clip-rule="evenodd" d="M56.001 16.0022C56.0006 17.2446 55.7128 18.2587 55.2125 18.9148C54.7804 19.4814 54.0285 20.0015 52.4996 20.001C50.9708 20.0004 50.2192 19.4798 49.7875 18.9129C49.2877 18.2564 49.0006 17.2421 49.001 15.9997C49.0013 15.3873 49.2118 14.6221 49.6524 13.7361C50.0857 12.8646 50.6846 11.9896 51.3192 11.1907C51.7262 10.6784 52.1353 10.213 52.5032 9.81733C52.8709 10.2132 53.2796 10.6789 53.6862 11.1915C54.3203 11.9909 54.9186 12.8663 55.3513 13.7381C55.7913 14.6245 56.0013 15.3898 56.001 16.0022ZM58.001 16.0029C58 19.0029 56.6411 22.0024 52.4989 22.001C48.3568 21.9995 47 18.999 47.001 15.999C47.0025 11.8569 52.5042 7.00098 52.5042 7.00098C52.5042 7.00098 58.0025 11.8608 58.001 16.0029ZM44.999 13.999V12.999C44.999 12.6537 45.0427 12.3186 45.125 11.999H11.999C10.8944 11.999 9.99896 12.8945 9.99896 13.999V18.999L8.99896 18.999C7.34211 18.999 5.99896 20.3422 5.99896 21.999V28.999C5.99896 29.5513 6.44668 29.999 6.99896 29.999C7.55125 29.999 7.99896 29.5513 7.99896 28.999V21.999C7.99896 21.4467 8.44668 20.999 8.99896 20.999H9.99896V49.999C9.99896 51.1036 10.8944 51.999 11.999 51.999H13.999V54.999C13.999 56.1036 14.8944 56.999 15.999 56.999H21.999C23.1035 56.999 23.999 56.1036 23.999 54.999V51.999H37.999V54.999C37.999 56.1036 38.8944 56.999 39.999 56.999H45.999C47.1035 56.999 47.999 56.1036 47.999 54.999V51.999H49.999C51.1035 51.999 51.999 51.1036 51.999 49.999V23.999H49.999V36.999L11.999 36.999V18.999H44.999V16.999H11.999V13.999H44.999ZM49.999 38.999H11.999L11.999 49.999H49.999V38.999ZM39.999 51.999H45.999V54.999H39.999V51.999ZM21.999 51.999H15.999V54.999H21.999V51.999ZM15.999 40.999C14.8944 40.999 13.999 41.8945 13.999 42.999V45.999C13.999 47.1036 14.8944 47.999 15.999 47.999H21.999C23.1035 47.999 23.999 47.1036 23.999 45.999V42.999C23.999 41.8945 23.1035 40.999 21.999 40.999H15.999ZM21.999 42.999H15.999V45.999H21.999V42.999ZM37.999 42.999C37.999 41.8945 38.8944 40.999 39.999 40.999H45.999C47.1035 40.999 47.999 41.8945 47.999 42.999V45.999C47.999 47.1036 47.1035 47.999 45.999 47.999H39.999C38.8944 47.999 37.999 47.1036 37.999 45.999V42.999ZM39.999 42.999H45.999V45.999H39.999V42.999ZM53.999 28.999V23.999H55.999V28.999C55.999 29.5513 55.5512 29.999 54.999 29.999C54.4467 29.999 53.999 29.5513 53.999 28.999Z" fill="#0B0D0E"/>
</svg>
