<svg width="64" height="64" viewBox="0 0 64 64" fill="none" xmlns="http://www.w3.org/2000/svg">
<path fill-rule="evenodd" clip-rule="evenodd" d="M41 7H19V51H43V18H45V51C45 52.1046 44.1046 53 43 53H19C17.8954 53 17 52.1046 17 51V7C17 5.89543 17.8954 5 19 5H41V7Z" fill="#0B0D0E"/>
<path fill-rule="evenodd" clip-rule="evenodd" d="M38.2 16.8V21.2H33.8V16.8H38.2ZM39 15C39.5523 15 40 15.4477 40 16V22C40 22.5523 39.5523 23 39 23H33C32.4477 23 32 22.5523 32 22V16C32 15.4477 32.4477 15 33 15H39Z" fill="#0B0D0E"/>
<path fill-rule="evenodd" clip-rule="evenodd" d="M38.2 26.8V31.2H33.8V26.8H38.2ZM39 25C39.5523 25 40 25.4477 40 26V32C40 32.5523 39.5523 33 39 33H33C32.4477 33 32 32.5523 32 32V26C32 25.4477 32.4477 25 33 25H39Z" fill="#0B0D0E"/>
<path fill-rule="evenodd" clip-rule="evenodd" d="M38.2 36.8V41.2H33.8V36.8H38.2ZM39 35C39.5523 35 40 35.4477 40 36V42C40 42.5523 39.5523 43 39 43H33C32.4477 43 32 42.5523 32 42V36C32 35.4477 32.4477 35 33 35H39Z" fill="#0B0D0E"/>
<path fill-rule="evenodd" clip-rule="evenodd" d="M28.2 16.8V21.2H23.8V16.8H28.2ZM29 15C29.5523 15 30 15.4477 30 16V22C30 22.5523 29.5523 23 29 23H23C22.4477 23 22 22.5523 22 22V16C22 15.4477 22.4477 15 23 15H29Z" fill="#0B0D0E"/>
<path fill-rule="evenodd" clip-rule="evenodd" d="M28.2 26.8V31.2H23.8V26.8H28.2ZM29 25C29.5523 25 30 25.4477 30 26V32C30 32.5523 29.5523 33 29 33H23C22.4477 33 22 32.5523 22 32V26C22 25.4477 22.4477 25 23 25H29Z" fill="#0B0D0E"/>
<path fill-rule="evenodd" clip-rule="evenodd" d="M28.2 36.8V41.2H23.8V36.8H28.2ZM29 35C29.5523 35 30 35.4477 30 36V42C30 42.5523 29.5523 43 29 43H23C22.4477 43 22 42.5523 22 42V36C22 35.4477 22.4477 35 23 35H29Z" fill="#0B0D0E"/>
<path fill-rule="evenodd" clip-rule="evenodd" d="M13 12H17V51H13L13 12ZM19 10V53H13C11.8954 53 11 52.1046 11 51V12C11 10.8954 11.8954 10 13 10H19Z" fill="#0B0D0E"/>
<path fill-rule="evenodd" clip-rule="evenodd" d="M45 23H50V51H45V23ZM50 21C51.1046 21 52 21.8954 52 23V51C52 52.1046 51.1046 53 50 53H43V23C43 21.8954 43.8954 21 45 21H50Z" fill="#0B0D0E"/>
<path fill-rule="evenodd" clip-rule="evenodd" d="M6 8.56925L8.71519 11.3476C9.1012 11.7426 9.09392 12.3757 8.69893 12.7617C8.30395 13.1477 7.67082 13.1404 7.28481 12.7454L7 12.454V51.546L7.28481 51.2546C7.67082 50.8596 8.30395 50.8523 8.69893 51.2383C9.09392 51.6243 9.1012 52.2574 8.71519 52.6524L6 55.4308L3.28481 52.6524C2.8988 52.2574 2.90608 51.6243 3.30107 51.2383C3.69605 50.8523 4.32918 50.8596 4.71519 51.2546L5 51.546V12.454L4.71519 12.7454C4.32918 13.1404 3.69605 13.1477 3.30107 12.7617C2.90608 12.3757 2.8988 11.7426 3.28481 11.3476L6 8.56925Z" fill="#0B0D0E"/>
<path fill-rule="evenodd" clip-rule="evenodd" d="M45.2929 55.2929C45.6834 54.9024 46.3166 54.9024 46.7071 55.2929L49.4142 58L46.7071 60.7071C46.3166 61.0976 45.6834 61.0976 45.2929 60.7071C44.9024 60.3166 44.9024 59.6834 45.2929 59.2929L45.5858 59L16.4142 59L16.7071 59.2929C17.0976 59.6834 17.0976 60.3166 16.7071 60.7071C16.3166 61.0976 15.6834 61.0976 15.2929 60.7071L12.5858 58L15.2929 55.2929C15.6834 54.9024 16.3166 54.9024 16.7071 55.2929C17.0976 55.6834 17.0976 56.3166 16.7071 56.7071L16.4142 57L45.5858 57L45.2929 56.7071C44.9024 56.3166 44.9024 55.6834 45.2929 55.2929Z" fill="#0B0D0E"/>
<path fill-rule="evenodd" clip-rule="evenodd" d="M54.958 3.42736C56.5357 3.07372 58.3756 2.94653 60.2975 3.02004L61.1917 3.05424L61.2566 3.94676C61.5486 7.96045 60.5295 11.6453 58.2539 13.6461C57.3023 14.4828 56.0783 15.1234 54.6623 15.13C53.228 15.1366 51.7745 14.4921 50.3853 13.1022C49.0785 11.7949 48.8137 10.2173 49.1087 8.79132C49.3941 7.41122 50.1965 6.16675 51.0517 5.31152C51.9936 4.36963 53.401 3.77639 54.958 3.42736ZM55.3955 5.37893C54.0071 5.69015 53.024 6.1677 52.4659 6.72574C51.8212 7.37044 51.2567 8.28022 51.0672 9.19643C50.8872 10.0668 51.0392 10.9275 51.7998 11.6883C52.9095 12.7985 53.8766 13.1336 54.6531 13.13C55.448 13.1263 56.225 12.7668 56.9333 12.1441C58.4109 10.8449 59.3626 8.27158 59.3034 5.00003C57.8592 4.9976 56.5272 5.12525 55.3955 5.37893Z" fill="#0B0D0E"/>
<path fill-rule="evenodd" clip-rule="evenodd" d="M42.4968 12.7284C42.2087 11.7693 42.0524 10.6512 42.0139 9.48726L41.9843 8.59288L42.87 8.46455C45.292 8.1136 47.6653 8.55602 49.0717 9.94254C49.6531 10.5158 50.1469 11.2987 50.2201 12.2612C50.2947 13.242 49.9194 14.2313 49.1041 15.1716C48.2837 16.1178 47.2186 16.3741 46.2491 16.2447C45.326 16.1215 44.4854 15.6565 43.8982 15.1476C43.2184 14.5584 42.7789 13.6673 42.4968 12.7284ZM44.4123 12.1531C44.6446 12.9264 44.9385 13.4025 45.2081 13.6362C45.5703 13.9502 46.0601 14.2018 46.5137 14.2623C46.9209 14.3167 47.2788 14.2238 47.593 13.8614C48.1493 13.2199 48.2506 12.7378 48.2259 12.4129C48.1998 12.0697 48.0183 11.7126 47.6676 11.3668C47.0073 10.7159 45.7374 10.2837 44.0744 10.3564C44.1417 11.0251 44.2562 11.6334 44.4123 12.1531Z" fill="#0B0D0E"/>
<path fill-rule="evenodd" clip-rule="evenodd" d="M55.7993 8.4C56.1306 8.84183 56.0411 9.46863 55.5993 9.8C53.8609 11.1038 52.8144 13.3476 52.2086 15.4072C51.9114 16.4176 51.7324 17.3418 51.628 18.0131C51.5759 18.3479 51.5427 18.6179 51.5227 18.8016C51.5127 18.8935 51.506 18.9636 51.5019 19.0095L51.4976 19.0597L51.4968 19.0704L51.4967 19.0717C51.4967 19.0717 51.4967 19.0716 51.494 19.0714L49.5218 19.1959C49.5188 19.1966 49.5188 19.1966 49.5188 19.1966L49.5176 19.1911L49.5106 19.1586C49.5039 19.1281 49.4931 19.0804 49.4777 19.0174C49.4471 18.8913 49.3986 18.7044 49.3297 18.4721C49.1913 18.006 48.9725 17.3644 48.6527 16.6667C48.0016 15.2462 46.9889 13.7172 45.5031 12.8682C45.0236 12.5942 44.857 11.9834 45.131 11.5039C45.405 11.0243 46.0159 10.8577 46.4954 11.1318C48.2613 12.1408 49.4299 13.7802 50.1791 15.2335C50.2142 15.1049 50.2511 14.9746 50.2899 14.8428C50.9341 12.6524 52.1377 9.8962 54.3993 8.2C54.8411 7.86863 55.4679 7.95817 55.7993 8.4Z" fill="#0B0D0E"/>
</svg>
