<svg width="64" height="64" viewBox="0 0 64 64" fill="none" xmlns="http://www.w3.org/2000/svg">
<path fill-rule="evenodd" clip-rule="evenodd" d="M54.9581 2.42736C56.5357 2.07372 58.3756 1.94653 60.2975 2.02004L61.1918 2.05424L61.2567 2.94676C61.5486 6.96045 60.5295 10.6453 58.2539 12.6461C57.3024 13.4828 56.0784 14.1234 54.6624 14.13C53.9297 14.1333 53.1921 13.9668 52.4605 13.6179C52.3691 13.8824 52.2853 14.1463 52.2086 14.4072C51.9114 15.4177 51.7324 16.3419 51.6279 17.0131C51.5758 17.348 51.5426 17.6179 51.5226 17.8017C51.5126 17.8935 51.5059 17.9637 51.5018 18.0096L51.4976 18.0597L51.4966 18.0718L51.494 18.0715L49.5217 18.196L49.5187 18.1967L49.5176 18.1911L49.5105 18.1586C49.5038 18.1282 49.493 18.0805 49.4777 18.0175C49.447 17.8914 49.3986 17.7045 49.3296 17.4722C49.1912 17.0061 48.9724 16.3645 48.6526 15.6667C48.5328 15.4052 48.4007 15.1401 48.2557 14.8762C47.6142 15.2421 46.9095 15.3329 46.2491 15.2447C45.326 15.1215 44.4854 14.6565 43.8982 14.1476C43.2184 13.5583 42.7789 12.6673 42.4968 11.7284C42.2087 10.7693 42.0524 9.6512 42.0139 8.48726L41.9843 7.59287L42.87 7.46454C45.2513 7.11949 47.5855 7.54136 48.9999 8.87338C48.9969 8.50766 49.0356 8.14483 49.1087 7.79132C49.3942 6.41122 50.1965 5.16675 51.0518 4.31152C51.9937 3.36963 53.401 2.77639 54.9581 2.42736ZM48.2291 11.4794C47.7279 10.9709 47.153 10.5076 46.4953 10.1318C46.0158 9.85781 45.405 10.0244 45.131 10.5039C44.8569 10.9834 45.0235 11.5943 45.5031 11.8683C46.1161 12.2186 46.6485 12.6846 47.1083 13.211C46.9229 13.2791 46.7249 13.2905 46.5137 13.2623C46.0602 13.2018 45.5703 12.9502 45.2081 12.6362C44.9385 12.4025 44.6446 11.9264 44.4123 11.1531C44.2562 10.6334 44.1417 10.0251 44.0744 9.35641C45.7374 9.28372 47.0073 9.71586 47.6676 10.3668C48.0183 10.7126 48.1998 11.0697 48.2259 11.4129C48.2275 11.4344 48.2286 11.4565 48.2291 11.4794ZM49.6894 13.3646C49.8696 13.6573 50.0324 13.949 50.179 14.2335C50.2142 14.1049 50.2511 13.9746 50.2898 13.8429C50.4205 13.3985 50.5743 12.9308 50.7552 12.4534C50.6314 12.3421 50.5081 12.2251 50.3853 12.1022C50.3224 12.0393 50.262 11.9758 50.2038 11.9117C50.1424 12.3994 49.9705 12.886 49.6894 13.3646ZM53.2372 11.7714C53.8272 10.6124 54.5986 9.55052 55.5992 8.80006C56.041 8.46869 56.1306 7.84189 55.7992 7.40006C55.4678 6.95823 54.841 6.86869 54.3992 7.20006C53.2111 8.09113 52.315 9.27474 51.6386 10.5152C51.0183 9.79809 50.9008 9.0014 51.0673 8.19643C51.2568 7.28022 51.8213 6.37044 52.466 5.72574C53.024 5.1677 54.0072 4.69015 55.3955 4.37893C56.5272 4.12525 57.8592 3.9976 59.3035 4.00003C59.3627 7.27158 58.4109 9.84493 56.9333 11.1441C56.2251 11.7668 55.448 12.1263 54.6531 12.13C54.2341 12.1319 53.7596 12.0352 53.2372 11.7714Z" fill="#0B0D0E"/>
<path d="M15.7071 17.2929L13 14.5858L10.2929 17.2929C9.90237 17.6834 9.90237 18.3166 10.2929 18.7071C10.6834 19.0976 11.3166 19.0976 11.7071 18.7071L12 18.4142V48.5858L11.7071 48.2929C11.3166 47.9024 10.6834 47.9024 10.2929 48.2929C9.90237 48.6834 9.90237 49.3166 10.2929 49.7071L13 52.4142L15.7071 49.7071C16.0976 49.3166 16.0976 48.6834 15.7071 48.2929C15.3166 47.9024 14.6834 47.9024 14.2929 48.2929L14 48.5858V18.4142L14.2929 18.7071C14.6834 19.0976 15.3166 19.0976 15.7071 18.7071C16.0976 18.3166 16.0976 17.6834 15.7071 17.2929Z" fill="#0B0D0E"/>
<path d="M22.7071 56.7071C23.0976 56.3166 23.0976 55.6834 22.7071 55.2929C22.3166 54.9024 21.6834 54.9024 21.2929 55.2929L18.5858 58L21.2929 60.7071C21.6834 61.0976 22.3166 61.0976 22.7071 60.7071C23.0976 60.3166 23.0976 59.6834 22.7071 59.2929L22.4142 59L41.5858 59L41.2929 59.2929C40.9024 59.6834 40.9024 60.3166 41.2929 60.7071C41.6834 61.0976 42.3166 61.0976 42.7071 60.7071L45.4142 58L42.7071 55.2929C42.3166 54.9024 41.6834 54.9024 41.2929 55.2929C40.9024 55.6834 40.9024 56.3166 41.2929 56.7071L41.5858 57L22.4142 57L22.7071 56.7071Z" fill="#0B0D0E"/>
<path fill-rule="evenodd" clip-rule="evenodd" d="M40.586 6.58629L32.4721 2.24078C32.1759 2.08215 31.8198 2.08287 31.5243 2.24271L30.2856 2.91262L18.7249 9.12191L14.0954 11.577C13.6075 11.8358 13.4217 12.4411 13.6805 12.929C13.9392 13.4169 14.5445 13.6027 15.0324 13.3439L18.0151 11.7621V51.4143C18.0151 51.9666 18.4628 52.4143 19.0151 52.4143H44.9847C45.537 52.4143 45.9847 51.9666 45.9847 51.4143V16.8221C45.2854 16.7989 44.6134 16.6679 43.9847 16.4453V50.4143H36.9082V41.3406C36.9082 40.7883 36.4605 40.3406 35.9082 40.3406H28.0918C27.5395 40.3406 27.0918 40.7883 27.0918 41.3406V50.4143H20.0151V10.7015L23.7505 8.72054L23.7577 8.71669L31.2347 4.67306L31.9999 4.26205L39.7719 8.43638C39.9492 7.77324 40.2262 7.15086 40.586 6.58629ZM29.0918 50.4142V42.3406H34.9082V50.4142H29.0918Z" fill="#0B0D0E"/>
<path fill-rule="evenodd" clip-rule="evenodd" d="M24 16.3339C23.4477 16.3339 23 16.7816 23 17.3339V23.3339C23 23.8861 23.4477 24.3339 24 24.3339H30C30.5523 24.3339 31 23.8861 31 23.3339V17.3339C31 16.7816 30.5523 16.3339 30 16.3339H24ZM24.8 18.1339V22.5339H29.2V18.1339H24.8Z" fill="#0B0D0E"/>
<path fill-rule="evenodd" clip-rule="evenodd" d="M23 27.3339C23 26.7816 23.4477 26.3339 24 26.3339H30C30.5523 26.3339 31 26.7816 31 27.3339V33.3339C31 33.8861 30.5523 34.3339 30 34.3339H24C23.4477 34.3339 23 33.8861 23 33.3339V27.3339ZM24.8 32.5339V28.1339H29.2V32.5339H24.8Z" fill="#0B0D0E"/>
<path fill-rule="evenodd" clip-rule="evenodd" d="M34 16.3339C33.4477 16.3339 33 16.7816 33 17.3339V23.3339C33 23.8861 33.4477 24.3339 34 24.3339H40C40.5523 24.3339 41 23.8861 41 23.3339V17.3339C41 16.7816 40.5523 16.3339 40 16.3339H34ZM34.8 18.1339V22.5339H39.2V18.1339H34.8Z" fill="#0B0D0E"/>
<path fill-rule="evenodd" clip-rule="evenodd" d="M33 27.3339C33 26.7816 33.4477 26.3339 34 26.3339H40C40.5523 26.3339 41 26.7816 41 27.3339V33.3339C41 33.8861 40.5523 34.3339 40 34.3339H34C33.4477 34.3339 33 33.8861 33 33.3339V27.3339ZM34.8 32.5339V28.1339H39.2V32.5339H34.8Z" fill="#0B0D0E"/>
</svg>
