<svg width="64" height="64" viewBox="0 0 64 64" fill="none" xmlns="http://www.w3.org/2000/svg">
<path d="M41 11H20C18.8954 11 18 11.8954 18 13V51C18 52.1046 18.8954 53 20 53H44C45.1046 53 46 52.1046 46 51V16H44V51H20V13H41V11Z" fill="#0B0D0E"/>
<path fill-rule="evenodd" clip-rule="evenodd" d="M39 8H25V11H39V8ZM25 6C23.8954 6 23 6.89543 23 8V11C23 12.1046 23.8954 13 25 13H39C40.1046 13 41 12.1046 41 11V8C41 6.89543 40.1046 6 39 6H25Z" fill="#0B0D0E"/>
<path fill-rule="evenodd" clip-rule="evenodd" d="M25 19V23H29V19H25ZM24 17C23.4477 17 23 17.4477 23 18V24C23 24.5523 23.4477 25 24 25H30C30.5523 25 31 24.5523 31 24V18C31 17.4477 30.5523 17 30 17H24Z" fill="#0B0D0E"/>
<path fill-rule="evenodd" clip-rule="evenodd" d="M25 29V33H29V29H25ZM24 27C23.4477 27 23 27.4477 23 28V34C23 34.5523 23.4477 35 24 35H30C30.5523 35 31 34.5523 31 34V28C31 27.4477 30.5523 27 30 27H24Z" fill="#0B0D0E"/>
<path fill-rule="evenodd" clip-rule="evenodd" d="M35 19V23H39V19H35ZM34 17C33.4477 17 33 17.4477 33 18V24C33 24.5523 33.4477 25 34 25H40C40.5523 25 41 24.5523 41 24V18C41 17.4477 40.5523 17 40 17H34Z" fill="#0B0D0E"/>
<path fill-rule="evenodd" clip-rule="evenodd" d="M35 29V33H39V29H35ZM34 27C33.4477 27 33 27.4477 33 28V34C33 34.5523 33.4477 35 34 35H40C40.5523 35 41 34.5523 41 34V28C41 27.4477 40.5523 27 40 27H34Z" fill="#0B0D0E"/>
<path fill-rule="evenodd" clip-rule="evenodd" d="M37 41H27V51H37V41ZM27 39C25.8954 39 25 39.8954 25 41V51C25 52.1046 25.8954 53 27 53H37C38.1046 53 39 52.1046 39 51V41C39 39.8954 38.1046 39 37 39H27Z" fill="#0B0D0E"/>
<path fill-rule="evenodd" clip-rule="evenodd" d="M8 6.58582L10.7071 9.29292C11.0976 9.68345 11.0976 10.3166 10.7071 10.7071C10.3166 11.0977 9.68342 11.0977 9.29289 10.7071L9 10.4142V48.5858L9.29289 48.2929C9.68342 47.9024 10.3166 47.9024 10.7071 48.2929C11.0976 48.6834 11.0976 49.3166 10.7071 49.7071L8 52.4142L5.29289 49.7071C4.90237 49.3166 4.90237 48.6834 5.29289 48.2929C5.68342 47.9024 6.31658 47.9024 6.70711 48.2929L7 48.5858V10.4142L6.70711 10.7071C6.31658 11.0977 5.68342 11.0977 5.29289 10.7071C4.90237 10.3166 4.90237 9.68345 5.29289 9.29292L8 6.58582Z" fill="#0B0D0E"/>
<path fill-rule="evenodd" clip-rule="evenodd" d="M46.2928 55.2929C46.6833 54.9024 47.3165 54.9024 47.707 55.2929L50.4141 58L47.707 60.7071C47.3165 61.0976 46.6833 61.0976 46.2928 60.7071C45.9023 60.3166 45.9023 59.6834 46.2928 59.2929L46.5857 59L17.4141 59L17.707 59.2929C18.0975 59.6834 18.0975 60.3166 17.707 60.7071C17.3165 61.0976 16.6833 61.0976 16.2928 60.7071L13.5857 58L16.2928 55.2929C16.6833 54.9024 17.3165 54.9024 17.707 55.2929C18.0975 55.6834 18.0975 56.3166 17.707 56.7071L17.4141 57L46.5857 57L46.2928 56.7071C45.9023 56.3166 45.9023 55.6834 46.2928 55.2929Z" fill="#0B0D0E"/>
<path fill-rule="evenodd" clip-rule="evenodd" d="M54.958 2.42736C56.5356 2.07372 58.3755 1.94653 60.2974 2.02004L61.1917 2.05424L61.2566 2.94676C61.5485 6.96045 60.5294 10.6453 58.2538 12.6461C57.3022 13.4828 56.0782 14.1234 54.6623 14.13C53.2279 14.1366 51.7744 13.4921 50.3852 12.1022C49.0785 10.7949 48.8137 9.21727 49.1086 7.79132C49.3941 6.41122 50.1964 5.16675 51.0517 4.31152C51.9936 3.36963 53.4009 2.77639 54.958 2.42736ZM55.3954 4.37893C54.0071 4.69015 53.0239 5.1677 52.4659 5.72574C51.8211 6.37044 51.2567 7.28022 51.0672 8.19643C50.8871 9.06679 51.0392 9.92747 51.7997 10.6883C52.9094 11.7985 53.8765 12.1336 54.653 12.13C55.4479 12.1263 56.225 11.7668 56.9332 11.1441C58.4108 9.84493 59.3626 7.27158 59.3034 4.00003C57.8591 3.9976 56.5271 4.12525 55.3954 4.37893Z" fill="#0B0D0E"/>
<path fill-rule="evenodd" clip-rule="evenodd" d="M42.4968 11.7284C42.2087 10.7693 42.0523 9.65121 42.0138 8.48726L41.9843 7.59288L42.8699 7.46455C45.2919 7.1136 47.6652 7.55602 49.0716 8.94254C49.6531 9.51579 50.1469 10.2987 50.2201 11.2612C50.2947 12.242 49.9193 13.2313 49.104 14.1716C48.2836 15.1178 47.2186 15.3741 46.2491 15.2447C45.3259 15.1215 44.4854 14.6565 43.8981 14.1476C43.2183 13.5584 42.7788 12.6673 42.4968 11.7284ZM44.4122 11.1531C44.6445 11.9264 44.9384 12.4025 45.2081 12.6362C45.5703 12.9502 46.0601 13.2018 46.5136 13.2623C46.9208 13.3167 47.2787 13.2238 47.593 12.8614C48.1492 12.2199 48.2505 11.7378 48.2258 11.4129C48.1997 11.0697 48.0182 10.7126 47.6675 10.3668C47.0073 9.71586 45.7373 9.28372 44.0743 9.35641C44.1416 10.0251 44.2561 10.6334 44.4122 11.1531Z" fill="#0B0D0E"/>
<path fill-rule="evenodd" clip-rule="evenodd" d="M55.7992 7.4C56.1306 7.84183 56.041 8.46863 55.5992 8.8C53.8608 10.1038 52.8143 12.3476 52.2086 14.4072C51.9114 15.4176 51.7323 16.3418 51.6279 17.0131C51.5758 17.3479 51.5426 17.6179 51.5226 17.8016C51.5126 17.8935 51.5059 17.9636 51.5018 18.0095L51.4976 18.0597L51.4967 18.0704L51.4966 18.0717C51.4966 18.0717 51.4966 18.0716 51.494 18.0714L49.5217 18.1959C49.5187 18.1966 49.5187 18.1966 49.5187 18.1966L49.5175 18.1911L49.5105 18.1586C49.5038 18.1281 49.493 18.0804 49.4777 18.0174C49.447 17.8913 49.3986 17.7044 49.3296 17.4721C49.1912 17.006 48.9724 16.3644 48.6526 15.6667C48.0016 14.2462 46.9888 12.7172 45.5031 11.8682C45.0235 11.5942 44.8569 10.9834 45.1309 10.5039C45.405 10.0243 46.0158 9.85775 46.4953 10.1318C48.2612 11.1408 49.4299 12.7802 50.179 14.2335C50.2142 14.1049 50.2511 13.9746 50.2898 13.8428C50.9341 11.6524 52.1376 8.8962 54.3992 7.2C54.841 6.86863 55.4678 6.95817 55.7992 7.4Z" fill="#0B0D0E"/>
</svg>
