<svg width="64" height="64" viewBox="0 0 64 64" fill="none" xmlns="http://www.w3.org/2000/svg">
<path fill-rule="evenodd" clip-rule="evenodd" d="M51.3465 13.9766C54.0214 16.038 56.6951 14.9655 58.5691 13.0928C61.3994 10.2645 60.8434 3.06944 60.8434 3.06944C60.8434 3.06944 53.6488 2.5084 50.8185 5.33669C48.9436 7.21023 47.8691 9.88468 49.9323 12.5623L49.101 13.3937C48.7104 13.7842 48.7105 14.4174 49.101 14.8079C49.4915 15.1984 50.1247 15.1984 50.5152 14.8079L51.3465 13.9766ZM54.6705 13.0797C55.448 12.9869 56.3211 12.5118 57.1554 11.6781C57.5541 11.2796 57.9218 10.6286 58.2151 9.71944C58.503 8.82683 58.6786 7.81283 58.7775 6.82188C58.8419 6.17699 58.8717 5.56325 58.8826 5.02892C58.3482 5.03939 57.7345 5.0688 57.0895 5.13271C56.0985 5.2309 55.0844 5.40579 54.1916 5.6931C53.2822 5.98574 52.6309 6.35298 52.2322 6.7514C51.3979 7.58511 50.9222 8.45784 50.8289 9.23534C50.7677 9.74527 50.8487 10.3801 51.363 11.1316L54.3036 8.19092C54.6942 7.80039 55.3273 7.80038 55.7178 8.1909C56.1084 8.58143 56.1084 9.21459 55.7179 9.60512L52.7771 12.5459C53.5271 13.0592 54.1611 13.1404 54.6705 13.0797Z" fill="#0B0D0E"/>
<path fill-rule="evenodd" clip-rule="evenodd" d="M48.4597 47.0041C48.4597 49.0789 46.7778 50.7608 44.703 50.7608C42.6282 50.7608 40.9463 49.0789 40.9463 47.0041C40.9463 44.9294 42.6282 43.2474 44.703 43.2474C46.7778 43.2474 48.4597 44.9294 48.4597 47.0041ZM46.4597 47.0041C46.4597 47.9743 45.6732 48.7608 44.703 48.7608C43.7328 48.7608 42.9463 47.9743 42.9463 47.0041C42.9463 46.0339 43.7328 45.2474 44.703 45.2474C45.6732 45.2474 46.4597 46.0339 46.4597 47.0041Z" fill="#0B0D0E"/>
<path fill-rule="evenodd" clip-rule="evenodd" d="M20.8005 50.7607C22.8752 50.7607 24.5571 49.0788 24.5571 47.0041C24.5571 44.9294 22.8752 43.2475 20.8005 43.2475C18.7258 43.2475 17.0439 44.9294 17.0439 47.0041C17.0439 49.0788 18.7258 50.7607 20.8005 50.7607ZM20.8005 48.7607C21.7706 48.7607 22.5571 47.9742 22.5571 47.0041C22.5571 46.034 21.7706 45.2475 20.8005 45.2475C19.8304 45.2475 19.0439 46.034 19.0439 47.0041C19.0439 47.9742 19.8304 48.7607 20.8005 48.7607Z" fill="#0B0D0E"/>
<path fill-rule="evenodd" clip-rule="evenodd" d="M49.8262 22.513C50.3925 22.5122 50.8517 22.9714 50.8517 23.5377C50.8517 24.1041 50.3926 24.5632 49.8262 24.5632H43.5376L42.6917 27.6564H49.7845C50.2341 27.6564 50.646 27.9077 50.8517 28.3076L55.2845 36.9283C55.3718 37.098 55.4173 37.2862 55.4173 37.477V40.9438C55.4173 41.6066 54.8801 42.1438 54.2173 42.1438H52.112C53.0289 43.5391 53.5624 45.2089 53.5624 47.0033C53.5624 51.8965 49.5957 55.8631 44.7026 55.8631C39.8094 55.8631 35.8428 51.8965 35.8428 47.0033C35.8428 46.6817 35.8599 46.3642 35.8933 46.0515H29.6114C29.6448 46.3642 29.662 46.6817 29.662 47.0033C29.662 51.8965 25.6953 55.8631 20.8022 55.8631C15.909 55.8631 11.9424 51.8965 11.9424 47.0033C11.9424 43.7017 13.7484 40.8218 16.4264 39.2978L9.21307 33.6695C8.99247 33.4974 8.83896 33.2536 8.77907 32.9802L7.49899 27.1383C7.33498 26.3898 7.90494 25.6814 8.67118 25.6814H34.205L35.7449 23.1411C35.9624 22.7823 36.3515 22.5632 36.771 22.5632C39.1327 22.5632 41.4747 22.5504 43.8158 22.5377C45.8159 22.5268 47.8153 22.5159 49.8262 22.513ZM18.5638 38.4287C19.2788 38.2426 20.0289 38.1435 20.8022 38.1435C21.5915 38.1435 22.3566 38.2467 23.0849 38.4404L25.2791 30.2523C25.422 29.7189 25.9703 29.4023 26.5038 29.5453C27.0373 29.6882 27.3538 30.2365 27.2109 30.77L24.9582 39.1768C25.1948 39.3027 25.4251 39.439 25.6483 39.5852L38.4714 39.5829V35.6684C38.4714 35.5614 38.4857 35.455 38.5139 35.3518L41.4642 24.5632H37.2216L35.6817 27.1035C35.4642 27.4623 35.0751 27.6814 34.6555 27.6814H9.66545L10.6709 32.2702L16.8184 37.0669L18.7436 30.1528C18.8917 29.6208 19.4431 29.3095 19.9752 29.4577C20.5072 29.6058 20.8184 30.1572 20.6703 30.6893L18.524 38.3976L18.5638 38.4287ZM27.8124 41.5848C28.3839 42.3231 28.8413 43.1541 29.1583 44.0515H36.3464C36.6637 43.1534 37.1216 42.3218 37.6937 41.5831L27.8124 41.5848ZM53.4173 40.1438H50.3104C48.783 38.8936 46.8304 38.1435 44.7026 38.1435C43.2807 38.1435 41.9371 38.4785 40.7464 39.0737L40.4888 36.8131L42.4554 29.6564H44.9695V34.4228C44.9695 35.2512 45.6411 35.9228 46.4695 35.9228H52.5186L53.4173 37.6707V40.1438ZM46.9695 33.9228H51.4901L49.2963 29.6564H46.9695V33.9228ZM44.7026 53.8631C48.4911 53.8631 51.5624 50.7919 51.5624 47.0033C51.5624 43.2148 48.4911 40.1435 44.7026 40.1435C40.914 40.1435 37.8428 43.2148 37.8428 47.0033C37.8428 50.7919 40.914 53.8631 44.7026 53.8631ZM27.662 47.0033C27.662 50.7919 24.5907 53.8631 20.8022 53.8631C17.0136 53.8631 13.9424 50.7919 13.9424 47.0033C13.9424 43.2148 17.0136 40.1435 20.8022 40.1435C24.5907 40.1435 27.662 43.2148 27.662 47.0033Z" fill="#0B0D0E"/>
</svg>
