<svg width="64" height="64" viewBox="0 0 64 64" fill="none" xmlns="http://www.w3.org/2000/svg">
<path d="M38.6733 5.45708C38.6446 5.46148 38.6159 5.46148 38.5873 5.46148C38.1383 5.46148 37.7637 5.1204 37.7287 4.66708L37.6034 2.96605C37.5669 2.48192 37.932 2.05061 38.4174 2.0044C38.905 1.95599 39.3277 2.31248 39.362 2.7944L39.4873 4.49544C39.5238 4.97956 39.1587 5.41087 38.6733 5.45708Z" fill="#0B0D0E"/>
<path fill-rule="evenodd" clip-rule="evenodd" d="M37.1927 36.0848L36.1442 48.3172L42.4417 51.4174C42.7835 51.5857 43 51.9336 43 52.3146V55C43 55.5523 42.5523 56 42 56H24C23.4477 56 23 55.5523 23 55L23 52.3146C23 51.9336 23.2165 51.5857 23.5583 51.4174L29.8557 48.3172L28.8072 36.0848L11.509 40.6369C10.2408 40.9707 9 40.0141 9 38.7028L9 35.5884C9 34.8621 9.39379 34.1928 10.0287 33.8401L27.5144 24.1258C27.5978 24.0795 27.685 24.0463 27.7736 24.0257L27.3849 19.4906C27.1332 16.554 27.6975 13.605 29.0156 10.9688L29.4223 10.1554C30.8964 7.20723 35.1036 7.20723 36.5777 10.1554L36.9844 10.9688C38.3025 13.605 38.8668 16.554 38.6151 19.4906L38.2263 24.0257C38.3149 24.0463 38.4022 24.0795 38.4856 24.1258L55.9713 33.8401C56.6062 34.1928 57 34.8621 57 35.5884V38.7028C57 40.0141 55.7592 40.9707 54.491 40.6369L37.1927 36.0848ZM36.6224 19.3198L34.1641 48H31.8359L29.3776 19.3198C29.1573 16.7503 29.6511 14.1699 30.8044 11.8632L31.2111 11.0498C31.9482 9.57575 34.0518 9.57575 34.7888 11.0498L35.1955 11.8632C36.3488 14.1699 36.8426 16.7503 36.6224 19.3198ZM30.9656 50H35.0344L41 52.9369V54H25V52.9369L30.9656 50ZM27.9572 26.1677L28.6339 34.0623L11 38.7028L11 35.5884L27.9572 26.1677ZM37.3661 34.0623L55 38.7028V35.5884L38.0427 26.1677L37.3661 34.0623Z" fill="#0B0D0E"/>
<path d="M35.4098 5.96099C35.5756 6.20085 35.8432 6.32848 36.1161 6.32848C36.2944 6.32848 36.4741 6.27567 36.6309 6.16344C37.0341 5.88177 37.1401 5.33163 36.8659 4.93553L35.9053 3.54477C35.6312 3.14647 35.0809 3.05845 34.6821 3.34012C34.2789 3.62179 34.1729 4.17193 34.4471 4.56803L35.4098 5.96099Z" fill="#0B0D0E"/>
<path d="M41.1261 13.0096C41.5248 12.7279 42.073 12.8159 42.3493 13.2142L43.31 14.6028C43.5842 14.9989 43.4781 15.549 43.0749 15.8307C42.9181 15.9429 42.7385 15.9957 42.5602 15.9957C42.2872 15.9957 42.0196 15.8681 41.8538 15.6282L40.891 14.2375C40.6168 13.8414 40.7229 13.2912 41.1261 13.0096Z" fill="#0B0D0E"/>
<path d="M45.2795 11.6545L43.7407 10.9481C43.3142 10.7479 42.7767 10.9415 42.5654 11.3861C42.3542 11.8284 42.5372 12.3499 42.9747 12.5524L44.5135 13.2587C44.6289 13.3115 44.7515 13.338 44.8748 13.338C45.2071 13.338 45.5332 13.1465 45.6887 12.823C45.9 12.3785 45.7192 11.8548 45.2795 11.6545Z" fill="#0B0D0E"/>
<path d="M43.8319 8.31806L45.5376 8.15082C46.0606 8.10021 46.4457 8.4589 46.48 8.94082C46.5165 9.42495 46.1515 9.85626 45.666 9.90247L43.9604 10.0697C43.9294 10.0741 43.903 10.0741 43.8744 10.0741C43.4254 10.0741 43.0529 9.73523 43.0179 9.27971C42.9815 8.79559 43.3465 8.36427 43.8319 8.31806Z" fill="#0B0D0E"/>
<path d="M42.3589 7.25538C42.5246 7.49524 42.7922 7.62287 43.0652 7.62287C43.2435 7.62287 43.4231 7.57006 43.58 7.45783L44.9957 6.46318C45.3989 6.18151 45.5049 5.63137 45.2307 5.23526C44.9544 4.83696 44.4063 4.74894 44.0075 5.03061L42.5918 6.02527C42.1929 6.30914 42.0869 6.85928 42.3589 7.25538Z" fill="#0B0D0E"/>
<path d="M42.689 3.8616L41.944 5.4196C41.7885 5.74308 41.4646 5.93453 41.13 5.93673C41.0067 5.93673 40.8863 5.91033 40.7687 5.85751C40.3313 5.65506 40.1482 5.13353 40.3595 4.69122L41.1045 3.13322C41.3158 2.68871 41.8446 2.49286 42.2798 2.69531C42.7172 2.89776 42.9003 3.41929 42.689 3.8616Z" fill="#0B0D0E"/>
</svg>
