<svg width="64" height="64" viewBox="0 0 64 64" fill="none" xmlns="http://www.w3.org/2000/svg">
<path d="M37.5874 5.46148C37.616 5.46148 37.6447 5.46148 37.6734 5.45708C38.1588 5.41087 38.5238 4.97956 38.4874 4.49544L38.3621 2.7944C38.3278 2.31248 37.9051 1.95599 37.4175 2.0044C36.932 2.05061 36.567 2.48192 36.6035 2.96605L36.7287 4.66708C36.7638 5.1204 37.1384 5.46148 37.5874 5.46148Z" fill="#212121"/>
<path d="M34.4099 5.96101C34.5756 6.20087 34.8432 6.3285 35.1162 6.3285C35.2945 6.3285 35.4741 6.27569 35.631 6.16346C36.0341 5.88179 36.1402 5.33165 35.866 4.93555L34.9054 3.54479C34.6313 3.14649 34.0809 3.05847 33.6821 3.34014C33.279 3.62181 33.1729 4.17195 33.4471 4.56805L34.4099 5.96101Z" fill="#212121"/>
<path d="M40.1261 13.0096C40.5249 12.7279 41.0731 12.8159 41.3494 13.2142L42.31 14.6028C42.5842 14.9989 42.4782 15.549 42.075 15.8307C41.9181 15.9429 41.7385 15.9957 41.5602 15.9957C41.2873 15.9957 41.0197 15.8681 40.8539 15.6282L39.8911 14.2375C39.6169 13.8414 39.723 13.2912 40.1261 13.0096Z" fill="#212121"/>
<path d="M44.2795 11.6545L42.7407 10.9482C42.3142 10.7479 41.7767 10.9415 41.5655 11.3861C41.3542 11.8284 41.5373 12.3499 41.9747 12.5524L43.5135 13.2587C43.6289 13.3116 43.7515 13.338 43.8748 13.338C44.2072 13.338 44.5333 13.1465 44.6887 12.823C44.9 12.3785 44.7193 11.8548 44.2795 11.6545Z" fill="#212121"/>
<path d="M42.8319 8.31808L44.5376 8.15084C45.0606 8.10022 45.4457 8.45892 45.48 8.94084C45.5165 9.42496 45.1515 9.85627 44.6661 9.90248L42.9604 10.0697C42.9295 10.0741 42.903 10.0741 42.8744 10.0741C42.4254 10.0741 42.0529 9.73524 42.0179 9.27973C41.9815 8.7956 42.3465 8.36429 42.8319 8.31808Z" fill="#212121"/>
<path d="M41.3589 7.25539C41.5247 7.49525 41.7923 7.62288 42.0652 7.62288C42.2435 7.62288 42.4231 7.57007 42.58 7.45784L43.9957 6.46318C44.3989 6.18151 44.505 5.63137 44.2308 5.23527C43.9545 4.83697 43.4063 4.74895 43.0075 5.03062L41.5918 6.02527C41.193 6.30914 41.0869 6.85928 41.3589 7.25539Z" fill="#212121"/>
<path d="M41.6891 3.86161L40.944 5.41961C40.7886 5.74309 40.4646 5.93454 40.13 5.93674C40.0067 5.93674 39.8863 5.91033 39.7688 5.85752C39.3313 5.65507 39.1483 5.13353 39.3595 4.69122L40.1046 3.13322C40.3159 2.68871 40.8446 2.49286 41.2798 2.69531C41.7173 2.89776 41.9003 3.4193 41.6891 3.86161Z" fill="#212121"/>
<path fill-rule="evenodd" clip-rule="evenodd" d="M37.3856 36.5L37.0548 48.0767C37.1289 48.1075 37.1995 48.1473 37.2648 48.1956L41.594 51.3925C41.8493 51.5811 42 51.8796 42 52.197V55C42 55.5523 41.5523 56 41 56H23C22.4477 56 22 55.5523 22 55V52.197C22 51.8796 22.1507 51.5811 22.406 51.3925L26.7352 48.1956C26.8004 48.1474 26.8709 48.1076 26.9449 48.0768L26.6142 36.5H10C8.89543 36.5 8 35.6046 8 34.5V30.7601C8 29.8617 8.59907 29.0735 9.46471 28.8331L16.0639 26.9999H16V23.9999C16 22.8954 16.8954 21.9999 18 21.9999H21C22.1046 21.9999 23 22.8954 23 23.9999V25.0733L26.2618 24.1672L26.1147 19.0175C26.0393 16.3801 26.6174 13.7651 27.7973 11.4052L28.4222 10.1554C29.8963 7.20723 34.1035 7.20723 35.5776 10.1554L36.2025 11.4052C37.3824 13.7651 37.9605 16.3801 37.8851 19.0175L37.738 24.1671L41 25.0733V23.9999C41 22.8954 41.8954 21.9999 43 21.9999H46C47.1046 21.9999 48 22.8954 48 23.9999V26.9999H47.9361L54.5353 28.8331C55.4009 29.0735 56 29.8617 56 30.7601V34.5C56 35.6046 55.1046 36.5 54 36.5H37.3856ZM35.8859 18.9604L35.0562 48H28.9436L28.1139 18.9604C28.0479 16.6527 28.5537 14.3645 29.5862 12.2996L30.211 11.0498C30.9481 9.57575 33.0517 9.57575 33.7887 11.0498L34.4136 12.2996C35.4461 14.3645 35.9519 16.6527 35.8859 18.9604ZM36.0281 50L36.0308 50H36.3416L40 52.7016V54H24V52.7016L27.6584 50H27.9689L27.9717 50H36.0281ZM26.3207 26.2266L26.557 34.5H10L10 30.7601L26.3207 26.2266ZM37.4428 34.5H54V30.7601L37.6791 26.2265L37.4428 34.5ZM21 25.6288L18 26.4621V23.9999H21V25.6288ZM46 26.4621V23.9999H43V25.6288L46 26.4621Z" fill="#212121"/>
</svg>
