<svg width="64" height="64" viewBox="0 0 64 64" fill="none" xmlns="http://www.w3.org/2000/svg">
<path d="M53.8319 13.3181L55.5376 13.1508C56.0605 13.1002 56.4457 13.4589 56.48 13.9408C56.5165 14.425 56.1514 14.8563 55.666 14.9025L53.9603 15.0697C53.9294 15.0741 53.903 15.0741 53.8744 15.0741C53.4253 15.0741 53.0529 14.7352 53.0179 14.2797C52.9814 13.7956 53.3465 13.3643 53.8319 13.3181Z" fill="#0B0D0E"/>
<path d="M55.2795 16.6545L53.7407 15.9482C53.3142 15.7479 52.7767 15.9415 52.5654 16.3861C52.3542 16.8284 52.5372 17.3499 52.9747 17.5524L54.5135 18.2587C54.6289 18.3116 54.7515 18.338 54.8747 18.338C55.2071 18.338 55.5332 18.1465 55.6887 17.823C55.9 17.3785 55.7192 16.8548 55.2795 16.6545Z" fill="#0B0D0E"/>
<path d="M25 27C26.1046 27 27 26.1046 27 25C27 23.8954 26.1046 23 25 23C23.8954 23 23 23.8954 23 25C23 26.1046 23.8954 27 25 27Z" fill="#0B0D0E"/>
<path d="M34 25C34 26.1046 33.1046 27 32 27C30.8954 27 30 26.1046 30 25C30 23.8954 30.8954 23 32 23C33.1046 23 34 23.8954 34 25Z" fill="#0B0D0E"/>
<path d="M39 27C40.1046 27 41 26.1046 41 25C41 23.8954 40.1046 23 39 23C37.8954 23 37 23.8954 37 25C37 26.1046 37.8954 27 39 27Z" fill="#0B0D0E"/>
<path fill-rule="evenodd" clip-rule="evenodd" d="M10.1681 53.5547C9.8617 53.0952 9.98588 52.4743 10.4454 52.1679L10.4481 52.1662L10.4737 52.1494L10.5126 52.1243C10.5297 52.1133 10.55 52.1004 10.5735 52.0856L10.6203 52.0564L10.6815 52.0186C10.8269 51.9295 11.0369 51.8048 11.3047 51.6565C11.8398 51.3601 12.6084 50.9678 13.5553 50.576C13.6631 50.5314 13.7734 50.4867 13.8861 50.4421L11.1851 35.1364C10.9962 34.0661 11.6967 33.0409 12.7624 32.8277L17.1026 31.9597L18.8858 19.7118C19.0289 18.7289 19.8717 18 20.8649 18H23V13C23 11.8954 23.8954 11 25 11H27V10C27 9.44771 27.4477 9 28 9C28.5523 9 29 9.44771 29 10V11L35 11V10C35 9.44771 35.4477 9 36 9C36.5523 9 37 9.44771 37 10V11L39 11C40.1046 11 41 11.8954 41 13V18H43.1327C44.128 18 44.9718 18.7319 45.1126 19.7172L46.8605 31.9523L51.2376 32.8277C52.3033 33.0409 53.0038 34.0661 52.8149 35.1364L50.1669 50.1418C50.5396 50.292 50.8831 50.4485 51.1973 50.6056C52.0068 51.0103 52.6201 51.4182 53.0376 51.7313C53.2464 51.8878 53.4065 52.021 53.518 52.1185C53.5737 52.1673 53.6174 52.2072 53.6489 52.2368L53.6678 52.2546L53.6871 52.2732L53.6994 52.2852L53.7039 52.2896L53.7065 52.2922C53.707 52.2927 53.602 52.398 53.4491 52.551L53.7072 52.2929C54.0977 52.6834 54.0977 53.3166 53.7072 53.7071C53.3177 54.0966 52.687 54.0976 52.2962 53.7103L52.2942 53.7084L52.293 53.7071L52.281 53.6958C52.2657 53.6815 52.239 53.6569 52.201 53.6237C52.125 53.5571 52.0038 53.4559 51.8376 53.3312C51.5051 53.0818 50.9934 52.7397 50.3029 52.3944C48.9252 51.7056 46.8273 51 44.0001 51C41.2094 51 39.6128 51.684 38.0442 52.408L37.8082 52.5172C36.2565 53.2365 34.6095 54 32.0001 54C29.3135 54 27.7654 53.1913 26.3365 52.4448L26.225 52.3866C24.844 51.666 23.5138 51 21.0001 51C18.4246 51 16.0589 51.7044 14.32 52.424C13.4543 52.7822 12.7542 53.1399 12.2737 53.406C12.0337 53.539 11.8491 53.6487 11.7269 53.7236C11.6658 53.7611 11.6204 53.7898 11.5914 53.8084L11.5604 53.8284L11.5544 53.8323C11.0949 54.1383 10.4743 54.0141 10.1681 53.5547ZM21.0001 49C19.1032 49 17.3284 49.3347 15.8007 49.7829L13.1547 34.7889L31 31.2198L31 51.9526C29.4124 51.7947 28.3927 51.2622 27.2426 50.6616L27.1502 50.6134C25.6562 49.834 23.9864 49 21.0001 49ZM32 29C32.0966 29 32.1901 29.0137 32.2785 29.0393C32.3165 29.0446 32.3545 29.0511 32.3922 29.0586L44.7808 31.5363L43.1327 20L20.8649 20L19.1843 31.5433L31.6078 29.0586C31.6455 29.0511 31.6835 29.0446 31.7215 29.0393C31.8099 29.0137 31.9034 29 32 29ZM33 51.9535L33 31.2198L50.8453 34.7889L48.2465 49.5154C47.0317 49.206 45.6158 49 44.0001 49C40.7908 49 38.8874 49.816 37.206 50.592L37.0028 50.686C35.7183 51.2804 34.5971 51.7993 33 51.9535ZM25 18L39 18V13H25V18Z" fill="#0B0D0E"/>
<path d="M48.5874 10.4615C48.1383 10.4615 47.7637 10.1204 47.7287 9.66708L47.6034 7.96605C47.567 7.48192 47.932 7.05061 48.4174 7.0044C48.9051 6.95599 49.3277 7.31248 49.362 7.7944L49.4873 9.49544C49.5238 9.97956 49.1588 10.4109 48.6734 10.4571C48.6446 10.4615 48.616 10.4615 48.5874 10.4615Z" fill="#0B0D0E"/>
<path d="M45.4098 10.961C45.5756 11.2009 45.8432 11.3285 46.1162 11.3285C46.2945 11.3285 46.4741 11.2757 46.6309 11.1635C47.0341 10.8818 47.1401 10.3316 46.866 9.93555L45.9053 8.54479C45.6312 8.14649 45.0809 8.05847 44.6821 8.34014C44.2789 8.62181 44.1729 9.17195 44.4471 9.56805L45.4098 10.961Z" fill="#0B0D0E"/>
<path d="M51.1261 18.0096C51.5249 17.7279 52.073 17.8159 52.3493 18.2142L53.31 19.6028C53.5842 19.9989 53.4782 20.549 53.075 20.8307C52.9181 20.9429 52.7385 20.9957 52.5602 20.9957C52.2873 20.9957 52.0197 20.8681 51.8539 20.6282L50.8911 19.2375C50.6169 18.8414 50.7229 18.2912 51.1261 18.0096Z" fill="#0B0D0E"/>
<path d="M52.3589 12.2554C52.5247 12.4952 52.7923 12.6229 53.0652 12.6229C53.2435 12.6229 53.4231 12.5701 53.58 12.4578L54.9957 11.4632C55.3989 11.1815 55.5049 10.6314 55.2307 10.2353C54.9544 9.83697 54.4063 9.74895 54.0075 10.0306L52.5918 11.0253C52.1929 11.3091 52.0869 11.8593 52.3589 12.2554Z" fill="#0B0D0E"/>
<path d="M52.6891 8.86161L51.944 10.4196C51.7885 10.7431 51.4646 10.9345 51.13 10.9367C51.0067 10.9367 50.8863 10.9103 50.7687 10.8575C50.3313 10.6551 50.1482 10.1335 50.3595 9.69122L51.1045 8.13322C51.3158 7.68871 51.8446 7.49286 52.2798 7.69531C52.7173 7.89776 52.9003 8.4193 52.6891 8.86161Z" fill="#0B0D0E"/>
</svg>
