<svg width="64" height="64" viewBox="0 0 64 64" fill="none" xmlns="http://www.w3.org/2000/svg">
<g clip-path="url(#clip0_6767_13111)">
<path fill-rule="evenodd" clip-rule="evenodd" d="M55.6833 41.8944L55.6833 41.8945C55.8916 42.311 56 42.7703 56 43.2361V46C56 47.6569 54.6569 49 53 49H47C47 48.2316 46.7111 47.5308 46.2361 47H53C53.5523 47 54 46.5523 54 46V43.2361C54 43.0808 53.9639 42.9277 53.8944 42.7889L51.1968 37.3935C51.0714 37.1427 50.8466 36.9562 50.5771 36.8791L44.2632 35.0752C44.0909 35.026 43.9351 34.9314 43.8119 34.8013L35.7721 26.3124C35.5832 26.113 35.3207 26 35.046 26H20.0712C19.4285 26 18.8249 26.3089 18.449 26.8302L14.2399 32.6674C14.0862 32.8805 13.8548 33.0246 13.5958 33.0685L8.75138 33.8889C8.35396 33.9562 8.0358 34.2555 7.94441 34.6481L6.02605 42.8881L4.07814 42.4346L5.9965 34.1946C6.27069 33.0169 7.22516 32.1189 8.41743 31.917L12.8575 31.165L16.8268 25.6605C17.5786 24.6178 18.7858 24 20.0712 24H35.046C35.87 24 36.6576 24.3389 37.2242 24.9371L45.0758 33.2273L51.1265 34.9561C51.9351 35.1871 52.6096 35.7469 52.9856 36.4991L55.6833 41.8944ZM13.7639 47H7C6.44772 47 6 46.5523 6 46V43.1149C6 43.0385 6.00874 42.9625 6.02605 42.8881L4.07814 42.4346C4.02622 42.6576 4 42.8859 4 43.1149V46C4 47.6569 5.34315 49 7 49H13C13 48.2316 13.2889 47.5308 13.7639 47ZM18.2361 47C18.7111 47.5308 19 48.2316 19 49H41C41 48.2316 41.2889 47.5308 41.7639 47H18.2361Z" fill="#0B0D0E"/>
<path fill-rule="evenodd" clip-rule="evenodd" d="M21.0001 49C21.0001 51.7614 18.7615 54 16.0001 54C13.2386 54 11.0001 51.7614 11.0001 49C11.0001 46.2386 13.2386 44 16.0001 44C18.7615 44 21.0001 46.2386 21.0001 49ZM16.0001 52C17.6569 52 19.0001 50.6569 19.0001 49C19.0001 47.3431 17.6569 46 16.0001 46C14.3432 46 13.0001 47.3431 13.0001 49C13.0001 50.6569 14.3432 52 16.0001 52Z" fill="#0B0D0E"/>
<path fill-rule="evenodd" clip-rule="evenodd" d="M49.0001 49C49.0001 51.7614 46.7615 54 44.0001 54C41.2386 54 39.0001 51.7614 39.0001 49C39.0001 46.2386 41.2386 44 44.0001 44C46.7615 44 49.0001 46.2386 49.0001 49ZM44.0001 52C45.6569 52 47.0001 50.6569 47.0001 49C47.0001 47.3431 45.6569 46 44.0001 46C42.3432 46 41.0001 47.3431 41.0001 49C41.0001 50.6569 42.3432 52 44.0001 52Z" fill="#0B0D0E"/>
<path fill-rule="evenodd" clip-rule="evenodd" d="M17.4499 34.857L12.6287 32.9285L13.3714 31.0715L18.1926 33L17.4499 34.857ZM17.4499 34.857C17.6861 34.9515 17.9382 35 18.1926 35H44.0001V33H18.1926L17.4499 34.857Z" fill="#0B0D0E"/>
<path fill-rule="evenodd" clip-rule="evenodd" d="M27.9488 24.6837L30.9488 33.6837L29.0514 34.3162L26.0514 25.3162L27.9488 24.6837Z" fill="#0B0D0E"/>
<path d="M47 16.8726C47 15.009 45.7009 13.4453 44 13C44.4905 12.464 45 11.7586 45 11C45 9.39205 43.5348 8 42 8C40.4652 8 39 9.35232 39 10.9603C39 11.7024 39.5174 12.464 40 13C38.2595 13.4535 37 14.9843 37 16.8726L37 19L47 19L47 16.8726ZM42 12C41.5 12 41 11.5 41 11C41 10.5 41.5 10 42 10C42.5 10 43 10.5 43 11C43 11.5 42.5 12 42 12ZM41 15L43 15C44.3212 15 45 15.6147 45 17L39 17C39 15.6147 39.6788 15 41 15Z" fill="#0B0D0E"/>
<path d="M58 16.8726C58 15.009 56.7009 13.4453 55 13C55.4905 12.464 56 11.7586 56 11C56 9.39205 54.5348 8 53 8C51.4652 8 50 9.35232 50 10.9603C50 11.7024 50.5174 12.464 51 13C49.2595 13.4535 48 14.9843 48 16.8726L48 19L58 19L58 16.8726ZM53 12C52.5 12 52 11.5 52 11C52 10.5 52.5 10 53 10C53.5 10 54 10.5 54 11C54 11.5 53.5 12 53 12ZM52 15L54 15C55.3212 15 56 15.6147 56 17L50 17C50 15.6147 50.6788 15 52 15Z" fill="#0B0D0E"/>
</g>
<defs>
<clipPath id="clip0_6767_13111">
<rect width="64" height="64" fill="white"/>
</clipPath>
</defs>
</svg>
