<svg width="64" height="64" viewBox="0 0 64 64" fill="none" xmlns="http://www.w3.org/2000/svg">
<path fill-rule="evenodd" clip-rule="evenodd" d="M32 8C32.5523 8 33 8.44772 33 9V13H35C36.1046 13 37 13.8954 37 15V19H44C44.5523 19 45 19.4477 45 20C45 20.5523 44.5523 21 44 21V31H43.947L47.9657 33.7629C48.6818 34.2552 48.998 35.1534 48.7483 35.9857L46 45.1468V50.109C48.2015 50.3537 49.9353 50.9746 51.1973 51.6056C52.0068 52.0103 52.6201 52.4182 53.0376 52.7313C53.2464 52.8878 53.4065 53.021 53.518 53.1185C53.5737 53.1673 53.6174 53.2072 53.6489 53.2368L53.6733 53.2599L53.6871 53.2732L53.6994 53.2852L53.7039 53.2896L53.7065 53.2922C53.7065 53.2922 53.602 53.398 53.4491 53.551L53.7072 53.2929C54.0977 53.6834 54.0977 54.3166 53.7072 54.7071C53.3177 55.0966 52.687 55.0976 52.2962 54.7103L52.2942 54.7084L52.293 54.7071L52.281 54.6958C52.2657 54.6815 52.239 54.6569 52.201 54.6237C52.125 54.5571 52.0038 54.4559 51.8376 54.3312C51.5051 54.0818 50.9934 53.7397 50.3029 53.3944C48.9252 52.7056 46.8273 52 44.0001 52C41.2094 52 39.6128 52.684 38.0442 53.408L37.8082 53.5172C36.2565 54.2365 34.6095 55 32.0001 55C29.3135 55 27.7654 54.1913 26.3365 53.4448L26.225 53.3866C24.844 52.666 23.5138 52 21.0001 52C18.4246 52 16.0589 52.7044 14.32 53.424C13.4543 53.7822 12.7542 54.1399 12.2737 54.406C12.0337 54.539 11.8491 54.6487 11.7269 54.7236C11.6658 54.7611 11.6204 54.7898 11.5914 54.8084L11.5604 54.8284L11.5544 54.8323C11.0949 55.1383 10.4743 55.0141 10.1681 54.5547C9.8617 54.0952 9.98588 53.4743 10.4454 53.1679L10.4465 53.1672L10.4481 53.1662C10.4695 53.1521 10.491 53.1381 10.5126 53.1243C10.5522 53.0989 10.6088 53.0632 10.6815 53.0186C10.8269 52.9295 11.0369 52.8048 11.3047 52.6565C11.8398 52.3601 12.6084 51.9678 13.5553 51.576C14.768 51.0741 16.2902 50.5661 18 50.2673V45.1468L15.2517 35.9857C15.002 35.1534 15.3183 34.2552 16.0343 33.7629L20.053 31H20V21C19.4477 21 19 20.5523 19 20C19 19.4477 19.4477 19 20 19H27V15C27 13.8954 27.8954 13 29 13H31V9C31 8.44772 31.4477 8 32 8ZM29 15H35V19H29V15ZM22 21V29.6615L30.8669 23.5654C31.5494 23.0962 32.4506 23.0962 33.1331 23.5654L42 29.6615V21H22ZM44 50V45.1468C44 44.9521 44.0284 44.7585 44.0843 44.5721L46.8327 35.411L33 25.901V52.9535C34.5971 52.7993 35.7183 52.2804 37.0028 51.686L37.206 51.592C38.8874 50.816 40.7908 50 44 50ZM31 52.9526V25.901L17.1673 35.411L19.9157 44.5721C19.9716 44.7585 20 44.9521 20 45.1468V50.0305C20.329 50.0106 20.6626 50 21.0001 50C23.9864 50 25.6562 50.834 27.1502 51.6134L27.2426 51.6616C28.3927 52.2622 29.4124 52.7947 31 52.9526Z" fill="#0B0D0E"/>
<path d="M47.6734 11.4571C47.6446 11.4615 47.616 11.4615 47.5874 11.4615C47.1383 11.4615 46.7637 11.1204 46.7287 10.6671L46.6034 8.96605C46.567 8.48192 46.932 8.05061 47.4174 8.0044C47.9051 7.95599 48.3277 8.31248 48.362 8.7944L48.4873 10.4954C48.5238 10.9796 48.1588 11.4109 47.6734 11.4571Z" fill="#0B0D0E"/>
<path d="M44.4098 11.961C44.5756 12.2009 44.8432 12.3285 45.1162 12.3285C45.2945 12.3285 45.4741 12.2757 45.6309 12.1635C46.0341 11.8818 46.1401 11.3316 45.866 10.9355L44.9053 9.54479C44.6312 9.14649 44.0809 9.05847 43.6821 9.34014C43.2789 9.62181 43.1729 10.1719 43.4471 10.5681L44.4098 11.961Z" fill="#0B0D0E"/>
<path d="M50.1261 19.0096C50.5249 18.7279 51.073 18.8159 51.3493 19.2142L52.31 20.6028C52.5842 20.9989 52.4782 21.549 52.075 21.8307C51.9181 21.9429 51.7385 21.9957 51.5602 21.9957C51.2873 21.9957 51.0197 21.8681 50.8539 21.6282L49.8911 20.2375C49.6169 19.8414 49.7229 19.2912 50.1261 19.0096Z" fill="#0B0D0E"/>
<path d="M54.2795 17.6545L52.7407 16.9482C52.3142 16.7479 51.7767 16.9415 51.5654 17.3861C51.3542 17.8284 51.5372 18.3499 51.9747 18.5524L53.5135 19.2587C53.6289 19.3116 53.7515 19.338 53.8747 19.338C54.2071 19.338 54.5332 19.1465 54.6887 18.823C54.9 18.3785 54.7192 17.8548 54.2795 17.6545Z" fill="#0B0D0E"/>
<path d="M52.8319 14.3181L54.5376 14.1508C55.0605 14.1002 55.4457 14.4589 55.48 14.9408C55.5165 15.425 55.1514 15.8563 54.666 15.9025L52.9603 16.0697C52.9294 16.0741 52.903 16.0741 52.8744 16.0741C52.4253 16.0741 52.0529 15.7352 52.0179 15.2797C51.9814 14.7956 52.3465 14.3643 52.8319 14.3181Z" fill="#0B0D0E"/>
<path d="M51.3589 13.2554C51.5247 13.4952 51.7923 13.6229 52.0652 13.6229C52.2435 13.6229 52.4231 13.5701 52.58 13.4578L53.9957 12.4632C54.3989 12.1815 54.5049 11.6314 54.2307 11.2353C53.9544 10.837 53.4063 10.7489 53.0075 11.0306L51.5918 12.0253C51.1929 12.3091 51.0869 12.8593 51.3589 13.2554Z" fill="#0B0D0E"/>
<path d="M51.6891 9.86161L50.944 11.4196C50.7885 11.7431 50.4646 11.9345 50.13 11.9367C50.0067 11.9367 49.8863 11.9103 49.7687 11.8575C49.3313 11.6551 49.1482 11.1335 49.3595 10.6912L50.1045 9.13322C50.3158 8.68871 50.8446 8.49286 51.2798 8.69531C51.7173 8.89776 51.9003 9.4193 51.6891 9.86161Z" fill="#0B0D0E"/>
</svg>
