<svg width="64" height="64" viewBox="0 0 64 64" fill="none" xmlns="http://www.w3.org/2000/svg">
<path fill-rule="evenodd" clip-rule="evenodd" d="M17.6477 15L10.4282 52H39.5136L31.3916 15H17.6477ZM16.8239 13C16.3455 13 15.9341 13.3389 15.8425 13.8085L8.2327 52.8085C8.11222 53.426 8.58506 54 9.21419 54H40.7569C41.3956 54 41.8706 53.4094 41.7336 52.7856L33.1727 13.7856C33.072 13.3268 32.6656 13 32.1959 13H16.8239Z" fill="#0B0D0E"/>
<path fill-rule="evenodd" clip-rule="evenodd" d="M37.8584 35L41.6072 52H53.9998V35H37.8584ZM36.6139 33C35.9748 33 35.4997 33.5913 35.6374 34.2153L39.8272 53.2153C39.9282 53.6736 40.3344 54 40.8037 54H54.9998C55.5521 54 55.9998 53.5523 55.9998 53V34C55.9998 33.4477 55.5521 33 54.9998 33H36.6139Z" fill="#0B0D0E"/>
<path fill-rule="evenodd" clip-rule="evenodd" d="M49.0002 22V33H52.0002V22H49.0002ZM48.0002 20C47.4479 20 47.0002 20.4477 47.0002 21V34C47.0002 34.5523 47.4479 35 48.0002 35H53.0002C53.5525 35 54.0002 34.5523 54.0002 34V21C54.0002 20.4477 53.5525 20 53.0002 20H48.0002Z" fill="#0B0D0E"/>
<path fill-rule="evenodd" clip-rule="evenodd" d="M40.0002 27V33H43.0002V27H40.0002ZM39.0002 25C38.4479 25 38.0002 25.4477 38.0002 26V34C38.0002 34.5523 38.4479 35 39.0002 35H44.0002C44.5525 35 45.0002 34.5523 45.0002 34V26C45.0002 25.4477 44.5525 25 44.0002 25H39.0002Z" fill="#0B0D0E"/>
<path fill-rule="evenodd" clip-rule="evenodd" d="M29.7888 44.0421C30.6893 42.8612 31.1358 41.1472 31.1365 39.2048C31.1369 38.1091 30.7667 36.8397 30.0863 35.4689C29.4131 34.1127 28.4942 32.7726 27.5394 31.5689C26.6578 30.4575 25.7718 29.4949 25.0736 28.7814C24.3749 29.4944 23.4882 30.4564 22.6058 31.5672C21.6502 32.7701 20.7303 34.1096 20.0562 35.4653C19.3749 36.8356 19.0038 38.1048 19.0034 39.2005C19.0027 41.1429 19.448 42.8572 20.3476 44.0388C21.1792 45.1308 22.5722 46.0017 25.0675 46.0026C27.5628 46.0034 28.9565 45.1336 29.7888 44.0421ZM25.0668 48.0026C31.1419 48.0047 33.1349 43.6055 33.1365 39.2055C33.1386 33.1305 25.0746 26.0028 25.0746 26.0028C25.0746 26.0028 17.0055 33.1248 17.0034 39.1998C17.0018 43.5998 18.9918 48.0004 25.0668 48.0026Z" fill="#0B0D0E"/>
<path fill-rule="evenodd" clip-rule="evenodd" d="M21.0047 38C21.5569 38.0014 22.0035 38.4502 22.0022 39.0025C21.9996 40.0424 22.2134 41.0796 22.6895 41.8229C23.1282 42.5077 23.8172 43 25.0023 43C25.5546 43 26.0023 43.4477 26.0022 44C26.0022 44.5523 25.5545 45 25.0022 45C23.1136 45 21.7997 44.1418 21.0053 42.9016C20.2484 41.7197 19.999 40.2569 20.0022 38.9975C20.0035 38.4452 20.4524 37.9986 21.0047 38Z" fill="#0B0D0E"/>
</svg>
