<svg width="64" height="64" viewBox="0 0 64 64" fill="none" xmlns="http://www.w3.org/2000/svg">
<path fill-rule="evenodd" clip-rule="evenodd" d="M52 24.6712V25.9212H50V24.6712H52ZM52 28.4212V29.6712C52 29.9127 51.9127 30.1459 51.7541 30.328L51.0791 31.103L49.5709 29.7894L50 29.2968V28.4212H52ZM49.7291 32.653L48.3791 34.203L46.8709 32.8894L48.2209 31.3394L49.7291 32.653ZM47.0291 35.753L45.6791 37.303L44.1709 35.9894L45.5209 34.4394L47.0291 35.753ZM44.3291 38.853L42.9791 40.403L41.4709 39.0894L42.8209 37.5394L44.3291 38.853ZM41.6291 41.953L40.2791 43.503L38.7709 42.1894L40.1209 40.6394L41.6291 41.953ZM38.5 45.5456L38.9291 45.053L37.4209 43.7394L36.7459 44.5144C36.5873 44.6965 36.5 44.9298 36.5 45.1712V46.2962H38.5V45.5456ZM38.5 48.5462V50.7962H36.5V48.5462H38.5ZM38.5 53.0462V54.1712H36.5V53.0462H38.5Z" fill="#0B0D0E"/>
<path fill-rule="evenodd" clip-rule="evenodd" d="M30 19.1712V54.1712H28V19.1712H30Z" fill="#0B0D0E"/>
<path fill-rule="evenodd" clip-rule="evenodd" d="M14.8955 31.0218L14.2705 30.3552L15.7295 28.9873L16.3545 29.6539L14.8955 31.0218ZM17.3955 33.6885L16.1455 32.3552L17.6045 30.9873L18.8545 32.3206L17.3955 33.6885ZM19.8955 36.3552L18.6455 35.0218L20.1045 33.6539L21.3545 34.9873L19.8955 36.3552ZM21.5 38.0667L21.1455 37.6885L22.6045 36.3206L23.2295 36.9873C23.4033 37.1726 23.5 37.4172 23.5 37.6712V38.7025H21.5V38.0667ZM21.5 42.8275V40.765H23.5V42.8275H21.5ZM21.5 46.9525V44.89H23.5V46.9525H21.5ZM21.5 51.0775V49.015H23.5V51.0775H21.5ZM21.5 54.1712V53.14H23.5V54.1712H21.5Z" fill="#0B0D0E"/>
<path fill-rule="evenodd" clip-rule="evenodd" d="M17 27.6712C17 29.8804 15.2091 31.6712 13 31.6712C10.7909 31.6712 9 29.8804 9 27.6712C9 25.4621 10.7909 23.6712 13 23.6712C15.2091 23.6712 17 25.4621 17 27.6712ZM13 29.6712C14.1046 29.6712 15 28.7758 15 27.6712C15 26.5666 14.1046 25.6712 13 25.6712C11.8954 25.6712 11 26.5666 11 27.6712C11 28.7758 11.8954 29.6712 13 29.6712Z" fill="#0B0D0E"/>
<path fill-rule="evenodd" clip-rule="evenodd" d="M40 25.6715H36V29.6715H40V25.6715ZM36 23.6715C34.8954 23.6715 34 24.5669 34 25.6715V29.6715C34 30.776 34.8954 31.6715 36 31.6715H40C41.1046 31.6715 42 30.776 42 29.6715V25.6715C42 24.5669 41.1046 23.6715 40 23.6715H36Z" fill="#0B0D0E"/>
<path fill-rule="evenodd" clip-rule="evenodd" d="M31.4847 15.3282L28.985 12.8285L26.4853 15.3282L28.985 17.8279L31.4847 15.3282ZM30.3992 11.4143C29.6181 10.6332 28.3518 10.6332 27.5708 11.4143L25.0711 13.914C24.29 14.695 24.29 15.9614 25.0711 16.7424L27.5708 19.2421C28.3518 20.0231 29.6181 20.0232 30.3992 19.2421L32.8989 16.7424C33.6799 15.9614 33.6799 14.695 32.8989 13.914L30.3992 11.4143Z" fill="#0B0D0E"/>
<path fill-rule="evenodd" clip-rule="evenodd" d="M51 16.6715C51.7145 16.6715 52.3748 17.0526 52.7321 17.6715L55.3301 22.1715C55.6874 22.7903 55.6874 23.5526 55.3301 24.1715C54.9729 24.7903 54.3126 25.1715 53.5981 25.1715H48.4019C47.6874 25.1715 47.0271 24.7903 46.6699 24.1715C46.3126 23.5526 46.3126 22.7903 46.6699 22.1715L49.2679 17.6715C49.6252 17.0526 50.2855 16.6715 51 16.6715ZM51 18.6715L48.4019 23.1715H53.5981L51 18.6715Z" fill="#0B0D0E"/>
<path fill-rule="evenodd" clip-rule="evenodd" d="M39.6042 31.6259L38.8229 30.9071L40.1771 29.4353L40.9583 30.154L39.6042 31.6259ZM42.7292 34.5009L41.1667 33.0634L42.5208 31.5915L44.0833 33.029L42.7292 34.5009ZM45.8542 37.3759L44.2917 35.9384L45.6458 34.4665L47.2083 35.904L45.8542 37.3759ZM48.9792 40.2509L47.4167 38.8134L48.7708 37.3415L50.3333 38.779L48.9792 40.2509ZM51 42.11L50.5417 41.6884L51.8958 40.2165L52.6771 40.9353C52.8829 41.1246 53 41.3915 53 41.6712V42.7129H51V42.11ZM51 46.8796V44.7962H53V46.8796H51ZM51 51.0462V48.9629H53V51.0462H51ZM51 54.1712V53.1296H53V54.1712H51Z" fill="#0B0D0E"/>
</svg>
