<svg width="64" height="64" viewBox="0 0 64 64" fill="none" xmlns="http://www.w3.org/2000/svg">
<path fill-rule="evenodd" clip-rule="evenodd" d="M50.6274 14.7849C53.3024 16.8467 55.9763 15.7742 57.8504 13.9014C60.6807 11.0731 60.1247 3.87803 60.1247 3.87803C60.1247 3.87803 52.93 3.31699 50.0998 6.14528C48.225 8.01874 47.1505 10.693 49.2133 13.3705L48.3816 14.2023C47.9911 14.5928 47.9911 15.226 48.3816 15.6165C48.7721 16.007 49.4053 16.007 49.7958 15.6165L50.6274 14.7849ZM53.9517 13.8882C54.7293 13.7955 55.6024 13.3204 56.4367 12.4867C56.8354 12.0882 57.2031 11.4372 57.4963 10.528C57.7843 9.63542 57.9599 8.62142 58.0588 7.63048C58.1231 6.98558 58.153 6.37184 58.1638 5.83751C57.6295 5.84799 57.0157 5.87739 56.3708 5.9413C55.3798 6.03949 54.3657 6.21438 53.4728 6.50169C52.5634 6.79433 51.9122 7.16157 51.5135 7.55999C50.6792 8.3937 50.2034 9.26643 50.1101 10.0439C50.049 10.5538 50.1299 11.1885 50.644 11.9398L53.5843 8.99951C53.9748 8.60898 54.608 8.60898 54.9985 8.9995C55.389 9.39002 55.389 10.0232 54.9985 10.4137L52.058 13.3543C52.8082 13.8678 53.4422 13.949 53.9517 13.8882Z" fill="#212121"/>
<path fill-rule="evenodd" clip-rule="evenodd" d="M16 39C15.4477 39 15 39.4477 15 40L15 46C15 46.5523 15.4477 47 16 47L22 47C22.5523 47 23 46.5523 23 46L23 40C23 39.4477 22.5523 39 22 39L16 39ZM17 41L17 45L21 45L21 41L17 41Z" fill="#212121"/>
<path fill-rule="evenodd" clip-rule="evenodd" d="M25 40C25 39.4477 25.4477 39 26 39H32C32.5523 39 33 39.4477 33 40V46C33 46.5523 32.5523 47 32 47H26C25.4477 47 25 46.5523 25 46L25 40ZM27 45L27 41H31V45H27Z" fill="#212121"/>
<path fill-rule="evenodd" clip-rule="evenodd" d="M36 39C35.4477 39 35 39.4477 35 40V46C35 46.5523 35.4477 47 36 47H42C42.5523 47 43 46.5523 43 46V40C43 39.4477 42.5523 39 42 39H36ZM37 41V45H41V41H37Z" fill="#212121"/>
<path fill-rule="evenodd" clip-rule="evenodd" d="M10 54C9.44771 54 9 53.5523 9 53L9 34C9 33.4477 9.44772 33 10 33H14L14 12C14 11.4477 14.4477 11 15 11L22 11C22.5523 11 23 11.4477 23 12L23 33H25L25 12C25 11.4477 25.4477 11 26 11L33 11C33.5523 11 34 11.4477 34 12V24L52.8889 24C53.5025 24 54 24.4477 54 25V53C54 53.5523 53.5025 54 52.8889 54L10 54ZM52 26L34 26V33L48 33C48.5523 33 49 33.4477 49 34V52H52V26ZM47 52V35H11L11 52L47 52ZM32 33L32 13H27V33H32ZM21 13L21 33L16 33L16 13H21Z" fill="#212121"/>
</svg>
