<svg width="64" height="64" viewBox="0 0 64 64" fill="none" xmlns="http://www.w3.org/2000/svg">
<path fill-rule="evenodd" clip-rule="evenodd" d="M32 31C32 32.1046 31.1046 33 30 33L30 36L37 36C38.6569 36 40 37.3431 40 39V45C41.1046 45 42 45.8954 42 47V48C42 49.1046 41.1046 50 40 50H34C32.8954 50 32 49.1046 32 48V47C32 45.8954 32.8954 45 34 45V42L27 42C25.3431 42 24 40.6569 24 39L24 33C22.8954 33 22 32.1046 22 31V30C22 28.8954 22.8954 28 24 28H30C31.1046 28 32 28.8954 32 30V31ZM26 33L26 39C26 39.5523 26.4477 40 27 40L35 40C35.5523 40 36 40.4477 36 41V45H38V39C38 38.4477 37.5523 38 37 38L29 38C28.448 38 28.0004 37.5527 28 37.0008L28 33H26ZM34 47V48H40V47H34ZM28.001 31H30V30H24V31H25.9986C25.9991 31 25.9995 31 26 31H28.001C28.0006 31 28.0013 31 28.001 31Z" fill="#0B0D0E"/>
<path fill-rule="evenodd" clip-rule="evenodd" d="M29.9264 16.4982C30.5815 16.0813 31.4187 16.0813 32.0739 16.4982L53.537 30.1566C54.0029 30.4531 54.1403 31.0712 53.8438 31.5371C53.5473 32.0031 52.9292 32.1404 52.4632 31.8439L49.0002 29.6402V54.0969C49.0002 55.2015 48.1048 56.0969 47.0002 56.0969H15.0002C13.8957 56.0969 13.0002 55.2015 13.0002 54.0969V29.64L9.537 31.8439C9.07106 32.1404 8.45297 32.0031 8.15646 31.5371C7.85996 31.0712 7.99731 30.4531 8.46325 30.1566L15.4065 25.7381V18.4001C15.4065 17.8479 15.8542 17.4001 16.4065 17.4001H20.4065C20.9588 17.4001 21.4065 17.8479 21.4065 18.4001V21.92L29.9264 16.4982ZM15.0002 28.3673V54.0969H47.0002V28.3674L31.0001 18.1855L15.0002 28.3673ZM19.4065 23.1927L17.4065 24.4654V19.4001H19.4065V23.1927Z" fill="#0B0D0E"/>
<path fill-rule="evenodd" clip-rule="evenodd" d="M55.0001 9C55.0001 8.44772 54.5524 8 54.0001 8C53.4478 8 53.0001 8.44772 53.0001 9V12.5793L49.5735 10.1808C49.1211 9.86405 48.4976 9.97409 48.1809 10.4265C47.8641 10.879 47.9742 11.5025 48.4266 11.8192L52.2563 14.5L48.4266 17.1808C47.9742 17.4975 47.8641 18.121 48.1809 18.5735C48.4976 19.0259 49.1211 19.1359 49.5735 18.8192L53.0001 16.4207V20.0897C53.0001 20.642 53.4478 21.0897 54.0001 21.0897C54.5524 21.0897 55.0001 20.642 55.0001 20.0897V16.4207L58.4266 18.8192C58.8791 19.1359 59.5026 19.0259 59.8193 18.5735C60.136 18.121 60.026 17.4975 59.5735 17.1808L55.7439 14.5L59.5735 11.8192C60.026 11.5025 60.136 10.879 59.8193 10.4265C59.5026 9.97409 58.8791 9.86405 58.4266 10.1808L55.0001 12.5793V9Z" fill="#0B0D0E"/>
</svg>
