<svg width="64" height="64" viewBox="0 0 64 64" fill="none" xmlns="http://www.w3.org/2000/svg">
<path fill-rule="evenodd" clip-rule="evenodd" d="M43 15.9998H19V53.9998H43V15.9998ZM19 13.9998C17.8954 13.9998 17 14.8952 17 15.9998V53.9998C17 55.1044 17.8954 55.9998 19 55.9998H43C44.1046 55.9998 45 55.1044 45 53.9998V15.9998C45 14.8952 44.1046 13.9998 43 13.9998H19Z" fill="#0B0D0E"/>
<path fill-rule="evenodd" clip-rule="evenodd" d="M38 10.9998H24V13.9998H38L38 10.9998ZM24 8.9998C22.8954 8.9998 22 9.89523 22 10.9998V13.9998C22 15.1044 22.8954 15.9998 24 15.9998H38C39.1046 15.9998 40 15.1044 40 13.9998V10.9998C40 9.89523 39.1046 8.9998 38 8.9998H24Z" fill="#0B0D0E"/>
<path fill-rule="evenodd" clip-rule="evenodd" d="M24 21.9998V25.9998H28V21.9998H24ZM23 19.9998C22.4477 19.9998 22 20.4475 22 20.9998V26.9998C22 27.5521 22.4477 27.9998 23 27.9998H29C29.5523 27.9998 30 27.5521 30 26.9998V20.9998C30 20.4475 29.5523 19.9998 29 19.9998H23Z" fill="#0B0D0E"/>
<path fill-rule="evenodd" clip-rule="evenodd" d="M24 31.9998V35.9998H28V31.9998H24ZM23 29.9998C22.4477 29.9998 22 30.4475 22 30.9998V36.9998C22 37.5521 22.4477 37.9998 23 37.9998H29C29.5523 37.9998 30 37.5521 30 36.9998V30.9998C30 30.4475 29.5523 29.9998 29 29.9998H23Z" fill="#0B0D0E"/>
<path fill-rule="evenodd" clip-rule="evenodd" d="M34 21.9998V25.9998H38V21.9998H34ZM33 19.9998C32.4477 19.9998 32 20.4475 32 20.9998V26.9998C32 27.5521 32.4477 27.9998 33 27.9998H39C39.5523 27.9998 40 27.5521 40 26.9998V20.9998C40 20.4475 39.5523 19.9998 39 19.9998H33Z" fill="#0B0D0E"/>
<path fill-rule="evenodd" clip-rule="evenodd" d="M34 31.9998V35.9998H38V31.9998H34ZM33 29.9998C32.4477 29.9998 32 30.4475 32 30.9998V36.9998C32 37.5521 32.4477 37.9998 33 37.9998H39C39.5523 37.9998 40 37.5521 40 36.9998V30.9998C40 30.4475 39.5523 29.9998 39 29.9998H33Z" fill="#0B0D0E"/>
<path fill-rule="evenodd" clip-rule="evenodd" d="M36 43.9998H26V53.9998H36V43.9998ZM26 41.9998C24.8954 41.9998 24 42.8952 24 43.9998V53.9998C24 55.1044 24.8954 55.9998 26 55.9998H36C37.1046 55.9998 38 55.1044 38 53.9998V43.9998C38 42.8952 37.1046 41.9998 36 41.9998H26Z" fill="#0B0D0E"/>
<path fill-rule="evenodd" clip-rule="evenodd" d="M53.8626 9.01841C54.8192 9.5707 56.0424 9.24295 56.5946 8.28636C57.1469 7.32977 56.8192 6.10659 55.8626 5.55431C54.906 5.00202 53.6828 5.32977 53.1305 6.28636C52.5783 7.24294 52.906 8.46613 53.8626 9.01841ZM58.3267 9.28636C57.2221 11.1995 54.7758 11.855 52.8626 10.7505C50.9494 9.64589 50.2939 7.19953 51.3985 5.28636C52.5031 3.37319 54.9494 2.71769 56.8626 3.82226C58.7758 4.92683 59.4313 7.37319 58.3267 9.28636Z" fill="#0B0D0E"/>
<path fill-rule="evenodd" clip-rule="evenodd" d="M63.1908 12.5328C62.9146 13.0111 62.303 13.1749 61.8248 12.8988L59.4841 11.5474C59.0058 11.2713 58.8419 10.6597 59.118 10.1814C59.3942 9.70309 60.0058 9.53921 60.4841 9.81536L62.8248 11.1667C63.303 11.4429 63.4669 12.0545 63.1908 12.5328Z" fill="#0B0D0E"/>
<path fill-rule="evenodd" clip-rule="evenodd" d="M49.7594 4.77783C49.4832 5.25612 48.8717 5.42 48.3934 5.14385L46.0527 3.79246C45.5744 3.51632 45.4105 2.90473 45.6867 2.42644C45.9628 1.94814 46.5744 1.78427 47.0527 2.06041L49.3934 3.4118C49.8717 3.68795 50.0355 4.29954 49.7594 4.77783Z" fill="#0B0D0E"/>
<path fill-rule="evenodd" clip-rule="evenodd" d="M49.2199 8.87838C49.3629 9.41184 49.0463 9.96018 48.5128 10.1031L45.9021 10.8027C45.3687 10.9456 44.8203 10.629 44.6774 10.0955C44.5344 9.56208 44.851 9.01374 45.3845 8.8708L47.9952 8.17127C48.5286 8.02833 49.077 8.34491 49.2199 8.87838Z" fill="#0B0D0E"/>
<path fill-rule="evenodd" clip-rule="evenodd" d="M55.8366 12.6992C56.3701 12.5563 56.9184 12.8728 57.0613 13.4063L57.7609 16.017C57.9038 16.5505 57.5872 17.0988 57.0538 17.2417C56.5203 17.3847 55.972 17.0681 55.829 16.5346L55.1295 13.9239C54.9866 13.3905 55.3031 12.8421 55.8366 12.6992Z" fill="#0B0D0E"/>
<path fill-rule="evenodd" clip-rule="evenodd" d="M51.7382 12.1591C52.2165 12.4352 52.3804 13.0468 52.1042 13.5251L50.7528 15.8658C50.4767 16.3441 49.8651 16.5079 49.3868 16.2318C48.9085 15.9557 48.7446 15.3441 49.0208 14.8658L50.3722 12.5251C50.6483 12.0468 51.2599 11.8829 51.7382 12.1591Z" fill="#0B0D0E"/>
</svg>
