<svg width="64" height="64" viewBox="0 0 64 64" fill="none" xmlns="http://www.w3.org/2000/svg">
<path fill-rule="evenodd" clip-rule="evenodd" d="M17 18V23H47V18H17ZM16 16C15.4477 16 15 16.4477 15 17V24C15 24.5523 15.4477 25 16 25H48C48.5523 25 49 24.5523 49 24V17C49 16.4477 48.5523 16 48 16H16Z" fill="#212121"/>
<path fill-rule="evenodd" clip-rule="evenodd" d="M20 15V16H29V15H20ZM19 13C18.4477 13 18 13.4477 18 14V17C18 17.5523 18.4477 18 19 18H30C30.5523 18 31 17.5523 31 17V14C31 13.4477 30.5523 13 30 13H19Z" fill="#212121"/>
<path fill-rule="evenodd" clip-rule="evenodd" d="M19 51V52H21V51H19ZM18 49C17.4477 49 17 49.4477 17 50V53C17 53.5523 17.4477 54 18 54H22C22.5523 54 23 53.5523 23 53V50C23 49.4477 22.5523 49 22 49H18Z" fill="#212121"/>
<path fill-rule="evenodd" clip-rule="evenodd" d="M43 51V52H45V51H43ZM42 49C41.4477 49 41 49.4477 41 50V53C41 53.5523 41.4477 54 42 54H46C46.5523 54 47 53.5523 47 53V50C47 49.4477 46.5523 49 46 49H42Z" fill="#212121"/>
<path fill-rule="evenodd" clip-rule="evenodd" d="M34 15V16H44V15H34ZM33 13C32.4477 13 32 13.4477 32 14V17C32 17.5523 32.4477 18 33 18H45C45.5523 18 46 17.5523 46 17V14C46 13.4477 45.5523 13 45 13H33Z" fill="#212121"/>
<path fill-rule="evenodd" clip-rule="evenodd" d="M20 25V45H44V25H20ZM19 23C18.4477 23 18 23.4477 18 24V46C18 46.5523 18.4477 47 19 47H45C45.5523 47 46 46.5523 46 46V24C46 23.4477 45.5523 23 45 23H19Z" fill="#212121"/>
<path fill-rule="evenodd" clip-rule="evenodd" d="M23 28V29H41V28H23ZM22 26C21.4477 26 21 26.4477 21 27V30C21 30.5523 21.4477 31 22 31H42C42.5523 31 43 30.5523 43 30V27C43 26.4477 42.5523 26 42 26H22Z" fill="#212121"/>
<path fill-rule="evenodd" clip-rule="evenodd" d="M17 25V49H47V25H17ZM16 23C15.4477 23 15 23.4477 15 24V50C15 50.5523 15.4477 51 16 51H48C48.5523 51 49 50.5523 49 50V24C49 23.4477 48.5523 23 48 23H16Z" fill="#212121"/>
<path fill-rule="evenodd" clip-rule="evenodd" d="M20.5 21C20.7761 21 21 20.7761 21 20.5C21 20.2239 20.7761 20 20.5 20C20.2239 20 20 20.2239 20 20.5C20 20.7761 20.2239 21 20.5 21ZM20.5 23C21.8807 23 23 21.8807 23 20.5C23 19.1193 21.8807 18 20.5 18C19.1193 18 18 19.1193 18 20.5C18 21.8807 19.1193 23 20.5 23Z" fill="#212121"/>
<path fill-rule="evenodd" clip-rule="evenodd" d="M27.5 21C27.7761 21 28 20.7761 28 20.5C28 20.2239 27.7761 20 27.5 20C27.2239 20 27 20.2239 27 20.5C27 20.7761 27.2239 21 27.5 21ZM27.5 23C28.8807 23 30 21.8807 30 20.5C30 19.1193 28.8807 18 27.5 18C26.1193 18 25 19.1193 25 20.5C25 21.8807 26.1193 23 27.5 23Z" fill="#212121"/>
<path fill-rule="evenodd" clip-rule="evenodd" d="M35.5 21C35.7761 21 36 20.7761 36 20.5C36 20.2239 35.7761 20 35.5 20C35.2239 20 35 20.2239 35 20.5C35 20.7761 35.2239 21 35.5 21ZM35.5 23C36.8807 23 38 21.8807 38 20.5C38 19.1193 36.8807 18 35.5 18C34.1193 18 33 19.1193 33 20.5C33 21.8807 34.1193 23 35.5 23Z" fill="#212121"/>
<path fill-rule="evenodd" clip-rule="evenodd" d="M42.5 21C42.7761 21 43 20.7761 43 20.5C43 20.2239 42.7761 20 42.5 20C42.2239 20 42 20.2239 42 20.5C42 20.7761 42.2239 21 42.5 21ZM42.5 23C43.8807 23 45 21.8807 45 20.5C45 19.1193 43.8807 18 42.5 18C41.1193 18 40 19.1193 40 20.5C40 21.8807 41.1193 23 42.5 23Z" fill="#212121"/>
<path d="M53.6585 5.5063L50.2214 11.4434C49.797 12.1766 50.3258 13.0945 51.1734 13.0945H52.9369L52.2291 16.4799C51.9532 17.7996 53.7274 18.5011 54.4286 17.3496L58.0516 11.3997C58.498 10.6667 57.9703 9.72765 57.1121 9.72765H55.2424L55.8767 6.32759C56.124 5.00195 54.3341 4.33923 53.6585 5.5063ZM52.7204 16.3095C52.7205 16.3092 52.7206 16.309 52.7208 16.3088L52.7204 16.3095Z" stroke="#212121" stroke-width="2"/>
</svg>
