<svg width="64" height="64" viewBox="0 0 64 64" fill="none" xmlns="http://www.w3.org/2000/svg">
<path fill-rule="evenodd" clip-rule="evenodd" d="M41.1475 21.7993C40.4811 21.7993 40.0012 22.4388 40.1874 23.0787L41.234 26.6755L26.5594 30.6119L24.0809 25.3946L26.3475 25.1428C26.7829 25.0944 27.1122 24.7264 27.1122 24.2884C27.1122 23.8136 26.7273 23.4287 26.2526 23.4287H20.9354C20.298 23.4287 19.7812 23.9454 19.7812 24.5829C19.7812 25.2708 20.3792 25.8059 21.0629 25.73L22.371 25.5846L25.1592 31.4538L23.2678 33.7338C21.6987 32.6517 19.7964 32.0181 17.7461 32.0181C12.3678 32.0181 8.00781 36.378 8.00781 41.7563C8.00781 47.1346 12.3678 51.4946 17.7461 51.4946C22.7107 51.4946 26.8076 47.7795 27.4085 42.9777H30.173L31.0301 46.4059C31.0386 46.44 31.0488 46.4733 31.0606 46.5057C31.0215 46.601 31 46.7052 31 46.8146C31 47.2644 31.3647 47.6291 31.8146 47.6291H35.0728C35.5226 47.6291 35.8873 47.2644 35.8873 46.8146C35.8873 46.3647 35.5226 46 35.0728 46H32.9869C32.9825 45.9736 32.977 45.9472 32.9704 45.9208L32.0705 42.3214L42.2072 30.0202L42.9554 32.5916C39.2015 33.9436 36.5176 37.5365 36.5176 41.7563C36.5176 47.1346 40.8775 51.4946 46.2558 51.4946C51.6341 51.4946 55.9941 47.1346 55.9941 41.7563C55.9941 36.378 51.6341 32.0181 46.2558 32.0181C45.6655 32.0181 45.0875 32.0706 44.5261 32.1712L41.9821 23.4284H44.2171C44.667 23.4284 45.0317 23.0637 45.0317 22.6139C45.0317 22.164 44.667 21.7993 44.2171 21.7993H41.1475ZM43.5157 34.5172L45.5795 41.6098C45.7051 42.0412 46.1568 42.2889 46.588 42.1628C47.0185 42.037 47.2657 41.5862 47.1404 41.1556L45.0889 34.1055C45.4695 34.0479 45.8592 34.0181 46.2558 34.0181C50.5295 34.0181 53.9941 37.4826 53.9941 41.7563C53.9941 46.03 50.5295 49.4946 46.2558 49.4946C41.9821 49.4946 38.5176 46.03 38.5176 41.7563C38.5176 38.4474 40.5945 35.6235 43.5157 34.5172ZM17.7461 34.0181C19.3107 34.0181 20.767 34.4825 21.9844 35.2809L16.9588 41.3392C16.4182 41.9909 16.8817 42.9777 17.7285 42.9777H25.3885C24.8029 46.6711 21.6042 49.4946 17.7461 49.4946C13.4723 49.4946 10.0078 46.03 10.0078 41.7563C10.0078 37.4826 13.4723 34.0181 17.7461 34.0181ZM19.0648 41.3486H25.4737C25.3719 39.3871 24.5397 37.6189 23.2439 36.3107L19.0648 41.3486ZM24.5257 34.7656C26.2595 36.4473 27.3697 38.7684 27.4759 41.3486H29.86L25.9289 33.0739L24.5257 34.7656ZM27.27 32.1077L41.5314 28.2822L31.3325 40.659L27.27 32.1077Z" fill="#212121"/>
<path fill-rule="evenodd" clip-rule="evenodd" d="M49.356 10.9424L52.7931 5.00526L54.524 6.00729L51.0869 11.9444C51.0483 12.0111 51.0964 12.0945 51.1734 12.0945H52.9369C52.9833 12.0945 53.0287 12.0976 53.0732 12.1036C53.1439 12.1132 53.212 12.1301 53.2768 12.1534C53.5042 12.2354 53.6911 12.3972 53.8073 12.6018C53.9223 12.8042 53.9681 13.0486 53.9158 13.2992L53.2079 16.6846C53.1619 16.9045 53.4577 17.0214 53.5745 16.8295L57.1975 10.8796C57.2381 10.813 57.1902 10.7276 57.1121 10.7276H55.2424C55.2321 10.7276 55.2219 10.7275 55.2117 10.7272C55.1282 10.7247 55.0476 10.7121 54.971 10.6906C54.7208 10.6204 54.5129 10.4558 54.384 10.2409C54.2638 10.0405 54.2123 9.79628 54.2594 9.54424L54.8937 6.14417C54.9349 5.92323 54.6366 5.81278 54.524 6.00729L52.7931 5.00526C54.0318 2.86563 57.3131 4.08062 56.8597 6.51095L56.4462 8.72763H57.1121C58.7506 8.72763 59.7579 10.5204 58.9058 11.9198L55.2827 17.8697C53.9973 19.9808 50.7444 18.6946 51.2503 16.2753L51.7062 14.0945H51.1734C49.5553 14.0945 48.5457 12.342 49.356 10.9424Z" fill="#212121"/>
</svg>
