<svg width="64" height="64" viewBox="0 0 64 64" fill="none" xmlns="http://www.w3.org/2000/svg">
<path fill-rule="evenodd" clip-rule="evenodd" d="M36 15V16H46V15H36ZM35 13C34.4477 13 34 13.4477 34 14V17C34 17.5523 34.4477 18 35 18H47C47.5523 18 48 17.5523 48 17V14C48 13.4477 47.5523 13 47 13H35Z" fill="#212121"/>
<path fill-rule="evenodd" clip-rule="evenodd" d="M18 15V16H28V15H18ZM17 13C16.4477 13 16 13.4477 16 14V17C16 17.5523 16.4477 18 17 18H29C29.5523 18 30 17.5523 30 17V14C30 13.4477 29.5523 13 29 13H17Z" fill="#212121"/>
<path fill-rule="evenodd" clip-rule="evenodd" d="M16 25V45H31V25H16ZM15 23C14.4477 23 14 23.4477 14 24V46C14 46.5523 14.4477 47 15 47H32C32.5523 47 33 46.5523 33 46V24C33 23.4477 32.5523 23 32 23H15Z" fill="#212121"/>
<path fill-rule="evenodd" clip-rule="evenodd" d="M33 25V45H48V25H33ZM32 23C31.4477 23 31 23.4477 31 24V46C31 46.5523 31.4477 47 32 47H49C49.5523 47 50 46.5523 50 46V24C50 23.4477 49.5523 23 49 23H32Z" fill="#212121"/>
<path fill-rule="evenodd" clip-rule="evenodd" d="M19 28V29H28V28H19ZM18 26C17.4477 26 17 26.4477 17 27V30C17 30.5523 17.4477 31 18 31H29C29.5523 31 30 30.5523 30 30V27C30 26.4477 29.5523 26 29 26H18Z" fill="#212121"/>
<path fill-rule="evenodd" clip-rule="evenodd" d="M36 28V29H45V28H36ZM35 26C34.4477 26 34 26.4477 34 27V30C34 30.5523 34.4477 31 35 31H46C46.5523 31 47 30.5523 47 30V27C47 26.4477 46.5523 26 46 26H35Z" fill="#212121"/>
<path fill-rule="evenodd" clip-rule="evenodd" d="M13 25V49H51V25H13ZM12 23C11.4477 23 11 23.4477 11 24V50C11 50.5523 11.4477 51 12 51H52C52.5523 51 53 50.5523 53 50V24C53 23.4477 52.5523 23 52 23H12Z" fill="#212121"/>
<path fill-rule="evenodd" clip-rule="evenodd" d="M16.5 21C16.7761 21 17 20.7761 17 20.5C17 20.2239 16.7761 20 16.5 20C16.2239 20 16 20.2239 16 20.5C16 20.7761 16.2239 21 16.5 21ZM16.5 23C17.8807 23 19 21.8807 19 20.5C19 19.1193 17.8807 18 16.5 18C15.1193 18 14 19.1193 14 20.5C14 21.8807 15.1193 23 16.5 23Z" fill="#212121"/>
<path fill-rule="evenodd" clip-rule="evenodd" d="M28.5 21C28.7761 21 29 20.7761 29 20.5C29 20.2239 28.7761 20 28.5 20C28.2239 20 28 20.2239 28 20.5C28 20.7761 28.2239 21 28.5 21ZM28.5 23C29.8807 23 31 21.8807 31 20.5C31 19.1193 29.8807 18 28.5 18C27.1193 18 26 19.1193 26 20.5C26 21.8807 27.1193 23 28.5 23Z" fill="#212121"/>
<path fill-rule="evenodd" clip-rule="evenodd" d="M22.5 21C22.7761 21 23 20.7761 23 20.5C23 20.2239 22.7761 20 22.5 20C22.2239 20 22 20.2239 22 20.5C22 20.7761 22.2239 21 22.5 21ZM22.5 23C23.8807 23 25 21.8807 25 20.5C25 19.1193 23.8807 18 22.5 18C21.1193 18 20 19.1193 20 20.5C20 21.8807 21.1193 23 22.5 23Z" fill="#212121"/>
<path fill-rule="evenodd" clip-rule="evenodd" d="M35.5 21C35.7761 21 36 20.7761 36 20.5C36 20.2239 35.7761 20 35.5 20C35.2239 20 35 20.2239 35 20.5C35 20.7761 35.2239 21 35.5 21ZM35.5 23C36.8807 23 38 21.8807 38 20.5C38 19.1193 36.8807 18 35.5 18C34.1193 18 33 19.1193 33 20.5C33 21.8807 34.1193 23 35.5 23Z" fill="#212121"/>
<path fill-rule="evenodd" clip-rule="evenodd" d="M41.5 21C41.7761 21 42 20.7761 42 20.5C42 20.2239 41.7761 20 41.5 20C41.2239 20 41 20.2239 41 20.5C41 20.7761 41.2239 21 41.5 21ZM41.5 23C42.8807 23 44 21.8807 44 20.5C44 19.1193 42.8807 18 41.5 18C40.1193 18 39 19.1193 39 20.5C39 21.8807 40.1193 23 41.5 23Z" fill="#212121"/>
<path fill-rule="evenodd" clip-rule="evenodd" d="M47.5 21C47.7761 21 48 20.7761 48 20.5C48 20.2239 47.7761 20 47.5 20C47.2239 20 47 20.2239 47 20.5C47 20.7761 47.2239 21 47.5 21ZM47.5 23C48.8807 23 50 21.8807 50 20.5C50 19.1193 48.8807 18 47.5 18C46.1193 18 45 19.1193 45 20.5C45 21.8807 46.1193 23 47.5 23Z" fill="#212121"/>
<path fill-rule="evenodd" clip-rule="evenodd" d="M49.356 10.9424L52.7931 5.00526C54.0317 2.86563 57.3131 4.08062 56.8597 6.51095L56.4462 8.72763H57.1121C58.7506 8.72763 59.7579 10.5204 58.9058 11.9198L55.2827 17.8697C53.9973 19.9808 50.7444 18.6946 51.2503 16.2753L51.7062 14.0945H51.1734C49.5553 14.0945 48.5457 12.342 49.356 10.9424ZM54.524 6.00729L51.0869 11.9444C51.0483 12.0111 51.0964 12.0945 51.1734 12.0945H52.9369C52.9833 12.0945 53.0287 12.0976 53.0732 12.1036C53.1439 12.1132 53.212 12.1301 53.2768 12.1534C53.5042 12.2354 53.6911 12.3972 53.8073 12.6018C53.9223 12.8042 53.9681 13.0486 53.9158 13.2992L53.2079 16.6846C53.1619 16.9045 53.4577 17.0214 53.5745 16.8295L57.1975 10.8796C57.2381 10.813 57.1902 10.7276 57.1121 10.7276H55.2424C55.2321 10.7276 55.2219 10.7275 55.2117 10.7272C55.1282 10.7247 55.0476 10.7121 54.971 10.6906C54.7208 10.6204 54.5129 10.4558 54.384 10.2409C54.2638 10.0405 54.2123 9.79628 54.2594 9.54424L54.8937 6.14417C54.9349 5.92323 54.6366 5.81278 54.524 6.00729ZM15 51V52H17V51H15ZM14 49C13.4477 49 13 49.4477 13 50V53C13 53.5523 13.4477 54 14 54H18C18.5523 54 19 53.5523 19 53V50C19 49.4477 18.5523 49 18 49H14ZM47 51V52H49V51H47ZM46 49C45.4477 49 45 49.4477 45 50V53C45 53.5523 45.4477 54 46 54H50C50.5523 54 51 53.5523 51 53V50C51 49.4477 50.5523 49 50 49H46ZM12 16H49V18H13V23H51V21H53V24C53 24.5523 52.5523 25 52 25H12C11.4477 25 11 24.5523 11 24V17C11 16.4477 11.4477 16 12 16Z" fill="#212121"/>
</svg>
