<svg width="64" height="64" viewBox="0 0 64 64" fill="none" xmlns="http://www.w3.org/2000/svg">
<path fill-rule="evenodd" clip-rule="evenodd" d="M10.5299 14.2379L9.89175 17.2903C9.4089 19.5997 12.5139 20.8274 13.7409 18.8123L17.5093 12.6238H26.7084C28.9175 12.6238 30.7084 14.4146 30.7084 16.6238V21.6579H32.7084V16.6238C32.7084 13.3101 30.0221 10.6238 26.7084 10.6238H18.1853C18.0517 9.64229 17.2248 8.79878 16.101 8.79878H15.2631L15.8399 5.70717C16.2726 3.38736 13.1404 2.2275 11.9581 4.26992L8.01225 11.0858C7.20201 12.4854 8.21148 14.2379 9.82965 14.2379H10.5299ZM11.8494 17.6996C11.8264 17.8096 11.9743 17.868 12.0327 17.7721L16.1864 10.9508C16.2269 10.8842 16.179 10.7988 16.101 10.7988H12.9759C12.9133 10.7988 12.8661 10.742 12.8776 10.6804L13.8738 5.34039C13.8944 5.22992 13.7452 5.17469 13.6889 5.27195L9.74312 12.0878C9.70453 12.1545 9.75262 12.2379 9.82965 12.2379H12.8683C12.9318 12.2379 12.9792 12.2963 12.9662 12.3584L11.8494 17.6996Z" fill="#212121"/>
<path d="M46.8988 27.9665V51.3979C46.8988 55.2639 43.7648 58.3979 39.8988 58.3979H23.9024C20.0364 58.3979 16.9024 55.2639 16.9024 51.3979V27.9665C16.9024 27.4143 16.4547 26.9665 15.9024 26.9665C15.3501 26.9665 14.9024 27.4143 14.9024 27.9665C14.9024 27.9665 14.9024 34.6912 14.9024 39C14.9024 43.8417 14.9024 51.3979 14.9024 51.3979C14.9024 56.3684 18.9318 60.3979 23.9024 60.3979H39.8988C44.8693 60.3979 48.8988 56.3684 48.8988 51.3979V27.9665C48.8988 27.4143 48.4511 26.9665 47.8988 26.9665C47.3465 26.9665 46.8988 27.4143 46.8988 27.9665Z" fill="#212121"/>
<path fill-rule="evenodd" clip-rule="evenodd" d="M19.6836 34.0756V37.0242V51.0959C19.6836 51.5473 19.8363 51.9854 20.1168 52.339L21.4346 54C22.2354 55.0092 23.7674 55.0092 24.5682 54L25.886 52.339C26.1665 51.9854 26.3192 51.5473 26.3192 51.0959V34.0756C26.3192 32.9711 25.4238 32.0756 24.3192 32.0756H21.6836C20.579 32.0756 19.6836 32.9711 19.6836 34.0756ZM24.3192 34.0756H21.6836V51.0959L23.0014 52.7569L24.3192 51.0959V34.0756Z" fill="#212121"/>
<path fill-rule="evenodd" clip-rule="evenodd" d="M28.5 34.0756V51.0959C28.5 51.5473 28.6527 51.9854 28.9332 52.339L30.2511 54C31.0518 55.0092 32.5839 55.0092 33.3846 54L34.7024 52.339C34.983 51.9854 35.1356 51.5473 35.1356 51.0959V34.0756C35.1356 32.9711 34.2402 32.0756 33.1356 32.0756H30.5C29.3954 32.0756 28.5 32.9711 28.5 34.0756ZM33.1356 34.0756H30.5V51.0959L31.8178 52.7569L33.1356 51.0959V34.0756Z" fill="#212121"/>
<path fill-rule="evenodd" clip-rule="evenodd" d="M37.3644 34.0756V51.0959C37.3644 51.5473 37.517 51.9854 37.7976 52.339L39.1154 54C39.9161 55.0092 41.4482 55.0092 42.2489 54L43.5668 52.339C43.8473 51.9854 44 51.5473 44 51.0959V34.0756C44 32.9711 43.1046 32.0756 42 32.0756H39.3644C38.2598 32.0756 37.3644 32.9711 37.3644 34.0756ZM42 34.0756H39.3644V51.0959L40.6822 52.7569L42 51.0959V34.0756Z" fill="#212121"/>
<path fill-rule="evenodd" clip-rule="evenodd" d="M16.643 39.3345L15.6286 38.9287L16.3714 37.0718L17.3858 37.4775C18.1011 37.7636 18.8989 37.7636 19.6142 37.4775L20.6286 37.0718L21.3714 38.9287L20.357 39.3345C19.1649 39.8113 17.8351 39.8113 16.643 39.3345Z" fill="#212121"/>
<path fill-rule="evenodd" clip-rule="evenodd" d="M28.4051 38.4889C27.6731 38.2254 26.8673 38.2565 26.1578 38.5758L25.4104 38.9122L24.5896 37.0883L25.3371 36.752C26.5196 36.2199 27.8625 36.1679 29.0825 36.6071L30.3387 37.0594L29.6613 38.9411L28.4051 38.4889Z" fill="#212121"/>
<path fill-rule="evenodd" clip-rule="evenodd" d="M33.7639 39.0002L33.5528 38.8947L34.4472 37.1058L34.6584 37.2114C35.5029 37.6337 36.4971 37.6337 37.3416 37.2114L37.5528 37.1058L38.4472 38.8947L38.2361 39.0002C36.8284 39.7041 35.1716 39.7041 33.7639 39.0002Z" fill="#212121"/>
<path fill-rule="evenodd" clip-rule="evenodd" d="M46.9708 38.6656C46.1003 38.3174 45.1171 38.3962 44.3131 38.8785L43.5145 39.3577L42.4855 37.6427L43.2841 37.1636C44.6241 36.3596 46.2628 36.2283 47.7136 36.8086L48.3714 37.0718L47.6286 38.9287L46.9708 38.6656Z" fill="#212121"/>
<path fill-rule="evenodd" clip-rule="evenodd" d="M22 28.0002C22 24.1343 25.134 21.0002 29 21.0002H32C32.5523 21.0002 33 21.448 33 22.0002C33 22.5525 32.5523 23.0002 32 23.0002H29C26.2386 23.0002 24 25.2388 24 28.0002V33.0002C24 33.5525 23.5523 34.0002 23 34.0002C22.4477 34.0002 22 33.5525 22 33.0002V28.0002Z" fill="#212121"/>
<path fill-rule="evenodd" clip-rule="evenodd" d="M42 28.0002C42 24.1343 38.866 21.0002 35 21.0002H32C31.4477 21.0002 31 21.448 31 22.0002C31 22.5525 31.4477 23.0002 32 23.0002H35C37.7614 23.0002 40 25.2388 40 28.0002V33.0002C40 33.5525 40.4477 34.0002 41 34.0002C41.5523 34.0002 42 33.5525 42 33.0002V28.0002Z" fill="#212121"/>
<path fill-rule="evenodd" clip-rule="evenodd" d="M31 33.0002V21.0002H33V33.0002H31Z" fill="#212121"/>
</svg>
