<svg width="64" height="64" viewBox="0 0 64 64" fill="none" xmlns="http://www.w3.org/2000/svg">
<path fill-rule="evenodd" clip-rule="evenodd" d="M54.5743 4.15797L51.1372 10.0951C50.3269 11.4947 51.3365 13.2472 52.9546 13.2472H53.4874L53.0314 15.428C52.5256 17.8473 55.7784 19.1335 57.0639 17.0224L60.687 11.0725C61.5391 9.6731 60.5318 7.88034 58.8933 7.88034H58.2274L58.6409 5.66366C59.0943 3.23333 55.8129 2.01834 54.5743 4.15797ZM52.8681 11.0971L56.3051 5.16C56.4178 4.96549 56.7161 5.07594 56.6748 5.29688L56.0406 8.69695C55.9935 8.94899 56.045 9.19316 56.1652 9.39359C56.2941 9.60852 56.502 9.77315 56.7522 9.8433C56.8288 9.86477 56.9094 9.87739 56.9929 9.87988C56.9995 9.88008 57.0061 9.88021 57.0127 9.88028C57.0163 9.88032 57.02 9.88034 57.0236 9.88034H58.8933C58.9713 9.88034 59.0193 9.96571 58.9787 10.0323L55.3557 15.9822C55.2388 16.1741 54.9431 16.0572 54.9891 15.8373L55.6969 12.4519C55.7493 12.2013 55.7035 11.957 55.5885 11.7545C55.4722 11.5499 55.2854 11.3882 55.058 11.3061C54.9932 11.2828 54.9251 11.2659 54.8544 11.2563C54.8099 11.2503 54.7645 11.2472 54.7181 11.2472H52.9546C52.8776 11.2472 52.8295 11.1638 52.8681 11.0971Z" fill="#0B0D0E"/>
<path fill-rule="evenodd" clip-rule="evenodd" d="M21.3322 48.2417C21.3322 49.9364 19.9584 51.3101 18.2637 51.3101C16.5691 51.3101 15.1953 49.9364 15.1953 48.2417C15.1953 46.5471 16.5691 45.1733 18.2637 45.1733C19.9584 45.1733 21.3322 46.5471 21.3322 48.2417ZM18.2637 49.3101C18.8538 49.3101 19.3322 48.8318 19.3322 48.2417C19.3322 47.6516 18.8538 47.1733 18.2637 47.1733C17.6737 47.1733 17.1953 47.6516 17.1953 48.2417C17.1953 48.8318 17.6737 49.3101 18.2637 49.3101Z" fill="#0B0D0E"/>
<path fill-rule="evenodd" clip-rule="evenodd" d="M43.7579 51.3101C45.4525 51.3101 46.8263 49.9364 46.8263 48.2417C46.8263 46.5471 45.4525 45.1733 43.7579 45.1733C42.0632 45.1733 40.6895 46.5471 40.6895 48.2417C40.6895 49.9364 42.0632 51.3101 43.7579 51.3101ZM44.8263 48.2417C44.8263 48.8318 44.348 49.3101 43.7579 49.3101C43.1678 49.3101 42.6895 48.8318 42.6895 48.2417C42.6895 47.6516 43.1678 47.1733 43.7579 47.1733C44.348 47.1733 44.8263 47.6516 44.8263 48.2417Z" fill="#0B0D0E"/>
<path fill-rule="evenodd" clip-rule="evenodd" d="M40 21.9999V19.8098C40 19.2904 39.7979 18.7913 39.4365 18.4182L32.8394 11.6084C32.4627 11.2195 31.9444 10.9999 31.4029 10.9999H11C9.89543 10.9999 9 11.8954 9 12.9999V40.9999C9 41.5109 9.19162 41.9771 9.50693 42.3307C9.18677 42.8079 9 43.3821 9 43.9999V44.9999C9 46.3182 9.85032 47.4379 11.0324 47.8405C11.0252 47.9733 11.0215 48.107 11.0215 48.2417C11.0215 52.2412 14.2637 55.4834 18.2632 55.4834C22.2627 55.4834 25.505 52.2412 25.505 48.2417C25.505 48.1608 25.5036 48.0802 25.501 47.9999H36.5196C36.517 48.0802 36.5156 48.1608 36.5156 48.2417C36.5156 52.2412 39.7579 55.4834 43.7574 55.4834C47.7569 55.4834 50.9991 52.2412 50.9991 48.2417C50.9991 48.1608 50.9978 48.0802 50.9951 47.9999H51C53.2091 47.9999 55 46.2091 55 43.9999V35.7798C55 35.4398 54.9566 35.1011 54.871 34.7721L52.1302 24.2441C51.7862 22.9224 50.5928 21.9999 49.227 21.9999H40ZM13.027 47.9999C13.0593 47.2869 13.2342 46.6109 13.5237 45.9999C14.364 44.2265 16.1704 42.9999 18.2632 42.9999C20.3561 42.9999 22.1625 44.2265 23.0028 45.9999C23.2923 46.6109 23.4671 47.2869 23.4995 47.9999C23.5031 48.0801 23.505 48.1607 23.505 48.2417C23.505 51.1366 21.1582 53.4834 18.2632 53.4834C15.3683 53.4834 13.0215 51.1366 13.0215 48.2417C13.0215 48.1607 13.0233 48.0801 13.027 47.9999ZM11.4346 45.8249C11.818 44.7416 12.4518 43.7768 13.2665 42.9999H12C11.4477 42.9999 11 43.4477 11 43.9999V44.9999C11 45.3424 11.1721 45.6446 11.4346 45.8249ZM38 40.9999H11V12.9999H31.4029L38 19.8098V40.9999ZM25.1513 45.9999C24.7759 44.8455 24.1183 43.8184 23.2599 42.9999H38V43.8484C37.5098 44.4898 37.1244 45.2155 36.8693 45.9999H25.1513ZM38.5211 47.9999C38.5813 46.6744 39.1337 45.4772 40 44.5868C40.9523 43.608 42.2838 42.9999 43.7574 42.9999C45.8502 42.9999 47.6566 44.2265 48.4969 45.9999C48.7864 46.6109 48.9613 47.2869 48.9936 47.9999C48.9973 48.0801 48.9991 48.1607 48.9991 48.2417C48.9991 51.1366 46.6523 53.4834 43.7574 53.4834C40.8624 53.4834 38.5156 51.1366 38.5156 48.2417C38.5156 48.1607 38.5175 48.0801 38.5211 47.9999ZM43.7574 40.9999C46.9744 40.9999 49.7015 43.0977 50.6454 45.9999H51C52.1046 45.9999 53 45.1045 53 43.9999V42.9999C51.8954 42.9999 51 42.1045 51 40.9999C51 39.8954 51.8954 38.9999 53 38.9999V36.9999H44V25.9999H50.5207L50.1947 24.748C50.0801 24.3074 49.6823 23.9999 49.227 23.9999H40V42.0497C41.0954 41.3836 42.3816 40.9999 43.7574 40.9999ZM51.0413 27.9999L52.8636 34.9999H46V27.9999H51.0413Z" fill="#0B0D0E"/>
</svg>
