<svg width="65" height="64" viewBox="0 0 65 64" fill="none" xmlns="http://www.w3.org/2000/svg">
<path fill-rule="evenodd" clip-rule="evenodd" d="M22.9576 13.3148L14.7838 13.3148L12.9615 54.3148L24.7798 54.3148L22.9576 13.3148ZM14.7838 11.3148C13.7137 11.3148 12.8332 12.157 12.7857 13.226L10.9635 54.226C10.9129 55.3643 11.8221 56.3148 12.9615 56.3148H24.7798C25.9192 56.3148 26.8284 55.3643 26.7778 54.226L24.9556 13.226C24.9081 12.157 24.0276 11.3148 22.9576 11.3148H14.7838Z" fill="#0B0D0E"/>
<path fill-rule="evenodd" clip-rule="evenodd" d="M23.5699 26.3148L24.8699 56.3148H53.325C54.4469 56.3148 55.3494 55.3921 55.3245 54.2704L54.9049 35.3561C54.8847 34.4478 54.2549 33.6672 53.3714 33.4555L23.5699 26.3148ZM25.6828 28.8777L26.7851 54.3148H53.325L52.9053 35.4005L25.6828 28.8777Z" fill="#0B0D0E"/>
<path fill-rule="evenodd" clip-rule="evenodd" d="M32.8707 39.9144V43.9144H36.8707V39.9144H32.8707ZM31.8707 37.9144C31.3184 37.9144 30.8707 38.3621 30.8707 38.9144V44.9144C30.8707 45.4667 31.3184 45.9144 31.8707 45.9144H37.8707C38.4229 45.9144 38.8707 45.4667 38.8707 44.9144V38.9144C38.8707 38.3621 38.4229 37.9144 37.8707 37.9144H31.8707Z" fill="#0B0D0E"/>
<path fill-rule="evenodd" clip-rule="evenodd" d="M42.8707 39.9144V43.9144H46.8707V39.9144H42.8707ZM41.8707 37.9144C41.3184 37.9144 40.8707 38.3621 40.8707 38.9144V44.9144C40.8707 45.4667 41.3184 45.9144 41.8707 45.9144H47.8707C48.4229 45.9144 48.8707 45.4667 48.8707 44.9144V38.9144C48.8707 38.3621 48.4229 37.9144 47.8707 37.9144H41.8707Z" fill="#0B0D0E"/>
<path fill-rule="evenodd" clip-rule="evenodd" d="M53.9021 11.2271C54.8587 11.7794 56.0819 11.4516 56.6341 10.495C57.1864 9.53844 56.8587 8.31526 55.9021 7.76297C54.9455 7.21069 53.7223 7.53844 53.17 8.49502C52.6178 9.45161 52.9455 10.6748 53.9021 11.2271ZM58.3662 11.495C57.2616 13.4082 54.8153 14.0637 52.9021 12.9591C50.9889 11.8546 50.3334 9.40819 51.438 7.49502C52.5426 5.58185 54.9889 4.92635 56.9021 6.03092C58.8153 7.13549 59.4708 9.58185 58.3662 11.495Z" fill="#0B0D0E"/>
<path fill-rule="evenodd" clip-rule="evenodd" d="M63.2303 14.7414C62.9541 15.2197 62.3425 15.3836 61.8643 15.1075L59.5236 13.7561C59.0453 13.4799 58.8814 12.8683 59.1575 12.39C59.4337 11.9118 60.0453 11.7479 60.5236 12.024L62.8643 13.3754C63.3425 13.6516 63.5064 14.2631 63.2303 14.7414Z" fill="#0B0D0E"/>
<path fill-rule="evenodd" clip-rule="evenodd" d="M49.7989 6.98649C49.5227 7.46479 48.9112 7.62866 48.4329 7.35252L46.0922 6.00113C45.6139 5.72498 45.45 5.11339 45.7262 4.6351C46.0023 4.15681 46.6139 3.99293 47.0922 4.26908L49.4329 5.62047C49.9112 5.89661 50.075 6.5082 49.7989 6.98649Z" fill="#0B0D0E"/>
<path fill-rule="evenodd" clip-rule="evenodd" d="M49.2594 11.087C49.4024 11.6205 49.0858 12.1688 48.5523 12.3118L45.9416 13.0113C45.4082 13.1543 44.8598 12.8377 44.7169 12.3042C44.5739 11.7707 44.8905 11.2224 45.424 11.0795L48.0347 10.3799C48.5681 10.237 49.1165 10.5536 49.2594 11.087Z" fill="#0B0D0E"/>
<path fill-rule="evenodd" clip-rule="evenodd" d="M55.8761 14.9079C56.4096 14.7649 56.9579 15.0815 57.1008 15.615L57.8004 18.2257C57.9433 18.7591 57.6267 19.3075 57.0933 19.4504C56.5598 19.5933 56.0115 19.2768 55.8685 18.7433L55.169 16.1326C55.0261 15.5991 55.3426 15.0508 55.8761 14.9079Z" fill="#0B0D0E"/>
<path fill-rule="evenodd" clip-rule="evenodd" d="M51.7777 14.3677C52.256 14.6439 52.4199 15.2555 52.1437 15.7338L50.7923 18.0744C50.5162 18.5527 49.9046 18.7166 49.4263 18.4405C48.948 18.1643 48.7841 17.5527 49.0603 17.0744L50.4117 14.7338C50.6878 14.2555 51.2994 14.0916 51.7777 14.3677Z" fill="#0B0D0E"/>
</svg>
