<svg width="64" height="64" viewBox="0 0 64 64" fill="none" xmlns="http://www.w3.org/2000/svg">
<path d="M51.5051 5.12908L51.507 5.13235C52.2399 6.38747 52.1401 7.89997 51.3112 9.03949C50.8413 9.61373 50.7747 10.4325 51.0382 11.1095L51.3538 11.9201C51.5203 12.3479 51.2453 12.8015 50.7758 12.9486C50.7516 12.9538 50.7296 12.9587 50.7093 12.9632L50.7072 12.9637L50.7056 12.9641C50.6021 12.9869 50.5431 13 50.4605 13C50.0741 13 49.7086 12.7869 49.5664 12.4482L49.2506 11.637C48.7843 10.4961 48.9853 9.15151 49.7161 8.18435C50.2211 7.51897 50.2555 6.57133 49.8356 5.85057L49.4512 5.1623C49.2211 4.74302 49.4 4.27204 49.862 4.08587C50.3512 3.88872 50.9013 4.04146 51.1189 4.43744L51.1195 4.4386L51.5051 5.12908Z" fill="#0B0D0E"/>
<path d="M57.2545 11.637L57.2556 11.6398L57.5662 12.4482C57.7066 12.7868 58.0675 13 58.4488 13C58.5304 13 58.5887 12.9869 58.6908 12.9641L58.6924 12.9637C58.7131 12.9591 58.7354 12.954 58.7601 12.9486C59.2237 12.8015 59.495 12.3479 59.3306 11.9201L59.0191 11.1095C58.7588 10.4319 58.8249 9.61225 59.2899 9.03791C60.1413 7.89902 60.2394 6.35804 59.5175 5.13404L59.5146 5.12908L59.1339 4.4386L59.1333 4.43744C58.9185 4.04146 58.3755 3.88872 57.8927 4.08587C57.4367 4.27204 57.2601 4.74302 57.4871 5.1623L57.8665 5.85057C58.2812 6.57143 58.2471 7.51918 57.7485 8.18456L57.7435 8.19121C56.9614 9.15246 56.7929 10.4928 57.2545 11.637Z" fill="#0B0D0E"/>
<path d="M53.2478 11.6361L53.2491 11.639L53.5605 12.448C53.7012 12.7868 54.0629 13 54.4452 13C54.5273 13 54.5858 12.9869 54.6893 12.9637L54.7572 12.9486C55.2217 12.8015 55.4938 12.3475 55.329 11.9194L55.0168 11.1083C54.7558 10.4303 54.8221 9.61002 55.2883 9.0353C56.1416 7.89566 56.24 6.35378 55.5163 5.12886L55.5135 5.124L55.1356 4.43951C54.8801 4.05288 54.3223 3.88875 53.8529 4.08C53.3958 4.2663 53.2188 4.73769 53.4464 5.15725L53.8268 5.84597C54.2423 6.5672 54.2082 7.51536 53.7086 8.18118C52.9855 9.14908 52.7866 10.4944 53.2478 11.6361Z" fill="#0B0D0E"/>
<path fill-rule="evenodd" clip-rule="evenodd" d="M24.4089 21.0656C23.8566 21.0656 23.4089 21.5133 23.4089 22.0656V28.0656C23.4089 28.6178 23.8566 29.0656 24.4089 29.0656H30.4089C30.9612 29.0656 31.4089 28.6178 31.4089 28.0656V22.0656C31.4089 21.5133 30.9612 21.0656 30.4089 21.0656H24.4089ZM25.2089 22.8656V27.2656H29.6089V22.8656H25.2089Z" fill="#0B0D0E"/>
<path fill-rule="evenodd" clip-rule="evenodd" d="M24.4089 31.0656C23.8566 31.0656 23.4089 31.5133 23.4089 32.0656V38.0656C23.4089 38.6178 23.8566 39.0656 24.4089 39.0656H30.4089C30.9612 39.0656 31.4089 38.6178 31.4089 38.0656V32.0656C31.4089 31.5133 30.9612 31.0656 30.4089 31.0656H24.4089ZM25.2089 32.8656V37.2656H29.6089V32.8656H25.2089Z" fill="#0B0D0E"/>
<path fill-rule="evenodd" clip-rule="evenodd" d="M34.4089 21.0656C33.8566 21.0656 33.4089 21.5133 33.4089 22.0656V28.0656C33.4089 28.6178 33.8566 29.0656 34.4089 29.0656H40.4089C40.9612 29.0656 41.4089 28.6178 41.4089 28.0656V22.0656C41.4089 21.5133 40.9612 21.0656 40.4089 21.0656H34.4089ZM35.2089 22.8656V27.2656H39.6089V22.8656H35.2089Z" fill="#0B0D0E"/>
<path fill-rule="evenodd" clip-rule="evenodd" d="M34.4089 31.0656C33.8566 31.0656 33.4089 31.5133 33.4089 32.0656V38.0656C33.4089 38.6178 33.8566 39.0656 34.4089 39.0656H40.4089C40.9612 39.0656 41.4089 38.6178 41.4089 38.0656V32.0656C41.4089 31.5133 40.9612 31.0656 40.4089 31.0656H34.4089ZM35.2089 32.8656V37.2656H39.6089V32.8656H35.2089Z" fill="#0B0D0E"/>
<path fill-rule="evenodd" clip-rule="evenodd" d="M50.7265 17.6643C50.4658 18.1512 49.8597 18.3345 49.3729 18.0737L46.3937 16.4782V56.146C46.3937 56.6983 45.946 57.146 45.3937 57.146H19.4241C18.8718 57.146 18.4241 56.6983 18.4241 56.146V16.4938L15.4414 18.0756C14.9535 18.3344 14.3482 18.1486 14.0894 17.6607C13.8306 17.1728 14.0164 16.5675 14.5043 16.3087L19.1338 13.8536L30.6945 7.64431L31.9332 6.9744C32.2288 6.81456 32.5848 6.81384 32.881 6.97247L50.3171 16.3106C50.804 16.5714 50.9873 17.1774 50.7265 17.6643ZM24.1594 13.4522L20.4241 15.4332V55.146H27.5007V46.0723C27.5007 45.52 27.9484 45.0723 28.5007 45.0723H36.3171C36.8694 45.0723 37.3171 45.52 37.3171 46.0723V55.146H44.3937V15.4308L32.4089 8.99374L31.6436 9.40475L24.1666 13.4484L24.1594 13.4522ZM29.5007 55.1459V47.0723H35.3171V55.1459H29.5007Z" fill="#0B0D0E"/>
</svg>
