<svg width="64" height="64" viewBox="0 0 64 64" fill="none" xmlns="http://www.w3.org/2000/svg">
<path fill-rule="evenodd" clip-rule="evenodd" d="M50.6277 14.7852C53.3027 16.8466 55.9763 15.7741 57.8504 13.9014C60.6807 11.0731 60.1247 3.87803 60.1247 3.87803C60.1247 3.87803 52.93 3.31699 50.0998 6.14528C48.2249 8.01882 47.1504 10.6933 49.2136 13.3709L48.3822 14.2023C47.9917 14.5928 47.9917 15.226 48.3822 15.6165C48.7728 16.007 49.4059 16.007 49.7964 15.6165L50.6277 14.7852ZM53.9517 13.8882C54.7293 13.7955 55.6024 13.3204 56.4367 12.4867C56.8354 12.0882 57.2031 11.4372 57.4963 10.528C57.7843 9.63542 57.9599 8.62142 58.0588 7.63048C58.1231 6.98558 58.153 6.37184 58.1638 5.83751C57.6295 5.84799 57.0157 5.87739 56.3708 5.9413C55.3798 6.03949 54.3656 6.21438 53.4728 6.50169C52.5634 6.79433 51.9122 7.16157 51.5135 7.55999C50.6792 8.3937 50.2034 9.26643 50.1101 10.0439C50.0489 10.5539 50.1299 11.1887 50.6443 11.9402L53.5849 8.99951C53.9754 8.60898 54.6086 8.60898 54.9991 8.9995C55.3896 9.39002 55.3896 10.0232 54.9991 10.4137L52.0584 13.3545C52.8084 13.8678 53.4423 13.949 53.9517 13.8882Z" fill="#0B0D0E"/>
<path fill-rule="evenodd" clip-rule="evenodd" d="M23 21C23 20.4477 23.4477 20 24 20H30C30.5523 20 31 20.4477 31 21V27C31 27.5523 30.5523 28 30 28H24C23.4477 28 23 27.5523 23 27V21ZM25 26V22H29V26H25Z" fill="#0B0D0E"/>
<path fill-rule="evenodd" clip-rule="evenodd" d="M24 30C23.4477 30 23 30.4477 23 31V37C23 37.5523 23.4477 38 24 38H30C30.5523 38 31 37.5523 31 37V31C31 30.4477 30.5523 30 30 30H24ZM25 32V36H29V32H25Z" fill="#0B0D0E"/>
<path fill-rule="evenodd" clip-rule="evenodd" d="M33 21C33 20.4477 33.4477 20 34 20H40C40.5523 20 41 20.4477 41 21V27C41 27.5523 40.5523 28 40 28H34C33.4477 28 33 27.5523 33 27V21ZM35 26V22H39V26H35Z" fill="#0B0D0E"/>
<path fill-rule="evenodd" clip-rule="evenodd" d="M34 30C33.4477 30 33 30.4477 33 31V37C33 37.5523 33.4477 38 34 38H40C40.5523 38 41 37.5523 41 37V31C41 30.4477 40.5523 30 40 30H34ZM35 32V36H39V32H35Z" fill="#0B0D0E"/>
<path fill-rule="evenodd" clip-rule="evenodd" d="M23 11V14H20C18.8954 14 18 14.8954 18 16V54C18 55.1046 18.8954 56 20 56H44C45.1046 56 46 55.1046 46 54V16C46 14.8954 45.1046 14 44 14H41V11C41 9.89542 40.1046 8.99999 39 8.99999H25C23.8954 8.99999 23 9.89542 23 11ZM39 11H25V14H39L39 11ZM39 54H44V16H20V54H25V44C25 42.8954 25.8954 42 27 42H37C38.1046 42 39 42.8954 39 44V54ZM27 54H37V44H27V54Z" fill="#0B0D0E"/>
</svg>
