<svg width="64" height="64" viewBox="0 0 64 64" fill="none" xmlns="http://www.w3.org/2000/svg">
<path fill-rule="evenodd" clip-rule="evenodd" d="M54.5822 4.09706L51.1451 10.0342C50.3348 11.4338 51.3444 13.1863 52.9625 13.1863H53.4953L53.0393 15.3671C52.5335 17.7864 55.7863 19.0726 57.0718 16.9615L60.6948 11.0116C61.547 9.61218 60.5396 7.81943 58.9012 7.81943L58.2353 7.81943L58.6488 5.60275C59.1022 3.17242 55.8208 1.95743 54.5822 4.09706ZM56.313 5.09909C56.4256 4.90458 56.724 5.01503 56.6827 5.23597L56.0484 8.63604C56.0014 8.88808 56.0529 9.13225 56.1731 9.33268C56.302 9.5476 56.5099 9.71224 56.7601 9.78238C56.8367 9.80386 56.9173 9.81648 57.0008 9.81897C57.011 9.81927 57.0212 9.81943 57.0315 9.81943L58.9012 9.81943C58.9792 9.81943 59.0272 9.9048 58.9866 9.97144L55.3636 15.9213C55.2467 16.1132 54.951 15.9963 54.997 15.7764L55.7048 12.3909C55.7572 12.1404 55.7114 11.896 55.5963 11.6936C55.4801 11.489 55.2933 11.3272 55.0659 11.2452C55.0011 11.2219 54.933 11.205 54.8623 11.1954C54.8178 11.1894 54.7723 11.1863 54.726 11.1863H52.9625C52.8855 11.1863 52.8374 11.1029 52.876 11.0362L56.313 5.09909Z" fill="#212121"/>
<path fill-rule="evenodd" clip-rule="evenodd" d="M15 40C15 39.4477 15.4477 39 16 39H22C22.5523 39 23 39.4477 23 40L23 46C23 46.5523 22.5523 47 22 47H16C15.4477 47 15 46.5523 15 46L15 40ZM17 45L17 41H21L21 45H17Z" fill="#212121"/>
<path fill-rule="evenodd" clip-rule="evenodd" d="M26 39C25.4477 39 25 39.4477 25 40L25 46C25 46.5523 25.4477 47 26 47H32C32.5523 47 33 46.5523 33 46V40C33 39.4477 32.5523 39 32 39H26ZM27 41L27 45H31V41H27Z" fill="#212121"/>
<path fill-rule="evenodd" clip-rule="evenodd" d="M35 40C35 39.4477 35.4477 39 36 39H42C42.5523 39 43 39.4477 43 40V46C43 46.5523 42.5523 47 42 47H36C35.4477 47 35 46.5523 35 46V40ZM37 45V41H41V45H37Z" fill="#212121"/>
<path fill-rule="evenodd" clip-rule="evenodd" d="M52.8889 54C53.5025 54 54 53.5523 54 53V25C54 24.4477 53.5025 24 52.8889 24H34V12C34 11.4477 33.5523 11 33 11L26 11C25.4477 11 25 11.4477 25 12L25 33H23L23 12C23 11.4477 22.5523 11 22 11H15C14.4477 11 14 11.4477 14 12L14 33H10C9.44772 33 9 33.4477 9 34L9 53C9 53.5523 9.44771 54 10 54L52.8889 54ZM34 26H52V52H49V34C49 33.4477 48.5523 33 48 33H34V26ZM47 35V52L11 52L11 35L47 35ZM32 33H27V13H32L32 33ZM21 33L21 13H16L16 33H21Z" fill="#212121"/>
</svg>
