<svg width="64" height="64" viewBox="0 0 64 64" fill="none" xmlns="http://www.w3.org/2000/svg">
<path fill-rule="evenodd" clip-rule="evenodd" d="M21.0225 31C21.0225 30.4477 21.4703 30 22.0225 30H28.5225C29.0748 30 29.5225 30.4477 29.5225 31C29.5225 31.5523 29.0748 32 28.5225 32H22.0225C21.4703 32 21.0225 31.5523 21.0225 31ZM32.5225 39C32.5225 38.4477 32.9703 38 33.5225 38H51.5225C52.0748 38 52.5225 38.4477 52.5225 39C52.5225 39.5523 52.0748 40 51.5225 40H33.5225C32.9703 40 32.5225 39.5523 32.5225 39Z" fill="#212121"/>
<path fill-rule="evenodd" clip-rule="evenodd" d="M37.5225 29C37.5225 28.4477 37.9703 28 38.5225 28H46.5225C47.0748 28 47.5225 28.4477 47.5225 29C47.5225 29.5523 47.0748 30 46.5225 30H38.5225C37.9703 30 37.5225 29.5523 37.5225 29Z" fill="#212121"/>
<path fill-rule="evenodd" clip-rule="evenodd" d="M19.5225 22C19.5225 21.4477 19.9703 21 20.5225 21H29.5225C30.0748 21 30.5225 21.4477 30.5225 22C30.5225 22.5523 30.0748 23 29.5225 23H20.5225C19.9703 23 19.5225 22.5523 19.5225 22Z" fill="#212121"/>
<path fill-rule="evenodd" clip-rule="evenodd" d="M37.4903 52L27.9554 36.276C27.671 35.807 27.5206 35.269 27.5206 34.7205V23H22.5206V34.7205C22.5206 35.269 22.3702 35.807 22.0858 36.276L12.5509 52H37.4903ZM21.5206 21C20.9683 21 20.5206 21.4477 20.5206 22V34.7205C20.5206 34.9033 20.4705 35.0826 20.3757 35.239L9.91993 52.4815C9.5158 53.1479 9.9956 54 10.775 54H39.2662C40.0456 54 40.5254 53.1479 40.1212 52.4815L29.6655 35.239C29.5707 35.0826 29.5206 34.9033 29.5206 34.7205V22C29.5206 21.4477 29.0729 21 28.5206 21H21.5206Z" fill="#212121"/>
<path fill-rule="evenodd" clip-rule="evenodd" d="M39.9772 53.7044C40.7937 53.8977 41.6454 54 42.521 54C48.5961 54 53.521 49.0751 53.521 43C53.521 38.336 50.6183 34.35 46.521 32.7499V28L38.521 28.0003V32.7499C35.5537 33.9087 33.213 36.3188 32.1475 39.3315L33.6084 41.7406C34.065 38.4801 36.2688 35.7765 39.2485 34.6129L40.521 34.1159V30.0002L44.521 30V34.1159L45.7934 34.6129C49.1492 35.9234 51.521 39.1872 51.521 43C51.521 47.9706 47.4915 52 42.521 52C41.4682 52 40.4576 51.8192 39.5186 51.487L40.1212 52.4815C40.3763 52.9021 40.2796 53.3968 39.9772 53.7044Z" fill="#212121"/>
<path d="M48.5225 43C48.5225 43.5523 48.0748 44 47.5225 44C46.9703 44 46.5225 43.5523 46.5225 43C46.5225 42.4477 46.9703 42 47.5225 42C48.0748 42 48.5225 42.4477 48.5225 43Z" fill="#212121"/>
<path d="M45.5225 45C45.5225 45.5523 45.0748 46 44.5225 46C43.9703 46 43.5225 45.5523 43.5225 45C43.5225 44.4477 43.9703 44 44.5225 44C45.0748 44 45.5225 44.4477 45.5225 45Z" fill="#212121"/>
<path d="M48.5225 47C48.5225 47.5523 48.0748 48 47.5225 48C46.9703 48 46.5225 47.5523 46.5225 47C46.5225 46.4477 46.9703 46 47.5225 46C48.0748 46 48.5225 46.4477 48.5225 47Z" fill="#212121"/>
<path fill-rule="evenodd" clip-rule="evenodd" d="M47.3551 12.9424L50.7922 7.00526L52.5231 8.00729L49.086 13.9444C49.0474 14.0111 49.0955 14.0945 49.1725 14.0945H50.9361C50.9824 14.0945 51.0279 14.0976 51.0723 14.1036C51.143 14.1132 51.2111 14.1301 51.276 14.1534C51.5034 14.2354 51.6902 14.3972 51.8064 14.6018C51.9214 14.8042 51.9673 15.0486 51.9149 15.2992L51.2071 18.6846C51.1611 18.9045 51.4568 19.0214 51.5736 18.8295L55.1967 12.8796C55.2372 12.813 55.1893 12.7276 55.1113 12.7276H53.2415C53.2312 12.7276 53.221 12.7275 53.2108 12.7272C53.1273 12.7247 53.0468 12.7121 52.9702 12.6906C52.72 12.6204 52.5121 12.4558 52.3832 12.2409C52.263 12.0405 52.2115 11.7963 52.2585 11.5442L52.8928 8.14417C52.934 7.92323 52.6357 7.81278 52.5231 8.00729L50.7922 7.00526C52.0309 4.86563 55.3122 6.08062 54.8589 8.51095L54.4453 10.7276H55.1113C56.7497 10.7276 57.757 12.5204 56.9049 13.9198L53.2819 19.8697C51.9964 21.9808 48.7436 20.6946 49.2494 18.2753L49.7053 16.0945H49.1725C47.5545 16.0945 46.5448 14.342 47.3551 12.9424Z" fill="#212121"/>
</svg>
