<svg width="64" height="64" viewBox="0 0 64 64" fill="none" xmlns="http://www.w3.org/2000/svg">
<path fill-rule="evenodd" clip-rule="evenodd" d="M16 39C15.4477 39 15 39.4477 15 40L15 46C15 46.5523 15.4477 47 16 47L22 47C22.5523 47 23 46.5523 23 46L23 40C23 39.4477 22.5523 39 22 39L16 39ZM17 41L17 45L21 45L21 41L17 41Z" fill="#212121"/>
<path fill-rule="evenodd" clip-rule="evenodd" d="M25 40C25 39.4477 25.4477 39 26 39H32C32.5523 39 33 39.4477 33 40V46C33 46.5523 32.5523 47 32 47H26C25.4477 47 25 46.5523 25 46L25 40ZM27 45L27 41H31V45H27Z" fill="#212121"/>
<path fill-rule="evenodd" clip-rule="evenodd" d="M36 39C35.4477 39 35 39.4477 35 40V46C35 46.5523 35.4477 47 36 47H42C42.5523 47 43 46.5523 43 46V40C43 39.4477 42.5523 39 42 39H36ZM37 41V45H41V41H37Z" fill="#212121"/>
<path fill-rule="evenodd" clip-rule="evenodd" d="M10 54C9.44771 54 9 53.5523 9 53L9 34C9 33.4477 9.44772 33 10 33H14L14 12C14 11.4477 14.4477 11 15 11L22 11C22.5523 11 23 11.4477 23 12L23 33H25L25 12C25 11.4477 25.4477 11 26 11L33 11C33.5523 11 34 11.4477 34 12V24L52.8889 24C53.5025 24 54 24.4477 54 25V53C54 53.5523 53.5025 54 52.8889 54L10 54ZM52 26L34 26V33L48 33C48.5523 33 49 33.4477 49 34V52H52V26ZM47 52V35H11L11 52L47 52ZM32 33L32 13H27V33H32ZM21 13L21 33L16 33L16 13H21Z" fill="#212121"/>
<path fill-rule="evenodd" clip-rule="evenodd" d="M54.12 15.3366C54.4293 15.3223 54.827 15.1568 55.254 14.7301C55.3537 14.6305 55.5272 14.3626 55.6699 13.8032C55.8064 13.2677 55.8741 12.6255 55.8916 11.9641C55.8994 11.6683 55.8969 11.3808 55.8882 11.1126C55.6201 11.1038 55.3326 11.1011 55.0368 11.1087C54.3755 11.1257 53.7333 11.1929 53.1978 11.3291C52.6383 11.4714 52.3703 11.6448 52.2706 11.7444C51.8437 12.1711 51.6779 12.5687 51.6634 12.8781C51.6513 13.1365 51.7264 13.6751 52.5247 14.4741C53.3231 15.2731 53.8615 15.3485 54.12 15.3366ZM51.1101 15.8879C53.2981 18.0777 55.3415 17.4702 56.6676 16.1449C58.4986 14.3151 57.7407 9.26132 57.7407 9.26132C57.7407 9.26132 52.688 8.49971 50.857 10.3296C49.5309 11.6549 48.922 13.6981 51.1101 15.8879Z" fill="#212121"/>
<path fill-rule="evenodd" clip-rule="evenodd" d="M54.1799 12.7665C54.585 13.1419 54.6092 13.7746 54.2339 14.1798L51.7335 16.8789C51.3581 17.2841 50.7255 17.3082 50.3204 16.9329C49.9152 16.5575 49.8911 15.9248 50.2664 15.5196L52.7668 12.8205C53.1421 12.4153 53.7748 12.3912 54.1799 12.7665Z" fill="#212121"/>
<path fill-rule="evenodd" clip-rule="evenodd" d="M58 8H50C49.4477 8 49 8.44771 49 9V17C49 17.5523 49.4477 18 50 18H58C58.5523 18 59 17.5523 59 17V9C59 8.44772 58.5523 8 58 8ZM50 6C48.3431 6 47 7.34315 47 9V17C47 18.6569 48.3431 20 50 20H58C59.6569 20 61 18.6569 61 17V9C61 7.34315 59.6569 6 58 6H50Z" fill="#212121"/>
<path fill-rule="evenodd" clip-rule="evenodd" d="M48 4C48 3.44772 48.4477 3 49 3H59C59.5523 3 60 3.44772 60 4C60 4.55228 59.5523 5 59 5H49C48.4477 5 48 4.55228 48 4Z" fill="#212121"/>
<path fill-rule="evenodd" clip-rule="evenodd" d="M56 5H52V6H56V5ZM50 3V8H58V3H50Z" fill="#212121"/>
</svg>
