<svg width="64" height="64" viewBox="0 0 64 64" fill="none" xmlns="http://www.w3.org/2000/svg">
<path fill-rule="evenodd" clip-rule="evenodd" d="M9.89175 17.2901L10.5299 14.2377H9.82965C8.21148 14.2377 7.20201 12.4851 8.01225 11.0855L11.9581 4.26968C13.1404 2.22726 16.2726 3.38711 15.8399 5.70693L15.2631 8.79854H16.101C17.2248 8.79854 18.0517 9.64204 18.1853 10.6235H26.7084C30.0221 10.6235 32.7084 13.3098 32.7084 16.6235V21.6577H35.3289C37.538 21.6577 39.3289 23.4486 39.3289 25.6577V32.2427H39.618C40.7226 32.2427 41.618 33.1381 41.618 34.2427V37.142C41.7341 37.1073 41.8362 37.0639 41.9778 37.0024L41.9892 36.9975C42.1824 36.9137 42.4422 36.8009 42.7994 36.7183C43.1595 36.6351 43.5836 36.5893 44.1387 36.5893C45.1931 36.5893 46.1639 36.8589 46.8988 37.1428V27.9663C46.8988 27.414 47.3465 26.9663 47.8988 26.9663C48.4511 26.9663 48.8988 27.414 48.8988 27.9663V51.3976C48.8988 56.3682 44.8693 60.3976 39.8988 60.3976H23.9024C18.9318 60.3976 14.9024 56.3682 14.9024 51.3976V27.9663C14.9024 27.414 15.3501 26.9663 15.9024 26.9663C16.4547 26.9663 16.9024 27.414 16.9024 27.9663V37.0117C17.5479 36.7903 18.4195 36.5893 19.4582 36.5893C20.0133 36.5893 20.4375 36.6351 20.7975 36.7183C21.1548 36.8009 21.4145 36.9137 21.6078 36.9975L21.6192 37.0024C21.8057 37.0834 21.9238 37.1331 22.0954 37.1728C22.1225 37.179 22.1518 37.1852 22.1836 37.1912V34.2427C22.1836 33.1381 23.079 32.2427 24.1836 32.2427H24.3027V25.6577C24.3027 23.4486 26.0936 21.6577 28.3027 21.6577H30.7084V16.6235C30.7084 14.4144 28.9175 12.6235 26.7084 12.6235H17.5093L13.7409 18.812C12.5139 20.8271 9.4089 19.5994 9.89175 17.2901ZM11.8494 17.6994C11.8264 17.8093 11.9743 17.8678 12.0327 17.7718L16.1864 10.9505C16.2269 10.8839 16.179 10.7985 16.101 10.7985H12.9759C12.9133 10.7985 12.8661 10.7417 12.8776 10.6802L13.8738 5.34015C13.8944 5.22968 13.7452 5.17445 13.6889 5.27171L9.74312 12.0876C9.70453 12.1542 9.75262 12.2377 9.82965 12.2377H12.8683C12.9318 12.2377 12.9792 12.296 12.9662 12.3581L11.8494 17.6994ZM37.3289 25.6577V32.2427H36.9824C35.8778 32.2427 34.9824 33.1381 34.9824 34.2427V37.4625C34.5955 37.4971 34.2637 37.5758 33.966 37.6944C33.5728 37.8511 33.2885 38.0607 33.0954 38.2031L33.0769 38.2167C32.8767 38.3642 32.773 38.4358 32.6335 38.4915C32.5012 38.5442 32.2824 38.6016 31.8818 38.6016C31.1247 38.6016 30.7268 38.4004 30.2885 38.1521C30.2514 38.131 30.213 38.1089 30.1734 38.0861L30.1724 38.0855C29.8333 37.8902 29.4004 37.6409 28.8192 37.5181V34.2427C28.8192 33.1381 27.9238 32.2427 26.8192 32.2427H26.3027V25.6577C26.3027 24.5531 27.1981 23.6577 28.3027 23.6577H35.3289C36.4335 23.6577 37.3289 24.5531 37.3289 25.6577ZM16.9024 39.1768V51.3976C16.9024 55.2636 20.0364 58.3976 23.9024 58.3976H39.8988C43.7648 58.3976 46.8988 55.2636 46.8988 51.3976V39.3306C46.7542 39.2568 46.58 39.1738 46.3822 39.0908C45.7601 38.8294 44.9579 38.5893 44.1387 38.5893C43.6928 38.5893 43.4259 38.6262 43.25 38.6669C43.0783 38.7066 42.9603 38.7563 42.7737 38.8372L42.7623 38.8422C42.5691 38.926 42.3094 39.0387 41.9521 39.1214C41.8468 39.1457 41.736 39.1669 41.618 39.1846V51.263C41.618 51.7144 41.4654 52.1525 41.1848 52.5061L39.867 54.167C39.0663 55.1763 37.5342 55.1763 36.7335 54.167L35.4156 52.5061C35.1351 52.1525 34.9824 51.7144 34.9824 51.263V39.4774C34.8607 39.4983 34.7727 39.5259 34.7064 39.5523C34.5668 39.6079 34.4632 39.6796 34.263 39.8271L34.2445 39.8407C34.0514 39.9831 33.767 40.1927 33.3739 40.3493C32.9608 40.514 32.4823 40.6016 31.8818 40.6016C30.6368 40.6016 29.887 40.2233 29.3026 39.8921L29.2281 39.8499C29.0692 39.7597 28.9381 39.6852 28.8192 39.6259V51.263C28.8192 51.7144 28.6665 52.1525 28.386 52.5061L27.0682 54.167C26.2674 55.1763 24.7354 55.1763 23.9346 54.167L22.6168 52.5061C22.3363 52.1525 22.1836 51.7144 22.1836 51.263V39.2111C21.9864 39.1895 21.809 39.1593 21.6448 39.1214C21.2876 39.0387 21.0278 38.926 20.8346 38.8422L20.8232 38.8372C20.6367 38.7563 20.5186 38.7066 20.347 38.6669C20.171 38.6262 19.9042 38.5893 19.4582 38.5893C18.5995 38.5893 17.8969 38.7724 17.4136 38.9529C17.1936 39.035 17.021 39.1158 16.9024 39.1768ZM39.618 38.1474V34.2427H36.9824V51.263L38.3002 52.924L39.618 51.263L39.618 38.3533C39.6146 38.3195 39.6128 38.2851 39.6128 38.2504C39.6128 38.2156 39.6146 38.1812 39.618 38.1474ZM26.8192 34.2427H24.1836V51.263L25.5014 52.924L26.8192 51.263V34.2427Z" fill="#0B0D0E"/>
</svg>
