<svg width="64" height="64" viewBox="0 0 64 64" fill="none" xmlns="http://www.w3.org/2000/svg">
<g clip-path="url(#clip0_2298_37452)">
<path fill-rule="evenodd" clip-rule="evenodd" d="M43 19.0006H19V54.0006H43V19.0006ZM19 17.0006C17.8954 17.0006 17 17.896 17 19.0006V54.0006C17 55.1052 17.8954 56.0006 19 56.0006H43C44.1046 56.0006 45 55.1052 45 54.0006V19.0006C45 17.896 44.1046 17.0006 43 17.0006H19Z" fill="#0B0D0E"/>
<path fill-rule="evenodd" clip-rule="evenodd" d="M35 14.0006H27V17.0006H35V14.0006ZM27 12.0006C25.8954 12.0006 25 12.896 25 14.0006V17.0006C25 18.1052 25.8954 19.0006 27 19.0006H35C36.1046 19.0006 37 18.1052 37 17.0006V14.0006C37 12.896 36.1046 12.0006 35 12.0006H27Z" fill="#0B0D0E"/>
<path fill-rule="evenodd" clip-rule="evenodd" d="M31 8.00058C31.5523 8.00058 32 8.4483 32 9.00058V12.0006C32 12.5529 31.5523 13.0006 31 13.0006C30.4477 13.0006 30 12.5529 30 12.0006V9.00058C30 8.4483 30.4477 8.00058 31 8.00058Z" fill="#0B0D0E"/>
<path fill-rule="evenodd" clip-rule="evenodd" d="M24 25.0006V29.0006H28V25.0006H24ZM23 23.0006C22.4477 23.0006 22 23.4483 22 24.0006V30.0006C22 30.5529 22.4477 31.0006 23 31.0006H29C29.5523 31.0006 30 30.5529 30 30.0006V24.0006C30 23.4483 29.5523 23.0006 29 23.0006H23Z" fill="#0B0D0E"/>
<path fill-rule="evenodd" clip-rule="evenodd" d="M24 35.0006V39.0006H28V35.0006H24ZM23 33.0006C22.4477 33.0006 22 33.4483 22 34.0006V40.0006C22 40.5529 22.4477 41.0006 23 41.0006H29C29.5523 41.0006 30 40.5529 30 40.0006V34.0006C30 33.4483 29.5523 33.0006 29 33.0006H23Z" fill="#0B0D0E"/>
<path fill-rule="evenodd" clip-rule="evenodd" d="M34 25.0006V29.0006H38V25.0006H34ZM33 23.0006C32.4477 23.0006 32 23.4483 32 24.0006V30.0006C32 30.5529 32.4477 31.0006 33 31.0006H39C39.5523 31.0006 40 30.5529 40 30.0006V24.0006C40 23.4483 39.5523 23.0006 39 23.0006H33Z" fill="#0B0D0E"/>
<path fill-rule="evenodd" clip-rule="evenodd" d="M34 35.0006V39.0006H38V35.0006H34ZM33 33.0006C32.4477 33.0006 32 33.4483 32 34.0006V40.0006C32 40.5529 32.4477 41.0006 33 41.0006H39C39.5523 41.0006 40 40.5529 40 40.0006V34.0006C40 33.4483 39.5523 33.0006 39 33.0006H33Z" fill="#0B0D0E"/>
<path fill-rule="evenodd" clip-rule="evenodd" d="M36 47.0006H26V54.0006H36V47.0006ZM26 45.0006C24.8954 45.0006 24 45.896 24 47.0006V54.0006C24 55.1052 24.8954 56.0006 26 56.0006H36C37.1046 56.0006 38 55.1052 38 54.0006V47.0006C38 45.896 37.1046 45.0006 36 45.0006H26Z" fill="#0B0D0E"/>
<path fill-rule="evenodd" clip-rule="evenodd" d="M51.862 10.0189C52.8186 10.5712 54.0418 10.2434 54.5941 9.28685C55.1464 8.33026 54.8186 7.10708 53.862 6.5548C52.9054 6.00251 51.6823 6.33026 51.13 7.28685C50.5777 8.24343 50.9054 9.46661 51.862 10.0189ZM56.3261 10.2868C55.2216 12.2 52.7752 12.8555 50.862 11.7509C48.9489 10.6464 48.2934 8.20002 49.3979 6.28685C50.5025 4.37368 52.9489 3.71818 54.862 4.82275C56.7752 5.92732 57.4307 8.37368 56.3261 10.2868Z" fill="#0B0D0E"/>
<path fill-rule="evenodd" clip-rule="evenodd" d="M61.1902 13.5333C60.9141 14.0116 60.3025 14.1754 59.8242 13.8993L57.4835 12.5479C57.0052 12.2718 56.8414 11.6602 57.1175 11.1819C57.3936 10.7036 58.0052 10.5397 58.4835 10.8158L60.8242 12.1672C61.3025 12.4434 61.4664 13.055 61.1902 13.5333Z" fill="#0B0D0E"/>
<path fill-rule="evenodd" clip-rule="evenodd" d="M47.7588 5.77832C47.4827 6.25661 46.8711 6.42048 46.3928 6.14434L44.0521 4.79295C43.5738 4.51681 43.41 3.90522 43.6861 3.42692C43.9622 2.94863 44.5738 2.78476 45.0521 3.0609L47.3928 4.41229C47.8711 4.68843 48.035 5.30002 47.7588 5.77832Z" fill="#0B0D0E"/>
<path fill-rule="evenodd" clip-rule="evenodd" d="M47.2194 9.87886C47.3623 10.4123 47.0457 10.9607 46.5123 11.1036L43.9016 11.8031C43.3681 11.9461 42.8198 11.6295 42.6768 11.096C42.5339 10.5626 42.8505 10.0142 43.3839 9.87129L45.9946 9.17176C46.5281 9.02882 47.0764 9.3454 47.2194 9.87886Z" fill="#0B0D0E"/>
<path fill-rule="evenodd" clip-rule="evenodd" d="M53.836 13.6997C54.3695 13.5567 54.9179 13.8733 55.0608 14.4068L55.7603 17.0175C55.9033 17.5509 55.5867 18.0993 55.0532 18.2422C54.5198 18.3852 53.9714 18.0686 53.8285 17.5351L53.1289 14.9244C52.986 14.391 53.3026 13.8426 53.836 13.6997Z" fill="#0B0D0E"/>
<path fill-rule="evenodd" clip-rule="evenodd" d="M49.7377 13.1596C50.2159 13.4357 50.3798 14.0473 50.1037 14.5256L48.7523 16.8663C48.4761 17.3446 47.8646 17.5084 47.3863 17.2323C46.908 16.9561 46.7441 16.3446 47.0202 15.8663L48.3716 13.5256C48.6478 13.0473 49.2594 12.8834 49.7377 13.1596Z" fill="#0B0D0E"/>
</g>
<defs>
<clipPath id="clip0_2298_37452">
<rect width="64" height="64" fill="white"/>
</clipPath>
</defs>
</svg>
