<svg width="64" height="64" viewBox="0 0 64 64" fill="none" xmlns="http://www.w3.org/2000/svg">
<path d="M57.2545 11.637L57.2556 11.6398L57.5662 12.4482C57.7066 12.7868 58.0675 13 58.4488 13C58.5304 13 58.5887 12.9869 58.6908 12.9641L58.6924 12.9637C58.7131 12.9591 58.7354 12.954 58.7601 12.9486C59.2237 12.8015 59.495 12.3479 59.3306 11.9201L59.0191 11.1095C58.7588 10.4319 58.8249 9.61225 59.2899 9.03791C60.1413 7.89902 60.2394 6.35804 59.5175 5.13404L59.5146 5.12908L59.1339 4.4386L59.1333 4.43744C58.9185 4.04146 58.3755 3.88872 57.8927 4.08587C57.4367 4.27204 57.2601 4.74302 57.4871 5.1623L57.8665 5.85057C58.2812 6.57143 58.2471 7.51918 57.7485 8.18456L57.7435 8.19121C56.9614 9.15246 56.7929 10.4928 57.2545 11.637Z" fill="#0B0D0E"/>
<path fill-rule="evenodd" clip-rule="evenodd" d="M23 23C22.4477 23 22 23.4477 22 24V30C22 30.5523 22.4477 31 23 31H29C29.5523 31 30 30.5523 30 30V24C30 23.4477 29.5523 23 29 23H23ZM24 25V29H28V25H24Z" fill="#0B0D0E"/>
<path fill-rule="evenodd" clip-rule="evenodd" d="M22 34C22 33.4477 22.4477 33 23 33H29C29.5523 33 30 33.4477 30 34V40C30 40.5523 29.5523 41 29 41H23C22.4477 41 22 40.5523 22 40V34ZM24 39V35H28V39H24Z" fill="#0B0D0E"/>
<path fill-rule="evenodd" clip-rule="evenodd" d="M33 23C32.4477 23 32 23.4477 32 24V30C32 30.5523 32.4477 31 33 31H39C39.5523 31 40 30.5523 40 30V24C40 23.4477 39.5523 23 39 23H33ZM34 25V29H38V25H34Z" fill="#0B0D0E"/>
<path fill-rule="evenodd" clip-rule="evenodd" d="M32 34C32 33.4477 32.4477 33 33 33H39C39.5523 33 40 33.4477 40 34V40C40 40.5523 39.5523 41 39 41H33C32.4477 41 32 40.5523 32 40V34ZM34 39V35H38V39H34Z" fill="#0B0D0E"/>
<path fill-rule="evenodd" clip-rule="evenodd" d="M32 9C32 8.44772 31.5523 8 31 8C30.4477 8 30 8.44772 30 9V12H27C25.8954 12 25 12.8954 25 14V17H19C17.8954 17 17 17.8954 17 19V54C17 55.1046 17.8954 56 19 56H43C44.1046 56 45 55.1046 45 54V19C45 17.8954 44.1046 17 43 17H37V14C37 12.8954 36.1046 12 35 12H32V9ZM36 47V54H26V47H36ZM43 54H38V47C38 45.8954 37.1046 45 36 45H26C24.8954 45 24 45.8954 24 47V54H19V19H43V54ZM35 17V14H27V17H35Z" fill="#0B0D0E"/>
<path d="M53.2491 11.639L53.2478 11.6361C52.7866 10.4944 52.9855 9.14908 53.7086 8.18118C54.2082 7.51536 54.2423 6.5672 53.8268 5.84597L53.4464 5.15725C53.2188 4.73769 53.3958 4.2663 53.8529 4.08C54.3223 3.88875 54.8801 4.05288 55.1356 4.43951L55.5135 5.124L55.5163 5.12886C56.24 6.35378 56.1416 7.89566 55.2883 9.0353C54.8221 9.61002 54.7558 10.4303 55.0168 11.1083L55.329 11.9194C55.4938 12.3475 55.2217 12.8015 54.7572 12.9486L54.6893 12.9637C54.5858 12.9869 54.5273 13 54.4452 13C54.0629 13 53.7012 12.7868 53.5605 12.448L53.2491 11.639Z" fill="#0B0D0E"/>
<path d="M51.507 5.13235L51.5051 5.12908L51.1195 4.4386L51.1189 4.43744C50.9013 4.04146 50.3512 3.88872 49.862 4.08587C49.4 4.27204 49.2211 4.74302 49.4512 5.1623L49.8356 5.85057C50.2555 6.57133 50.2211 7.51897 49.7161 8.18435C48.9853 9.15151 48.7843 10.4961 49.2506 11.637L49.5664 12.4482C49.7086 12.7869 50.0741 13 50.4605 13C50.5431 13 50.6021 12.9869 50.7056 12.9641L50.7072 12.9637C50.7281 12.9591 50.7508 12.954 50.7758 12.9486C51.2453 12.8015 51.5203 12.3479 51.3538 11.9201L51.0382 11.1095C50.7747 10.4325 50.8413 9.61373 51.3112 9.03949C52.1401 7.89997 52.2399 6.38747 51.507 5.13235Z" fill="#0B0D0E"/>
</svg>
