<svg width="64" height="64" viewBox="0 0 64 64" fill="none" xmlns="http://www.w3.org/2000/svg">
<path fill-rule="evenodd" clip-rule="evenodd" d="M50.5327 15.2322C49.0517 13.2944 49.6642 11.5216 50.857 10.3296C52.688 8.49971 57.7407 9.26132 57.7407 9.26132C57.7407 9.26132 58.4986 14.3151 56.6676 16.1449C55.518 17.2938 53.8294 17.9033 51.9747 16.6185L51.7335 16.8789C51.3581 17.2841 50.7255 17.3082 50.3204 16.9329C49.9152 16.5575 49.8911 15.9248 50.2664 15.5196L50.5327 15.2322ZM55.254 14.7301C54.827 15.1568 54.4293 15.3223 54.12 15.3366C53.9649 15.3437 53.7091 15.3195 53.3569 15.1264L54.2339 14.1798C54.6092 13.7746 54.585 13.1419 54.1799 12.7665C53.7748 12.3912 53.1421 12.4153 52.7668 12.8205L51.9241 13.7302C51.6844 13.3317 51.6556 13.0459 51.6634 12.8781C51.6779 12.5687 51.8437 12.1711 52.2706 11.7444C52.3703 11.6448 52.6383 11.4714 53.1978 11.3291C53.7333 11.1929 54.3755 11.1257 55.0368 11.1087C55.3326 11.1011 55.6201 11.1038 55.8882 11.1126C55.8969 11.3808 55.8994 11.6683 55.8916 11.9641C55.8741 12.6255 55.8064 13.2677 55.6699 13.8032C55.5272 14.3626 55.3537 14.6305 55.254 14.7301Z" fill="#212121"/>
<path fill-rule="evenodd" clip-rule="evenodd" d="M49 3C48.4477 3 48 3.44772 48 4C48 4.55228 48.4477 5 49 5H50V6C48.3431 6 47 7.34315 47 9V17C47 18.6569 48.3431 20 50 20H58C59.6569 20 61 18.6569 61 17V9C61 7.34315 59.6569 6 58 6V5H59C59.5523 5 60 4.55228 60 4C60 3.44772 59.5523 3 59 3H49ZM52 6V5H56V6H52ZM49 9C49 8.44772 49.4477 8 50 8H58C58.5523 8 59 8.44772 59 9V17C59 17.5523 58.5523 18 58 18H50C49.4477 18 49 17.5523 49 17V9Z" fill="#212121"/>
<path d="M13 52C13.5523 52 14 51.5523 14 51C14 50.4477 13.5523 50 13 50C12.4477 50 12 50.4477 12 51C12 51.5523 12.4477 52 13 52Z" fill="#212121"/>
<path d="M52 51C52 51.5523 51.5523 52 51 52C50.4477 52 50 51.5523 50 51C50 50.4477 50.4477 50 51 50C51.5523 50 52 50.4477 52 51Z" fill="#212121"/>
<path d="M32 52C32.5523 52 33 51.5523 33 51C33 50.4477 32.5523 50 32 50C31.4477 50 31 50.4477 31 51C31 51.5523 31.4477 52 32 52Z" fill="#212121"/>
<path fill-rule="evenodd" clip-rule="evenodd" d="M40.1707 47H37.8293C37.9398 46.6872 38 46.3506 38 46V34.2516C38 31.9263 37.1 29.6913 35.4887 28.0149L35 27.5064V23C35 21.8954 34.1046 21 33 21H31C29.8954 21 29 21.8954 29 23V27.5064L28.5113 28.0149C26.9 29.6913 26 31.9263 26 34.2516V46C26 46.3506 26.0602 46.6872 26.1707 47H23.8293C23.9398 46.6872 24 46.3506 24 46V34.2516C24 31.9263 23.1 29.6913 21.4887 28.0149L21 27.5064V23C21 21.8954 20.1046 21 19 21H17C15.8954 21 15 21.8954 15 23V27.5064L14.5113 28.0149C12.9 29.6913 12 31.9263 12 34.2516V46C12 46.3506 12.0602 46.6872 12.1707 47H12C9.79086 47 8 48.7909 8 51C8 53.2091 9.79086 55 12 55H52C54.2091 55 56 53.2091 56 51C56 48.7909 54.2091 47 52 47H51.8293C51.9398 46.6872 52 46.3506 52 46V34.2516C52 31.9263 51.1 29.6913 49.4887 28.0149L49 27.5064V23C49 21.8954 48.1046 21 47 21H45C43.8954 21 43 21.8954 43 23V27.5064L42.5113 28.0149C40.9 29.6913 40 31.9263 40 34.2516V46C40 46.3506 40.0602 46.6872 40.1707 47ZM52 53H12C10.8954 53 10 52.1046 10 51C10 49.8954 10.8954 49 12 49H52C53.1046 49 54 49.8954 54 51C54 52.1046 53.1046 53 52 53ZM47 23V26H45V23H47ZM47.0619 28H44.9381C44.8534 28.3327 44.6837 28.6408 44.4419 28.8924L43.9532 29.4008C42.7 30.7047 42 32.4431 42 34.2516V46C42 46.5523 42.4477 47 43 47H49C49.5523 47 50 46.5523 50 46H44V35H50V34.2516C50 32.4431 49.3 30.7047 48.0468 29.4008L47.5581 28.8924C47.3163 28.6408 47.1466 28.3327 47.0619 28ZM50 37H46V44H50V37ZM32 36H36V43H32V36ZM35.9955 34C35.9338 32.2825 35.2418 30.6441 34.0468 29.4008L33.5581 28.8924C33.3163 28.6408 33.1466 28.3327 33.0619 28H30.9381C30.8534 28.3327 30.6837 28.6408 30.4419 28.8924L29.9532 29.4008C28.7 30.7047 28 32.4431 28 34.2516V46C28 46.5523 28.4477 47 29 47H35C35.5523 47 36 46.5523 36 46V45H30V34H35.9955ZM33 26H31V23H33V26ZM22 43V36H18V43H22ZM21.9955 34H16V45H22V46C22 46.5523 21.5523 47 21 47H15C14.4477 47 14 46.5523 14 46V34.2516C14 32.4431 14.7 30.7047 15.9532 29.4008L16.4419 28.8924C16.6837 28.6408 16.8534 28.3327 16.9381 28H19.0619C19.1466 28.3327 19.3163 28.6408 19.5581 28.8924L20.0468 29.4008C21.2418 30.6441 21.9338 32.2825 21.9955 34ZM17 26H19V23H17V26Z" fill="#212121"/>
</svg>
