<svg width="64" height="64" viewBox="0 0 64 64" fill="none" xmlns="http://www.w3.org/2000/svg">
<path fill-rule="evenodd" clip-rule="evenodd" d="M29.9254 16.4975C30.5805 16.0806 31.4178 16.0806 32.0729 16.4975L53.536 30.1559C54.002 30.4524 54.1393 31.0704 53.8428 31.5364C53.5463 32.0023 52.9282 32.1397 52.4623 31.8432L30.9991 18.1848L9.53603 31.8432C9.07008 32.1397 8.452 32.0023 8.15549 31.5364C7.85898 31.0704 7.99633 30.4524 8.46227 30.1559L29.9254 16.4975Z" fill="#0B0D0E"/>
<path fill-rule="evenodd" clip-rule="evenodd" d="M17.4054 19.3994H19.4054V24.201L21.4054 23.0564V18.3994C21.4054 17.8471 20.9577 17.3994 20.4054 17.3994H16.4054C15.8531 17.3994 15.4054 17.8471 15.4054 18.3994V26.4901L18.2598 24.8566H17.4054V19.3994Z" fill="#0B0D0E"/>
<path fill-rule="evenodd" clip-rule="evenodd" d="M12.9991 27.9995V54.0961C12.9991 55.2007 13.8946 56.0961 14.9992 56.0961H46.9991C48.1037 56.0961 48.9991 55.2007 48.9991 54.0961V27.9995H46.9991V54.0961H14.9991V27.9995H12.9991Z" fill="#0B0D0E"/>
<path fill-rule="evenodd" clip-rule="evenodd" d="M23.9991 44.2316V55.9995H37.9991V44.2316C37.9991 44.2316 37.9991 36.9995 30.9991 36.9995C23.9991 36.9995 23.9991 44.2316 23.9991 44.2316ZM35.9991 44.2409L35.9985 44.2149C35.9975 44.1848 35.9953 44.1316 35.9902 44.0588C35.9801 43.9126 35.959 43.691 35.9153 43.4201C35.8263 42.8687 35.6522 42.1652 35.3239 41.4868C34.9987 40.8148 34.5454 40.2132 33.9115 39.7766C33.2935 39.3509 32.3855 38.9995 30.9991 38.9995C29.6128 38.9995 28.7048 39.3509 28.0868 39.7766C27.4529 40.2132 26.9996 40.8148 26.6744 41.4868C26.3461 42.1652 26.172 42.8687 26.083 43.4201C26.0393 43.691 26.0182 43.9126 26.0081 44.0588C26.003 44.1316 26.0008 44.1848 25.9998 44.2149L25.9991 44.241V53.9995H35.9991V44.2409Z" fill="#0B0D0E"/>
<path fill-rule="evenodd" clip-rule="evenodd" d="M52.8613 9.01743C53.8178 9.56972 55.041 9.24197 55.5933 8.28538C56.1456 7.3288 55.8178 6.10562 54.8613 5.55333C53.9047 5.00105 52.6815 5.3288 52.1292 6.28538C51.5769 7.24197 51.9047 8.46515 52.8613 9.01743ZM57.3254 9.28538C56.2208 11.1986 53.7744 11.8541 51.8613 10.7495C49.9481 9.64492 49.2926 7.19855 50.3972 5.28538C51.5017 3.37221 53.9481 2.71671 55.8613 3.82128C57.7744 4.92585 58.4299 7.37221 57.3254 9.28538Z" fill="#0B0D0E"/>
<path fill-rule="evenodd" clip-rule="evenodd" d="M62.1894 12.5318C61.9133 13.0101 61.3017 13.174 60.8234 12.8978L58.4827 11.5464C58.0044 11.2703 57.8406 10.6587 58.1167 10.1804C58.3929 9.70211 59.0044 9.53824 59.4827 9.81438L61.8234 11.1658C62.3017 11.4419 62.4656 12.0535 62.1894 12.5318Z" fill="#0B0D0E"/>
<path fill-rule="evenodd" clip-rule="evenodd" d="M48.7581 4.77685C48.4819 5.25514 47.8703 5.41902 47.392 5.14288L45.0513 3.79149C44.5731 3.51534 44.4092 2.90375 44.6853 2.42546C44.9615 1.94717 45.5731 1.78329 46.0513 2.05943L48.392 3.41083C48.8703 3.68697 49.0342 4.29856 48.7581 4.77685Z" fill="#0B0D0E"/>
<path fill-rule="evenodd" clip-rule="evenodd" d="M48.2186 8.8774C48.3615 9.41087 48.0449 9.9592 47.5115 10.1021L44.9008 10.8017C44.3673 10.9446 43.819 10.628 43.676 10.0946C43.5331 9.5611 43.8497 9.01277 44.3832 8.86982L46.9938 8.17029C47.5273 8.02735 48.0756 8.34393 48.2186 8.8774Z" fill="#0B0D0E"/>
<path fill-rule="evenodd" clip-rule="evenodd" d="M54.8353 12.6982C55.3687 12.5553 55.9171 12.8719 56.06 13.4053L56.7595 16.016C56.9025 16.5495 56.5859 17.0978 56.0524 17.2408C55.519 17.3837 54.9706 17.0671 54.8277 16.5337L54.1282 13.923C53.9852 13.3895 54.3018 12.8412 54.8353 12.6982Z" fill="#0B0D0E"/>
<path fill-rule="evenodd" clip-rule="evenodd" d="M50.7369 12.1581C51.2152 12.4342 51.379 13.0458 51.1029 13.5241L49.7515 15.8648C49.4754 16.3431 48.8638 16.507 48.3855 16.2308C47.9072 15.9547 47.7433 15.3431 48.0195 14.8648L49.3709 12.5241C49.647 12.0458 50.2586 11.882 50.7369 12.1581Z" fill="#0B0D0E"/>
</svg>
