<svg width="64" height="64" viewBox="0 0 64 64" fill="none" xmlns="http://www.w3.org/2000/svg">
<path fill-rule="evenodd" clip-rule="evenodd" d="M43.9647 17.1102C44.4515 17.3709 45.0576 17.1876 45.3183 16.7007C45.5791 16.2139 45.3958 15.6078 44.9089 15.3471L27.4728 6.00891C27.1766 5.85028 26.8206 5.851 26.525 6.01084L25.2863 6.68073L13.7256 12.89L9.09613 15.3452C8.60822 15.6039 8.42244 16.2092 8.6812 16.6971C8.93995 17.1851 9.54525 17.3708 10.0332 17.1121L13.0159 15.5303V55.1825C13.0159 55.7348 13.4636 56.1825 14.0159 56.1825H39.9855C40.5378 56.1825 40.9855 55.7348 40.9855 55.1825V15.5146L43.9647 17.1102ZM15.0159 14.4696L18.7512 12.4887L18.7584 12.4848L26.2354 8.44119L27.0007 8.03018L38.9855 14.4673V54.1825H31.9089V45.1087C31.9089 44.5564 31.4612 44.1087 30.9089 44.1087H23.0925C22.5402 44.1087 22.0925 44.5564 22.0925 45.1087V54.1825H15.0159V14.4696ZM19.8007 21.902V26.302H24.2007V21.902H19.8007ZM19.0007 20.102C18.4484 20.102 18.0007 20.5497 18.0007 21.102V27.102C18.0007 27.6543 18.4484 28.102 19.0007 28.102H25.0007C25.553 28.102 26.0007 27.6543 26.0007 27.102V21.102C26.0007 20.5497 25.553 20.102 25.0007 20.102H19.0007ZM19.8007 31.902V36.302H24.2007V31.902H19.8007ZM19.0007 30.102C18.4484 30.102 18.0007 30.5497 18.0007 31.102V37.102C18.0007 37.6543 18.4484 38.102 19.0007 38.102H25.0007C25.553 38.102 26.0007 37.6543 26.0007 37.102V31.102C26.0007 30.5497 25.553 30.102 25.0007 30.102H19.0007ZM29.8007 26.302V21.902H34.2007V26.302H29.8007ZM28.0007 21.102C28.0007 20.5497 28.4484 20.102 29.0007 20.102H35.0007C35.553 20.102 36.0007 20.5497 36.0007 21.102V27.102C36.0007 27.6543 35.553 28.102 35.0007 28.102H29.0007C28.4484 28.102 28.0007 27.6543 28.0007 27.102V21.102ZM29.8007 31.902V36.302H34.2007V31.902H29.8007ZM29.0007 30.102C28.4484 30.102 28.0007 30.5497 28.0007 31.102V37.102C28.0007 37.6543 28.4484 38.102 29.0007 38.102H35.0007C35.553 38.102 36.0007 37.6543 36.0007 37.102V31.102C36.0007 30.5497 35.553 30.102 35.0007 30.102H29.0007ZM24.0925 46.1087V54.1824H29.9089V46.1087H24.0925Z" fill="#0B0D0E"/>
<path fill-rule="evenodd" clip-rule="evenodd" d="M52.8624 9.01841C53.819 9.5707 55.0422 9.24295 55.5945 8.28636C56.1468 7.32977 55.819 6.10659 54.8624 5.55431C53.9058 5.00202 52.6827 5.32977 52.1304 6.28636C51.5781 7.24294 51.9058 8.46613 52.8624 9.01841ZM57.3265 9.28636C56.222 11.1995 53.7756 11.855 51.8624 10.7505C49.9493 9.64589 49.2938 7.19953 50.3983 5.28636C51.5029 3.37319 53.9493 2.71769 55.8624 3.82226C57.7756 4.92683 58.4311 7.37319 57.3265 9.28636Z" fill="#0B0D0E"/>
<path fill-rule="evenodd" clip-rule="evenodd" d="M62.1906 12.5328C61.9145 13.0111 61.3029 13.1749 60.8246 12.8988L58.4839 11.5474C58.0056 11.2713 57.8417 10.6597 58.1179 10.1814C58.394 9.70309 59.0056 9.53921 59.4839 9.81536L61.8246 11.1667C62.3029 11.4429 62.4668 12.0545 62.1906 12.5328Z" fill="#0B0D0E"/>
<path fill-rule="evenodd" clip-rule="evenodd" d="M48.7592 4.77783C48.4831 5.25612 47.8715 5.42 47.3932 5.14385L45.0525 3.79246C44.5742 3.51632 44.4104 2.90473 44.6865 2.42644C44.9626 1.94814 45.5742 1.78427 46.0525 2.06041L48.3932 3.4118C48.8715 3.68795 49.0354 4.29954 48.7592 4.77783Z" fill="#0B0D0E"/>
<path fill-rule="evenodd" clip-rule="evenodd" d="M48.2198 8.87838C48.3627 9.41184 48.0461 9.96018 47.5127 10.1031L44.902 10.8027C44.3685 10.9456 43.8202 10.629 43.6772 10.0955C43.5343 9.56208 43.8509 9.01374 44.3843 8.8708L46.995 8.17127C47.5285 8.02833 48.0768 8.34491 48.2198 8.87838Z" fill="#0B0D0E"/>
<path fill-rule="evenodd" clip-rule="evenodd" d="M54.8364 12.6992C55.3699 12.5563 55.9182 12.8728 56.0612 13.4063L56.7607 16.017C56.9037 16.5505 56.5871 17.0988 56.0536 17.2417C55.5201 17.3847 54.9718 17.0681 54.8289 16.5346L54.1293 13.9239C53.9864 13.3905 54.303 12.8421 54.8364 12.6992Z" fill="#0B0D0E"/>
<path fill-rule="evenodd" clip-rule="evenodd" d="M50.738 12.1591C51.2163 12.4352 51.3802 13.0468 51.1041 13.5251L49.7527 15.8658C49.4765 16.3441 48.865 16.5079 48.3867 16.2318C47.9084 15.9557 47.7445 15.3441 48.0206 14.8658L49.372 12.5251C49.6482 12.0468 50.2598 11.8829 50.738 12.1591Z" fill="#0B0D0E"/>
</svg>
