<svg width="64" height="64" viewBox="0 0 64 64" fill="none" xmlns="http://www.w3.org/2000/svg">
<path d="M54.4906 5.39687L53.9117 6.21227C54.4906 5.39687 54.4915 5.39751 54.4915 5.39751L54.4926 5.39833L54.4957 5.40054L54.505 5.40722L54.5356 5.42949C54.5612 5.44826 54.597 5.47486 54.642 5.50902C54.7319 5.57731 54.8584 5.67597 55.0128 5.8028C55.321 6.05605 55.7426 6.42394 56.2048 6.88886C57.1196 7.80902 58.239 9.15485 58.9223 10.7849C59.1358 11.2942 58.8959 11.8802 58.3866 12.0937C57.8772 12.3072 57.2912 12.0674 57.0777 11.558C56.5337 10.2601 55.609 9.12635 54.7864 8.2989C54.4511 7.96162 54.1404 7.68283 53.8922 7.47255C53.855 7.50222 53.8164 7.53335 53.7765 7.56593C53.3462 7.91705 52.7735 8.42897 52.2032 9.07042C51.0425 10.3761 50 12.0955 50 14.0123C50 15.1778 50.2746 16.2302 50.8552 16.9697C51.4038 17.6684 52.3219 18.2123 53.9117 18.2123C54.7315 18.2123 55.3647 18.0663 55.8532 17.8426C56.3554 17.6128 56.9489 17.8335 57.1787 18.3357C57.4086 18.8379 57.1878 19.4313 56.6857 19.6612C55.8952 20.023 54.9705 20.2123 53.9117 20.2123C51.8024 20.2123 50.2646 19.4561 49.2822 18.2048C48.3317 16.9943 48 15.4467 48 14.0123C48 11.379 49.4134 9.19841 50.7085 7.74161C51.3661 7.00181 52.0213 6.41686 52.512 6.01642C52.758 5.81561 52.9646 5.65965 53.1121 5.55229C53.1859 5.49857 53.2451 5.45691 53.2872 5.42778C53.3082 5.41322 53.325 5.40177 53.3372 5.39351L53.3521 5.3835L53.3568 5.3803L53.3599 5.37831L53.9316 5L54.4906 5.39687Z" fill="#212121"/>
<path d="M52.3008 11.026C51.8866 11.026 51.5508 11.3618 51.5508 11.776V15.2744C51.5508 15.6886 51.8866 16.0244 52.3008 16.0244C52.715 16.0244 53.0508 15.6886 53.0508 15.2744V14.3519H54.8359V15.2744C54.8359 15.6886 55.1717 16.0244 55.5859 16.0244C56.0002 16.0244 56.3359 15.6886 56.3359 15.2744V11.776C56.3359 11.3618 56.0002 11.026 55.5859 11.026C55.1717 11.026 54.8359 11.3618 54.8359 11.776V12.8519H53.0508V11.776C53.0508 11.3618 52.715 11.026 52.3008 11.026Z" fill="#212121"/>
<path d="M59.5992 17.212C59.8206 17.212 60 17.0222 60 16.788C60 16.5539 59.8205 16.3641 59.5991 16.3641L58.4288 16.3643L59.1999 15.6132L59.2057 15.607C59.7237 15.0592 59.7237 14.171 59.2057 13.6232C58.6878 13.0753 57.8479 13.0753 57.3299 13.6232C57.1919 13.7691 57.0902 13.9401 57.0255 14.1229C56.9479 14.3422 57.0532 14.5864 57.2605 14.6685C57.4678 14.7505 57.6988 14.6393 57.7764 14.42C57.8017 14.3485 57.8415 14.2812 57.8968 14.2227C58.1017 14.006 58.434 14.006 58.6389 14.2227C58.8421 14.4376 58.8438 14.785 58.6439 15.0022L57.2813 16.3293C56.959 16.6432 57.169 17.2123 57.6072 17.2123L59.5992 17.212Z" fill="#212121"/>
<path fill-rule="evenodd" clip-rule="evenodd" d="M23.7574 24.0714C22.1277 24.0714 20.8065 25.3925 20.8065 27.0223C20.8065 28.6521 22.1277 29.9732 23.7574 29.9732C25.3872 29.9732 26.7084 28.6521 26.7084 27.0223C26.7084 25.3925 25.3872 24.0714 23.7574 24.0714ZM22.8065 27.0223C22.8065 26.4971 23.2323 26.0714 23.7574 26.0714C24.2826 26.0714 24.7084 26.4971 24.7084 27.0223C24.7084 27.5475 24.2826 27.9732 23.7574 27.9732C23.2323 27.9732 22.8065 27.5475 22.8065 27.0223Z" fill="#212121"/>
<path fill-rule="evenodd" clip-rule="evenodd" d="M54.6506 50.7097C56.1562 49.3475 57.102 47.3782 57.102 45.1879C57.102 41.4415 54.3345 38.3414 50.7322 37.8206C50.7133 36.1801 49.3775 34.8559 47.7325 34.8559H44.6918C44.1395 34.8559 43.6918 35.3037 43.6918 35.856C43.6918 36.4083 44.1395 36.856 44.6918 36.856H47.7325C48.2662 36.856 48.7023 37.2742 48.7309 37.8008C45.057 38.2571 42.2135 41.3904 42.2135 45.1879C42.2135 46.1833 42.4088 47.133 42.7633 48.0009C41.784 47.0063 41.1797 45.6414 41.1797 44.1353V29.801C41.3229 28.8959 41.3972 27.9679 41.3972 27.0225C41.3972 17.2809 33.5001 9.38379 23.7585 9.38379C14.0169 9.38379 6.11975 17.2809 6.11975 27.0225C6.11975 34.7155 11.0439 41.2561 17.9108 43.6685V50.6441H9.2069C7.50158 50.6441 6.11914 52.0265 6.11914 53.7318C6.11914 55.4371 7.50157 56.8196 9.2069 56.8196H54.0144C55.7197 56.8196 57.1021 55.4371 57.1021 53.7318C57.1021 52.2446 56.0507 51.0029 54.6506 50.7097ZM8.11975 27.0225C8.11975 18.3855 15.1215 11.3838 23.7585 11.3838C32.3955 11.3838 39.3972 18.3855 39.3972 27.0225C39.3972 33.5938 35.3436 39.2204 29.5992 41.5345V26.9921C29.5992 23.7645 26.9826 21.1479 23.755 21.1479C20.5273 21.1479 17.9108 23.7645 17.9108 26.9921V41.5316C12.1701 39.2157 8.11975 33.5911 8.11975 27.0225ZM39.1797 35.5915C37.0969 39.3316 33.693 42.2348 29.5992 43.671V50.6441H42.941C40.6928 49.3465 39.1797 46.9176 39.1797 44.1353V35.5915ZM44.2135 45.1879C44.2135 42.4966 46.1664 40.2613 48.7325 39.822V42.2526C47.5554 42.6404 46.7057 43.7489 46.7057 45.0559C46.7057 46.6857 48.0269 48.0069 49.6566 48.0069C51.2864 48.0069 52.6076 46.6857 52.6076 45.0559C52.6076 43.8058 51.8302 42.7372 50.7325 42.3072V39.8497C53.2245 40.3487 55.102 42.549 55.102 45.1879C55.102 48.1947 52.6646 50.6322 49.6578 50.6322C48.5626 50.6322 47.543 50.3089 46.6892 49.7524L46.6892 49.645C46.635 49.645 46.581 49.6442 46.5272 49.6426C45.1278 48.6574 44.2135 47.0294 44.2135 45.1879ZM49.6566 44.105C49.1314 44.105 48.7057 44.5307 48.7057 45.0559C48.7057 45.5811 49.1314 46.0069 49.6566 46.0069C50.1818 46.0069 50.6076 45.5811 50.6076 45.0559C50.6076 44.5307 50.1818 44.105 49.6566 44.105ZM23.755 23.1479C21.6319 23.1479 19.9108 24.8691 19.9108 26.9921V50.6323H27.5992V26.9921C27.5992 24.8691 25.878 23.1479 23.755 23.1479ZM8.11914 53.7318C8.11914 53.1311 8.60615 52.6441 9.2069 52.6441H54.0144C54.6151 52.6441 55.1021 53.1311 55.1021 53.7318C55.1021 54.3326 54.6151 54.8196 54.0144 54.8196H9.2069C8.60615 54.8196 8.11914 54.3326 8.11914 53.7318Z" fill="#212121"/>
</svg>
