<svg width="65" height="64" viewBox="0 0 65 64" fill="none" xmlns="http://www.w3.org/2000/svg">
<path fill-rule="evenodd" clip-rule="evenodd" d="M21.6651 27.4215C22.1622 27.1809 22.7603 27.3888 23.0009 27.886L31.9754 46.4294C32.216 46.9266 32.008 47.5246 31.5109 47.7652C31.0138 48.0058 30.4158 47.7978 30.1752 47.3007L21.2006 28.7572C20.96 28.2601 21.168 27.6621 21.6651 27.4215Z" fill="#0B0D0E"/>
<path fill-rule="evenodd" clip-rule="evenodd" d="M31.4076 25.0749C31.9394 24.9261 32.4912 25.2366 32.64 25.7685L33.7325 29.6731C35.7533 30.1763 39.7702 30.9755 45.1831 30.9755C50.3061 30.9755 53.2552 29.9962 54.8861 29.3341C55.8603 28.9386 56.962 29.6393 56.962 30.7261V43.1679C56.962 43.9964 56.2905 44.6679 55.462 44.6679H52.2168C51.6645 44.6679 51.2168 44.2202 51.2168 43.6679C51.2168 43.1157 51.6645 42.6679 52.2168 42.6679H54.962V31.4494C53.0469 32.156 49.9834 32.9755 45.1831 32.9755C40.4138 32.9755 36.6763 32.3768 34.3471 31.8696L37.3684 42.6679H39.6897V44.6679H17.6273C16.3267 44.6679 15.6424 43.1258 16.5151 42.1614L24.191 33.6795C24.5616 33.27 25.194 33.2385 25.6035 33.6091C26.013 33.9796 26.0445 34.612 25.6739 35.0215L18.7541 42.6679H35.2916L30.714 26.3074C30.5652 25.7755 30.8757 25.2237 31.4076 25.0749Z" fill="#0B0D0E"/>
<path fill-rule="evenodd" clip-rule="evenodd" d="M28.3172 46.8651C28.3172 46.3128 28.7649 45.8651 29.3172 45.8651H32.6057C33.158 45.8651 33.6057 46.3128 33.6057 46.8651C33.6057 47.4174 33.158 47.8651 32.6057 47.8651H29.3172C28.7649 47.8651 28.3172 47.4174 28.3172 46.8651Z" fill="#0B0D0E"/>
<path fill-rule="evenodd" clip-rule="evenodd" d="M24.5494 26.7069C26.0263 26.5903 26.362 28.7294 24.9204 29.0709L21.1195 29.9711C20.1744 30.1949 19.2738 29.4755 19.2738 28.5104C19.2738 27.7297 19.8736 27.076 20.6557 27.0143L24.5494 26.7069Z" fill="#0B0D0E"/>
<path fill-rule="evenodd" clip-rule="evenodd" d="M17.3744 49.6777C20.9159 49.6777 23.7868 46.8068 23.7868 43.2653C23.7868 39.7239 20.9159 36.8529 17.3744 36.8529C13.833 36.8529 10.962 39.7239 10.962 43.2653C10.962 46.8068 13.833 49.6777 17.3744 49.6777ZM17.3744 51.6777C22.0205 51.6777 25.7868 47.9114 25.7868 43.2653C25.7868 38.6193 22.0205 34.8529 17.3744 34.8529C12.7284 34.8529 8.96204 38.6193 8.96204 43.2653C8.96204 47.9114 12.7284 51.6777 17.3744 51.6777Z" fill="#0B0D0E"/>
<path fill-rule="evenodd" clip-rule="evenodd" d="M45.733 50.3097C48.8004 50.3097 51.2871 47.823 51.2871 44.7556C51.2871 41.6881 48.8004 39.2015 45.733 39.2015C42.6655 39.2015 40.1789 41.6881 40.1789 44.7556C40.1789 47.823 42.6655 50.3097 45.733 50.3097ZM45.733 52.3097C49.905 52.3097 53.2871 48.9276 53.2871 44.7556C53.2871 40.5835 49.905 37.2015 45.733 37.2015C41.561 37.2015 38.1789 40.5835 38.1789 44.7556C38.1789 48.9276 41.561 52.3097 45.733 52.3097Z" fill="#0B0D0E"/>
<path d="M47.2438 44.7556C47.2438 45.59 46.5674 46.2664 45.733 46.2664C44.8986 46.2664 44.2222 45.59 44.2222 44.7556C44.2222 43.9212 44.8986 43.2447 45.733 43.2447C46.5674 43.2447 47.2438 43.9212 47.2438 44.7556Z" fill="#0B0D0E"/>
<path fill-rule="evenodd" clip-rule="evenodd" d="M51.3181 10.0434L54.7551 4.10634L56.486 5.10837L53.0489 11.0455C53.0103 11.1121 53.0584 11.1956 53.1355 11.1956H54.899C54.9453 11.1956 54.9908 11.1987 55.0353 11.2047C55.106 11.2143 55.1741 11.2311 55.2389 11.2545C55.4663 11.3365 55.6531 11.4983 55.7693 11.7029C55.8843 11.9053 55.9302 12.1497 55.8778 12.4002L55.17 15.7856C55.124 16.0056 55.4197 16.1225 55.5366 15.9306L59.1596 9.98071C59.2002 9.91407 59.1522 9.82871 59.0742 9.82871H57.2045C57.1942 9.82871 57.1839 9.82855 57.1737 9.82825C57.0903 9.82575 57.0097 9.81314 56.9331 9.79166C56.6829 9.72152 56.475 9.55688 56.3461 9.34196C56.2259 9.14153 56.1744 8.89736 56.2214 8.64532L56.8557 5.24525C56.8969 5.02431 56.5986 4.91386 56.486 5.10837L54.7551 4.10634C55.9938 1.9667 59.2752 3.1817 58.8218 5.61203L58.4083 7.82871H59.0742C60.7126 7.82871 61.72 9.62146 60.8678 11.0209L57.2448 16.9708C55.9593 19.0819 52.7065 17.7957 53.2123 15.3763L53.6683 13.1956H53.1355C51.5174 13.1956 50.5078 11.4431 51.3181 10.0434Z" fill="#0B0D0E"/>
</svg>
