<svg width="64" height="64" viewBox="0 0 64 64" fill="none" xmlns="http://www.w3.org/2000/svg">
<path fill-rule="evenodd" clip-rule="evenodd" d="M48.9647 17.1103C49.4515 17.3711 50.0576 17.1878 50.3183 16.7009C50.5791 16.2141 50.3958 15.608 49.9089 15.3473L32.4728 6.00909C32.1766 5.85046 31.8206 5.85118 31.525 6.01102L30.2863 6.68091L18.7256 12.8902L14.0961 15.3453C13.6082 15.6041 13.4224 16.2094 13.6812 16.6973C13.94 17.1852 14.5453 17.371 15.0332 17.1122L18.0159 15.5305V55.1827C18.0159 55.7349 18.4636 56.1827 19.0159 56.1827H44.9855C45.5378 56.1827 45.9855 55.7349 45.9855 55.1827V15.5148L48.9647 17.1103ZM20.0159 14.4698L23.7512 12.4888L23.7584 12.485L31.2354 8.44137L32.0007 8.03036L43.9855 14.4674V54.1827H20.0159V14.4698Z" fill="#0B0D0E"/>
<path d="M56.0005 3C56.0005 2.44772 55.5528 2 55.0005 2C54.4482 2 54.0005 2.44772 54.0005 3V6.57934L50.574 4.18077C50.1215 3.86405 49.498 3.97409 49.1813 4.42654C48.8645 4.87899 48.9746 5.50252 49.427 5.81923L53.2567 8.5L49.427 11.1808C48.9746 11.4975 48.8645 12.121 49.1813 12.5735C49.498 13.0259 50.1215 13.1359 50.574 12.8192L54.0005 10.4207V14.0897C54.0005 14.642 54.4482 15.0897 55.0005 15.0897C55.5528 15.0897 56.0005 14.642 56.0005 14.0897V10.4207L59.427 12.8192C59.8795 13.1359 60.503 13.0259 60.8197 12.5735C61.1364 12.121 61.0264 11.4975 60.5739 11.1808L56.7443 8.5L60.5739 5.81923C61.0264 5.50252 61.1364 4.87899 60.8197 4.42654C60.503 3.97409 59.8795 3.86405 59.427 4.18077L56.0005 6.57935V3Z" fill="#0B0D0E"/>
<path fill-rule="evenodd" clip-rule="evenodd" d="M32.0005 27C32.0005 28.1046 31.1051 29 30.0005 29L30.0005 32L37.0005 32C38.6573 32 40.0005 33.3431 40.0005 35V41C41.1051 41 42.0005 41.8954 42.0005 43V44C42.0005 45.1046 41.1051 46 40.0005 46H34.0005C32.8959 46 32.0005 45.1046 32.0005 44V43C32.0005 41.8954 32.8959 41 34.0005 41V38L27.0005 38C25.3436 38 24.0005 36.6569 24.0005 35L24.0005 29C22.8959 29 22.0005 28.1046 22.0005 27V26C22.0005 24.8954 22.8959 24 24.0005 24H30.0005C31.1051 24 32.0005 24.8954 32.0005 26V27ZM26.0005 29L26.0005 35C26.0005 35.5523 26.4482 36 27.0005 36L35.0005 36C35.5528 36 36.0005 36.4477 36.0005 37V41H38.0005L38.0005 35C38.0005 34.4477 37.5528 34 37.0005 34L29.0005 34C28.4485 34 28.0009 33.5527 28.0005 33.0008L28.0005 29H26.0005ZM34.0005 43V44H40.0005V43H34.0005ZM28.0015 27H30.0005V26H24.0005V27H28.0015Z" fill="#0B0D0E"/>
</svg>
