<svg width="64" height="64" viewBox="0 0 64 64" fill="none" xmlns="http://www.w3.org/2000/svg">
<path fill-rule="evenodd" clip-rule="evenodd" d="M16 39C15.4477 39 15 39.4477 15 40L15 46C15 46.5523 15.4477 47 16 47L22 47C22.5523 47 23 46.5523 23 46L23 40C23 39.4477 22.5523 39 22 39H16ZM17 41L17 45L21 45L21 41H17Z" fill="#212121"/>
<path fill-rule="evenodd" clip-rule="evenodd" d="M25 40C25 39.4477 25.4477 39 26 39H32C32.5523 39 33 39.4477 33 40V46C33 46.5523 32.5523 47 32 47H26C25.4477 47 25 46.5523 25 46L25 40ZM27 45L27 41H31V45H27Z" fill="#212121"/>
<path fill-rule="evenodd" clip-rule="evenodd" d="M36 39C35.4477 39 35 39.4477 35 40V46C35 46.5523 35.4477 47 36 47H42C42.5523 47 43 46.5523 43 46V40C43 39.4477 42.5523 39 42 39H36ZM37 41V45H41V41H37Z" fill="#212121"/>
<path fill-rule="evenodd" clip-rule="evenodd" d="M10 54C9.44771 54 9 53.5523 9 53L9 34C9 33.4477 9.44772 33 10 33H14L14 12C14 11.4477 14.4477 11 15 11L22 11C22.5523 11 23 11.4477 23 12L23 33H25L25 12C25 11.4477 25.4477 11 26 11L33 11C33.5523 11 34 11.4477 34 12V24L52.8889 24C53.5025 24 54 24.4477 54 25V53C54 53.5523 53.5025 54 52.8889 54L10 54ZM52 26L34 26V33L48 33C48.5523 33 49 33.4477 49 34V52H52V26ZM47 52V35H11L11 52L47 52ZM32 33L32 13H27V33H32ZM21 13L21 33L16 33L16 13H21Z" fill="#212121"/>
<path d="M54.4906 5.39687L53.9117 6.21227C54.4906 5.39687 54.4915 5.39751 54.4915 5.39751L54.4926 5.39833L54.4957 5.40054L54.505 5.40722L54.5356 5.42949C54.5612 5.44826 54.597 5.47486 54.642 5.50902C54.7319 5.57731 54.8584 5.67597 55.0128 5.8028C55.321 6.05605 55.7426 6.42394 56.2048 6.88886C57.1196 7.80902 58.239 9.15485 58.9223 10.7849C59.1358 11.2942 58.8959 11.8802 58.3866 12.0937C57.8772 12.3072 57.2912 12.0674 57.0777 11.558C56.5337 10.2601 55.609 9.12635 54.7864 8.2989C54.4511 7.96162 54.1404 7.68283 53.8922 7.47255C53.855 7.50222 53.8164 7.53335 53.7765 7.56593C53.3462 7.91705 52.7735 8.42897 52.2032 9.07042C51.0425 10.3761 50 12.0955 50 14.0123C50 15.1778 50.2746 16.2302 50.8552 16.9697C51.4038 17.6684 52.3219 18.2123 53.9117 18.2123C54.7315 18.2123 55.3647 18.0663 55.8532 17.8426C56.3554 17.6128 56.9489 17.8335 57.1787 18.3357C57.4086 18.8379 57.1878 19.4313 56.6857 19.6612C55.8952 20.023 54.9705 20.2123 53.9117 20.2123C51.8024 20.2123 50.2646 19.4561 49.2822 18.2048C48.3317 16.9943 48 15.4467 48 14.0123C48 11.379 49.4134 9.19841 50.7085 7.74161C51.3661 7.00181 52.0213 6.41686 52.512 6.01642C52.758 5.81561 52.9646 5.65965 53.1121 5.55229C53.1859 5.49857 53.2451 5.45692 53.2872 5.42778C53.3082 5.41322 53.325 5.40177 53.3372 5.39351L53.3521 5.3835L53.3568 5.3803L53.3599 5.37831L53.9316 5L54.4906 5.39687Z" fill="#212121"/>
<path d="M52.3008 11.026C51.8866 11.026 51.5508 11.3618 51.5508 11.776V15.2744C51.5508 15.6886 51.8866 16.0244 52.3008 16.0244C52.715 16.0244 53.0508 15.6886 53.0508 15.2744V14.3519H54.8359V15.2744C54.8359 15.6886 55.1717 16.0244 55.5859 16.0244C56.0002 16.0244 56.3359 15.6886 56.3359 15.2744V11.776C56.3359 11.3618 56.0002 11.026 55.5859 11.026C55.1717 11.026 54.8359 11.3618 54.8359 11.776V12.8519H53.0508V11.776C53.0508 11.3618 52.715 11.026 52.3008 11.026Z" fill="#212121"/>
<path d="M59.5992 17.212C59.8206 17.212 60 17.0222 60 16.788C60 16.5539 59.8205 16.3641 59.5991 16.3641L58.4288 16.3643L59.1999 15.6132L59.2057 15.607C59.7237 15.0592 59.7237 14.171 59.2057 13.6232C58.6878 13.0753 57.8479 13.0753 57.3299 13.6232C57.1919 13.7691 57.0902 13.9401 57.0255 14.1229C56.9479 14.3422 57.0532 14.5864 57.2605 14.6685C57.4678 14.7505 57.6988 14.6393 57.7764 14.42C57.8017 14.3485 57.8415 14.2812 57.8968 14.2227C58.1017 14.006 58.434 14.006 58.6389 14.2227C58.8421 14.4376 58.8438 14.785 58.6439 15.0022L57.2813 16.3293C56.959 16.6432 57.169 17.2123 57.6072 17.2123L59.5992 17.212Z" fill="#212121"/>
</svg>
