<svg width="64" height="64" viewBox="0 0 64 64" fill="none" xmlns="http://www.w3.org/2000/svg">
<path fill-rule="evenodd" clip-rule="evenodd" d="M50.857 10.3296C49.6642 11.5216 49.0517 13.2944 50.5327 15.2322L50.2664 15.5196C49.8911 15.9248 49.9152 16.5575 50.3204 16.9329C50.7255 17.3082 51.3581 17.2841 51.7335 16.8789L51.9747 16.6185C53.8294 17.9033 55.518 17.2938 56.6676 16.1449C58.4986 14.3151 57.7407 9.26132 57.7407 9.26132C57.7407 9.26132 52.688 8.49971 50.857 10.3296ZM54.12 15.3366C54.4293 15.3223 54.827 15.1568 55.254 14.7301C55.3537 14.6305 55.5272 14.3626 55.6699 13.8032C55.8064 13.2677 55.8741 12.6255 55.8916 11.9641C55.8994 11.6683 55.8969 11.3808 55.8882 11.1126C55.6201 11.1038 55.3326 11.1011 55.0368 11.1087C54.3755 11.1257 53.7333 11.1929 53.1978 11.3291C52.6383 11.4714 52.3703 11.6448 52.2706 11.7444C51.8437 12.1711 51.6779 12.5687 51.6634 12.8781C51.6556 13.0459 51.6844 13.3317 51.9241 13.7302L52.7668 12.8205C53.1421 12.4153 53.7748 12.3912 54.1799 12.7665C54.585 13.1419 54.6092 13.7746 54.2339 14.1798L53.3569 15.1264C53.7091 15.3195 53.9649 15.3437 54.12 15.3366Z" fill="#212121"/>
<path fill-rule="evenodd" clip-rule="evenodd" d="M48 4C48 3.44772 48.4477 3 49 3H59C59.5523 3 60 3.44772 60 4C60 4.55228 59.5523 5 59 5H58V6C59.6569 6 61 7.34315 61 9V17C61 18.6569 59.6569 20 58 20H50C48.3431 20 47 18.6569 47 17V9C47 7.34315 48.3431 6 50 6V5H49C48.4477 5 48 4.55228 48 4ZM52 5V6H56V5H52ZM50 8C49.4477 8 49 8.44771 49 9V17C49 17.5523 49.4477 18 50 18H58C58.5523 18 59 17.5523 59 17V9C59 8.44772 58.5523 8 58 8H50Z" fill="#212121"/>
<path fill-rule="evenodd" clip-rule="evenodd" d="M20.8065 27.0223C20.8065 25.3925 22.1277 24.0714 23.7574 24.0714C25.3872 24.0714 26.7084 25.3925 26.7084 27.0223C26.7084 28.6521 25.3872 29.9732 23.7574 29.9732C22.1277 29.9732 20.8065 28.6521 20.8065 27.0223ZM23.7574 26.0714C23.2323 26.0714 22.8065 26.4971 22.8065 27.0223C22.8065 27.5475 23.2323 27.9732 23.7574 27.9732C24.2826 27.9732 24.7084 27.5475 24.7084 27.0223C24.7084 26.4971 24.2826 26.0714 23.7574 26.0714Z" fill="#212121"/>
<path fill-rule="evenodd" clip-rule="evenodd" d="M57.102 45.1879C57.102 47.3782 56.1562 49.3475 54.6506 50.7097C56.0507 51.0029 57.1021 52.2446 57.1021 53.7318C57.1021 55.4371 55.7197 56.8196 54.0144 56.8196H9.2069C7.50157 56.8196 6.11914 55.4371 6.11914 53.7318C6.11914 52.0265 7.50158 50.644 9.2069 50.644H17.9108V43.6685C11.0439 41.2561 6.11975 34.7155 6.11975 27.0225C6.11975 17.2809 14.0169 9.38379 23.7585 9.38379C33.5001 9.38379 41.3972 17.2809 41.3972 27.0225C41.3972 27.9679 41.3229 28.8959 41.1797 29.801V44.1353C41.1797 45.6414 41.784 47.0063 42.7633 48.0009C42.4088 47.133 42.2135 46.1833 42.2135 45.1879C42.2135 41.3904 45.057 38.257 48.7309 37.8008C48.7023 37.2742 48.2662 36.856 47.7325 36.856H44.6918C44.1395 36.856 43.6918 36.4082 43.6918 35.856C43.6918 35.3037 44.1395 34.856 44.6918 34.856H47.7325C49.3775 34.856 50.7133 36.18 50.7322 37.8206C54.3345 38.3414 57.102 41.4414 57.102 45.1879ZM23.7585 11.3838C15.1215 11.3838 8.11975 18.3855 8.11975 27.0225C8.11975 33.5911 12.1701 39.2157 17.9108 41.5316V26.9921C17.9108 23.7645 20.5273 21.148 23.755 21.148C26.9826 21.148 29.5992 23.7645 29.5992 26.9921V41.5345C35.3436 39.2204 39.3972 33.5938 39.3972 27.0225C39.3972 18.3855 32.3955 11.3838 23.7585 11.3838ZM29.5992 43.671C33.693 42.2348 37.0969 39.3316 39.1797 35.5914V44.1353C39.1797 46.9176 40.6928 49.3465 42.941 50.644H29.5992V43.671ZM48.7325 39.822C46.1664 40.2613 44.2135 42.4966 44.2135 45.1879C44.2135 47.0294 45.1278 48.6574 46.5272 49.6426C46.581 49.6442 46.635 49.645 46.6892 49.645L46.6892 49.7524C47.543 50.3088 48.5626 50.6322 49.6578 50.6322C52.6646 50.6322 55.102 48.1947 55.102 45.1879C55.102 42.549 53.2245 40.3486 50.7325 39.8497V42.3072C51.8302 42.7372 52.6076 43.8058 52.6076 45.0559C52.6076 46.6857 51.2864 48.0068 49.6566 48.0068C48.0269 48.0068 46.7057 46.6857 46.7057 45.0559C46.7057 43.7489 47.5554 42.6404 48.7325 42.2526V39.822ZM48.7057 45.0559C48.7057 44.5307 49.1314 44.105 49.6566 44.105C50.1818 44.105 50.6076 44.5307 50.6076 45.0559C50.6076 45.5811 50.1818 46.0068 49.6566 46.0068C49.1314 46.0068 48.7057 45.5811 48.7057 45.0559ZM19.9108 26.9921C19.9108 24.8691 21.6319 23.148 23.755 23.148C25.878 23.148 27.5992 24.8691 27.5992 26.9921V50.6323H19.9108V26.9921ZM9.2069 52.644C8.60615 52.644 8.11914 53.1311 8.11914 53.7318C8.11914 54.3326 8.60615 54.8196 9.2069 54.8196H54.0144C54.6151 54.8196 55.1021 54.3326 55.1021 53.7318C55.1021 53.1311 54.6151 52.644 54.0144 52.644H9.2069Z" fill="#212121"/>
</svg>
