<svg width="64" height="65" viewBox="0 0 64 65" fill="none" xmlns="http://www.w3.org/2000/svg">
<path d="M53 2.375C53.5523 2.375 54 2.82272 54 3.375V6.95085L57.4271 4.55538C57.8798 4.23898 58.5033 4.34944 58.8197 4.80211C59.1361 5.25478 59.0256 5.87823 58.5729 6.19463L54.7455 8.86989L58.5729 11.5452C59.0256 11.8616 59.1361 12.485 58.8197 12.9377C58.5033 13.3903 57.8798 13.5008 57.4271 13.1844L54 10.7889V14.375C54 14.9273 53.5523 15.375 53 15.375C52.4477 15.375 52 14.9273 52 14.375V10.7889L48.5729 13.1844C48.1202 13.5008 47.4968 13.3903 47.1804 12.9377C46.864 12.485 46.9744 11.8616 47.4271 11.5452L51.2545 8.86989L47.4271 6.19463C46.9745 5.87823 46.864 5.25478 47.1804 4.80211C47.4968 4.34944 48.1203 4.23898 48.5729 4.55538L52 6.95084V3.375C52 2.82272 52.4477 2.375 53 2.375Z" fill="#0B0D0E"/>
<path fill-rule="evenodd" clip-rule="evenodd" d="M22.0646 56.9989C22.042 56.9996 22.0193 57 21.9965 57H10C8.86023 57 7.95088 56.0489 8.00206 54.9102L9.84481 13.9102C9.89284 12.8416 10.7731 12 11.8428 12H20.1537C21.2234 12 22.1037 12.8416 22.1517 13.9102L22.7614 27.4766L50.8997 34.1437C51.7853 34.3536 52.4176 35.135 52.438 36.045L52.8623 54.9551C52.8875 56.077 51.985 57 50.8628 57H22.0646L22.0646 56.9989ZM11.8428 14H20.1537L21.2183 37.6854L21.977 55L10 55L11.8428 14ZM23.9965 55H50.8628L50.4385 36.0898L22.8639 29.5563L23.2163 37.5962L23.9944 54.9102C23.9958 54.9403 23.9965 54.9702 23.9965 55Z" fill="#0B0D0E"/>
<path fill-rule="evenodd" clip-rule="evenodd" d="M30.1326 40.5996V44.5996H34.2227V40.5996H30.1326ZM29.1326 38.5996C28.5803 38.5996 28.1326 39.0473 28.1326 39.5996V45.5996C28.1326 46.1519 28.5803 46.5996 29.1326 46.5996H35.2227C35.775 46.5996 36.2227 46.1519 36.2227 45.5996V39.5996C36.2227 39.0473 35.775 38.5996 35.2227 38.5996H29.1326Z" fill="#0B0D0E"/>
<path fill-rule="evenodd" clip-rule="evenodd" d="M40.2469 40.5996V44.5996H44.337V40.5996H40.2469ZM39.2469 38.5996C38.6946 38.5996 38.2469 39.0473 38.2469 39.5996V45.5996C38.2469 46.1519 38.6946 46.5996 39.2469 46.5996H45.337C45.8893 46.5996 46.337 46.1519 46.337 45.5996V39.5996C46.337 39.0473 45.8893 38.5996 45.337 38.5996H39.2469Z" fill="#0B0D0E"/>
</svg>
