<svg width="64" height="64" viewBox="0 0 64 64" fill="none" xmlns="http://www.w3.org/2000/svg">
<path fill-rule="evenodd" clip-rule="evenodd" d="M50.7931 7.00575L47.356 12.9429C46.5457 14.3425 47.5553 16.095 49.1734 16.095H49.7062L49.2503 18.2757C48.7444 20.6951 51.9973 21.9813 53.2827 19.8702L56.9058 13.9203C57.7579 12.5209 56.7506 10.7281 55.1121 10.7281H54.4462L54.8597 8.51144C55.3131 6.08111 52.0317 4.86612 50.7931 7.00575ZM52.524 8.00778C52.6366 7.81327 52.9349 7.92372 52.8937 8.14466L52.2594 11.5447C52.2123 11.7968 52.2638 12.0409 52.384 12.2414C52.5129 12.4563 52.7208 12.6209 52.971 12.6911C53.0476 12.7126 53.1282 12.7252 53.2117 12.7277C53.2219 12.728 53.2321 12.7281 53.2424 12.7281H55.1121C55.1902 12.7281 55.2381 12.8135 55.1975 12.8801L51.5745 18.83C51.4577 19.0219 51.1619 18.905 51.2079 18.6851L51.9158 15.2996C51.9681 15.0491 51.9223 14.8047 51.8073 14.6023C51.6911 14.3977 51.5042 14.2359 51.2768 14.1539C51.212 14.1306 51.1439 14.1137 51.0732 14.1041C51.0287 14.0981 50.9833 14.095 50.9369 14.095H49.1734C49.0964 14.095 49.0483 14.0115 49.0869 13.9449L52.524 8.00778Z" fill="#212121"/>
<path fill-rule="evenodd" clip-rule="evenodd" d="M26.9524 13C26.4191 13 25.9796 13.4186 25.9536 13.9513L25.6585 20H18C16.3431 20 15 21.3431 15 23V28H11C10.4477 28 10 28.4477 10 29V47C10 47.5523 10.4477 48 11 48H13V52H11C10.4477 52 10 52.4477 10 53C10 53.5523 10.4477 54 11 54H21C21.5523 54 22 53.5523 22 53C22 52.4477 21.5523 52 21 52H19V48H21C21.5523 48 22 47.5523 22 47V29C22 28.4477 21.5523 28 21 28H17V23C17 22.4477 17.4477 22 18 22H25.561L24.0512 52.9513C24.0233 53.522 24.4786 54 25.05 54H34.95C35.5214 54 35.9767 53.522 35.9488 52.9513L34.6829 27H44C44.5523 27 45 27.4477 45 28V31H44.2222C40.7858 31 38 33.7858 38 37.2222C38 37.6518 38.3482 38 38.7778 38H53.2222C53.6518 38 54 37.6518 54 37.2222C54 33.7858 51.2142 31 47.7778 31H47V28C47 26.3431 45.6569 25 44 25H34.5854L34.0464 13.9513C34.0204 13.4186 33.5809 13 33.0476 13H26.9524ZM27.9048 15L26.0999 52H33.9001L32.0952 15H27.9048ZM12 35V46H20V35H12ZM12 30V33H20V30H12ZM17 52H15V48H17V52ZM44.2222 33H47.7778C49.6847 33 51.2963 34.2641 51.8204 36H40.1796C40.7037 34.2641 42.3153 33 44.2222 33Z" fill="#212121"/>
<path d="M45.9117 40.2121L46.4906 39.3967L45.9316 38.9999L45.3599 39.3782L45.3568 39.3802L45.3521 39.3834L45.3372 39.3934C45.325 39.4016 45.3082 39.4131 45.2872 39.4276C45.2451 39.4568 45.1859 39.4984 45.1121 39.5521C44.9646 39.6595 44.758 39.8155 44.512 40.0163C44.0213 40.4167 43.3661 41.0017 42.7085 41.7415C41.4134 43.1983 40 45.3789 40 48.0121C40 49.4466 40.3317 50.9942 41.2822 52.2047C42.2646 53.456 43.8024 54.2121 45.9117 54.2121C46.9705 54.2121 47.8952 54.0228 48.6857 53.661C49.1878 53.4312 49.4086 52.8377 49.1787 52.3355C48.9489 51.8334 48.3554 51.6126 47.8532 51.8425C47.3647 52.0661 46.7315 52.2121 45.9117 52.2121C44.3219 52.2121 43.4038 51.6683 42.8552 50.9696C42.2746 50.2301 42 49.1776 42 48.0121C42 46.0954 43.0425 44.376 44.2032 43.0703C44.7735 42.4288 45.3462 41.9169 45.7765 41.5658C45.8164 41.5332 45.855 41.5021 45.8922 41.4724C46.1404 41.6827 46.4511 41.9615 46.7864 42.2988C47.609 43.1262 48.5337 44.26 49.0777 45.5579C49.2912 46.0672 49.8772 46.3071 50.3866 46.0936C50.8959 45.8801 51.1358 45.2941 50.9223 44.7847C50.239 43.1547 49.1196 41.8089 48.2048 40.8887C47.7426 40.4238 47.321 40.0559 47.0128 39.8027C46.8584 39.6758 46.7319 39.5772 46.642 39.5089C46.597 39.4747 46.5612 39.4481 46.5356 39.4293L46.505 39.4071L46.4957 39.4004L46.4915 39.3974C46.4915 39.3974 46.4906 39.3967 45.9117 40.2121Z" fill="#212121"/>
<path d="M43.5508 45.7759C43.5508 45.3616 43.8866 45.0259 44.3008 45.0259C44.715 45.0259 45.0508 45.3616 45.0508 45.7759V46.8517H46.8359V45.7759C46.8359 45.3616 47.1717 45.0259 47.5859 45.0259C48.0002 45.0259 48.3359 45.3616 48.3359 45.7759V49.2743C48.3359 49.6885 48.0002 50.0243 47.5859 50.0243C47.1717 50.0243 46.8359 49.6885 46.8359 49.2743V48.3517H45.0508V49.2743C45.0508 49.6885 44.715 50.0243 44.3008 50.0243C43.8866 50.0243 43.5508 49.6885 43.5508 49.2743V45.7759Z" fill="#212121"/>
<path d="M51.5992 51.2119C51.8206 51.2118 52 51.022 52 50.7879C52 50.5537 51.8205 50.364 51.5991 50.364L50.4288 50.3642L51.1999 49.613L51.2057 49.6069C51.7237 49.059 51.7237 48.1709 51.2057 47.623C50.6878 47.0752 49.8479 47.0752 49.3299 47.623C49.1919 47.7689 49.0902 47.94 49.0255 48.1227C48.9479 48.342 49.0532 48.5863 49.2605 48.6683C49.4678 48.7504 49.6988 48.6391 49.7764 48.4198C49.8017 48.3484 49.8415 48.281 49.8968 48.2225C50.1017 48.0058 50.434 48.0058 50.6389 48.2225C50.8421 48.4375 50.8438 48.7849 50.6439 49.002L49.2813 50.3292C48.959 50.6431 49.169 51.2122 49.6072 51.2121L51.5992 51.2119Z" fill="#212121"/>
</svg>
