<svg width="64" height="64" viewBox="0 0 64 64" fill="none" xmlns="http://www.w3.org/2000/svg">
<path d="M57.9361 4.5784C57.0562 4.5784 56.3429 5.29171 56.3429 6.17161C56.3429 7.05151 57.0562 7.76482 57.9361 7.76482C58.5446 7.76482 59.074 7.42329 59.3423 6.92161H57.9361C57.5219 6.92161 57.1861 6.58582 57.1861 6.17161C57.1861 5.7574 57.5219 5.42161 57.9361 5.42161H59.9793C60.5299 5.42161 61.0906 5.88927 61.0043 6.56585C60.8102 8.08832 59.5111 9.26482 57.9361 9.26482C56.2278 9.26482 54.8429 7.87994 54.8429 6.17161C54.8429 4.46328 56.2278 3.0784 57.9361 3.0784C58.6166 3.0784 59.2478 3.29903 59.7591 3.67247C59.8564 3.74355 59.9494 3.82015 60.0375 3.90181C60.3414 4.18327 60.3596 4.6578 60.0782 4.96169C59.7967 5.26559 59.3222 5.28378 59.0183 5.00233C58.9727 4.96008 58.9246 4.92048 58.8744 4.88378C58.6113 4.69161 58.288 4.5784 57.9361 4.5784Z" fill="#0B0D0E"/>
<path d="M54.4806 3.75452C54.4806 3.3403 54.1448 3.00452 53.7306 3.00452C53.3163 3.00452 52.9806 3.3403 52.9806 3.75452V6.43102L51.1073 3.49652C50.5963 2.69599 49.3566 3.05795 49.3566 4.00768V8.51489C49.3566 8.92911 49.6924 9.26489 50.1066 9.26489C50.5208 9.26489 50.8566 8.92911 50.8566 8.51489V5.89146L52.7298 8.82597C53.2408 9.6265 54.4806 9.26454 54.4806 8.31481V3.75452Z" fill="#0B0D0E"/>
<path d="M46.2037 3.83268C46.2037 3.41846 45.868 3.08268 45.4537 3.08268C45.0395 3.08268 44.7037 3.41846 44.7037 3.83268V8.29003C44.7037 8.8147 45.1291 9.24003 45.6537 9.24003H48.3102C48.7244 9.24003 49.0602 8.90424 49.0602 8.49003C49.0602 8.07582 48.7244 7.74003 48.3102 7.74003H46.2037V3.83268Z" fill="#0B0D0E"/>
<path fill-rule="evenodd" clip-rule="evenodd" d="M32 8C32.5523 8 33 8.44772 33 9V13H35C36.1046 13 37 13.8954 37 15V19H44C44.5523 19 45 19.4477 45 20C45 20.5523 44.5523 21 44 21V31H43.947L47.9657 33.7629C48.6818 34.2552 48.998 35.1534 48.7483 35.9857L46 45.1468V50.109C48.2015 50.3537 49.9353 50.9746 51.1973 51.6056C52.0068 52.0103 52.6201 52.4182 53.0376 52.7313C53.2464 52.8878 53.4065 53.021 53.518 53.1185C53.5737 53.1673 53.6174 53.2072 53.6489 53.2368L53.6733 53.2599L53.6871 53.2732L53.6994 53.2852L53.7039 53.2896L53.7065 53.2922C53.7065 53.2922 53.602 53.398 53.4491 53.551L53.7072 53.2929C54.0977 53.6834 54.0977 54.3166 53.7072 54.7071C53.3177 55.0966 52.687 55.0976 52.2962 54.7103L52.2942 54.7084L52.293 54.7071L52.281 54.6958C52.2657 54.6815 52.239 54.6569 52.201 54.6237C52.125 54.5571 52.0038 54.4559 51.8376 54.3312C51.5051 54.0818 50.9934 53.7397 50.3029 53.3944C48.9252 52.7056 46.8273 52 44.0001 52C41.2094 52 39.6128 52.684 38.0442 53.408L37.8082 53.5172C36.2565 54.2365 34.6095 55 32.0001 55C29.3135 55 27.7654 54.1913 26.3365 53.4448L26.225 53.3866C24.844 52.666 23.5138 52 21.0001 52C18.4246 52 16.0589 52.7044 14.32 53.424C13.4543 53.7822 12.7542 54.1399 12.2737 54.406C12.0337 54.539 11.8491 54.6487 11.7269 54.7236C11.6658 54.7611 11.6204 54.7898 11.5914 54.8084L11.5604 54.8284L11.5544 54.8323C11.0949 55.1383 10.4743 55.0141 10.1681 54.5547C9.8617 54.0952 9.98588 53.4743 10.4454 53.1679L10.4465 53.1672L10.4481 53.1662C10.4695 53.1521 10.491 53.1381 10.5126 53.1243C10.5522 53.0989 10.6088 53.0632 10.6815 53.0186C10.8269 52.9295 11.0369 52.8048 11.3047 52.6565C11.8398 52.3601 12.6084 51.9678 13.5553 51.576C14.768 51.0741 16.2902 50.5661 18 50.2673V45.1468L15.2517 35.9857C15.002 35.1534 15.3183 34.2552 16.0343 33.7629L20.053 31H20V21C19.4477 21 19 20.5523 19 20C19 19.4477 19.4477 19 20 19H27V15C27 13.8954 27.8954 13 29 13H31V9C31 8.44772 31.4477 8 32 8ZM29 15H35V19H29V15ZM22 21V29.6615L30.8669 23.5654C31.5494 23.0962 32.4506 23.0962 33.1331 23.5654L42 29.6615V21H22ZM44 50V45.1468C44 44.9521 44.0284 44.7585 44.0843 44.5721L46.8327 35.411L33 25.901V52.9535C34.5971 52.7993 35.7183 52.2804 37.0028 51.686L37.206 51.592C38.8874 50.816 40.7908 50 44 50ZM31 52.9526V25.901L17.1673 35.411L19.9157 44.5721C19.9716 44.7585 20 44.9521 20 45.1468V50.0305C20.329 50.0106 20.6626 50 21.0001 50C23.9864 50 25.6562 50.834 27.1502 51.6134L27.2426 51.6616C28.3927 52.2622 29.4124 52.7947 31 52.9526Z" fill="#0B0D0E"/>
</svg>
