<svg width="64" height="64" viewBox="0 0 64 64" fill="none" xmlns="http://www.w3.org/2000/svg">
<path d="M27 25C27 26.1046 26.1046 27 25 27C23.8954 27 23 26.1046 23 25C23 23.8954 23.8954 23 25 23C26.1046 23 27 23.8954 27 25Z" fill="#0B0D0E"/>
<path d="M32 27C33.1046 27 34 26.1046 34 25C34 23.8954 33.1046 23 32 23C30.8954 23 30 23.8954 30 25C30 26.1046 30.8954 27 32 27Z" fill="#0B0D0E"/>
<path d="M41 25C41 26.1046 40.1046 27 39 27C37.8954 27 37 26.1046 37 25C37 23.8954 37.8954 23 39 23C40.1046 23 41 23.8954 41 25Z" fill="#0B0D0E"/>
<path fill-rule="evenodd" clip-rule="evenodd" d="M36 9C36.5523 9 37 9.44772 37 10V11H39C40.1046 11 41 11.8954 41 13V18H43.1327C44.128 18 44.9718 18.7319 45.1126 19.7172L46.8605 31.9523L51.2376 32.8277C52.3033 33.0409 53.0038 34.0661 52.8149 35.1364L50.1669 50.1418C50.5396 50.292 50.8831 50.4485 51.1973 50.6056C52.0068 51.0103 52.6201 51.4182 53.0376 51.7313C53.2464 51.8878 53.4065 52.021 53.518 52.1185C53.5737 52.1673 53.6174 52.2072 53.6489 52.2368C53.6647 52.2515 53.6774 52.2637 53.6871 52.2732L53.6994 52.2852L53.7039 52.2896L53.7065 52.2922C53.7065 52.2922 53.602 52.398 53.4491 52.551L53.7072 52.2929C54.0977 52.6834 54.0977 53.3166 53.7072 53.7071C53.3177 54.0966 52.687 54.0976 52.2962 53.7103L52.2942 53.7084L52.293 53.7071L52.281 53.6958C52.2657 53.6815 52.239 53.6569 52.201 53.6237C52.125 53.5571 52.0038 53.4559 51.8376 53.3312C51.5051 53.0818 50.9934 52.7397 50.3029 52.3944C48.9252 51.7056 46.8273 51 44.0001 51C41.2094 51 39.6128 51.684 38.0442 52.408L37.8082 52.5172C36.2565 53.2365 34.6095 54 32.0001 54C29.3135 54 27.7654 53.1913 26.3365 52.4448L26.225 52.3866C24.844 51.666 23.5138 51 21.0001 51C18.4246 51 16.0589 51.7044 14.32 52.424C13.4543 52.7822 12.7542 53.1399 12.2737 53.406C12.0337 53.539 11.8491 53.6487 11.7269 53.7236C11.6658 53.7611 11.6204 53.7898 11.5914 53.8084L11.5604 53.8284L11.5544 53.8323C11.0949 54.1383 10.4743 54.0141 10.1681 53.5547C9.8617 53.0952 9.98588 52.4743 10.4454 52.1679L10.4465 52.1672L10.4481 52.1662C10.4695 52.1521 10.491 52.1381 10.5126 52.1243C10.5522 52.0989 10.6088 52.0632 10.6815 52.0186C10.8269 51.9295 11.0369 51.8048 11.3047 51.6565C11.8398 51.3601 12.6084 50.9678 13.5553 50.576C13.6631 50.5314 13.7734 50.4867 13.8861 50.4421L11.1851 35.1364C10.9962 34.0661 11.6967 33.0409 12.7624 32.8277L17.1026 31.9597L18.8858 19.7118C19.0289 18.7289 19.8717 18 20.8649 18H23V13C23 11.8954 23.8954 11 25 11H27V10C27 9.44772 27.4477 9 28 9C28.5523 9 29 9.44772 29 10V11H35V10C35 9.44772 35.4477 9 36 9ZM48.2465 49.5154L50.8453 34.7889L33 31.2198L33 51.9535C34.5971 51.7993 35.7183 51.2804 37.0028 50.686L37.206 50.592C38.8874 49.816 40.7908 49 44.0001 49C45.6158 49 47.0317 49.206 48.2465 49.5154ZM31 51.9526C29.4124 51.7947 28.3927 51.2622 27.2426 50.6616L27.1502 50.6134C25.6562 49.834 23.9864 49 21.0001 49C19.1032 49 17.3284 49.3347 15.8007 49.7829L13.1547 34.7889L31 31.2198L31 51.9526ZM32.2785 29.0393C32.1901 29.0137 32.0966 29 32 29C31.9034 29 31.8099 29.0137 31.7215 29.0393C31.6835 29.0446 31.6455 29.0511 31.6078 29.0586L19.1843 31.5433L20.8649 20H43.1327L44.7808 31.5363L32.3922 29.0586C32.3545 29.0511 32.3165 29.0446 32.2785 29.0393ZM39 18H25V13H39V18Z" fill="#0B0D0E"/>
<path d="M57.9361 4.5784C57.0562 4.5784 56.3429 5.29171 56.3429 6.17161C56.3429 7.05151 57.0562 7.76482 57.9361 7.76482C58.5446 7.76482 59.074 7.42329 59.3423 6.92161H57.9361C57.5219 6.92161 57.1861 6.58582 57.1861 6.17161C57.1861 5.7574 57.5219 5.42161 57.9361 5.42161H59.9793C60.5298 5.42161 61.0906 5.88927 61.0043 6.56585C60.8102 8.08832 59.5111 9.26482 57.9361 9.26482C56.2278 9.26482 54.8429 7.87994 54.8429 6.17161C54.8429 4.46328 56.2278 3.0784 57.9361 3.0784C58.6166 3.0784 59.2478 3.29903 59.7591 3.67247C59.8564 3.74355 59.9494 3.82015 60.0375 3.90181C60.3414 4.18327 60.3596 4.6578 60.0782 4.96169C59.7967 5.26559 59.3222 5.28378 59.0183 5.00233C58.9727 4.96008 58.9246 4.92048 58.8744 4.88378C58.6113 4.69161 58.288 4.5784 57.9361 4.5784Z" fill="#0B0D0E"/>
<path d="M54.4806 3.75452C54.4806 3.3403 54.1448 3.00452 53.7306 3.00452C53.3163 3.00452 52.9806 3.3403 52.9806 3.75452V6.43102L51.1073 3.49652C50.5963 2.69599 49.3566 3.05795 49.3566 4.00768V8.51489C49.3566 8.92911 49.6924 9.26489 50.1066 9.26489C50.5208 9.26489 50.8566 8.92911 50.8566 8.51489V5.89146L52.7298 8.82597C53.2408 9.6265 54.4806 9.26454 54.4806 8.31481V3.75452Z" fill="#0B0D0E"/>
<path d="M46.2037 3.83268C46.2037 3.41846 45.868 3.08268 45.4537 3.08268C45.0395 3.08268 44.7037 3.41846 44.7037 3.83268V8.29003C44.7037 8.8147 45.1291 9.24003 45.6537 9.24003H48.3102C48.7244 9.24003 49.0602 8.90424 49.0602 8.49003C49.0602 8.07582 48.7244 7.74003 48.3102 7.74003H46.2037V3.83268Z" fill="#0B0D0E"/>
</svg>
