<svg width="64" height="64" viewBox="0 0 64 64" fill="none" xmlns="http://www.w3.org/2000/svg">
<path fill-rule="evenodd" clip-rule="evenodd" d="M47.2135 15.372C45.1504 12.6941 46.2249 10.0195 48.0998 8.14575C50.93 5.31718 58.1247 5.87828 58.1247 5.87828C58.1247 5.87828 58.6807 13.074 55.8504 15.9026C53.9763 17.7755 51.3026 18.8481 48.6276 16.7864L47.7968 17.6173C47.4063 18.0078 46.7731 18.0078 46.3826 17.6173C45.9921 17.2268 45.9921 16.5936 46.3826 16.203L47.2135 15.372ZM54.4367 14.4878C53.6024 15.3216 52.7293 15.7968 51.9517 15.8896C51.4423 15.9503 50.8082 15.8691 50.0581 15.3556L52.9994 12.414C53.3899 12.0235 53.3899 11.3903 52.9994 10.9997C52.6089 10.6092 51.9758 10.6092 51.5853 10.9998L48.6441 13.9412C48.1298 13.1897 48.0488 12.5548 48.11 12.0448C48.2033 11.2672 48.6791 10.3943 49.5134 9.56053C49.9121 9.16206 50.5634 8.79478 51.4728 8.5021C52.3656 8.21476 53.3798 8.03986 54.3708 7.94165C55.0158 7.87774 55.6296 7.84833 56.1639 7.83785C56.1531 8.37226 56.1232 8.9861 56.0589 9.6311C55.96 10.6221 55.7844 11.6363 55.4964 12.529C55.2031 13.4383 54.8354 14.0893 54.4367 14.4878Z" fill="#212121"/>
<path fill-rule="evenodd" clip-rule="evenodd" d="M25.9536 13.9513C25.9796 13.4186 26.4191 13 26.9524 13H33.0476C33.5809 13 34.0204 13.4186 34.0464 13.9513L34.5854 25H44C45.6569 25 47 26.3431 47 28V31H47.7778C51.2142 31 54 33.7858 54 37.2222C54 37.6518 53.6518 38 53.2222 38H38.7778C38.3482 38 38 37.6518 38 37.2222C38 33.7858 40.7858 31 44.2222 31H45V28C45 27.4477 44.5523 27 44 27H34.6829L35.9488 52.9513C35.9767 53.522 35.5214 54 34.95 54H25.05C24.4786 54 24.0233 53.522 24.0512 52.9513L25.561 22H18C17.4477 22 17 22.4477 17 23V28H21C21.5523 28 22 28.4477 22 29V47C22 47.5523 21.5523 48 21 48H19V52H21C21.5523 52 22 52.4477 22 53C22 53.5523 21.5523 54 21 54H11C10.4477 54 10 53.5523 10 53C10 52.4477 10.4477 52 11 52H13V48H11C10.4477 48 10 47.5523 10 47V29C10 28.4477 10.4477 28 11 28H15V23C15 21.3431 16.3431 20 18 20H25.6585L25.9536 13.9513ZM26.0999 52L27.9048 15H32.0952L33.9001 52H26.0999ZM12 46V35H20V46H12ZM12 33V30H20V33H12ZM15 52H17V48H15V52ZM47.7778 33H44.2222C42.3153 33 40.7037 34.2641 40.1796 36H51.8204C51.2963 34.2641 49.6847 33 47.7778 33Z" fill="#212121"/>
<path d="M43.4716 40.7024C43.8595 40.3092 43.8553 39.6761 43.4621 39.2882C43.069 38.9003 42.4359 38.9045 42.048 39.2976L40.2882 41.081C39.9003 41.4742 39.9045 42.1073 40.2976 42.4952C40.6908 42.8831 41.3239 42.8789 41.7118 42.4858L43.4716 40.7024Z" fill="#212121"/>
<path fill-rule="evenodd" clip-rule="evenodd" d="M46.6334 43.5664C46.6334 43.5664 43.9929 45.9913 43.9922 48.0597C43.9917 49.5578 44.6429 51.0561 46.6308 51.0568C48.6188 51.0576 49.271 49.5597 49.2715 48.0616C49.2722 45.9932 46.6334 43.5664 46.6334 43.5664ZM47.4866 49.2346C47.6427 49.0216 47.7713 48.6276 47.7715 48.0611C47.7717 47.5629 47.3999 46.7874 46.7598 45.9478C46.7174 45.8921 46.6749 45.8376 46.6326 45.7844C46.5903 45.8376 46.5477 45.892 46.5053 45.9476C45.8647 46.7868 45.4924 47.562 45.4922 48.0602C45.492 48.6267 45.6203 49.0208 45.7763 49.2339C45.8779 49.3728 46.0675 49.5566 46.6314 49.5568C47.1953 49.557 47.3849 49.3733 47.4866 49.2346Z" fill="#212121"/>
<path fill-rule="evenodd" clip-rule="evenodd" d="M45.7269 39.8916C45.4741 39.8916 45.2306 39.9874 45.0456 40.1596L41.1995 43.7395C40.9963 43.9286 40.8809 44.1938 40.8809 44.4714V53.1973C40.8809 53.7496 41.3286 54.1973 41.8809 54.1973H51.3828C51.9351 54.1973 52.3828 53.7496 52.3828 53.1973V40.8916C52.3828 40.3393 51.9351 39.8916 51.3828 39.8916H45.7269ZM42.8809 44.9068L46.1203 41.8916H50.3828V52.1973H42.8809V44.9068Z" fill="#212121"/>
</svg>
