<svg width="64" height="64" viewBox="0 0 64 64" fill="none" xmlns="http://www.w3.org/2000/svg">
<path fill-rule="evenodd" clip-rule="evenodd" d="M21.0225 31C21.0225 30.4477 21.4703 30 22.0225 30H28.5225C29.0748 30 29.5225 30.4477 29.5225 31C29.5225 31.5523 29.0748 32 28.5225 32H22.0225C21.4703 32 21.0225 31.5523 21.0225 31ZM32.5225 39C32.5225 38.4477 32.9703 38 33.5225 38H51.5225C52.0748 38 52.5225 38.4477 52.5225 39C52.5225 39.5523 52.0748 40 51.5225 40H33.5225C32.9703 40 32.5225 39.5523 32.5225 39Z" fill="#212121"/>
<path fill-rule="evenodd" clip-rule="evenodd" d="M37.5225 29C37.5225 28.4477 37.9703 28 38.5225 28H46.5225C47.0748 28 47.5225 28.4477 47.5225 29C47.5225 29.5523 47.0748 30 46.5225 30H38.5225C37.9703 30 37.5225 29.5523 37.5225 29Z" fill="#212121"/>
<path fill-rule="evenodd" clip-rule="evenodd" d="M19.5225 22C19.5225 21.4477 19.9703 21 20.5225 21H29.5225C30.0748 21 30.5225 21.4477 30.5225 22C30.5225 22.5523 30.0748 23 29.5225 23H20.5225C19.9703 23 19.5225 22.5523 19.5225 22Z" fill="#212121"/>
<path fill-rule="evenodd" clip-rule="evenodd" d="M37.4903 52L27.9554 36.276C27.671 35.807 27.5206 35.269 27.5206 34.7205V23H22.5206V34.7205C22.5206 35.269 22.3702 35.807 22.0858 36.276L12.5509 52H37.4903ZM21.5206 21C20.9683 21 20.5206 21.4477 20.5206 22V34.7205C20.5206 34.9033 20.4705 35.0827 20.3757 35.239L9.91993 52.4815C9.5158 53.1479 9.9956 54 10.775 54H39.2662C40.0456 54 40.5254 53.1479 40.1212 52.4815L29.6655 35.239C29.5707 35.0827 29.5206 34.9033 29.5206 34.7205V22C29.5206 21.4477 29.0729 21 28.5206 21H21.5206Z" fill="#212121"/>
<path fill-rule="evenodd" clip-rule="evenodd" d="M39.9772 53.7044C40.7937 53.8977 41.6454 54 42.521 54C48.5961 54 53.521 49.0751 53.521 43C53.521 38.3361 50.6183 34.35 46.521 32.7499V28L38.521 28.0003V32.7499C35.5537 33.9087 33.213 36.3188 32.1475 39.3315L33.6084 41.7406C34.065 38.4801 36.2688 35.7765 39.2485 34.6129L40.521 34.1159V30.0002L44.521 30.0001V34.1159L45.7934 34.6129C49.1492 35.9234 51.521 39.1872 51.521 43C51.521 47.9706 47.4915 52 42.521 52C41.4682 52 40.4576 51.8193 39.5186 51.4871L40.1212 52.4815C40.3763 52.9022 40.2796 53.3968 39.9772 53.7044Z" fill="#212121"/>
<path d="M48.5225 43C48.5225 43.5523 48.0748 44 47.5225 44C46.9703 44 46.5225 43.5523 46.5225 43C46.5225 42.4477 46.9703 42 47.5225 42C48.0748 42 48.5225 42.4477 48.5225 43Z" fill="#212121"/>
<path d="M45.5225 45C45.5225 45.5523 45.0748 46 44.5225 46C43.9703 46 43.5225 45.5523 43.5225 45C43.5225 44.4477 43.9703 44 44.5225 44C45.0748 44 45.5225 44.4477 45.5225 45Z" fill="#212121"/>
<path d="M48.5225 47C48.5225 47.5523 48.0748 48 47.5225 48C46.9703 48 46.5225 47.5523 46.5225 47C46.5225 46.4477 46.9703 46 47.5225 46C48.0748 46 48.5225 46.4477 48.5225 47Z" fill="#212121"/>
<path fill-rule="evenodd" clip-rule="evenodd" d="M51.1191 16.3366C51.4284 16.3223 51.8261 16.1568 52.2531 15.7301C52.3528 15.6305 52.5263 15.3626 52.669 14.8032C52.8055 14.2677 52.8732 13.6255 52.8907 12.9641C52.8985 12.6683 52.896 12.3808 52.8873 12.1126C52.6192 12.1038 52.3317 12.1011 52.0359 12.1087C51.3746 12.1257 50.7324 12.1929 50.1969 12.3291C49.6374 12.4714 49.3694 12.6448 49.2697 12.7444C48.8428 13.1711 48.677 13.5687 48.6625 13.8781C48.6504 14.1365 48.7255 14.6751 49.5238 15.4741C50.3222 16.2731 50.8606 16.3485 51.1191 16.3366ZM48.1092 16.8879C50.2972 19.0777 52.3406 18.4702 53.6668 17.1449C55.4977 15.3151 54.7398 10.2613 54.7398 10.2613C54.7398 10.2613 49.6871 9.49971 47.8561 11.3296C46.53 12.6549 45.9211 14.6981 48.1092 16.8879Z" fill="#212121"/>
<path fill-rule="evenodd" clip-rule="evenodd" d="M51.179 13.7665C51.5841 14.1419 51.6083 14.7746 51.233 15.1798L48.7326 17.8789C48.3573 18.2841 47.7246 18.3082 47.3195 17.9329C46.9143 17.5575 46.8902 16.9248 47.2655 16.5196L49.7659 13.8205C50.1412 13.4153 50.7739 13.3912 51.179 13.7665Z" fill="#212121"/>
<path fill-rule="evenodd" clip-rule="evenodd" d="M54.9991 9H46.9991C46.4468 9 45.9991 9.44771 45.9991 10V18C45.9991 18.5523 46.4468 19 46.9991 19H54.9991C55.5514 19 55.9991 18.5523 55.9991 18V10C55.9991 9.44772 55.5514 9 54.9991 9ZM46.9991 7C45.3423 7 43.9991 8.34315 43.9991 10V18C43.9991 19.6569 45.3423 21 46.9991 21H54.9991C56.656 21 57.9991 19.6569 57.9991 18V10C57.9991 8.34315 56.656 7 54.9991 7H46.9991Z" fill="#212121"/>
<path fill-rule="evenodd" clip-rule="evenodd" d="M44.9991 5C44.9991 4.44772 45.4468 4 45.9991 4H55.9991C56.5514 4 56.9991 4.44772 56.9991 5C56.9991 5.55228 56.5514 6 55.9991 6H45.9991C45.4468 6 44.9991 5.55228 44.9991 5Z" fill="#212121"/>
<path fill-rule="evenodd" clip-rule="evenodd" d="M52.9991 6H48.9991V7H52.9991V6ZM46.9991 4V9H54.9991V4H46.9991Z" fill="#212121"/>
</svg>
