<svg width="64" height="64" viewBox="0 0 64 64" fill="none" xmlns="http://www.w3.org/2000/svg">
<path fill-rule="evenodd" clip-rule="evenodd" d="M50.7931 7.00575L47.356 12.9429C46.5457 14.3425 47.5553 16.095 49.1734 16.095H49.7062L49.2503 18.2757C48.7444 20.6951 51.9973 21.9813 53.2827 19.8702L56.9058 13.9203C57.7579 12.5209 56.7506 10.7281 55.1121 10.7281H54.4462L54.8597 8.51144C55.3131 6.08111 52.0317 4.86612 50.7931 7.00575ZM49.0869 13.9449L52.524 8.00778C52.6366 7.81327 52.9349 7.92372 52.8937 8.14466L52.2594 11.5447C52.2123 11.7968 52.2638 12.0409 52.384 12.2414C52.5129 12.4563 52.7208 12.6209 52.971 12.6911C53.0476 12.7126 53.1282 12.7252 53.2117 12.7277C53.2219 12.728 53.2321 12.7281 53.2424 12.7281H55.1121C55.1902 12.7281 55.2381 12.8135 55.1975 12.8801L51.5745 18.83C51.4577 19.0219 51.1619 18.905 51.2079 18.6851L51.9158 15.2996C51.9681 15.0491 51.9223 14.8047 51.8073 14.6023C51.6911 14.3977 51.5042 14.2359 51.2768 14.1539C51.212 14.1306 51.1439 14.1137 51.0732 14.1041C51.0287 14.0981 50.9833 14.095 50.9369 14.095H49.1734C49.0964 14.095 49.0483 14.0115 49.0869 13.9449Z" fill="#212121"/>
<path d="M13 52C13.5523 52 14 51.5523 14 51C14 50.4477 13.5523 50 13 50C12.4477 50 12 50.4477 12 51C12 51.5523 12.4477 52 13 52Z" fill="#212121"/>
<path d="M52 51C52 51.5523 51.5523 52 51 52C50.4477 52 50 51.5523 50 51C50 50.4477 50.4477 50 51 50C51.5523 50 52 50.4477 52 51Z" fill="#212121"/>
<path d="M32 52C32.5523 52 33 51.5523 33 51C33 50.4477 32.5523 50 32 50C31.4477 50 31 50.4477 31 51C31 51.5523 31.4477 52 32 52Z" fill="#212121"/>
<path fill-rule="evenodd" clip-rule="evenodd" d="M40.1707 47H37.8293C37.9398 46.6872 38 46.3506 38 46V34.2516C38 31.9263 37.1 29.6913 35.4887 28.0149L35 27.5064V23C35 21.8954 34.1046 21 33 21H31C29.8954 21 29 21.8954 29 23V27.5064L28.5113 28.0149C26.9 29.6913 26 31.9263 26 34.2516V46C26 46.3506 26.0602 46.6872 26.1707 47H23.8293C23.9398 46.6872 24 46.3506 24 46V34.2516C24 31.9263 23.1 29.6913 21.4887 28.0149L21 27.5064V23C21 21.8954 20.1046 21 19 21H17C15.8954 21 15 21.8954 15 23V27.5064L14.5113 28.0149C12.9 29.6913 12 31.9263 12 34.2516V46C12 46.3506 12.0602 46.6872 12.1707 47H12C9.79086 47 8 48.7909 8 51C8 53.2091 9.79086 55 12 55H52C54.2091 55 56 53.2091 56 51C56 48.7909 54.2091 47 52 47H51.8293C51.9398 46.6872 52 46.3506 52 46V34.2516C52 31.9263 51.1 29.6913 49.4887 28.0149L49 27.5064V23C49 21.8954 48.1046 21 47 21H45C43.8954 21 43 21.8954 43 23V27.5064L42.5113 28.0149C40.9 29.6913 40 31.9263 40 34.2516V46C40 46.3506 40.0602 46.6872 40.1707 47ZM52 53H12C10.8954 53 10 52.1046 10 51C10 49.8954 10.8954 49 12 49H52C53.1046 49 54 49.8954 54 51C54 52.1046 53.1046 53 52 53ZM47 23V26H45V23H47ZM47.0619 28H44.9381C44.8534 28.3327 44.6837 28.6408 44.4419 28.8924L43.9532 29.4008C42.7 30.7047 42 32.4431 42 34.2516V46C42 46.5523 42.4477 47 43 47H49C49.5523 47 50 46.5523 50 46H44V35H50V34.2516C50 32.4431 49.3 30.7047 48.0468 29.4008L47.5581 28.8924C47.3163 28.6408 47.1466 28.3327 47.0619 28ZM50 37H46V44H50V37ZM32 36H36V43H32V36ZM30 34H35.9955C35.9338 32.2825 35.2418 30.6441 34.0468 29.4008L33.5581 28.8924C33.3163 28.6408 33.1466 28.3327 33.0619 28H30.9381C30.8534 28.3327 30.6837 28.6408 30.4419 28.8924L29.9532 29.4008C28.7 30.7047 28 32.4431 28 34.2516V46C28 46.5523 28.4477 47 29 47H35C35.5523 47 36 46.5523 36 46V45H30V34ZM33 26H31V23H33V26ZM22 43V36H18V43H22ZM21.9955 34H16V45H22V46C22 46.5523 21.5523 47 21 47H15C14.4477 47 14 46.5523 14 46V34.2516C14 32.4431 14.7 30.7047 15.9532 29.4008L16.4419 28.8924C16.6837 28.6408 16.8534 28.3327 16.9381 28H19.0619C19.1466 28.3327 19.3163 28.6408 19.5581 28.8924L20.0468 29.4008C21.2418 30.6441 21.9338 32.2825 21.9955 34ZM17 26H19V23H17V26Z" fill="#212121"/>
</svg>
