<svg width="64" height="64" viewBox="0 0 64 64" fill="none" xmlns="http://www.w3.org/2000/svg">
<path fill-rule="evenodd" clip-rule="evenodd" d="M51.4996 13.9889C54.1747 16.0508 56.8485 14.9782 58.7226 13.1052C61.5529 10.2767 60.9969 3.08091 60.9969 3.08091C60.9969 3.08091 53.8023 2.51982 50.972 5.34839C49.0972 7.22206 48.0227 9.89667 50.0856 12.5745L49.2545 13.4057C48.864 13.7963 48.864 14.4295 49.2545 14.82C49.645 15.2105 50.2781 15.2105 50.6686 14.82L51.4996 13.9889ZM54.824 13.0922C55.6016 12.9994 56.4747 12.5242 57.309 11.6904C57.7077 11.292 58.0754 10.6409 58.3687 9.7316C58.6566 8.83889 58.8322 7.82479 58.9311 6.83374C58.9955 6.18873 59.0253 5.57489 59.0362 5.04049C58.5018 5.05096 57.888 5.08037 57.243 5.14429C56.252 5.24249 55.2379 5.4174 54.345 5.70474C53.4356 5.99741 52.7843 6.36469 52.3856 6.76317C51.5513 7.59697 51.0756 8.4698 50.9823 9.24741C50.9211 9.75737 51.002 10.3922 51.5163 11.1437L54.4571 8.20246C54.8477 7.81191 55.4808 7.8119 55.8713 8.20244C56.2618 8.59298 56.2618 9.22618 55.8713 9.61673L52.9302 12.5582C53.6804 13.0718 54.3145 13.153 54.824 13.0922Z" fill="#0B0D0E"/>
<path fill-rule="evenodd" clip-rule="evenodd" d="M23.7574 24.0713C22.1277 24.0713 20.8065 25.3925 20.8065 27.0223C20.8065 28.652 22.1277 29.9732 23.7574 29.9732C25.3872 29.9732 26.7084 28.652 26.7084 27.0223C26.7084 25.3925 25.3872 24.0713 23.7574 24.0713ZM22.8065 27.0223C22.8065 26.4971 23.2323 26.0713 23.7574 26.0713C24.2826 26.0713 24.7084 26.4971 24.7084 27.0223C24.7084 27.5475 24.2826 27.9732 23.7574 27.9732C23.2323 27.9732 22.8065 27.5475 22.8065 27.0223Z" fill="#0B0D0E"/>
<path fill-rule="evenodd" clip-rule="evenodd" d="M54.6506 50.7096C56.1562 49.3475 57.102 47.3781 57.102 45.1879C57.102 41.4414 54.3345 38.3414 50.7322 37.8206C50.7133 36.18 49.3775 34.8559 47.7325 34.8559H44.6918C44.1395 34.8559 43.6918 35.3037 43.6918 35.8559C43.6918 36.4082 44.1395 36.8559 44.6918 36.8559H47.7325C48.2662 36.8559 48.7023 37.2741 48.7309 37.8008C45.057 38.257 42.2135 41.3904 42.2135 45.1879C42.2135 46.1833 42.4088 47.133 42.7633 48.0009C41.784 47.0063 41.1797 45.6414 41.1797 44.1353V29.8009C41.3229 28.8959 41.3972 27.9679 41.3972 27.0225C41.3972 17.2809 33.5001 9.38377 23.7585 9.38377C14.0169 9.38377 6.11975 17.2809 6.11975 27.0225C6.11975 34.7155 11.0439 41.2561 17.9108 43.6685V50.644H9.2069C7.50158 50.644 6.11914 52.0265 6.11914 53.7318C6.11914 55.4371 7.50157 56.8195 9.2069 56.8195H54.0144C55.7197 56.8195 57.1021 55.4371 57.1021 53.7318C57.1021 52.2446 56.0507 51.0029 54.6506 50.7096ZM8.11975 27.0225C8.11975 18.3855 15.1215 11.3838 23.7585 11.3838C32.3955 11.3838 39.3972 18.3855 39.3972 27.0225C39.3972 33.5938 35.3436 39.2203 29.5992 41.5344V26.9921C29.5992 23.7645 26.9826 21.1479 23.755 21.1479C20.5273 21.1479 17.9108 23.7645 17.9108 26.9921V41.5316C12.1701 39.2157 8.11975 33.5911 8.11975 27.0225ZM39.1797 35.5914C37.0969 39.3315 33.693 42.2348 29.5992 43.671V50.644H42.941C40.6928 49.3465 39.1797 46.9176 39.1797 44.1353V35.5914ZM44.2135 45.1879C44.2135 42.4965 46.1664 40.2613 48.7325 39.8219V42.2526C47.5554 42.6404 46.7057 43.7489 46.7057 45.0559C46.7057 46.6856 48.0269 48.0068 49.6566 48.0068C51.2864 48.0068 52.6076 46.6856 52.6076 45.0559C52.6076 43.8058 51.8302 42.7372 50.7325 42.3072V39.8497C53.2245 40.3486 55.102 42.549 55.102 45.1879C55.102 48.1947 52.6646 50.6322 49.6578 50.6322C48.5626 50.6322 47.543 50.3088 46.6892 49.7524L46.6892 49.645C46.635 49.645 46.581 49.6442 46.5272 49.6426C45.1278 48.6574 44.2135 47.0294 44.2135 45.1879ZM49.6566 44.105C49.1314 44.105 48.7057 44.5307 48.7057 45.0559C48.7057 45.5811 49.1314 46.0068 49.6566 46.0068C50.1818 46.0068 50.6076 45.5811 50.6076 45.0559C50.6076 44.5307 50.1818 44.105 49.6566 44.105ZM23.755 23.1479C21.6319 23.1479 19.9108 24.869 19.9108 26.9921V50.6323H27.5992V26.9921C27.5992 24.869 25.878 23.1479 23.755 23.1479ZM8.11914 53.7318C8.11914 53.131 8.60615 52.644 9.2069 52.644H54.0144C54.6151 52.644 55.1021 53.131 55.1021 53.7318C55.1021 54.3325 54.6151 54.8195 54.0144 54.8195H9.2069C8.60615 54.8195 8.11914 54.3325 8.11914 53.7318Z" fill="#0B0D0E"/>
</svg>
