<svg width="65" height="64" viewBox="0 0 65 64" fill="none" xmlns="http://www.w3.org/2000/svg">
<path fill-rule="evenodd" clip-rule="evenodd" d="M58.6453 41.8945C58.8536 42.311 58.962 42.7703 58.962 43.2361V46C58.962 47.6569 57.6189 49 55.962 49H51.9621C51.9621 51.7614 49.7235 54 46.9621 54C44.2007 54 41.9621 51.7614 41.9621 49H23.9621C23.9621 51.7614 21.7235 54 18.9621 54C16.2007 54 13.9621 51.7614 13.9621 49H9.96204C8.30518 49 6.96204 47.6569 6.96204 46V43.1149C6.96204 42.8859 6.98825 42.6576 7.04017 42.4346L8.98808 42.8881C8.97078 42.9625 8.96204 43.0385 8.96204 43.1149V46C8.96204 46.5523 9.40975 47 9.96204 47H14.3781C15.1497 45.2341 16.9118 44 18.9621 44C21.0124 44 22.7745 45.2341 23.5461 47H42.3781C43.1497 45.2341 44.9118 44 46.9621 44C49.0124 44 50.7745 45.2341 51.5461 47H55.962C56.5143 47 56.962 46.5523 56.962 46V43.2361C56.962 43.0808 56.9259 42.9277 56.8565 42.7889L54.1588 37.3935C54.0335 37.1427 53.8086 36.9562 53.5391 36.8792L47.2252 35.0752C47.1318 35.0485 47.0433 35.0085 46.9621 34.9567V35H21.1547C20.9002 35 20.6481 34.9515 20.4119 34.857L16.1242 33.1419L11.7134 33.8889C11.316 33.9562 10.9978 34.2555 10.9064 34.6481L8.98808 42.8881L7.04017 42.4346L8.95853 34.1946C9.23273 33.0169 10.1872 32.1189 11.3795 31.917L15.8195 31.165L19.7888 25.6605C20.5407 24.6178 21.7478 24 23.0333 24H38.0081C38.832 24 39.6197 24.3389 40.1862 24.9371L48.0378 33.2273L54.0886 34.9561C54.8971 35.1871 55.5716 35.7469 55.9477 36.4991L58.6453 41.8945ZM38.7341 26.3124L45.0679 33H33.6828L31.3495 26H38.0081C38.2827 26 38.5453 26.113 38.7341 26.3124ZM29.2413 26L31.5747 33H21.1547L17.9007 31.6984L21.411 26.8302C21.787 26.3089 22.3905 26 23.0333 26H29.2413ZM49.1982 47C48.6489 46.3863 47.8506 46 46.9621 46C46.0736 46 45.2753 46.3863 44.726 47C44.2509 47.5308 43.9621 48.2316 43.9621 49C43.9621 50.6569 45.3052 52 46.9621 52C48.6189 52 49.9621 50.6569 49.9621 49C49.9621 48.2316 49.6732 47.5308 49.1982 47ZM18.9621 46C18.0736 46 17.2753 46.3863 16.726 47C16.251 47.5308 15.9621 48.2316 15.9621 49C15.9621 50.6569 17.3052 52 18.9621 52C20.619 52 21.9621 50.6569 21.9621 49C21.9621 48.2316 21.6732 47.5308 21.1982 47C20.6489 46.3863 19.8506 46 18.9621 46Z" fill="#0B0D0E"/>
<path fill-rule="evenodd" clip-rule="evenodd" d="M55.1704 18.4157C55.6707 17.7597 55.9585 16.7456 55.9589 15.5032C55.9591 14.8907 55.7491 14.1254 55.3092 13.2391C54.8765 12.3673 54.2782 11.4919 53.6441 10.6925C53.2375 10.1799 52.8287 9.71417 52.4611 9.31829C52.0932 9.71391 51.6841 10.1793 51.2771 10.6917C50.6425 11.4906 50.0436 12.3656 49.6102 13.237C49.1697 14.1231 48.9591 14.8882 48.9589 15.5007C48.9585 16.7431 49.2456 17.7574 49.7454 18.4138C50.1771 18.9808 50.9287 19.5014 52.4575 19.5019C53.9864 19.5025 54.7383 18.9824 55.1704 18.4157ZM51.1361 7.99916C51.136 7.99906 51.136 7.99908 51.1361 7.99916V7.99916ZM52.4568 21.5019C56.5989 21.5034 57.9579 18.5039 57.9589 15.5039C57.9604 11.3617 52.4621 6.50194 52.4621 6.50194C52.4621 6.50194 46.9604 11.3579 46.9589 15.5C46.9579 18.5 48.3147 21.5005 52.4568 21.5019Z" fill="#0B0D0E"/>
</svg>
