<svg width="64" height="64" viewBox="0 0 64 64" fill="none" xmlns="http://www.w3.org/2000/svg">
<path d="M31 9C31 8.44772 31.4477 8 32 8C32.5523 8 33 8.44772 33 9V54C33 54.5523 32.5523 55 32 55C31.4477 55 31 54.5523 31 54V9Z" fill="#0B0D0E"/>
<path fill-rule="evenodd" clip-rule="evenodd" d="M38 24V21H37C36.4477 21 36 20.5523 36 20C36 19.4477 36.4477 19 37 19H52C52.5523 19 53 19.4477 53 20C53 20.5523 52.5523 21 52 21H51V24C52.6569 24 54 25.3431 54 27V43C54 44.6569 52.6569 46 51 46H38C36.3431 46 35 44.6569 35 43V27C35 25.3431 36.3431 24 38 24ZM49 21V24H40V21H49ZM37 32V37H52V32H37ZM52 30H37V27C37 26.4477 37.4477 26 38 26H51C51.5523 26 52 26.4477 52 27V30ZM52 39H37V43C37 43.5523 37.4477 44 38 44H51C51.5523 44 52 43.5523 52 43V39Z" fill="#0B0D0E"/>
<path fill-rule="evenodd" clip-rule="evenodd" d="M20.4604 14H29V16H20.4604C19.506 16 18.6846 16.6744 18.4987 17.6105L16.9105 25.6105C16.6649 26.8473 17.6112 28 18.8722 28H29V30H15C13.3431 30 12 31.3431 12 33V44C12 44.5523 12.4477 45 13 45H29V47H23V50C23 51.1046 22.1046 52 21 52H17C15.8954 52 15 51.1046 15 50V47H13C11.3431 47 10 45.6569 10 44V33C10 30.2386 12.2386 28 15 28H13C11.8954 28 11 28.0994 11 26.9948C11 26.4425 11.4477 25.9948 12 25.9948H15.1912L16.537 17.2211C16.9087 15.3488 18.5516 14 20.4604 14ZM21 50V47H17V50H21Z" fill="#0B0D0E"/>
<path d="M27 34H29V36H27C26.4477 36 26 35.5523 26 35C26 34.4477 26.4477 34 27 34Z" fill="#0B0D0E"/>
<path d="M27 38H29V40H27C26.4477 40 26 39.5523 26 39C26 38.4477 26.4477 38 27 38Z" fill="#0B0D0E"/>
<path fill-rule="evenodd" clip-rule="evenodd" d="M19 41C21.2091 41 23 39.2091 23 37C23 34.7909 21.2091 33 19 33C16.7909 33 15 34.7909 15 37C15 39.2091 16.7909 41 19 41ZM21 37C21 38.1046 20.1046 39 19 39C17.8954 39 17 38.1046 17 37C17 35.8954 17.8954 35 19 35C20.1046 35 21 35.8954 21 37Z" fill="#0B0D0E"/>
</svg>
