<svg width="64" height="64" viewBox="0 0 64 64" fill="none" xmlns="http://www.w3.org/2000/svg">
<path d="M31 9C31 8.44772 31.4477 8 32 8C32.5523 8 33 8.44772 33 9V54C33 54.5523 32.5523 55 32 55C31.4477 55 31 54.5523 31 54V9Z" fill="#0B0D0E"/>
<path fill-rule="evenodd" clip-rule="evenodd" d="M29 14H20.4604C18.5516 14 16.9087 15.3488 16.537 17.2211L15.1912 25.9673H12C11.4477 25.9673 11 26.415 11 26.9673C11 28.0718 11.8954 28 13 28H15C12.2386 28 10 30.2386 10 33V44C10 45.6569 11.3431 47 13 47H15V50C15 51.1046 15.8954 52 17 52H21C22.1046 52 23 51.1046 23 50V47H29V45H13C12.4477 45 12 44.5523 12 44V33C12 31.3431 13.3431 30 15 30H29V28H18.8722C17.6112 28 16.6649 26.8473 16.9105 25.6105L18.4987 17.6105C18.6846 16.6744 19.506 16 20.4604 16H29V14ZM17 50V47H21V50H17Z" fill="#0B0D0E"/>
<path d="M27 34H29V36H27C26.4477 36 26 35.5523 26 35C26 34.4477 26.4477 34 27 34Z" fill="#0B0D0E"/>
<path d="M29 38H27C26.4477 38 26 38.4477 26 39C26 39.5523 26.4477 40 27 40H29V38Z" fill="#0B0D0E"/>
<path fill-rule="evenodd" clip-rule="evenodd" d="M19 41C21.2091 41 23 39.2091 23 37C23 34.7909 21.2091 33 19 33C16.7909 33 15 34.7909 15 37C15 39.2091 16.7909 41 19 41ZM21 37C21 38.1046 20.1046 39 19 39C17.8954 39 17 38.1046 17 37C17 35.8954 17.8954 35 19 35C20.1046 35 21 35.8954 21 37Z" fill="#0B0D0E"/>
<path fill-rule="evenodd" clip-rule="evenodd" d="M50.0104 16.4092C50.4638 13.9788 47.1824 12.7639 45.9437 14.9035L36.2217 31.697C35.4118 33.0959 36.4203 34.8491 38.0391 34.8491H43.4192L41.1307 45.7946C40.6249 48.2139 43.8777 49.5001 45.1632 47.389L55.3969 30.5828C56.2491 29.1833 55.2417 27.3906 53.6033 27.3906H47.9618L50.0104 16.4092ZM53.6033 29.3906C53.6813 29.3906 53.7293 29.4759 53.6887 29.5426L43.455 46.3488C43.3381 46.5407 43.0424 46.4238 43.0884 46.2039L45.6288 34.0537C45.7586 33.4326 45.2845 32.8491 44.6499 32.8491H38.0391C37.9621 32.8491 37.914 32.7656 37.9526 32.699L47.6746 15.9055C47.7872 15.711 48.0855 15.8214 48.0443 16.0424L45.7749 28.2072C45.6602 28.8223 46.1322 29.3906 46.758 29.3906H53.6033Z" fill="#0B0D0E"/>
</svg>
