<svg width="64" height="64" viewBox="0 0 64 64" fill="none" xmlns="http://www.w3.org/2000/svg">
<path fill-rule="evenodd" clip-rule="evenodd" d="M48.0994 8.14528C46.2245 10.0189 45.15 12.6936 47.2136 15.3713L46.3827 16.2022C45.9922 16.5927 45.9922 17.2259 46.3827 17.6164C46.7733 18.007 47.4064 18.0069 47.797 17.6164L48.6278 16.7855C51.3027 18.8465 53.9761 17.774 55.8501 15.9014C58.6803 13.0731 58.1244 5.87803 58.1244 5.87803C58.1244 5.87803 50.9297 5.31699 48.0994 8.14528ZM51.9514 15.8882C52.729 15.7955 53.602 15.3204 54.4363 14.4867C54.835 14.0882 55.2027 13.4372 55.496 12.528C55.784 11.6354 55.9596 10.6214 56.0585 9.63048C56.1228 8.98558 56.1527 8.37184 56.1635 7.83751C55.6292 7.84799 55.0154 7.87739 54.3705 7.9413C53.3795 8.03949 52.3653 8.21438 51.4725 8.50169C50.5631 8.79433 49.9119 9.16157 49.5132 9.55999C48.6789 10.3937 48.2031 11.2664 48.1098 12.0439C48.0486 12.554 48.1296 13.189 48.6443 13.9407L51.5854 10.9995C51.9759 10.6089 52.6091 10.6089 52.9996 10.9994C53.3901 11.39 53.3901 12.0231 52.9996 12.4137L50.0585 15.3548C50.8083 15.8679 51.4421 15.949 51.9514 15.8882Z" fill="#0B0D0E"/>
<path fill-rule="evenodd" clip-rule="evenodd" d="M29.9264 16.498C30.5815 16.0811 31.4187 16.0811 32.0739 16.498L53.537 30.1563C54.0029 30.4528 54.1403 31.0709 53.8438 31.5369C53.5473 32.0028 52.9292 32.1402 52.4632 31.8437L49.0001 29.6398V54.0966C49.0001 55.2012 48.1047 56.0966 47.0001 56.0966H15.0001C13.8956 56.0966 13.0001 55.2012 13.0001 54.0966V29.6398L9.537 31.8437C9.07106 32.1402 8.45297 32.0028 8.15646 31.5369C7.85996 31.0709 7.99731 30.4528 8.46325 30.1563L15.4064 25.738V18.3999C15.4064 17.8476 15.8541 17.3999 16.4064 17.3999H20.4064C20.9587 17.3999 21.4064 17.8476 21.4064 18.3999V21.9198L29.9264 16.498ZM15.0001 28.3671V54.0966H24.0001V44.2321C24.0001 44.2321 24.0001 37 31.0001 37C38.0001 37 38.0001 44.2321 38.0001 44.2321V54.0966H47.0001V28.3671L31.0001 18.1853L15.0001 28.3671ZM19.4064 23.1925L17.4064 24.4653V19.3999H19.4064V23.1925ZM36.0001 44.2414L35.9995 44.2154C35.9985 44.1853 35.9963 44.1321 35.9912 44.0593C35.9811 43.913 35.96 43.6915 35.9163 43.4206C35.8273 42.8692 35.6532 42.1656 35.3249 41.4873C34.9996 40.8153 34.5463 40.2137 33.9125 39.7771C33.2945 39.3514 32.3865 39 31.0001 39C29.6138 39 28.7058 39.3514 28.0877 39.7771C27.4539 40.2137 27.0006 40.8153 26.6754 41.4873C26.3471 42.1656 26.1729 42.8692 26.084 43.4206C26.0403 43.6915 26.0191 43.913 26.009 44.0593C26.004 44.1321 26.0018 44.1853 26.0008 44.2154L26.0001 44.2414V54H36.0001V44.2414Z" fill="#0B0D0E"/>
</svg>
