<svg width="64" height="64" viewBox="0 0 64 64" fill="none" xmlns="http://www.w3.org/2000/svg">
<path d="M53.4906 5.39687L52.9117 6.21227C53.4906 5.39687 53.4915 5.39751 53.4915 5.39751L53.4926 5.39833L53.4957 5.40054L53.505 5.40722L53.5356 5.42949C53.5612 5.44826 53.597 5.47486 53.642 5.50902C53.7319 5.57731 53.8584 5.67597 54.0128 5.8028C54.321 6.05605 54.7426 6.42394 55.2048 6.88886C56.1196 7.80902 57.239 9.15485 57.9223 10.7849C58.1358 11.2942 57.8959 11.8802 57.3866 12.0937C56.8772 12.3072 56.2912 12.0674 56.0777 11.558C55.5337 10.2601 54.609 9.12635 53.7864 8.2989C53.4511 7.96162 53.1404 7.68283 52.8922 7.47255C52.855 7.50222 52.8164 7.53335 52.7765 7.56593C52.3462 7.91705 51.7735 8.42897 51.2032 9.07042C50.0425 10.3761 49 12.0955 49 14.0123C49 15.1778 49.2746 16.2302 49.8552 16.9697C50.4038 17.6684 51.3219 18.2123 52.9117 18.2123C53.7315 18.2123 54.3647 18.0663 54.8532 17.8426C55.3554 17.6128 55.9489 17.8335 56.1787 18.3357C56.4086 18.8379 56.1878 19.4313 55.6857 19.6612C54.8952 20.023 53.9705 20.2123 52.9117 20.2123C50.8024 20.2123 49.2646 19.4561 48.2822 18.2048C47.3317 16.9943 47 15.4467 47 14.0123C47 11.379 48.4134 9.19841 49.7085 7.74161C50.3661 7.00181 51.0213 6.41686 51.512 6.01642C51.758 5.81561 51.9646 5.65965 52.1121 5.55229C52.1859 5.49857 52.2451 5.45691 52.2872 5.42778C52.3082 5.41322 52.325 5.40177 52.3372 5.39351L52.3521 5.3835L52.3568 5.3803L52.3599 5.37831L52.9316 5L53.4906 5.39687Z" fill="#212121"/>
<path d="M51.3008 11.026C50.8866 11.026 50.5508 11.3618 50.5508 11.776V15.2744C50.5508 15.6886 50.8866 16.0244 51.3008 16.0244C51.715 16.0244 52.0508 15.6886 52.0508 15.2744V14.3519H53.8359V15.2744C53.8359 15.6886 54.1717 16.0244 54.5859 16.0244C55.0002 16.0244 55.3359 15.6886 55.3359 15.2744V11.776C55.3359 11.3618 55.0002 11.026 54.5859 11.026C54.1717 11.026 53.8359 11.3618 53.8359 11.776V12.8519H52.0508V11.776C52.0508 11.3618 51.715 11.026 51.3008 11.026Z" fill="#212121"/>
<path d="M58.5992 17.212C58.8206 17.212 59 17.0222 59 16.788C59 16.5539 58.8205 16.3641 58.5991 16.3641L57.4288 16.3643L58.1999 15.6132L58.2057 15.607C58.7237 15.0592 58.7237 14.171 58.2057 13.6232C57.6878 13.0753 56.8479 13.0753 56.3299 13.6232C56.1919 13.7691 56.0902 13.9401 56.0255 14.1229C55.9479 14.3422 56.0532 14.5864 56.2605 14.6685C56.4678 14.7505 56.6988 14.6393 56.7764 14.42C56.8017 14.3485 56.8415 14.2812 56.8968 14.2227C57.1017 14.006 57.434 14.006 57.6389 14.2227C57.8421 14.4376 57.8438 14.785 57.6439 15.0022L56.2813 16.3293C55.959 16.6432 56.169 17.2123 56.6072 17.2123L58.5992 17.212Z" fill="#212121"/>
<path d="M13 52C13.5523 52 14 51.5523 14 51C14 50.4477 13.5523 50 13 50C12.4477 50 12 50.4477 12 51C12 51.5523 12.4477 52 13 52Z" fill="#212121"/>
<path d="M52 51C52 51.5523 51.5523 52 51 52C50.4477 52 50 51.5523 50 51C50 50.4477 50.4477 50 51 50C51.5523 50 52 50.4477 52 51Z" fill="#212121"/>
<path d="M32 52C32.5523 52 33 51.5523 33 51C33 50.4477 32.5523 50 32 50C31.4477 50 31 50.4477 31 51C31 51.5523 31.4477 52 32 52Z" fill="#212121"/>
<path fill-rule="evenodd" clip-rule="evenodd" d="M40.1707 47H37.8293C37.9398 46.6872 38 46.3506 38 46V34.2516C38 31.9263 37.1 29.6913 35.4887 28.0149L35 27.5064V23C35 21.8954 34.1046 21 33 21H31C29.8954 21 29 21.8954 29 23V27.5064L28.5113 28.0149C26.9 29.6913 26 31.9263 26 34.2516V46C26 46.3506 26.0602 46.6872 26.1707 47H23.8293C23.9398 46.6872 24 46.3506 24 46V34.2516C24 31.9263 23.1 29.6913 21.4887 28.0149L21 27.5064V23C21 21.8954 20.1046 21 19 21H17C15.8954 21 15 21.8954 15 23V27.5064L14.5113 28.0149C12.9 29.6913 12 31.9263 12 34.2516V46C12 46.3506 12.0602 46.6872 12.1707 47H12C9.79086 47 8 48.7909 8 51C8 53.2091 9.79086 55 12 55H52C54.2091 55 56 53.2091 56 51C56 48.7909 54.2091 47 52 47H51.8293C51.9398 46.6872 52 46.3506 52 46V34.2516C52 31.9263 51.1 29.6913 49.4887 28.0149L49 27.5064V23C49 21.8954 48.1046 21 47 21H45C43.8954 21 43 21.8954 43 23V27.5064L42.5113 28.0149C40.9 29.6913 40 31.9263 40 34.2516V46C40 46.3506 40.0602 46.6872 40.1707 47ZM52 53H12C10.8954 53 10 52.1046 10 51C10 49.8954 10.8954 49 12 49H52C53.1046 49 54 49.8954 54 51C54 52.1046 53.1046 53 52 53ZM47 23V26H45V23H47ZM47.0619 28H44.9381C44.8534 28.3327 44.6837 28.6408 44.4419 28.8924L43.9532 29.4008C42.7 30.7047 42 32.4431 42 34.2516V46C42 46.5523 42.4477 47 43 47H49C49.5523 47 50 46.5523 50 46H44V35H50V34.2516C50 32.4431 49.3 30.7047 48.0468 29.4008L47.5581 28.8924C47.3163 28.6408 47.1466 28.3327 47.0619 28ZM50 37H46V44H50V37ZM32 36H36V43H32V36ZM30 34H35.9955C35.9338 32.2825 35.2418 30.6441 34.0468 29.4008L33.5581 28.8924C33.3163 28.6408 33.1466 28.3327 33.0619 28H30.9381C30.8534 28.3327 30.6837 28.6408 30.4419 28.8924L29.9532 29.4008C28.7 30.7047 28 32.4431 28 34.2516V46C28 46.5523 28.4477 47 29 47H35C35.5523 47 36 46.5523 36 46V45H30V34ZM33 26H31V23H33V26ZM22 43V36H18V43H22ZM21.9955 34H16V45H22V46C22 46.5523 21.5523 47 21 47H15C14.4477 47 14 46.5523 14 46V34.2516C14 32.4431 14.7 30.7047 15.9532 29.4008L16.4419 28.8924C16.6837 28.6408 16.8534 28.3327 16.9381 28H19.0619C19.1466 28.3327 19.3163 28.6408 19.5581 28.8924L20.0468 29.4008C21.2418 30.6441 21.9338 32.2825 21.9955 34ZM17 26H19V23H17V26Z" fill="#212121"/>
</svg>
