<svg width="65" height="65" viewBox="0 0 65 65" fill="none" xmlns="http://www.w3.org/2000/svg">
<path fill-rule="evenodd" clip-rule="evenodd" d="M23.962 21.0001C23.962 20.4478 24.4098 20.0001 24.962 20.0001H30.962C31.5143 20.0001 31.962 20.4478 31.962 21.0001V27.0001C31.962 27.5523 31.5143 28.0001 30.962 28.0001H24.962C24.4098 28.0001 23.962 27.5523 23.962 27.0001V21.0001ZM25.962 26.0001V22.0001H29.962V26.0001H25.962Z" fill="#0B0D0E"/>
<path fill-rule="evenodd" clip-rule="evenodd" d="M34.962 20.0001C34.4098 20.0001 33.962 20.4478 33.962 21.0001V27.0001C33.962 27.5523 34.4098 28.0001 34.962 28.0001H40.962C41.5143 28.0001 41.962 27.5523 41.962 27.0001V21.0001C41.962 20.4478 41.5143 20.0001 40.962 20.0001H34.962ZM35.962 22.0001V26.0001H39.962V22.0001H35.962Z" fill="#0B0D0E"/>
<path fill-rule="evenodd" clip-rule="evenodd" d="M23.962 32.0001C23.962 30.8955 24.8574 30.0001 25.962 30.0001H31.962C33.0666 30.0001 33.962 30.8955 33.962 32.0001V33.0001C33.962 34.1046 33.0666 35.0001 31.962 35.0001V38.0001L38.962 38.0001C40.6189 38.0001 41.962 39.3432 41.962 41.0001V47.0001C43.0666 47.0001 43.962 47.8955 43.962 49.0001V50.0001C43.962 51.1046 43.0666 52.0001 41.962 52.0001H35.962C34.8574 52.0001 33.962 51.1046 33.962 50.0001V49.0001C33.962 47.8955 34.8574 47.0001 35.962 47.0001V44.0001L28.962 44.0001C27.3052 44.0001 25.962 42.6569 25.962 41.0001V35.0001C24.8574 35.0001 23.962 34.1046 23.962 33.0001V32.0001ZM27.962 35.0001H29.962V39.0001C29.9624 39.552 30.41 40.0001 30.962 40.0001L38.962 40.0001C39.5143 40.0001 39.962 40.4478 39.962 41.0001V47.0001H37.962V43.0001C37.962 42.4478 37.5143 42.0001 36.962 42.0001L28.962 42.0001C28.4097 42.0001 27.962 41.5523 27.962 41.0001L27.962 35.0001ZM31.962 32.0001H25.962V33.0001H31.962V32.0001ZM41.962 50.0001V49.0001H35.962V50.0001H41.962Z" fill="#0B0D0E"/>
<path fill-rule="evenodd" clip-rule="evenodd" d="M23.962 14.0001V11.0001C23.962 9.89549 24.8575 9.00006 25.962 9.00006H39.962C41.0666 9.00006 41.962 9.89549 41.962 11.0001V14.0001H44.962C46.0666 14.0001 46.962 14.8955 46.962 16.0001V54.0001C46.962 55.1046 46.0666 56.0001 44.962 56.0001H20.962C19.8575 56.0001 18.962 55.1046 18.962 54.0001V16.0001C18.962 14.8955 19.8575 14.0001 20.962 14.0001H23.962ZM25.962 11.0001H39.962L39.962 14.0001H25.962V11.0001ZM20.962 16.0001V54.0001H44.962V16.0001H20.962Z" fill="#0B0D0E"/>
<path d="M53.9621 2.00006C54.5143 2.00006 54.9621 2.44778 54.9621 3.00006V6.57591L58.3892 4.18044C58.8418 3.86404 59.4653 3.9745 59.7817 4.42717C60.0981 4.87984 59.9876 5.50329 59.535 5.81969L55.7076 8.49495L59.535 11.1702C59.9876 11.4866 60.0981 12.1101 59.7817 12.5627C59.4653 13.0154 58.8418 13.1259 58.3892 12.8095L54.9621 10.414V14.0001C54.9621 14.5523 54.5143 15.0001 53.9621 15.0001C53.4098 15.0001 52.9621 14.5523 52.9621 14.0001V10.414L49.5349 12.8095C49.0823 13.1259 48.4588 13.0154 48.1424 12.5627C47.826 12.1101 47.9365 11.4866 48.3891 11.1702L52.2165 8.49495L48.3891 5.81969C47.9365 5.50329 47.826 4.87984 48.1424 4.42717C48.4588 3.9745 49.0823 3.86404 49.5349 4.18044L52.9621 6.57591V3.00006C52.9621 2.44778 53.4098 2.00006 53.9621 2.00006Z" fill="#0B0D0E"/>
</svg>
