<svg width="64" height="64" viewBox="0 0 64 64" fill="none" xmlns="http://www.w3.org/2000/svg">
<path fill-rule="evenodd" clip-rule="evenodd" d="M48.0998 8.14575C46.2249 10.0195 45.1504 12.6941 47.2135 15.372L46.3826 16.203C45.9921 16.5936 45.9921 17.2268 46.3826 17.6173C46.7731 18.0078 47.4063 18.0078 47.7968 17.6173L48.6276 16.7864C51.3026 18.8481 53.9763 17.7755 55.8504 15.9026C58.6807 13.074 58.1247 5.87828 58.1247 5.87828C58.1247 5.87828 50.93 5.31718 48.0998 8.14575ZM51.9517 15.8896C52.7293 15.7968 53.6024 15.3216 54.4367 14.4878C54.8354 14.0893 55.2031 13.4383 55.4964 12.529C55.7844 11.6363 55.96 10.6221 56.0589 9.6311C56.1232 8.9861 56.1531 8.37226 56.1639 7.83785C55.6296 7.84833 55.0158 7.87774 54.3708 7.94165C53.3798 8.03986 52.3656 8.21476 51.4728 8.5021C50.5634 8.79478 49.9121 9.16206 49.5134 9.56053C48.6791 10.3943 48.2033 11.2672 48.11 12.0448C48.0488 12.5548 48.1298 13.1897 48.6441 13.9412L51.5853 10.9998C51.9758 10.6092 52.6089 10.6092 52.9994 10.9997C53.3899 11.3903 53.3899 12.0235 52.9994 12.414L50.0581 15.3556C50.8082 15.8691 51.4423 15.9503 51.9517 15.8896Z" fill="#212121"/>
<path d="M45.9117 40.2121L46.4906 39.3967L45.9316 38.9999L45.3599 39.3782L45.3568 39.3802L45.3521 39.3834L45.3372 39.3934C45.325 39.4016 45.3082 39.4131 45.2872 39.4276C45.2451 39.4568 45.1859 39.4984 45.1121 39.5521C44.9646 39.6595 44.758 39.8155 44.512 40.0163C44.0213 40.4167 43.3661 41.0017 42.7085 41.7415C41.4134 43.1983 40 45.3789 40 48.0121C40 49.4466 40.3317 50.9942 41.2822 52.2047C42.2646 53.456 43.8024 54.2121 45.9117 54.2121C46.9705 54.2121 47.8952 54.0228 48.6857 53.661C49.1878 53.4312 49.4086 52.8377 49.1787 52.3355C48.9489 51.8334 48.3554 51.6126 47.8532 51.8425C47.3647 52.0661 46.7315 52.2121 45.9117 52.2121C44.3219 52.2121 43.4038 51.6683 42.8552 50.9696C42.2746 50.2301 42 49.1776 42 48.0121C42 46.0954 43.0425 44.376 44.2032 43.0703C44.7735 42.4288 45.3462 41.9169 45.7765 41.5658C45.8164 41.5332 45.855 41.5021 45.8922 41.4724C46.1404 41.6827 46.4511 41.9615 46.7864 42.2988C47.609 43.1262 48.5337 44.26 49.0777 45.5579C49.2912 46.0672 49.8772 46.3071 50.3866 46.0936C50.8959 45.8801 51.1358 45.2941 50.9223 44.7847C50.239 43.1547 49.1196 41.8089 48.2048 40.8887C47.7426 40.4238 47.321 40.0559 47.0128 39.8027C46.8584 39.6758 46.7319 39.5772 46.642 39.5089C46.597 39.4747 46.5612 39.4481 46.5356 39.4293L46.505 39.4071L46.4957 39.4004L46.4915 39.3974C46.4915 39.3974 46.4906 39.3967 45.9117 40.2121Z" fill="#212121"/>
<path d="M44.3008 45.0259C43.8866 45.0259 43.5508 45.3616 43.5508 45.7759V49.2743C43.5508 49.6885 43.8866 50.0243 44.3008 50.0243C44.715 50.0243 45.0508 49.6885 45.0508 49.2743V48.3517H46.8359V49.2743C46.8359 49.6885 47.1717 50.0243 47.5859 50.0243C48.0002 50.0243 48.3359 49.6885 48.3359 49.2743V45.7759C48.3359 45.3616 48.0002 45.0259 47.5859 45.0259C47.1717 45.0259 46.8359 45.3616 46.8359 45.7759V46.8517H45.0508V45.7759C45.0508 45.3616 44.715 45.0259 44.3008 45.0259Z" fill="#212121"/>
<path d="M52 50.7879C52 51.022 51.8206 51.2118 51.5992 51.2119L49.6072 51.2121C49.169 51.2122 48.959 50.6431 49.2813 50.3292L50.6439 49.002C50.8438 48.7849 50.8421 48.4375 50.6389 48.2225C50.434 48.0058 50.1017 48.0058 49.8968 48.2225C49.8415 48.281 49.8017 48.3484 49.7764 48.4198C49.6988 48.6391 49.4678 48.7504 49.2605 48.6683C49.0532 48.5863 48.9479 48.342 49.0255 48.1227C49.0902 47.94 49.1919 47.7689 49.3299 47.623C49.8479 47.0752 50.6878 47.0752 51.2057 47.623C51.7237 48.1709 51.7237 49.059 51.2057 49.6069L51.1999 49.613L50.4288 50.3642L51.5991 50.364C51.8205 50.364 52 50.5537 52 50.7879Z" fill="#212121"/>
<path fill-rule="evenodd" clip-rule="evenodd" d="M26.9524 13C26.4191 13 25.9796 13.4186 25.9536 13.9513L25.6585 20H18C16.3431 20 15 21.3431 15 23V28H11C10.4477 28 10 28.4477 10 29V47C10 47.5523 10.4477 48 11 48H13V52H11C10.4477 52 10 52.4477 10 53C10 53.5523 10.4477 54 11 54H21C21.5523 54 22 53.5523 22 53C22 52.4477 21.5523 52 21 52H19V48H21C21.5523 48 22 47.5523 22 47V29C22 28.4477 21.5523 28 21 28H17V23C17 22.4477 17.4477 22 18 22H25.561L24.0512 52.9513C24.0233 53.522 24.4786 54 25.05 54H34.95C35.5214 54 35.9767 53.522 35.9488 52.9513L34.6829 27H44C44.5523 27 45 27.4477 45 28V31H44.2222C40.7858 31 38 33.7858 38 37.2222C38 37.6518 38.3482 38 38.7778 38H53.2222C53.6518 38 54 37.6518 54 37.2222C54 33.7858 51.2142 31 47.7778 31H47V28C47 26.3431 45.6569 25 44 25H34.5854L34.0464 13.9513C34.0204 13.4186 33.5809 13 33.0476 13H26.9524ZM27.9048 15L26.0999 52H33.9001L32.0952 15H27.9048ZM12 35V46H20V35H12ZM12 30V33H20V30H12ZM17 52H15V48H17V52ZM44.2222 33H47.7778C49.6847 33 51.2963 34.2641 51.8204 36H40.1796C40.7037 34.2641 42.3153 33 44.2222 33Z" fill="#212121"/>
</svg>
