<svg width="64" height="64" viewBox="0 0 64 64" fill="none" xmlns="http://www.w3.org/2000/svg">
<path d="M57.2545 11.6355L57.2556 11.6384L57.5662 12.4468C57.7066 12.7854 58.0675 12.9985 58.4488 12.9985C58.5304 12.9985 58.5887 12.9855 58.6908 12.9626L58.7057 12.9593L58.7601 12.9472C59.2237 12.8 59.495 12.3464 59.3306 11.9186L59.0191 11.108C58.7588 10.4305 58.8249 9.61079 59.2899 9.03644C60.1413 7.89756 60.2394 6.35658 59.5175 5.13257L59.5146 5.12761L59.1339 4.43713L59.1333 4.43597C58.9185 4.03999 58.3755 3.88726 57.8927 4.0844C57.4367 4.27058 57.2601 4.74155 57.4871 5.16084L57.8665 5.84911C58.2812 6.56997 58.2471 7.51772 57.7485 8.18309L57.7435 8.18974C56.9614 9.15099 56.7929 10.4913 57.2545 11.6355Z" fill="#0B0D0E"/>
<path fill-rule="evenodd" clip-rule="evenodd" d="M24 19.9985C23.4477 19.9985 23 20.4463 23 20.9985V26.9985C23 27.5508 23.4477 27.9985 24 27.9985H30C30.5523 27.9985 31 27.5508 31 26.9985V20.9985C31 20.4463 30.5523 19.9985 30 19.9985H24ZM25 21.9985V25.9985H29V21.9985H25Z" fill="#0B0D0E"/>
<path fill-rule="evenodd" clip-rule="evenodd" d="M23 30.9985C23 30.4463 23.4477 29.9985 24 29.9985H30C30.5523 29.9985 31 30.4463 31 30.9985V36.9985C31 37.5508 30.5523 37.9985 30 37.9985H24C23.4477 37.9985 23 37.5508 23 36.9985V30.9985ZM25 35.9985V31.9985H29V35.9985H25Z" fill="#0B0D0E"/>
<path fill-rule="evenodd" clip-rule="evenodd" d="M34 19.9985C33.4477 19.9985 33 20.4463 33 20.9985V26.9985C33 27.5508 33.4477 27.9985 34 27.9985H40C40.5523 27.9985 41 27.5508 41 26.9985V20.9985C41 20.4463 40.5523 19.9985 40 19.9985H34ZM35 21.9985V25.9985H39V21.9985H35Z" fill="#0B0D0E"/>
<path fill-rule="evenodd" clip-rule="evenodd" d="M33 30.9985C33 30.4463 33.4477 29.9985 34 29.9985H40C40.5523 29.9985 41 30.4463 41 30.9985V36.9985C41 37.5508 40.5523 37.9985 40 37.9985H34C33.4477 37.9985 33 37.5508 33 36.9985V30.9985ZM35 35.9985V31.9985H39V35.9985H35Z" fill="#0B0D0E"/>
<path fill-rule="evenodd" clip-rule="evenodd" d="M23 13.9985V10.9985C23 9.89397 23.8954 8.99854 25 8.99854H39C40.1046 8.99854 41 9.89397 41 10.9985V13.9985H44C45.1046 13.9985 46 14.894 46 15.9985V53.9985C46 55.1031 45.1046 55.9985 44 55.9985H20C18.8954 55.9985 18 55.1031 18 53.9985V15.9985C18 14.894 18.8954 13.9985 20 13.9985H23ZM25 10.9985H39L39 13.9985H25V10.9985ZM44 53.9985H39V43.9985C39 42.894 38.1046 41.9985 37 41.9985H27C25.8954 41.9985 25 42.894 25 43.9985V53.9985H20V15.9985H44V53.9985ZM37 53.9985H27V43.9985H37V53.9985Z" fill="#0B0D0E"/>
<path d="M53.2491 11.6376L53.2478 11.6346C52.7866 10.493 52.9855 9.14762 53.7086 8.17971C54.2082 7.5139 54.2423 6.56574 53.8268 5.84451L53.4464 5.15579C53.2188 4.73622 53.3958 4.26484 53.8529 4.07854C54.3223 3.88728 54.8801 4.05141 55.1356 4.43804L55.5135 5.12254L55.5163 5.1274C56.24 6.35231 56.1416 7.8942 55.2883 9.03383C54.8221 9.60856 54.7558 10.4288 55.0168 11.1069L55.329 11.9179C55.4938 12.346 55.2217 12.8 54.7572 12.9471L54.6893 12.9622C54.5858 12.9854 54.5273 12.9985 54.4452 12.9985C54.0629 12.9985 53.7012 12.7853 53.5605 12.4465L53.2491 11.6376Z" fill="#0B0D0E"/>
<path d="M51.507 5.13088L51.5051 5.12761L51.1195 4.43713L51.1189 4.43597C50.9013 4.03999 50.3512 3.88726 49.862 4.0844C49.4 4.27058 49.2211 4.74155 49.4512 5.16084L49.8356 5.84911C50.2555 6.56986 50.2211 7.51751 49.7161 8.18289C48.9853 9.15004 48.7843 10.4946 49.2506 11.6355L49.5664 12.4468C49.7086 12.7855 50.0741 12.9985 50.4605 12.9985C50.5431 12.9985 50.6021 12.9855 50.7056 12.9626L50.7072 12.9622L50.7093 12.9618C50.7296 12.9573 50.7516 12.9524 50.7758 12.9472C51.2453 12.8 51.5203 12.3464 51.3538 11.9186L51.0382 11.108C50.7747 10.431 50.8413 9.61226 51.3112 9.03802C52.1401 7.89851 52.2399 6.38601 51.507 5.13088Z" fill="#0B0D0E"/>
</svg>
