<svg width="64" height="64" viewBox="0 0 64 64" fill="none" xmlns="http://www.w3.org/2000/svg">
<path fill-rule="evenodd" clip-rule="evenodd" d="M47.2135 15.372C45.1504 12.6941 46.2249 10.0195 48.0998 8.14575C50.93 5.31718 58.1247 5.87828 58.1247 5.87828C58.1247 5.87828 58.6807 13.074 55.8504 15.9026C53.9763 17.7755 51.3026 18.8481 48.6276 16.7864L47.7968 17.6173C47.4063 18.0078 46.7731 18.0078 46.3826 17.6173C45.9921 17.2268 45.9921 16.5936 46.3826 16.203L47.2135 15.372ZM54.4367 14.4878C53.6024 15.3216 52.7293 15.7968 51.9517 15.8896C51.4423 15.9503 50.8082 15.8691 50.0581 15.3556L52.9994 12.414C53.3899 12.0235 53.3899 11.3903 52.9994 10.9997C52.6089 10.6092 51.9758 10.6092 51.5853 10.9998L48.6441 13.9412C48.1298 13.1897 48.0488 12.5548 48.11 12.0448C48.2033 11.2672 48.6791 10.3943 49.5134 9.56053C49.9121 9.16206 50.5634 8.79478 51.4728 8.5021C52.3656 8.21476 53.3798 8.03986 54.3708 7.94165C55.0158 7.87774 55.6296 7.84833 56.1639 7.83785C56.1531 8.37226 56.1232 8.9861 56.0589 9.6311C55.96 10.6221 55.7844 11.6363 55.4964 12.529C55.2031 13.4383 54.8354 14.0893 54.4367 14.4878Z" fill="#212121"/>
<path d="M14 50.9999C14 51.5521 13.5523 51.9999 13 51.9999C12.4477 51.9999 12 51.5521 12 50.9999C12 50.4476 12.4477 49.9999 13 49.9999C13.5523 49.9999 14 50.4476 14 50.9999Z" fill="#212121"/>
<path d="M52 50.9999C52 51.5521 51.5523 51.9999 51 51.9999C50.4477 51.9999 50 51.5521 50 50.9999C50 50.4476 50.4477 49.9999 51 49.9999C51.5523 49.9999 52 50.4476 52 50.9999Z" fill="#212121"/>
<path d="M32 51.9999C32.5523 51.9999 33 51.5521 33 50.9999C33 50.4476 32.5523 49.9999 32 49.9999C31.4477 49.9999 31 50.4476 31 50.9999C31 51.5521 31.4477 51.9999 32 51.9999Z" fill="#212121"/>
<path fill-rule="evenodd" clip-rule="evenodd" d="M17 20.9999C15.8954 20.9999 15 21.8953 15 22.9999V27.5063L14.5113 28.0147C12.9 29.6912 12 31.9262 12 34.2515V45.9999C12 46.3505 12.0602 46.6871 12.1707 46.9999H12C9.79086 46.9999 8 48.7907 8 50.9999C8 53.209 9.79086 54.9999 12 54.9999H52C54.2091 54.9999 56 53.209 56 50.9999C56 48.7907 54.2091 46.9999 52 46.9999H51.8293C51.9398 46.6871 52 46.3505 52 45.9999V34.2515C52 31.9262 51.1 29.6912 49.4887 28.0147L49 27.5063V22.9999C49 21.8953 48.1046 20.9999 47 20.9999H45C43.8954 20.9999 43 21.8953 43 22.9999V27.5063L42.5113 28.0147C40.9 29.6912 40 31.9262 40 34.2515V45.9999C40 46.3505 40.0602 46.6871 40.1707 46.9999H37.8293C37.9398 46.6871 38 46.3505 38 45.9999V34.2515C38 31.9262 37.1 29.6912 35.4887 28.0147L35 27.5063V22.9999C35 21.8953 34.1046 20.9999 33 20.9999H31C29.8954 20.9999 29 21.8953 29 22.9999V27.5063L28.5113 28.0147C26.9 29.6912 26 31.9262 26 34.2515V45.9999C26 46.3505 26.0602 46.6871 26.1707 46.9999H23.8293C23.9398 46.6871 24 46.3505 24 45.9999V34.2515C24 31.9262 23.1 29.6912 21.4887 28.0147L21 27.5063V22.9999C21 21.8953 20.1046 20.9999 19 20.9999H17ZM50 34.9999V34.2515C50 32.4429 49.3 30.7046 48.0468 29.4007L47.5581 28.8922C47.3163 28.6407 47.1466 28.3325 47.0619 27.9999H44.9381C44.8534 28.3325 44.6837 28.6407 44.4419 28.8922L43.9532 29.4007C42.7 30.7046 42 32.4429 42 34.2515V45.9999C42 46.5521 42.4477 46.9999 43 46.9999H49C49.5523 46.9999 50 46.5521 50 45.9999H44V34.9999H50ZM50 43.9999H46V36.9999H50V43.9999ZM47 22.9999V25.9999H45V22.9999H47ZM12 48.9999C10.8954 48.9999 10 49.8953 10 50.9999C10 52.1044 10.8954 52.9999 12 52.9999H52C53.1046 52.9999 54 52.1044 54 50.9999C54 49.8953 53.1046 48.9999 52 48.9999H12ZM36 35.9999V42.9999H32V35.9999H36ZM30 33.9999H35.9955C35.9338 32.2823 35.2418 30.644 34.0468 29.4007L33.5581 28.8922C33.2 28.5197 33 28.023 33 27.5063V26.9999H31V27.5063C31 28.023 30.8 28.5197 30.4419 28.8922L29.9532 29.4007C28.7 30.7046 28 32.4429 28 34.2515V45.9999C28 46.5521 28.4477 46.9999 29 46.9999H35C35.5523 46.9999 36 46.5521 36 45.9999V44.9999H30V33.9999ZM33 24.9999H31V22.9999H33V24.9999ZM21.9955 33.9999C21.9338 32.2823 21.2418 30.644 20.0468 29.4007L19.5581 28.8922C19.2 28.5197 19 28.023 19 27.5063V26.9999H17V27.5063C17 28.023 16.8 28.5197 16.4419 28.8922L15.9532 29.4007C14.7 30.7046 14 32.4429 14 34.2515V45.9999C14 46.5521 14.4477 46.9999 15 46.9999H21C21.5523 46.9999 22 46.5521 22 45.9999V44.9999H16V33.9999H21.9955ZM22 42.9999H18V35.9999H22V42.9999ZM17 24.9999H19V22.9999H17V24.9999Z" fill="#212121"/>
</svg>
