<svg width="64" height="64" viewBox="0 0 64 64" fill="none" xmlns="http://www.w3.org/2000/svg">
<path fill-rule="evenodd" clip-rule="evenodd" d="M29.5206 31.0629C29.5219 31.042 29.5225 31.021 29.5225 30.9999C29.5225 30.9787 29.5219 30.9577 29.5206 30.9368V22.9999H29.5225C30.0748 22.9999 30.5225 22.5521 30.5225 21.9999C30.5225 21.4476 30.0748 20.9999 29.5225 20.9999H20.5225C19.9703 20.9999 19.5225 21.4476 19.5225 21.9999C19.5225 22.5515 19.9692 22.9988 20.5206 22.9999V34.7203C20.5206 34.9032 20.4705 35.0825 20.3757 35.2389L9.91993 52.4813C9.5158 53.1478 9.9956 53.9999 10.775 53.9999H39.2662C40.0456 53.9999 40.5254 53.1478 40.1212 52.4813L29.6655 35.2389C29.5707 35.0825 29.5206 34.9032 29.5206 34.7203V31.0629ZM27.9554 36.2759L37.4903 51.9999H12.5509L22.0858 36.2759C22.3702 35.8069 22.5206 35.2689 22.5206 34.7203V31.9999H27.5206V34.7203C27.5206 35.2689 27.671 35.8069 27.9554 36.2759ZM22.5206 22.9999V29.9999H27.5206V22.9999H22.5206Z" fill="#212121"/>
<path fill-rule="evenodd" clip-rule="evenodd" d="M38.5225 27.9999C37.9703 27.9999 37.5225 28.4476 37.5225 28.9999C37.5225 29.5516 37.9694 29.999 38.521 29.9999V32.7498C35.5537 33.9086 33.213 36.3187 32.1475 39.3313L33.6084 41.7404C33.6926 41.1393 33.8362 40.557 34.0331 39.9999H51.0088C51.3406 40.9385 51.521 41.9483 51.521 42.9999C51.521 47.9704 47.4915 51.9999 42.521 51.9999C41.4682 51.9999 40.4576 51.8191 39.5186 51.4869L40.1212 52.4813C40.3763 52.902 40.2796 53.3967 39.9772 53.7043C40.7937 53.8976 41.6454 53.9999 42.521 53.9999C48.5961 53.9999 53.521 49.075 53.521 42.9999C53.521 38.3359 50.6183 34.3499 46.521 32.7498V29.9999H46.5225C47.0748 29.9999 47.5225 29.5521 47.5225 28.9999C47.5225 28.4476 47.0748 27.9999 46.5225 27.9999H38.5225ZM50.0056 37.9999H35.0363C36.053 36.4806 37.5203 35.2877 39.2485 34.6127L40.521 34.1158V30.0001L44.521 29.9999V34.1158L45.7934 34.6127C47.5217 35.2877 48.9889 36.4806 50.0056 37.9999Z" fill="#212121"/>
<path d="M47.5225 43.9999C48.0748 43.9999 48.5225 43.5521 48.5225 42.9999C48.5225 42.4476 48.0748 41.9999 47.5225 41.9999C46.9703 41.9999 46.5225 42.4476 46.5225 42.9999C46.5225 43.5521 46.9703 43.9999 47.5225 43.9999Z" fill="#212121"/>
<path d="M45.5225 44.9999C45.5225 45.5521 45.0748 45.9999 44.5225 45.9999C43.9703 45.9999 43.5225 45.5521 43.5225 44.9999C43.5225 44.4476 43.9703 43.9999 44.5225 43.9999C45.0748 43.9999 45.5225 44.4476 45.5225 44.9999Z" fill="#212121"/>
<path d="M47.5225 47.9999C48.0748 47.9999 48.5225 47.5521 48.5225 46.9999C48.5225 46.4476 48.0748 45.9999 47.5225 45.9999C46.9703 45.9999 46.5225 46.4476 46.5225 46.9999C46.5225 47.5521 46.9703 47.9999 47.5225 47.9999Z" fill="#212121"/>
<path fill-rule="evenodd" clip-rule="evenodd" d="M47.2133 15.372C45.1501 12.6941 46.2246 10.0195 48.0995 8.14575C50.9298 5.31718 58.1244 5.87828 58.1244 5.87828C58.1244 5.87828 58.6804 13.074 55.8501 15.9026C53.976 17.7755 51.3023 18.8481 48.6273 16.7864L47.7965 17.6173C47.406 18.0078 46.7729 18.0078 46.3823 17.6173C45.9918 17.2268 45.9918 16.5936 46.3823 16.203L47.2133 15.372ZM54.4365 14.4878C53.6021 15.3216 52.7291 15.7968 51.9515 15.8896C51.442 15.9503 50.808 15.8691 50.0579 15.3556L52.9992 12.414C53.3897 12.0235 53.3897 11.3903 52.9991 10.9997C52.6086 10.6092 51.9755 10.6092 51.585 10.9998L48.6439 13.9412C48.1295 13.1897 48.0486 12.5548 48.1098 12.0448C48.2031 11.2672 48.6788 10.3943 49.5131 9.56053C49.9118 9.16206 50.5631 8.79478 51.4725 8.5021C52.3654 8.21476 53.3795 8.03986 54.3705 7.94165C55.0155 7.87774 55.6293 7.84833 56.1637 7.83785C56.1528 8.37226 56.123 8.9861 56.0586 9.6311C55.9597 10.6221 55.7841 11.6363 55.4962 12.529C55.2029 13.4383 54.8352 14.0893 54.4365 14.4878Z" fill="#212121"/>
</svg>
