<svg width="64" height="64" viewBox="0 0 64 64" fill="none" xmlns="http://www.w3.org/2000/svg">
<path fill-rule="evenodd" clip-rule="evenodd" d="M21.0512 55.9513L22.561 25H15C14.4477 25 14 25.4477 14 26V31H18C18.5523 31 19 31.4477 19 32V50C19 50.5523 18.5523 51 18 51H16V55H18C18.5523 55 19 55.4477 19 56C19 56.5523 18.5523 57 18 57H8C7.44772 57 7 56.5523 7 56C7 55.4477 7.44772 55 8 55H10V51H8C7.44772 51 7 50.5523 7 50V32C7 31.4477 7.44772 31 8 31H12V26C12 24.3432 13.3431 23 15 23L22.6585 23L22.9536 16.9513C22.9536 16.9516 22.9536 16.951 22.9536 16.9513C22.9801 16.419 23.4194 16 23.9524 16H30.0476C30.5809 16 31.0204 16.4186 31.0464 16.9513L31.5854 28H41C42.6569 28 44 29.3432 44 31V34.0619C44.2066 34.0877 44.4108 34.1213 44.6123 34.1625C45.0919 34.2607 45.5559 34.4017 46 34.5815C48.9318 35.7683 51 38.6426 51 42V56C51 56.5523 50.5523 57 50 57H36C35.4477 57 35 56.5523 35 56V42C35 38.6426 37.0682 35.7683 40 34.5815C40.6307 34.3262 41.3014 34.149 42 34.0619V31C42 30.4477 41.5523 30 41 30H31.6829L32.9488 55.9513C32.9767 56.522 32.5214 57 31.95 57H22.05C21.4788 57 21.0238 56.5216 21.0512 55.9513C21.0512 55.951 21.0511 55.9516 21.0512 55.9513ZM29.0952 18H24.9048L23.0999 55H30.9001L29.0952 18ZM40 36.8027C38.2066 37.8401 37 39.7792 37 42V55H49V42C49 39.7792 47.7934 37.8401 46 36.8027C45.3926 36.4514 44.7179 36.2034 44 36.083C43.6748 36.0284 43.3407 36 43 36C42.6593 36 42.3252 36.0284 42 36.083C41.2821 36.2034 40.6074 36.4514 40 36.8027ZM47 44C47 46.2092 45.2091 48 43 48C40.7909 48 39 46.2092 39 44C39 41.7909 40.7909 40 43 40C45.2091 40 47 41.7909 47 44ZM9 33V36H17V33H9ZM17 38H9V49H17V38ZM12 55H14V51H12V55ZM43 46C44.1046 46 45 45.1046 45 44C45 42.8954 44.1046 42 43 42C41.8954 42 41 42.8954 41 44C41 45.1046 41.8954 46 43 46ZM54.2083 18.9157C54.7086 18.2597 54.9964 17.2456 54.9968 16.0032C54.997 15.3907 54.787 14.6254 54.3471 13.7391C53.9144 12.8673 53.3161 11.9919 52.682 11.1925C52.2754 10.6799 51.8666 10.2142 51.499 9.81831C51.1311 10.2139 50.722 10.6793 50.315 11.1917C49.6804 11.9906 49.0815 12.8656 48.6482 13.7371C48.2076 14.6231 47.997 15.3883 47.9968 16.0007C47.9964 17.2431 48.2835 18.2574 48.7833 18.9138C49.215 19.4808 49.9666 20.0014 51.4954 20.002C53.0243 20.0025 53.7762 19.4824 54.2083 18.9157ZM51.4947 22.002C55.6368 22.0034 56.9958 19.0039 56.9968 16.0039C56.9983 11.8618 51.5 7.00195 51.5 7.00195C51.5 7.00195 45.9983 11.8579 45.9968 16C45.9958 19 47.3526 22.0005 51.4947 22.002Z" fill="#0B0D0E"/>
</svg>
