<svg width="64" height="64" viewBox="0 0 64 64" fill="none" xmlns="http://www.w3.org/2000/svg">
<path fill-rule="evenodd" clip-rule="evenodd" d="M21.0225 31C21.0225 30.4477 21.4703 30 22.0225 30H28.5225C29.0748 30 29.5225 30.4477 29.5225 31C29.5225 31.5523 29.0748 32 28.5225 32H22.0225C21.4703 32 21.0225 31.5523 21.0225 31ZM32.5225 39C32.5225 38.4477 32.9703 38 33.5225 38H51.5225C52.0748 38 52.5225 38.4477 52.5225 39C52.5225 39.5523 52.0748 40 51.5225 40H33.5225C32.9703 40 32.5225 39.5523 32.5225 39Z" fill="#212121"/>
<path fill-rule="evenodd" clip-rule="evenodd" d="M37.5225 29C37.5225 28.4477 37.9703 28 38.5225 28H46.5225C47.0748 28 47.5225 28.4477 47.5225 29C47.5225 29.5523 47.0748 30 46.5225 30H38.5225C37.9703 30 37.5225 29.5523 37.5225 29Z" fill="#212121"/>
<path fill-rule="evenodd" clip-rule="evenodd" d="M19.5225 22C19.5225 21.4477 19.9703 21 20.5225 21H29.5225C30.0748 21 30.5225 21.4477 30.5225 22C30.5225 22.5523 30.0748 23 29.5225 23H20.5225C19.9703 23 19.5225 22.5523 19.5225 22Z" fill="#212121"/>
<path fill-rule="evenodd" clip-rule="evenodd" d="M37.4903 52L27.9554 36.276C27.671 35.807 27.5206 35.269 27.5206 34.7205V23H22.5206V34.7205C22.5206 35.269 22.3702 35.807 22.0858 36.276L12.5509 52H37.4903ZM21.5206 21C20.9683 21 20.5206 21.4477 20.5206 22V34.7205C20.5206 34.9033 20.4705 35.0827 20.3757 35.239L9.91993 52.4815C9.5158 53.1479 9.9956 54 10.775 54H39.2662C40.0456 54 40.5254 53.1479 40.1212 52.4815L29.6655 35.239C29.5707 35.0827 29.5206 34.9033 29.5206 34.7205V22C29.5206 21.4477 29.0729 21 28.5206 21H21.5206Z" fill="#212121"/>
<path fill-rule="evenodd" clip-rule="evenodd" d="M39.9772 53.7044C40.7937 53.8977 41.6454 54 42.521 54C48.5961 54 53.521 49.0751 53.521 43C53.521 38.3361 50.6183 34.35 46.521 32.7499V28L38.521 28.0003V32.7499C35.5537 33.9087 33.213 36.3188 32.1475 39.3315L33.6084 41.7406C34.065 38.4801 36.2688 35.7765 39.2485 34.6129L40.521 34.1159V30.0002L44.521 30.0001V34.1159L45.7934 34.6129C49.1492 35.9234 51.521 39.1872 51.521 43C51.521 47.9706 47.4915 52 42.521 52C41.4682 52 40.4576 51.8193 39.5186 51.4871L40.1212 52.4815C40.3763 52.9022 40.2796 53.3968 39.9772 53.7044Z" fill="#212121"/>
<path d="M48.5225 43C48.5225 43.5523 48.0748 44 47.5225 44C46.9703 44 46.5225 43.5523 46.5225 43C46.5225 42.4477 46.9703 42 47.5225 42C48.0748 42 48.5225 42.4477 48.5225 43Z" fill="#212121"/>
<path d="M45.5225 45C45.5225 45.5523 45.0748 46 44.5225 46C43.9703 46 43.5225 45.5523 43.5225 45C43.5225 44.4477 43.9703 44 44.5225 44C45.0748 44 45.5225 44.4477 45.5225 45Z" fill="#212121"/>
<path d="M48.5225 47C48.5225 47.5523 48.0748 48 47.5225 48C46.9703 48 46.5225 47.5523 46.5225 47C46.5225 46.4477 46.9703 46 47.5225 46C48.0748 46 48.5225 46.4477 48.5225 47Z" fill="#212121"/>
<path fill-rule="evenodd" clip-rule="evenodd" d="M53.4897 5.39687L52.9108 6.21227L52.359 5.37831L52.9307 5L53.4897 5.39687ZM52.8913 7.47255C53.1395 7.68283 53.4502 7.96162 53.7855 8.2989C54.6081 9.12635 55.5328 10.2601 56.0769 11.558C56.2904 12.0674 56.8763 12.3072 57.3857 12.0937C57.895 11.8802 58.1349 11.2942 57.9214 10.7849C57.2381 9.15485 56.1187 7.80902 55.2039 6.88886C54.7417 6.42394 54.3201 6.05605 54.0119 5.8028C53.8576 5.67597 53.731 5.57731 53.6411 5.50902C53.5961 5.47486 53.5603 5.44826 53.5347 5.42949L53.5041 5.40722L53.4948 5.40054L53.4917 5.39833L53.4906 5.39751C53.4906 5.39751 53.4897 5.39687 52.9108 6.21227C52.359 5.37831 52.359 5.37831 52.359 5.37831L52.356 5.3803L52.3512 5.3835L52.3363 5.39351C52.3241 5.40177 52.3073 5.41322 52.2863 5.42778C52.2442 5.45691 52.1851 5.49857 52.1113 5.55229C51.9638 5.65965 51.7571 5.81561 51.5111 6.01642C51.0204 6.41686 50.3653 7.00181 49.7076 7.74161C48.4125 9.19841 46.9991 11.379 46.9991 14.0123C46.9991 15.4467 47.3308 16.9943 48.2813 18.2048C49.2637 19.4561 50.8015 20.2123 52.9108 20.2123C53.9696 20.2123 54.8944 20.023 55.6848 19.6612C56.187 19.4313 56.4077 18.8379 56.1778 18.3357C55.948 17.8335 55.3545 17.6128 54.8524 17.8426C54.3638 18.0663 53.7306 18.2123 52.9108 18.2123C51.321 18.2123 50.4029 17.6684 49.8543 16.9697C49.2737 16.2302 48.9991 15.1778 48.9991 14.0123C48.9991 12.0955 50.0416 10.3761 51.2023 9.07042C51.7726 8.42897 52.3453 7.91705 52.7756 7.56593C52.8155 7.53335 52.8541 7.50222 52.8913 7.47255Z" fill="#212121"/>
<path d="M51.2999 11.026C50.8857 11.026 50.5499 11.3618 50.5499 11.776V15.2744C50.5499 15.6886 50.8857 16.0244 51.2999 16.0244C51.7141 16.0244 52.0499 15.6886 52.0499 15.2744V14.3519H53.835V15.2744C53.835 15.6886 54.1708 16.0244 54.585 16.0244C54.9993 16.0244 55.335 15.6886 55.335 15.2744V11.776C55.335 11.3618 54.9993 11.026 54.585 11.026C54.1708 11.026 53.835 11.3618 53.835 11.776V12.8519H52.0499V11.776C52.0499 11.3618 51.7141 11.026 51.2999 11.026Z" fill="#212121"/>
<path fill-rule="evenodd" clip-rule="evenodd" d="M58.9991 16.788C58.9991 17.0222 58.8197 17.212 58.5983 17.212L56.6063 17.2123C56.1681 17.2123 55.9581 16.6432 56.2804 16.3293L57.643 15.0022C57.8429 14.785 57.8412 14.4376 57.638 14.2227C57.4331 14.006 57.1008 14.006 56.8959 14.2227C56.8406 14.2812 56.8008 14.3485 56.7755 14.42C56.6979 14.6393 56.4669 14.7505 56.2596 14.6685C56.0523 14.5864 55.9471 14.3422 56.0246 14.1229C56.0893 13.9401 56.1911 13.7691 56.329 13.6232C56.847 13.0753 57.6869 13.0753 58.2049 13.6232C58.7228 14.171 58.7228 15.0592 58.2049 15.607L58.199 15.6132L57.4279 16.3643L58.5982 16.3641C58.8196 16.3641 58.9991 16.5539 58.9991 16.788Z" fill="#212121"/>
</svg>
