<svg width="64" height="64" viewBox="0 0 64 64" fill="none" xmlns="http://www.w3.org/2000/svg">
<path fill-rule="evenodd" clip-rule="evenodd" d="M50.857 10.3296C49.6642 11.5216 49.0517 13.2944 50.5327 15.2322L50.2664 15.5196C49.8911 15.9248 49.9152 16.5575 50.3204 16.9329C50.7255 17.3082 51.3581 17.2841 51.7335 16.8789L51.9747 16.6185C53.8294 17.9033 55.518 17.2938 56.6676 16.1449C58.4986 14.3151 57.7407 9.26132 57.7407 9.26132C57.7407 9.26132 52.688 8.49971 50.857 10.3296ZM54.12 15.3366C54.4293 15.3223 54.827 15.1568 55.254 14.7301C55.3537 14.6305 55.5272 14.3626 55.6699 13.8032C55.8064 13.2677 55.8741 12.6255 55.8916 11.9641C55.8994 11.6683 55.8969 11.3808 55.8882 11.1126C55.6201 11.1038 55.3326 11.1011 55.0368 11.1087C54.3755 11.1257 53.7333 11.1929 53.1978 11.3291C52.6383 11.4714 52.3703 11.6448 52.2706 11.7444C51.8437 12.1711 51.6779 12.5687 51.6634 12.8781C51.6556 13.0459 51.6844 13.3317 51.9241 13.7302L52.7668 12.8205C53.1421 12.4153 53.7748 12.3912 54.1799 12.7665C54.585 13.1419 54.6092 13.7746 54.2339 14.1798L53.3569 15.1264C53.7091 15.3195 53.9649 15.3437 54.12 15.3366Z" fill="#212121"/>
<path fill-rule="evenodd" clip-rule="evenodd" d="M48 4C48 3.44771 48.4477 3 49 3H59C59.5523 3 60 3.44771 60 4C60 4.55229 59.5523 5 59 5H58V6C59.6569 6 61 7.34315 61 9V17C61 18.6569 59.6569 20 58 20H50C48.3431 20 47 18.6569 47 17V9C47 7.34315 48.3431 6 50 6V5H49C48.4477 5 48 4.55229 48 4ZM52 5V6H56V5H52ZM50 8C49.4477 8 49 8.44771 49 9V17C49 17.5523 49.4477 18 50 18H58C58.5523 18 59 17.5523 59 17V9C59 8.44772 58.5523 8 58 8H50Z" fill="#212121"/>
<path fill-rule="evenodd" clip-rule="evenodd" d="M25.9536 13.9513C25.9796 13.4186 26.4191 13 26.9524 13H33.0476C33.5809 13 34.0204 13.4186 34.0464 13.9513L34.5854 25H44C45.6569 25 47 26.3431 47 28V31H47.7778C51.2142 31 54 33.7858 54 37.2222C54 37.6518 53.6518 38 53.2222 38H38.7778C38.3482 38 38 37.6518 38 37.2222C38 33.7858 40.7858 31 44.2222 31H45V28C45 27.4477 44.5523 27 44 27H34.6829L35.9488 52.9513C35.9767 53.522 35.5214 54 34.95 54H25.05C24.4786 54 24.0233 53.522 24.0512 52.9513L25.561 22H18C17.4477 22 17 22.4477 17 23V28H21C21.5523 28 22 28.4477 22 29V47C22 47.5523 21.5523 48 21 48H19V52H21C21.5523 52 22 52.4477 22 53C22 53.5523 21.5523 54 21 54H11C10.4477 54 10 53.5523 10 53C10 52.4477 10.4477 52 11 52H13V48H11C10.4477 48 10 47.5523 10 47V29C10 28.4477 10.4477 28 11 28H15V23C15 21.3431 16.3431 20 18 20H25.6585L25.9536 13.9513ZM26.0999 52L27.9048 15H32.0952L33.9001 52H26.0999ZM12 46V35H20V46H12ZM12 33V30H20V33H12ZM15 52H17V48H15V52ZM47.7778 33H44.2222C42.3153 33 40.7037 34.2641 40.1796 36H51.8204C51.2963 34.2641 49.6847 33 47.7778 33Z" fill="#212121"/>
<path d="M46.4906 39.3967L45.9117 40.2121C46.4906 39.3967 46.4915 39.3974 46.4915 39.3974L46.4957 39.4004L46.505 39.4071L46.5356 39.4293C46.5612 39.4481 46.597 39.4747 46.642 39.5089C46.7319 39.5772 46.8584 39.6758 47.0128 39.8027C47.321 40.0559 47.7426 40.4238 48.2048 40.8887C49.1196 41.8089 50.239 43.1547 50.9223 44.7847C51.1358 45.2941 50.8959 45.8801 50.3866 46.0936C49.8772 46.3071 49.2912 46.0672 49.0777 45.5579C48.5337 44.26 47.609 43.1262 46.7864 42.2988C46.4511 41.9615 46.1404 41.6827 45.8922 41.4724C45.855 41.5021 45.8164 41.5332 45.7765 41.5658C45.3462 41.9169 44.7735 42.4288 44.2032 43.0703C43.0425 44.376 42 46.0954 42 48.0121C42 49.1776 42.2746 50.2301 42.8552 50.9696C43.4038 51.6683 44.3219 52.2121 45.9117 52.2121C46.7315 52.2121 47.3647 52.0661 47.8532 51.8425C48.3554 51.6126 48.9489 51.8334 49.1787 52.3355C49.4086 52.8377 49.1878 53.4312 48.6857 53.661C47.8952 54.0228 46.9705 54.2121 45.9117 54.2121C43.8024 54.2121 42.2646 53.456 41.2822 52.2047C40.3317 50.9942 40 49.4466 40 48.0121C40 45.3789 41.4134 43.1983 42.7085 41.7415C43.3661 41.0017 44.0213 40.4167 44.512 40.0163C44.758 39.8155 44.9646 39.6595 45.1121 39.5521C45.1859 39.4984 45.2451 39.4568 45.2872 39.4276C45.3082 39.4131 45.325 39.4016 45.3372 39.3934L45.3521 39.3834L45.3568 39.3802L45.3599 39.3782L45.9316 38.9999L46.4906 39.3967Z" fill="#212121"/>
<path d="M43.5508 45.7759C43.5508 45.3616 43.8866 45.0259 44.3008 45.0259C44.715 45.0259 45.0508 45.3616 45.0508 45.7759V46.8517H46.8359V45.7759C46.8359 45.3616 47.1717 45.0259 47.5859 45.0259C48.0002 45.0259 48.3359 45.3616 48.3359 45.7759V49.2743C48.3359 49.6885 48.0002 50.0243 47.5859 50.0243C47.1717 50.0243 46.8359 49.6885 46.8359 49.2743V48.3517H45.0508V49.2743C45.0508 49.6885 44.715 50.0243 44.3008 50.0243C43.8866 50.0243 43.5508 49.6885 43.5508 49.2743V45.7759Z" fill="#212121"/>
<path d="M52 50.7879C52 51.022 51.8206 51.2118 51.5992 51.2119L49.6072 51.2121C49.169 51.2122 48.959 50.6431 49.2813 50.3292L50.6439 49.002C50.8438 48.7849 50.8421 48.4375 50.6389 48.2225C50.434 48.0058 50.1017 48.0058 49.8968 48.2225C49.8415 48.281 49.8017 48.3484 49.7764 48.4198C49.6988 48.6391 49.4678 48.7504 49.2605 48.6683C49.0532 48.5863 48.9479 48.342 49.0255 48.1227C49.0902 47.94 49.1919 47.7689 49.3299 47.623C49.8479 47.0752 50.6878 47.0752 51.2057 47.623C51.7237 48.1709 51.7237 49.059 51.2057 49.6069L51.1999 49.613L50.4288 50.3642L51.5991 50.364C51.8205 50.364 52 50.5537 52 50.7879Z" fill="#212121"/>
</svg>
