<svg width="65" height="65" viewBox="0 0 65 65" fill="none" xmlns="http://www.w3.org/2000/svg">
<path d="M53.9621 2.03845C54.5143 2.03845 54.9621 2.48617 54.9621 3.03845V6.6143L58.3892 4.21883C58.8418 3.90243 59.4653 4.01289 59.7817 4.46556C60.0981 4.91823 59.9876 5.54168 59.535 5.85809L55.7076 8.53334L59.535 11.2086C59.9876 11.525 60.0981 12.1485 59.7817 12.6011C59.4653 13.0538 58.8418 13.1643 58.3892 12.8479L54.9621 10.4524V14.0385C54.9621 14.5907 54.5143 15.0385 53.9621 15.0385C53.4098 15.0385 52.9621 14.5907 52.9621 14.0385V10.4524L49.5349 12.8479C49.0823 13.1643 48.4588 13.0538 48.1424 12.6011C47.826 12.1485 47.9365 11.525 48.3891 11.2086L52.2165 8.53334L48.3891 5.85809C47.9365 5.54168 47.826 4.91823 48.1424 4.46556C48.4588 4.01289 49.0823 3.90243 49.5349 4.21883L52.9621 6.6143V3.03845C52.9621 2.48617 53.4098 2.03845 53.9621 2.03845Z" fill="#0B0D0E"/>
<path fill-rule="evenodd" clip-rule="evenodd" d="M23.962 24.1378C23.962 23.5855 24.4098 23.1378 24.962 23.1378H30.962C31.5143 23.1378 31.962 23.5855 31.962 24.1378V30.1378C31.962 30.6901 31.5143 31.1378 30.962 31.1378H24.962C24.4098 31.1378 23.962 30.6901 23.962 30.1378V24.1378ZM25.962 29.1378V25.1378H29.962V29.1378H25.962Z" fill="#0B0D0E"/>
<path fill-rule="evenodd" clip-rule="evenodd" d="M34.962 23.1378C34.4098 23.1378 33.962 23.5855 33.962 24.1378V30.1378C33.962 30.6901 34.4098 31.1378 34.962 31.1378H40.962C41.5143 31.1378 41.962 30.6901 41.962 30.1378V24.1378C41.962 23.5855 41.5143 23.1378 40.962 23.1378H34.962ZM35.962 25.1378V29.1378H39.962V25.1378H35.962Z" fill="#0B0D0E"/>
<path fill-rule="evenodd" clip-rule="evenodd" d="M32.962 8.13782C33.5143 8.13782 33.962 8.58553 33.962 9.13782V12.1378H36.962C38.0666 12.1378 38.962 13.0332 38.962 14.1378V17.1378H44.962C46.0666 17.1378 46.962 18.0332 46.962 19.1378V59.1378C46.962 60.2424 46.0666 61.1378 44.962 61.1378H20.962C19.8575 61.1378 18.962 60.2424 18.962 59.1378V19.1378C18.962 18.0332 19.8575 17.1378 20.962 17.1378H26.962V14.1378C26.962 13.0332 27.8575 12.1378 28.962 12.1378H31.962V9.13782C31.962 8.58553 32.4098 8.13782 32.962 8.13782ZM28.962 17.1378H36.962V14.1378H28.962V17.1378ZM20.962 19.1378V59.1378H44.962V19.1378H20.962Z" fill="#0B0D0E"/>
<path fill-rule="evenodd" clip-rule="evenodd" d="M22.962 36.1379C22.962 35.0333 23.8574 34.1379 24.962 34.1379H30.962C32.0666 34.1379 32.962 35.0333 32.962 36.1379V37.1379C32.962 38.2424 32.0666 39.1379 30.962 39.1379V42.1379L37.962 42.1379C39.6189 42.1379 40.962 43.481 40.962 45.1379V51.1379C42.0666 51.1379 42.962 52.0333 42.962 53.1379V54.1379C42.962 55.2424 42.0666 56.1379 40.962 56.1379H34.962C33.8574 56.1379 32.962 55.2424 32.962 54.1379V53.1379C32.962 52.0333 33.8574 51.1379 34.962 51.1379V48.1379L27.962 48.1379C26.3051 48.1379 24.962 46.7947 24.962 45.1379V39.1379C23.8574 39.1379 22.962 38.2424 22.962 37.1379V36.1379ZM26.962 39.1379H28.962V43.1379C28.9624 43.6898 29.41 44.1379 29.962 44.1379L37.962 44.1379C38.5143 44.1379 38.962 44.5856 38.962 45.1379V51.1379H36.962V47.1379C36.962 46.5856 36.5143 46.1379 35.962 46.1379L27.962 46.1379C27.4097 46.1379 26.962 45.6902 26.962 45.1379L26.962 39.1379ZM30.962 36.1379H24.962V37.1379H30.962V36.1379ZM40.962 54.1379V53.1379H34.962V54.1379H40.962Z" fill="#0B0D0E"/>
</svg>
