<svg width="64" height="64" viewBox="0 0 64 64" fill="none" xmlns="http://www.w3.org/2000/svg">
<path d="M55.2545 13.6367L55.2556 13.6396L55.5662 14.448C55.7066 14.7866 56.0675 14.9998 56.4488 14.9998C56.5304 14.9998 56.5887 14.9867 56.6908 14.9638L56.6924 14.9635C56.7131 14.9588 56.7354 14.9538 56.7601 14.9484C57.2237 14.8012 57.495 14.3477 57.3306 13.9198L57.0191 13.1092C56.7588 12.4317 56.8249 11.612 57.2899 11.0377C58.1413 9.89878 58.2394 8.3578 57.5175 7.13379L57.5146 7.12884L57.1339 6.43835L57.1333 6.43719C56.9185 6.04121 56.3755 5.88848 55.8927 6.08562C55.4367 6.2718 55.2601 6.74277 55.4871 7.16206L55.8665 7.85033C56.2812 8.57119 56.2471 9.51894 55.7485 10.1843L55.7435 10.191C54.9614 11.1522 54.7929 12.4926 55.2545 13.6367Z" fill="#0B0D0E"/>
<path fill-rule="evenodd" clip-rule="evenodd" d="M29.9264 16.498C30.5815 16.0811 31.4187 16.0811 32.0739 16.498L53.537 30.1563C54.0029 30.4528 54.1403 31.0709 53.8438 31.5369C53.5473 32.0028 52.9292 32.1402 52.4632 31.8437L49 29.6398V54.0966C49 55.2012 48.1046 56.0966 47 56.0966H15C13.8954 56.0966 13 55.2012 13 54.0966V29.6399L9.537 31.8437C9.07106 32.1402 8.45297 32.0028 8.15646 31.5369C7.85996 31.0709 7.99731 30.4528 8.46325 30.1563L15.4062 25.7381V18.3999C15.4062 17.8476 15.854 17.3999 16.4062 17.3999H20.4062C20.9585 17.3999 21.4062 17.8476 21.4062 18.3999V21.9199L29.9264 16.498ZM15 28.3672V54.0966H24V44.2321C24 44.2321 24 37 31 37C38 37 38 44.2321 38 44.2321V54.0966H47V28.367L31.0001 18.1853L15 28.3672ZM19.4062 23.1926L17.4062 24.4653V19.3999H19.4062V23.1926ZM36 44.2414L35.9993 44.2154C35.9984 44.1853 35.9961 44.1321 35.9911 44.0593C35.981 43.913 35.9598 43.6915 35.9162 43.4206C35.8272 42.8692 35.653 42.1657 35.3247 41.4873C34.9995 40.8153 34.5462 40.2137 33.9124 39.7771C33.2944 39.3514 32.3864 39 31 39C29.6136 39 28.7056 39.3514 28.0876 39.7771C27.4538 40.2137 27.0005 40.8153 26.6753 41.4873C26.347 42.1657 26.1728 42.8692 26.0838 43.4206C26.0402 43.6915 26.019 43.913 26.0089 44.0593C26.0039 44.1321 26.0016 44.1853 26.0007 44.2154L26 44.2414V54H36V44.2414Z" fill="#0B0D0E"/>
<path d="M51.2491 13.6388L51.2478 13.6358C50.7866 12.4942 50.9855 11.1488 51.7086 10.1809C52.2082 9.51512 52.2423 8.56696 51.8268 7.84573L51.4464 7.15701C51.2188 6.73745 51.3958 6.26606 51.8529 6.07976C52.3223 5.8885 52.8801 6.05263 53.1356 6.43926L53.5135 7.12376L53.5163 7.12862C54.24 8.35353 54.1416 9.89542 53.2883 11.0351C52.8221 11.6098 52.7558 12.43 53.0168 13.1081L53.329 13.9191C53.4938 14.3472 53.2217 14.8012 52.7572 14.9484L52.6893 14.9634C52.5858 14.9867 52.5273 14.9998 52.4452 14.9998C52.0629 14.9998 51.7012 14.7865 51.5605 14.4477L51.2491 13.6388Z" fill="#0B0D0E"/>
<path d="M49.507 7.1321L49.5051 7.12884L49.1195 6.43835L49.1189 6.43719C48.9013 6.04121 48.3512 5.88848 47.862 6.08562C47.4 6.2718 47.2211 6.74277 47.4512 7.16206L47.8356 7.85033C48.2555 8.57108 48.2211 9.51873 47.7161 10.1841C46.9853 11.1513 46.7843 12.4958 47.2506 13.6367L47.5664 14.448C47.7086 14.7867 48.0741 14.9998 48.4605 14.9998C48.5431 14.9998 48.6021 14.9867 48.7056 14.9638L48.7072 14.9635C48.7209 14.9604 48.7353 14.9572 48.7506 14.9539C48.7588 14.9521 48.7672 14.9502 48.7758 14.9484C49.2453 14.8012 49.5203 14.3477 49.3538 13.9198L49.0382 13.1092C48.7747 12.4322 48.8413 11.6135 49.3112 11.0392C50.1401 9.89973 50.2399 8.38723 49.507 7.1321Z" fill="#0B0D0E"/>
</svg>
