<svg width="64" height="64" viewBox="0 0 64 64" fill="none" xmlns="http://www.w3.org/2000/svg">
<path fill-rule="evenodd" clip-rule="evenodd" d="M29 7.94421C27.5797 7.94421 26.1593 8.68126 25.4223 10.1554L25.0156 10.9687C23.6975 13.6049 23.1332 16.554 23.3849 19.4905L23.7736 24.0256C23.685 24.0463 23.5978 24.0794 23.5144 24.1258L6.02872 33.84C5.39379 34.1928 5 34.862 5 35.5883V38.7027C5 40.0141 6.24082 40.9706 7.50899 40.6369L24.8073 36.0847L25.8558 48.3171L19.5583 51.4174C19.2165 51.5857 19 51.9336 19 52.3146V54.9999C19 55.5522 19.4477 55.9999 20 55.9999H29V53.9999H21V52.9369L26.9656 49.9999H29V47.9999H27.8359L25.3776 19.3197C25.1574 16.7502 25.6511 14.1698 26.8045 11.8631L27.2111 11.0498C27.5797 10.3127 28.2898 9.94421 29 9.94421V7.94421ZM24.6339 34.0622L23.9572 26.1677L7 35.5883V38.7027L24.6339 34.0622Z" fill="#0B0D0E"/>
<path d="M31 9C31 8.44771 31.4477 8 32 8C32.5523 8 33 8.44772 33 9V55C33 55.5523 32.5523 56 32 56C31.4477 56 31 55.5523 31 55V9Z" fill="#0B0D0E"/>
<path fill-rule="evenodd" clip-rule="evenodd" d="M49.25 54L49.6489 55.0637C49.8428 55.5808 50.4192 55.8428 50.9363 55.6489C51.4534 55.455 51.7155 54.8785 51.5215 54.3614L49.2641 48.3417C50.8464 47.8179 51.7233 46.0696 51.1311 44.4595L50.6969 43.2792L50.7372 43.2716C52.629 42.9169 54 41.265 54 39.3401V13C54 10.7909 52.2091 9 50 9H35V11H50C51.1046 11 52 11.8954 52 13V16H35V31H52V39.3401C52 40.3026 51.3145 41.1285 50.3686 41.3059L36.3686 43.9309C36.125 43.9766 35.875 43.9766 35.6314 43.9309L35 43.8125V45.8474L35.2628 45.8966C35.75 45.988 36.25 45.988 36.7372 45.8966L48.7034 43.653L49.254 45.1499C49.466 45.7264 49.1131 46.356 48.5107 46.4759L36.2396 48.9184L36.2249 48.9218C36.0769 48.956 35.9231 48.956 35.7751 48.9218L35.7604 48.9184L35 48.7671V50.8063L35.3416 50.8743C35.7751 50.9718 36.2249 50.9718 36.6584 50.8743L47.3019 48.7557C47.3125 48.8163 47.3288 48.8767 47.3511 48.9363L48.5 52L49.25 54ZM37 29H52V18H37V29Z" fill="#0B0D0E"/>
<path fill-rule="evenodd" clip-rule="evenodd" d="M45.5 40C47.433 40 49 38.433 49 36.5C49 34.567 47.433 33 45.5 33C43.567 33 42 34.567 42 36.5C42 38.433 43.567 40 45.5 40ZM47 36.5C47 37.3284 46.3284 38 45.5 38C44.6716 38 44 37.3284 44 36.5C44 35.6716 44.6716 35 45.5 35C46.3284 35 47 35.6716 47 36.5Z" fill="#0B0D0E"/>
</svg>
