<svg width="64" height="64" viewBox="0 0 64 64" fill="none" xmlns="http://www.w3.org/2000/svg">
<path fill-rule="evenodd" clip-rule="evenodd" d="M24.9635 24.7324C24.8157 24.2002 24.2645 23.8887 23.7324 24.0365L6.46471 28.8331C5.59908 29.0735 5 29.8617 5 30.7601V34.5C5 35.6046 5.89543 36.5 7 36.5H24.5C25.0523 36.5 25.5 36.0523 25.5 35.5C25.5 34.9477 25.0523 34.5 24.5 34.5H7L7 30.7601L24.2676 25.9635C24.7998 25.8157 25.1113 25.2645 24.9635 24.7324Z" fill="#212121"/>
<path fill-rule="evenodd" clip-rule="evenodd" d="M27.2111 11.0498C27.5797 10.3128 28.2899 9.94424 29.0001 9.94428V7.94427C27.5797 7.94424 26.1594 8.68129 25.4223 10.1554L24.7974 11.4052C23.6175 13.7651 23.0394 16.3801 23.1148 19.0175L23.9722 49.0286C23.9877 49.5695 24.4307 50 24.9718 50H29L29.0001 48L25.9437 48L25.114 18.9604C25.048 16.6527 25.5538 14.3645 26.5863 12.2996L27.2111 11.0498Z" fill="#212121"/>
<path fill-rule="evenodd" clip-rule="evenodd" d="M29 54H21V52.7016L24.6584 50H29L29.0001 48L24.3292 48C24.1154 48 23.9072 48.0685 23.7352 48.1956L19.406 51.3925C19.1507 51.5811 19 51.8796 19 52.197V55C19 55.5523 19.4477 56 20 56H29V54Z" fill="#212121"/>
<path fill-rule="evenodd" clip-rule="evenodd" d="M13 24C13 22.8954 13.8954 22 15 22H18C19.1046 22 20 22.8954 20 24V26H18V24H15V27H13V24Z" fill="#212121"/>
<rect x="31" y="8" width="2" height="48" rx="1" fill="#212121"/>
<path fill-rule="evenodd" clip-rule="evenodd" d="M47.9363 47.6489C48.4534 47.455 49.0299 47.717 49.2238 48.2341L51.5215 54.3614C51.7155 54.8785 51.4534 55.455 50.9363 55.6489C50.4192 55.8428 49.8428 55.5808 49.6489 55.0637L47.3511 48.9363C47.1572 48.4192 47.4192 47.8428 47.9363 47.6489Z" fill="#212121"/>
<path fill-rule="evenodd" clip-rule="evenodd" d="M35 29V18H37V29H35Z" fill="#212121"/>
<path fill-rule="evenodd" clip-rule="evenodd" d="M49 36.5C49 38.433 47.433 40 45.5 40C43.567 40 42 38.433 42 36.5C42 34.567 43.567 33 45.5 33C47.433 33 49 34.567 49 36.5ZM45.5 38C46.3284 38 47 37.3284 47 36.5C47 35.6716 46.3284 35 45.5 35C44.6716 35 44 35.6716 44 36.5C44 37.3284 44.6716 38 45.5 38Z" fill="#212121"/>
<path fill-rule="evenodd" clip-rule="evenodd" d="M52 18H35V16H54V31H35V29H52V18Z" fill="#212121"/>
<path fill-rule="evenodd" clip-rule="evenodd" d="M48.5107 46.4759L36.2396 48.9184L36.2249 48.9218C36.0769 48.956 35.9231 48.956 35.7751 48.9218L35.7604 48.9184L35 48.7671V49.7867V50.8063L35.3416 50.8743C35.7751 50.9718 36.2249 50.9718 36.6584 50.8743L48.9011 48.4374C50.7084 48.0777 51.7672 46.1889 51.1311 44.4595L50.6969 43.2792L50.7372 43.2716C52.629 42.9169 54 41.265 54 39.3401V13C54 10.7909 52.2091 9 50 9H35V11H50C51.1046 11 52 11.8954 52 13V39.3401C52 40.3026 51.3145 41.1285 50.3686 41.3059L49 41.5625L36.3686 43.9309C36.125 43.9766 35.875 43.9766 35.6314 43.9309L35 43.8125V45.8474L35.2628 45.8966C35.75 45.988 36.25 45.988 36.7372 45.8966L48.7034 43.653L49.254 45.1499C49.466 45.7264 49.1131 46.356 48.5107 46.4759Z" fill="#212121"/>
<path fill-rule="evenodd" clip-rule="evenodd" d="M35 54H50V52H35V54Z" fill="#212121"/>
</svg>
