<svg width="64" height="64" viewBox="0 0 64 64" fill="none" xmlns="http://www.w3.org/2000/svg">
<path fill-rule="evenodd" clip-rule="evenodd" d="M54.377 4.1103L50.9399 10.0474C50.1297 11.4471 51.1393 13.1995 52.7574 13.1995H53.2902L52.8342 15.3803C52.3284 17.7996 55.5812 19.0858 56.8667 16.9747L60.4897 11.0249C61.3419 9.62543 60.3345 7.83267 58.6961 7.83267H58.0302L58.4437 5.616C58.8971 3.18566 55.6157 1.97067 54.377 4.1103ZM56.1079 5.11233C56.2205 4.91782 56.5188 5.02827 56.4776 5.24922L55.8433 8.64928C55.7963 8.90133 55.8478 9.14549 55.968 9.34593C56.0969 9.56085 56.3048 9.72549 56.555 9.79563C56.6316 9.8171 56.7122 9.82972 56.7956 9.83221C56.8058 9.83252 56.8161 9.83267 56.8263 9.83267H58.6961C58.7741 9.83267 58.8221 9.91804 58.7815 9.98468L55.1585 15.9346C55.0416 16.1265 54.7459 16.0096 54.7919 15.7896L55.4997 12.4042C55.5521 12.1537 55.5062 11.9093 55.3912 11.7068C55.275 11.5022 55.0882 11.3405 54.8608 11.2585C54.796 11.2351 54.7279 11.2182 54.6572 11.2087C54.6127 11.2026 54.5672 11.1995 54.5209 11.1995H52.7574C52.6803 11.1995 52.6322 11.1161 52.6708 11.0494L56.1079 5.11233Z" fill="#0B0D0E"/>
<path fill-rule="evenodd" clip-rule="evenodd" d="M20.8065 27.0223C20.8065 25.3925 22.1277 24.0713 23.7574 24.0713C25.3872 24.0713 26.7084 25.3925 26.7084 27.0223C26.7084 28.652 25.3872 29.9732 23.7574 29.9732C22.1277 29.9732 20.8065 28.652 20.8065 27.0223ZM23.7574 26.0713C23.2323 26.0713 22.8065 26.4971 22.8065 27.0223C22.8065 27.5474 23.2323 27.9732 23.7574 27.9732C24.2826 27.9732 24.7084 27.5474 24.7084 27.0223C24.7084 26.4971 24.2826 26.0713 23.7574 26.0713Z" fill="#0B0D0E"/>
<path fill-rule="evenodd" clip-rule="evenodd" d="M57.102 45.1879C57.102 47.3781 56.1562 49.3475 54.6506 50.7096C56.0507 51.0029 57.1021 52.2446 57.1021 53.7318C57.1021 55.4371 55.7197 56.8195 54.0144 56.8195H9.2069C7.50157 56.8195 6.11914 55.4371 6.11914 53.7318C6.11914 52.0265 7.50158 50.644 9.2069 50.644H17.9108V43.6685C11.0439 41.2561 6.11975 34.7155 6.11975 27.0225C6.11975 17.2809 14.0169 9.38375 23.7585 9.38375C33.5001 9.38375 41.3972 17.2809 41.3972 27.0225C41.3972 27.9679 41.3229 28.8959 41.1797 29.8009V44.1353C41.1797 45.6414 41.784 47.0063 42.7633 48.0008C42.4088 47.133 42.2135 46.1833 42.2135 45.1879C42.2135 41.3904 45.057 38.257 48.7309 37.8008C48.7023 37.2741 48.2662 36.8559 47.7325 36.8559H44.6918C44.1395 36.8559 43.6918 36.4082 43.6918 35.8559C43.6918 35.3036 44.1395 34.8559 44.6918 34.8559H47.7325C49.3775 34.8559 50.7133 36.18 50.7322 37.8206C54.3345 38.3413 57.102 41.4414 57.102 45.1879ZM23.7585 11.3838C15.1215 11.3838 8.11975 18.3855 8.11975 27.0225C8.11975 33.591 12.1701 39.2157 17.9108 41.5316V26.9921C17.9108 23.7644 20.5273 21.1479 23.755 21.1479C26.9826 21.1479 29.5992 23.7644 29.5992 26.9921V41.5344C35.3436 39.2203 39.3972 33.5937 39.3972 27.0225C39.3972 18.3855 32.3955 11.3838 23.7585 11.3838ZM29.5992 43.671C33.693 42.2348 37.0969 39.3315 39.1797 35.5914V44.1353C39.1797 46.9176 40.6928 49.3465 42.941 50.644H29.5992V43.671ZM48.7325 39.8219C46.1664 40.2613 44.2135 42.4965 44.2135 45.1879C44.2135 47.0294 45.1278 48.6574 46.5272 49.6426C46.581 49.6442 46.635 49.645 46.6892 49.645L46.6892 49.7524C47.543 50.3088 48.5626 50.6322 49.6578 50.6322C52.6646 50.6322 55.102 48.1947 55.102 45.1879C55.102 42.549 53.2245 40.3486 50.7325 39.8497V42.3072C51.8302 42.7372 52.6076 43.8057 52.6076 45.0559C52.6076 46.6856 51.2864 48.0068 49.6566 48.0068C48.0269 48.0068 46.7057 46.6856 46.7057 45.0559C46.7057 43.7489 47.5554 42.6404 48.7325 42.2526V39.8219ZM48.7057 45.0559C48.7057 44.5307 49.1314 44.1049 49.6566 44.1049C50.1818 44.1049 50.6076 44.5307 50.6076 45.0559C50.6076 45.5811 50.1818 46.0068 49.6566 46.0068C49.1314 46.0068 48.7057 45.5811 48.7057 45.0559ZM19.9108 26.9921C19.9108 24.869 21.6319 23.1479 23.755 23.1479C25.878 23.1479 27.5992 24.869 27.5992 26.9921V50.6322H19.9108V26.9921ZM9.2069 52.644C8.60615 52.644 8.11914 53.131 8.11914 53.7318C8.11914 54.3325 8.60615 54.8195 9.2069 54.8195H54.0144C54.6151 54.8195 55.1021 54.3325 55.1021 53.7318C55.1021 53.131 54.6151 52.644 54.0144 52.644H9.2069Z" fill="#0B0D0E"/>
</svg>
