<svg width="64" height="64" viewBox="0 0 64 64" fill="none" xmlns="http://www.w3.org/2000/svg">
<path d="M32.3066 14.099L37.619 9.48691C38.1195 9.05243 38.1195 8.348 37.6191 7.91352L32.3066 3.30146C31.8896 2.93939 31.2134 2.93939 30.7964 3.30146C30.3793 3.66352 30.3793 4.25055 30.7964 4.61261L34.3529 7.70029L16.0454 7.70029C9.61133 7.70029 4.39551 12.9161 4.39551 19.3502V20.6506C4.39551 26.3664 9.02912 31 14.745 31C15.2972 31 15.745 30.5523 15.745 30C15.745 29.4477 15.2972 29 14.745 29C10.1337 29 6.39551 25.2618 6.39551 20.6506L6.39551 19.3502C6.39551 14.0207 10.7159 9.70029 16.0454 9.70029L34.3528 9.70029L30.7964 12.7878C30.3793 13.1499 30.3793 13.7369 30.7964 14.099C31.2134 14.461 31.8896 14.461 32.3066 14.099Z" fill="#0B0D0E"/>
<path fill-rule="evenodd" clip-rule="evenodd" d="M28.0999 35.1459C26.2251 37.0196 25.1506 39.6942 27.2136 42.372L26.3824 43.2033C25.9919 43.5938 25.9919 44.227 26.3824 44.6176C26.7729 45.0081 27.4061 45.0081 27.7966 44.6176L28.6276 43.7864C31.3027 45.8483 33.9764 44.7757 35.8505 42.9027C38.6808 40.0742 38.1249 32.8784 38.1249 32.8784C38.1249 32.8784 30.9302 32.3173 28.0999 35.1459ZM31.9519 42.8897C32.7295 42.797 33.6026 42.3218 34.4369 41.488C34.8356 41.0895 35.2033 40.4384 35.4966 39.5291C35.7845 38.6364 35.9601 37.6223 36.059 36.6312C36.1234 35.9862 36.1532 35.3724 36.1641 34.838C35.6297 34.8485 35.0159 34.8779 34.3709 34.9418C33.3799 35.04 32.3658 35.2149 31.473 35.5022C30.5636 35.7949 29.9123 36.1622 29.5136 36.5607C28.6793 37.3945 28.2035 38.2673 28.1102 39.0449C28.049 39.5549 28.13 40.1898 28.6442 40.9412L31.5851 38C31.9756 37.6095 32.6087 37.6095 32.9992 38C33.3897 38.3905 33.3897 39.0237 32.9992 39.4143L30.0582 42.3557C30.8083 42.8693 31.4424 42.9505 31.9519 42.8897Z" fill="#0B0D0E"/>
<path fill-rule="evenodd" clip-rule="evenodd" d="M31.9374 54.9269C40.8086 54.9269 48.0001 47.7353 48.0001 38.8641C48.0001 29.9929 40.8086 22.8014 31.9374 22.8014C23.0662 22.8014 15.8747 29.9929 15.8747 38.8641C15.8747 47.7353 23.0662 54.9269 31.9374 54.9269ZM31.9374 52.9269C39.704 52.9269 46.0001 46.6308 46.0001 38.8641C46.0001 31.0975 39.704 24.8014 31.9374 24.8014C24.1708 24.8014 17.8747 31.0975 17.8747 38.8641C17.8747 46.6308 24.1708 52.9269 31.9374 52.9269Z" fill="#0B0D0E"/>
<path d="M54.1805 10.7074L54.1792 10.7044C53.718 9.56279 53.9169 8.21744 54.64 7.24954C55.1396 6.58372 55.1737 5.63556 54.7582 4.91433L54.3778 4.22561C54.1502 3.80605 54.3272 3.33466 54.7843 3.14836C55.2537 2.9571 55.8115 3.12124 56.067 3.50787L56.4449 4.19236L56.4477 4.19722C57.1714 5.42214 57.073 6.96402 56.2197 8.10366C55.7535 8.67838 55.6872 9.49862 55.9482 10.1767L56.2604 10.9877C56.4252 11.4158 56.1531 11.8698 55.6886 12.017L55.6207 12.032C55.5172 12.0553 55.4587 12.0684 55.3766 12.0684C54.9943 12.0684 54.6326 11.8551 54.4918 11.5163L54.1805 10.7074Z" fill="#0B0D0E"/>
<path d="M58.1859 10.7053C57.7242 9.56117 57.8927 8.22071 58.6748 7.25946L58.6799 7.25292C59.1785 6.58754 59.2126 5.63979 58.7979 4.91893L58.4185 4.23066C58.1915 3.81137 58.3681 3.3404 58.8241 3.15422C59.3069 2.95708 59.8499 3.10982 60.0647 3.5058L60.0653 3.50695L60.446 4.19744L60.4489 4.2024C61.1708 5.4264 61.0727 6.96738 60.2213 8.10627C59.7563 8.68061 59.6902 9.50031 59.9505 10.1778L60.262 10.9884C60.4264 11.4163 60.1551 11.8698 59.6915 12.017L59.6547 12.0251L59.6222 12.0324C59.5201 12.0553 59.4618 12.0684 59.3802 12.0684C58.9988 12.0684 58.638 11.8552 58.4976 11.5166L58.1859 10.7053Z" fill="#0B0D0E"/>
<path d="M52.4384 4.20071L52.4365 4.19744L52.0509 3.50695L52.0503 3.5058C51.8327 3.10982 51.2826 2.95708 50.7934 3.15422C50.3314 3.3404 50.1525 3.81137 50.3826 4.23066L50.767 4.91893C51.1869 5.63969 51.1525 6.58733 50.6475 7.25271C49.9167 8.21987 49.7157 9.56444 50.182 10.7053L50.4978 11.5166C50.64 11.8553 51.0055 12.0684 51.3919 12.0684C51.4745 12.0684 51.5336 12.0553 51.6371 12.0324L51.6386 12.0321L51.6716 12.0248L51.7072 12.017C52.1767 11.8698 52.4517 11.4163 52.2852 10.9884L51.9696 10.1778C51.7061 9.50083 51.7727 8.68209 52.2426 8.10785C53.0715 6.96833 53.1713 5.45583 52.4384 4.20071Z" fill="#0B0D0E"/>
</svg>
