<svg width="64" height="64" viewBox="0 0 64 64" fill="none" xmlns="http://www.w3.org/2000/svg">
<path d="M54.2545 14.6355L54.2556 14.6384L54.5662 15.4468C54.7066 15.7854 55.0675 15.9985 55.4488 15.9985C55.5304 15.9985 55.5887 15.9855 55.6908 15.9626L55.7057 15.9593L55.7601 15.9472C56.2237 15.8 56.495 15.3464 56.3306 14.9186L56.0191 14.108C55.7588 13.4305 55.8249 12.6108 56.2899 12.0364C57.1413 10.8976 57.2394 9.35658 56.5175 8.13257L56.5146 8.12761L56.1339 7.43713L56.1333 7.43597C55.9185 7.03999 55.3755 6.88726 54.8927 7.0844C54.4367 7.27058 54.2601 7.74155 54.4871 8.16084L54.8665 8.84911C55.2812 9.56997 55.2471 10.5177 54.7485 11.1831L54.7435 11.1897C53.9614 12.151 53.7929 13.4913 54.2545 14.6355Z" fill="#0B0D0E"/>
<path fill-rule="evenodd" clip-rule="evenodd" d="M30 38.9985C30 38.4463 30.4477 37.9985 31 37.9985H37C37.5523 37.9985 38 38.4463 38 38.9985V44.9985C38 45.5508 37.5523 45.9985 37 45.9985H31C30.4477 45.9985 30 45.5508 30 44.9985V38.9985ZM32 43.9985V39.9985H36V43.9985H32Z" fill="#0B0D0E"/>
<path fill-rule="evenodd" clip-rule="evenodd" d="M41 37.9985C40.4477 37.9985 40 38.4463 40 38.9985V44.9985C40 45.5508 40.4477 45.9985 41 45.9985H47C47.5523 45.9985 48 45.5508 48 44.9985V38.9985C48 38.4463 47.5523 37.9985 47 37.9985H41ZM42 39.9985V43.9985H46V39.9985H42Z" fill="#0B0D0E"/>
<path fill-rule="evenodd" clip-rule="evenodd" d="M13.9131 11.3989C12.843 11.3989 11.9626 12.2411 11.9151 13.3101L10.0928 54.3101C10.0422 55.4484 10.9514 56.3989 12.0909 56.3989H23.9091C23.9393 56.3989 23.9693 56.3983 23.9991 56.3969L23.9992 56.3989H52.4544C53.5763 56.3989 54.4787 55.4762 54.4539 54.3546L54.0342 35.4403C54.014 34.532 53.3842 33.7514 52.5007 33.5397L24.6878 26.8754L24.0849 13.3101C24.0374 12.2411 23.1569 11.3989 22.0869 11.3989H13.9131ZM22.0869 13.3989H13.9131L12.0909 54.3989H23.9091L22.0869 13.3989ZM24.8122 28.9618L25.9144 54.3989H52.4544L52.0347 35.4846L24.8122 28.9618Z" fill="#0B0D0E"/>
<path d="M50.2491 14.6376L50.2478 14.6346C49.7866 13.493 49.9855 12.1476 50.7086 11.1797C51.2082 10.5139 51.2423 9.56574 50.8268 8.84451L50.4464 8.15579C50.2188 7.73622 50.3958 7.26484 50.8529 7.07854C51.3223 6.88728 51.8801 7.05141 52.1356 7.43804L52.5135 8.12254L52.5163 8.1274C53.24 9.35231 53.1416 10.8942 52.2883 12.0338C51.8221 12.6086 51.7558 13.4288 52.0168 14.1069L52.329 14.9179C52.4938 15.346 52.2217 15.8 51.7572 15.9471L51.6893 15.9622C51.5858 15.9854 51.5273 15.9985 51.4452 15.9985C51.0629 15.9985 50.7012 15.7853 50.5605 15.4465L50.2491 14.6376Z" fill="#0B0D0E"/>
<path d="M48.507 8.13088L48.5051 8.12761L48.1195 7.43713L48.1189 7.43597C47.9013 7.03999 47.3512 6.88726 46.862 7.0844C46.4 7.27058 46.2211 7.74155 46.4512 8.16084L46.8356 8.84911C47.2555 9.56986 47.2211 10.5175 46.7161 11.1829C45.9853 12.15 45.7843 13.4946 46.2506 14.6355L46.5664 15.4468C46.7086 15.7855 47.0741 15.9985 47.4605 15.9985C47.5431 15.9985 47.6021 15.9855 47.7056 15.9626L47.7072 15.9622C47.7178 15.9599 47.7288 15.9574 47.7404 15.9549C47.7517 15.9524 47.7635 15.9498 47.7758 15.9472C48.2453 15.8 48.5203 15.3464 48.3538 14.9186L48.0382 14.108C47.7747 13.431 47.8413 12.6123 48.3112 12.038C49.1401 10.8985 49.2399 9.38601 48.507 8.13088Z" fill="#0B0D0E"/>
</svg>
