<svg width="64" height="64" viewBox="0 0 64 64" fill="none" xmlns="http://www.w3.org/2000/svg">
<path fill-rule="evenodd" clip-rule="evenodd" d="M29.8387 12.811C29.8387 13.3633 30.2864 13.811 30.8387 13.811C31.391 13.811 31.8387 13.3633 31.8387 12.811V9C31.8387 8.44771 31.391 8 30.8387 8C30.2864 8 29.8387 8.44772 29.8387 9V12.811ZM25.162 16.1625C24.7715 16.553 24.1383 16.553 23.7478 16.1625L21.053 13.4677C20.6625 13.0772 20.6625 12.444 21.053 12.0535C21.4436 11.663 22.0767 11.663 22.4673 12.0535L25.162 14.7483C25.5526 15.1388 25.5526 15.772 25.162 16.1625ZM36.5175 14.7485C36.127 15.1391 36.127 15.7722 36.5175 16.1627C36.908 16.5533 37.5412 16.5533 37.9317 16.1627L40.6265 13.468C41.017 13.0774 41.017 12.4443 40.6265 12.0538C40.236 11.6632 39.6028 11.6632 39.2123 12.0538L36.5175 14.7485ZM27.2284 22.7549C27.2284 20.7608 28.8449 19.1442 30.8391 19.1442C32.8332 19.1442 34.4497 20.7608 34.4497 22.7549C34.4497 24.7491 32.8332 26.3656 30.8391 26.3656C28.8449 26.3656 27.2284 24.7491 27.2284 22.7549ZM30.8391 17.1442C27.7404 17.1442 25.2284 19.6562 25.2284 22.7549C25.2284 25.8536 27.7404 28.3656 30.8391 28.3656C33.9378 28.3656 36.4497 25.8536 36.4497 22.7549C36.4497 19.6562 33.9378 17.1442 30.8391 17.1442ZM17.9998 20.8402C17.4476 20.8402 16.9998 21.2879 16.9998 21.8402C16.9998 22.3924 17.4476 22.8402 17.9998 22.8402H21.8108C22.3631 22.8402 22.8108 22.3924 22.8108 21.8402C22.8108 21.2879 22.3631 20.8402 21.8108 20.8402H17.9998ZM38.87 21.8402C38.87 21.2879 39.3177 20.8402 39.87 20.8402H43.681C44.2332 20.8402 44.681 21.2879 44.681 21.8402C44.681 22.3924 44.2332 22.8402 43.681 22.8402H39.87C39.3177 22.8402 38.87 22.3924 38.87 21.8402ZM9.29289 50.2929C8.90237 49.9024 8.90237 49.2692 9.29289 48.8787L20.8787 37.2929C21.2692 36.9024 21.9024 36.9024 22.2929 37.2929C22.6834 37.6834 22.6834 38.3166 22.2929 38.7071L17.9998 43.0001L17.9998 55C17.9998 55.5522 17.5521 56 16.9998 56C16.4476 56 15.9998 55.5522 15.9998 55L15.9998 45.0001L10.7071 50.2929C10.3166 50.6834 9.68342 50.6834 9.29289 50.2929ZM25.2929 50.2929C24.9024 49.9024 24.9024 49.2692 25.2929 48.8787L36.8787 37.2929C37.2692 36.9024 37.9024 36.9024 38.2929 37.2929C38.6834 37.6834 38.6834 38.3166 38.2929 38.7071L33.9998 43.0001V55C33.9998 55.5522 33.5521 56 32.9998 56C32.4476 56 31.9998 55.5522 31.9998 55V45.0001L26.7071 50.2929C26.3166 50.6834 25.6834 50.6834 25.2929 50.2929ZM40.2929 50.2929C39.9024 49.9024 39.9024 49.2692 40.2929 48.8787L51.8787 37.2929C52.2692 36.9024 52.9024 36.9024 53.2929 37.2929C53.6834 37.6834 53.6834 38.3166 53.2929 38.7071L48.9998 43.0001V55C48.9998 55.5522 48.5521 56 47.9998 56C47.4476 56 46.9998 55.5522 46.9998 55V45.0001L41.7071 50.2929C41.3166 50.6834 40.6834 50.6834 40.2929 50.2929Z" fill="#0B0D0E"/>
</svg>
