<svg width="64" height="64" viewBox="0 0 64 64" fill="none" xmlns="http://www.w3.org/2000/svg">
<path d="M18.2656 11.3247C17.7133 11.3247 17.2656 10.8769 17.2656 10.3247V6.51367C17.2656 5.96139 17.7133 5.51367 18.2656 5.51367C18.8179 5.51367 19.2656 5.96139 19.2656 6.51367V10.3247C19.2656 10.8769 18.8179 11.3247 18.2656 11.3247Z" fill="#0B0D0E"/>
<path d="M23.9433 13.6763C23.5528 13.2858 23.5528 12.6526 23.9433 12.2621L26.6381 9.56731C27.0286 9.17678 27.6617 9.17678 28.0523 9.56731C28.4428 9.95783 28.4428 10.591 28.0523 10.9815L25.3575 13.6763C24.967 14.0668 24.3338 14.0668 23.9433 13.6763Z" fill="#0B0D0E"/>
<path fill-rule="evenodd" clip-rule="evenodd" d="M12.6545 20.2686C12.6545 17.1699 15.1665 14.6579 18.2652 14.6579C21.3639 14.6579 23.8759 17.1699 23.8759 20.2686C23.8759 23.3673 21.3639 25.8793 18.2652 25.8793C15.1665 25.8793 12.6545 23.3673 12.6545 20.2686ZM18.2652 16.6579C16.2711 16.6579 14.6545 18.2745 14.6545 20.2686C14.6545 22.2627 16.2711 23.8793 18.2652 23.8793C20.2594 23.8793 21.8759 22.2627 21.8759 20.2686C21.8759 18.2745 20.2594 16.6579 18.2652 16.6579Z" fill="#0B0D0E"/>
<path d="M4.42578 19.354C4.42578 18.8017 4.8735 18.354 5.42578 18.354H9.23677C9.78905 18.354 10.2368 18.8017 10.2368 19.354C10.2368 19.9062 9.78905 20.354 9.23677 20.354H5.42578C4.8735 20.354 4.42578 19.9062 4.42578 19.354Z" fill="#0B0D0E"/>
<path d="M27.2949 18.354C26.7426 18.354 26.2949 18.8017 26.2949 19.354C26.2949 19.9062 26.7426 20.354 27.2949 20.354H31.1059C31.6582 20.354 32.1059 19.9062 32.1059 19.354C32.1059 18.8017 31.6582 18.354 31.1059 18.354H27.2949Z" fill="#0B0D0E"/>
<path d="M11.1738 13.6763C11.5643 14.0668 12.1974 14.0668 12.588 13.6763C12.9785 13.2858 12.9785 12.6526 12.588 12.2621L9.89319 9.56731C9.50267 9.17679 8.8695 9.17679 8.47898 9.56731C8.08845 9.95783 8.08845 10.591 8.47898 10.9815L11.1738 13.6763Z" fill="#0B0D0E"/>
<path fill-rule="evenodd" clip-rule="evenodd" d="M28.76 27.4981C29.2259 27.2016 29.844 27.339 30.1405 27.8049C30.437 28.2709 30.2997 28.889 29.8337 29.1855L27.2969 30.7998V34.5876L30.9192 32.2611C31.5777 31.8381 32.4223 31.8381 33.0808 32.2611L54.0808 45.7488C54.6537 46.1167 55 46.7508 55 47.4316V50.0588C55 51.637 53.2577 52.5934 51.9262 51.7461L51.8574 51.7023V55.4736C51.8574 56.0258 51.4097 56.4736 50.8574 56.4736C50.3051 56.4736 49.8574 56.0258 49.8574 55.4736V50.4296L32 39.0658L14.127 50.4395V55.4736C14.127 56.0258 13.6792 56.4736 13.127 56.4736C12.5747 56.4736 12.127 56.0258 12.127 55.4736V51.7122L12.0738 51.7461C10.7423 52.5934 9 51.637 9 50.0588V47.4316C9 46.7508 9.34634 46.1167 9.91918 45.7488L15.3652 42.2509V38.0291L12.8338 39.64C12.3678 39.9365 11.7497 39.7992 11.4532 39.3332C11.1567 38.8673 11.2941 38.2492 11.76 37.9527L18.76 33.4981C19.2259 33.2016 19.844 33.339 20.1405 33.8049C20.437 34.2709 20.2997 34.889 19.8338 35.1855L17.3652 36.7563V40.9664L25.2969 35.8721V32.0726L22.8338 33.64C22.3678 33.9365 21.7497 33.7992 21.4532 33.3332C21.1567 32.8673 21.2941 32.2492 21.76 31.9527L28.76 27.4981ZM53 47.4316L32 33.9439L11 47.4316V50.0588L30.9262 37.3784C31.5814 36.9615 32.4186 36.9615 33.0738 37.3784L53 50.0588V47.4316Z" fill="#0B0D0E"/>
</svg>
