<svg width="64" height="64" viewBox="0 0 64 64" fill="none" xmlns="http://www.w3.org/2000/svg">
<path fill-rule="evenodd" clip-rule="evenodd" d="M36 8C36.5523 8 37 8.44772 37 9V13L39 13C40.1046 13 41 13.8954 41 15V19L48 19C48.5523 19 49 19.4477 49 20C49 20.5523 48.5523 21 48 21V31H47.9471L51.9658 33.7629C52.6818 34.2551 52.9981 35.1534 52.7484 35.9857L50.0001 45.1467V50.1091C52.2015 50.3537 53.9354 50.9746 55.1974 51.6056C56.0069 52.0103 56.6202 52.4182 57.0376 52.7313C57.2464 52.8878 57.4065 53.021 57.518 53.1185C57.5738 53.1673 57.6174 53.2072 57.6489 53.2368L57.6734 53.2599L57.6871 53.2732L57.6995 53.2852L57.7039 53.2896L57.7065 53.2922C57.7065 53.2922 57.602 53.398 57.4491 53.551L57.7072 53.2929C58.0978 53.6834 58.0978 54.3166 57.7072 54.7071C57.3178 55.0966 56.687 55.0976 56.2962 54.7103L56.2943 54.7084L56.293 54.7071L56.281 54.6958C56.2657 54.6815 56.239 54.6569 56.201 54.6237C56.125 54.5571 56.0038 54.4559 55.8376 54.3312C55.5051 54.0818 54.9934 53.7397 54.3029 53.3944C52.9252 52.7056 50.8274 52 48.0001 52C45.2094 52 43.6129 52.684 42.0442 53.408L41.8082 53.5172C40.2565 54.2365 38.6095 55 36.0001 55C35.648 55 35.3154 54.9861 35 54.9603V23.4814C35.6635 23.0981 36.4941 23.1261 37.1331 23.5654L46 29.6614V21L35 21V19H39V15L35 15V9C35.0003 8.44793 35.4479 8 36 8ZM48.0001 50V45.1467C48.0001 44.9521 48.0285 44.7585 48.0844 44.572L50.8328 35.411L37 25.901V52.9535C38.5971 52.7993 39.7184 52.2804 41.0028 51.686L41.2061 51.592C42.8874 50.816 44.7909 50 48.0001 50Z" fill="#0B0D0E"/>
<path d="M32 8C31.4477 8 31 8.44771 31 9L31 55C31 55.5523 31.4477 56 32 56C32.5523 56 33 55.5523 33 55V9C33 8.44772 32.5523 8 32 8Z" fill="#0B0D0E"/>
<path fill-rule="evenodd" clip-rule="evenodd" d="M10 9L29 9V11L10 11L10 24.1022L12 24.1022V20C12 18.3432 13.3431 17 15 17L29 17V19L15 19C14.4477 19 14 19.4477 14 20V21L29 21V23L14 23L14 34H29V36H14L14 47C14 47.5523 14.4477 48 15 48H29V50H22L22 53C22 54.1046 21.1046 55 20 55H14C12.8954 55 12 54.1046 12 53L12 50H10C8.89543 50 8 49.1046 8 48L8 11C8 9.89543 8.89543 9 10 9ZM12.0005 26.1764L10 26.1764V28C10 27.9851 10.0002 27.9702 10.0005 27.9554L10.0005 33.0445C10.0002 33.0297 10 33.0149 10 33L10 48H12.1707C12.0602 47.6872 12 47.3506 12 47L12.0005 26.1764ZM14 50L14 53H20L20 50H14Z" fill="#0B0D0E"/>
<path d="M25 38H29V40H25C24.4477 40 24 39.5523 24 39C24 38.4477 24.4477 38 25 38Z" fill="#0B0D0E"/>
<path d="M29 41H25C24.4477 41 24 41.4477 24 42C24 42.5523 24.4477 43 25 43H29V41Z" fill="#0B0D0E"/>
<path d="M25 44H29V46H25C24.4477 46 24 45.5523 24 45C24 44.4477 24.4477 44 25 44Z" fill="#0B0D0E"/>
<path fill-rule="evenodd" clip-rule="evenodd" d="M22 42.5C22 44.433 20.433 46 18.5 46C16.567 46 15 44.433 15 42.5C15 40.567 16.567 39 18.5 39C20.433 39 22 40.567 22 42.5ZM18.5 44C19.3284 44 20 43.3284 20 42.5C20 41.6716 19.3284 41 18.5 41C17.6716 41 17 41.6716 17 42.5C17 43.3284 17.6716 44 18.5 44Z" fill="#0B0D0E"/>
</svg>
