<svg width="64" height="64" viewBox="0 0 64 64" fill="none" xmlns="http://www.w3.org/2000/svg">
<path d="M31 9C31 8.44772 31.4477 8 32 8C32.5523 8 33 8.44772 33 9V54C33 54.5523 32.5523 55 32 55C31.4477 55 31 54.5523 31 54V9Z" fill="#0B0D0E"/>
<path fill-rule="evenodd" clip-rule="evenodd" d="M29 14H20.4604C18.5516 14 16.9087 15.3488 16.537 17.2211L15.1912 25.9761H12C11.4477 25.9761 11 26.4238 11 26.9761C11 28.0807 11.8954 28 13 28C14.1046 28 15 28 15 28C12.2386 28 10 30.2386 10 33V44C10 45.6569 11.3431 47 13 47H15V50C15 51.1046 15.8954 52 17 52H21C22.1046 52 23 51.1046 23 50V47H29V45H13C12.4477 45 12 44.5523 12 44V33C12 31.3431 13.3431 30 15 30H29V28H18.8722C17.6113 28 16.6649 26.8473 16.9105 25.6105L18.4987 17.6105C18.6846 16.6744 19.506 16 20.4604 16H29V14ZM21 47H17V50H21V47Z" fill="#0B0D0E"/>
<path d="M29 34H27C26.4477 34 26 34.4477 26 35C26 35.5523 26.4477 36 27 36H29V34Z" fill="#0B0D0E"/>
<path d="M29 38H27C26.4477 38 26 38.4477 26 39C26 39.5523 26.4477 40 27 40H29V38Z" fill="#0B0D0E"/>
<path fill-rule="evenodd" clip-rule="evenodd" d="M23 37C23 39.2091 21.2091 41 19 41C16.7909 41 15 39.2091 15 37C15 34.7909 16.7909 33 19 33C21.2091 33 23 34.7909 23 37ZM19 39C20.1046 39 21 38.1046 21 37C21 35.8954 20.1046 35 19 35C17.8954 35 17 35.8954 17 37C17 38.1046 17.8954 39 19 39Z" fill="#0B0D0E"/>
<path fill-rule="evenodd" clip-rule="evenodd" d="M49.25 54L49.6489 55.0636C49.8428 55.5808 50.4192 55.8428 50.9364 55.6489C51.4535 55.4549 51.7155 54.8785 51.5216 54.3614L49.2642 48.3417C50.8464 47.8178 51.7233 46.0696 51.1311 44.4595L50.6969 43.2792L50.7372 43.2716C52.629 42.9169 54 41.265 54 39.3401V13C54 10.7909 52.2091 9 50 9H35V11H50C51.1046 11 52 11.8954 52 13V16H35V31H52V39.3401C52 40.3026 51.3145 41.1285 50.3686 41.3059L36.3686 43.9309C36.125 43.9766 35.875 43.9766 35.6314 43.9309L35 43.8125V45.8474L35.2628 45.8966C35.75 45.988 36.25 45.988 36.7372 45.8966L48.7034 43.653L49.254 45.1499C49.466 45.7264 49.1131 46.356 48.5107 46.4759L36.2396 48.9184L36.2249 48.9218C36.0769 48.956 35.9231 48.956 35.7751 48.9218L35.7604 48.9184L35 48.7671V50.8063L35.3416 50.8743C35.7751 50.9718 36.2249 50.9718 36.6584 50.8743L47.3019 48.7557C47.3125 48.8162 47.3288 48.8767 47.3511 48.9363L48.5 52L49.25 54ZM52 29H37V18H52V29Z" fill="#0B0D0E"/>
<path fill-rule="evenodd" clip-rule="evenodd" d="M45.5 40C47.433 40 49 38.433 49 36.5C49 34.567 47.433 33 45.5 33C43.567 33 42 34.567 42 36.5C42 38.433 43.567 40 45.5 40ZM47 36.5C47 37.3284 46.3284 38 45.5 38C44.6716 38 44 37.3284 44 36.5C44 35.6716 44.6716 35 45.5 35C46.3284 35 47 35.6716 47 36.5Z" fill="#0B0D0E"/>
</svg>
