<svg width="64" height="64" viewBox="0 0 64 64" fill="none" xmlns="http://www.w3.org/2000/svg">
<path d="M31 9C31 8.44771 31.4477 8 32 8C32.5523 8 33 8.44771 33 9V54C33 54.5523 32.5523 55 32 55C31.4477 55 31 54.5523 31 54V9Z" fill="#0B0D0E"/>
<path fill-rule="evenodd" clip-rule="evenodd" d="M35 51H42C42.5523 51 43 50.5523 43 50C43 49.4477 42.5523 49 42 49H39.5L38.5 45H50C52.2091 45 54 43.2091 54 41V17C54 14.7909 52.2091 13 50 13H35V15H50C51.1046 15 52 15.8954 52 17V28H47V27.8726C47 26.009 45.701 24.4453 44 24C44.4905 23.464 45 22.7586 45 22C45 20.3921 43.5348 19 42 19C40.4652 19 39 20.3523 39 21.9603C39 22.7024 39.5174 23.464 40 24C38.2595 24.4535 37 25.9843 37 27.8726V28H35V30H52V41C52 42.1046 51.1046 43 50 43H47V42.8726C47 41.009 45.701 39.4453 44 39C44.4905 38.464 45 37.7586 45 37C45 35.3921 43.5348 34 42 34C40.4652 34 39 35.3523 39 36.9603C39 37.7024 39.5174 38.464 40 39C38.2595 39.4535 37 40.9843 37 42.8726V43H35V45H36.4384L37.4384 49H35V51ZM43 41C44.3212 41 45 41.6147 45 43H39C39 41.6147 39.6788 41 41 41H43ZM39 28H45C45 26.6147 44.3212 26 43 26H41C39.6788 26 39 26.6147 39 28ZM42 38C41.5 38 41 37.5 41 37C41 36.5 41.5 36 42 36C42.5 36 43 36.5 43 37C43 37.5 42.5 38 42 38ZM41 22C41 22.5 41.5 23 42 23C42.5 23 43 22.5 43 22C43 21.5 42.5 21 42 21C41.5 21 41 21.5 41 22Z" fill="#0B0D0E"/>
<path fill-rule="evenodd" clip-rule="evenodd" d="M20.4604 14H29V16H20.4604C19.506 16 18.6846 16.6744 18.4987 17.6105L16.9105 25.6105C16.6649 26.8473 17.6112 28 18.8722 28H29V30H15C13.3431 30 12 31.3431 12 33V44C12 44.5523 12.4477 45 13 45H29V47H23V50C23 51.1046 22.1046 52 21 52H17C15.8954 52 15 51.1046 15 50V47H13C11.3431 47 10 45.6569 10 44V33C10 30.2386 12.2386 28 15 28H13C11.8954 28 11 28.0994 11 26.9948C11 26.4425 11.4477 25.9948 12 25.9948H15.1912L16.537 17.2211C16.9087 15.3488 18.5516 14 20.4604 14ZM21 50V47H17V50H21Z" fill="#0B0D0E"/>
<path d="M27 34H29V36H27C26.4477 36 26 35.5523 26 35C26 34.4477 26.4477 34 27 34Z" fill="#0B0D0E"/>
<path d="M27 38H29V40H27C26.4477 40 26 39.5523 26 39C26 38.4477 26.4477 38 27 38Z" fill="#0B0D0E"/>
<path fill-rule="evenodd" clip-rule="evenodd" d="M19 41C21.2091 41 23 39.2091 23 37C23 34.7909 21.2091 33 19 33C16.7909 33 15 34.7909 15 37C15 39.2091 16.7909 41 19 41ZM21 37C21 38.1046 20.1046 39 19 39C17.8954 39 17 38.1046 17 37C17 35.8954 17.8954 35 19 35C20.1046 35 21 35.8954 21 37Z" fill="#0B0D0E"/>
</svg>
