<svg width="64" height="64" viewBox="0 0 64 64" fill="none" xmlns="http://www.w3.org/2000/svg">
<path d="M31 9C31 8.44771 31.4477 8 32 8C32.5523 8 33 8.44772 33 9V55C33 55.5523 32.5523 56 32 56C31.4477 56 31 55.5523 31 55V9Z" fill="#0B0D0E"/>
<path fill-rule="evenodd" clip-rule="evenodd" d="M49.25 54L49.6489 55.0637C49.8428 55.5808 50.4193 55.8428 50.9364 55.6489C51.4535 55.4549 51.7155 54.8785 51.5216 54.3614L49.2642 48.3417C50.8464 47.8178 51.7233 46.0696 51.1311 44.4595L50.6969 43.2792L50.7372 43.2716C52.629 42.9169 54 41.265 54 39.3401V13C54 10.7909 52.2091 9 50 9H35V11H50C51.1046 11 52 11.8954 52 13V16H35V31H52V39.3401C52 40.3026 51.3145 41.1285 50.3686 41.3059L36.3686 43.9309C36.125 43.9766 35.875 43.9766 35.6314 43.9309L35 43.8125V45.8474L35.2628 45.8966C35.75 45.988 36.25 45.988 36.7372 45.8966L48.7034 43.653L49.254 45.1499C49.466 45.7264 49.1131 46.356 48.5107 46.4759L36.2396 48.9184L36.2249 48.9218C36.0769 48.956 35.9231 48.956 35.7751 48.9218L35.7604 48.9184L35 48.7671V50.8063L35.3416 50.8743C35.7751 50.9718 36.2249 50.9718 36.6584 50.8743L47.302 48.7557C47.3125 48.8162 47.3288 48.8767 47.3512 48.9363L48.5 52L49.25 54ZM37 29H52V18H37V29Z" fill="#0B0D0E"/>
<path fill-rule="evenodd" clip-rule="evenodd" d="M49 36.5C49 38.433 47.433 40 45.5 40C43.567 40 42 38.433 42 36.5C42 34.567 43.567 33 45.5 33C47.433 33 49 34.567 49 36.5ZM45.5 38C46.3284 38 47 37.3284 47 36.5C47 35.6716 46.3284 35 45.5 35C44.6716 35 44 35.6716 44 36.5C44 37.3284 44.6716 38 45.5 38Z" fill="#0B0D0E"/>
<path fill-rule="evenodd" clip-rule="evenodd" d="M10 9L29 9V11L10 11V24.1022H12V20C12 18.3431 13.3431 17 15 17L29 17V19L15 19C14.4477 19 14 19.4477 14 20V21L29 21V23L14 23V34H29V36H14L14 47C14 47.5523 14.4477 48 15 48H29V50H22L22 53C22 54.1046 21.1046 55 20 55H14C12.8954 55 12 54.1046 12 53L12 50H10C8.89543 50 8 49.1046 8 48L8 11C8 9.89543 8.89543 9 10 9ZM12.0005 26.1764L10 26.1764V28C10 27.9851 10.0002 27.9702 10.0005 27.9554V33.0445C10.0002 33.0297 10 33.0149 10 33L10 48H12.1707C12.0602 47.6872 12 47.3506 12 47L12.0005 26.1764ZM14 50L14 53H20L20 50H14Z" fill="#0B0D0E"/>
<path d="M25 38H29V40H25C24.4477 40 24 39.5523 24 39C24 38.4477 24.4477 38 25 38Z" fill="#0B0D0E"/>
<path d="M29 41H25C24.4477 41 24 41.4477 24 42C24 42.5523 24.4477 43 25 43H29V41Z" fill="#0B0D0E"/>
<path d="M25 44H29V46H25C24.4477 46 24 45.5523 24 45C24 44.4477 24.4477 44 25 44Z" fill="#0B0D0E"/>
<path fill-rule="evenodd" clip-rule="evenodd" d="M22 42.5C22 44.433 20.433 46 18.5 46C16.567 46 15 44.433 15 42.5C15 40.567 16.567 39 18.5 39C20.433 39 22 40.567 22 42.5ZM18.5 44C19.3284 44 20 43.3284 20 42.5C20 41.6716 19.3284 41 18.5 41C17.6716 41 17 41.6716 17 42.5C17 43.3284 17.6716 44 18.5 44Z" fill="#0B0D0E"/>
</svg>
