<svg width="64" height="64" viewBox="0 0 64 64" fill="none" xmlns="http://www.w3.org/2000/svg">
<path d="M9 52.8238L12.3798 50.5125C13.3711 49.8346 14.8722 49.8285 15.873 50.4983L18.3651 52.1661C19.3551 52.8287 20.8371 52.8306 21.8302 52.1707L24.258 50.5574C25.3019 49.8636 26.8745 49.9059 27.8516 50.6539L29.6095 51.9998C30.3075 52.5342 31.1621 52.8238 32.0411 52.8238H32.0774C32.8832 52.8238 33.6702 52.5804 34.3353 52.1256L36.6941 50.5125C37.6854 49.8346 39.1865 49.8285 40.1873 50.4983L42.6794 52.1661C43.6694 52.8287 45.1514 52.8306 46.1445 52.1707L48.5723 50.5574C49.6162 49.8636 51.1888 49.9059 52.1658 50.6539L55 52.8238" stroke="#212121" stroke-width="2" stroke-linecap="round"/>
<path fill-rule="evenodd" clip-rule="evenodd" d="M49.356 9.94236L52.7931 4.00526L54.524 5.00729L51.0869 10.9444C51.0483 11.0111 51.0964 11.0945 51.1734 11.0945H52.9369C52.9833 11.0945 53.0287 11.0976 53.0732 11.1036C53.1439 11.1132 53.212 11.1301 53.2768 11.1534C53.5042 11.2354 53.6911 11.3972 53.8073 11.6018C53.9223 11.8042 53.9681 12.0486 53.9158 12.2992L53.2079 15.6846C53.1619 15.9045 53.4577 16.0214 53.5745 15.8295L57.1975 9.87964C57.2381 9.813 57.1902 9.72763 57.1121 9.72763H55.2424C55.2321 9.72763 55.2219 9.72748 55.2117 9.72717C55.1282 9.72468 55.0476 9.71206 54.971 9.69059C54.7208 9.62044 54.5129 9.45581 54.384 9.24088C54.2638 9.04045 54.2123 8.79628 54.2594 8.54424L54.8937 5.14417C54.9349 4.92323 54.6366 4.81278 54.524 5.00729L52.7931 4.00526C54.0318 1.86563 57.3131 3.08062 56.8597 5.51095L56.4462 7.72763H57.1121C58.7506 7.72763 59.7579 9.52039 58.9058 10.9198L55.2827 16.8697C53.9973 18.9808 50.7444 17.6946 51.2503 15.2753L51.7062 13.0945H51.1734C49.5553 13.0945 48.5457 11.342 49.356 9.94236Z" fill="#212121"/>
<path fill-rule="evenodd" clip-rule="evenodd" d="M23.2837 13.9989C22.7137 14.3347 22.431 15.0044 22.588 15.6471L23.8845 20.9564C23.9193 21.0989 23.9748 21.2356 24.0493 21.362L28.4569 28.8429L22.0399 41.2991C21.6709 42.0153 21.9336 42.895 22.6348 43.2916L23.3002 43.668C23.8761 43.9938 24.5974 43.9037 25.0755 43.4465L29.0252 39.669C29.1312 39.5676 29.2218 39.4512 29.294 39.3235L29.3798 39.1719L29.0014 50.6926C28.9833 51.2446 29.4161 51.7068 29.968 51.7249C30.52 51.7431 30.9822 51.3103 31.0003 50.7583L31.5003 35.5337C31.5015 35.4976 31.5008 35.4619 31.4982 35.4267L32.5541 33.56L33.0012 50.7515C33.0156 51.3036 33.4748 51.7395 34.0269 51.7251C34.579 51.7108 35.0149 51.2516 35.0005 50.6995L34.5038 31.6008C35.5693 30.5065 35.8266 28.7978 35.0253 27.4099C34.6465 26.7538 34.0873 26.2667 33.4466 25.9751L25.9691 14.1059C25.5368 13.4197 24.6373 13.2014 23.9385 13.6131L23.2837 13.9989ZM29.3573 31.4624C29.771 31.9372 30.2964 32.2802 30.8703 32.4746L27.5895 38.2746L24.1561 41.5583L29.3573 31.4624ZM30.2442 26.1288C29.9695 26.2874 29.7245 26.4775 29.511 26.6921L25.8099 20.4103L24.6914 15.8299L30.9785 25.8097C30.7275 25.886 30.4812 25.992 30.2442 26.1288ZM30.6951 29.9099C31.1094 30.6273 32.0267 30.8731 32.7442 30.4589C33.4616 30.0447 33.7074 29.1273 33.2932 28.4099C32.879 27.6924 31.9616 27.4466 31.2442 27.8608C30.5267 28.275 30.2809 29.1924 30.6951 29.9099Z" fill="#212121"/>
<path fill-rule="evenodd" clip-rule="evenodd" d="M48.1283 27.4033C48.7633 27.5887 49.2019 28.1684 49.2078 28.8299L49.2145 29.5899C49.2216 30.4009 48.5829 31.0707 47.7724 31.102L34.5141 31.6138L34.437 29.6153L46.9182 29.1335L42.3923 27.812L33.1089 27.894L33.0912 25.894L42.4484 25.8114C42.5951 25.8101 42.7412 25.8304 42.882 25.8715L48.1283 27.4033L47.8498 28.3572L48.1283 27.4033ZM47.5677 29.3231C47.5676 29.3231 47.5678 29.3232 47.5677 29.3231V29.3231Z" fill="#212121"/>
</svg>
