<svg width="64" height="64" viewBox="0 0 64 64" fill="none" xmlns="http://www.w3.org/2000/svg">
<path fill-rule="evenodd" clip-rule="evenodd" d="M29.743 20.3093C29.694 20.6597 29.8339 21.0099 30.1108 21.2302L34.0414 24.3569C34.6966 24.878 35.664 24.4115 35.664 23.5743V8.11751C35.664 7.11416 34.3513 6.73586 33.8173 7.58533L30.9781 12.1024C30.9028 12.222 30.8539 12.3562 30.8343 12.4962L29.743 20.3093ZM31.8027 20.0205L33.664 21.501V11.5875L32.7854 12.9852L31.8027 20.0205Z" fill="#0B0D0E"/>
<path fill-rule="evenodd" clip-rule="evenodd" d="M32.6631 32.3153C34.6237 32.3153 36.2131 30.7259 36.2131 28.7653C36.2131 26.8047 34.6237 25.2154 32.6631 25.2154C30.7025 25.2154 29.1132 26.8047 29.1132 28.7653C29.1132 30.7259 30.7025 32.3153 32.6631 32.3153ZM32.6631 30.3153C33.5191 30.3153 34.2131 29.6213 34.2131 28.7653C34.2131 27.9093 33.5191 27.2154 32.6631 27.2154C31.8071 27.2154 31.1132 27.9093 31.1132 28.7653C31.1132 29.6213 31.8071 30.3153 32.6631 30.3153Z" fill="#0B0D0E"/>
<path fill-rule="evenodd" clip-rule="evenodd" d="M31.8798 34C30.8222 34 29.9474 34.8234 29.8834 35.8791L28.7925 53.8791C28.7228 55.0291 29.6367 56 30.7888 56H34.5391C35.6912 56 36.6051 55.0291 36.5354 53.8791L35.4445 35.8791C35.3805 34.8234 34.5058 34 33.4482 34H31.8798ZM33.4482 36H31.8798L30.7888 54L34.5391 54L33.4482 36Z" fill="#0B0D0E"/>
<path fill-rule="evenodd" clip-rule="evenodd" d="M42.0652 30.5269C42.4168 30.4869 42.7634 30.6356 42.9766 30.918L47.7294 37.2145C47.8146 37.3273 47.8749 37.4568 47.9063 37.5946L49.0925 42.7969C49.3156 43.7751 48.1199 44.4358 47.4104 43.7263L36.4806 32.7964C35.8886 32.2044 36.2426 31.1906 37.0744 31.0958L42.0652 30.5269ZM39.3607 32.8481L41.7243 32.5787L46.004 38.2483L46.3712 39.8586L39.3607 32.8481Z" fill="#0B0D0E"/>
<path fill-rule="evenodd" clip-rule="evenodd" d="M28.7792 33.8066C28.8192 34.1582 28.6705 34.5047 28.3881 34.7179L22.0917 39.4709C21.9789 39.556 21.8494 39.6163 21.7116 39.6477L16.5099 40.8341C15.5317 41.0572 14.871 39.8615 15.5804 39.152L26.51 28.2224C27.102 27.6304 28.1159 27.9845 28.2107 28.8163L28.7792 33.8066ZM26.4582 31.1027L26.7274 33.4657L21.0578 37.7455L19.4483 38.1126L26.4582 31.1027Z" fill="#0B0D0E"/>
</svg>
